<svg width="64" height="75" viewBox="0 0 64 75" fill="none" xmlns="http://www.w3.org/2000/svg">
<path d="M53.9429 6.09032C50.5138 2.1987 44.3152 0.530273 36.3853 0.530273H13.3707C12.586 0.530153 11.8271 0.808806 11.2304 1.31611C10.6337 1.82341 10.2384 2.52606 10.1156 3.29768L0.53268 63.8128C0.342204 65.0061 1.27022 66.0867 2.48494 66.0867H16.6934L20.2618 43.5507L20.151 44.2564C20.4052 42.6635 21.7735 41.4885 23.3938 41.4885H30.1456C43.4096 41.4885 53.7955 36.1243 56.8293 20.6066C56.9194 20.1476 56.9974 19.7009 57.0648 19.2645C56.6819 19.0626 56.6819 19.0626 57.0648 19.2645C57.9683 13.529 57.0587 9.62492 53.9429 6.09032Z" fill="#27346A"/>
<path d="M25.6985 17.1984C26.0868 17.014 26.5117 16.9185 26.942 16.9191H44.9851C47.1217 16.9191 49.1145 17.0575 50.9356 17.3493C51.4452 17.4303 51.9522 17.5269 52.4558 17.639C53.1695 17.7958 53.875 17.9878 54.5697 18.2141C55.465 18.5118 56.2988 18.8585 57.0651 19.2645C57.9683 13.5268 57.0587 9.62492 53.9429 6.09032C50.5119 2.1987 44.3152 0.530273 36.3853 0.530273H13.3687C11.7482 0.530273 10.3695 1.70496 10.1156 3.29768L0.532682 63.8106C0.342205 65.0058 1.27022 66.085 2.48297 66.085H16.6934L24.0967 19.34C24.1695 18.8806 24.3533 18.4456 24.6324 18.0726C24.9114 17.6995 25.2773 17.3995 25.6985 17.1984Z" fill="#27346A"/>
<path d="M56.8303 20.6067C53.7965 36.1222 43.4108 41.4887 30.1466 41.4887H23.3928C21.7726 41.4887 20.404 42.6636 20.1523 44.2566L15.713 72.2773C15.5471 73.3216 16.3583 74.268 17.4194 74.268H29.3968C30.0829 74.2678 30.7464 74.0239 31.268 73.5801C31.7897 73.1363 32.1351 72.5218 32.2424 71.847L32.359 71.2394L34.6164 56.9941L34.7619 56.2068C34.8691 55.5321 35.2145 54.9176 35.7361 54.4738C36.2577 54.0301 36.9212 53.7861 37.6072 53.7859H39.3998C51.0023 53.7859 60.0874 49.0925 62.7423 35.5187C63.8504 29.8462 63.277 25.1102 60.3455 21.7836C59.4564 20.776 58.3522 19.9439 57.0659 19.2646C56.9962 19.7033 56.9207 20.1477 56.8303 20.6067Z" fill="#2790C3"/>
<path d="M53.8891 18.0042C53.416 17.8667 52.9385 17.7449 52.4573 17.6391C51.9535 17.5288 51.4466 17.4329 50.9372 17.3514C49.1141 17.0576 47.1227 16.9189 44.9842 16.9189H26.9433C26.5128 16.9182 26.0877 17.0145 25.6998 17.2005C25.278 17.4009 24.9117 17.7007 24.6325 18.0738C24.3534 18.447 24.1698 18.8823 24.0977 19.3421L20.2631 43.5509L20.1523 44.2566C20.4046 42.6636 21.7729 41.4887 23.3934 41.4887H30.1472C43.4112 41.4887 53.7968 36.1244 56.8306 20.6067C56.921 20.1478 56.9968 19.703 57.0664 19.2647C56.2983 18.8612 55.4665 18.5117 54.571 18.2162C54.3451 18.1416 54.1178 18.0709 53.8893 18.0042" fill="#1F264F"/>
</svg>
