<svg width="74" height="73" viewBox="0 0 74 73" fill="none" xmlns="http://www.w3.org/2000/svg">
<path d="M36.8848 22.0449C29.9601 22.1984 22.9122 24.3005 14.9398 28.6554C13.4923 30.3052 12.7452 32.0934 12.9038 33.9091C13.4399 40.0797 24.1532 44.2113 36.8318 43.1386C49.5127 42.0654 59.3563 36.194 58.8196 30.0251C58.7187 28.8674 58.2596 27.7807 57.4965 26.7879C50.2421 23.5816 43.6174 21.8947 36.8848 22.0449Z" fill="#BAE6FA"/>
<path opacity="0.35" d="M37.7804 22.0352C32.1475 22.0251 26.4597 23.2907 20.2781 26.0076C20.0186 26.9863 19.8789 28.0045 19.8789 29.0535C19.8789 36.3717 26.5789 42.3055 34.8439 42.3055C43.1077 42.3055 49.8083 36.3722 49.8083 29.0535C49.8083 27.0814 49.3167 25.2117 48.4436 23.5298C44.8392 22.5612 41.3204 22.042 37.7804 22.0352Z" fill="white"/>
<path d="M34.8442 21.5168C32.1655 21.3554 27.55 22.7335 23.7021 24.1083C23.1005 25.5039 22.7913 27.0051 22.793 28.5216C22.793 34.9341 28.6872 40.1328 34.9224 40.1328C41.116 40.1328 46.5967 34.9251 47.0518 28.5228C47.2001 26.4365 46.4718 24.4728 45.4623 22.7774C41.4718 22.0855 37.2384 21.6614 34.8437 21.5174" fill="white"/>
<path d="M27.9739 27.6803C28.3024 26.9626 28.7997 26.6115 29.2816 26.0102C29.2286 25.8679 29.1105 25.4016 29.1105 25.2396C29.1109 25.0267 29.164 24.817 29.2652 24.6289C29.3665 24.4409 29.5129 24.2801 29.6916 24.1605C29.8703 24.041 30.0759 23.9664 30.2905 23.9432C30.5052 23.92 30.7223 23.9489 30.923 24.0274C32.0435 23.1816 33.3385 22.5886 34.7167 22.2902C36.0949 21.9918 37.5227 21.9953 38.8994 22.3005C39.1648 22.3605 39.4246 22.4301 39.679 22.5092C36.8132 22.1172 33.5835 23.1184 31.3867 24.8672C31.4534 25.0231 31.6393 25.4691 31.6393 25.6497C31.6393 26.3708 31.1665 26.5457 30.4359 26.5457C30.2688 26.5457 30.1109 26.5142 29.9637 26.4597C29.4676 27.1167 28.859 28.3688 28.5613 29.1518C29.7761 30.2239 30.8745 30.6115 32.3043 31.1397C32.3014 31.0722 32.3533 31.0103 32.3533 30.9417C32.3533 28.7671 34.2941 27.0002 36.4995 27.0002C37.4415 27.0002 38.353 27.3293 39.0725 27.9289C39.792 28.5286 40.273 29.3602 40.4301 30.2762C41.4167 29.6575 42.3692 29.1833 43.0957 28.2664C42.9269 28.0628 42.7433 27.4846 42.7433 27.2005C42.7433 26.5469 43.2817 26.0164 43.9461 26.0164C44.0396 26.0164 44.1297 26.0294 44.2181 26.0502C44.5882 25.2998 44.8649 24.5081 45.0422 23.6922C41.5947 21.1756 34.9249 21.5192 34.9249 21.5192C34.9249 21.5192 29.6164 21.2459 26.0234 22.9727C26.263 24.6816 26.9542 26.305 27.9739 27.6803Z" fill="#353333"/>
<path d="M44.4491 26.6999C44.6938 26.9159 44.8267 27.1066 44.9305 27.2917C45.2538 27.8632 44.6065 28.3869 43.9438 28.3869C43.8774 28.386 43.8112 28.3794 43.7459 28.3672C42.9982 29.5186 41.6894 30.9963 40.5259 31.7399C42.3099 32.0285 43.9917 32.7322 45.3303 33.8212C46.3043 32.0983 47.0526 29.612 47.0526 27.5004C47.0526 25.8916 46.3317 24.7132 45.2464 23.8486C45.1888 24.7098 44.7217 25.9147 44.4491 26.6999ZM29.9723 37.6074C30.566 35.9891 32.0283 34.7347 33.4113 33.6316C33.2083 33.3583 32.9054 32.6821 32.7794 32.3615C31.113 31.8607 29.6146 30.9256 28.4422 29.6548C28.4346 29.6915 28.4254 29.7279 28.4148 29.7639C28.2026 30.7056 28.1525 31.6757 28.2665 32.6338C28.6651 32.7077 29.0249 32.9168 29.2838 33.2247C29.5427 33.5326 29.6844 33.9201 29.6843 34.3201C29.6843 34.8179 29.2412 35.5385 28.8984 35.8529C29.272 36.6478 29.5258 37.0314 29.9723 37.6079" fill="#353333"/>
<path d="M29.8688 38.9672C29.1594 38.2714 28.6695 36.8848 28.2092 36.0141C28.1219 36.0283 28.0336 36.0358 27.9452 36.0366C26.9836 36.0366 25.9765 35.2401 26.2046 34.3193C26.3312 33.8096 26.6871 33.4766 27.2682 33.1988C27.1353 32.1429 27.0994 30.6253 27.3481 29.5284C27.4193 29.2151 27.5705 29.0672 27.6709 28.7691C26.6101 27.2374 25.924 25.2276 25.924 23.2346C25.924 23.1615 25.9285 23.0901 25.9297 23.0181C24.1372 23.9046 22.793 25.3018 22.793 27.4995C22.793 32.364 25.6331 37.1363 29.8591 39.006L29.8688 38.9672ZM40.2611 32.2425C39.9872 33.0115 39.4781 33.6778 38.804 34.1493C38.1298 34.6208 37.324 34.8744 36.4976 34.875C35.6037 34.8757 34.7359 34.5783 34.035 34.0313C32.6354 35.1056 31.3659 36.9939 30.7215 38.6319C31.01 38.9385 31.2119 39.1922 31.537 39.4644C32.5157 39.7164 33.8639 39.4644 34.9229 39.4644C39.1849 39.4644 42.9586 37.5941 45.1218 34.3159C43.6829 33.3332 41.9863 32.3983 40.2611 32.2425Z" fill="#353333"/>
<path d="M27.8606 28.2487C28.1849 27.5415 28.5954 26.8758 29.0828 26.2665C29.0081 26.0689 28.9829 25.8565 29.0095 25.6473C29.0361 25.4381 29.1136 25.2384 29.2354 25.0651C29.3572 24.8918 29.5197 24.7502 29.709 24.6524C29.8984 24.5545 30.1089 24.5033 30.3227 24.503C30.4943 24.503 30.6592 24.5368 30.8103 24.5958C32.0395 23.6691 33.4766 23.0474 35.0005 22.7833C36.5244 22.5191 38.0904 22.6203 39.5663 23.0782C36.6999 22.6867 33.7394 23.5524 31.542 25.3012C31.6424 25.5369 31.6705 25.7965 31.6228 26.0477C31.5751 26.299 31.4536 26.5309 31.2736 26.7148C31.0935 26.8986 30.8626 27.0263 30.6097 27.082C30.3567 27.1377 30.0927 27.119 29.8504 27.0281C29.3498 27.6914 28.946 28.4208 28.6511 29.1948C29.6947 30.3035 30.9745 31.1805 32.4049 31.7081C32.4015 31.6406 32.3952 31.5748 32.3952 31.5056C32.395 30.9886 32.4981 30.4767 32.6986 29.9991C32.8991 29.5214 33.193 29.0874 33.5636 28.7218C33.9341 28.3562 34.3741 28.0662 34.8583 27.8684C35.3425 27.6705 35.8615 27.5687 36.3857 27.5687C38.3624 27.5687 39.9986 28.9862 40.318 30.8447C41.3088 30.2191 42.1839 29.4311 42.9055 28.5148C42.7298 28.3051 42.6329 28.042 42.6311 27.77C42.6311 27.1153 43.169 26.5848 43.8328 26.5848C43.9263 26.5848 44.0164 26.5983 44.1048 26.6186C44.4748 25.8686 44.7515 25.0772 44.9289 24.2617C41.4825 21.7434 34.8116 22.0871 34.8116 22.0871C34.8116 22.0871 29.5031 21.8137 25.9102 23.5417C26.1503 25.25 26.8409 26.8751 27.8606 28.2487Z" fill="#1185B0"/>
<path d="M44.6351 26.8935C44.8798 27.1095 45.0361 27.4206 45.0361 27.7699C45.0356 28.0841 44.9089 28.3853 44.6836 28.6075C44.4584 28.8296 44.153 28.9546 43.8344 28.9551C43.7671 28.9551 43.7015 28.9455 43.6365 28.9348C42.8895 30.0882 41.9001 31.0699 40.7354 31.8137C42.4541 32.0783 44.069 32.794 45.4108 33.886C46.4178 32.1081 46.9454 30.1051 46.9432 28.0686C46.9432 26.4598 46.2229 25.282 45.137 24.418C45.08 25.2786 44.9089 26.1088 44.6351 26.8935ZM30.1561 37.9967C30.756 36.3614 31.7967 34.9184 33.1662 33.823C32.9623 33.548 32.7956 33.2481 32.67 32.9308C31.004 32.4298 29.506 31.4947 28.3339 30.2241L28.3065 30.3321C28.0938 31.2737 28.0431 32.2438 28.1565 33.202C28.4733 33.2608 28.7672 33.4053 29.0056 33.6192C29.2439 33.8332 29.4173 34.1083 29.5064 34.4138C29.5955 34.7193 29.5967 35.0432 29.51 35.3494C29.4233 35.6556 29.2521 35.932 29.0154 36.1478C29.3287 36.8019 29.711 37.4216 30.1561 37.9967Z" fill="#1185B0"/>
<path d="M29.8633 38.9468C29.1561 38.253 28.5616 37.4557 28.101 36.5831C28.0131 36.5973 27.9243 36.6046 27.8352 36.6051C27.3735 36.6049 26.9308 36.4239 26.6044 36.1019C26.278 35.7798 26.0946 35.3431 26.0946 34.8878C26.0946 34.2077 26.4967 33.6221 27.0779 33.3443C26.9422 32.2607 26.9968 31.1622 27.2392 30.0969C27.3093 29.7867 27.3949 29.4802 27.4959 29.1784C26.3984 27.5948 25.8123 25.7208 25.8146 23.8026C25.8146 23.73 25.8186 23.658 25.8203 23.5854C24.0272 24.4719 22.6836 25.8698 22.6836 28.0686C22.6836 32.9325 25.6287 37.1164 29.8547 38.9867L29.8633 38.9468ZM40.1511 32.8099C39.8772 33.5789 39.3681 34.2452 38.694 34.7167C38.0199 35.1882 37.214 35.4418 36.3876 35.4424C35.494 35.4429 34.6263 35.146 33.925 34.5998C32.5255 35.6747 31.4698 37.1394 30.8248 38.7769C31.1152 39.0846 31.4237 39.3752 31.7487 39.6471C32.7495 39.903 33.7791 40.0325 34.813 40.0324C39.0749 40.0324 42.8202 37.8623 44.984 34.584C43.5456 33.6013 41.8769 32.9663 40.1511 32.8099Z" fill="#1185B0"/>
<path d="M35.2594 28.1528L33.1704 24.4684L34.3007 28.3795L30.9119 25.9495L33.5668 29.239L29.3596 27.7129L32.6793 30.1356L28.4225 30.265L32.7752 31.3731L28.418 32.3029L32.7187 32.6095L29.0915 34.9006L32.8271 33.5652L30.235 36.8029L33.5092 34.1974L32.3309 38.5411L34.8585 35.0063L34.5038 39.1818L35.9393 35.3961L37.1614 39.3741L37.458 35.3843L39.2716 38.7886L38.2005 34.8961L41.5198 37.4318L39.3765 34.1974L43.0185 35.5981L40.2337 32.8981L43.9681 33.1872L40.2896 31.7956L43.9778 30.9282L40.2765 30.7414L43.2877 28.4706L39.8704 29.6789L42.1933 26.5036L38.9847 28.6073L40.1065 24.8903L37.9028 27.9543L37.8532 24.082L36.4023 27.5307L35.1944 24.0415L35.2594 28.1528Z" fill="white"/>
<path opacity="0.35" d="M1.03125 38.7559C12.4672 27.4744 21.6024 23.9925 29.8919 22.4023C30.9898 22.192 31.1968 19.8278 31.1968 19.8278C31.1968 19.8278 31.3496 21.5693 32.1178 21.7965C32.8849 22.0232 33.8835 19.0701 33.8835 19.0701C33.8835 19.0701 32.9625 21.72 33.8835 21.8725C34.8046 22.0232 36.4927 19.2973 36.4927 19.2973C36.4927 19.2973 35.8026 21.6447 36.2634 21.796C36.7243 21.9473 39.026 18.3889 39.026 18.3889C39.026 18.3889 37.6453 20.7362 38.9496 20.9635C40.2556 21.1913 42.1593 19.3615 42.1593 19.3615C42.1593 19.3615 40.6623 21.0349 41.3295 21.2667C44.1697 22.251 46.468 18.61 46.468 18.61C46.468 18.61 45.9354 20.2063 44.5541 21.9478C47.5471 22.7055 49.7707 18.2578 49.7707 18.2578L47.5465 22.7055C48.6985 23.3108 53.3044 18.0874 53.3044 18.0874C53.3044 18.0874 50.9245 22.1751 49.5432 23.007C50.3102 23.6145 53.0734 21.1913 53.0734 21.1913C53.0734 21.1913 50.848 23.9155 51.6927 24.0673C52.9206 25.0517 57.4488 18.9947 57.4488 18.9947C57.4488 18.9947 55.6843 22.5531 53.0734 25.3543C55.2549 26.4304 60.6734 19.5252 60.6734 19.5252C60.6734 19.5252 60.5194 21.72 56.6054 25.2036C59.5214 24.825 63.2837 19.3738 63.2837 19.3738C63.2837 19.3738 61.9013 23.4621 58.6003 26.3382C61.4644 26.0457 66.0457 19.0707 66.0457 19.0707C66.0457 19.0707 64.28 23.9155 60.6734 26.7173C64.6644 27.5892 70.4217 21.72 70.4217 21.72C70.4217 21.72 68.157 25.8848 65.2022 27.5886C68.5032 28.8373 73.0315 23.6893 73.0315 23.6893C73.0315 23.6893 68.5032 30.5788 61.287 30.2762C58.9202 30.1767 51.7594 23.1915 36.4163 23.7647C16.1531 24.5224 11.8535 33.0015 1.03125 38.7559Z" fill="#353333"/>
<path d="M53.7723 17.2305C53.7723 17.2305 49.167 22.4544 48.015 21.8486L50.2387 17.4003C50.2387 17.4003 48.0144 21.848 45.0226 21.0915C46.4027 19.35 46.936 17.753 46.936 17.753C46.936 17.753 44.6376 21.3947 41.7975 20.4097C41.1302 20.1791 42.6273 18.5057 42.6273 18.5057C42.6273 18.5057 40.7224 20.3343 39.4181 20.1071C38.1138 19.8798 39.4945 17.5331 39.4945 17.5331C39.4945 17.5331 37.1922 21.092 36.7302 20.9402C36.2706 20.7894 36.9612 18.4415 36.9612 18.4415C36.9612 18.4415 35.2731 21.1674 34.352 21.0161C33.431 20.8648 34.352 18.2148 34.352 18.2148C34.352 18.2148 33.354 21.168 32.5864 20.9402C31.8181 20.7135 31.6653 18.972 31.6653 18.972C31.6653 18.972 31.4577 21.3362 30.3604 21.5454C22.0704 23.1362 12.9357 26.6192 1.49805 37.899C12.3209 32.1446 16.6193 23.6655 36.8842 22.9089C52.2273 22.3352 59.3876 29.3197 61.755 29.4193C68.9711 29.723 73.5 22.8324 73.5 22.8324C73.5 22.8324 68.9711 27.9804 65.6696 26.7311C68.6255 25.0284 70.8897 20.8642 70.8897 20.8642C70.8897 20.8642 65.1324 26.7311 61.1419 25.8603C64.7486 23.0597 66.5137 18.216 66.5137 18.216C66.5137 18.216 61.9324 25.1893 59.0682 25.4835C62.3692 22.6063 63.7505 18.5169 63.7505 18.5169C63.7505 18.5169 59.9893 23.9687 57.0721 24.3478C60.9879 20.8648 61.1419 18.6693 61.1419 18.6693C61.1419 18.6693 55.7239 25.5746 53.5425 24.4985C56.1505 21.6973 57.9168 18.1389 57.9168 18.1389C57.9168 18.1389 53.3885 24.1959 52.16 23.2115C51.3154 23.0597 53.5425 20.3343 53.5425 20.3343C53.5425 20.3343 50.7793 22.757 50.0111 22.1512C51.3924 21.3187 53.7723 17.2305 53.7723 17.2305ZM61.1385 29.9643C60.3663 29.9126 59.6853 30.1972 59.3374 31.1315C55.7673 37.832 48.2836 41.58 39.5322 42.8287C30.7807 44.0775 24.3334 42.2628 19.0369 40.7908C12.0716 38.8535 6.54531 42.2994 0.5 39.3086C1.89841 40.3998 3.49414 41.4663 8.09941 41.4798C9.66093 41.4855 14.662 41.238 15.5831 42.0328C16.5041 42.8276 12.4749 46.5755 12.4749 46.5755C12.4749 46.5755 19.2929 40.8898 19.9585 42.8282C20.3725 44.0347 18.0012 47.2578 18.0012 47.2578C18.0012 47.2578 20.3794 44.0752 22.1474 43.3963C23.3598 42.9294 24.383 42.9857 25.2556 44.1917C25.8316 44.9859 22.4924 48.8475 22.4924 48.8475C22.4924 48.8475 26.9819 44.5325 27.7883 44.7598C28.5947 44.9859 27.7883 48.8475 27.7883 48.8475C27.7883 48.8475 29.4399 44.9347 30.3205 44.6456C31.5296 44.2485 27.5573 53.73 27.5573 53.73C27.5573 53.73 32.409 44.9578 33.3146 44.7603C34.8693 44.4195 35.9061 50.8916 35.9061 50.8916C35.9061 50.8916 35.1488 45.2373 35.9632 44.8728C41.1188 42.5722 38.152 54.6395 38.152 54.6395C38.152 54.6395 41.5237 46.4507 39.4523 44.6343C44.9205 48.2107 44.2544 54.6395 44.2544 54.6395C44.2544 54.6395 45.6916 51.5784 41.6583 44.0516C43.8472 43.9391 47.131 49.6428 47.131 49.6428C47.131 49.6428 43.5626 43.3968 45.9807 43.2838C50.785 43.0588 51.2772 51.5733 51.2772 51.5733C51.2772 51.5733 52.7161 50.3808 48.8591 42.0333C51.3148 40.482 57.2643 49.7565 57.2643 49.7565C57.2643 49.7565 51.7762 40.7092 52.6591 40.1034C53.5408 39.4976 56.7665 42.9812 56.7665 42.9812C56.7665 42.9812 54.3101 39.65 54.9614 39.3092C55.6139 38.9677 62.1394 45.9337 62.1394 45.9337C62.1394 45.9337 56.3815 39.119 57.3795 38.286C57.9698 37.7927 59.6808 38.705 60.9868 39.5325C59.1561 38.241 56.5264 36.2199 57.3795 35.7828C59.1452 34.8789 64.1737 37.9451 64.1737 37.9451C64.1737 37.9451 61.1413 35.4847 61.6398 34.8795C62.1388 34.2731 68.0872 38.7405 68.0872 38.7405C68.0872 38.7405 62.8289 34.6511 62.5608 33.6296C62.2916 32.6081 66.707 33.9705 66.707 33.9705C66.707 33.9705 61.832 31.7373 61.7556 31.0938C61.678 30.4492 64.979 31.8127 64.979 31.8127C64.979 31.8127 62.838 30.0768 61.1385 29.9643ZM60.9868 39.5325C61.5184 39.9075 62.0558 40.2743 62.599 40.6327C62.599 40.6327 61.8862 40.1028 60.9868 39.5325Z" fill="#353333"/>
<path opacity="0.35" d="M0.731039 39.9894C6.77521 42.9802 12.3027 39.5354 19.2685 41.471C24.5644 42.9431 31.0124 44.7594 39.7627 43.5089C48.5141 42.2613 55.9977 38.5128 59.5685 31.8123C60.6806 28.8215 65.21 32.4929 65.21 32.4929C65.21 32.4929 61.909 31.1317 61.9855 31.7746C62.063 32.4181 66.9358 34.6507 66.9358 34.6507C66.9358 34.6507 62.5233 33.2894 62.7919 34.3104C63.0611 35.333 68.3176 39.4213 68.3176 39.4213C68.3176 39.4213 62.3704 34.9539 61.8708 35.5591C61.3712 36.1644 64.403 38.627 64.403 38.627C64.403 38.627 59.3763 35.5591 57.6106 36.4642C56.3411 37.1139 62.8301 41.3146 62.8301 41.3146C62.8301 41.3146 58.6081 38.1348 57.6106 38.9679C56.6125 39.8004 62.3704 46.6139 62.3704 46.6139C62.3704 46.6139 55.8438 39.6485 55.1925 39.9894C54.5389 40.3297 56.9964 43.6608 56.9964 43.6608C56.9964 43.6608 53.7718 40.1789 52.8901 40.7847C52.0073 41.3906 57.496 50.4367 57.496 50.4367C57.496 50.4367 51.5465 41.1627 49.0895 42.7147C52.9477 51.0611 51.5077 52.2547 51.5077 52.2547C51.5077 52.2547 51.0161 43.7384 46.2118 43.9634C43.7936 44.0771 47.3626 50.3236 47.3626 50.3236C47.3626 50.3236 44.0776 44.6188 41.8899 44.7324C45.922 52.2586 44.4848 55.3186 44.4848 55.3186C44.4848 55.3186 45.1504 48.8932 39.6811 45.3157C41.7536 47.1326 38.3808 55.3209 38.3808 55.3209C38.3808 55.3209 41.3487 43.2536 36.1931 45.5542C35.3781 45.9176 36.136 51.5729 36.136 51.5729C36.136 51.5729 35.0986 45.0986 33.5457 45.4411C32.6389 45.6391 27.7884 54.4119 27.7884 54.4119C27.7884 54.4119 31.7606 44.9293 30.5515 45.3275C29.671 45.6172 28.0194 49.5294 28.0194 49.5294C28.0194 49.5294 28.8241 45.6684 28.0194 45.4411C27.2124 45.2133 22.7217 49.5294 22.7217 49.5294C22.7217 49.5294 26.062 45.6684 25.4849 44.873C24.6123 43.6681 23.5897 43.6113 22.3767 44.0776C20.6104 44.7566 18.2316 47.9392 18.2316 47.9392C18.2316 47.9392 20.603 44.7161 20.189 43.5095C19.524 41.5711 12.7053 47.258 12.7053 47.258C12.7053 47.258 16.7346 43.5095 15.8135 42.7152C14.8925 41.9199 9.89083 42.1663 8.32988 42.1623C3.72461 42.1477 2.12887 41.0817 0.730469 39.9899" fill="#353333"/>
</svg>
