<svg width="111" height="58" viewBox="0 0 111 58" fill="none" xmlns="http://www.w3.org/2000/svg">
<path d="M54.7523 35.3889H64.9213V37.8027H54.5783C54.4735 37.8027 54.3346 37.8257 54.2298 37.8257C52.9416 37.9421 52.5584 38.1514 52.3846 38.8941C52.3493 39.0102 52.3493 39.1034 52.3493 39.1963V40.8442C52.3493 40.9606 52.3493 41.0538 52.3846 41.17C52.5586 42.1452 53.255 42.5853 54.7173 42.5853H59.1051C60.1849 42.5853 61.2986 42.7714 62.205 43.1201C63.911 43.7698 64.7823 44.7448 64.7823 45.7897V48.4361C64.7823 49.7136 64.0158 50.689 62.449 51.408C61.5078 51.8492 60.3243 52.1039 59.1049 52.1039H48.6927V49.6901H58.688C58.8274 49.6901 58.9313 49.6671 59.0709 49.6671C59.7669 49.6204 60.2895 49.4345 60.6025 49.1553C60.9514 48.878 61.125 48.5523 61.125 48.2965V46.1843C61.125 45.9526 61.0553 45.7433 60.8469 45.5339C60.4988 45.1164 60.0102 44.9077 58.8614 44.8148C58.7568 44.7915 58.6181 44.7915 58.4787 44.7915H54.7171C54.369 44.7915 54.0211 44.7683 53.6722 44.7448C50.5732 44.4202 48.7275 43.0272 48.7275 41.4017V39.2895C48.7275 37.4322 49.6679 36.3639 51.827 35.6905C52.5233 35.4818 53.2896 35.3889 54.7523 35.3889ZM82.9456 51.3716L86.5134 54.5915H82.3076L79.4215 51.9862L76.5157 52.1706H72.6418C71.979 52.1706 71.2811 52.0775 70.5135 51.8681C68.2107 51.2402 67.0933 50.0307 67.0933 48.0293V39.4218C67.0933 37.2345 68.6296 35.9078 71.6649 35.4891C71.979 35.4424 72.3279 35.4194 72.6418 35.4194H79.5173C79.866 35.4194 80.1801 35.4424 80.529 35.4891C83.5644 35.9078 85.0998 37.2345 85.0998 39.4218V48.0293C85.1 49.8033 84.4488 50.7533 82.9456 51.3716ZM81.7155 39.6313C81.7155 39.5382 81.7155 39.4218 81.6807 39.3045C81.4713 38.3743 80.5293 37.839 79.1337 37.839H73.6549C72.0489 37.839 71.0031 38.5369 71.0031 39.6311V47.8197C71.0031 47.9361 71.038 48.0523 71.072 48.1919C71.2813 49.1929 72.2242 49.7512 73.6549 49.7512H76.9445L73.9223 47.0225H78.1281L80.7646 49.4023C81.2495 49.1428 81.5696 48.7474 81.6807 48.2384C81.7155 48.1231 81.7155 48.0058 81.7155 47.8894V39.6313ZM23.9374 35.4119C21.1863 34.5531 19.3402 35.2957 18.5049 37.153L13.0024 49.4578L7.67438 37.153C6.87322 35.2957 4.99273 34.5531 2.24181 35.4119C1.09257 35.76 0.535156 36.4336 0.535156 37.8257V52.1041H4.15651V37.8025L9.76376 50.2701C10.4253 51.7795 11.3308 52.3135 13.1065 52.3135C14.8829 52.3135 15.7533 51.7795 16.4153 50.2701L22.0221 37.8025V52.1041H25.6441V37.8257C25.6439 36.4336 25.0867 35.76 23.9374 35.4119ZM42.2726 40.4256V49.8067C42.2092 49.8067 35.4094 49.8229 34.3972 49.8067C32.4133 49.7762 32.242 48.7708 32.276 48.3429V40.463H28.6553C28.7345 40.5418 28.6544 48.4253 28.657 48.5916C28.6852 50.3897 30.9661 51.952 34.5474 51.9858H42.2453V52.935C42.2457 53.325 42.5209 54.4837 40.1899 54.7307C40.1613 54.7324 28.7538 54.7307 28.734 54.7307V57.1677H40.1699C41.9837 57.114 45.9189 56.4285 45.8987 53.2732C45.8983 53.2185 45.9189 40.4252 45.9019 40.4252H42.2726V40.4256ZM108.241 49.8067L109.116 51.1453H108.518L107.721 49.8282H107.244V51.1453H106.732V48.0981H107.92C108.675 48.0981 109.066 48.3548 109.066 48.9739C109.066 49.5294 108.71 49.7568 108.241 49.8067ZM107.792 49.4008C108.176 49.4008 108.511 49.3648 108.511 48.9391C108.511 48.5833 108.141 48.5258 107.834 48.5258H107.244V49.4008H107.792ZM110.468 49.6217C110.468 51.2158 109.209 52.2902 107.799 52.2902C106.391 52.2902 105.13 51.2158 105.13 49.6217C105.13 48.0273 106.391 46.953 107.799 46.953C109.209 46.953 110.468 48.0273 110.468 49.6217ZM109.871 49.6217C109.871 48.4111 108.946 47.5076 107.799 47.5076C106.639 47.5076 105.728 48.4111 105.728 49.6217C105.728 50.8312 106.639 51.7356 107.799 51.7356C108.946 51.7356 109.871 50.8312 109.871 49.6217ZM78.3194 7.26399C77.8551 7.25539 77.5266 7.31433 77.1796 7.39049C77.1796 7.41157 77.1796 7.43244 77.1796 7.45352C77.2011 7.45352 77.2216 7.45352 77.2431 7.45352C77.4649 7.90853 77.856 8.20154 78.1297 8.59352C78.3401 9.03691 78.5511 9.47965 78.7621 9.9224C78.7837 9.90132 78.805 9.88045 78.8256 9.85936C79.2182 9.58335 79.3972 9.14146 79.3955 8.4668C79.238 8.30115 79.2146 8.09419 79.0786 7.89691C78.8983 7.63381 78.5477 7.48515 78.3194 7.26399ZM108.958 39.7395C109.257 39.9587 109.457 40.2987 109.845 40.4363C109.845 40.4148 109.845 40.3935 109.845 40.3729C109.641 40.1143 109.589 39.7574 109.402 39.4863C109.128 39.2127 108.852 38.9379 108.579 38.6632C107.774 37.5951 106.753 36.6575 105.667 35.8783C104.802 35.2564 102.863 34.4173 102.502 33.4099C102.481 33.3883 102.459 33.367 102.438 33.3455C103.052 33.2767 103.771 33.0547 104.337 32.9026C105.289 32.6474 106.14 32.7137 107.122 32.4596C107.566 32.3325 108.009 32.2055 108.452 32.0801C108.452 31.9951 108.452 31.9112 108.452 31.826C107.955 31.3162 107.601 30.6415 107.06 30.1801C105.641 28.9736 104.095 27.7671 102.501 26.762C101.618 26.2039 100.526 25.8419 99.5893 25.369C99.2743 25.2102 98.7214 25.1274 98.5129 24.8626C98.0218 24.2353 97.7535 23.4403 97.374 22.71C96.5798 21.1797 95.7986 19.5085 95.0945 17.8985C94.6149 16.8009 94.301 15.7183 93.7023 14.7332C90.8279 10.0074 87.7332 7.1547 82.9407 4.35086C81.9201 3.75473 80.6925 3.51937 79.3955 3.21173C78.6995 3.16978 78.0023 3.12696 77.3063 3.08501C76.8814 2.90753 76.4396 2.38776 76.0405 2.13541C74.4524 1.13246 70.3792 -1.04965 69.2037 1.81916C68.4611 3.62952 70.313 5.3962 70.9758 6.31396C71.4411 6.95742 72.036 7.6792 72.369 8.40269C72.5874 8.87835 72.6246 9.35574 72.8128 9.85893C73.2728 11.099 73.6725 12.4479 74.2676 13.5941C74.569 14.1737 74.9009 14.7849 75.2813 15.3031C75.5147 15.6213 75.9136 15.7613 75.9762 16.2527C75.5861 16.7998 75.5637 17.6487 75.3445 18.3417C74.3549 21.4615 74.7282 25.3387 76.1676 27.6479C76.6087 28.3564 77.649 29.8771 79.0786 29.2935C80.3292 28.784 80.0504 27.205 80.4081 25.812C80.4886 25.4955 80.4395 25.2634 80.5979 25.0523C80.5979 25.073 80.5979 25.0943 80.5979 25.1154C80.9782 25.875 81.3582 26.6346 81.7377 27.3941C82.5814 28.7522 84.0781 30.1725 85.3465 31.1297C86.0033 31.6262 86.5212 32.485 87.372 32.7756C87.372 32.7541 87.372 32.7328 87.372 32.7113C87.3505 32.7113 87.329 32.7113 87.3086 32.7113C87.1429 32.4555 86.8852 32.3482 86.6761 32.1423C86.1804 31.6563 85.6294 31.0526 85.2194 30.4961C84.0654 28.9301 83.0463 27.2159 82.1178 25.432C81.674 24.5799 81.2885 23.64 80.9143 22.7732C80.7704 22.4387 80.7721 21.9333 80.4714 21.7601C80.0618 22.3952 79.4587 22.9094 79.1419 23.6593C78.6354 24.8585 78.5702 26.3208 78.3824 27.8372C78.2714 27.8773 78.3207 27.8499 78.2553 27.9003C77.3732 27.6882 77.0637 26.7803 76.7362 26.0015C75.9078 24.0326 75.7539 20.8617 76.483 18.5949C76.6717 18.0086 77.5253 16.1613 77.179 15.6196C77.0142 15.0787 76.4712 14.7666 76.1672 14.3533C75.7894 13.8426 75.4138 13.1707 75.1526 12.5806C74.4754 11.0454 74.1587 9.32196 73.4447 7.76977C73.103 7.0282 72.5258 6.27696 72.0517 5.61714C71.5268 4.88655 70.9388 4.34871 70.5324 3.46451C70.3876 3.15063 70.1908 2.64829 70.4055 2.32537C70.4733 2.10744 70.5701 2.01666 70.7858 1.94545C71.1535 1.66233 72.1752 2.03968 72.5579 2.19866C73.5725 2.62011 74.4205 3.02176 75.2804 3.59122C75.6928 3.86487 76.1104 4.39453 76.6089 4.54104C76.7995 4.54104 76.9892 4.54104 77.1788 4.54104C78.0707 4.74563 79.0691 4.60494 79.9011 4.85772C81.3728 5.30498 82.6916 6.00072 83.8892 6.75713C87.5377 9.06057 90.5211 12.3405 92.5619 16.2527C92.8902 16.8826 93.0326 17.4837 93.3213 18.1521C93.9046 19.4995 94.6401 20.8856 95.2205 22.2035C95.7995 23.5176 96.364 24.8443 97.1826 25.9385C97.6128 26.5133 99.2758 26.8218 100.032 27.1415C100.562 27.365 101.429 27.5987 101.93 27.9003C102.889 28.4788 103.817 29.1668 104.716 29.8001C105.165 30.117 106.547 30.811 106.615 31.382C104.389 31.3231 102.688 31.5298 101.234 32.1425C100.821 32.3161 100.162 32.3213 100.094 32.8382C100.322 33.0762 100.358 33.4325 100.538 33.7248C100.884 34.2867 101.47 35.0391 101.994 35.4345C102.565 35.8658 103.154 36.3273 103.766 36.7005C104.856 37.3653 106.073 37.7446 107.121 38.41C107.742 38.8028 108.355 39.2966 108.958 39.7395ZM90.9975 47.8798V35.3887H87.3759V47.9028C87.3759 50.3863 89.2215 51.7795 92.9476 52.0583C93.2955 52.0807 93.6436 52.1039 93.9925 52.1039H103.43V49.6901H93.9226C91.799 49.6903 90.9975 49.1555 90.9975 47.8798Z" fill="black"/>
</svg>
