<svg width="86" height="82" viewBox="0 0 86 82" fill="none" xmlns="http://www.w3.org/2000/svg">
<path d="M25.1435 37.0189L11.4141 42.1011C11.5904 44.3404 11.969 46.5523 12.5025 48.7198L25.5429 43.8882C25.125 41.6489 24.9755 39.3358 25.1465 37.0186M85.8151 21.5739C84.8577 19.5646 83.7501 17.6227 82.4672 15.7925L68.7418 20.8746C70.3392 22.537 71.6789 24.4051 72.7754 26.4031L85.8155 21.5732L85.8151 21.5739Z" fill="#DA2430"/>
<path d="M61.4601 21.4917C59.7334 19.9674 57.783 18.6516 55.6121 17.6215H55.6111C42.866 11.5762 27.6581 17.2004 21.716 30.172C21.3847 30.8963 21.0873 31.6362 20.8248 32.3891C20.0831 34.5843 19.6497 36.8287 19.4841 39.0694L19.4357 39.0878L19.432 39.137L11.1693 42.1959L5.85274 44.1949L5.85039 44.1648L5.70459 44.2188C5.18859 37.5765 6.28912 30.7147 9.24974 24.2556C9.63452 23.4159 10.0476 22.5899 10.4883 21.7791C20.2487 3.28377 42.4575 -4.44712 61.1874 4.57772C64.969 6.39876 68.4357 8.83111 71.4526 11.7802C73.4213 13.634 75.1977 15.6885 76.7537 17.9116L63.0283 22.9951C62.9576 22.9217 62.8865 22.8487 62.815 22.7761L62.777 22.7901C62.353 22.3421 61.9139 21.9092 61.4605 21.492" fill="#DA2430"/>
<path d="M6.47145 66.7542L6.44995 66.7624C3.60046 62.679 1.52072 58.093 0.316406 53.2374L13.3592 48.4048L13.3599 48.4058L13.3679 48.4485L13.4526 48.4167L13.4546 48.4219C14.1244 52.031 15.5189 55.4743 17.5524 58.5021C18.3312 59.634 19.1987 60.6999 20.1465 61.6895L20.0947 61.709L20.1935 61.8142L6.59206 66.9305C6.55174 66.8722 6.51154 66.8134 6.47145 66.7542Z" fill="#E82429"/>
<path d="M58.2744 63.1831C51.2026 67.632 42.1316 68.4915 34.049 64.6569C31.2728 63.3424 28.755 61.5247 26.6187 59.2927L12.9219 64.366L13.027 64.5154L13.0203 64.5181C16.7862 69.9919 21.9233 74.5676 28.2269 77.6073C41.8222 84.1567 57.2475 81.8798 68.4164 73.0672C73.4178 69.2557 77.5932 64.1756 80.4137 58.0224C83.3764 51.5646 84.4705 44.7056 83.9461 38.0684L83.5645 38.2098C83.5596 38.1388 83.5543 38.0677 83.5487 37.9966L69.9466 43.1085L69.9473 43.1098C69.7247 46.2394 68.9502 49.3027 67.6609 52.1531C65.5394 56.8535 62.2308 60.5976 58.2748 63.1831" fill="#DA2430"/>
<path d="M73.4218 26.1631L73.6257 26.0872C75.7767 30.5928 77.0817 35.4671 77.4735 40.4601L63.7763 45.5299L63.7837 45.426L63.525 45.5234C63.8979 40.3668 62.7608 35.2385 60.3555 30.7852L73.3052 25.9149L73.3059 25.9136C73.3448 25.9965 73.3835 26.0797 73.4218 26.1631Z" fill="#E82429"/>
<path d="M25.1597 36.9374L11.5273 42.0626C11.702 44.3217 12.0783 46.5522 12.6087 48.7381L25.5578 43.8651C25.1389 41.6019 24.9884 39.2724 25.1651 36.9361M85.4057 21.3625C84.455 19.3362 83.3545 17.3781 82.0806 15.5322L68.452 20.6574C70.0376 22.3342 71.3679 24.218 72.4563 26.2335L85.404 21.3612L85.4057 21.3625Z" fill="#C22035"/>
<path d="M11.5251 42.0634L25.1245 36.9953L25.0691 39.7749L11.9487 44.8157L11.5234 42.06L11.5251 42.0634ZM68.4524 20.6152L82.2638 15.7935L83.6993 17.9975L70.2799 22.8237L68.4544 20.6142L68.4524 20.6152Z" fill="#AC223B"/>
<path d="M13.0234 64.466L26.639 59.4252L30.7569 63.3778L16.4786 68.8311L13.0241 64.4646L13.0234 64.466ZM83.7772 38.0337L69.9484 43.107L68.9298 48.7387L83.6748 43.3923L83.7793 38.0344L83.7772 38.0337Z" fill="#B92135"/>
</svg>
