<svg width="77" height="78" viewBox="0 0 77 78" fill="none" xmlns="http://www.w3.org/2000/svg">
<path fill-rule="evenodd" clip-rule="evenodd" d="M52.9594 26.0347C53.9249 28.8277 54.6204 31.6791 54.8489 34.6346C55.1329 38.3011 55.0029 41.9418 54.2299 45.5482C54.2089 45.6474 54.1644 45.7407 54.1313 45.8369C53.8889 45.8375 53.6416 45.8074 53.4046 45.8441C51.402 46.1587 49.4012 46.4848 47.4004 46.809C45.3322 47.1441 43.261 47.4659 41.1965 47.8239C40.465 47.9502 39.5596 47.7992 39.2643 48.811C39.2558 48.8387 39.1716 48.8435 39.1229 48.8592L39.2228 42.8128L39.1211 28.2238L40.0848 28.0583C41.6609 27.8003 43.237 27.5386 44.8143 27.2877C46.6966 26.9887 48.5807 26.6982 50.4642 26.4064C51.2949 26.2771 52.1269 26.1586 52.9594 26.0347Z" fill="#439934"/>
<path fill-rule="evenodd" clip-rule="evenodd" d="M37.1332 66.485C36.1165 65.6109 35.0644 64.7753 34.0899 63.8561C28.8461 58.9101 25.0105 53.0888 23.1216 46.0703C22.6012 44.1387 22.2541 42.1758 22.1428 40.1798C22.0646 38.783 21.9515 37.3736 22.0502 35.9839C22.3131 32.2879 22.8473 28.6274 23.9313 25.0674L23.9908 24.9844C24.0961 25.1245 24.2477 25.2485 24.3012 25.4067C25.3592 28.5228 26.4103 31.6411 27.4546 34.7616C30.738 44.567 34.0171 54.3749 37.3058 64.178C37.3702 64.3693 37.5368 64.5263 37.6565 64.6989L37.1332 66.485Z" fill="#45A538"/>
<path fill-rule="evenodd" clip-rule="evenodd" d="M52.9598 26.0349C52.1272 26.1588 51.2947 26.2773 50.4639 26.4054C48.5804 26.6972 46.6963 26.9877 44.814 27.2867C43.2367 27.5376 41.6606 27.7992 40.0845 28.0573L39.1208 28.2227L39.1136 27.5941C39.0817 27.0774 39.027 26.5612 39.021 26.0445C38.9795 22.7491 38.9536 19.4538 38.9127 16.1584C38.8874 14.0956 38.8495 12.0335 38.8074 9.97133C38.7816 8.69 38.7539 7.40807 38.6961 6.12855C38.6648 5.44096 38.5542 4.75698 38.509 4.0694C38.4838 3.67417 38.5187 3.27594 38.5265 2.87891C39.018 3.83118 39.4986 4.79067 40.0039 5.73573C40.8022 7.23001 42.0739 8.33087 43.2187 9.53219C47.7442 14.2797 50.9572 19.7997 52.9598 26.0349Z" fill="#46A037"/>
<path fill-rule="evenodd" clip-rule="evenodd" d="M39.1251 48.8587C39.1739 48.8431 39.2587 48.8383 39.2665 48.8106C39.5619 47.7988 40.4672 47.9498 41.1987 47.8235C43.2633 47.4661 45.3345 47.1437 47.4026 46.8086C49.4034 46.4844 51.4042 46.1583 53.4068 45.8437C53.6438 45.8064 53.8911 45.8371 54.1335 45.8365C53.7593 47.172 53.4646 48.5363 52.9899 49.8351C52.4509 51.3083 51.7989 52.746 51.1065 54.1555C50.0706 56.2582 48.7876 58.2298 47.2847 60.0286C46.1303 61.417 44.8436 62.7001 43.5538 63.9676C42.841 64.6684 42.0006 65.2393 41.2186 65.8691L41.0158 65.7308L40.2855 65.1063L39.53 63.4502C39.0139 61.5183 38.7323 59.5313 38.6914 57.5321L38.7052 57.1946L38.8081 55.7352C38.8424 55.2371 38.8881 54.7396 38.9092 54.2403C38.9868 52.4465 39.0541 50.6526 39.1251 48.8587Z" fill="#409433"/>
<path fill-rule="evenodd" clip-rule="evenodd" d="M39.1243 48.8588C39.0533 50.6526 38.986 52.4465 38.9096 54.2409C38.8885 54.7402 38.8428 55.2377 38.8085 55.7358L38.3483 55.9097C37.3263 52.9007 36.3036 49.9235 35.3032 46.9386C33.6489 42.0003 32.0145 37.0543 30.3626 32.1149C29.0284 28.128 27.6849 24.1442 26.3321 20.1636C26.2689 19.9771 26.0873 19.8316 25.9609 19.6667L28.9062 14.2515C29.0072 14.4271 29.1408 14.5913 29.2046 14.7802C30.5686 18.812 31.9258 22.8461 33.2759 26.8825C35.0301 32.1341 36.7734 37.39 38.5264 42.6422C38.5962 42.8522 38.7117 43.0459 38.8217 43.2811L39.2248 42.8118L39.1243 48.8588Z" fill="#4FAA41"/>
<path fill-rule="evenodd" clip-rule="evenodd" d="M25.9605 19.6675C26.0868 19.8323 26.2679 19.9779 26.3317 20.1644C27.6844 24.145 29.0279 28.1287 30.3621 32.1156C32.014 37.055 33.6485 42.0011 35.3028 46.9393C36.3026 49.9237 37.3252 52.9014 38.3479 55.9104L38.8081 55.7366L38.7052 57.196L38.612 57.5322C38.4519 59.13 38.3172 60.7313 38.1223 62.3255C38.0242 63.1244 37.8161 63.9088 37.6579 64.6998C37.5388 64.5272 37.3715 64.3702 37.3072 64.1789C34.0184 54.3752 30.7393 44.568 27.456 34.7625C26.4114 31.642 25.3603 28.5237 24.3026 25.4076C24.2491 25.2494 24.0981 25.1255 23.9922 24.9853L25.9605 19.6675Z" fill="#4AA73C"/>
<path fill-rule="evenodd" clip-rule="evenodd" d="M39.2249 42.8123L38.8218 43.2815C38.7117 43.0463 38.5962 42.852 38.5264 42.6426C36.7741 37.3904 35.0302 32.1345 33.276 26.8829C31.9258 22.8465 30.5687 18.8124 29.2046 14.7807C29.1415 14.5918 29.0079 14.4269 28.9062 14.2519L32.5487 9.46045C32.6636 9.61385 32.8272 9.7504 32.8868 9.92305C33.8974 12.8835 34.9006 15.8468 35.8964 18.8129C36.827 21.5825 37.7438 24.3563 38.6853 27.1223C38.7484 27.3076 38.968 27.4387 39.1148 27.5951L39.122 28.2238C39.1569 33.086 39.1912 37.9488 39.2249 42.8123Z" fill="#57AE47"/>
<path fill-rule="evenodd" clip-rule="evenodd" d="M39.1129 27.5942C38.9662 27.4378 38.7466 27.3067 38.6834 27.1214C37.742 24.3554 36.8252 21.5816 35.8946 18.812C34.8988 15.8463 33.8956 12.883 32.885 9.92211C32.8254 9.74946 32.6618 9.61291 32.5469 9.45951C33.7314 8.2997 34.8791 7.09838 36.1111 5.9921C37.2066 5.00915 38.0873 3.95521 38.1276 2.40198C38.1294 2.33761 38.1631 2.27324 38.2148 2.09277L38.527 2.87841C38.5192 3.27605 38.4837 3.67368 38.5096 4.06891C38.5547 4.75649 38.6654 5.44047 38.6967 6.12806C38.7544 7.40758 38.7821 8.68951 38.8079 9.97084C38.8494 12.033 38.8873 14.0951 38.9132 16.1579C38.9535 19.4533 38.98 22.7486 39.0215 26.044C39.0263 26.5619 39.0804 27.0775 39.1129 27.5942Z" fill="#60B24F"/>
<path fill-rule="evenodd" clip-rule="evenodd" d="M37.6562 64.699C37.8144 63.908 38.0225 63.1229 38.1206 62.3247C38.3161 60.7311 38.4502 59.1292 38.6102 57.5314L38.65 57.5254L38.6897 57.532C38.7306 59.5312 39.0121 61.5183 39.5282 63.4502C39.4224 63.5897 39.2726 63.7143 39.2166 63.8719C38.7793 65.1051 38.3672 66.3479 37.9275 67.5811C37.8673 67.7495 37.7001 67.8807 37.5822 68.0287L37.1328 66.4851L37.6562 64.699Z" fill="#A9AA88"/>
<path fill-rule="evenodd" clip-rule="evenodd" d="M37.582 68.0292C37.6999 67.8812 37.8678 67.75 37.9273 67.5816C38.3671 66.3484 38.7797 65.1062 39.2165 63.8724C39.2724 63.7148 39.4216 63.5902 39.5281 63.4507L40.283 65.1074C40.1339 65.3191 39.9281 65.5098 39.8451 65.7456L38.399 69.9921C38.3394 70.1623 38.1361 70.2826 38.0001 70.4264L37.582 68.0292Z" fill="#B6B598"/>
<path fill-rule="evenodd" clip-rule="evenodd" d="M38 70.426C38.1366 70.2828 38.3393 70.1619 38.3988 69.9916L39.845 65.7452C39.9274 65.51 40.1337 65.3187 40.2829 65.1069L41.0138 65.7308C40.6607 66.0797 40.4646 66.4827 40.5825 66.9922L40.3605 67.7189C40.2595 67.8434 40.1133 67.9517 40.0634 68.0943C39.5586 69.5398 39.0768 70.9932 38.5685 72.4388C38.5041 72.6223 38.3254 72.766 38.1991 72.9272C38.1333 72.0935 38.067 71.2597 38 70.426Z" fill="#C2C1A7"/>
<path fill-rule="evenodd" clip-rule="evenodd" d="M38.2001 72.9271C38.3259 72.7653 38.5045 72.6215 38.5695 72.4386C39.0778 70.9937 39.5597 69.5403 40.0644 68.0941C40.1143 67.9522 40.2599 67.8433 40.3615 67.7188L40.0553 71.0544C39.9735 71.1489 39.855 71.2313 39.8159 71.3414C39.47 72.3123 39.144 73.2904 38.7969 74.2613C38.7253 74.4617 38.5881 74.6385 38.4811 74.8256C38.386 74.7011 38.2158 74.5808 38.2079 74.4508C38.1773 73.9449 38.1983 73.4354 38.2001 72.9271Z" fill="#CECDB7"/>
<path fill-rule="evenodd" clip-rule="evenodd" d="M38.4805 74.8259C38.5875 74.6382 38.7247 74.4613 38.7963 74.2616C39.144 73.2913 39.4694 72.3132 39.8153 71.3416C39.8544 71.2315 39.9735 71.1497 40.0548 71.0547L40.062 73.2444L39.3293 75.1237L38.4805 74.8259Z" fill="#DBDAC7"/>
<path fill-rule="evenodd" clip-rule="evenodd" d="M39.332 75.1244L40.0647 73.2451L40.2157 75.4685L39.332 75.1244Z" fill="#EBE9DC"/>
<path fill-rule="evenodd" clip-rule="evenodd" d="M40.5852 66.9929C40.4673 66.4834 40.6628 66.0797 41.0165 65.7314L41.2192 65.8698L40.5852 66.9929Z" fill="#CECDB7"/>
<path fill-rule="evenodd" clip-rule="evenodd" d="M38.6888 57.5327L38.6491 57.5261L38.6094 57.5321L38.7026 57.1958L38.6888 57.5327Z" fill="#4FAA41"/>
</svg>
