<svg width="29" height="29" viewBox="0 0 29 29" fill="none" xmlns="http://www.w3.org/2000/svg">
<rect width="29" height="29" rx="4" fill="#FFF0DF"/>
<g clip-path="url(#clip0_1380_1396)">
<path fill-rule="evenodd" clip-rule="evenodd" d="M5.46919 21.0616H7.20519C7.14807 21 7.11714 20.9186 7.11892 20.8346V13.7211C7.11892 13.6348 7.1532 13.552 7.21423 13.491C7.27525 13.43 7.35802 13.3957 7.44432 13.3957H21.0811C21.1673 13.3961 21.2498 13.4305 21.3107 13.4914C21.3717 13.5524 21.4061 13.6349 21.4065 13.7211V20.8346C21.4058 20.9193 21.3728 21.0005 21.3142 21.0616H23.1304C23.2548 21.0616 23.3742 21.1111 23.4621 21.199C23.5501 21.287 23.5996 21.4064 23.5996 21.5308C23.5996 21.6552 23.5501 21.7746 23.4621 21.8626C23.3742 21.9506 23.2548 22 23.1304 22H5.46919C5.34475 22 5.22541 21.9506 5.13742 21.8626C5.04943 21.7746 5 21.6552 5 21.5308C5 21.4064 5.04943 21.287 5.13742 21.199C5.22541 21.1111 5.34475 21.0616 5.46919 21.0616ZM18.3341 11.3297H17.4108V12.7766H16.7645V11.0058C16.7643 10.9632 16.7726 10.921 16.7888 10.8817C16.805 10.8423 16.8288 10.8065 16.859 10.7764C16.8891 10.7462 16.9249 10.7224 16.9642 10.7062C17.0036 10.69 17.0458 10.6817 17.0884 10.6819H18.3386C18.4177 10.4728 18.568 10.2983 18.7631 10.1891C18.9581 10.0798 19.1855 10.0428 19.4051 10.0846C19.6247 10.1264 19.8226 10.2442 19.964 10.4174C20.1053 10.5906 20.1811 10.8081 20.1779 11.0317C20.1748 11.2552 20.093 11.4705 19.9468 11.6397C19.8007 11.8089 19.5996 11.9211 19.3789 11.9567C19.1581 11.9923 18.9319 11.949 18.74 11.8343C18.5481 11.7196 18.4028 11.541 18.3295 11.3297H18.3341ZM11.6595 11.5568V12.7766H11.0102V11.8806H10.267C10.1907 12.0907 10.0428 12.2671 9.84925 12.379C9.65573 12.4908 9.429 12.5308 9.20888 12.4921C8.98877 12.4533 8.78935 12.3382 8.64566 12.167C8.50198 11.9959 8.42322 11.7795 8.42322 11.556C8.42322 11.3325 8.50198 11.1161 8.64566 10.945C8.78935 10.7738 8.98877 10.6587 9.20888 10.6199C9.429 10.5812 9.65573 10.6212 9.84925 10.733C10.0428 10.8449 10.1907 11.0213 10.267 11.2314H11.3416C11.3841 11.2313 11.4262 11.2397 11.4655 11.2561C11.5047 11.2725 11.5403 11.2965 11.5702 11.3267C11.629 11.3887 11.6611 11.4713 11.6595 11.5568ZM10.0037 8C9.83245 8.00006 9.66442 8.04637 9.51735 8.13404C9.37027 8.2217 9.24961 8.34747 9.1681 8.49805C9.0866 8.64864 9.04729 8.81844 9.05432 8.98952C9.06135 9.16059 9.11446 9.3266 9.20805 9.46998C9.30163 9.61337 9.43221 9.72881 9.58598 9.80412C9.73976 9.87942 9.91102 9.91179 10.0817 9.89779C10.2523 9.8838 10.416 9.82398 10.5555 9.72463C10.6949 9.62529 10.805 9.49012 10.8739 9.33341H12.7749V12.7766H13.4227V9.01103C13.4231 8.96831 13.415 8.92594 13.3989 8.88638C13.3828 8.84681 13.359 8.81085 13.3288 8.78057C13.2987 8.7503 13.2628 8.72631 13.2233 8.71001C13.1839 8.69371 13.1415 8.68542 13.0988 8.68562H10.9163C10.8594 8.48854 10.7401 8.31521 10.5764 8.19161C10.4127 8.068 10.2134 8.00078 10.0082 8H10.0037ZM15.2692 8.01514C15.0452 8.01455 14.8282 8.09311 14.6564 8.23694C14.4847 8.38077 14.3693 8.58064 14.3306 8.80127C14.2918 9.0219 14.3323 9.24913 14.4447 9.44286C14.5572 9.63658 14.7345 9.78436 14.9453 9.86011V12.7766H15.5946V9.86011C15.8055 9.78431 15.9829 9.63641 16.0954 9.44253C16.2078 9.24865 16.2482 9.02125 16.2092 8.80052C16.1703 8.57979 16.0546 8.37991 15.8826 8.2362C15.7106 8.09249 15.4933 8.01419 15.2692 8.01514ZM12.7371 15.2649C12.7363 14.9736 12.8182 14.6881 12.9732 14.4415H15.6249C15.78 14.688 15.8619 14.9736 15.861 15.2649C15.861 15.6791 15.6964 16.0764 15.4035 16.3693C15.1106 16.6622 14.7133 16.8268 14.299 16.8268C13.8848 16.8268 13.4875 16.6622 13.1946 16.3693C12.9016 16.0764 12.7371 15.6791 12.7371 15.2649ZM18.8078 15.3239V15.6508C18.8074 15.7981 18.7488 15.9394 18.6447 16.0437C18.5407 16.148 18.3997 16.207 18.2523 16.2078H17.6817C17.6105 16.5252 17.4949 16.8309 17.3382 17.1159L17.7135 17.4882C17.8173 17.5926 17.8756 17.7338 17.8756 17.881C17.8756 18.0282 17.8173 18.1694 17.7135 18.2737L17.2595 18.7369C17.1548 18.8407 17.0134 18.899 16.8659 18.899C16.7185 18.899 16.5771 18.8407 16.4724 18.7369L16.1258 18.3903C15.8347 18.5723 15.5179 18.7095 15.1859 18.7974V19.2696C15.1852 19.4171 15.1262 19.5583 15.0219 19.6626C14.9177 19.7669 14.7764 19.8258 14.629 19.8266H13.9721C13.8246 19.8258 13.6834 19.7669 13.5791 19.6626C13.4749 19.5583 13.4159 19.4171 13.4151 19.2696V18.8035C13.0803 18.7173 12.7603 18.5811 12.4662 18.3994L12.1286 18.7369C12.0243 18.8407 11.8831 18.8989 11.7359 18.8989C11.5887 18.8989 11.4475 18.8407 11.3431 18.7369L10.88 18.2737C10.7762 18.1694 10.7179 18.0282 10.7179 17.881C10.7179 17.7338 10.7762 17.5926 10.88 17.4882L11.2432 17.1235C11.0823 16.8348 10.9641 16.5243 10.8921 16.2017H10.3457C10.1984 16.2009 10.0573 16.1419 9.95331 16.0376C9.84927 15.9333 9.79067 15.7921 9.79027 15.6448V14.9894C9.79087 14.8468 9.84615 14.7099 9.9447 14.6068C10.0433 14.5038 10.1776 14.4424 10.32 14.4355H12.1831C12.0941 14.681 12.0486 14.9401 12.0484 15.2013C12.0484 15.2406 12.0484 15.2785 12.0484 15.3178C12.0484 15.3572 12.0484 15.395 12.0484 15.4329C12.0484 16.0265 12.2843 16.5959 12.7041 17.0157C13.1239 17.4355 13.6932 17.6714 14.2869 17.6714C14.8806 17.6714 15.45 17.4355 15.8698 17.0157C16.2896 16.5959 16.5254 16.0265 16.5254 15.4329C16.5254 15.395 16.5254 15.3557 16.5254 15.3178C16.5254 15.28 16.5254 15.2406 16.5254 15.2013C16.5253 14.9401 16.4797 14.681 16.3907 14.4355H18.2781C18.4205 14.4424 18.5548 14.5038 18.6534 14.6068C18.7519 14.7099 18.8072 14.8468 18.8078 14.9894V15.3178V15.3239ZM7.66984 13.9027H20.8919V20.7438H7.66984V13.9027ZM13.7632 21.2932H14.8378C14.8846 21.2943 14.9291 21.3133 14.9623 21.3462C14.9955 21.3792 15.0149 21.4235 15.0164 21.4703C15.017 21.4943 15.0129 21.5183 15.0042 21.5407C14.9956 21.5632 14.9826 21.5837 14.966 21.6011C14.9494 21.6185 14.9296 21.6325 14.9076 21.6423C14.8856 21.652 14.8619 21.6574 14.8378 21.6579H13.7632C13.7389 21.6578 13.7149 21.6527 13.6926 21.6431C13.6702 21.6336 13.65 21.6196 13.6331 21.6022C13.6162 21.5847 13.6029 21.564 13.5941 21.5414C13.5853 21.5188 13.581 21.4946 13.5816 21.4703C13.5816 21.4221 13.6008 21.3759 13.6348 21.3418C13.6689 21.3078 13.7151 21.2886 13.7632 21.2886V21.2932Z" fill="#D5AA79"/>
</g>
<defs>
<clipPath id="clip0_1380_1396">
<rect width="18.5981" height="14" fill="white" transform="translate(5 8)"/>
</clipPath>
</defs>
</svg>
