<svg width="26" height="31" viewBox="0 0 26 31" fill="none" xmlns="http://www.w3.org/2000/svg">
<path d="M25.9223 28.9926C25.9223 28.9382 23.8211 23.7123 23.8211 20.6857C23.8588 19.5875 24.1337 18.5104 24.6267 17.5284C25.562 15.4409 26.0302 13.1744 25.9985 10.8872C25.9985 4.58351 20.9577 0 14.0226 0C7.68624 0 3.44023 2.99398 2.04667 8.44846C1.54403 10.2755 1.50661 12.1993 1.9378 14.0445L0.163188 17.5719C-0.0490915 18.0889 -0.0544562 18.6677 0.148204 19.1886C0.350864 19.7094 0.746031 20.1324 1.25191 20.3699C1.55624 20.4917 1.87433 20.5758 2.19909 20.6203L3.13539 25.193C3.1966 25.6444 3.40744 26.0622 3.73419 26.3797C4.13632 26.7023 4.59815 26.9424 5.09322 27.0862C5.5883 27.2301 6.10689 27.2749 6.61929 27.218C7.31081 27.1272 8.01038 27.3109 8.5681 27.7297C8.71045 27.8313 8.82622 27.9658 8.9056 28.1216L9.78746 29.8853C9.84502 30.0236 9.93046 30.1484 10.0384 30.2521C10.1464 30.3558 10.2746 30.4361 10.4151 30.488C10.5555 30.5399 10.7051 30.5623 10.8546 30.5538C11.0041 30.5452 11.1502 30.506 11.2838 30.4384C11.4174 30.3708 11.5356 30.2765 11.6311 30.1611C11.7266 30.0458 11.7973 29.9121 11.8387 29.7682C11.8801 29.6243 11.8915 29.4735 11.872 29.325C11.8525 29.1766 11.8026 29.0338 11.7254 28.9055L10.8544 27.1527C10.6202 26.6921 10.2853 26.2902 9.87456 25.9768C8.93239 25.2851 7.77395 24.953 6.6084 25.0405C6.16555 25.1064 5.71315 25.0342 5.31283 24.8337L4.22411 19.3901C4.17546 19.1385 4.0396 18.9121 3.84045 18.7508C3.6413 18.5895 3.39163 18.5036 3.13539 18.5082C2.81442 18.5211 2.4937 18.4769 2.18821 18.3776L4.10435 14.6542C4.16905 14.5123 4.20253 14.3582 4.20253 14.2023C4.20253 14.0464 4.16905 13.8924 4.10435 13.7505C3.65517 12.189 3.65517 10.5325 4.10435 8.97105C5.31283 4.52907 8.69875 2.17744 14.0226 2.17744C19.6948 2.17744 23.8211 5.83554 23.8211 10.8872C23.8543 12.8908 23.4415 14.8766 22.6126 16.701C22.0061 17.9438 21.6756 19.3031 21.6436 20.6857C21.6436 24.126 23.8211 29.5696 23.8973 29.7982C23.9779 30.0008 24.1176 30.1745 24.2981 30.2968C24.4786 30.4191 24.6917 30.4844 24.9098 30.4841C25.0477 30.4845 25.1844 30.4586 25.3126 30.4079C25.4456 30.3551 25.567 30.2766 25.6696 30.1769C25.7723 30.0772 25.8543 29.9582 25.9109 29.8267C25.9676 29.6952 25.9977 29.5539 25.9997 29.4108C26.0016 29.2676 25.9753 29.1255 25.9223 28.9926Z" fill="black"/>
<path d="M14.0212 14.1532C15.2238 14.1532 16.1986 13.1783 16.1986 11.9758C16.1986 10.7732 15.2238 9.79834 14.0212 9.79834C12.8186 9.79834 11.8438 10.7732 11.8438 11.9758C11.8438 13.1783 12.8186 14.1532 14.0212 14.1532Z" fill="black"/>
<path d="M22.1863 11.6711C22.1867 11.2133 22.0428 10.767 21.775 10.3956C21.5072 10.0243 21.1292 9.74675 20.6947 9.60253L20.1721 9.42834L20.4116 8.93842C20.6195 8.52874 20.6925 8.0638 20.6202 7.61012C20.5478 7.15644 20.3338 6.73727 20.0088 6.41259L19.5842 5.98799C19.2604 5.66534 18.8432 5.4528 18.3918 5.3805C17.9404 5.3082 17.4777 5.3798 17.0693 5.58516L16.5685 5.82468L16.3943 5.30209C16.2501 4.86757 15.9725 4.48957 15.6012 4.2218C15.2298 3.95403 14.7835 3.81013 14.3257 3.81055H13.716C13.2582 3.81013 12.8119 3.95403 12.4405 4.2218C12.0692 4.48957 11.7917 4.86757 11.6475 5.30209L11.4733 5.82468L10.9833 5.58516C10.5737 5.37726 10.1087 5.30427 9.65504 5.37662C9.20136 5.44897 8.7822 5.66297 8.45751 5.98799L8.03291 6.41259C7.71026 6.73644 7.49773 7.15363 7.42543 7.60502C7.35313 8.05641 7.42473 8.5191 7.63008 8.92753L7.8696 9.42834L7.34701 9.60253C6.9125 9.74675 6.53449 10.0243 6.26672 10.3956C5.99896 10.767 5.85505 11.2133 5.85547 11.6711V12.2808C5.85505 12.7386 5.99896 13.1849 6.26672 13.5563C6.53449 13.9276 6.9125 14.2051 7.34701 14.3494L7.8696 14.5235L7.63008 15.0135C7.42218 15.4231 7.34919 15.8881 7.42154 16.3418C7.4939 16.7954 7.70789 17.2146 8.03291 17.5393L8.45751 17.9639C8.7801 18.2883 9.19668 18.5029 9.64812 18.5772C10.0996 18.6514 10.5629 18.5816 10.9725 18.3776L11.4733 18.1272L11.6475 18.6498C11.7917 19.0843 12.0692 19.4623 12.4405 19.7301C12.8119 19.9979 13.2582 20.1418 13.716 20.1413H14.3257C14.7835 20.1418 15.2298 19.9979 15.6012 19.7301C15.9725 19.4623 16.2501 19.0843 16.3943 18.6498L16.5685 18.1272L17.0584 18.3667C17.4681 18.5746 17.933 18.6476 18.3867 18.5753C18.8404 18.5029 19.2595 18.2889 19.5842 17.9639L20.0088 17.5393C20.3332 17.2167 20.5478 16.8001 20.6221 16.3487C20.6964 15.8972 20.6265 15.4339 20.4225 15.0244L20.1721 14.5235L20.6947 14.3494C21.1292 14.2051 21.5072 13.9276 21.775 13.5563C22.0428 13.1849 22.1867 12.7386 22.1863 12.2808V11.6711ZM20.0088 12.2808L18.5608 12.7598C18.4036 12.8111 18.26 12.8976 18.1412 13.0127C18.0223 13.1278 17.9313 13.2684 17.8749 13.4239C17.8434 13.5165 17.807 13.6073 17.7661 13.6961C17.6964 13.8424 17.6603 14.0023 17.6603 14.1643C17.6603 14.3262 17.6964 14.4862 17.7661 14.6324L18.452 15.9933L18.0165 16.4288L16.6556 15.7429C16.5093 15.6733 16.3494 15.6371 16.1874 15.6371C16.0254 15.6371 15.8655 15.6733 15.7193 15.7429L15.4471 15.8518C15.2916 15.9081 15.1509 15.9992 15.0358 16.118C14.9208 16.2369 14.8343 16.3804 14.783 16.5377L14.3039 17.9857H13.6942L13.2152 16.5377C13.1639 16.3804 13.0774 16.2369 12.9623 16.118C12.8473 15.9992 12.7066 15.9081 12.5511 15.8518L12.2789 15.7429C12.1379 15.6828 11.9858 15.6531 11.8325 15.6558C11.663 15.6535 11.4952 15.6907 11.3426 15.7647L9.98172 16.4506L9.54623 16.0151L10.2321 14.6542C10.3018 14.508 10.3379 14.348 10.3379 14.186C10.3379 14.0241 10.3018 13.8641 10.2321 13.7179C10.1912 13.6291 10.1548 13.5383 10.1232 13.4457C10.0669 13.2902 9.97583 13.1495 9.85698 13.0345C9.73813 12.9194 9.59463 12.8329 9.43736 12.7816L7.98936 12.3026V11.6929L9.43736 11.2138C9.59463 11.1625 9.73813 11.076 9.85698 10.961C9.97583 10.8459 10.0669 10.7053 10.1232 10.5497C10.1548 10.4572 10.1912 10.3663 10.2321 10.2775C10.3018 10.1313 10.3379 9.97137 10.3379 9.80939C10.3379 9.64741 10.3018 9.48748 10.2321 9.34124L9.54623 7.98034L9.98172 7.54486L11.3426 8.23075C11.4889 8.3004 11.6488 8.33654 11.8108 8.33654C11.9727 8.33654 12.1327 8.3004 12.2789 8.23075L12.5511 8.12188C12.7066 8.06552 12.8473 7.97446 12.9623 7.85561C13.0774 7.73676 13.1639 7.59325 13.2152 7.43598L13.6942 5.98799H14.3039L14.783 7.43598C14.8343 7.59325 14.9208 7.73676 15.0358 7.85561C15.1509 7.97446 15.2916 8.06552 15.4471 8.12188L15.7193 8.23075C15.8655 8.3004 16.0254 8.33654 16.1874 8.33654C16.3494 8.33654 16.5093 8.3004 16.6556 8.23075L18.0165 7.54486L18.452 7.98034L17.7661 9.34124C17.6964 9.48748 17.6603 9.64741 17.6603 9.80939C17.6603 9.97137 17.6964 10.1313 17.7661 10.2775C17.807 10.3663 17.8434 10.4572 17.8749 10.5497C17.9313 10.7053 18.0223 10.8459 18.1412 10.961C18.26 11.076 18.4036 11.1625 18.5608 11.2138L20.0088 11.6929V12.2808Z" fill="black"/>
</svg>
