<svg width="61" height="55" viewBox="0 0 61 55" fill="none" xmlns="http://www.w3.org/2000/svg">
<path fill-rule="evenodd" clip-rule="evenodd" d="M29.6313 10.4822C30.3263 10.4822 31.0113 10.5222 31.6864 10.6023V4.69268C31.3638 4.57248 31.0808 4.38217 30.8425 4.14178C30.4057 3.70106 30.1376 3.10007 30.1376 2.42897C30.1376 1.76288 30.4057 1.15689 30.8425 0.716172C31.2794 0.275451 31.8751 0.0050082 32.5403 0.0050082C33.2005 0.0050082 33.8012 0.275451 34.238 0.716172C34.6749 1.15689 34.943 1.75788 34.943 2.42897C34.943 3.09506 34.6749 3.70106 34.238 4.14178C34.0047 4.37716 33.7118 4.57248 33.3941 4.69268V10.8878C34.9926 11.2384 36.5067 11.8093 37.9066 12.5656V10.2818C37.9066 9.80605 38.2888 9.42041 38.7604 9.42041H44.7373C44.8564 9.11491 45.0401 8.83946 45.2685 8.60909C45.7053 8.16837 46.301 7.89792 46.9662 7.89792C47.6265 7.89792 48.2271 8.16837 48.664 8.60909C49.1008 9.04981 49.3689 9.65079 49.3689 10.3219C49.3689 10.988 49.1008 11.594 48.664 12.0347C48.2271 12.4754 47.6314 12.7459 46.9662 12.7459C46.301 12.7459 45.7004 12.4754 45.2734 12.0347C45.0252 11.7843 44.8316 11.4788 44.7125 11.1382H39.6242V13.6223C43.1786 16.1064 45.7798 19.8775 46.7627 24.2697H57.6045V15.4403C57.3414 15.3201 57.0981 15.1498 56.8996 14.9445C56.4627 14.5037 56.1947 13.9027 56.1947 13.2317C56.1947 12.5656 56.4627 11.9596 56.8996 11.5188C57.3364 11.0781 57.9321 10.8077 58.5973 10.8077C59.2576 10.8077 59.8582 11.0781 60.2951 11.5188C60.7319 11.9596 61 12.5606 61 13.2317C61 13.8977 60.7319 14.5037 60.2951 14.9445C60.0221 15.2199 59.6845 15.4252 59.3122 15.5454V25.1361C59.3122 25.6119 58.9299 25.9975 58.4583 25.9975H47.0655C47.1549 26.7187 47.1995 27.4549 47.1995 28.2062C47.1995 29.2078 47.1152 30.1894 46.9563 31.146H56.3436C56.4627 30.8204 56.6514 30.535 56.8896 30.2946C57.3265 29.8539 57.9222 29.5834 58.5874 29.5834C59.2476 29.5834 59.8483 29.8539 60.2852 30.2946C60.722 30.7353 60.9901 31.3363 60.9901 32.0074C60.9901 32.6735 60.722 33.2795 60.2852 33.7202C59.8483 34.1609 59.2526 34.4313 58.5874 34.4313C57.9272 34.4313 57.3265 34.1609 56.8896 33.7202C56.6563 33.4848 56.4627 33.1943 56.3436 32.8688H46.584C45.4819 36.9455 42.98 40.4362 39.6242 42.78V43.8568H44.7125C44.8316 43.5162 45.0252 43.2107 45.2734 42.9603C45.7004 42.5196 46.306 42.2491 46.9662 42.2491C47.6314 42.2491 48.2271 42.5196 48.664 42.9603C49.1008 43.401 49.3689 44.007 49.3689 44.6731C49.3689 45.3442 49.1008 45.9452 48.664 46.3859C48.2271 46.8266 47.6265 47.0971 46.9662 47.0971C46.301 47.0971 45.7053 46.8266 45.2685 46.3859C45.0451 46.1605 44.8614 45.8851 44.7373 45.5746H38.7654C38.2938 45.5746 37.9115 45.1889 37.9115 44.7132V43.8367C36.5116 44.593 34.9926 45.1639 33.3991 45.5145V50.3023C33.7218 50.4225 34.0097 50.6178 34.243 50.8532C34.6799 51.2939 34.9479 51.8999 34.9479 52.566C34.9479 53.2371 34.6799 53.8381 34.243 54.2788C33.8062 54.7195 33.2055 54.99 32.5452 54.99C31.88 54.99 31.2843 54.7195 30.8475 54.2788C30.4106 53.8381 30.1426 53.2321 30.1426 52.566C30.1426 51.8949 30.4106 51.2939 30.8475 50.8532C31.0858 50.6128 31.3687 50.4225 31.6914 50.3023V45.805C31.0163 45.8851 30.3312 45.9251 29.6362 45.9251C28.5987 45.9251 27.5811 45.835 26.5932 45.6597V52.4358C26.5932 52.9116 26.2109 53.2972 25.7393 53.2972H16.2279C16.1088 53.6778 15.9053 54.0184 15.6322 54.2888C15.1954 54.7296 14.5947 55 13.9345 55C13.2693 55 12.6736 54.7296 12.2367 54.2888C11.7999 53.8481 11.5318 53.2421 11.5318 52.576C11.5318 51.9049 11.7999 51.3039 12.2367 50.8632C12.6736 50.4225 13.2743 50.1521 13.9345 50.1521C14.5997 50.1521 15.1954 50.4225 15.6322 50.8632C15.8358 51.0686 15.9996 51.309 16.1237 51.5744H24.8805V45.2691C23.2473 44.8083 21.7084 44.1122 20.3035 43.2207C20.1497 43.361 19.9511 43.4461 19.7277 43.4461H14.5352C14.416 43.7616 14.2274 44.0421 13.9941 44.2724C13.5572 44.7132 12.9565 44.9836 12.2963 44.9836C11.6361 44.9836 11.0354 44.7132 10.5986 44.2724C10.1617 43.8367 9.89364 43.2307 9.89364 42.5596C9.89364 41.8885 10.1617 41.2876 10.5986 40.8468C11.0354 40.4061 11.6361 40.1357 12.2963 40.1357C12.9565 40.1357 13.5572 40.4061 13.9941 40.8468C14.2373 41.0922 14.4309 41.3927 14.55 41.7233H18.2782C15.0415 38.9537 12.8126 35.0273 12.2218 30.57H3.39551V39.4045C3.65861 39.5247 3.90186 39.695 4.10042 39.9003C4.53727 40.341 4.80534 40.942 4.80534 41.6131C4.80534 42.2792 4.53727 42.8852 4.10042 43.3259C3.66357 43.7666 3.06787 44.0371 2.40267 44.0371C1.74243 44.0371 1.14176 43.7666 0.704915 43.3259C0.268066 42.8902 0 42.2842 0 41.6131C0 40.947 0.268066 40.341 0.704915 39.9003C0.977946 39.6248 1.31551 39.4195 1.68783 39.2993V29.7136C1.68783 29.2378 2.07007 28.8522 2.54167 28.8522H12.0729C12.063 28.6369 12.063 28.4215 12.063 28.2062C12.063 26.6486 12.2616 25.1411 12.6339 23.7038H4.65145C4.53231 24.0293 4.34367 24.3148 4.10539 24.5552C3.66854 24.9959 3.07284 25.2663 2.40763 25.2663C1.7474 25.2663 1.14673 24.9959 0.70988 24.5552C0.273031 24.1145 0.00496419 23.5135 0.00496419 22.8424C0.00496419 22.1763 0.273031 21.5703 0.70988 21.1296C1.14673 20.6889 1.74243 20.4184 2.40763 20.4184C3.06787 20.4184 3.66854 20.6889 4.10539 21.1296C4.3387 21.365 4.53231 21.6554 4.65145 21.981H13.175C14.3267 18.8809 16.3173 16.1965 18.8639 14.2032V13.2817H14.5451C14.4259 13.6123 14.2323 13.9128 13.9891 14.1582C13.5522 14.5989 12.9516 14.8693 12.2913 14.8693C11.6311 14.8693 11.0304 14.5989 10.5936 14.1582C10.1567 13.7174 9.88867 13.1165 9.88867 12.4454C9.88867 11.7743 10.1567 11.1683 10.5936 10.7326C11.0304 10.2918 11.6311 10.0214 12.2913 10.0214C12.9516 10.0214 13.5522 10.2918 13.9891 10.7326C14.2224 10.9679 14.4061 11.2484 14.5302 11.5589H19.7227C20.1943 11.5589 20.5766 11.9445 20.5766 12.4203V13.0213C21.907 12.215 23.3516 11.5789 24.8756 11.1432V3.42561H16.1237C16.0046 3.69104 15.8358 3.93644 15.6322 4.13677C15.1954 4.57749 14.5997 4.84793 13.9345 4.84793C13.2743 4.84793 12.6736 4.57749 12.2367 4.13677C11.7999 3.69605 11.5318 3.09506 11.5318 2.42397C11.5318 1.75788 11.7999 1.15188 12.2367 0.711164C12.6736 0.270443 13.2693 0 13.9345 0C14.5947 0 15.1954 0.270443 15.6322 0.711164C15.9053 0.986614 16.1088 1.32717 16.2279 1.70279H25.7344C26.206 1.70279 26.5882 2.08842 26.5882 2.5642V10.7476C27.5761 10.5723 28.5938 10.4822 29.6313 10.4822ZM22.5623 26.4333H23.9671V26.263V23.4434C23.9671 21.8307 24.6224 20.3683 25.6748 19.3066C26.7272 18.2449 28.1817 17.5838 29.7802 17.5838C31.3787 17.5838 32.8282 18.2449 33.8806 19.3066C34.933 20.3683 35.5883 21.8357 35.5883 23.4434V26.263V26.4333H36.7052C36.9535 26.4333 37.157 26.6386 37.157 26.889V36.5348C37.157 36.7852 36.9535 36.9905 36.7052 36.9905H22.5623C22.314 36.9905 22.1105 36.7852 22.1105 36.5348V26.889C22.1105 26.6386 22.314 26.4333 22.5623 26.4333ZM26.2209 26.4333H33.3246V26.263V23.4133C33.3246 22.4267 32.9225 21.5302 32.2821 20.8792C31.6368 20.2281 30.7482 19.8274 29.7752 19.8274C28.7973 19.8274 27.9087 20.2331 27.2633 20.8792C26.618 21.5302 26.2209 22.4267 26.2209 23.4133V26.263V26.4333ZM29.805 31.7119L30.5199 35.0524L28.554 35.0574L29.1299 31.6718C28.5938 31.4965 28.2016 30.9907 28.2016 30.3897C28.2016 29.6485 28.7973 29.0475 29.532 29.0475C30.2667 29.0475 30.8624 29.6485 30.8624 30.3897C30.8723 31.0458 30.4106 31.5867 29.805 31.7119Z" fill="white"/>
</svg>
