<svg width="112" height="112" viewBox="0 0 112 112" fill="none" xmlns="http://www.w3.org/2000/svg">
<circle cx="56" cy="56" r="56" fill="#43B97F"/>
<path d="M87.0672 32.8624C87.0966 31.1008 86.4587 29.4764 85.2711 28.2888C84.6266 27.6445 83.5819 27.6445 82.9375 28.2889C82.2932 28.9333 82.2931 29.978 82.9375 30.6223C83.4872 31.1719 83.782 31.9478 83.7678 32.8072C83.7541 33.6271 83.4437 34.4188 82.9375 34.9249C81.8877 35.9747 71.423 45.162 63.2502 52.3105L61.2471 50.3075C67.2135 43.4809 74.6177 35.0397 77.5138 31.8346L78.1726 32.4936C78.817 33.138 79.8618 33.138 80.506 32.4937C81.1505 31.8494 81.1506 30.8047 80.5063 30.1603L78.6351 28.2889C78.3257 27.9795 77.906 27.8056 77.4684 27.8056H77.4683C77.0306 27.8056 76.611 27.9794 76.3016 28.2888C75.2975 29.2928 69.1556 36.2686 63.6137 42.5927C62.1234 40.3369 60.1327 38.3963 57.7649 36.9067C54.3041 34.7295 50.2694 33.6255 45.7725 33.6255C44.7833 33.6255 43.8046 33.6879 42.8638 33.8111C41.9602 33.9294 41.3236 34.7577 41.4419 35.6613C41.5602 36.5648 42.3884 37.2014 43.292 37.0832C44.0914 36.9786 44.9259 36.9255 45.7725 36.9255C52.6195 36.9255 58.3629 39.9952 61.3414 45.1876C58.5621 48.3634 56.1742 51.0988 55.0227 52.4186C52.967 52.6987 51.433 53.54 50.3515 54.9826C49.3459 56.3238 48.9051 57.9256 48.4384 59.6214C47.8758 61.6663 47.294 63.7808 45.6348 65.4398C45.1629 65.9117 45.0217 66.6214 45.2771 67.238C45.5325 67.8546 46.1342 68.2566 46.8016 68.2566C51.2421 68.2566 54.7617 67.3101 57.2625 65.4435C59.5161 63.7612 60.8595 61.3728 61.1771 58.5048C65.4286 54.7917 83.7462 38.7831 85.271 37.2583C86.3844 36.145 87.0391 34.5427 87.0672 32.8624ZM60.7601 54.4875C60.2643 54.9207 59.7837 55.3406 59.3215 55.7441L57.815 54.2377C58.2182 53.7756 58.638 53.2945 59.0711 52.7985L60.7601 54.4875ZM55.2885 62.7989C53.9906 63.7678 52.2634 64.4135 50.1315 64.7297C50.8569 63.271 51.2639 61.792 51.6202 60.4969C52.385 57.7176 52.8508 56.3227 54.7353 55.8249L57.7819 58.8714C57.4465 60.4932 56.6118 61.8112 55.2885 62.7989Z" fill="white"/>
<path d="M37.7102 38.6716C37.9505 38.6716 38.1946 38.6188 38.4256 38.5075C38.5736 38.4361 38.7258 38.3659 38.8776 38.2989C39.7112 37.9309 40.0888 36.9568 39.7207 36.1231C39.3527 35.2895 38.3786 34.912 37.5449 35.2799C37.3595 35.3618 37.1736 35.4476 36.9924 35.535C36.1716 35.9307 35.827 36.917 36.2226 37.7378C36.5071 38.3277 37.0964 38.6716 37.7102 38.6716Z" fill="white"/>
<path d="M49.6347 70.0901C48.7243 70.0812 47.9765 70.8103 47.9662 71.7214C47.895 78.0646 46.9374 80.8944 41.4517 80.8944C38.3764 80.8944 35.149 78.6447 32.5971 74.7223C29.7833 70.3971 28.2336 64.7816 28.2336 58.9101C28.2336 51.2877 30.5353 44.9455 34.7149 41.0518C35.3816 40.4306 35.4186 39.3865 34.7975 38.7198C34.1763 38.053 33.1322 38.016 32.4654 38.6372C30.0035 40.9308 28.0987 43.9108 26.8037 47.4946C25.5627 50.9288 24.9336 54.7696 24.9336 58.9101C24.9336 65.4129 26.6729 71.6676 29.831 76.5219C33.0032 81.398 37.2389 84.1945 41.4517 84.1945C45.481 84.1945 48.2894 82.7766 49.7986 79.9802C51.0943 77.5792 51.2354 74.4774 51.2659 71.7585C51.2762 70.8473 50.5459 70.1003 49.6347 70.0901Z" fill="white"/>
<path d="M57.754 45.6543C57.754 42.6232 55.288 40.1572 52.257 40.1572C49.2259 40.1572 46.7598 42.6232 46.7598 45.6543C46.7598 48.6854 49.2259 51.1515 52.257 51.1515C55.288 51.1514 57.754 48.6854 57.754 45.6543ZM50.0598 45.6543C50.0598 44.4428 51.0454 43.4572 52.257 43.4572C53.4685 43.4572 54.454 44.4428 54.454 45.6543C54.454 46.8659 53.4685 47.8515 52.257 47.8515C51.0454 47.8514 50.0598 46.8658 50.0598 45.6543Z" fill="white"/>
<path d="M39.1553 53.1271C42.1865 53.1271 44.6525 50.6611 44.6525 47.6301C44.6525 44.5989 42.1865 42.1329 39.1553 42.1329C36.1242 42.1329 33.6582 44.5989 33.6582 47.6301C33.6582 50.6611 36.1242 53.1271 39.1553 53.1271ZM39.1553 45.4329C40.3669 45.4329 41.3525 46.4186 41.3525 47.6301C41.3525 48.8416 40.3669 49.8271 39.1553 49.8271C37.9438 49.8271 36.9582 48.8416 36.9582 47.6301C36.9582 46.4186 37.9439 45.4329 39.1553 45.4329Z" fill="white"/>
<path d="M40.4415 60.2602C40.4415 57.229 37.9755 54.7629 34.9444 54.7629C31.9133 54.7629 29.4473 57.229 29.4473 60.2602C29.4473 63.2912 31.9133 65.7572 34.9444 65.7572C37.9755 65.7572 40.4415 63.2912 40.4415 60.2602ZM34.9444 62.4572C33.7329 62.4572 32.7473 61.4717 32.7473 60.2602C32.7473 59.0486 33.7329 58.0629 34.9444 58.0629C36.1559 58.0629 37.1415 59.0486 37.1415 60.2602C37.1415 61.4716 36.1559 62.4572 34.9444 62.4572Z" fill="white"/>
<path d="M40.7217 78.6195C43.7528 78.6195 46.2189 76.1535 46.2189 73.1224C46.2189 70.0914 43.7528 67.6254 40.7217 67.6254C37.6906 67.6254 35.2246 70.0914 35.2246 73.1224C35.2246 76.1535 37.6906 78.6195 40.7217 78.6195ZM40.7217 70.9254C41.9333 70.9254 42.9189 71.9109 42.9189 73.1224C42.9189 74.3339 41.9333 75.3195 40.7217 75.3195C39.5102 75.3195 38.5246 74.3339 38.5246 73.1224C38.5246 71.9109 39.5102 70.9254 40.7217 70.9254Z" fill="white"/>
</svg>
