<svg width="38" height="52" viewBox="0 0 38 52" fill="none" xmlns="http://www.w3.org/2000/svg">
<path d="M20.9978 46.0361H17.2447C17.0057 46.0361 16.7766 46.1311 16.6076 46.3C16.4387 46.469 16.3438 46.6981 16.3438 46.937C16.3438 47.176 16.4387 47.4051 16.6076 47.5741C16.7766 47.743 17.0057 47.8379 17.2447 47.8379H20.9978C21.2367 47.8379 21.4659 47.743 21.6348 47.5741C21.8038 47.4051 21.8987 47.176 21.8987 46.937C21.8987 46.6981 21.8038 46.469 21.6348 46.3C21.4659 46.1311 21.2367 46.0361 20.9978 46.0361Z" fill="black"/>
<path d="M37.991 10.3694C37.9914 10.2649 37.9731 10.1611 37.9369 10.0631C37.9231 10.04 37.9111 10.0159 37.9009 9.99099C37.8829 9.95496 37.8739 9.92793 37.8559 9.89189L32.0811 0.819821C31.923 0.568473 31.7037 0.361391 31.4437 0.217996C31.1837 0.0746005 30.8915 -0.000409061 30.5946 1.6778e-06H7.4054C7.10848 -0.000409061 6.81632 0.0746005 6.55632 0.217996C6.29632 0.361391 6.07699 0.568473 5.91892 0.819821L0.144144 9.89189C0.126126 9.92793 0.117118 9.95496 0.0990997 9.99099C0.0889286 10.0159 0.0768811 10.04 0.0630628 10.0631C0.0269481 10.1611 0.00864303 10.2649 0.00900922 10.3694L0 10.3784V14.5315C0.00458571 15.4907 0.315645 16.4233 0.887766 17.1931C1.45989 17.963 2.26311 18.5298 3.18018 18.8108V46.1441C3.1828 47.5259 3.7335 48.8502 4.71142 49.8265C5.68934 50.8027 7.0146 51.3511 8.3964 51.3513H29.6036C30.9854 51.3511 32.3107 50.8027 33.2886 49.8265C34.2665 48.8502 34.8172 47.5259 34.8198 46.1441V18.8108C35.7369 18.5298 36.5401 17.963 37.1122 17.1931C37.6844 16.4233 37.9954 15.4907 38 14.5315V10.3784L37.991 10.3694ZM30.5586 1.78379L35.4505 9.47748H30.4595L27.2432 1.78379H30.5586ZM25.2883 1.78379L28.5045 9.47748H23.4234L22.5856 1.79279L25.2883 1.78379ZM28.955 11.2793V14.5315C28.955 15.2483 28.6702 15.9358 28.1634 16.4426C27.6565 16.9495 26.9691 17.2342 26.2523 17.2342H26.2252C25.5084 17.2342 24.821 16.9495 24.3141 16.4426C23.8073 15.9358 23.5225 15.2483 23.5225 14.5315V11.2793H28.955ZM17.2252 1.79279H20.7748L21.6126 9.47748H16.3874L17.2252 1.79279ZM16.2793 11.2793H21.7207V14.5315C21.7207 15.2483 21.436 15.9358 20.9291 16.4426C20.4223 16.9495 19.7348 17.2342 19.018 17.2342H18.982C18.2652 17.2342 17.5777 16.9495 17.0709 16.4426C16.564 15.9358 16.2793 15.2483 16.2793 14.5315V11.2793ZM15.4144 1.79279L14.5766 9.47748H9.4955L12.7117 1.8018L15.4144 1.79279ZM14.4775 11.2793V14.5315C14.4775 15.2483 14.1927 15.9358 13.6859 16.4426C13.179 16.9495 12.4916 17.2342 11.7748 17.2342H11.7477C11.0309 17.2342 10.3435 16.9495 9.83665 16.4426C9.32979 15.9358 9.04505 15.2483 9.04505 14.5315V11.2793H14.4775ZM7.4054 1.8018H10.7568L7.54054 9.47748H2.54054L7.4054 1.8018ZM4.54054 17.2342H4.5045C3.7877 17.2342 3.10026 16.9495 2.59341 16.4426C2.08655 15.9358 1.8018 15.2483 1.8018 14.5315V11.2793H7.24324V14.5315C7.24324 15.2483 6.95849 15.9358 6.45164 16.4426C5.94478 16.9495 5.25734 17.2342 4.54054 17.2342ZM33.018 46.1441C33.0152 47.048 32.6542 47.9139 32.0143 48.5522C31.3743 49.1904 30.5075 49.5491 29.6036 49.5495H8.3964C7.49254 49.5491 6.62571 49.1904 5.98574 48.5522C5.34578 47.9139 4.98484 47.048 4.98198 46.1441V44.3333H33.018V46.1441ZM33.018 42.5315H4.98198V18.991C5.60456 18.9316 6.20772 18.7421 6.75243 18.4348C7.29715 18.1275 7.77128 17.7093 8.14415 17.2072C8.5592 17.7734 9.10167 18.234 9.72769 18.5517C10.3537 18.8694 11.0457 19.0353 11.7477 19.036H11.7748C12.4768 19.0353 13.1688 18.8694 13.7948 18.5517C14.4209 18.234 14.9633 17.7734 15.3784 17.2072C15.7934 17.7734 16.3359 18.234 16.9619 18.5517C17.5879 18.8694 18.28 19.0353 18.982 19.036H19.018C19.72 19.0353 20.412 18.8694 21.0381 18.5517C21.6641 18.234 22.2066 17.7734 22.6216 17.2072C23.0367 17.7734 23.5791 18.234 24.2052 18.5517C24.8312 18.8694 25.5232 19.0353 26.2252 19.036H26.2523C26.9543 19.0353 27.6463 18.8694 28.2723 18.5517C28.8983 18.234 29.4408 17.7734 29.8559 17.2072C30.2287 17.7093 30.7029 18.1275 31.2476 18.4348C31.7923 18.7421 32.3954 18.9316 33.018 18.991V42.5315ZM36.1982 14.5315C36.1982 15.2483 35.9134 15.9358 35.4066 16.4426C34.8997 16.9495 34.2123 17.2342 33.4955 17.2342H33.4595C32.7427 17.2342 32.0552 16.9495 31.5484 16.4426C31.0415 15.9358 30.7568 15.2483 30.7568 14.5315V11.2793H36.1982V14.5315Z" fill="black"/>
<path d="M28.2333 36.5405L23.4135 31.7206C24.2245 30.1109 24.4355 28.2648 24.0087 26.5135C23.582 24.7623 22.5453 23.2203 21.0846 22.1641C19.6239 21.108 17.8347 20.6067 16.0379 20.7501C14.2411 20.8936 12.5542 21.6725 11.2796 22.9471C10.005 24.2216 9.22614 25.9086 9.08266 27.7054C8.93919 29.5022 9.44048 31.2914 10.4966 32.7521C11.5528 34.2128 13.0948 35.2494 14.8461 35.6762C16.5973 36.103 18.4434 35.892 20.0532 35.081L24.873 39.9008C25.3215 40.3323 25.9213 40.5707 26.5437 40.5647C27.166 40.5587 27.7611 40.3088 28.2012 39.8687C28.6413 39.4286 28.8912 38.8335 28.8972 38.2111C28.9032 37.5888 28.6648 36.989 28.2333 36.5405ZM16.6478 34.09C15.3105 34.0915 14.0141 33.6292 12.9795 32.7819C11.9449 31.9346 11.2361 30.7547 10.9741 29.4433C10.712 28.132 10.9128 26.7703 11.5423 25.5904C12.1717 24.4106 13.1909 23.4855 14.426 22.9729C15.6612 22.4603 17.0358 22.3919 18.3158 22.7794C19.5957 23.1668 20.7016 23.9862 21.4451 25.0977C22.1886 26.2093 22.5235 27.5443 22.3929 28.8752C22.2623 30.2061 21.6742 31.4505 20.7288 32.3963C20.1941 32.9341 19.5581 33.3606 18.8577 33.6513C18.1572 33.942 17.4061 34.0911 16.6478 34.09ZM26.9631 38.6215C26.856 38.7288 26.7111 38.7899 26.5595 38.7916C26.4079 38.7933 26.2617 38.7355 26.1523 38.6306L21.5757 34.054C21.7282 33.9345 21.8726 33.8051 22.0081 33.6666C22.1414 33.532 22.2677 33.3907 22.3865 33.2432L26.9631 37.8107C27.0166 37.8638 27.059 37.927 27.088 37.9966C27.117 38.0661 27.1319 38.1408 27.1319 38.2161C27.1319 38.2915 27.117 38.3661 27.088 38.4357C27.059 38.5053 27.0166 38.5685 26.9631 38.6215Z" fill="black"/>
</svg>
