<svg width="51" height="51" viewBox="0 0 51 51" fill="none" xmlns="http://www.w3.org/2000/svg">
<path d="M12.528 4.99258C12.5227 5.34532 12.4132 5.68862 12.2134 5.97934C12.0136 6.27007 11.7323 6.49525 11.4049 6.62658C11.0775 6.75792 10.7186 6.78955 10.3732 6.7175C10.0279 6.64545 9.71154 6.47294 9.46396 6.22164C9.21638 5.97034 9.04859 5.65147 8.98169 5.3051C8.91479 4.95873 8.95176 4.60031 9.08796 4.27488C9.22415 3.94946 9.45349 3.67155 9.74716 3.47609C10.0408 3.28062 10.3857 3.17631 10.7385 3.17627C11.2162 3.18123 11.6725 3.37503 12.0078 3.71535C12.3431 4.05567 12.5301 4.51485 12.528 4.99258Z" fill="black"/>
<path d="M7.16078 4.99258C7.15549 5.34532 7.04606 5.68862 6.84624 5.97934C6.64642 6.27007 6.36513 6.49525 6.03771 6.62658C5.7103 6.75792 5.35137 6.78955 5.00603 6.7175C4.66069 6.64545 4.34436 6.47294 4.09677 6.22164C3.84919 5.97034 3.6814 5.65147 3.6145 5.3051C3.5476 4.95873 3.58457 4.60031 3.72077 4.27488C3.85696 3.94946 4.0863 3.67155 4.37997 3.47609C4.67364 3.28062 5.01853 3.17631 5.3713 3.17627C5.84902 3.18123 6.30536 3.37503 6.64065 3.71535C6.97594 4.05567 7.16293 4.51485 7.16078 4.99258Z" fill="black"/>
<path d="M17.8952 4.99258C17.8899 5.34532 17.7804 5.68862 17.5806 5.97934C17.3808 6.27007 17.0995 6.49525 16.7721 6.62658C16.4447 6.75792 16.0857 6.78955 15.7404 6.7175C15.3951 6.64545 15.0787 6.47294 14.8311 6.22164C14.5836 5.97034 14.4158 5.65147 14.3489 5.3051C14.282 4.95873 14.3189 4.60031 14.4551 4.27488C14.5913 3.94946 14.8207 3.67155 15.1143 3.47609C15.408 3.28062 15.7529 3.17631 16.1057 3.17627C16.5834 3.18123 17.0397 3.37503 17.375 3.71535C17.7103 4.05567 17.8973 4.51485 17.8952 4.99258Z" fill="black"/>
<path d="M49.2105 0H1.78947C1.31531 0.00141612 0.860974 0.190404 0.525689 0.525689C0.190404 0.860974 0.00141612 1.31531 0 1.78947V49.2105C0.00141612 49.6847 0.190404 50.139 0.525689 50.4743C0.860974 50.8096 1.31531 50.9986 1.78947 51H49.2105C49.6847 50.9986 50.139 50.8096 50.4743 50.4743C50.8096 50.139 50.9986 49.6847 51 49.2105V1.78947C50.9986 1.31531 50.8096 0.860974 50.4743 0.525689C50.139 0.190404 49.6847 0.00141612 49.2105 0ZM49.2105 49.2105H1.78947V9.99421H49.2105V49.2105ZM49.2105 8.20474H1.78947V1.78947H49.2105V8.20474Z" fill="black"/>
<path d="M47.1612 5.73525C47.3267 5.90407 47.4186 6.13151 47.4169 6.36788C47.4153 6.60426 47.3201 6.83037 47.1523 6.99683C47.0709 7.08031 46.9735 7.14636 46.8658 7.19097C46.7581 7.23558 46.6425 7.25781 46.5259 7.2563C46.4074 7.25703 46.2899 7.23361 46.1807 7.18746C46.0715 7.14131 45.9728 7.07341 45.8907 6.98788L45.1838 6.27209L44.477 6.98788C44.3949 7.07341 44.2962 7.14131 44.187 7.18746C44.0778 7.23361 43.9603 7.25703 43.8417 7.2563C43.7252 7.25781 43.6096 7.23558 43.5019 7.19097C43.3942 7.14636 43.2968 7.08031 43.2154 6.99683C43.0476 6.83037 42.9524 6.60426 42.9508 6.36788C42.9491 6.13151 43.041 5.90407 43.2065 5.73525L43.9312 4.99262L43.2065 4.25893C43.04 4.08882 42.9476 3.85982 42.9492 3.62183C42.9509 3.38384 43.0466 3.15616 43.2154 2.98841C43.3842 2.82295 43.6117 2.73101 43.8481 2.73269C44.0844 2.73436 44.3105 2.82951 44.477 2.99735L45.1838 3.72209L45.8907 2.99735C46.0571 2.82951 46.2832 2.73436 46.5196 2.73269C46.756 2.73101 46.9834 2.82295 47.1523 2.98841C47.3211 3.15616 47.4168 3.38384 47.4184 3.62183C47.4201 3.85982 47.3277 4.08882 47.1612 4.25893L46.4365 4.99262L47.1612 5.73525Z" fill="black"/>
<path d="M41.1575 4.99264C41.1575 5.22994 41.0632 5.45752 40.8954 5.62531C40.7276 5.79311 40.5 5.88737 40.2627 5.88737H36.6838C36.4465 5.88737 36.2189 5.79311 36.0511 5.62531C35.8833 5.45752 35.7891 5.22994 35.7891 4.99264C35.7891 4.75534 35.8833 4.52776 36.0511 4.35996C36.2189 4.19217 36.4465 4.0979 36.6838 4.0979H40.2627C40.5 4.0979 40.7276 4.19217 40.8954 4.35996C41.0632 4.52776 41.1575 4.75534 41.1575 4.99264Z" fill="black"/>
<path d="M14.8957 35.2437L18.1436 33.3737H33.9536C34.4251 33.3713 34.8868 33.2399 35.289 32.9939C35.6911 32.7479 36.0183 32.3965 36.2352 31.9779L41.3084 22.3953C41.5444 21.9436 41.6509 21.4355 41.6161 20.927C41.5814 20.4186 41.4068 19.9297 41.1115 19.5143L40.4673 18.6016C40.2292 18.2674 39.9154 17.9942 39.5515 17.8045C39.1876 17.6148 38.784 17.5139 38.3736 17.5101H38.3647L17.2757 17.5637L17.1415 16.1858C17.0809 15.5056 16.7702 14.8719 16.2694 14.4075C15.7686 13.9431 15.1134 13.6809 14.4305 13.6716H9.37521C9.13791 13.6716 8.91033 13.7659 8.74253 13.9337C8.57474 14.1015 8.48047 14.3291 8.48047 14.5664C8.48047 14.8037 8.57474 15.0312 8.74253 15.199C8.91033 15.3668 9.13791 15.4611 9.37521 15.4611H14.4305C14.6708 15.4717 14.8988 15.5707 15.0706 15.7392C15.2423 15.9076 15.3458 16.1336 15.361 16.3737L16.9536 31.9958L13.9384 33.7406C13.5657 34.0029 13.2621 34.3515 13.0533 34.7566C12.8446 35.1616 12.7369 35.6112 12.7394 36.0669V36.3174C12.7327 37.0169 12.9894 37.6933 13.4586 38.2122C13.9277 38.731 14.5749 39.0544 15.2715 39.1179C14.8145 39.8043 14.5716 40.6108 14.5736 41.4353C14.5541 41.9651 14.6415 42.4935 14.8308 42.9887C15.0201 43.484 15.3072 43.936 15.6751 44.3177C16.0431 44.6995 16.4842 45.0031 16.9721 45.2105C17.46 45.4179 17.9848 45.5248 18.5149 45.5248C19.0451 45.5248 19.5699 45.4179 20.0578 45.2105C20.5457 45.0031 20.9868 44.6995 21.3547 44.3177C21.7227 43.936 22.0098 43.484 22.1991 42.9887C22.3883 42.4935 22.4758 41.9651 22.4563 41.4353C22.4557 40.618 22.2163 39.8188 21.7673 39.1358H29.8826C29.4295 39.8168 29.1897 40.6174 29.1936 41.4353C29.1741 41.9651 29.2615 42.4935 29.4508 42.9887C29.6401 43.484 29.9272 43.936 30.2951 44.3177C30.6631 44.6995 31.1042 45.0031 31.5921 45.2105C32.08 45.4179 32.6048 45.5248 33.1349 45.5248C33.6651 45.5248 34.1899 45.4179 34.6778 45.2105C35.1657 45.0031 35.6068 44.6995 35.9747 44.3177C36.3427 43.936 36.6298 43.484 36.8191 42.9887C37.0084 42.4935 37.0958 41.9651 37.0763 41.4353C37.0757 40.618 36.8363 39.8188 36.3873 39.1358H38.0068C38.2441 39.1358 38.4717 39.0416 38.6395 38.8738C38.8073 38.706 38.9015 38.4784 38.9015 38.2411C38.9015 38.0038 38.8073 37.7762 38.6395 37.6084C38.4717 37.4406 38.2441 37.3464 38.0068 37.3464H15.4684C15.2078 37.3331 14.963 37.2177 14.7871 37.025C14.6112 36.8324 14.5184 36.5781 14.5289 36.3174V36.0669C14.5274 35.9114 14.5594 35.7574 14.6227 35.6154C14.686 35.4733 14.7791 35.3466 14.8957 35.2437ZM34.6605 31.1369C34.5938 31.2681 34.4929 31.3789 34.3685 31.4577C34.2441 31.5364 34.1008 31.5801 33.9536 31.5843H18.7073L17.7857 22.5116L39.2236 22.5027L34.6605 31.1369ZM38.3647 19.2995H38.3736C38.4991 19.3008 38.6224 19.3324 38.733 19.3916C38.8436 19.4508 38.9382 19.5359 39.0089 19.6395L39.662 20.5522C39.6889 20.5969 39.7157 20.6506 39.7426 20.7043L17.5978 20.7222L17.4636 19.3532L38.3647 19.2995ZM33.1305 39.1358C33.5931 39.1033 34.0549 39.2109 34.4556 39.4445C34.8563 39.6781 35.1773 40.027 35.3769 40.4456C35.5765 40.8643 35.6455 41.3334 35.5747 41.7918C35.5039 42.2502 35.2968 42.6766 34.9802 43.0156C34.6636 43.3546 34.2523 43.5904 33.7999 43.6923C33.3474 43.7943 32.8747 43.7576 32.4433 43.587C32.012 43.4165 31.642 43.12 31.3816 42.7362C31.1211 42.3525 30.9823 41.8991 30.9831 41.4353C30.9647 40.8461 31.1802 40.2736 31.5826 39.8427C31.9849 39.4119 32.5414 39.1578 33.1305 39.1358ZM18.5105 39.1358C18.9731 39.1033 19.4349 39.2109 19.8356 39.4445C20.2363 39.6781 20.5573 40.027 20.7569 40.4456C20.9565 40.8643 21.0255 41.3334 20.9547 41.7918C20.8839 42.2502 20.6768 42.6766 20.3602 43.0156C20.0436 43.3546 19.6323 43.5904 19.1799 43.6923C18.7274 43.7943 18.2547 43.7576 17.8233 43.587C17.392 43.4165 17.022 43.12 16.7616 42.7362C16.5011 42.3525 16.3623 41.8991 16.3631 41.4353C16.3447 40.8461 16.5602 40.2736 16.9626 39.8427C17.3649 39.4119 17.9214 39.1578 18.5105 39.1358Z" fill="black"/>
</svg>
