<svg width="235" height="95" viewBox="0 0 235 95" fill="none" xmlns="http://www.w3.org/2000/svg">
<rect x="0.5" y="0.5" width="234" height="94" fill="#061611" stroke="white"/>
<path d="M123.516 10.3836C123.567 10.471 123.619 10.5584 123.672 10.6484C123.509 10.957 123.509 10.957 123.253 11.3424C123.16 11.4827 123.068 11.6231 122.972 11.7677C122.871 11.9171 122.771 12.0665 122.667 12.2204C122.515 12.4479 122.515 12.4479 122.36 12.6801C121.696 13.666 121.011 14.6195 120.238 15.5464C120.111 15.7033 119.985 15.8603 119.859 16.0175C119.074 16.9936 118.277 17.9627 117.478 18.9304C117.385 19.0424 117.293 19.1543 117.198 19.2697C116.728 19.8391 116.257 20.4079 115.785 20.9761C114.507 22.5193 113.258 24.0793 112.022 25.6467C111.845 25.8704 111.668 26.0939 111.491 26.3173C108.72 29.8164 106.295 33.4365 104.944 37.5214C104.902 37.6462 104.86 37.771 104.817 37.8996C103.611 41.6161 103.842 45.4822 106.044 48.8959C108.081 51.8683 110.986 54.0289 114.944 54.9375C118.8 55.7411 123.076 54.7351 126.411 53.045C129.665 51.2759 131.896 48.8771 133.66 45.9937C133.775 45.8066 133.775 45.8066 133.893 45.6157C135.251 43.2506 135.706 40.5528 135.971 37.9584C135.981 37.8599 135.991 37.7614 136.002 37.6599C136.051 37.1707 136.096 36.6814 136.137 36.1917C136.154 36.0111 136.17 35.8306 136.187 35.65C136.2 35.4907 136.213 35.3314 136.227 35.1672C136.336 34.6273 136.533 34.232 137.064 33.9058C137.682 33.7412 138.154 33.7389 138.742 33.9767C139.962 34.7315 140.01 36.9152 140.241 38.0928C141.388 44.4131 139.695 50.9947 135.295 56.2035C134.698 56.89 134.057 57.5241 133.364 58.1432C133.102 58.378 132.861 58.6137 132.626 58.8676C132.133 59.3521 131.589 59.7527 131.007 60.1583C130.793 60.3078 130.793 60.3078 130.574 60.4603C127.047 62.8416 122.849 64.6139 118.366 65.1888C118.187 65.213 118.009 65.2372 117.825 65.2622C116.795 65.367 115.754 65.3535 114.717 65.3542C114.606 65.3543 114.494 65.3544 114.379 65.3545C112.65 65.3523 110.997 65.2756 109.314 64.924C109.199 64.9013 109.085 64.8786 108.967 64.8552C107.228 64.504 105.613 63.9998 104.007 63.3354C103.908 63.2947 103.809 63.2539 103.707 63.2118C101.425 62.2601 99.4908 61.0386 97.6681 59.5401C97.4845 59.3901 97.297 59.2435 97.1088 59.0977C92.9094 55.7601 90.7834 50.5124 90.5857 45.729C90.4106 40.7468 91.2929 35.7027 94.1752 31.2996C94.2757 31.1411 94.3761 30.9825 94.4764 30.8239C96.7471 27.2919 100.212 24.0505 104.038 21.6803C104.48 21.4025 104.911 21.1132 105.344 20.8252C106.359 20.15 107.382 19.4853 108.416 18.8311C110.72 17.3725 112.936 15.8395 115.088 14.2226C115.193 14.1459 115.298 14.0691 115.406 13.9899C116.086 13.4849 116.73 12.9646 117.358 12.4143C117.551 12.2467 117.551 12.2467 117.748 12.0757C118.005 11.8508 118.261 11.6244 118.515 11.3965C120.032 10.0748 121.466 9.59062 123.516 10.3836Z" fill="white" fill-opacity="0.58"/>
<path d="M138.744 33.9765C139.965 34.7313 140.013 36.915 140.243 38.0926C141.39 44.4129 139.697 50.9945 135.297 56.2033C134.7 56.8898 134.059 57.5239 133.367 58.143C133.104 58.3779 132.864 58.6135 132.628 58.8674C132.135 59.3519 131.592 59.7525 131.009 60.1581C130.866 60.2578 130.723 60.3575 130.576 60.4601C127.049 62.8414 122.851 64.6137 118.368 65.1886C118.1 65.2249 118.1 65.2249 117.828 65.262C116.797 65.3668 115.756 65.3533 114.72 65.354C114.608 65.3541 114.497 65.3542 114.382 65.3543C112.653 65.3521 111 65.2754 109.316 64.9238C109.144 64.8897 109.144 64.8897 108.969 64.855C106.029 64.2611 102.974 63.2016 100.576 61.6143C100.679 61.5706 100.782 61.5269 100.888 61.4819C100.877 61.4046 100.866 61.3272 100.855 61.2475C100.704 60.0435 100.701 58.8439 100.703 57.6347C100.703 57.5236 100.703 57.4126 100.703 57.2982C100.71 54.351 101.008 51.5011 101.603 48.5966C101.667 48.2521 101.714 47.9089 101.756 47.5619C101.825 47.0526 101.825 47.0526 101.981 46.9202C102.017 46.6628 102.054 46.4053 102.088 46.1476C102.137 45.8612 102.137 45.8612 102.283 45.4309C102.477 44.8498 102.583 44.2705 102.689 43.6738C102.761 43.3459 102.761 43.3459 102.917 43.2136C103.001 42.8829 103.079 42.5531 103.151 42.2207C103.364 41.2458 103.364 41.2458 103.541 41.0955C103.567 40.9426 103.593 40.7897 103.619 40.6322C103.697 40.1688 103.697 40.1688 103.854 40.0365C103.938 39.7113 104.015 39.3872 104.088 39.0602C104.303 38.0991 104.303 38.0991 104.478 37.6536C104.581 37.6536 104.684 37.6536 104.79 37.6536C104.478 39.1098 104.478 39.1098 104.399 39.4275C103.567 42.9365 104.291 46.5975 106.565 49.6174C108.77 52.4234 111.718 54.3635 115.655 55.0752C119.62 55.6363 123.998 54.5149 127.236 52.5745C130.082 50.8048 132.046 48.6358 133.662 45.9935C133.739 45.8688 133.816 45.744 133.895 45.6155C135.253 43.2504 135.708 40.5526 135.973 37.9582C135.983 37.8597 135.994 37.7612 136.004 37.6597C136.053 37.1705 136.099 36.6813 136.14 36.1915C136.156 36.0109 136.173 35.8304 136.189 35.6498C136.202 35.4905 136.216 35.3312 136.229 35.167C136.338 34.6271 136.535 34.2318 137.066 33.9056C137.684 33.741 138.157 33.7387 138.744 33.9765Z" fill="white" fill-opacity="0.58"/>
<path d="M128.202 17.6641C128.16 17.8001 128.119 17.9361 128.076 18.0762C127.428 20.2235 126.971 22.2888 127.217 24.5147C127.227 24.6121 127.237 24.7096 127.248 24.8099C127.532 27.036 128.292 29.1826 129.06 31.3157C130.897 36.4322 132.093 41.3937 129.08 46.3821C127.586 48.6102 125.441 50.1507 122.551 50.9275C119.482 51.6056 116.271 51.1596 113.448 50.0034C113.03 49.7904 112.66 49.5655 112.283 49.3028C112.15 49.2115 112.017 49.1202 111.88 49.0261C109.623 47.3905 108.369 45.4368 108.099 42.9237C107.797 37.5493 111.651 32.5517 115.733 28.725C117.089 27.4621 117.089 27.4621 117.648 27.4271C118.214 27.4601 118.214 27.4601 118.516 27.6008C118.844 28.1083 118.715 28.6735 118.551 29.2147C118.494 29.3592 118.438 29.5038 118.379 29.6527C118.049 30.5855 117.854 31.513 117.902 32.4906C118.056 32.6872 118.056 32.6872 118.214 32.8877C118.692 32.8473 118.926 32.8218 119.248 32.5087C119.483 32.1525 119.713 31.7959 119.93 31.4315C120 31.3152 120.07 31.1988 120.141 31.0789C120.929 29.6232 121.202 28.0266 121.505 26.4568C122.21 22.838 124.178 20.1812 127.457 17.8099C127.734 17.6641 127.734 17.6641 128.202 17.6641Z" fill="white" fill-opacity="0.58"/>
<path d="M33 68.7626C34.8026 68.7626 36.6051 68.7626 38.4623 68.7626C38.9532 69.762 39.4356 70.7586 39.8895 71.7696C39.9478 71.8989 40.0061 72.0281 40.0661 72.1613C40.2503 72.57 40.4342 72.9788 40.618 73.3876C40.7392 73.6566 40.8604 73.9256 40.9816 74.1946C41.102 74.4618 41.2225 74.7291 41.3428 74.9964C41.4017 75.127 41.4606 75.2577 41.5212 75.3923C41.8203 76.0568 42.1182 76.7216 42.4142 77.387C42.4717 77.5161 42.5293 77.6452 42.5886 77.7782C42.698 78.0237 42.807 78.2693 42.9157 78.515C42.9641 78.6235 43.0125 78.7321 43.0624 78.8439C43.1048 78.9394 43.1472 79.0349 43.1908 79.1333C43.2816 79.3536 43.2816 79.3536 43.4564 79.4854C43.4855 79.4171 43.5146 79.3489 43.5446 79.2786C44.2224 77.6879 44.9006 76.0973 45.5792 74.5069C45.9065 73.7399 46.2334 72.9728 46.5598 72.2055C46.7335 71.7971 46.9076 71.3889 47.0818 70.9807C47.1619 70.7929 47.2418 70.6051 47.3215 70.4172C47.4309 70.1596 47.5407 69.9022 47.6507 69.6448C47.7115 69.5021 47.7722 69.3594 47.8348 69.2123C47.9824 68.895 47.9824 68.895 48.1384 68.7626C48.5659 68.7509 48.9894 68.7474 49.4168 68.7497C49.5448 68.7499 49.6727 68.7501 49.8046 68.7503C50.2149 68.751 50.6251 68.7527 51.0354 68.7544C51.3129 68.755 51.5904 68.7556 51.8679 68.7562C52.5496 68.7576 53.2312 68.7599 53.9129 68.7626C53.9129 68.9374 53.9129 69.1121 53.9129 69.2921C53.7648 69.3468 53.6168 69.4014 53.4642 69.4576C52.9487 69.7025 52.8653 69.7722 52.6644 70.2188C52.6177 70.4877 52.6177 70.4877 52.6237 70.7714C52.6226 70.8805 52.6215 70.9897 52.6203 71.1021C52.6207 71.2207 52.6211 71.3392 52.6215 71.4614C52.6203 71.6501 52.6203 71.6501 52.6191 71.8425C52.6169 72.2583 52.6171 72.674 52.6174 73.0898C52.6168 73.3786 52.6161 73.6675 52.6154 73.9563C52.6142 74.5617 52.6143 75.167 52.6151 75.7724C52.616 76.5488 52.6134 77.3251 52.6097 78.1015C52.6074 78.6979 52.6073 79.2943 52.6078 79.8908C52.6077 80.1771 52.6069 80.4633 52.6053 80.7496C52.6034 81.1496 52.6044 81.5494 52.6063 81.9494C52.6051 82.068 52.6039 82.1865 52.6026 82.3087C52.6072 82.9425 52.6072 82.9425 52.8759 83.5241C53.1947 83.7693 53.506 83.8743 53.9129 83.9863C53.9129 84.161 53.9129 84.3358 53.9129 84.5158C51.5438 84.5158 49.1747 84.5158 46.7338 84.5158C46.7338 84.341 46.7338 84.1663 46.7338 83.9863C46.9112 83.9257 47.0885 83.8651 47.2713 83.8027C47.636 83.6238 47.796 83.5344 47.93 83.1913C47.9685 82.8443 47.9734 82.5068 47.9671 82.1583C47.9691 82.0282 47.971 81.898 47.973 81.764C47.978 81.338 47.9754 80.9124 47.9726 80.4865C47.9746 80.1939 47.977 79.9013 47.9799 79.6087C47.9859 78.8703 47.9856 78.132 47.9833 77.3936C47.9819 76.746 47.9853 76.0985 47.9885 75.4509C47.9929 74.3246 47.9904 73.1984 47.9824 72.0721C47.9275 72.2035 47.9275 72.2035 47.8716 72.3375C47.4052 73.4544 46.9381 74.5711 46.4705 75.6877C46.4333 75.7765 46.3961 75.8653 46.3578 75.9568C45.1589 78.8189 43.9417 81.6744 42.6761 84.5158C42.1096 84.5158 41.5431 84.5158 40.9594 84.5158C40.5204 83.6938 40.1157 82.8668 39.7365 82.0238C39.6802 81.8994 39.6239 81.7749 39.5659 81.6466C39.4464 81.382 39.327 81.1173 39.2078 80.8526C39.0345 80.4676 38.8603 80.0829 38.6861 79.6982C37.5419 77.1653 36.4424 74.6185 35.341 72.0721C35.3338 73.4565 35.3282 74.8408 35.3248 76.2252C35.3232 76.868 35.321 77.5109 35.3174 78.1537C35.3141 78.7743 35.3122 79.3948 35.3114 80.0154C35.3108 80.252 35.3097 80.4885 35.308 80.7251C35.3057 81.0568 35.3054 81.3886 35.3056 81.7204C35.3044 81.8178 35.3033 81.9152 35.3022 82.0156C35.3049 82.5893 35.3877 83.06 35.6531 83.5891C35.9124 83.7645 35.9124 83.7645 36.2189 83.8373C36.4796 83.9111 36.4796 83.9111 36.7456 83.9863C36.7456 84.161 36.7456 84.3358 36.7456 84.5158C35.5095 84.5158 34.2735 84.5158 33 84.5158C33 84.341 33 84.1663 33 83.9863C33.1481 83.9289 33.2961 83.8716 33.4487 83.8125C33.9677 83.6165 33.9677 83.6165 34.2485 83.192C34.2961 82.9345 34.2961 82.9345 34.2903 82.6503C34.2923 82.4852 34.2923 82.4852 34.2943 82.3168C34.2942 82.1965 34.294 82.0762 34.2939 81.9523C34.2949 81.8252 34.296 81.6982 34.297 81.5673C34.3 81.1465 34.3006 80.7258 34.301 80.305C34.302 80.013 34.303 79.721 34.3041 79.429C34.306 78.8166 34.3066 78.2042 34.3064 77.5918C34.3063 76.8064 34.3106 76.021 34.316 75.2356C34.3194 74.6325 34.3201 74.0293 34.3199 73.4262C34.3203 73.1366 34.3217 72.847 34.3241 72.5574C34.3271 72.1526 34.3262 71.748 34.3244 71.3433C34.3261 71.2233 34.3279 71.1032 34.3297 70.9796C34.3278 70.3184 34.3278 70.3184 33.9536 69.7535C33.6443 69.5689 33.3475 69.4185 33 69.2921C33 69.1174 33 68.9427 33 68.7626Z" fill="white" fill-opacity="0.58"/>
<path d="M117.645 27.4268C118.211 27.4599 118.211 27.4599 118.513 27.6005C118.841 28.108 118.713 28.6732 118.548 29.2144C118.491 29.3589 118.435 29.5035 118.377 29.6524C118.046 30.5852 117.852 31.5127 117.899 32.4903C118.002 32.6213 118.105 32.7524 118.211 32.8874C118.585 32.8702 118.585 32.8702 118.991 32.755C119.277 32.4723 119.277 32.4723 119.489 32.118C119.565 32.0024 119.641 31.8869 119.72 31.7679C119.897 31.4807 120.071 31.1926 120.24 30.9017C120.343 30.9017 120.446 30.9017 120.552 30.9017C120.884 32.2967 120.927 33.6697 120.93 35.0884C120.932 35.4645 120.94 35.8404 120.948 36.2165C120.97 38.3472 120.533 40.3025 119.615 42.2864C119.512 42.2864 119.409 42.2864 119.303 42.2864C119.284 42.4282 119.284 42.4282 119.264 42.5728C118.929 43.6502 117.678 44.5429 116.612 45.1325C115.314 45.7314 113.99 46.144 112.512 46.1383C112.317 46.1379 112.122 46.1374 111.921 46.137C111.717 46.1359 111.514 46.1348 111.305 46.1336C110.996 46.1327 110.996 46.1327 110.682 46.1318C110.174 46.1303 109.667 46.1281 109.159 46.1254C109.058 45.9369 108.958 45.7483 108.858 45.5596C108.803 45.4546 108.747 45.3496 108.689 45.2414C107.421 42.7189 108.173 39.691 109.292 37.2279C110.351 35.0076 114.323 27.6355 117.645 27.4268Z" fill="white" fill-opacity="0.58"/>
<path d="M127.888 18.459C127.87 18.5328 127.852 18.6066 127.833 18.6827C127.356 20.6511 126.999 22.5003 127.215 24.5153C127.23 24.6616 127.23 24.6616 127.246 24.8109C127.531 27.0369 128.29 29.1832 129.059 31.3163C130.895 36.4329 132.091 41.3943 129.078 46.3828C127.585 48.6108 125.44 50.1514 122.549 50.9282C121.506 51.1587 120.504 51.1851 119.431 51.1898C119.279 51.1925 119.126 51.1953 118.969 51.1981C117.869 51.203 116.916 51.0479 115.871 50.7596C116.183 50.3624 116.183 50.3624 116.545 50.2797C116.69 50.2633 116.834 50.2469 116.983 50.2301C118.108 50.0791 119.089 49.7773 120.085 49.3034C120.136 49.216 120.188 49.1287 120.241 49.0386C120.449 48.9945 120.657 48.9504 120.865 48.9063C120.917 48.8189 120.968 48.7315 121.021 48.6415C121.128 48.5924 121.234 48.5432 121.343 48.4926C122.796 47.7058 123.505 46.5858 124.299 45.332C124.406 45.1789 124.514 45.0258 124.622 44.8728C124.934 44.4099 125.149 43.93 125.333 43.4208C125.366 43.3298 125.399 43.2388 125.433 43.145C126.319 40.5754 126.538 36.5548 125.079 34.0798C123.092 30.7087 124.019 25.3542 125.235 21.9009C125.427 21.4533 125.635 21.0136 125.859 20.5771C125.962 20.5771 126.065 20.5771 126.171 20.5771C126.188 20.4842 126.204 20.3914 126.22 20.2958C126.342 19.8633 126.549 19.5118 126.796 19.1209C126.899 19.1209 127.002 19.1209 127.108 19.1209C127.137 18.9939 127.137 18.9939 127.166 18.8644C127.199 18.7743 127.231 18.6842 127.264 18.5914C127.576 18.459 127.576 18.459 127.888 18.459Z" fill="white" fill-opacity="0.58"/>
<path d="M138.344 72.7339C138.507 73.0074 138.507 73.0074 138.617 73.3379C138.654 73.4473 138.692 73.5566 138.731 73.6693C138.758 73.7538 138.784 73.8383 138.812 73.9253C138.931 73.8485 138.931 73.8485 139.053 73.7702C140.659 72.7947 142.3 72.4096 144.274 72.6015C145.338 72.8154 146.028 73.1407 146.615 73.9253C147.166 74.8949 147.155 75.8004 147.158 76.8646C147.16 77.0458 147.162 77.227 147.165 77.4083C147.172 77.8825 147.175 78.3567 147.179 78.8309C147.184 79.5917 147.194 80.3524 147.203 81.1131C147.206 81.3779 147.208 81.6428 147.21 81.9077C147.211 82.0685 147.213 82.2294 147.215 82.3951C147.216 82.5366 147.217 82.678 147.218 82.8237C147.244 83.2842 147.244 83.2842 147.395 83.7214C147.627 83.7869 147.627 83.7869 147.864 83.8538C148.095 83.9193 148.095 83.9193 148.332 83.9862C148.383 84.1609 148.435 84.3356 148.488 84.5157C146.222 84.5157 143.956 84.5157 141.621 84.5157C141.621 84.3409 141.621 84.1662 141.621 83.9862C141.772 83.9261 141.924 83.866 142.079 83.8041C142.568 83.6343 142.568 83.6343 142.713 83.3243C142.73 83.0628 142.737 82.8009 142.739 82.5391C142.74 82.3743 142.742 82.2095 142.743 82.0397C142.744 81.8589 142.745 81.6781 142.745 81.4973C142.746 81.3123 142.747 81.1273 142.748 80.9423C142.749 80.554 142.75 80.1657 142.751 79.7775C142.752 79.2807 142.756 78.7839 142.76 78.2872C142.763 77.9048 142.764 77.5224 142.764 77.14C142.764 76.9569 142.766 76.7738 142.768 76.5908C142.77 76.3341 142.77 76.0775 142.769 75.8209C142.77 75.675 142.77 75.5291 142.771 75.3788C142.705 74.9287 142.57 74.6807 142.245 74.3225C141.432 74.0925 140.786 74.1171 140.021 74.4383C139.654 74.6066 139.316 74.7872 138.968 74.9844C138.896 75.3504 138.896 75.3504 138.907 75.7858C138.906 75.9542 138.904 76.1225 138.903 76.2959C138.904 76.4804 138.905 76.665 138.906 76.8496C138.905 77.0382 138.905 77.2268 138.904 77.4154C138.904 77.811 138.905 78.2066 138.907 78.6023C138.909 79.1095 138.908 79.6166 138.905 80.1238C138.903 80.5134 138.904 80.9031 138.905 81.2927C138.905 81.4797 138.905 81.6667 138.904 81.8537C138.903 82.1151 138.905 82.3766 138.907 82.638C138.908 82.8613 138.908 82.8613 138.908 83.089C138.933 83.4562 138.933 83.4562 139.176 83.6981C139.453 83.8798 139.453 83.8798 139.904 83.9862C139.904 84.1609 139.904 84.3356 139.904 84.5157C137.69 84.5157 135.475 84.5157 133.193 84.5157C133.193 84.3409 133.193 84.1662 133.193 83.9862C133.345 83.9234 133.496 83.8606 133.652 83.7959C134.099 83.6285 134.099 83.6285 134.286 83.4566C134.301 83.1926 134.304 82.9282 134.304 82.6639C134.304 82.4943 134.304 82.3247 134.304 82.1499C134.303 81.9634 134.302 81.7769 134.301 81.5904C134.301 81.4006 134.301 81.2109 134.3 81.0211C134.3 80.5208 134.298 80.0205 134.297 79.5201C134.295 79.0099 134.294 78.4997 134.293 77.9895C134.292 76.9878 134.289 75.9861 134.286 74.9844C133.745 74.7222 133.745 74.7222 133.193 74.4548C133.193 74.2801 133.193 74.1054 133.193 73.9253C133.826 73.7326 134.459 73.5417 135.093 73.3525C135.308 73.2879 135.523 73.2227 135.739 73.1571C136.048 73.0628 136.358 72.9703 136.668 72.8782C136.855 72.822 137.041 72.7659 137.233 72.708C137.697 72.6064 137.913 72.5652 138.344 72.7339Z" fill="white" fill-opacity="0.58"/>
<path d="M88.0914 72.7347C88.3986 72.9952 88.3509 73.4427 88.4035 73.7937C88.8419 73.7937 89.0518 73.6234 89.418 73.4214C90.9384 72.6409 92.5141 72.3693 94.2798 72.6737C95.088 72.8813 95.7705 73.1453 96.2306 73.7751C96.7033 74.5342 96.8499 75.1983 96.8533 76.0579C96.8549 76.2978 96.8549 76.2978 96.8566 76.5425C96.8572 76.714 96.8579 76.8856 96.8586 77.0624C96.8602 77.2412 96.862 77.42 96.8639 77.5989C96.8721 78.3564 96.8796 79.1138 96.882 79.8714C96.8836 80.3357 96.8881 80.7999 96.8947 81.2642C96.8975 81.5264 96.8971 81.7886 96.8967 82.0508C96.8993 82.2103 96.9018 82.3698 96.9045 82.5342C96.9054 82.6744 96.9063 82.8147 96.9073 82.9593C97.0073 83.4169 97.1845 83.5706 97.6115 83.8546C97.8432 83.9201 97.8432 83.9201 98.0797 83.9869C98.0797 84.1617 98.0797 84.3364 98.0797 84.5165C95.8136 84.5165 93.5475 84.5165 91.2127 84.5165C91.2127 84.3417 91.2127 84.167 91.2127 83.9869C91.7535 83.8559 91.7535 83.8559 92.3052 83.7222C92.4641 83.2756 92.482 82.8671 92.4839 82.4018C92.4849 82.2423 92.4859 82.0828 92.487 81.9185C92.4871 81.7466 92.4873 81.5748 92.4875 81.3978C92.488 81.2191 92.4885 81.0404 92.4891 80.8617C92.49 80.4874 92.4903 80.1132 92.4902 79.739C92.4902 79.2603 92.4923 78.7817 92.495 78.303C92.4967 77.9341 92.497 77.5651 92.497 77.1961C92.4972 76.9341 92.4989 76.6721 92.5006 76.4101C92.4999 76.1702 92.4999 76.1702 92.4992 75.9255C92.4994 75.7851 92.4996 75.6448 92.4999 75.5001C92.4595 75.1 92.3587 74.8143 92.1491 74.4556C91.6192 74.106 91.0804 74.1288 90.4324 74.1909C89.748 74.425 89.0849 74.6719 88.5596 75.1175C88.5117 75.4609 88.5117 75.4609 88.5192 75.8662C88.5182 76.0231 88.5173 76.1799 88.5162 76.3415C88.5169 76.5118 88.5175 76.6821 88.5182 76.8576C88.5179 77.0319 88.5176 77.2063 88.5173 77.3859C88.5168 77.7555 88.5175 78.1251 88.5189 78.4946C88.5207 78.9674 88.5197 79.4401 88.5178 79.9128C88.5164 80.3644 88.5174 80.8159 88.5182 81.2675C88.5175 81.437 88.5169 81.6065 88.5162 81.7811C88.5172 81.9392 88.5182 82.0973 88.5192 82.2602C88.5195 82.3991 88.5197 82.5379 88.52 82.6809C88.5618 83.0814 88.6531 83.366 88.8717 83.7222C89.2656 83.9023 89.2656 83.9023 89.6521 83.9869C89.6521 84.1617 89.6521 84.3364 89.6521 84.5165C87.386 84.5165 85.1199 84.5165 82.7852 84.5165C82.8367 84.3417 82.8882 84.167 82.9412 83.9869C83.2481 83.846 83.5604 83.7131 83.8776 83.5898C84.0888 83.2315 84.0559 82.949 84.0588 82.5479C84.0603 82.3848 84.0618 82.2218 84.0634 82.0539C84.0641 81.8752 84.0648 81.6965 84.0654 81.5178C84.0663 81.3351 84.0672 81.1524 84.0681 80.9697C84.0697 80.5865 84.0706 80.2034 84.0712 79.8203C84.072 79.3291 84.0758 78.838 84.0802 78.3468C84.0831 77.9694 84.0839 77.5921 84.0842 77.2147C84.0847 77.0336 84.0859 76.8525 84.088 76.6714C84.0906 76.4182 84.09 76.165 84.0893 75.9118C84.0899 75.7677 84.0905 75.6236 84.091 75.4751C84.0684 75.1163 84.0684 75.1163 83.8223 74.8791C83.4972 74.6781 83.1634 74.5683 82.7852 74.4556C82.7852 74.2809 82.7852 74.1061 82.7852 73.9261C83.4398 73.7334 84.0952 73.5425 84.7512 73.3532C84.9743 73.2886 85.1971 73.2235 85.4197 73.1579C85.74 73.0636 86.0609 72.9711 86.382 72.879C86.5749 72.8228 86.7678 72.7667 86.9665 72.7088C87.4389 72.6083 87.6511 72.5756 88.0914 72.7347Z" fill="white" fill-opacity="0.58"/>
<path d="M108.724 73.3059C109.815 74.0223 110.198 75.0581 110.407 76.1759C110.451 76.6831 110.458 77.1887 110.461 77.6972C110.463 77.8386 110.465 77.9799 110.468 78.1255C110.477 78.7259 110.484 79.3262 110.49 79.9266C110.495 80.3666 110.502 80.8066 110.509 81.2466C110.511 81.4508 110.511 81.4508 110.512 81.659C110.514 81.785 110.516 81.911 110.518 82.0408C110.52 82.207 110.52 82.207 110.522 82.3765C110.543 82.7015 110.543 82.7015 110.875 83.0596C111.198 83.1137 111.503 83.1176 111.831 83.1253C112.124 83.192 112.124 83.192 112.319 83.4614C112.377 83.5901 112.377 83.5901 112.436 83.7215C111.427 84.5723 110.725 84.86 109.324 84.9543C108.502 84.931 107.656 84.79 107.024 84.3219C106.505 83.814 106.505 83.814 106.505 83.4567C106.428 83.5079 106.35 83.5591 106.271 83.6119C104.636 84.6746 103.45 85.0555 101.355 84.9129C100.364 84.6817 99.4925 84.2443 98.8971 83.5229C98.3827 82.6503 98.3639 81.5553 98.7118 80.6354C99.8723 79.27 101.277 78.7547 103.15 78.327C103.272 78.2991 103.394 78.2712 103.52 78.2424C104.407 78.0517 105.282 77.955 106.193 77.8968C106.18 77.4141 106.163 76.9315 106.144 76.4489C106.139 76.246 106.139 76.246 106.134 76.0391C106.098 75.1815 105.953 74.4562 105.569 73.6607C105.319 73.6277 105.069 73.5979 104.818 73.5696C104.678 73.5528 104.539 73.5359 104.395 73.5185C104.003 73.4968 104.003 73.4968 103.734 73.7036C103.283 74.2195 103.205 74.8289 103.091 75.4478C102.964 76.0655 102.797 76.4928 102.292 76.9701C101.682 77.2776 101.118 77.2878 100.419 77.2349C99.8387 77.0113 99.5079 76.763 99.1703 76.3083C99.018 75.5412 99.1014 74.8308 99.6384 74.1902C101.667 72.228 106.148 72.0033 108.724 73.3059ZM103.17 79.7615C102.559 80.3709 102.537 81.0113 102.553 81.7803C102.624 82.274 102.84 82.5606 103.228 82.9272C103.722 83.2068 103.803 83.2291 104.359 83.1837C104.473 83.1767 104.586 83.1697 104.703 83.1625C105.327 83.0011 105.802 82.8595 106.193 82.3977C106.331 81.7635 106.296 81.1452 106.262 80.503C106.257 80.3292 106.252 80.1554 106.247 79.9764C106.234 79.5476 106.216 79.1195 106.193 78.6911C104.946 78.6911 104.093 79.069 103.17 79.7615Z" fill="white" fill-opacity="0.58"/>
<path d="M155.354 68.7627C159.886 68.7627 164.418 68.7627 169.087 68.7627C169.263 70.9966 169.263 70.9966 169.253 71.9315C169.252 72.0236 169.252 72.1157 169.251 72.2105C169.249 72.4292 169.246 72.6478 169.243 72.8665C168.88 72.8364 168.88 72.8364 168.463 72.7341C168.224 72.4823 168.224 72.4823 168.028 72.156C167.919 71.9801 167.919 71.9801 167.807 71.8007C167.734 71.6773 167.661 71.5539 167.585 71.4268C167.438 71.1842 167.289 70.9418 167.14 70.6998C167.076 70.5918 167.011 70.4838 166.945 70.3725C166.69 70.0046 166.48 69.7536 166 69.601C165.545 69.5431 165.097 69.5275 164.637 69.5151C164.461 69.51 164.285 69.505 164.104 69.4998C163.882 69.4941 163.659 69.4884 163.43 69.4825C162.722 69.4634 162.014 69.4443 161.284 69.4246C161.284 71.6089 161.284 73.7931 161.284 76.0436C162.469 75.9999 163.653 75.9562 164.874 75.9112C164.977 75.7364 165.08 75.5617 165.186 75.3817C165.394 75.0287 165.602 74.6756 165.81 74.3226C166.067 74.3226 166.325 74.3226 166.59 74.3226C166.59 75.7642 166.59 77.2059 166.59 78.6912C165.81 78.5588 165.81 78.5588 165.506 78.232C165.416 78.0995 165.327 77.9671 165.234 77.8307C164.92 77.312 164.92 77.312 164.405 76.9702C164.168 76.9502 163.93 76.9373 163.692 76.9283C163.482 76.92 163.482 76.92 163.268 76.9115C163.122 76.9063 162.976 76.9011 162.825 76.8958C162.604 76.8872 162.604 76.8872 162.378 76.8784C162.014 76.8644 161.649 76.8509 161.284 76.8378C161.302 77.7143 161.322 78.5906 161.342 79.467C161.349 79.7652 161.355 80.0633 161.362 80.3615C161.371 80.79 161.381 81.2185 161.391 81.6469C161.393 81.7803 161.396 81.9137 161.399 82.0511C161.403 82.2379 161.403 82.2379 161.408 82.4284C161.412 82.5925 161.412 82.5925 161.415 82.7598C161.44 83.0562 161.478 83.3092 161.596 83.5892C161.957 83.7405 161.957 83.7405 162.386 83.8209C162.601 83.869 162.601 83.869 162.821 83.9181C162.932 83.9406 163.043 83.9631 163.157 83.9863C163.157 84.1611 163.157 84.3358 163.157 84.5159C160.582 84.5159 158.007 84.5159 155.354 84.5159C155.354 84.3411 155.354 84.1664 155.354 83.9863C155.894 83.8553 155.894 83.8553 156.446 83.7216C156.57 83.3503 156.622 83.0198 156.624 82.6344C156.625 82.5242 156.626 82.4139 156.627 82.3004C156.627 82.1206 156.627 82.1206 156.627 81.9373C156.628 81.7467 156.628 81.7467 156.63 81.5523C156.632 81.1322 156.633 80.7122 156.634 80.2921C156.635 80.0003 156.636 79.7085 156.636 79.4167C156.638 78.8051 156.639 78.1935 156.64 77.5819C156.64 76.7975 156.644 76.0132 156.649 75.2288C156.651 74.6262 156.652 74.0237 156.653 73.4211C156.653 73.1319 156.654 72.8426 156.656 72.5534C156.659 72.1493 156.659 71.7453 156.658 71.3413C156.66 71.1615 156.66 71.1615 156.662 70.9782C156.659 70.3398 156.659 70.3398 156.391 69.7537C156.072 69.5093 155.76 69.404 155.354 69.2922C155.354 69.1175 155.354 68.9427 155.354 68.7627Z" fill="white" fill-opacity="0.58"/>
<path d="M130.034 73.5733C131.439 74.4529 132.347 75.6512 132.726 77.1025C133.056 78.9721 132.927 80.9982 131.676 82.6123C130.496 83.952 129.04 84.6456 127.107 84.9129C124.946 85.0173 122.949 84.8855 121.177 83.7215C119.666 82.524 118.904 81.0918 118.791 79.3359C118.727 77.5949 119.055 76.1741 120.24 74.7197C120.334 74.5996 120.427 74.4794 120.523 74.3557C122.964 72.2264 127.15 71.978 130.034 73.5733ZM124.142 73.9254C122.611 76.0124 123.11 79.9681 123.566 82.2865C123.763 82.973 124.01 83.4984 124.639 83.9863C125.472 84.2374 126.184 84.2238 127 83.9366C128.093 83.0311 128.211 81.7072 128.229 80.4705C128.23 80.3649 128.231 80.2592 128.231 80.1504C128.233 79.9822 128.233 79.9822 128.234 79.8106C128.236 79.574 128.237 79.3375 128.237 79.101C128.239 78.7445 128.244 78.3882 128.249 78.0318C128.326 75.8108 128.326 75.8108 127.332 73.8261C126.718 73.346 126.286 73.3498 125.475 73.3597C124.88 73.414 124.573 73.5777 124.142 73.9254Z" fill="white" fill-opacity="0.58"/>
<path d="M198.967 73.4869C200.034 74.2488 200.709 75.275 200.927 76.4406C201.042 78.2324 201.042 78.2324 200.771 78.691C198.042 78.691 195.312 78.691 192.5 78.691C192.873 80.7621 192.873 80.7621 194.099 82.4556C195.355 83.0606 196.552 83.2141 197.952 82.9189C198.713 82.7141 199.242 82.3715 199.834 81.9245C200.147 81.7358 200.147 81.7358 200.771 81.7358C200.666 82.7125 200.02 83.2009 199.211 83.8538C197.706 84.9116 195.794 85.0414 193.915 84.9409C192.068 84.7807 190.478 84.0409 189.311 82.8279C188.432 81.757 188.114 80.6383 187.974 79.3529C187.963 79.2511 187.951 79.1492 187.94 79.0442C187.858 77.4887 188.399 75.8476 189.554 74.6369C191.925 72.4715 195.957 71.7513 198.967 73.4869ZM193.436 73.9254C192.537 75.09 192.5 76.5522 192.5 77.8968C193.993 77.8968 195.487 77.8968 197.026 77.8968C197.04 77.2783 197.04 77.2783 197.055 76.6474C197.059 76.52 197.063 76.3927 197.068 76.2614C197.077 75.4095 196.983 74.542 196.364 73.8377C195.948 73.4963 195.562 73.3507 194.997 73.3214C194.329 73.3646 193.932 73.5331 193.436 73.9254Z" fill="white" fill-opacity="0.58"/>
<path d="M65.295 73.5453C66.3499 74.3118 67.0921 75.4042 67.2043 76.5915C67.2136 76.8894 67.2126 77.1857 67.2068 77.4836C67.2067 77.6367 67.2067 77.6367 67.2065 77.7929C67.1995 78.5406 67.1995 78.5406 67.0215 78.6916C66.7628 78.704 66.5036 78.7071 66.2445 78.7066C66.0789 78.7066 65.9133 78.7066 65.7427 78.7066C65.5626 78.7059 65.3825 78.7052 65.1969 78.7045C65.0135 78.7043 64.8301 78.7041 64.6412 78.7039C64.0528 78.7032 63.4644 78.7015 62.876 78.6999C62.4782 78.6992 62.0804 78.6986 61.6826 78.6981C60.7051 78.6966 59.7275 78.6944 58.75 78.6916C58.8191 79.029 58.8896 79.366 58.9609 79.703C58.9801 79.7977 58.9994 79.8923 59.0192 79.9898C59.2214 80.9348 59.5719 81.7414 60.3497 82.4561C61.6105 83.0638 62.8081 83.2167 64.2123 82.9112C64.9113 82.7217 65.403 82.4319 65.9662 82.0404C66.3058 81.8284 66.6022 81.7585 67.0215 81.7363C67.079 82.1704 67.0548 82.3561 66.7636 82.7245C65.2324 84.1299 63.8206 84.889 61.5318 84.9667C59.5321 84.9936 57.7758 84.608 56.2529 83.4572C54.4511 81.876 54.3062 80.1144 54.3375 78.025C54.4035 76.2389 55.2735 75.1092 56.7504 73.8928C59.0463 72.2193 62.8213 72.0636 65.295 73.5453ZM59.6864 73.9259C58.8626 75.1028 58.75 76.5602 58.75 77.8973C60.2435 77.8973 61.7371 77.8973 63.2759 77.8973C63.2856 77.4605 63.2952 77.0236 63.3052 76.5735C63.3094 76.438 63.3137 76.3025 63.3181 76.1629C63.3279 75.2387 63.2149 74.4665 62.4858 73.7356C61.9816 73.3907 61.5998 73.3488 60.9496 73.3618C60.3741 73.4228 60.1037 73.588 59.6864 73.9259Z" fill="white" fill-opacity="0.58"/>
<path d="M73.1106 67.8355C73.2666 67.9679 73.2666 67.9679 73.285 68.2205C73.2842 68.3877 73.2842 68.3877 73.2833 68.5582C73.283 68.7495 73.283 68.7495 73.2826 68.9446C73.281 69.1562 73.281 69.1562 73.2794 69.372C73.2789 69.5197 73.2785 69.6673 73.278 69.8195C73.2768 70.1413 73.2754 70.4632 73.2736 70.7851C73.2709 71.2941 73.2693 71.803 73.268 72.312C73.2642 73.7595 73.2586 75.2071 73.2517 76.6546C73.2474 77.5389 73.2448 78.4231 73.2431 79.3073C73.2421 79.645 73.2406 79.9826 73.2384 80.3203C73.2354 80.7922 73.2343 81.2641 73.2337 81.7361C73.2323 81.8763 73.231 82.0165 73.2295 82.161C73.2297 82.2897 73.2299 82.4183 73.2302 82.5508C73.2297 82.6624 73.2292 82.774 73.2287 82.889C73.2713 83.229 73.3586 83.4353 73.5788 83.7211C74.0522 83.955 74.0522 83.955 74.5152 84.1182C74.5152 84.2493 74.5152 84.3803 74.5152 84.5154C72.1976 84.5154 69.88 84.5154 67.4922 84.5154C67.4922 84.3406 67.4922 84.1659 67.4922 83.9858C67.6403 83.9312 67.7883 83.8766 67.9409 83.8204C68.4563 83.5755 68.54 83.5058 68.7407 83.0592C68.7865 82.7903 68.7865 82.7903 68.7793 82.5066C68.7803 82.3429 68.7803 82.3429 68.7813 82.1759C68.7804 82.0573 68.7795 81.9387 68.7786 81.8166C68.7789 81.6908 68.7792 81.5651 68.7795 81.4355C68.7801 81.0197 68.7784 80.604 68.7767 80.1882C68.7765 79.8994 68.7764 79.6105 68.7765 79.3217C68.7762 78.7163 68.7749 78.111 68.7728 77.5056C68.7702 76.7292 68.7696 75.9529 68.7697 75.1765C68.7697 74.5801 68.7688 73.9837 68.7677 73.3872C68.7672 73.1009 68.7669 72.8147 68.7668 72.5284C68.7664 72.1284 68.7651 71.7285 68.7634 71.3286C68.7635 71.21 68.7635 71.0915 68.7636 70.9693C68.7629 70.8602 68.7623 70.751 68.7616 70.6386C68.7612 70.4969 68.7612 70.4969 68.7608 70.3523C68.7398 70.0733 68.6741 69.825 68.5847 69.5565C68.2241 69.4691 67.8636 69.3817 67.4922 69.2917C67.4922 69.117 67.4922 68.9422 67.4922 68.7622C68.1163 68.6288 68.7409 68.4969 69.3659 68.3663C69.578 68.3217 69.7901 68.2768 70.002 68.2315C70.3082 68.166 70.6147 68.102 70.9214 68.0382C71.1972 67.98 71.1972 67.98 71.4786 67.9206C72.0372 67.8325 72.5437 67.8112 73.1106 67.8355Z" fill="white" fill-opacity="0.58"/>
<path d="M182.043 72.7333C182.314 72.9632 182.301 73.2901 182.364 73.6021C182.392 73.736 182.42 73.87 182.448 74.008C182.479 74.1634 182.479 74.1634 182.511 74.3219C182.583 74.2531 182.655 74.1844 182.729 74.1135C183.597 73.3265 184.481 72.7004 185.774 72.5472C186.566 72.5255 187.198 72.5368 187.817 72.9981C187.936 73.0827 188.055 73.1674 188.178 73.2546C188.595 73.8972 188.556 74.5319 188.441 75.2486C188.253 75.6758 187.994 75.9526 187.525 76.1918C186.868 76.4208 186.144 76.4166 185.476 76.2119C184.859 75.9333 184.487 75.5819 184.071 75.1162C183.917 75.0725 183.762 75.0288 183.603 74.9838C183.481 75.1039 183.359 75.2241 183.233 75.3478C183.164 75.4154 183.095 75.483 183.024 75.5526C182.612 76.0142 182.472 76.3736 182.47 76.9526C182.469 77.0803 182.468 77.208 182.467 77.3396C182.468 77.4767 182.469 77.6137 182.469 77.755C182.469 77.8966 182.469 78.0383 182.468 78.1842C182.468 78.4837 182.469 78.7831 182.47 79.0826C182.472 79.5404 182.47 79.9982 182.468 80.4561C182.468 80.7471 182.469 81.0382 182.469 81.3292C182.469 81.466 182.468 81.6028 182.467 81.7438C182.468 81.8719 182.469 82 182.47 82.132C182.471 82.2442 182.471 82.3563 182.471 82.4719C182.535 82.9901 182.7 83.352 183.135 83.7208C183.497 83.8161 183.861 83.905 184.228 83.9856C184.228 84.1603 184.228 84.3351 184.228 84.5151C181.755 84.5151 179.283 84.5151 176.736 84.5151C176.788 84.3404 176.839 84.1656 176.892 83.9856C177.199 83.8446 177.512 83.7118 177.829 83.5885C178.04 83.2302 178.007 82.9477 178.01 82.5465C178.012 82.3835 178.013 82.2205 178.015 82.0525C178.015 81.8738 178.016 81.6951 178.017 81.5164C178.017 81.3337 178.018 81.151 178.019 80.9684C178.021 80.5852 178.022 80.2021 178.022 79.8189C178.023 79.3277 178.027 78.8366 178.031 78.3455C178.034 77.9681 178.035 77.5907 178.035 77.2133C178.036 77.0322 178.037 76.8512 178.039 76.6701C178.042 76.4169 178.041 76.1637 178.04 75.9105C178.041 75.7664 178.042 75.6222 178.042 75.4737C178.02 75.115 178.02 75.115 177.773 74.8778C177.448 74.6768 177.115 74.567 176.736 74.4543C176.736 74.2795 176.736 74.1048 176.736 73.9248C177.391 73.732 178.046 73.5411 178.702 73.3519C178.925 73.2873 179.148 73.2222 179.371 73.1566C179.691 73.0623 180.012 72.9698 180.333 72.8776C180.526 72.8215 180.719 72.7653 180.918 72.7075C181.39 72.607 181.602 72.5743 182.043 72.7333Z" fill="white" fill-opacity="0.58"/>
<path d="M174.863 72.7341C174.863 72.8675 174.864 73.001 174.865 73.1385C174.874 74.3949 174.886 75.6513 174.899 76.9077C174.906 77.5537 174.912 78.1996 174.917 78.8456C174.921 79.4688 174.927 80.0919 174.935 80.7151C174.937 80.953 174.939 81.191 174.94 81.429C174.942 81.7619 174.946 82.0946 174.951 82.4274C174.951 82.5263 174.951 82.6251 174.95 82.7269C174.96 83.2511 174.96 83.2511 175.228 83.7115C175.507 83.8781 175.507 83.8781 175.955 83.9863C175.955 84.1611 175.955 84.3358 175.955 84.5159C173.74 84.5159 171.526 84.5159 169.244 84.5159C169.244 84.3411 169.244 84.1664 169.244 83.9863C169.395 83.9235 169.547 83.8608 169.703 83.7961C170.15 83.6287 170.15 83.6287 170.337 83.4568C170.351 83.1928 170.355 82.9284 170.354 82.6641C170.354 82.4945 170.354 82.3248 170.354 82.1501C170.353 81.9636 170.353 81.7771 170.352 81.5906C170.352 81.4008 170.351 81.2111 170.351 81.0213C170.351 80.521 170.349 80.0206 170.347 79.5203C170.346 79.0101 170.345 78.4999 170.344 77.9897C170.343 76.988 170.34 75.9863 170.337 74.9845C169.976 74.8535 169.616 74.7224 169.244 74.5874C169.244 74.369 169.244 74.1505 169.244 73.9255C169.918 73.7325 170.593 73.5416 171.268 73.3526C171.498 73.2881 171.727 73.223 171.956 73.1573C172.286 73.0628 172.617 72.9704 172.948 72.8784C173.049 72.8487 173.151 72.8191 173.256 72.7885C173.864 72.6221 174.248 72.6087 174.863 72.7341Z" fill="white" fill-opacity="0.58"/>
<path d="M80.9094 72.7335C80.9609 76.3594 81.0124 79.9852 81.0655 83.721C81.529 83.852 81.529 83.852 82.0019 83.9857C82.0019 84.1605 82.0019 84.3352 82.0019 84.5153C79.7873 84.5153 77.5727 84.5153 75.291 84.5153C75.291 84.3405 75.291 84.1658 75.291 83.9857C75.8318 83.8547 75.8318 83.8547 76.3835 83.721C76.4984 83.1966 76.5597 82.6996 76.5622 82.1665C76.5632 82.0203 76.5642 81.8741 76.5652 81.7234C76.5654 81.5674 76.5656 81.4115 76.5658 81.2508C76.5663 81.0889 76.5668 80.9271 76.5673 80.7603C76.5681 80.4188 76.5685 80.0773 76.5685 79.7359C76.5688 79.2132 76.5716 78.6906 76.5746 78.168C76.5751 77.836 76.5754 77.5039 76.5755 77.1718C76.5772 76.9374 76.5772 76.9374 76.5789 76.6983C76.5784 76.5525 76.578 76.4067 76.5775 76.2565C76.5777 76.1287 76.5779 76.0008 76.5781 75.8691C76.5357 75.4782 76.4438 75.1985 76.2274 74.8516C75.7546 74.6699 75.7546 74.6699 75.291 74.5868C75.3425 74.3684 75.394 74.1499 75.4471 73.9249C76.124 73.7322 76.8016 73.5413 77.4798 73.352C77.7104 73.2874 77.9408 73.2223 78.171 73.1567C78.5021 73.0624 78.8339 72.9699 79.1659 72.8778C79.2685 72.8481 79.3711 72.8185 79.4768 72.7879C80.0619 72.6277 80.2912 72.6024 80.9094 72.7335Z" fill="white" fill-opacity="0.58"/>
<path d="M174.173 68.059C174.821 68.581 175.048 68.9302 175.08 69.6889C175.058 70.2373 174.984 70.584 174.553 71.0127C173.85 71.5492 173.342 71.7164 172.388 71.703C171.665 71.6411 171.134 71.403 170.593 71.0044C170.184 70.3779 170.091 69.7248 170.241 69.0187C170.455 68.4966 170.813 68.1661 171.396 67.923C172.34 67.6856 173.286 67.7027 174.173 68.059Z" fill="white" fill-opacity="0.58"/>
<path d="M80.2204 68.0593C80.8691 68.5814 81.0957 68.9306 81.1275 69.6892C81.1054 70.2376 81.0318 70.5844 80.6008 71.013C79.8979 71.5496 79.3898 71.7168 78.4354 71.7034C77.7129 71.6414 77.1817 71.4033 76.6406 71.0048C76.2765 70.4464 76.1997 69.9266 76.2309 69.2921C76.4646 68.7288 76.7861 68.3528 77.3234 67.9683C78.2703 67.7006 79.3184 67.6969 80.2204 68.0593Z" fill="white" fill-opacity="0.58"/>
<path d="M128.201 17.6641C128.084 18.0529 128.084 18.0529 127.889 18.4583C127.557 18.5742 127.557 18.5742 127.264 18.5907C127.213 18.7655 127.161 18.9402 127.108 19.1202C127.005 19.1202 126.902 19.1202 126.796 19.1202C126.772 19.2226 126.772 19.2226 126.747 19.3271C126.602 19.7636 126.388 20.1616 126.172 20.5764C126.12 20.5764 126.069 20.5764 126.016 20.5764C125.964 20.3143 125.913 20.0522 125.86 19.7821C125.308 20.042 124.885 20.317 124.455 20.7088C124.685 19.9774 125.298 19.5473 125.918 19.0375C126.023 18.9491 126.128 18.8607 126.236 18.7696C127.561 17.6641 127.561 17.6641 128.201 17.6641Z" fill="white" fill-opacity="0.58"/>
<path d="M120.241 30.9023C120.344 30.9023 120.447 30.9023 120.553 30.9023C120.912 32.7071 120.912 32.7071 120.865 33.5499C120.814 33.5499 120.762 33.5499 120.709 33.5499C120.555 33.0694 120.4 32.5889 120.241 32.0938C119.829 32.5306 119.417 32.9675 118.993 33.4176C118.212 33.2852 118.212 33.2852 117.744 33.0204C117.796 32.8457 117.847 32.6709 117.9 32.4909C118.055 32.6875 118.055 32.6875 118.212 32.888C118.587 32.8708 118.587 32.8708 118.993 32.7557C119.278 32.4729 119.278 32.4729 119.49 32.1186C119.566 32.0031 119.643 31.8875 119.721 31.7685C119.899 31.4813 120.073 31.1933 120.241 30.9023Z" fill="white" fill-opacity="0.58"/>
<path d="M126.95 21.3711C127.001 21.3711 127.053 21.3711 127.106 21.3711C127.102 21.4742 127.099 21.5772 127.095 21.6834C127.074 22.7875 127.162 23.858 127.307 24.9545C127.382 25.5289 127.436 26.087 127.418 26.6663C127.367 26.6663 127.315 26.6663 127.262 26.6663C126.907 25.9192 126.842 25.1773 126.765 24.3827C126.75 24.2522 126.735 24.1216 126.72 23.9871C126.635 23.1497 126.613 22.3339 126.794 21.5035C126.845 21.4598 126.897 21.4161 126.95 21.3711Z" fill="white" fill-opacity="0.58"/>
<path d="M118.534 49.9561C118.761 49.9602 118.761 49.9602 118.992 49.9643C118.992 50.0517 118.992 50.1391 118.992 50.2291C117.911 50.4257 117.911 50.4257 116.807 50.6262C117.374 50.6699 117.941 50.7136 118.524 50.7586C118.576 50.8897 118.627 51.0207 118.68 51.1557C117.679 51.2124 116.825 51.0045 115.871 50.7586C116.183 50.3615 116.183 50.3615 116.584 50.2694C116.738 50.2507 116.892 50.2319 117.051 50.2125C117.598 50.1438 118.013 49.9651 118.534 49.9561Z" fill="white" fill-opacity="0.58"/>
<path d="M116.494 27.9902C116.494 28.3874 116.494 28.3874 116.269 28.5859C116.189 28.6515 116.109 28.717 116.026 28.7845C115.974 28.9156 115.923 29.0466 115.87 29.1816C115.767 29.1816 115.664 29.1816 115.557 29.1816C115.557 29.269 115.557 29.3564 115.557 29.4464C115.22 29.7483 114.877 30.036 114.504 30.3069C114.273 30.5029 114.273 30.5029 114.28 30.8198C114.074 31.3821 113.493 31.5621 112.904 31.8292C113.676 30.4271 115.209 29.08 116.494 27.9902Z" fill="white" fill-opacity="0.58"/>
<path d="M101.98 46.9209C102.031 46.9209 102.083 46.9209 102.136 46.9209C102.169 47.7763 102.13 48.4816 101.824 49.3037C101.707 49.8316 101.608 50.3615 101.512 50.8923C101.46 50.8923 101.409 50.8923 101.355 50.8923C101.584 47.2569 101.584 47.2569 101.98 46.9209Z" fill="white" fill-opacity="0.58"/>
<path d="M128.198 17.6641C128.095 17.9262 127.992 18.1883 127.886 18.4583C127.577 18.502 127.268 18.5457 126.95 18.5907C126.898 18.7218 126.847 18.8528 126.794 18.9879C126.639 19.0315 126.485 19.0752 126.325 19.1202C126.171 19.3168 126.171 19.3168 126.013 19.5174C125.91 19.5174 125.807 19.5174 125.701 19.5174C126.105 18.745 127.148 17.6641 128.198 17.6641Z" fill="white" fill-opacity="0.58"/>
<path d="M125.079 49.5684C125.182 49.6557 125.285 49.7431 125.391 49.8331C125.04 49.9855 124.689 50.137 124.338 50.2882C124.189 50.3528 124.189 50.3528 124.038 50.4187C123.56 50.6235 123.112 50.8116 122.582 50.8922C122.739 50.5379 122.823 50.392 123.232 50.2241C123.359 50.1933 123.485 50.1626 123.616 50.131C123.807 50.0829 123.807 50.0829 124.002 50.0338C124.1 50.0112 124.198 49.9887 124.299 49.9655C124.299 49.8781 124.299 49.7908 124.299 49.7007C124.669 49.618 124.669 49.618 125.079 49.5684Z" fill="white" fill-opacity="0.58"/>
<path d="M110.096 47.0518C110.378 47.1345 110.378 47.1345 110.72 47.3165C110.787 47.4421 110.855 47.5677 110.925 47.6971C111.276 48.2497 111.625 48.3674 112.28 48.6403C112.229 48.7714 112.177 48.9024 112.124 49.0375C111.603 48.8451 111.256 48.6011 110.856 48.2597C110.75 48.17 110.643 48.0802 110.533 47.9877C110.267 47.7286 110.1 47.4978 109.939 47.1841C109.991 47.1405 110.042 47.0968 110.096 47.0518Z" fill="white" fill-opacity="0.58"/>
<path d="M104.476 37.6533C104.579 37.6533 104.682 37.6533 104.788 37.6533C104.58 38.6241 104.372 39.5949 104.164 40.5657C104.009 40.6094 103.855 40.653 103.695 40.698C103.727 40.5655 103.727 40.5655 103.759 40.4302C103.828 40.1373 103.896 39.8442 103.964 39.5511C104.004 39.3763 104.045 39.2015 104.085 39.0268C104.116 38.8942 104.116 38.8942 104.147 38.7589C104.235 38.3804 104.332 38.0198 104.476 37.6533Z" fill="white" fill-opacity="0.58"/>
<path d="M121.644 25.6074C121.747 25.6948 121.85 25.7822 121.956 25.8722C121.898 26.3521 121.898 26.3521 121.8 26.7988C121.903 26.7988 122.006 26.7988 122.112 26.7988C122.023 27.3113 121.724 27.6039 121.332 27.9903C121.482 26.313 121.482 26.313 121.644 25.6074Z" fill="white" fill-opacity="0.58"/>
<path d="M138.342 33.8147C138.445 33.9021 138.548 33.9895 138.654 34.0795C138.191 34.0795 137.727 34.0795 137.25 34.0795C137.198 34.2106 137.147 34.3416 137.094 34.4766C136.991 34.4766 136.888 34.4766 136.781 34.4766C136.678 34.8698 136.575 35.263 136.469 35.6681C136.418 35.6681 136.366 35.6681 136.313 35.6681C136.268 35.0097 136.287 34.6032 136.781 34.0795C137.281 33.7725 137.737 33.7701 138.342 33.8147Z" fill="white" fill-opacity="0.58"/>
<path d="M129.449 44.9346C129.555 45.1518 129.555 45.1518 129.605 45.4641C129.415 45.8343 129.415 45.8343 129.146 46.2253C129.058 46.3556 128.97 46.486 128.879 46.6203C128.809 46.7193 128.74 46.8183 128.668 46.9203C128.617 46.9203 128.565 46.9203 128.512 46.9203C128.44 46.045 128.836 45.6029 129.449 44.9346Z" fill="white" fill-opacity="0.58"/>
<path d="M118.21 29.3125C118.466 29.7472 118.252 30.1937 118.142 30.6528C118.119 30.7527 118.096 30.8525 118.072 30.9554C118.015 31.2022 117.956 31.4488 117.898 31.6953C117.795 31.6953 117.692 31.6953 117.586 31.6953C117.549 30.9334 117.586 30.2967 117.898 29.5773C118.001 29.4899 118.104 29.4025 118.21 29.3125Z" fill="white" fill-opacity="0.58"/>
<path d="M110.255 35.4023C110.306 35.4023 110.358 35.4023 110.411 35.4023C110.491 36.1183 110.26 36.4123 109.786 36.9909C109.653 37.2979 109.564 37.5986 109.474 37.9176C109.371 37.9176 109.268 37.9176 109.162 37.9176C109.266 37.3338 109.516 36.8233 109.796 36.2876C109.84 36.2022 109.884 36.1168 109.929 36.0288C110.037 35.8197 110.146 35.611 110.255 35.4023Z" fill="white" fill-opacity="0.58"/>
<path d="M118.534 49.9561C118.761 49.9602 118.761 49.9602 118.992 49.9643C118.992 50.0517 118.992 50.1391 118.992 50.2291C117.968 50.5124 116.949 50.6262 115.871 50.6262C116.265 50.2925 116.508 50.2924 117.051 50.2208C117.597 50.1479 118.013 49.9651 118.534 49.9561Z" fill="white" fill-opacity="0.58"/>
<path d="M91.6811 36.5938C91.7326 36.5938 91.7841 36.5938 91.8372 36.5938C91.8372 37.2053 91.8372 37.8169 91.8372 38.4471C91.6311 38.4471 91.4251 38.4471 91.2129 38.4471C91.3674 37.8355 91.5219 37.2239 91.6811 36.5938Z" fill="white" fill-opacity="0.58"/>
<path d="M111.655 33.2852C111.811 33.5499 111.811 33.5499 111.694 33.9553C111.629 34.0837 111.565 34.212 111.499 34.3442C111.344 34.3879 111.19 34.4316 111.031 34.4766C110.839 34.9415 110.839 34.9415 110.718 35.4032C110.615 35.4032 110.512 35.4032 110.406 35.4032C110.651 34.6134 111.148 33.9697 111.655 33.2852Z" fill="white" fill-opacity="0.58"/>
<path d="M112.747 31.8291C112.91 32.2439 112.893 32.3573 112.747 32.7558C112.644 32.7558 112.541 32.7558 112.435 32.7558C112.383 32.9305 112.332 33.1052 112.279 33.2853C112.124 33.2853 111.97 33.2853 111.811 33.2853C112.037 32.7413 112.359 32.3014 112.747 31.8291Z" fill="white" fill-opacity="0.58"/>
<path d="M121.957 48.1113C121.957 48.2424 121.957 48.3734 121.957 48.5085C121.854 48.5958 121.751 48.6832 121.644 48.7732C121.49 48.7732 121.335 48.7732 121.176 48.7732C121.125 48.948 121.073 49.1227 121.02 49.3027C120.66 49.3901 120.299 49.4775 119.928 49.5675C120.045 49.311 120.045 49.311 120.24 49.038C120.562 48.9552 120.562 48.9552 120.864 48.9056C120.916 48.8182 120.967 48.7309 121.02 48.6408C121.277 48.5045 121.538 48.372 121.801 48.2437C121.852 48.2 121.904 48.1563 121.957 48.1113Z" fill="white" fill-opacity="0.58"/>
<path d="M113.997 30.6377C114.1 30.7688 114.203 30.8998 114.309 31.0348C113.912 31.4278 113.452 31.6123 112.904 31.8291C113.147 31.3238 113.534 31.0094 113.997 30.6377Z" fill="white" fill-opacity="0.58"/>
<path d="M127.732 17.6641C127.886 17.6641 128.041 17.6641 128.2 17.6641C128.073 18.0529 128.073 18.0529 127.888 18.4583C127.733 18.502 127.579 18.5457 127.42 18.5907C127.317 18.5033 127.214 18.416 127.107 18.326C127.21 18.326 127.313 18.326 127.42 18.326C127.453 18.199 127.453 18.199 127.488 18.0695C127.576 17.7964 127.576 17.7964 127.732 17.6641Z" fill="white" fill-opacity="0.58"/>
<path d="M108.535 39.2422C108.586 39.2422 108.638 39.2422 108.691 39.2422C108.942 40.3059 108.942 40.3059 108.545 40.839C108.438 40.9237 108.332 41.0083 108.223 41.0955C108.245 40.8859 108.268 40.6763 108.291 40.4667C108.304 40.35 108.316 40.2333 108.329 40.113C108.373 39.8123 108.439 39.5336 108.535 39.2422Z" fill="white" fill-opacity="0.58"/>
<path d="M121.645 50.7586C121.696 50.846 121.748 50.9334 121.801 51.0234C121.227 51.179 120.682 51.1655 120.084 51.1558C120.506 50.6503 120.961 50.7258 121.645 50.7586Z" fill="white" fill-opacity="0.58"/>
<path d="M118.367 43.6094C118.367 44.0897 118.176 44.2736 117.813 44.6291C117.5 44.867 117.22 44.9131 116.807 44.9332C117.327 44.4919 117.847 44.0506 118.367 43.6094Z" fill="white" fill-opacity="0.58"/>
<path d="M116.647 44.9346C116.647 45.3317 116.647 45.3317 116.334 45.7288C116.334 45.6415 116.334 45.5541 116.334 45.4641C116.244 45.5105 116.154 45.5569 116.061 45.6047C115.71 45.7288 115.71 45.7288 115.086 45.5965C115.601 45.378 116.116 45.1596 116.647 44.9346Z" fill="white" fill-opacity="0.58"/>
<path d="M107.443 31.2988C107.546 31.2988 107.649 31.2988 107.755 31.2988C107.574 31.8167 107.387 32.2089 106.974 32.6226C106.923 32.4042 106.871 32.1858 106.818 31.9607C106.973 31.8734 107.127 31.786 107.287 31.696C107.338 31.5649 107.39 31.4339 107.443 31.2988Z" fill="white" fill-opacity="0.58"/>
<path d="M119.302 42.2871C119.353 42.2871 119.405 42.2871 119.458 42.2871C119.406 42.5929 119.355 42.8987 119.302 43.2138C119.147 43.2575 118.993 43.3011 118.834 43.3461C118.834 43.4335 118.834 43.5209 118.834 43.6109C118.731 43.5672 118.628 43.5235 118.521 43.4785C118.621 43.3557 118.721 43.2328 118.824 43.1062C119.159 42.7051 119.159 42.7051 119.302 42.2871Z" fill="white" fill-opacity="0.58"/>
<path d="M111.967 16.4727C111.967 16.8698 111.967 16.8698 111.655 17.2669C111.246 17.3579 111.246 17.3579 110.875 17.3993C111.239 17.0904 111.603 16.7815 111.967 16.4727Z" fill="white" fill-opacity="0.58"/>
</svg>
