<svg width="190" height="87" viewBox="0 0 190 87" fill="none" xmlns="http://www.w3.org/2000/svg">
<rect x="0.5" y="0.5" width="188.085" height="86" fill="white" fill-opacity="0.19" stroke="white"/>
<path d="M46.6341 28.6417C47.2801 29.0277 47.8396 29.5054 48.3346 30.0518C48.7921 30.5436 49.2872 30.9997 49.781 31.459C49.8869 31.5579 49.9929 31.6569 50.0988 31.7558C50.3256 31.9677 50.5526 32.1794 50.7797 32.391C51.1395 32.7264 51.4989 33.0622 51.8581 33.3981C52.8794 34.3529 53.901 35.3073 54.9237 36.2607C55.4895 36.7882 56.0548 37.3162 56.6195 37.8448C56.9756 38.1781 57.3324 38.5108 57.6897 38.843C57.9128 39.0508 58.1353 39.2592 58.3576 39.4677C58.4598 39.5634 58.5624 39.6589 58.6652 39.7541C59.4433 40.4753 60.2348 41.2354 60.6308 42.2094C60.667 42.296 60.7033 42.3825 60.7407 42.4717C61.1101 43.4724 61.0863 44.8107 60.6598 45.7871C60.6012 45.8998 60.6012 45.8998 60.5414 46.0148C60.5043 46.0881 60.4672 46.1614 60.4289 46.237C60.1653 46.6964 59.8232 47.0746 59.4447 47.4539C59.3943 47.5047 59.3439 47.5555 59.292 47.6078C58.7844 48.1169 58.2616 48.6113 57.7346 49.1029C57.6313 49.1996 57.5279 49.2964 57.4246 49.3932C57.2049 49.599 56.985 49.8047 56.765 50.0102C56.4164 50.3359 56.0682 50.6619 55.7201 50.9879C54.9818 51.6793 54.2431 52.3703 53.5044 53.0613C52.7048 53.8092 51.9053 54.5572 51.1062 55.3056C50.7608 55.6291 50.4151 55.9524 50.0692 56.2756C49.8538 56.4769 49.6386 56.6784 49.4235 56.8799C49.3244 56.9727 49.2252 57.0654 49.1259 57.158C48.6363 57.6149 48.1562 58.0731 47.7102 58.568C47.0184 59.3018 45.8437 59.8987 44.7926 59.9784C42.7772 60.0272 42.7772 60.0272 41.8554 59.6049C41.7761 59.5691 41.6968 59.5332 41.6152 59.4963C40.7083 59.0342 39.9785 58.3222 39.2957 57.6078C38.4334 56.721 37.5142 55.8844 36.6065 55.0388C36.2675 54.723 35.9289 54.4066 35.5905 54.0902C34.629 53.1915 33.6671 52.2931 32.7041 51.3957C32.1702 50.898 31.6367 50.3999 31.1039 49.9012C30.7683 49.5873 30.4322 49.2739 30.0955 48.961C29.8858 48.7657 29.6766 48.5698 29.4677 48.3738C29.3715 48.2839 29.2751 48.1941 29.1784 48.1046C28.4415 47.4222 27.7564 46.7199 27.3761 45.8025C27.339 45.7151 27.3019 45.6278 27.2636 45.5378C26.8863 44.5404 26.9158 43.1943 27.3407 42.2195C27.3799 42.1443 27.4191 42.069 27.4595 41.9915C27.5168 41.88 27.5168 41.88 27.5753 41.7662C28.1859 40.7123 29.2444 39.8573 30.1426 39.0194C30.2441 38.9244 30.3456 38.8294 30.447 38.7344C30.6629 38.5322 30.879 38.3301 31.0952 38.1281C31.4378 37.8081 31.7799 37.4877 32.122 37.1673C32.8477 36.4877 33.5738 35.8085 34.2999 35.1294C35.0855 34.3946 35.8711 33.6598 36.6561 32.9245C36.9956 32.6066 37.3353 32.2889 37.6752 31.9713C37.8869 31.7734 38.0985 31.5753 38.31 31.3772C38.4074 31.286 38.5049 31.1949 38.6025 31.1039C39.0882 30.6507 39.5638 30.1952 40.0088 29.7064C41.6668 27.8931 44.439 27.503 46.6341 28.6417ZM43.5812 39.7347C43.5296 39.7833 43.4779 39.8319 43.4247 39.882C43.3714 39.9319 43.3181 39.9818 43.2632 40.0332C43.1498 40.1395 43.0364 40.246 42.9232 40.3525C42.7522 40.5134 42.5807 40.6737 42.4092 40.834C41.911 41.301 41.421 41.7679 40.964 42.271C40.645 42.6106 40.2976 42.9251 39.9546 43.2432C39.8432 43.3471 39.8432 43.3471 39.7295 43.4531C39.5485 43.6217 39.3673 43.7902 39.186 43.9584C39.6813 44.5169 40.2196 45.023 40.7719 45.5316C41.0933 45.8299 41.4068 46.129 41.7012 46.4511C42.1224 46.9103 42.5825 47.3322 43.0411 47.7583C43.1291 47.8404 43.217 47.9224 43.3076 48.007C43.5224 48.2074 43.7375 48.4076 43.9528 48.6077C44.4363 48.2278 44.8907 47.8313 45.3352 47.4118C45.3948 47.3563 45.4544 47.3007 45.5158 47.2435C45.8086 46.9684 46.0909 46.6895 46.3604 46.3941C46.8154 45.9001 47.314 45.4459 47.808 44.9866C47.906 44.8952 48.004 44.8037 48.102 44.7121C48.3394 44.4905 48.5771 44.2691 48.815 44.0479C48.2732 43.4301 47.6671 42.8758 47.0606 42.315C46.5687 41.8596 46.0865 41.4021 45.6369 40.9093C45.3483 40.601 45.0375 40.3136 44.7274 40.0245C44.663 39.9637 44.5986 39.903 44.5323 39.8404C44.4711 39.7831 44.4099 39.7259 44.3468 39.6668C44.2641 39.5894 44.2641 39.5894 44.1796 39.5104C43.9061 39.278 43.8004 39.5304 43.5812 39.7347Z" fill="#D0E2F3"/>
<path d="M48.0086 30C48.6218 30.4644 49.1812 30.9746 49.7431 31.4897C49.8494 31.5868 49.9557 31.6839 50.062 31.7809C50.3492 32.0433 50.6361 32.306 50.9229 32.5688C51.1026 32.7334 51.2823 32.8979 51.462 33.0624C52.0256 33.5784 52.589 34.0945 53.1521 34.6108C53.7997 35.2047 54.448 35.7979 55.0967 36.3907C55.5999 36.8505 56.1025 37.3108 56.6047 37.7715C56.9039 38.0459 57.2033 38.3201 57.5033 38.5938C57.7857 38.8515 58.0674 39.1098 58.3487 39.3687C58.4513 39.4629 58.5541 39.5569 58.6573 39.6507C59.4371 40.36 60.2321 41.1071 60.6295 42.0635C60.6841 42.1909 60.6841 42.1909 60.7398 42.321C61.1105 43.3034 61.0866 44.6172 60.6587 45.5758C60.6195 45.6496 60.5803 45.7234 60.5399 45.7994C60.5026 45.8713 60.4654 45.9433 60.427 46.0174C60.1625 46.4684 59.8193 46.8396 59.4396 47.2119C59.3891 47.2617 59.3386 47.3116 59.2865 47.3629C58.7758 47.864 58.2502 48.351 57.7206 48.8351C57.6166 48.9306 57.5125 49.026 57.4086 49.1215C57.1303 49.3768 56.8518 49.6318 56.5733 49.8868C56.2801 50.1553 55.9871 50.424 55.6942 50.6927C55.1407 51.2003 54.5871 51.7076 54.0333 52.2149C53.404 52.7913 52.775 53.368 52.146 53.9447C51.0711 54.9303 49.9959 55.9157 48.9205 56.9009C48.8322 56.9818 48.7438 57.0628 48.6528 57.1462C48.5764 57.2161 48.5001 57.2861 48.4214 57.3582C48.188 57.572 47.9548 57.786 47.7216 58C47.8345 57.7909 47.9502 57.5835 48.068 57.3767C48.7632 56.1392 49.1446 55.0391 48.7201 53.6387C48.3286 52.6453 47.7406 51.896 46.9115 51.1728C46.8273 51.0972 46.7431 51.0216 46.6563 50.9437C46.3908 50.7053 46.1237 50.4685 45.8563 50.232C45.5012 49.9178 45.1477 49.6022 44.7951 49.2857C44.713 49.214 44.6309 49.1423 44.5463 49.0684C44.4719 49.0016 44.3974 48.9347 44.3207 48.8658C44.2545 48.8074 44.1884 48.749 44.1202 48.6888C43.9909 48.5204 43.9909 48.5204 44.0077 48.3346C44.1173 48.1049 44.2741 47.9692 44.47 47.7949C44.5486 47.7239 44.6273 47.653 44.7084 47.5799C44.7912 47.5065 44.8741 47.433 44.9595 47.3574C45.6147 46.7763 45.6147 46.7763 46.2296 46.1601C46.6797 45.6777 47.1767 45.2367 47.6678 44.79C47.7662 44.7002 47.8645 44.6103 47.9628 44.5205C48.201 44.3029 48.4395 44.0855 48.6782 43.8683C48.1346 43.2618 47.5265 42.7177 46.9179 42.1671C46.4231 41.7189 45.9391 41.2683 45.4873 40.7828C45.1577 40.4427 44.7893 40.1347 44.4259 39.8252C44.3682 39.7741 44.3105 39.7229 44.251 39.6703C44.1987 39.6251 44.1463 39.5799 44.0924 39.5334C43.9909 39.3918 43.9909 39.3918 44.011 39.2285C44.1058 38.993 44.2328 38.8778 44.4293 38.7034C44.5018 38.6383 44.5743 38.5732 44.6491 38.5061C44.7281 38.4363 44.8071 38.3665 44.8885 38.2947C45.0552 38.1446 45.2218 37.9946 45.3884 37.8445C45.6512 37.6093 45.9144 37.3745 46.1781 37.1403C46.4329 36.9135 46.6861 36.6853 46.9392 36.4569C47.017 36.3886 47.0949 36.3202 47.1751 36.2498C48.2259 35.298 48.8671 34.1267 48.8994 32.7649C48.8912 31.8653 48.6119 31.0883 48.0998 30.3254C48.0086 30.1755 48.0086 30.1755 48.0086 30Z" fill="#FEFEFE" fill-opacity="0.59"/>
<path d="M76.04 49.5547H70.043V48.9707H71.8398V36.6621H70.043V36.0781H77.0283C78.2113 36.0781 79.2145 36.3551 80.0381 36.9092C81.0114 37.583 81.498 38.474 81.498 39.582C81.498 39.9863 81.4307 40.3831 81.2959 40.7725C80.8467 41.9704 79.8584 42.764 78.3311 43.1533L81.9023 48.9707H82.5312C82.6211 48.9707 82.7035 48.9782 82.7783 48.9932C82.988 49.0231 83.0928 49.2103 83.0928 49.5547H79.4766L75.9727 43.3779H74.2432V48.9707H76.04V49.5547ZM76.085 36.6621H74.2432V42.7266H76.1973C76.7962 42.7266 77.3203 42.5544 77.7695 42.21C78.5033 41.626 78.8701 40.7725 78.8701 39.6494C78.8701 39.1852 78.7878 38.7435 78.623 38.3242C78.1888 37.2161 77.3428 36.6621 76.085 36.6621ZM86.2822 44.7256C86.2822 45.2197 86.3047 45.6689 86.3496 46.0732C86.5592 48.1696 87.4128 49.2178 88.9102 49.2178C90.6022 49.1878 91.4632 47.6605 91.4932 44.6357C91.4932 44.0518 91.4632 43.5202 91.4033 43.041C91.1488 41.1842 90.3102 40.2559 88.8877 40.2559C87.3005 40.3757 86.432 41.8656 86.2822 44.7256ZM88.9551 39.6943C90.0632 39.6943 91.0439 39.9863 91.8975 40.5703C93.2152 41.4987 93.874 42.8688 93.874 44.6807C93.874 46.0283 93.4622 47.1738 92.6387 48.1172C91.6654 49.2253 90.4001 49.7793 88.8428 49.7793C87.7048 49.7793 86.7015 49.4499 85.833 48.791C84.5452 47.8327 83.9014 46.4476 83.9014 44.6357C83.9014 43.333 84.2982 42.2324 85.0918 41.334C86.0651 40.2409 87.3529 39.6943 88.9551 39.6943ZM97.2432 53.126C97.4378 53.126 97.625 53.0885 97.8047 53.0137C98.5234 52.7292 99.2721 51.6436 100.051 49.7568L95.873 40.5479H94.8398V39.9639H99.5791V40.5479H98.1191L101.062 47.3311L103.757 40.5479H102.095V39.9639H105.554C105.554 40.0837 105.546 40.181 105.531 40.2559C105.486 40.4505 105.307 40.5479 104.992 40.5479C104.887 40.5479 104.79 40.5553 104.7 40.5703C104.506 40.6152 104.333 40.8398 104.184 41.2441L100.837 49.667C100.522 50.4606 100.193 51.1419 99.8486 51.7109C98.9951 53.1484 97.9619 53.8672 96.749 53.8672C96.3298 53.8672 95.9479 53.7923 95.6035 53.6426C94.9746 53.3431 94.6602 52.9313 94.6602 52.4072C94.6602 52.3324 94.6676 52.2575 94.6826 52.1826C94.8024 51.7334 95.1094 51.5088 95.6035 51.5088C95.8132 51.5088 95.9928 51.5612 96.1426 51.666C96.3073 51.7708 96.4795 52.0703 96.6592 52.5645C96.7939 52.9388 96.9886 53.126 97.2432 53.126ZM114.358 49.7793C113.235 49.7643 112.562 49.0905 112.337 47.7578C112.217 48.0573 112.045 48.3418 111.82 48.6113C111.132 49.39 110.218 49.7793 109.08 49.7793C108.616 49.7793 108.189 49.7044 107.8 49.5547C106.767 49.1504 106.25 48.3493 106.25 47.1514C106.25 46.9268 106.272 46.7096 106.317 46.5C106.692 44.9128 108.676 44.0967 112.27 44.0518V42.6143C112.255 41.0719 111.641 40.2858 110.428 40.2559C110.128 40.2559 109.874 40.3083 109.664 40.4131C109.38 40.5778 109.14 40.9596 108.945 41.5586C108.9 41.7083 108.863 41.8206 108.833 41.8955C108.653 42.3896 108.331 42.6367 107.867 42.6367C107.747 42.6367 107.628 42.6217 107.508 42.5918C107.059 42.457 106.834 42.1501 106.834 41.6709C106.834 41.4163 106.916 41.1618 107.081 40.9072C107.635 40.0986 108.818 39.6943 110.63 39.6943C113.131 39.7093 114.396 40.8698 114.426 43.1758V47.8926C114.441 48.6263 114.628 49.0081 114.987 49.0381C115.451 49.0231 115.736 48.484 115.841 47.4209L116.425 47.4434C116.41 47.7878 116.365 48.0947 116.29 48.3643C116.05 49.3076 115.407 49.7793 114.358 49.7793ZM110.001 48.8584C110.226 48.8584 110.458 48.806 110.697 48.7012C111.491 48.3568 112.015 47.6605 112.27 46.6123V44.6582C111.386 44.6732 110.667 44.748 110.113 44.8828C109.035 45.1523 108.496 45.7962 108.496 46.8145C108.496 47.0241 108.511 47.2188 108.541 47.3984C108.691 48.3717 109.177 48.8584 110.001 48.8584ZM122.175 48.9932C122.265 48.9932 122.347 49.0007 122.422 49.0156C122.617 49.0605 122.714 49.2402 122.714 49.5547H117.121V48.9932C117.6 48.9932 117.96 48.9557 118.199 48.8809C118.618 48.7461 118.828 48.3493 118.828 47.6904V35.5166H117.121V34.9551H120.984V48.9932H122.175ZM123.635 40.5703V40.0088H125.207V37.875L127.363 37.4033V40.0088H130.62V40.5703H127.363V47.3984C127.378 48.5215 127.768 49.098 128.531 49.1279C129.28 49.113 129.819 48.4391 130.148 47.1064L130.755 47.2188C130.71 47.4583 130.65 47.6904 130.575 47.915C130.156 49.1729 129.31 49.8018 128.037 49.8018C127.917 49.8018 127.79 49.7943 127.655 49.7793C126.023 49.6296 125.207 48.5739 125.207 46.6123V40.5703H123.635ZM139.627 49.7793C138.504 49.7643 137.83 49.0905 137.605 47.7578C137.486 48.0573 137.313 48.3418 137.089 48.6113C136.4 49.39 135.487 49.7793 134.349 49.7793C133.884 49.7793 133.458 49.7044 133.068 49.5547C132.035 49.1504 131.519 48.3493 131.519 47.1514C131.519 46.9268 131.541 46.7096 131.586 46.5C131.96 44.9128 133.944 44.0967 137.538 44.0518V42.6143C137.523 41.0719 136.909 40.2858 135.696 40.2559C135.397 40.2559 135.142 40.3083 134.933 40.4131C134.648 40.5778 134.409 40.9596 134.214 41.5586C134.169 41.7083 134.132 41.8206 134.102 41.8955C133.922 42.3896 133.6 42.6367 133.136 42.6367C133.016 42.6367 132.896 42.6217 132.776 42.5918C132.327 42.457 132.103 42.1501 132.103 41.6709C132.103 41.4163 132.185 41.1618 132.35 40.9072C132.904 40.0986 134.087 39.6943 135.898 39.6943C138.399 39.7093 139.664 40.8698 139.694 43.1758V47.8926C139.709 48.6263 139.896 49.0081 140.256 49.0381C140.72 49.0231 141.005 48.484 141.109 47.4209L141.693 47.4434C141.678 47.7878 141.633 48.0947 141.559 48.3643C141.319 49.3076 140.675 49.7793 139.627 49.7793ZM135.27 48.8584C135.494 48.8584 135.726 48.806 135.966 48.7012C136.759 48.3568 137.284 47.6605 137.538 46.6123V44.6582C136.655 44.6732 135.936 44.748 135.382 44.8828C134.304 45.1523 133.765 45.7962 133.765 46.8145C133.765 47.0241 133.78 47.2188 133.81 47.3984C133.959 48.3717 134.446 48.8584 135.27 48.8584ZM141.873 49.5547C141.873 49.4499 141.881 49.3525 141.896 49.2627C141.925 49.113 142.053 49.0231 142.277 48.9932C142.712 48.9333 143.086 48.7087 143.4 48.3193L145.983 44.9951L142.951 40.5254H141.896V39.9639H146.68V40.5254H145.287L147.466 43.7598L149.847 40.5254H148.319V39.9639H151.666C151.666 40.0687 151.659 40.166 151.644 40.2559C151.599 40.4056 151.464 40.488 151.239 40.5029C150.775 40.5628 150.393 40.7949 150.094 41.1992L147.825 44.2988L150.992 48.9932H151.441C151.516 48.9932 151.591 49.0007 151.666 49.0156C151.891 49.0456 152.003 49.2253 152.003 49.5547H147.398V48.9932H148.724L146.365 45.5117L143.67 48.9932H145.31V49.5547H141.873ZM157.394 48.9932C157.498 48.9932 157.588 49.0007 157.663 49.0156C157.858 49.0456 157.955 49.2253 157.955 49.5547H152.632V48.9932C153.006 48.9932 153.298 48.9707 153.508 48.9258C153.987 48.791 154.227 48.3867 154.227 47.7129V40.5254H152.632V39.9639H156.383V48.9932H157.394ZM156.63 36.8193C156.63 37.0439 156.585 37.2536 156.495 37.4482C156.241 37.9574 155.814 38.2119 155.215 38.2119C155.005 38.2119 154.803 38.167 154.608 38.0771C154.084 37.8376 153.822 37.4183 153.822 36.8193C153.822 36.5947 153.875 36.3776 153.979 36.168C154.234 35.6589 154.646 35.4043 155.215 35.4043C155.439 35.4043 155.657 35.4567 155.866 35.5615C156.375 35.8311 156.63 36.2503 156.63 36.8193Z" fill="white"/>
</svg>
