<svg width="98" height="98" viewBox="0 0 98 98" fill="none" xmlns="http://www.w3.org/2000/svg">
<circle cx="49" cy="49" r="49" fill="#C5CBFD"/>
<path d="M69.3027 65.6711H63.6124C63.3608 65.6711 63.1196 65.5711 62.9417 65.3933C62.7639 65.2154 62.664 64.9742 62.664 64.7227C62.664 64.4711 62.7639 64.2299 62.9417 64.052C63.1196 63.8742 63.3608 63.7743 63.6124 63.7743H68.3543V56.1871C68.3543 54.1748 67.555 52.245 66.1321 50.8222C64.7092 49.3993 62.7794 48.5999 60.7672 48.5999C58.7549 48.5999 56.8251 49.3993 55.4022 50.8222C53.9794 52.245 53.18 54.1748 53.18 56.1871V63.7743H57.922C58.1735 63.7743 58.4147 63.8742 58.5926 64.052C58.7705 64.2299 58.8704 64.4711 58.8704 64.7227C58.8704 64.9742 58.7705 65.2154 58.5926 65.3933C58.4147 65.5711 58.1735 65.6711 57.922 65.6711H52.2316C51.9801 65.6711 51.7388 65.5711 51.561 65.3933C51.3831 65.2154 51.2832 64.9742 51.2832 64.7227V56.1871C51.2832 53.6718 52.2824 51.2595 54.061 49.4809C55.8396 47.7023 58.2519 46.7031 60.7672 46.7031C63.2825 46.7031 65.6948 47.7023 67.4733 49.4809C69.2519 51.2595 70.2511 53.6718 70.2511 56.1871V64.7227C70.2511 64.9742 70.1512 65.2154 69.9734 65.3933C69.7955 65.5711 69.5543 65.6711 69.3027 65.6711Z" fill="black"/>
<path d="M60.7685 66.6193C59.2593 66.6193 57.812 66.0198 56.7448 64.9527C55.6776 63.8855 55.0781 62.4381 55.0781 60.9289V56.187C55.0781 54.6778 55.6776 53.2304 56.7448 52.1633C57.812 51.0961 59.2593 50.4966 60.7685 50.4966C62.2777 50.4966 63.7251 51.0961 64.7922 52.1633C65.8594 53.2304 66.4589 54.6778 66.4589 56.187V60.9289C66.4589 62.4381 65.8594 63.8855 64.7922 64.9527C63.7251 66.0198 62.2777 66.6193 60.7685 66.6193ZM60.7685 52.3934C59.7624 52.3934 58.7975 52.7931 58.086 53.5045C57.3746 54.2159 56.9749 55.1808 56.9749 56.187V60.9289C56.9749 61.9351 57.3746 62.9 58.086 63.6114C58.7975 64.3228 59.7624 64.7225 60.7685 64.7225C61.7746 64.7225 62.7395 64.3228 63.451 63.6114C64.1624 62.9 64.5621 61.9351 64.5621 60.9289V56.187C64.5621 55.1808 64.1624 54.2159 63.451 53.5045C62.7395 52.7931 61.7746 52.3934 60.7685 52.3934Z" fill="black"/>
<path d="M65.9843 57.1356H55.5519C55.3004 57.1356 55.0592 57.0356 54.8813 56.8578C54.7034 56.6799 54.6035 56.4387 54.6035 56.1872C54.6035 55.9356 54.7034 55.6944 54.8813 55.5165C55.0592 55.3387 55.3004 55.2388 55.5519 55.2388H65.9843C66.2358 55.2388 66.477 55.3387 66.6549 55.5165C66.8328 55.6944 66.9327 55.9356 66.9327 56.1872C66.9327 56.4387 66.8328 56.6799 66.6549 56.8578C66.477 57.0356 66.2358 57.1356 65.9843 57.1356Z" fill="black"/>
<path d="M60.9958 69.8249C60.2253 69.8224 59.4872 69.5145 58.9432 68.9688C58.3992 68.423 58.0937 67.6839 58.0938 66.9133V65.3485C58.0938 65.0969 58.1937 64.8557 58.3715 64.6778C58.5494 64.5 58.7906 64.4001 59.0421 64.4001C59.2937 64.4001 59.5349 64.5 59.7128 64.6778C59.8906 64.8557 59.9905 65.0969 59.9905 65.3485V66.9133C59.9905 67.0453 60.0165 67.176 60.0671 67.298C60.1176 67.42 60.1916 67.5308 60.285 67.6242C60.3783 67.7175 60.4892 67.7916 60.6111 67.8421C60.7331 67.8926 60.8638 67.9186 60.9958 67.9186C61.1279 67.9186 61.2586 67.8926 61.3806 67.8421C61.5025 67.7916 61.6133 67.7175 61.7067 67.6242C61.8 67.5308 61.8741 67.42 61.9246 67.298C61.9751 67.176 62.0011 67.0453 62.0011 66.9133V65.1398C62.0011 64.8883 62.1011 64.647 62.2789 64.4692C62.4568 64.2913 62.698 64.1914 62.9495 64.1914C63.2011 64.1914 63.4423 64.2913 63.6202 64.4692C63.798 64.647 63.8979 64.8883 63.8979 65.1398V66.9133C63.8979 67.6839 63.5925 68.423 63.0485 68.9688C62.5045 69.5145 61.7664 69.8224 60.9958 69.8249Z" fill="black"/>
<path d="M72.622 75.1547H49.8605C49.609 75.1547 49.3678 75.0548 49.1899 74.8769C49.012 74.699 48.9121 74.4578 48.9121 74.2063C48.9109 73.2253 49.103 72.2537 49.4775 71.3471C49.8521 70.4404 50.4017 69.6165 51.0949 68.9224C51.7881 68.2283 52.6113 67.6777 53.5175 67.302C54.4237 66.9263 55.395 66.7329 56.376 66.7329H59.041C59.2925 66.7329 59.5338 66.8328 59.7116 67.0107C59.8895 67.1885 59.9894 67.4298 59.9894 67.6813C59.9894 67.9328 59.8895 68.1741 59.7116 68.3519C59.5338 68.5298 59.2925 68.6297 59.041 68.6297H56.376C55.6439 68.628 54.9187 68.7722 54.2429 69.0539C53.5671 69.3356 52.9543 69.7492 52.4402 70.2704C51.6257 71.0818 51.0823 72.1254 50.8848 73.2579H71.5978C71.3726 71.964 70.6987 70.7908 69.6944 69.9444C68.6902 69.098 67.4199 68.6325 66.1065 68.6297H62.9484C62.6969 68.6297 62.4556 68.5298 62.2778 68.3519C62.0999 68.1741 62 67.9328 62 67.6813C62 67.4298 62.0999 67.1885 62.2778 67.0107C62.4556 66.8328 62.6969 66.7329 62.9484 66.7329H66.1065C68.087 66.7354 69.9854 67.5239 71.3849 68.9252C72.7844 70.3264 73.5704 72.2259 73.5704 74.2063C73.5704 74.4578 73.4705 74.699 73.2926 74.8769C73.1148 75.0548 72.8736 75.1547 72.622 75.1547Z" fill="black"/>
<path d="M74.0465 59.0319H72.1497C71.8981 59.0319 71.6569 58.932 71.4791 58.7541C71.3012 58.5763 71.2013 58.3351 71.2013 58.0835C71.2013 57.832 71.3012 57.5908 71.4791 57.4129C71.6569 57.235 71.8981 57.1351 72.1497 57.1351H73.0981V55.7884C73.0981 49.7282 67.8534 44.806 61.4138 44.806H60.124C53.6844 44.806 48.4398 49.7282 48.4398 55.7884V57.1351H49.3882C49.6397 57.1351 49.8809 57.235 50.0588 57.4129C50.2366 57.5908 50.3366 57.832 50.3366 58.0835C50.3366 58.3351 50.2366 58.5763 50.0588 58.7541C49.8809 58.932 49.6397 59.0319 49.3882 59.0319H47.4914C47.2398 59.0319 46.9986 58.932 46.8207 58.7541C46.6429 58.5763 46.543 58.3351 46.543 58.0835V55.7884C46.543 48.6849 52.6317 42.9092 60.124 42.9092H61.4138C68.9062 42.9092 74.9949 48.6849 74.9949 55.7884V58.0835C74.9949 58.3351 74.8949 58.5763 74.7171 58.7541C74.5392 58.932 74.298 59.0319 74.0465 59.0319Z" fill="black"/>
<path d="M49.3878 59.9806C49.1363 59.9806 48.8951 59.8807 48.7172 59.7028C48.5394 59.525 48.4395 59.2837 48.4395 59.0322V57.1354C48.4395 56.8839 48.5394 56.6426 48.7172 56.4648C48.8951 56.2869 49.1363 56.187 49.3878 56.187C49.6394 56.187 49.8806 56.2869 50.0585 56.4648C50.2363 56.6426 50.3362 56.8839 50.3362 57.1354V59.0322C50.3362 59.2837 50.2363 59.525 50.0585 59.7028C49.8806 59.8807 49.6394 59.9806 49.3878 59.9806Z" fill="black"/>
<path d="M72.1496 59.9806C71.898 59.9806 71.6568 59.8807 71.479 59.7028C71.3011 59.525 71.2012 59.2837 71.2012 59.0322V57.1354C71.2012 56.8839 71.3011 56.6426 71.479 56.4648C71.6568 56.2869 71.898 56.187 72.1496 56.187C72.4011 56.187 72.6423 56.2869 72.8202 56.4648C72.998 56.6426 73.098 56.8839 73.098 57.1354V59.0322C73.098 59.2837 72.998 59.525 72.8202 59.7028C72.6423 59.8807 72.4011 59.9806 72.1496 59.9806Z" fill="black"/>
<path d="M38.7466 70.508C37.826 70.5056 36.9259 70.2354 36.1562 69.7301C35.3866 69.2249 34.7807 68.5066 34.4124 67.6628L22.4152 40.8611C22.1602 40.2926 22.0198 39.6794 22.002 39.0566C21.9841 38.4338 22.0891 37.8136 22.3111 37.2314C22.533 36.6492 22.8676 36.1164 23.2955 35.6636C23.7235 35.2107 24.2364 34.8467 24.8052 34.5922L44.6456 25.7436C44.7602 25.6833 44.8859 25.647 45.0149 25.6371C45.144 25.6271 45.2738 25.6437 45.3962 25.6858C45.5186 25.7279 45.6312 25.7947 45.7268 25.8819C45.8225 25.9691 45.8993 26.075 45.9525 26.1931C46.0056 26.3111 46.0341 26.4388 46.0361 26.5683C46.038 26.6977 46.0135 26.8262 45.9639 26.9458C45.9143 27.0654 45.8408 27.1736 45.7478 27.2637C45.6548 27.3538 45.5444 27.4239 45.4233 27.4697L25.5829 36.3183C25.237 36.4701 24.9247 36.6893 24.6645 36.9631C24.4042 37.2369 24.201 37.5597 24.0668 37.9129C23.9326 38.266 23.8701 38.6423 23.8829 39.0198C23.8957 39.3974 23.9835 39.7686 24.1413 40.1119L36.1101 66.923C36.2619 67.2689 36.4811 67.5811 36.7549 67.8414C37.0287 68.1017 37.3515 68.3049 37.7046 68.4391C38.0578 68.5733 38.4341 68.6358 38.8116 68.623C39.1892 68.6102 39.5604 68.5224 39.9036 68.3646L48.0504 64.7227C48.1649 64.6624 48.2906 64.6261 48.4197 64.6162C48.5488 64.6062 48.6785 64.6228 48.801 64.6649C48.9234 64.707 49.0359 64.7738 49.1316 64.861C49.2272 64.9482 49.304 65.0541 49.3572 65.1722C49.4104 65.2902 49.4388 65.4179 49.4408 65.5474C49.4428 65.6768 49.4182 65.8053 49.3686 65.9249C49.3191 66.0445 49.2455 66.1527 49.1526 66.2428C49.0596 66.3329 48.9492 66.403 48.8281 66.4488L40.6718 70.0907C40.0674 70.366 39.4108 70.5083 38.7466 70.508Z" fill="black"/>
<path d="M32.1554 45.0052C31.9714 45.0067 31.7909 44.9546 31.636 44.8552C31.481 44.7559 31.3584 44.6136 31.2829 44.4457C31.0979 44.0133 31.0337 43.5388 31.0972 43.0728C31.1607 42.6069 31.3494 42.1668 31.6433 41.7997C31.7588 41.6458 31.8247 41.4604 31.8324 41.2681C31.84 41.0758 31.789 40.8858 31.6861 40.7232C31.5832 40.5606 31.4333 40.4332 31.2562 40.3578C31.0792 40.2824 30.8834 40.2627 30.6949 40.3012C30.5584 40.3328 30.4307 40.3943 30.3208 40.4813C30.2109 40.5682 30.1217 40.6783 30.0595 40.8038C30.0003 40.93 29.9696 41.0676 29.9696 41.2069C29.9696 41.3462 30.0003 41.4839 30.0595 41.61C30.1105 41.7239 30.1386 41.8468 30.1422 41.9717C30.1458 42.0965 30.1247 42.2208 30.0803 42.3375C30.0358 42.4542 29.9688 42.561 29.883 42.6517C29.7973 42.7425 29.6945 42.8155 29.5805 42.8666C29.4666 42.9177 29.3437 42.9458 29.2188 42.9494C29.094 42.9529 28.9697 42.9319 28.853 42.8874C28.7363 42.8429 28.6295 42.7759 28.5388 42.6902C28.448 42.6044 28.375 42.5016 28.3239 42.3877C28.1182 41.9296 28.0374 41.4253 28.0897 40.9259C28.142 40.4266 28.3254 39.9499 28.6215 39.5444C28.9176 39.1389 29.3157 38.8189 29.7754 38.6171C30.2352 38.4152 30.7401 38.3386 31.2391 38.395C31.738 38.4514 32.2131 38.6388 32.6161 38.9382C33.0192 39.2377 33.3358 39.6384 33.5339 40.0998C33.7319 40.5612 33.8044 41.0668 33.7438 41.5652C33.6833 42.0636 33.4919 42.5372 33.1892 42.9377C33.1047 43.037 33.0479 43.1568 33.0246 43.285C33.0013 43.4133 33.0122 43.5454 33.0564 43.668C33.159 43.897 33.1668 44.1573 33.0779 44.3919C32.989 44.6265 32.8108 44.8164 32.5822 44.9199C32.4485 44.981 32.3024 45.0103 32.1554 45.0052Z" fill="black"/>
<path d="M33.265 47.4901H33.0753L32.8952 47.4332L32.7339 47.3479C32.6822 47.312 32.6346 47.2706 32.5917 47.2246C32.4165 47.0479 32.3177 46.8095 32.3166 46.5607C32.3139 46.4342 32.3364 46.3084 32.383 46.1908C32.4321 46.077 32.503 45.9739 32.5917 45.8873C32.6346 45.8413 32.6822 45.7999 32.7339 45.764L32.8952 45.6787L33.0753 45.6218C33.2909 45.5789 33.5147 45.6121 33.7084 45.7159C33.9022 45.8197 34.0539 45.9876 34.1376 46.1908C34.1874 46.3078 34.2132 46.4336 34.2134 46.5607C34.2134 46.8122 34.1135 47.0535 33.9356 47.2313C33.7578 47.4092 33.5166 47.5091 33.265 47.5091V47.4901Z" fill="black"/>
<path d="M34.5162 54.9444C34.3338 54.944 34.1553 54.891 34.0023 54.7917C33.8492 54.6925 33.728 54.5512 33.6532 54.3848C33.4973 54.0457 33.4111 53.6787 33.3997 53.3056C33.3883 52.9326 33.4519 52.561 33.5868 52.213C33.7278 51.8547 33.94 51.5287 34.2106 51.2549C34.4812 50.981 34.8046 50.7649 35.1611 50.6197C35.2766 50.553 35.4047 50.5115 35.5373 50.4977C35.6699 50.484 35.8038 50.4983 35.9305 50.5398C36.0571 50.5813 36.1736 50.649 36.2723 50.7386C36.3711 50.8281 36.4498 50.9374 36.5034 51.0594C36.5571 51.1814 36.5844 51.3134 36.5836 51.4467C36.5828 51.5799 36.5539 51.7115 36.4989 51.8329C36.4438 51.9543 36.3638 52.0627 36.264 52.151C36.1643 52.2394 36.047 52.3057 35.9199 52.3457C35.6845 52.456 35.5009 52.6531 35.4077 52.8958C35.3154 53.1239 35.3154 53.379 35.4077 53.6071C35.5104 53.8361 35.5181 54.0964 35.4292 54.331C35.3403 54.5656 35.1621 54.7555 34.9335 54.859C34.8027 54.9187 34.66 54.9479 34.5162 54.9444Z" fill="black"/>
<path d="M38.6222 59.4873C38.3711 59.4838 38.1306 59.3855 37.9489 59.2122C37.861 59.1236 37.7914 59.0185 37.7442 58.903C37.697 58.7874 37.6731 58.6637 37.6738 58.5389C37.6753 58.4149 37.7011 58.2925 37.7497 58.1785C37.7949 58.062 37.8625 57.9557 37.9489 57.8655C38.037 57.7766 38.1419 57.706 38.2575 57.6579C38.3731 57.6098 38.497 57.585 38.6222 57.585C38.7474 57.585 38.8714 57.6098 38.987 57.6579C39.1025 57.706 39.2074 57.7766 39.2956 57.8655C39.3819 57.9557 39.4496 58.062 39.4948 58.1785C39.5479 58.291 39.5738 58.4144 39.5706 58.5389C39.5714 58.6637 39.5474 58.7874 39.5002 58.903C39.453 59.0185 39.3835 59.1236 39.2956 59.2122C39.1139 59.3855 38.8733 59.4838 38.6222 59.4873Z" fill="black"/>
<path d="M36.5554 38.5943C36.3392 38.5933 36.1298 38.5185 35.9619 38.3822C35.7941 38.2459 35.6778 38.0564 35.6325 37.845C35.5871 37.6336 35.6153 37.413 35.7124 37.2198C35.8096 37.0267 35.9698 36.8725 36.1665 36.7829L41.2594 34.5067C41.4933 34.4036 41.7587 34.3976 41.997 34.4901C42.2353 34.5826 42.4271 34.766 42.5303 34.9999C42.6334 35.2338 42.6394 35.4991 42.5469 35.7374C42.4544 35.9758 42.271 36.1676 42.0371 36.2707L36.9442 38.5469C36.8193 38.5896 36.6869 38.6057 36.5554 38.5943Z" fill="black"/>
<path d="M38.1101 42.056C37.8939 42.055 37.6845 41.9801 37.5166 41.8438C37.3488 41.7076 37.2325 41.518 37.1871 41.3066C37.1418 41.0952 37.17 40.8747 37.2671 40.6815C37.3642 40.4883 37.5245 40.3342 37.7212 40.2445L39.343 39.5237C39.5688 39.4383 39.8186 39.4422 40.0417 39.5347C40.2647 39.6271 40.444 39.8011 40.5432 40.0212C40.6424 40.2413 40.6539 40.491 40.5754 40.7192C40.4968 40.9475 40.3342 41.1373 40.1207 41.2498L38.4989 41.9611C38.3775 42.02 38.245 42.0524 38.1101 42.056Z" fill="black"/>
<path d="M43.6967 61.2514C43.5795 61.2524 43.4634 61.2298 43.3552 61.185L36.7923 58.6717C35.6215 58.2198 34.6776 57.3222 34.1673 56.1756C33.6571 55.029 33.6223 53.7268 34.0704 52.5546L44.5597 25.0511C45.0079 23.8768 45.904 22.9285 47.051 22.4145C48.198 21.9006 49.5022 21.8631 50.6769 22.3102L71.9494 30.4854C73.1237 30.9336 74.072 31.8296 74.5859 32.9767C75.0998 34.1237 75.1374 35.4278 74.6903 36.6025L72.0537 43.4974C71.9632 43.7363 71.7814 43.9295 71.5484 44.0345C71.3154 44.1394 71.0503 44.1475 70.8113 44.0569C70.5724 43.9664 70.3792 43.7846 70.2742 43.5516C70.1693 43.3186 70.1612 43.0535 70.2518 42.8145L72.8788 35.9292C73.013 35.5793 73.0767 35.2063 73.0663 34.8317C73.0559 34.4572 72.9716 34.0883 72.8183 33.7464C72.6649 33.4045 72.4456 33.0962 72.1728 32.8393C71.9 32.5824 71.5791 32.3819 71.2286 32.2494L50.0035 24.1216C49.6536 23.9875 49.2807 23.9238 48.9061 23.9342C48.5315 23.9446 48.1626 24.0288 47.8207 24.1822C47.4788 24.3355 47.1705 24.5549 46.9136 24.8277C46.6567 25.1005 46.4563 25.4213 46.3237 25.7718L35.8344 53.2753C35.7014 53.6254 35.6388 53.9983 35.6502 54.3726C35.6616 54.7469 35.7468 55.1153 35.9008 55.4567C36.0492 55.7956 36.2642 56.1012 36.533 56.3553C36.8018 56.6095 37.119 56.807 37.4657 56.9362L44.0381 59.4589C44.2226 59.5514 44.3718 59.7016 44.4632 59.8866C44.5546 60.0716 44.5832 60.2814 44.5446 60.4841C44.506 60.6868 44.4023 60.8714 44.2493 61.0099C44.0962 61.1484 43.9022 61.2331 43.6967 61.2514Z" fill="black"/>
<path d="M49.1894 35.199C49.0723 35.2 48.9562 35.1774 48.848 35.1326C48.7315 35.0884 48.6249 35.0217 48.5342 34.9363C48.4436 34.8509 48.3706 34.7484 48.3195 34.6348C48.2684 34.5212 48.2402 34.3987 48.2365 34.2741C48.2328 34.1496 48.2537 34.0256 48.2979 33.9092C48.4728 33.4724 48.7626 33.091 49.1366 32.8055C49.5106 32.52 49.9549 32.341 50.4223 32.2874C50.6218 32.2602 50.8075 32.1701 50.9525 32.0303C51.0974 31.8905 51.1941 31.7081 51.2285 31.5097C51.2565 31.3263 51.2301 31.1387 51.1526 30.9701C51.075 30.8015 50.9497 30.6594 50.7922 30.5613C50.6737 30.4878 50.5404 30.4414 50.4018 30.4253C50.2633 30.4092 50.1229 30.4238 49.9906 30.4682C49.8584 30.5126 49.7376 30.5856 49.6368 30.682C49.536 30.7784 49.4577 30.8959 49.4075 31.026C49.3182 31.2612 49.1392 31.4513 48.9097 31.5545C48.6803 31.6576 48.4193 31.6654 48.1841 31.5761C47.9489 31.4868 47.7588 31.3078 47.6557 31.0783C47.5525 30.8489 47.5447 30.5879 47.634 30.3527C47.8066 29.8789 48.1021 29.4595 48.4901 29.1374C48.8781 28.8153 49.3448 28.6021 49.8422 28.5197C50.3397 28.4373 50.8502 28.4886 51.3213 28.6683C51.7925 28.848 52.2074 29.1497 52.5236 29.5425C52.8398 29.9353 53.046 30.4051 53.1209 30.9038C53.1959 31.4024 53.1369 31.9121 52.9502 32.3805C52.7634 32.8489 52.4555 33.2592 52.058 33.5695C51.6604 33.8798 51.1876 34.0788 50.6879 34.1463C50.5558 34.154 50.4285 34.1979 50.3198 34.2732C50.2111 34.3485 50.1251 34.4522 50.0714 34.573C50.0057 34.7548 49.886 34.9122 49.7284 35.0241C49.5707 35.1359 49.3827 35.197 49.1894 35.199Z" fill="black"/>
<path d="M48.212 37.731C47.9632 37.73 47.7248 37.6312 47.5481 37.456C47.4592 37.3678 47.3887 37.2629 47.3405 37.1474C47.2924 37.0318 47.2676 36.9078 47.2676 36.7826C47.2676 36.6574 47.2924 36.5335 47.3405 36.4179C47.3887 36.3023 47.4592 36.1974 47.5481 36.1093C47.7258 35.9326 47.9662 35.8335 48.2167 35.8335C48.4673 35.8335 48.7077 35.9326 48.8854 36.1093C48.9719 36.2012 49.0424 36.307 49.094 36.4223C49.1533 36.5667 49.1761 36.7235 49.1603 36.8788C49.1444 37.0342 49.0905 37.1832 49.0032 37.3127C48.916 37.4421 48.7981 37.5481 48.6601 37.6211C48.522 37.694 48.3681 37.7318 48.212 37.731Z" fill="black"/>
<path d="M44.4941 47.4802C44.377 47.4812 44.2609 47.4587 44.1527 47.4138C44.0362 47.3696 43.9296 47.3029 43.8389 47.2175C43.7482 47.1321 43.6753 47.0297 43.6242 46.9161C43.5731 46.8025 43.5449 46.6799 43.5412 46.5554C43.5375 46.4309 43.5584 46.3069 43.6026 46.1904C43.7748 45.7519 44.0639 45.3689 44.4384 45.083C44.8129 44.7971 45.2586 44.6192 45.727 44.5687C45.9265 44.5414 46.1122 44.4514 46.2571 44.3115C46.4021 44.1717 46.4987 43.9894 46.5331 43.791C46.5612 43.6075 46.5348 43.4199 46.4572 43.2513C46.3797 43.0828 46.2544 42.9406 46.0969 42.8426C45.9779 42.7681 45.8439 42.721 45.7045 42.7046C45.5651 42.6882 45.4238 42.7029 45.2907 42.7477C45.1592 42.7929 45.0392 42.8664 44.9392 42.9631C44.8392 43.0598 44.7617 43.1773 44.7122 43.3073C44.6229 43.5425 44.4439 43.7325 44.2144 43.8357C43.985 43.9389 43.724 43.9467 43.4888 43.8574C43.2536 43.7681 43.0635 43.589 42.9604 43.3596C42.8572 43.1301 42.8494 42.8691 42.9387 42.6339C43.1113 42.1601 43.4068 41.7407 43.7948 41.4186C44.1828 41.0966 44.6494 40.8834 45.1469 40.801C45.6444 40.7185 46.1549 40.7698 46.626 40.9495C47.0972 41.1292 47.5121 41.431 47.8283 41.8238C48.1445 42.2166 48.3507 42.6864 48.4256 43.185C48.5005 43.6837 48.4416 44.1933 48.2548 44.6617C48.0681 45.1301 47.7602 45.5405 47.3626 45.8507C46.9651 46.161 46.4923 46.3601 45.9926 46.4275C45.8618 46.4354 45.7356 46.4783 45.6272 46.5517C45.5187 46.6251 45.432 46.7264 45.3761 46.8448C45.3119 47.0284 45.1929 47.1878 45.0352 47.3014C44.8774 47.4151 44.6885 47.4775 44.4941 47.4802Z" fill="black"/>
<path d="M43.5179 50.0128H43.3377C43.2749 50.004 43.2139 49.9848 43.1575 49.9559C43.0992 49.937 43.0447 49.9081 42.9962 49.8705L42.854 49.7567C42.7095 49.6131 42.6151 49.4268 42.5848 49.2254C42.5545 49.024 42.5898 48.8181 42.6855 48.6383C42.7813 48.4586 42.9324 48.3144 43.1164 48.2271C43.3005 48.1399 43.5078 48.1142 43.7075 48.1539C43.829 48.1803 43.9447 48.2285 44.049 48.2962C44.0986 48.3312 44.1462 48.3692 44.1912 48.41C44.2801 48.4982 44.3507 48.6031 44.3988 48.7186C44.447 48.8342 44.4718 48.9582 44.4718 49.0834C44.4718 49.2086 44.447 49.3325 44.3988 49.4481C44.3507 49.5637 44.2801 49.6686 44.1912 49.7567L44.049 49.8705C43.9447 49.9383 43.829 49.9865 43.7075 50.0128H43.5179Z" fill="black"/>
<path d="M64.8084 36.8302C64.6913 36.8313 64.5752 36.8087 64.467 36.7639L56.491 33.7195C56.3731 33.6745 56.2654 33.6064 56.1741 33.5192C56.0829 33.4321 56.01 33.3276 55.9596 33.2119C55.9093 33.0962 55.8825 32.9716 55.8809 32.8454C55.8793 32.7193 55.903 32.594 55.9504 32.4771C55.9946 32.3606 56.0613 32.254 56.1467 32.1634C56.2321 32.0727 56.3345 31.9997 56.4481 31.9486C56.5618 31.8976 56.6843 31.8694 56.8088 31.8657C56.9333 31.8619 57.0574 31.8828 57.1738 31.927L65.1498 34.9714C65.361 35.0479 65.5382 35.197 65.6498 35.3919C65.7614 35.5869 65.8002 35.8152 65.7592 36.0361C65.7182 36.257 65.6001 36.4562 65.426 36.5981C65.2519 36.7401 65.033 36.8156 64.8084 36.8113V36.8302Z" fill="black"/>
<path d="M66.1081 41.3915C65.9915 41.3878 65.8762 41.3654 65.7667 41.3251L55.1351 37.2186C54.9189 37.1159 54.7496 36.9352 54.661 36.7128C54.5725 36.4905 54.5713 36.2428 54.6577 36.0196C54.7441 35.7964 54.9117 35.6141 55.1269 35.5093C55.3421 35.4045 55.589 35.385 55.818 35.4546L66.459 39.5516C66.6702 39.6282 66.8474 39.7772 66.959 39.9722C67.0706 40.1672 67.1094 40.3955 67.0684 40.6164C67.0274 40.8372 66.9093 41.0364 66.7352 41.1784C66.5611 41.3203 66.3422 41.3959 66.1176 41.3915H66.1081Z" fill="black"/>
</svg>
