<svg width="51" height="51" viewBox="0 0 51 51" fill="none" xmlns="http://www.w3.org/2000/svg">
<path d="M11.5863 26.3234C10.7473 26.3234 9.95924 26.77 9.52984 27.4873L8.29182 29.5513L8.22601 29.4196V26.8803L10.9003 25.8101C11.7739 25.4613 12.339 24.628 12.339 23.6869C12.339 22.9515 11.982 22.2581 11.3864 21.8287C10.7892 21.4001 10.0176 21.2849 9.32172 21.5194L9.03052 21.6173L9.36285 20.9526C9.69518 20.2871 9.87122 19.5427 9.87122 18.7999C9.87122 17.5051 8.81829 16.4521 7.52351 16.4521C6.62852 16.4521 5.82484 16.949 5.42341 17.7502L3.3776 21.8427L1.66165 30.2751L1.6452 41.1302L2.29094 44.4206H0V50.1788H12.339V44.4206H9.87122V38.9116L11.3782 36.6511L13.619 30.7383C13.8617 30.0909 13.9842 29.4122 13.9842 28.7212C13.9842 27.3993 12.9083 26.3234 11.5863 26.3234ZM9.84736 23.0782C10.0448 23.0124 10.2562 23.0437 10.4265 23.1654C10.5968 23.2871 10.6938 23.4772 10.6938 23.6869C10.6938 23.951 10.5359 24.1838 10.2907 24.2825L8.22601 25.1084V23.6236L9.84736 23.0782ZM10.6938 46.0658V48.5336H1.6452V46.0658H10.6938ZM12.0783 30.16L9.95759 35.817L8.22601 38.4131V44.4206H3.96494L3.29041 41.0488V30.5178L4.89777 22.4802L6.89504 18.4873C7.01432 18.2462 7.25534 18.0974 7.52351 18.0974C7.91013 18.0974 8.22601 18.4132 8.22601 18.7999C8.22601 19.2885 8.11003 19.7787 7.89122 20.218L6.58081 22.8388V29.8087L8.16021 32.9675L10.9406 28.3338C11.0755 28.1084 11.3231 27.9686 11.5863 27.9686C12.0018 27.9686 12.339 28.3058 12.339 28.7212C12.339 29.2148 12.2518 29.6993 12.0783 30.16Z" fill="black"/>
<path d="M48.713 44.4206L49.339 41.2914L49.3546 30.4364L47.693 22.0491L45.5764 17.7502C45.1758 16.949 44.3713 16.4521 43.4763 16.4521C42.1816 16.4521 41.1286 17.5051 41.1286 18.7999C41.1286 19.5418 41.3047 20.2871 41.637 20.9534L41.9685 21.6164L41.6781 21.5186C40.983 21.2833 40.2106 21.3993 39.6134 21.8278C39.0178 22.2581 38.6608 22.9515 38.6608 23.6869C38.6608 24.6288 39.226 25.4613 40.0987 25.8101L42.7738 26.8803V29.4196L42.708 29.5513L41.47 27.4882C41.0406 26.77 40.2526 26.3234 39.4135 26.3234C38.0916 26.3234 37.0156 27.3993 37.0156 28.7212C37.0156 29.4122 37.1382 30.0909 37.3809 30.7383L39.5353 36.4833L41.1286 38.9116V44.4206H38.6608V50.1788H50.9998V44.4206H48.713ZM40.7083 24.2825C40.464 24.1838 40.306 23.951 40.306 23.6869C40.306 23.4772 40.4031 23.288 40.5734 23.1654C40.7437 23.0428 40.9534 23.0116 41.1525 23.0782L42.7738 23.6236V25.1084L40.7083 24.2825ZM41.0431 35.817L38.9224 30.16C38.748 29.6993 38.6608 29.2148 38.6608 28.7212C38.6608 28.3058 38.9981 27.9686 39.4135 27.9686C39.6767 27.9686 39.9243 28.1084 40.0593 28.3338L42.8396 32.9667L44.419 29.8079V22.838L43.1086 20.218C42.8898 19.7796 42.7738 19.2885 42.7738 18.7999C42.7738 18.4132 43.0897 18.0974 43.4763 18.0974C43.7437 18.0974 43.9847 18.2462 44.1048 18.4864L46.1021 22.4793L47.7094 30.5178V41.0496L47.0349 44.4206H42.7738V38.4131L41.0431 35.817ZM49.3546 48.5336H40.306V46.0658H49.3546V48.5336Z" fill="black"/>
<path d="M35.8999 14.8068H37.8421V9.87122H35.8999C35.6375 8.75577 35.2024 7.70366 34.6011 6.73217L35.9732 5.35925L32.4837 1.86977L31.1099 3.24105C30.1376 2.63973 29.0863 2.20457 27.9709 1.94216V0H23.0353V1.94216C21.9198 2.20457 20.8677 2.63973 19.8962 3.24105L18.5233 1.86895L15.0338 5.35843L16.4059 6.73135C15.8046 7.70366 15.3695 8.75495 15.107 9.87039H13.1641V14.806H15.1062C15.3686 15.9214 15.8038 16.9736 16.4051 17.945L15.033 19.318L18.5225 22.8074L19.7827 21.5472C19.7728 21.6303 19.7572 21.7117 19.7572 21.7973C19.7572 22.5294 20.1438 23.1677 20.7205 23.533C20.6333 23.7617 20.5798 24.0068 20.5798 24.2651C20.5798 25.3995 21.502 26.3216 22.6363 26.3216H28.3945C29.5289 26.3216 30.451 25.3995 30.451 24.2651C30.451 24.006 30.3976 23.7608 30.3104 23.533C30.887 23.1686 31.2736 22.5294 31.2736 21.7973C31.2736 21.7216 31.2596 21.6492 31.2514 21.576L32.4829 22.8074L35.9723 19.318L34.6002 17.945C35.2024 16.9744 35.6367 15.9223 35.8999 14.8068ZM28.3953 24.678H22.6371C22.4109 24.678 22.2258 24.493 22.2258 24.2667C22.2258 24.0405 22.4109 23.8554 22.6371 23.8554H28.3953C28.6216 23.8554 28.8067 24.0405 28.8067 24.2667C28.8067 24.493 28.6216 24.678 28.3953 24.678ZM29.218 22.2102H28.3953H22.6371H21.8145C21.5883 22.2102 21.4032 22.0252 21.4032 21.7989C21.4032 21.5727 21.5883 21.3876 21.8145 21.3876H29.218C29.4442 21.3876 29.6293 21.5727 29.6293 21.7989C29.6293 22.0252 29.4442 22.2102 29.218 22.2102ZM26.3388 14.6555C27.2939 14.3149 27.984 13.41 27.984 12.339C27.984 10.9784 26.8768 9.87122 25.5162 9.87122C24.1557 9.87122 23.0484 10.9784 23.0484 12.339C23.0484 13.41 23.7386 14.3149 24.6936 14.6555V19.7424H23.0484V17.5584L22.638 17.3207C20.862 16.2916 19.758 14.3832 19.758 12.339C19.758 9.1646 22.3418 6.58081 25.5162 6.58081C28.6907 6.58081 31.2745 9.1646 31.2745 12.339C31.2745 14.3824 30.1705 16.2916 28.3945 17.3207L27.984 17.5584V19.7424H26.3388V14.6555ZM25.5162 13.1616C25.0622 13.1616 24.6936 12.7931 24.6936 12.339C24.6936 11.8849 25.0622 11.5164 25.5162 11.5164C25.9703 11.5164 26.3388 11.8849 26.3388 12.339C26.3388 12.7931 25.9703 13.1616 25.5162 13.1616ZM34.4151 13.8477C34.1873 15.205 33.6682 16.4594 32.8736 17.5749L32.4705 18.1408L33.6468 19.3188L32.4837 20.482L31.3057 19.304L30.7389 19.7079C30.5884 19.8148 30.4239 19.9218 30.2479 20.0279C30.0578 19.9168 29.8522 19.828 29.6293 19.7827V18.4871C31.6701 17.1192 32.9197 14.8052 32.9197 12.3374C32.9197 8.25481 29.5988 4.93396 25.5162 4.93396C21.4337 4.93396 18.1128 8.25481 18.1128 12.3374C18.1128 14.8044 19.3624 17.1183 21.4032 18.4863V19.7827C21.1754 19.8288 20.9656 19.9201 20.7715 20.0353C20.5922 19.9267 20.4227 19.8181 20.268 19.7079L19.7013 19.304L18.5233 20.482L17.3602 19.3188L18.5365 18.1408L18.1334 17.5749C17.3388 16.4594 16.8197 15.205 16.5918 13.8477L16.475 13.1616H14.8093V11.5164H16.475L16.591 10.8304C16.8189 9.47308 17.3379 8.21861 18.1326 7.10316L18.5357 6.53721L17.3593 5.35925L18.5225 4.19609L19.7005 5.37241L20.2664 4.96933C21.3819 4.1747 22.6363 3.65564 23.9936 3.42778L24.6805 3.31097V1.6452H26.3257V3.31097L27.0117 3.42696C28.369 3.65482 29.6235 4.17388 30.7389 4.96851L31.3049 5.37159L32.4829 4.19527L33.646 5.35843L32.4697 6.53639L32.8728 7.10234C33.6674 8.21779 34.1865 9.47225 34.4143 10.8295L34.5311 11.5164H36.1969V13.1616H34.5311L34.4151 13.8477Z" fill="black"/>
<path d="M26.321 27.9683H24.6758V29.6135H26.321V27.9683Z" fill="black"/>
<path d="M26.321 31.2588H24.6758V32.904H26.321V31.2588Z" fill="black"/>
<path d="M26.321 34.5493H24.6758V36.1945H26.321V34.5493Z" fill="black"/>
<path d="M26.321 37.8398H24.6758V39.485H26.321V37.8398Z" fill="black"/>
</svg>
