<svg width="39" height="246" viewBox="0 0 39 246" fill="none" xmlns="http://www.w3.org/2000/svg">
<path d="M21.4194 209.815H21.4129C21.2306 209.781 21.0875 209.013 21.094 208.078C21.3673 151.466 21.5496 91.0133 21.6993 12.1574L21.6602 1.70337C21.6537 0.768185 21.8034 0 21.9791 0C22.1614 0 22.3111 0.734786 22.3111 1.63657L22.3501 12.1574C22.2004 91.1134 22.0117 151.533 21.7448 208.178C21.7448 209.08 21.5951 209.815 21.4194 209.815Z" fill="#157B6C"/>
<path d="M18.7656 208.72C18.8076 207.007 18.858 205.302 18.8999 203.589C18.9167 203.035 18.9335 202.455 19.2189 201.976C19.7057 201.137 20.8051 200.918 21.7619 200.969C22.2487 200.994 22.7607 201.078 23.1636 201.363C23.5161 201.607 23.7595 201.985 23.9273 202.388C24.2379 203.144 24.2715 203.975 24.305 204.781C24.347 205.999 24.389 207.217 24.4142 208.443C24.4142 208.628 24.4057 208.838 24.2631 208.947C24.1623 209.022 24.0365 209.014 23.9106 209.014C22.2152 208.955 20.5282 208.896 18.7656 208.72Z" fill="white" fill-opacity="0.1"/>
<path d="M23.9596 209.434C23.926 209.434 23.9008 209.434 23.8757 209.434C22.2138 209.384 20.5017 209.325 18.7139 209.148C18.4957 209.123 18.3278 208.938 18.3362 208.72L18.4705 203.589C18.4873 203.043 18.5041 202.354 18.8398 201.775C19.335 200.927 20.4009 200.482 21.769 200.557C22.2138 200.582 22.8601 200.658 23.3889 201.028C23.7749 201.296 24.0771 201.699 24.2953 202.237C24.6394 203.077 24.673 204.026 24.7066 204.781C24.7485 205.991 24.7905 207.225 24.8157 208.443C24.8157 208.628 24.8241 209.048 24.4884 209.3C24.3121 209.417 24.1023 209.434 23.9596 209.434ZM19.1923 208.334C20.8122 208.477 22.3817 208.527 23.9008 208.577C23.9176 208.577 23.9428 208.577 23.968 208.577C23.968 208.552 23.9764 208.502 23.968 208.435C23.9428 207.217 23.9092 205.991 23.8673 204.781C23.8421 204.059 23.8085 203.236 23.5232 202.531C23.3721 202.153 23.1623 201.867 22.9105 201.699C22.6419 201.506 22.2726 201.414 21.727 201.38C21.2318 201.355 20.04 201.38 19.57 202.178C19.335 202.573 19.3266 203.11 19.3098 203.589L19.1923 208.334Z" fill="#157B6C"/>
<path d="M13.691 236.56C13.3721 237.794 13.6575 239.113 14.0855 240.322C14.5975 241.775 15.3529 243.219 16.6034 244.101C18.6262 245.52 21.5889 245 23.2843 243.228C24.9797 241.456 25.4665 238.71 24.8874 236.283C21.2448 236.241 17.6022 236.19 13.691 236.56Z" fill="#157B6C"/>
<path d="M19.3149 245.344C18.2574 245.344 17.225 245.05 16.3605 244.445C15.2191 243.648 14.3378 242.338 13.6832 240.465C13.1208 238.852 12.9949 237.584 13.2803 236.459C13.3222 236.283 13.4733 236.157 13.6496 236.14C17.5859 235.77 21.2956 235.821 24.8879 235.863C25.0809 235.863 25.2488 235.997 25.2907 236.19C25.9454 238.928 25.2907 241.741 23.5869 243.522C22.4455 244.714 20.8592 245.344 19.3149 245.344ZM14.0356 236.954C13.8846 237.845 14.0273 238.886 14.4805 240.188C15.0764 241.892 15.8485 243.06 16.8389 243.757C18.6099 244.991 21.3628 244.63 22.9742 242.934C24.4178 241.422 25.0054 239.062 24.5437 236.702C21.1697 236.66 17.6866 236.627 14.0356 236.954Z" fill="#157B6C"/>
<path d="M38.4867 239.18C25.7797 239.054 13.0642 238.92 0.785156 238.29C1.55732 232.033 3.65559 226.062 9.03554 222.913C10.9156 221.813 9.8161 222.577 13.6601 219.948C16.8998 217.731 13.509 211.273 16.2116 208.401C17.8147 206.696 20.3074 206.595 22.6155 206.814C25.402 207.083 28.2808 208.72 28.5326 211.063C28.9354 214.784 27.1813 217.337 29.3467 220.368C30.0937 221.418 32.8214 223.904 33.8202 224.702C37.7565 227.826 38.8812 234.511 38.4867 239.18Z" fill="white" fill-opacity="0.1"/>
<path d="M38.4888 239.608C25.9831 239.482 13.0662 239.348 0.761991 238.718C0.644488 238.71 0.535391 238.659 0.459853 238.567C0.384316 238.474 0.35073 238.357 0.367516 238.239C1.32432 230.454 4.08564 225.323 8.81932 222.552C9.26415 222.291 9.54952 222.132 9.76774 222.006C10.4476 221.628 10.5063 221.594 13.4271 219.596C14.9211 218.579 14.8204 216.429 14.7113 214.154C14.6021 211.92 14.493 209.61 15.9115 208.107C17.716 206.184 20.4689 206.184 22.6594 206.394C25.4963 206.663 28.6689 208.376 28.9542 211.021C29.1053 212.432 28.9626 213.7 28.8283 214.817C28.6101 216.707 28.4171 218.336 29.6928 220.125C30.3811 221.09 33.0333 223.534 34.0908 224.374C38.0271 227.49 39.3532 234.074 38.9252 239.213C38.8916 239.44 38.707 239.608 38.4888 239.608ZM1.26558 237.895C13.2844 238.5 25.8908 238.634 38.1027 238.752C38.4048 234.04 37.1375 227.868 33.562 225.037C32.6304 224.298 29.802 221.737 29.0046 220.62C27.5358 218.571 27.754 216.698 27.989 214.716C28.1233 213.591 28.2576 212.432 28.1149 211.114C27.8883 208.997 25.1186 207.477 22.5755 207.242C20.5696 207.049 18.0685 207.04 16.5241 208.695C15.3575 209.938 15.4582 212.071 15.5589 214.128C15.6764 216.53 15.7939 219.024 13.9055 220.309C10.9595 222.325 10.9008 222.359 10.1874 222.753C9.96917 222.871 9.70061 223.03 9.25578 223.291C4.84943 225.861 2.23078 230.647 1.26558 237.895Z" fill="#157B6C"/>
<path d="M37.3123 237.391L2.84203 236.131C2.7665 236.131 2.69935 236.064 2.70774 235.989C2.70774 235.913 2.78329 235.854 2.85044 235.854L37.3123 237.114C37.3878 237.114 37.455 237.181 37.4466 237.257C37.4466 237.332 37.3878 237.391 37.3123 237.391Z" fill="#157B6C"/>
<path d="M37.1133 235.695H37.1049C25.9254 234.914 14.5696 234.393 3.37328 234.149C3.29775 234.149 3.2306 234.082 3.23899 234.007C3.23899 233.931 3.30615 233.881 3.38169 233.872C14.5864 234.116 25.9422 234.637 37.1301 235.418C37.2057 235.426 37.2644 235.493 37.2644 235.569C37.2476 235.644 37.1889 235.695 37.1133 235.695Z" fill="#157B6C"/>
<g opacity="0.1294">
<path d="M24.5243 239.214C24.0124 238.962 23.4081 239.13 22.8625 239.037C21.4273 239.037 20.0005 238.962 18.5653 238.936C16.9203 238.92 16.7356 238.894 15.3088 238.668C14.8052 238.6 14.268 238.357 13.798 238.659C12.9587 239.121 13.135 240.507 14.0666 240.734C16.5006 241.162 18.9849 241.128 21.4441 241.002C22.2415 241.002 23.0388 241.061 23.8361 240.969C24.1467 241.027 24.4824 240.952 24.709 240.708C25.1454 240.288 25.0363 239.516 24.5243 239.214Z" fill="#157B6C"/>
</g>
</svg>
