<svg width="53" height="43" viewBox="0 0 53 43" fill="none" xmlns="http://www.w3.org/2000/svg">
<g clip-path="url(#clip0_3928_3411)">
<path fill-rule="evenodd" clip-rule="evenodd" d="M49.3597 13.9667C48.7127 14.2319 48.0614 14.3667 47.4145 14.3884C46.513 14.4188 45.6073 14.2276 44.7015 13.8581C44.0847 13.5407 43.5197 13.1104 43.0452 12.5931C42.6269 12.1367 42.2732 11.615 41.9972 11.0412C41.7211 11.615 41.3674 12.1367 40.9491 12.5931C39.8923 13.745 38.4345 14.4536 36.83 14.4536C35.2298 14.4536 33.7677 13.7364 32.7109 12.5931C32.2926 12.1367 31.9389 11.615 31.6628 11.0412C31.3868 11.615 31.0288 12.1367 30.6147 12.5931C29.558 13.745 28.1002 14.4536 26.4957 14.4536C24.8912 14.4536 23.4334 13.7364 22.3766 12.5931C21.9583 12.1367 21.6046 11.615 21.3285 11.0412C21.0525 11.615 20.6945 12.1367 20.2804 12.5931C19.2237 13.745 17.7659 14.4536 16.1614 14.4536C14.5569 14.4536 13.099 13.7364 12.0423 12.5931C11.6239 12.1367 11.2703 11.615 10.9942 11.0412C10.7225 11.615 10.3645 12.1367 9.94613 12.5931C9.25171 13.3495 8.38477 13.9189 7.40999 14.2189C6.20662 14.484 5.13696 14.4232 4.18376 14.1276C4.0026 14.0711 3.82577 14.0059 3.65324 13.9363V30.7329C3.65324 31.4197 4.21395 31.9848 4.89543 31.9848H48.1261C48.8076 31.9848 49.3683 31.4197 49.3683 30.7329V13.9667H49.3597ZM1.80721 12.6931C1.77702 12.6627 1.74251 12.6279 1.71232 12.5931C0.651286 11.4412 0 9.85453 0 8.10706V5.64234V5.60756C0 5.48585 0.0258789 5.35979 0.0819499 5.25111L4.66683 0.369491C4.7876 0.134755 5.01619 0 5.2491 0H47.3886C47.656 0 47.8803 0.165184 47.9881 0.408613L52.9051 5.22938C52.9655 5.3337 52.9957 5.45107 53 5.56844C53.0043 5.59017 53.0043 5.61626 53.0043 5.64234V8.10706C53.0043 9.85018 52.3487 11.4412 51.292 12.5888C51.2618 12.6235 51.2273 12.654 51.1971 12.6887V35.971C51.1971 36.7491 50.5674 37.3881 49.791 37.3881H32.8748C32.9482 39.5442 33.8712 41.4786 36.2736 43.0043H16.735C18.6759 41.5872 20.0863 39.8832 20.1338 37.3881H3.2133C2.44124 37.3881 1.80721 36.7534 1.80721 35.971V12.6931ZM19.172 17.3747C18.8916 17.3747 18.6544 17.1357 18.6544 16.8401C18.6544 16.5575 18.8916 16.3184 19.172 16.3184H19.8879C19.9009 16.3184 19.9268 16.3184 19.9397 16.3184C20.4185 16.3315 20.8455 16.4271 21.2035 16.6532C21.6003 16.9096 21.8936 17.2965 22.0531 17.8703C22.0531 17.8833 22.0531 17.8964 22.0661 17.9094L22.1998 18.4441H33.703H33.828C34.1213 18.4441 34.3456 18.6832 34.3456 18.9657C34.3456 19.0179 34.3327 19.0744 34.3197 19.1266L32.9654 24.3168C32.9137 24.5559 32.698 24.7167 32.4608 24.7167H23.9552C24.1407 25.4123 24.3262 25.7861 24.5807 25.9643C24.8869 26.1643 25.4174 26.1773 26.3102 26.1643H26.3232H32.3314C32.6247 26.1643 32.849 26.4034 32.849 26.6859C32.849 26.9815 32.6117 27.2075 32.3314 27.2075H26.3232C25.219 27.2206 24.5418 27.1945 23.9984 26.8337C23.442 26.4599 23.1487 25.8165 22.8554 24.6515L21.0741 18.1702C21.0741 18.1572 21.0741 18.1572 21.0611 18.1442C20.9835 17.8486 20.8498 17.6486 20.6643 17.5399C20.4788 17.4182 20.2244 17.3661 19.9354 17.3661C19.9224 17.3661 19.9095 17.3661 19.8966 17.3661L19.172 17.3747ZM29.4329 21.7652C29.4329 21.6 29.5968 21.4652 29.7952 21.4652C29.9937 21.4652 30.1576 21.6 30.1576 21.7652V22.3911C30.1576 22.5563 29.9937 22.6911 29.7952 22.6911C29.5968 22.6911 29.4329 22.5563 29.4329 22.3911V21.7652ZM27.2677 21.7652C27.2677 21.6 27.4316 21.4652 27.63 21.4652C27.8285 21.4652 27.9924 21.6 27.9924 21.7652V22.3911C27.9924 22.5563 27.8285 22.6911 27.63 22.6911C27.4316 22.6911 27.2677 22.5563 27.2677 22.3911V21.7652ZM25.1025 21.7652C25.1025 21.6 25.2664 21.4652 25.4648 21.4652C25.6632 21.4652 25.8272 21.6 25.8272 21.7652V22.3911C25.8272 22.5563 25.6632 22.6911 25.4648 22.6911C25.2664 22.6911 25.1025 22.5563 25.1025 22.3911V21.7652ZM22.4931 19.4874L23.6749 23.6604H32.0597L33.1638 19.4874C29.6098 19.4874 26.0514 19.4874 22.4931 19.4874ZM30.7743 27.8292C31.4774 27.8292 32.051 28.403 32.051 29.1159C32.051 29.8288 31.4817 30.4025 30.7743 30.4025C30.0713 30.4025 29.4976 29.8288 29.4976 29.1159C29.4976 28.403 30.0713 27.8292 30.7743 27.8292ZM25.1802 27.8292C25.8832 27.8292 26.4569 28.403 26.4569 29.1159C26.4569 29.8288 25.8875 30.4025 25.1802 30.4025C24.4728 30.4025 23.9035 29.8288 23.9035 29.1159C23.9035 28.403 24.4728 27.8292 25.1802 27.8292ZM2.34635 4.92074H10.4723L12.0682 1.44753H5.63298L2.34635 4.92074ZM31.5981 1.44753L32.2624 4.92074H41.1345L39.3187 1.44753H31.5981ZM30.9296 4.92074L30.2654 1.44753H22.7087L22.0575 4.92074H30.9296ZM20.729 4.92074L21.3803 1.44753H13.4312L11.831 4.92074H20.729ZM40.6903 1.44753L42.5061 4.92074H50.6062L47.009 1.44753H40.6903ZM42.6657 6.36393V8.10271C42.6657 9.45026 43.1703 10.6761 43.9898 11.5629C44.805 12.4497 45.9307 13.0017 47.1686 13.0017C48.4065 13.0017 49.5322 12.454 50.3474 11.5629C51.1626 10.6761 51.6716 9.45026 51.6716 8.10271V6.36393H42.6657ZM32.3271 6.36393V8.10271C32.3271 9.45026 32.8317 10.6761 33.6512 11.5629C34.4664 12.4497 35.5921 13.0017 36.83 13.0017C38.0679 13.0017 39.1936 12.454 40.0088 11.5629C40.824 10.6761 41.3329 9.45026 41.3329 8.10271V6.36393H32.3271ZM21.9971 6.36393V8.10271C21.9971 9.45026 22.5017 10.6761 23.3212 11.5629C24.1364 12.4497 25.2621 13.0017 26.5 13.0017C27.7379 13.0017 28.8636 12.454 29.6788 11.5629C30.494 10.6761 31.0029 9.45026 31.0029 8.10271V6.36393H21.9971ZM11.6628 6.36393V8.10271C11.6628 9.45026 12.1674 10.6761 12.9869 11.5629C13.8021 12.4497 14.9278 13.0017 16.1657 13.0017C17.4036 13.0017 18.5293 12.454 19.3445 11.5629C20.1597 10.6761 20.6686 9.45026 20.6686 8.10271V6.36393H11.6628ZM10.3343 6.36393H1.32845V8.10271C1.32845 9.45026 1.83309 10.6761 2.65259 11.5629C3.46777 12.4497 4.59351 13.0017 5.83138 13.0017C7.06925 13.0017 8.19499 12.454 9.01017 11.5629C9.82536 10.6761 10.3343 9.45026 10.3343 8.10271V6.36393Z" fill="black"/>
</g>
<defs>
<clipPath id="clip0_3928_3411">
<rect width="53" height="43" fill="white"/>
</clipPath>
</defs>
</svg>
