<svg width="73" height="76" viewBox="0 0 73 76" fill="none" xmlns="http://www.w3.org/2000/svg">
<path d="M72.1249 45.5211C71.9002 44.8673 71.4952 44.2902 70.9567 43.8566C70.4181 43.4231 69.7679 43.1506 69.0812 43.0707C68.2698 42.9732 67.4475 43.0191 66.652 43.2064C65.4216 43.4782 64.17 43.6429 62.9112 43.6986C66.2775 38.0193 68.8486 31.905 70.5525 25.5267C73.088 15.7118 71.7338 11.242 70.1507 9.21726C68.0484 6.55759 65.3579 4.42177 62.2907 2.97771C59.2235 1.53365 55.8631 0.820697 52.4737 0.894901C49.3644 0.86577 46.2681 1.29977 43.2866 2.18263C41.5109 1.87818 39.7138 1.71449 37.9122 1.69308C34.6376 1.56875 31.3941 2.36811 28.5522 3.99982C26.397 3.27113 24.187 2.71595 21.9433 2.33961C19.3277 1.71214 16.6141 1.6063 13.9577 2.02812C11.3012 2.44995 8.75383 3.39117 6.46128 4.798C1.8478 8.05457 -0.291321 13.7163 0.105109 21.6263C0.814903 27.5272 2.06714 33.3502 3.84591 39.0213C4.87034 42.5636 6.21875 46.0041 7.87406 49.2992C9.09654 52.3051 11.4205 54.7309 14.3712 56.0811C15.4528 56.4374 16.6101 56.4981 17.723 56.2567C18.8359 56.0153 19.864 55.4806 20.7008 54.7082C21.0806 55.1579 21.5297 55.5441 22.0311 55.8522C22.8083 56.3346 23.6556 56.6936 24.5427 56.9165C27.4466 57.7253 30.5377 57.538 33.3227 56.3844C33.3387 56.8393 33.352 57.2757 33.3599 57.6535C33.3759 58.2627 33.3945 58.8614 33.4158 59.4228C33.3842 62.3905 33.7794 65.3474 34.5891 68.2027C34.6317 68.3172 34.6876 68.4874 34.7461 68.671C35.2135 70.4186 36.1213 72.0171 37.3828 73.3138C38.8952 74.7026 40.891 75.4445 42.9434 75.381C43.8176 75.3755 44.6889 75.2783 45.5428 75.091C47.1616 74.8878 48.7233 74.3624 50.1358 73.5458C51.5483 72.7292 52.7828 71.638 53.7667 70.3365C55.9245 67.2636 56.9754 62.6368 57.1643 55.3441C57.1883 55.1365 57.2122 54.9397 57.2335 54.7534L57.2787 54.3676L57.7869 54.4129H57.9173C60.7945 54.5347 63.6643 54.0375 66.3328 52.9548C68.0116 52.1753 73.394 49.3338 72.1249 45.5052" fill="black"/>
<path d="M67.2892 46.266C58.8738 48.0007 58.2964 45.1539 58.2964 45.1539C67.1802 31.9706 70.8944 15.2354 67.6883 11.1407C58.9456 -0.0337762 43.8095 5.25284 43.5567 5.38853L43.4742 5.40449C41.6255 5.03345 39.7459 4.83748 37.8604 4.81916C34.6806 4.65962 31.5428 5.59907 28.974 7.47976C28.974 7.47976 1.97418 -3.64421 3.22999 21.4692C3.49605 26.8117 10.8872 61.8943 19.7018 51.2972C22.9237 47.4233 26.0366 44.1455 26.0366 44.1455C27.6044 45.2036 29.4907 45.6851 31.3738 45.5077L31.5255 45.38C31.481 45.8834 31.5015 46.3904 31.5867 46.8886C29.3145 49.4268 29.9903 49.8711 25.4433 50.805C20.8511 51.7521 23.549 53.4363 25.3103 53.878C27.1817 54.4833 29.1964 54.482 31.067 53.8743C32.9376 53.2665 34.5684 52.0833 35.7266 50.4937L35.5935 51.0258C36.4822 51.7388 37.1074 55.6606 37.0036 59.2178C36.7134 61.8634 36.8936 64.5395 37.5358 67.1224C38.2382 69.0301 38.9352 73.319 44.903 72.0419C47.0251 71.8322 48.9988 70.859 50.4572 69.3033C51.9156 67.7475 52.7593 65.715 52.8315 63.5838C53.0976 60.3006 53.6643 60.7849 53.6989 57.8502L54.1618 56.4614C54.694 52.0102 54.247 50.5735 57.3173 51.2413L58.065 51.3078C60.4404 51.4076 62.8104 51.0088 65.0224 50.1372C68.7632 48.4024 70.9795 45.5024 67.2919 46.266" fill="#336791"/>
<path d="M30.5515 23.8583C29.9412 23.7298 29.305 23.8242 28.7582 24.1243C28.687 24.1756 28.6268 24.2406 28.5811 24.3156C28.5354 24.3905 28.5051 24.4738 28.4922 24.5607C28.4922 24.8675 28.6027 25.164 28.8035 25.3961C29.1605 25.8863 29.6935 26.2192 30.2908 26.3246C30.3701 26.3356 30.4501 26.3409 30.5302 26.3406C30.9255 26.3457 31.3128 26.2293 31.6397 26.0071C31.9666 25.7849 32.2174 25.4675 32.358 25.0981C32.4512 24.4383 31.4907 23.9966 30.5595 23.8662M55.6809 23.8875C55.609 23.3687 54.6858 23.2224 53.8184 23.3554C52.9511 23.4884 52.097 23.8716 52.1689 24.3904C52.3041 24.7159 52.5333 24.9937 52.8271 25.1884C53.1208 25.3832 53.466 25.486 53.8184 25.4839C53.8923 25.4837 53.9661 25.4784 54.0393 25.4679C54.5007 25.3869 54.9224 25.1559 55.2392 24.8108C55.5041 24.5781 55.6658 24.2499 55.6888 23.8982" fill="white"/>
<path d="M70.0854 46.0692C69.7635 45.0981 68.7312 44.7868 67.0151 45.1407C61.92 46.2049 60.0975 45.4626 59.4962 45.0236C63.5309 38.83 66.5598 32.0368 68.4704 24.8962C69.2438 22.0716 69.6901 19.1676 69.8007 16.2412C70.0058 14.1943 69.5298 12.1368 68.4465 10.3879C66.5289 7.9746 64.0771 6.03956 61.2843 4.73525C58.4915 3.43094 55.4339 2.79301 52.3525 2.87173C49.1873 2.8222 46.0373 3.31811 43.0404 4.33772C41.3264 3.91478 39.5696 3.68894 37.8044 3.66459C34.6284 3.52503 31.4892 4.38989 28.8328 6.13628C26.4683 5.27176 24.0274 4.63216 21.5428 4.22597C16.7931 3.07657 11.7818 3.84614 7.59591 6.36776C3.60501 9.19863 1.74259 14.2591 2.11242 21.4081C2.81129 27.1378 4.03408 32.7913 5.76542 38.2976C8.61226 47.623 11.7065 52.9043 14.9631 53.9951C15.3841 54.137 15.8252 54.2097 16.2695 54.2107C17.0962 54.1595 17.9003 53.9206 18.6209 53.5121C19.3414 53.1037 19.9594 52.5364 20.428 51.8534C22.2762 49.6362 24.1874 47.474 26.1616 45.3668C27.4307 46.0537 28.8431 46.4337 30.2855 46.4763V46.588C30.0372 46.8825 29.7951 47.1822 29.5592 47.4873C28.5614 48.7511 28.3566 49.0145 25.1479 49.677C24.2353 49.8659 21.8115 50.3661 21.7769 52.0715C21.7397 53.934 24.6424 54.7082 24.9696 54.7907C26.0555 55.0699 27.1715 55.2147 28.2927 55.2217C30.7448 55.2669 33.1225 54.3786 34.9442 52.7367C34.6722 57.8001 35.0125 62.8778 35.9579 67.8595C36.3947 69.4544 37.3402 70.8631 38.6507 71.8715C39.9612 72.88 41.5651 73.4331 43.2187 73.4468C44.039 73.4443 44.8568 73.3551 45.6585 73.1807C47.8472 72.9917 49.8964 72.0266 51.4361 70.4595C52.9759 68.8925 53.9048 66.8267 54.0553 64.6349C54.5262 61.9051 55.3351 55.3893 55.7155 51.8933C56.677 52.1575 57.6719 52.2803 58.6688 52.2578C60.9648 52.2743 63.2418 51.8405 65.3708 50.9807C67.2652 50.1 70.692 47.9449 70.0615 46.0692H70.0854ZM57.6072 22.4458C57.5731 23.4335 57.47 24.4177 57.2986 25.391C57.1008 26.5348 56.9764 27.6901 56.9261 28.8498C56.9171 30.1583 57.006 31.4657 57.1922 32.7609C57.7669 35.4119 57.5551 38.1731 56.5829 40.7055C56.3764 40.3392 56.1925 39.9607 56.0321 39.572C55.8778 39.1969 55.5399 38.5929 55.077 37.7602C53.2678 34.5142 49.0268 26.9102 51.1978 23.808C51.8443 22.8848 53.4859 21.9456 57.6045 22.4458H57.6072ZM52.6133 4.96828C55.3366 4.9126 58.0358 5.48963 60.4984 6.65397C62.9609 7.81831 65.1197 9.5382 66.8049 11.6783C69.399 14.9908 66.5388 30.0684 58.2777 43.0734L58.0276 42.7568L57.9238 42.6264C59.5651 39.5251 60.0426 35.9389 59.2701 32.5161C59.0922 31.3254 59.0033 30.123 59.004 28.919C59.0522 27.8431 59.1687 26.7714 59.3526 25.7103C59.592 24.4002 59.7016 23.0697 59.6798 21.738C59.7231 21.5551 59.7348 21.3662 59.7144 21.1793C58.8328 17.6166 57.0854 14.3266 54.6273 11.6012C52.4186 8.99841 49.6561 6.92221 46.5418 5.52434C48.5362 5.10847 50.571 4.91749 52.6079 4.95498L52.6133 4.96828ZM18.8369 50.5257C17.1688 52.5318 16.0141 52.1487 15.6442 52.021C13.1752 51.1962 10.3071 45.9761 7.78216 37.6963C6.10566 32.3518 4.91247 26.8676 4.21695 21.3097C3.89768 14.9242 5.44615 10.4704 8.81979 8.07586C14.3086 4.1834 23.336 6.51409 26.9624 7.69539C26.9092 7.74595 26.856 7.79384 26.8054 7.84705C20.8537 13.8573 20.9947 24.1273 21.0107 24.7552C21.0107 24.9973 21.0293 25.3405 21.0585 25.8194C21.2767 28.6804 21.2045 31.5561 20.843 34.4025C20.5957 36.0323 20.7228 37.697 21.2146 39.2704C21.7065 40.8437 22.5503 42.2844 23.6819 43.4831C23.9178 43.7279 24.1644 43.9602 24.4215 44.1802C23.4025 45.271 21.1863 47.6869 18.8343 50.5257H18.8369ZM25.1958 42.0384C24.2782 41.0683 23.594 39.9018 23.1952 38.6274C22.7964 37.3531 22.6935 36.0046 22.8944 34.6845C23.2757 31.7016 23.3533 28.6876 23.1258 25.689C23.1099 25.4363 23.0966 25.2154 23.0886 25.0425C25.3173 23.3628 28.0832 22.5556 30.8655 22.773C31.5057 22.9181 32.0848 23.2589 32.5225 23.748C32.9601 24.2372 33.2347 24.8505 33.3079 25.5028C35.0267 33.4553 33.5341 36.7678 32.3368 39.431C32.0894 39.9791 31.8553 40.4953 31.6584 41.0274L31.5041 41.4424C31.1217 42.4065 30.7948 43.3916 30.525 44.393C29.5247 44.3788 28.5377 44.1624 27.6232 43.7568C26.7087 43.3513 25.8858 42.7649 25.2038 42.0331L25.1958 42.0384ZM25.4964 52.7606C25.0028 52.6392 24.5326 52.4369 24.1049 52.162C24.5805 51.9588 25.0777 51.8107 25.5869 51.7203C29.3596 50.9434 29.9423 50.39 31.2167 48.7804C31.5094 48.4105 31.8393 47.9822 32.2969 47.4793C32.978 46.7157 33.292 46.8461 33.856 47.0802C34.1236 47.2255 34.3581 47.4247 34.545 47.6651C34.7318 47.9055 34.8668 48.1819 34.9416 48.4771C35.0159 48.6914 35.0425 48.9193 35.0195 49.145C34.9966 49.3706 34.9245 49.5885 34.8085 49.7834C33.7771 51.2076 32.3175 52.2649 30.6428 52.801C28.968 53.3371 27.1658 53.3239 25.4991 52.7633L25.4964 52.7606ZM45.2487 71.1347C44.502 71.3943 43.709 71.4935 42.9214 71.4259C42.1338 71.3582 41.3693 71.1252 40.6778 70.7421C39.9863 70.3589 39.3834 69.8343 38.9085 69.2023C38.4335 68.5704 38.0972 67.8454 37.9214 67.0747C36.9845 61.0449 36.7168 54.9301 37.1232 48.8416C37.1259 48.7299 37.1107 48.6185 37.078 48.5116C37.0501 48.3049 37.0074 48.1004 36.9503 47.8997C36.7927 47.3012 36.5056 46.7447 36.1093 46.2693C35.713 45.794 35.2172 45.4114 34.6569 45.1487C34.0037 44.8248 33.2602 44.731 32.547 44.8826C32.7991 43.9599 33.1029 43.0521 33.4569 42.1635L33.6113 41.7457C33.7869 41.2748 34.005 40.7879 34.2365 40.2718C35.4896 37.4861 37.2084 33.6682 35.3433 25.0478C35.2253 24.3146 34.9583 23.6132 34.5588 22.9871C34.1593 22.361 33.6358 21.8233 33.0206 21.4073C32.4054 20.9912 31.7114 20.7056 30.9816 20.568C30.2517 20.4304 29.5014 20.4438 28.7769 20.6073C27.0245 20.8346 25.3254 21.3668 23.7564 22.1797C23.5489 22.2861 23.3573 22.3872 23.1817 22.4857C23.3829 17.6513 25.1771 13.0191 28.2847 9.31038C29.5329 8.08885 31.0227 7.14165 32.6583 6.52953C34.294 5.91741 36.0396 5.65387 37.7831 5.75582C40.7285 5.78139 43.6324 6.45295 46.29 7.72313C48.9476 8.99331 51.2941 10.8312 53.164 13.1071C54.9889 15.238 56.4147 17.6805 57.3731 20.3173C53.4806 19.9208 50.8333 20.6898 49.4924 22.6081C46.5657 26.7799 51.0887 34.8787 53.2598 38.7712C53.6589 39.4842 54.0021 40.1015 54.1085 40.3676C54.6819 41.706 55.4542 42.9501 56.3993 44.0578C56.6042 44.3239 56.8037 44.5607 56.9527 44.7788C55.7741 45.1194 53.6562 45.9043 53.8504 49.834C53.6961 51.8028 52.5893 61.0218 52.0253 64.281C51.283 68.5832 49.6999 70.1876 45.2461 71.1427L45.2487 71.1347ZM64.5168 49.0837C62.8789 49.7335 61.1404 50.0936 59.3792 50.1479C58.2073 50.3205 57.0106 50.1668 55.9204 49.7036C55.8007 47.2585 56.7186 47.0031 57.6764 46.7317C57.828 46.6891 57.9744 46.6466 58.118 46.5987C58.212 46.6745 58.3096 46.7455 58.4107 46.8115C60.1108 47.9343 63.1466 48.054 67.4301 47.1707H67.478C66.5926 47.958 65.5911 48.6041 64.5088 49.0863L64.5168 49.0837Z" fill="white"/>
</svg>
