<svg width="223" height="232" viewBox="0 0 223 232" fill="none" xmlns="http://www.w3.org/2000/svg">
<g clip-path="url(#clip0_255_7041)">
<path d="M49.8171 214.352C54.0745 211.295 58.4833 208.445 62.9615 205.728C72.0517 200.212 81.4777 195.281 90.9693 190.503C95.9625 187.989 101.087 185.715 106.162 183.376C111.268 181.023 116.383 178.692 121.5 176.361C126.175 174.231 130.851 172.101 135.521 169.96C151.073 136.805 168.24 99.2188 166.134 99.2188L6.83472 94.6802C3.06584 94.6802 0 97.7596 0 101.544V212.652C0 216.437 3.06584 219.516 6.83472 219.516L53.8031 219.821C56.2126 218.043 47.3861 216.097 49.8171 214.352Z" fill="#157B6C"/>
<path d="M171.429 95.0681H10.0862C6.52557 95.0681 3.6377 97.9675 3.6377 101.545V212.653C3.6377 216.229 6.52431 219.13 10.0862 219.13H171.429C174.989 219.13 177.877 216.23 177.877 212.653V101.544C177.876 97.9675 174.989 95.0681 171.429 95.0681Z" fill="white"/>
<path d="M171.429 219.411H10.0864C6.37559 219.411 3.35645 216.379 3.35645 212.652V101.544C3.35645 97.8167 6.37559 94.7842 10.0864 94.7842H171.429C175.14 94.7842 178.159 97.8167 178.159 101.544V212.652C178.159 216.379 175.14 219.411 171.429 219.411ZM10.0864 95.3509C6.68609 95.3509 3.92064 98.1298 3.92064 101.544V212.652C3.92064 216.067 6.68735 218.845 10.0864 218.845H171.429C174.829 218.845 177.595 216.066 177.595 212.652V101.544C177.595 98.1285 174.828 95.3509 171.429 95.3509H10.0864Z" fill="black"/>
<path d="M75.3331 219.623H9.46855C6.81292 219.623 4.65332 221.793 4.65332 224.46C4.65332 227.127 6.81418 229.296 9.46855 229.296H77.3008C79.9564 229.297 75.3331 219.623 75.3331 219.623Z" fill="#157B6C"/>
<path d="M208.732 219.623H53.2527C50.5933 219.623 48.4375 221.788 48.4375 224.46C48.4375 227.131 50.5933 229.296 53.2527 229.296H208.732C211.392 229.296 213.547 227.131 213.547 224.46C213.549 221.788 211.392 219.623 208.732 219.623Z" fill="white"/>
<path d="M208.732 229.58H53.2523C50.4414 229.58 48.1543 227.283 48.1543 224.459C48.1543 221.636 50.4414 219.339 53.2523 219.339H208.732C211.543 219.339 213.83 221.636 213.83 224.459C213.83 227.283 211.543 229.58 208.732 229.58ZM53.2523 219.906C50.7519 219.906 48.7185 221.948 48.7185 224.459C48.7185 226.971 50.7519 229.013 53.2523 229.013H208.732C211.232 229.013 213.266 226.971 213.266 224.459C213.266 221.948 211.232 219.906 208.732 219.906H53.2523Z" fill="black"/>
<path d="M166.021 104.351H15.4926C13.93 104.351 12.6641 105.622 12.6641 107.192V109.282C12.6641 110.852 13.93 112.123 15.4926 112.123H166.021C167.583 112.123 168.849 110.852 168.849 109.282V107.192C168.848 105.622 167.582 104.351 166.021 104.351Z" fill="#157B6C"/>
<path d="M163.852 110.045C164.853 109.807 165.473 108.799 165.237 107.794C165 106.788 163.997 106.165 162.996 106.403C161.994 106.64 161.374 107.648 161.611 108.654C161.847 109.659 162.851 110.282 163.852 110.045Z" fill="white"/>
<path d="M168.848 115.769H12.7285V210.115H168.848V115.769Z" fill="white"/>
<path d="M168.848 210.399H12.7287C12.5735 210.399 12.4473 210.272 12.4473 210.116V115.769C12.4473 115.613 12.5735 115.487 12.7287 115.487H168.849C169.005 115.487 169.131 115.613 169.131 115.769V210.115C169.131 210.272 169.005 210.399 168.848 210.399ZM13.0102 209.832H168.567V116.053H13.0102V209.832Z" fill="black"/>
<path d="M203.742 183.464H164.322L170.407 230.527C179.442 232.46 188.523 232.52 197.657 230.527L203.742 183.464Z" fill="#157B6C"/>
<path d="M206.655 171.843H161.409L168.394 225.862C178.764 228.082 189.187 228.15 199.671 225.862L206.655 171.843Z" fill="white"/>
<path d="M184.108 227.829C178.864 227.829 173.594 227.266 168.336 226.142C168.219 226.116 168.13 226.02 168.115 225.901L161.13 171.881C161.12 171.8 161.144 171.719 161.198 171.658C161.251 171.598 161.33 171.562 161.41 171.562H206.656C206.737 171.562 206.814 171.598 206.868 171.658C206.921 171.719 206.946 171.802 206.936 171.881L199.951 225.901C199.936 226.02 199.848 226.115 199.732 226.142C194.573 227.266 189.353 227.829 184.108 227.829ZM168.648 225.628C178.955 227.806 189.306 227.806 199.417 225.629L206.335 172.127H161.731L168.648 225.628Z" fill="black"/>
<path d="M203.807 166.375H164.257L162.835 171.075H205.228L203.807 166.375Z" fill="#157B6C"/>
<path d="M205.228 171.358H162.835C162.745 171.358 162.662 171.315 162.609 171.244C162.556 171.172 162.54 171.079 162.566 170.993L163.987 166.295C164.024 166.175 164.133 166.094 164.258 166.094H203.807C203.93 166.094 204.04 166.175 204.077 166.295L205.499 170.993C205.526 171.079 205.509 171.172 205.456 171.244C205.401 171.315 205.318 171.358 205.228 171.358ZM163.216 170.791H204.848L203.597 166.658H164.466L163.216 170.791Z" fill="white"/>
<path d="M208.929 171.075H159.136V176.156H208.929V171.075Z" fill="#157B6C"/>
<path d="M208.929 176.439H159.136C158.981 176.439 158.854 176.312 158.854 176.156V171.075C158.854 170.919 158.981 170.792 159.136 170.792H208.929C209.084 170.792 209.211 170.919 209.211 171.075V176.156C209.211 176.312 209.084 176.439 208.929 176.439ZM159.417 175.872H208.646V171.358H159.417V175.872Z" fill="white"/>
<path d="M163.059 189.583L166.636 217.159C166.636 217.159 184.483 222.626 201.515 217.159C203.474 203.81 204.982 189.583 204.982 189.583C204.982 189.583 184.291 192.404 163.059 189.583Z" fill="#157B6C"/>
<path d="M188.413 212.446C188.394 212.446 188.375 212.446 188.356 212.445C187.533 212.408 187.086 211.613 186.654 210.844C186.259 210.139 185.885 209.473 185.293 209.411C184.61 209.339 183.966 210.102 183.343 210.841C182.662 211.647 182.02 212.411 181.223 212.215C180.62 212.068 180.404 211.476 180.196 210.903C179.994 210.347 179.802 209.822 179.304 209.622C178.826 209.43 178.395 209.651 177.674 210.058C177.087 210.389 176.421 210.764 175.556 210.877C174.016 211.077 172.339 210.34 170.567 208.692C170.453 208.586 170.446 208.407 170.552 208.292C170.658 208.176 170.836 208.17 170.95 208.276C172.595 209.807 174.12 210.493 175.484 210.315C176.24 210.217 176.855 209.87 177.398 209.565C178.099 209.169 178.761 208.796 179.512 209.097C180.245 209.391 180.511 210.122 180.725 210.709C180.924 211.257 181.066 211.595 181.356 211.665C181.814 211.775 182.372 211.115 182.912 210.475C183.596 209.665 184.374 208.74 185.352 208.848C186.234 208.941 186.719 209.804 187.145 210.566C187.518 211.23 187.87 211.858 188.381 211.879C188.896 211.892 189.316 211.306 189.77 210.676C190.316 209.914 190.936 209.051 191.923 208.97C192.854 208.893 193.822 209.543 194.811 210.901C194.903 211.026 194.875 211.204 194.749 211.296C194.624 211.389 194.447 211.361 194.355 211.234C193.49 210.045 192.688 209.473 191.97 209.533C191.241 209.594 190.725 210.312 190.228 211.006C189.719 211.715 189.194 212.446 188.413 212.446Z" fill="white"/>
<path d="M189.075 134.655C188.565 135.171 188.042 135.669 187.555 136.203C187.304 136.462 187.064 136.733 186.831 137.007L186.472 137.411L186.131 137.829C185.231 138.948 184.416 140.144 183.854 141.445C183.284 142.734 183.019 144.176 183.334 145.53C183.612 146.895 184.468 148.072 185.47 149.076C186.475 150.09 187.623 150.982 188.678 152.006C189.207 152.515 189.702 153.074 190.129 153.687C190.558 154.298 190.89 154.987 191.092 155.714C191.502 157.174 191.3 158.75 190.716 160.104C190.139 161.472 189.252 162.669 188.254 163.73C188.219 163.768 188.16 163.769 188.122 163.734C188.085 163.699 188.083 163.641 188.116 163.603C189.053 162.509 189.89 161.312 190.404 159.977C190.659 159.313 190.831 158.618 190.887 157.915C190.942 157.212 190.877 156.501 190.675 155.832C190.475 155.162 190.158 154.528 189.741 153.959C189.33 153.386 188.841 152.868 188.326 152.372C187.293 151.381 186.138 150.496 185.091 149.455C184.568 148.936 184.077 148.37 183.669 147.736C183.256 147.106 182.948 146.396 182.784 145.65C182.615 144.906 182.607 144.129 182.725 143.382C182.838 142.634 183.069 141.913 183.377 141.235C183.447 141.061 183.529 140.895 183.617 140.731C183.703 140.567 183.784 140.399 183.876 140.238C184.068 139.923 184.249 139.599 184.468 139.301L184.783 138.847C184.892 138.699 185.008 138.557 185.119 138.411L185.459 137.979L185.817 137.563L186.177 137.149L186.553 136.751C186.804 136.486 187.06 136.224 187.328 135.977C187.847 135.465 188.398 134.988 188.949 134.513C188.988 134.479 189.047 134.484 189.08 134.523C189.111 134.56 189.11 134.616 189.076 134.651L189.075 134.655Z" fill="black"/>
<path d="M191.165 140.852C190.778 141.87 190.548 142.95 190.586 144.025C190.591 144.564 190.707 145.09 190.826 145.608C190.916 145.859 190.981 146.118 191.09 146.362L191.26 146.723C191.316 146.845 191.371 146.965 191.446 147.075C191.977 148.003 192.724 148.791 193.497 149.556C194.27 150.323 195.106 151.059 195.8 151.96C196.489 152.847 197.032 153.957 197.048 155.134C197.095 156.306 196.729 157.433 196.22 158.433C195.177 160.443 193.612 162.063 191.972 163.523C191.934 163.557 191.876 163.554 191.843 163.516C191.812 163.48 191.813 163.426 191.846 163.391C192.602 162.598 193.34 161.786 194.015 160.932C194.693 160.081 195.297 159.171 195.761 158.205C196.002 157.726 196.181 157.221 196.314 156.712C196.45 156.202 196.515 155.677 196.492 155.159C196.46 154.114 196.015 153.134 195.371 152.292C194.73 151.441 193.916 150.706 193.137 149.923C192.354 149.144 191.602 148.291 191.061 147.291C190.514 146.297 190.233 145.153 190.247 144.028C190.259 142.898 190.537 141.789 190.999 140.78C191.02 140.734 191.075 140.714 191.12 140.734C191.162 140.757 191.182 140.807 191.165 140.852Z" fill="black"/>
<path d="M205.158 52.2342H136.851C134.862 52.2342 133.249 50.614 133.249 48.616V3.9009C133.249 1.90291 134.862 0.282715 136.851 0.282715H205.158C207.147 0.282715 208.76 1.90291 208.76 3.9009V48.616C208.76 50.6153 207.149 52.2342 205.158 52.2342Z" fill="white"/>
<path d="M205.158 52.5182H136.852C134.71 52.5182 132.968 50.7687 132.968 48.6173V3.9009C132.968 1.74951 134.71 0 136.852 0H205.158C207.3 0 209.042 1.74951 209.042 3.9009V48.616C209.043 50.7674 207.3 52.5182 205.158 52.5182ZM136.853 0.566688C135.021 0.566688 133.532 2.06264 133.532 3.90216V48.6173C133.532 50.4556 135.021 51.9528 136.853 51.9528H205.16C206.99 51.9528 208.48 50.4568 208.48 48.6173V3.9009C208.48 2.06264 206.991 0.565421 205.16 0.565421H136.853V0.566688Z" fill="black"/>
<path d="M171.005 45.8575C170.85 45.8575 170.724 45.7308 170.724 45.5748V6.73828C170.724 6.58234 170.85 6.45557 171.005 6.45557C171.16 6.45557 171.287 6.58234 171.287 6.73828V45.5748C171.288 45.7308 171.162 45.8575 171.005 45.8575Z" fill="black"/>
<path d="M170.05 7.8652L171.005 6.9055L171.962 7.8652V7.05003L171.005 6.09033L170.05 7.05003V7.8652Z" fill="black"/>
<path d="M200.276 30.5859H141.09C140.935 30.5859 140.809 30.4592 140.809 30.3032C140.809 30.1473 140.935 30.0205 141.09 30.0205H200.276C200.432 30.0205 200.558 30.1473 200.558 30.3032C200.559 30.4592 200.433 30.5859 200.276 30.5859Z" fill="black"/>
<path d="M199.154 31.2629L200.11 30.302L199.154 29.3423H199.966L200.921 30.302L199.966 31.2629H199.154Z" fill="black"/>
<path d="M171.139 43.2446C164.371 43.2446 158.867 37.7147 158.867 30.9182V23.7756C158.867 17.2911 153.613 12.0146 147.157 12.0146H141.09C140.935 12.0146 140.809 11.8879 140.809 11.7319C140.809 11.576 140.935 11.4492 141.09 11.4492H147.157C153.925 11.4492 159.431 16.9792 159.431 23.7769V30.9195C159.431 37.4041 164.684 42.6805 171.14 42.6805C177.596 42.6805 182.849 37.4053 182.849 30.9195V23.7769C182.849 16.9792 188.355 11.4492 195.122 11.4492H198.676C198.831 11.4492 198.957 11.576 198.957 11.7319C198.957 11.8879 198.831 12.0146 198.676 12.0146H195.122C188.666 12.0146 183.412 17.2911 183.412 23.7756V30.9182C183.412 37.7147 177.907 43.2446 171.139 43.2446Z" fill="black"/>
<path d="M100.224 81.3003C97.4274 82.1737 96.0024 78.1511 90.8275 77.5249C85.7876 76.9151 84.5986 80.4255 79.1763 80.5447C72.9953 80.6816 66.0571 76.3091 65.6456 71.8618C65.2872 67.9875 70.0406 65.7702 68.9993 63.1383C68.04 60.7118 63.8382 62.1837 59.6187 59.0409C55.9963 56.3444 53.4908 51.0883 54.7454 47.323C55.6996 44.4592 58.0587 44.766 59.2552 41.4711C60.5237 37.9784 58.3553 36.523 59.3575 32.9606C60.3899 29.2917 64.1437 25.7584 67.7724 25.7229C71.2901 25.6874 71.8657 28.9646 75.7923 29.2029C80.2908 29.4755 82.1083 25.3274 84.8132 26.372C87.7301 27.4978 86.5032 32.6627 90.3769 34.8698C91.9899 35.789 92.4481 35.0625 95.7134 35.9994C97.3782 36.4773 100.573 37.3939 102.535 39.5022C106.296 43.5426 102.802 49.0345 106.051 51.6664C108.47 53.6276 111.113 51.1479 114.695 53.3652C116.909 54.7344 119.216 57.7339 118.722 60.3543C117.942 64.4771 111.058 63.2233 106.239 69.0322C101.822 74.3529 103.583 80.2505 100.224 81.3003Z" fill="#157B6C"/>
<path d="M53.4163 126.587C53.4075 126.587 53.3974 126.587 53.3886 126.586C53.2333 126.571 53.121 126.432 53.1361 126.277L53.9452 118.021C53.9603 117.865 54.0954 117.755 54.2532 117.767C54.4084 117.783 54.5207 117.921 54.5056 118.077L53.6965 126.332C53.6827 126.478 53.5602 126.587 53.4163 126.587Z" fill="black"/>
<path d="M197.465 51.4547C196.208 50.2579 194.738 50.2212 193.018 50.4354L192.413 50.0551C191.083 49.2209 189.475 48.9623 187.955 49.3375L175.968 52.294C175.465 52.4182 175.01 51.9694 175.123 51.4623C175.352 50.4519 175.695 48.9357 175.96 47.7376C176.231 46.5117 175.749 45.7903 175.343 45.4202C175.111 45.2084 174.752 45.2313 174.546 45.4683C173.22 46.996 168.32 52.8416 168.475 55.7334C168.655 59.0765 170.938 68.8103 170.938 68.8103H181.126L179.128 62.256C178.988 61.7971 179.233 61.3077 179.685 61.148L194.231 55.9806C194.493 55.8881 194.58 55.561 194.399 55.348C194.076 54.9677 193.565 54.4251 193.008 54.0473L197.145 52.4055C197.518 52.2559 197.672 51.8033 197.465 51.4547Z" fill="white"/>
<path d="M181.124 69.0929H170.935C170.804 69.0929 170.69 69.0029 170.661 68.8749C170.568 68.4768 168.371 59.0789 168.191 55.7485C168.032 52.7794 172.851 46.987 174.332 45.2832C174.482 45.1095 174.692 45.0068 174.919 44.9941C175.143 44.9764 175.363 45.0575 175.531 45.2109C175.927 45.5735 176.546 46.3912 176.234 47.7997C175.969 48.9977 175.626 50.5152 175.397 51.5256C175.364 51.6689 175.406 51.8096 175.509 51.9123C175.614 52.015 175.756 52.0543 175.898 52.0188L187.885 49.0623C189.47 48.6706 191.176 48.9457 192.56 49.8141L193.083 50.1412C194.908 49.9244 196.39 50.0398 197.658 51.248C197.677 51.2657 197.694 51.286 197.706 51.3088C197.846 51.5472 197.877 51.8337 197.787 52.0948C197.697 52.3573 197.5 52.5652 197.244 52.6666L193.575 54.1232C193.988 54.4668 194.353 54.8598 194.609 55.1615C194.754 55.3327 194.807 55.5634 194.749 55.7802C194.691 55.9957 194.532 56.1694 194.321 56.2442L179.774 61.4116C179.465 61.5219 179.297 61.854 179.393 62.1697L181.391 68.724C181.418 68.8102 181.401 68.9028 181.348 68.975C181.298 69.0498 181.213 69.0929 181.124 69.0929ZM171.16 68.5263H180.742L178.857 62.3383C178.673 61.7323 178.993 61.0921 179.589 60.8804L194.136 55.713C194.185 55.6953 194.201 55.6572 194.206 55.6357C194.213 55.6141 194.216 55.5723 194.182 55.5317C193.865 55.159 193.376 54.6392 192.848 54.2817C192.761 54.2234 192.714 54.1207 192.726 54.0167C192.737 53.9128 192.805 53.8228 192.902 53.7848L197.039 52.143C197.141 52.1024 197.22 52.0188 197.256 51.9148C197.287 51.821 197.281 51.7196 197.239 51.6308C196.111 50.5786 194.799 50.5 193.054 50.7168C192.989 50.7244 192.925 50.7104 192.87 50.6762L192.264 50.2959C191.007 49.5073 189.462 49.2589 188.022 49.6126L176.035 52.569C175.703 52.6514 175.359 52.5563 175.116 52.3154C174.873 52.0758 174.772 51.7335 174.848 51.4001C175.077 50.3897 175.42 48.8747 175.685 47.6767C175.922 46.6042 175.527 45.9716 175.154 45.6293C175.098 45.5798 175.027 45.5532 174.953 45.5583C174.877 45.5621 174.808 45.5976 174.758 45.6546C171.78 49.0826 168.639 53.5274 168.757 55.7181C168.916 58.7214 170.823 67.0671 171.16 68.5263Z" fill="black"/>
<path d="M180.564 57.3776C180.438 57.3776 180.323 57.2914 180.292 57.1633C180.254 57.0112 180.346 56.8578 180.496 56.8198L190.832 54.2209C190.984 54.1816 191.136 54.2754 191.174 54.4263C191.212 54.5784 191.12 54.7318 190.97 54.7698L180.634 57.3687C180.61 57.3751 180.587 57.3776 180.564 57.3776Z" fill="black"/>
<path d="M179.512 54.3362C179.385 54.3362 179.271 54.25 179.239 54.1219C179.201 53.9698 179.293 53.8164 179.443 53.7784L189.779 51.1794C189.931 51.1414 190.084 51.234 190.122 51.3848C190.159 51.537 190.067 51.6903 189.917 51.7284L179.581 54.3273C179.557 54.3336 179.534 54.3362 179.512 54.3362Z" fill="black"/>
<path d="M43.28 96.7681C46.1742 96.9431 51.0248 97.1827 53.9745 97.326C55.3402 97.3919 56.3664 98.6013 56.2162 99.968L54.2244 118.049C54.2244 118.049 58.7759 115.992 63.7615 110.029C68.7458 104.065 73.2367 91.8061 84.277 91.3726C91.3011 91.0962 108.925 92.2258 120.817 93.084C126.925 93.5252 132.848 95.4053 138.064 98.6292C141.853 100.971 147.48 103.064 154.596 101.763C167.659 99.3759 173.56 88.1448 168.121 70.0045C167.623 68.3437 168.855 66.6677 170.583 66.6677H181.662C182.865 66.6677 183.923 67.4639 184.261 68.6239C186.785 77.2713 195.22 112.121 170.935 123.093C156.603 129.569 141.538 128.822 141.538 128.822L147.488 183.426C148.125 189.261 145.267 194.928 140.198 197.848C134.877 200.912 126.559 203.726 114.184 203.314C103.853 202.971 95.8247 201.133 89.8975 199.042C81.788 196.181 75.9441 189.024 74.7008 180.482C73.3617 171.283 71.813 157.016 71.558 139.101C71.558 139.101 63.1632 148.337 47.1903 145.347C27.4636 141.654 37.0133 108.229 40.0678 98.9563C40.5222 97.577 41.8399 96.6819 43.28 96.7681Z" fill="white"/>
<path d="M116.612 203.637C115.81 203.637 114.999 203.623 114.176 203.596C105.224 203.298 97.0252 201.855 89.8043 199.307C81.5812 196.405 75.6868 189.207 74.4221 180.52C73.1447 171.749 71.5721 157.594 71.2855 139.758C69.2711 141.614 60.9672 148.21 47.1387 145.623C42.9419 144.837 39.7663 142.656 37.6988 139.142C31.0572 127.845 37.6282 105.457 39.8004 98.8651C40.2926 97.3691 41.7366 96.3904 43.2979 96.4867C46.235 96.6642 51.2572 96.9114 53.9898 97.0433C54.7282 97.0788 55.3997 97.4097 55.8793 97.9738C56.3602 98.5392 56.5798 99.2581 56.4978 99.9984L54.5629 117.558C55.8288 116.875 59.5649 114.609 63.5458 109.846C64.7487 108.407 65.9301 106.586 67.1809 104.657C71.0066 98.7611 75.7688 91.422 84.2658 91.0886C91.1422 90.8186 107.949 91.8708 120.838 92.8001C127.011 93.2451 133.02 95.1771 138.212 98.3858C141.676 100.527 147.322 102.803 154.545 101.483C160.191 100.451 164.523 97.6936 167.073 93.5088C170.493 87.8939 170.762 79.7942 167.851 70.0856C167.588 69.2046 167.749 68.2766 168.294 67.5387C168.837 66.8047 169.671 66.3838 170.583 66.3838H181.662C182.98 66.3838 184.16 67.2725 184.532 68.544C185.76 72.7505 188.551 83.7496 187.934 95.0022C187.162 109.101 181.482 118.638 171.051 123.351C157.986 129.253 144.149 129.173 141.854 129.115L147.769 183.394C148.418 189.35 145.501 195.118 140.338 198.093C133.944 201.775 125.971 203.637 116.612 203.637ZM71.5582 138.816C71.5922 138.816 71.6251 138.822 71.6579 138.835C71.7664 138.876 71.8384 138.98 71.8396 139.095C72.0971 157.21 73.69 171.577 74.9799 180.439C76.2144 188.917 81.9661 195.941 89.9911 198.773C97.1578 201.303 105.3 202.735 114.195 203.031C124.503 203.372 133.207 201.547 140.058 197.601C145.026 194.739 147.833 189.187 147.21 183.455L141.26 128.851C141.251 128.769 141.279 128.687 141.334 128.627C141.391 128.566 141.47 128.534 141.554 128.538C141.704 128.547 156.719 129.205 170.821 122.833C181.044 118.215 186.612 108.84 187.372 94.9705C187.983 83.8053 185.213 72.8811 183.992 68.7025C183.691 67.6706 182.733 66.9492 181.663 66.9492H170.584C169.853 66.9492 169.184 67.2877 168.749 67.8759C168.311 68.468 168.181 69.2134 168.393 69.9208C171.351 79.7891 171.062 88.0473 167.555 93.8029C164.918 98.1298 160.455 100.978 154.648 102.04C147.249 103.392 141.467 101.061 137.917 98.8676C132.802 95.7058 126.882 93.8029 120.798 93.3642C107.924 92.435 91.1409 91.3853 84.2898 91.654C76.0844 91.9761 71.6061 98.8777 67.6555 104.967C66.3946 106.909 65.2043 108.745 63.9788 110.21C59.0095 116.156 54.5301 118.221 54.342 118.306C54.2498 118.348 54.1426 118.337 54.0605 118.277C53.9785 118.217 53.9356 118.119 53.9457 118.017L55.9374 99.9363C56.0018 99.3531 55.8288 98.7877 55.4502 98.3415C55.0728 97.8965 54.5439 97.6366 53.9633 97.6087C51.2294 97.4769 46.2047 97.2284 43.2651 97.0509C41.9461 96.966 40.7495 97.79 40.3368 99.0425C38.1835 105.578 31.6643 127.762 38.186 138.854C40.1664 142.221 43.2133 144.312 47.2435 145.066C62.8807 147.995 71.2691 138.999 71.3512 138.909C71.4042 138.848 71.4799 138.816 71.5582 138.816Z" fill="black"/>
<path d="M53.8465 85.3495L52.5515 83.9081V74.2034C52.5515 73.2589 51.7892 72.4932 50.8489 72.4932C49.9085 72.4932 49.1462 73.2589 49.1462 74.2034V84.6535L40.085 86.6338V91.9685C40.085 94.2923 41.4292 96.4044 43.5282 97.3806L43.9788 97.5897C46.6963 98.8537 49.8707 98.6179 52.3736 96.966C53.5815 96.1686 54.3804 94.8793 54.5597 93.4391L55.0772 89.2821C55.2577 87.8546 54.8071 86.4182 53.8465 85.3495Z" fill="white"/>
<path d="M47.628 98.6863C46.3519 98.6863 45.0695 98.4087 43.8616 97.8471L43.411 97.6379C41.2199 96.6199 39.8037 94.3937 39.8037 91.9685V86.6337C39.8037 86.5006 39.8959 86.3853 40.0259 86.3574L48.8649 84.4253V74.2034C48.8649 73.1042 49.7548 72.2104 50.8491 72.2104C51.9434 72.2104 52.8332 73.1042 52.8332 74.2034V83.799L54.055 85.1593C55.0711 86.2902 55.5469 87.8064 55.3589 89.3189L54.8414 93.4758C54.652 95.001 53.8089 96.36 52.529 97.2043C51.0397 98.1868 49.3395 98.6863 47.628 98.6863ZM40.3679 86.8619V91.9685C40.3679 94.1744 41.6553 96.1977 43.6483 97.1245L44.0989 97.3336C46.747 98.5646 49.7825 98.339 52.2211 96.7302C53.3621 95.9771 54.1131 94.7652 54.2835 93.4049L54.801 89.2479C54.9688 87.899 54.5448 86.5475 53.6385 85.5384L52.3435 84.097C52.2968 84.045 52.2703 83.9778 52.2703 83.9068V74.2021C52.2703 73.4148 51.6329 72.7746 50.8491 72.7746C50.0653 72.7746 49.4279 73.4148 49.4279 74.2021V84.6522C49.4279 84.7853 49.3357 84.9007 49.2057 84.9286L40.3679 86.8619Z" fill="black"/>
<path d="M47.745 87.3995H46.6368C45.9375 87.3995 45.3721 86.8302 45.3721 86.1292V82.2295C45.3721 81.5272 45.9388 80.9592 46.6368 80.9592H47.408C48.2928 80.9592 49.0109 81.6806 49.0109 82.5693V86.1304C49.0097 86.8315 48.443 87.3995 47.745 87.3995Z" fill="white"/>
<path d="M47.7445 87.6835H46.6363C45.7831 87.6835 45.0889 86.9862 45.0889 86.1292V82.2296C45.0889 81.3726 45.7831 80.6753 46.6363 80.6753H47.4075C48.4463 80.6753 49.2919 81.5247 49.2919 82.5681V86.1292C49.2919 86.9862 48.5977 87.6835 47.7445 87.6835ZM46.6363 81.242C46.0936 81.242 45.6531 81.6844 45.6531 82.2296V86.1292C45.6531 86.6743 46.0948 87.1168 46.6363 87.1168H47.7445C48.2872 87.1168 48.7277 86.6743 48.7277 86.1292V82.5681C48.7277 81.8366 48.1358 81.242 47.4062 81.242H46.6363Z" fill="black"/>
<path d="M44.1053 88.2007H43.8819C43.1826 88.2007 42.6172 87.6315 42.6172 86.9304V83.1297C42.6172 82.4273 43.1839 81.8594 43.8819 81.8594H44.1053C44.8046 81.8594 45.37 82.4286 45.37 83.1297V86.9304C45.37 87.6315 44.8046 88.2007 44.1053 88.2007Z" fill="white"/>
<path d="M44.1048 88.4847H43.8814C43.0282 88.4847 42.334 87.7875 42.334 86.9305V83.1297C42.334 82.2727 43.0282 81.5754 43.8814 81.5754H44.1048C44.9581 81.5754 45.6523 82.2727 45.6523 83.1297V86.9305C45.6523 87.7875 44.9581 88.4847 44.1048 88.4847ZM43.8814 82.1409C43.3387 82.1409 42.8982 82.5833 42.8982 83.1284V86.9292C42.8982 87.4743 43.3387 87.9168 43.8814 87.9168H44.1048C44.6476 87.9168 45.0881 87.4743 45.0881 86.9292V83.1284C45.0881 82.5833 44.6476 82.1409 44.1048 82.1409H43.8814Z" fill="black"/>
<path d="M41.3526 89.2022C40.6534 89.2022 40.0879 88.633 40.0879 87.9319V84.1704C40.0879 83.4681 40.6546 82.9001 41.3526 82.9001C42.0506 82.9001 42.6173 83.4694 42.6173 84.1704V87.9319C42.6173 88.633 42.0506 89.2022 41.3526 89.2022Z" fill="white"/>
<path d="M41.3521 89.485C40.4989 89.485 39.8047 88.7877 39.8047 87.9307V84.1693C39.8047 83.3123 40.4989 82.615 41.3521 82.615C42.2054 82.615 42.8996 83.3123 42.8996 84.1693V87.9307C42.8983 88.7877 42.2041 89.485 41.3521 89.485ZM41.3521 83.183C40.8094 83.183 40.3689 83.6254 40.3689 84.1705V87.932C40.3689 88.4771 40.8106 88.9196 41.3521 88.9196C41.8949 88.9196 42.3354 88.4771 42.3354 87.932V84.1705C42.3354 83.6254 41.8936 83.183 41.3521 83.183Z" fill="black"/>
<path d="M53.4159 87.6834C53.3591 87.6834 53.3011 87.6656 53.2518 87.6301L49.382 84.8335C49.2558 84.7422 49.2267 84.5647 49.3176 84.4379C49.4085 84.3111 49.5852 84.282 49.7114 84.3733L53.5813 87.1699C53.7075 87.2612 53.7365 87.4387 53.6456 87.5655C53.5901 87.6416 53.503 87.6834 53.4159 87.6834Z" fill="black"/>
<path d="M46.5395 94.2582C46.3893 94.2582 46.2643 94.139 46.258 93.9881C46.1167 90.8137 48.1349 89.518 49.0411 89.0984L47.5429 87.6012C47.4331 87.4909 47.4319 87.3108 47.5417 87.2005C47.6515 87.0903 47.8295 87.089 47.9405 87.1993L49.7429 89.002C49.8136 89.073 49.8426 89.177 49.8161 89.2746C49.7909 89.3722 49.7152 89.4483 49.6192 89.4762C49.4993 89.5104 46.6594 90.3598 46.8197 93.9628C46.826 94.1187 46.7061 94.2518 46.5509 94.2582C46.5483 94.2582 46.5446 94.2582 46.5395 94.2582Z" fill="black"/>
<path d="M88.3263 210.404C88.3263 210.404 84.8503 166.273 94.8859 152.195L127.605 150.813C127.605 150.813 139.483 165.859 138.196 210.115L88.3263 210.404Z" fill="#157B6C"/>
<path d="M86.0303 91.2965L81.821 150.965C81.6304 153.66 83.5009 156.066 86.1528 156.525C94.5728 157.983 113.21 160.225 132.097 155.923C134.229 155.438 135.594 153.346 135.155 151.196L123.344 93.3503C123.344 93.349 102.046 90.3254 86.0303 91.2965Z" fill="white"/>
<path d="M108.431 158.721C99.1807 158.721 91.2416 157.693 86.1058 156.804C83.3012 156.319 81.3398 153.8 81.5405 150.945L85.7499 91.2762C85.7599 91.1342 85.8723 91.0226 86.0136 91.0137C101.873 90.0502 123.17 93.0396 123.383 93.07C123.5 93.0865 123.595 93.1765 123.619 93.2932L135.429 151.139C135.901 153.451 134.465 155.675 132.159 156.199C123.926 158.074 115.766 158.721 108.431 158.721ZM86.2939 91.5639L82.1021 150.984C81.9216 153.549 83.6837 155.81 86.2005 156.246C95.3677 157.834 113.513 159.866 132.034 155.647C134.038 155.19 135.287 153.259 134.878 151.253L123.107 93.6038C120.929 93.3046 101.253 90.6993 86.2939 91.5639Z" fill="black"/>
<path d="M98.0156 149.707C97.8957 149.707 97.7834 149.629 97.7468 149.508C97.7013 149.359 97.7847 149.2 97.9323 149.154C114.387 144.044 122.194 125.082 122.271 124.892C122.329 124.748 122.494 124.678 122.638 124.736C122.782 124.794 122.853 124.959 122.794 125.105C122.715 125.299 114.806 144.508 98.0989 149.697C98.0712 149.703 98.0434 149.707 98.0156 149.707Z" fill="black"/>
<path d="M113.536 70.7514C112.561 69.5762 111.904 68.1677 111.624 66.6654C111.125 63.9879 110.582 61.6172 110.582 61.6172C106.6 64.9336 102.113 62.6517 102.113 62.6517C98.3656 65.5777 99.0434 69.6966 99.0434 69.6966C99.0434 69.6966 95.5572 69.3125 95.8021 71.5729C96.0444 73.8156 99.4056 74.3785 99.4561 74.3861L95.3628 90.9886C95.1066 92.0269 95.7516 93.0804 96.7929 93.3086C103.095 94.6905 107.046 94.172 109.042 93.637C109.625 93.4811 109.803 92.7559 109.373 92.3299C107.176 90.1494 106.805 83.9183 106.812 79.8273C108.845 80.2824 110.721 79.8767 111.653 77.9979C112.318 76.6554 112.496 75.2431 112.417 73.1221C112.404 72.7494 113.778 71.1824 113.536 70.7514Z" fill="white"/>
<path d="M104.237 94.4812C102.223 94.4812 99.7403 94.2441 96.7326 93.5849C96.157 93.4581 95.6673 93.1108 95.3555 92.6062C95.0412 92.0991 94.9466 91.4994 95.0892 90.9201L99.1118 74.6053C98.2333 74.4062 95.743 73.6608 95.5221 71.6032C95.4578 71.0099 95.6143 70.5193 95.9853 70.1466C96.7136 69.4163 98.0856 69.3694 98.7281 69.3922C98.6486 68.3058 98.7016 64.9564 101.942 62.4272C102.027 62.36 102.145 62.3486 102.242 62.398C102.285 62.4208 106.617 64.5532 110.405 61.399C110.48 61.3356 110.582 61.3166 110.675 61.3483C110.767 61.38 110.837 61.4573 110.859 61.5537C110.864 61.5778 111.408 63.9599 111.903 66.612C112.174 68.0649 112.814 69.4341 113.754 70.57C113.766 70.5827 113.775 70.5966 113.783 70.6118C113.994 70.9871 113.68 71.5271 113.135 72.3715C112.959 72.6428 112.719 73.0155 112.7 73.1271C112.785 75.3951 112.563 76.7998 111.908 78.1233C111.05 79.8551 109.348 80.5752 107.098 80.172C107.11 83.8891 107.467 90.039 109.574 92.1282C109.852 92.4046 109.959 92.7926 109.861 93.1665C109.763 93.5329 109.486 93.8118 109.118 93.9094C107.966 94.2188 106.362 94.4812 104.237 94.4812ZM98.4845 69.9551C97.8736 69.9551 96.8878 70.0413 96.3842 70.5472C96.1368 70.7969 96.0384 71.1215 96.0838 71.5424C96.3022 73.5644 99.4702 74.102 99.5031 74.107C99.5813 74.1197 99.6495 74.1641 99.6936 74.23C99.7366 74.2959 99.7517 74.3771 99.7328 74.4544L95.6395 91.057C95.5335 91.4868 95.6042 91.9317 95.8364 92.3083C96.0674 92.6823 96.4296 92.9396 96.855 93.0322C103.244 94.433 107.188 93.841 108.972 93.363C109.145 93.3161 109.27 93.1919 109.315 93.0207C109.362 92.8445 109.31 92.662 109.178 92.5301C106.975 90.3445 106.523 84.4152 106.533 79.8246C106.533 79.7384 106.573 79.6573 106.639 79.604C106.706 79.5508 106.793 79.5305 106.877 79.5495C108.394 79.8893 110.411 79.8741 111.404 77.871C112.014 76.64 112.22 75.3114 112.139 73.1321C112.13 72.9001 112.313 72.606 112.663 72.0634C112.882 71.7224 113.286 71.0961 113.287 70.8882C112.304 69.6876 111.635 68.2462 111.35 66.716C110.983 64.7446 110.588 62.9229 110.41 62.1166C106.863 64.7687 103.001 63.3438 102.159 62.9799C98.7319 65.7626 99.32 69.6116 99.3263 69.6496C99.3402 69.7371 99.3137 69.8258 99.2531 69.8905C99.1926 69.9551 99.1055 69.9881 99.0184 69.9779C99.0083 69.9779 98.7937 69.9551 98.4845 69.9551Z" fill="black"/>
<path d="M106.813 80.1099C106.797 80.1099 106.779 80.1086 106.761 80.1048C105.152 79.8056 102.942 78.3008 102.849 78.2374C102.72 78.1486 102.687 77.9724 102.774 77.8444C102.863 77.7151 103.037 77.6821 103.166 77.7696C103.187 77.7848 105.371 79.2706 106.862 79.5482C107.015 79.5761 107.116 79.7245 107.088 79.8779C107.064 80.0148 106.946 80.1099 106.813 80.1099Z" fill="black"/>
<path d="M34.2251 88.7507H13.1618C11.0211 88.7507 9.2793 87.0012 9.2793 84.8511V40.0776C9.2793 37.9275 11.0211 36.178 13.1618 36.178H26.6368C26.7921 36.178 26.9183 36.3048 26.9183 36.4607C26.9183 36.6166 26.7921 36.7434 26.6368 36.7434H13.1618C11.3316 36.7434 9.84223 38.2394 9.84223 40.0776V84.8511C9.84223 86.6893 11.3316 88.1853 13.1618 88.1853H34.2251C34.3803 88.1853 34.5066 88.3121 34.5066 88.468C34.5066 88.6239 34.3816 88.7507 34.2251 88.7507Z" fill="black"/>
<path d="M81.4715 88.7507H59.6496C59.4944 88.7507 59.3682 88.6239 59.3682 88.468C59.3682 88.3121 59.4944 88.1853 59.6496 88.1853H81.4715C83.3017 88.1853 84.7911 86.6893 84.7911 84.8511V78.0039C84.7911 77.848 84.9173 77.7212 85.0725 77.7212C85.2278 77.7212 85.354 77.848 85.354 78.0039V84.8511C85.3553 87.0012 83.6134 88.7507 81.4715 88.7507Z" fill="black"/>
<path d="M85.0725 78.2866C84.9173 78.2866 84.7911 78.1598 84.7911 78.0039V40.0776C84.7911 38.2394 83.3017 36.7434 81.4715 36.7434H59.6496C59.4944 36.7434 59.3682 36.6166 59.3682 36.4607C59.3682 36.3048 59.4944 36.178 59.6496 36.178H81.4715C83.6122 36.178 85.354 37.9275 85.354 40.0776V78.0026C85.3553 78.1598 85.229 78.2866 85.0725 78.2866Z" fill="white"/>
<path d="M59.649 36.7446H35.718C35.5627 36.7446 35.4365 36.6178 35.4365 36.4619C35.4365 36.306 35.5627 36.1792 35.718 36.1792H59.6477C59.803 36.1792 59.9292 36.306 59.9292 36.4619C59.9292 36.6178 59.8042 36.7446 59.649 36.7446Z" fill="black"/>
<path d="M69.9777 81.6411H61.049C60.8938 81.6411 60.7676 81.5143 60.7676 81.3584C60.7676 81.2025 60.8938 81.0757 61.049 81.0757H69.9777C70.133 81.0757 70.2592 81.2025 70.2592 81.3584C70.2605 81.5143 70.1342 81.6411 69.9777 81.6411Z" fill="black"/>
<path d="M38.8512 81.6411H20.7717C20.6165 81.6411 20.4902 81.5143 20.4902 81.3584C20.4902 81.2025 20.6165 81.0757 20.7717 81.0757H38.8512C39.0065 81.0757 39.1327 81.2025 39.1327 81.3584C39.1327 81.5143 39.0065 81.6411 38.8512 81.6411Z" fill="black"/>
<path d="M49.9314 73.204H22.4651C22.3098 73.204 22.1836 73.0772 22.1836 72.9213V44.4614C22.1836 44.346 22.253 44.2421 22.359 44.1989C22.4651 44.1558 22.5875 44.1812 22.667 44.2636L50.1334 72.7223C50.2116 72.8047 50.2344 72.9251 50.1902 73.0303C50.1473 73.1356 50.045 73.204 49.9314 73.204ZM22.7478 72.6373H49.2663L22.7478 45.1599V72.6373Z" fill="black"/>
<path d="M25.0575 72.9213C25.0575 74.359 23.8976 75.524 22.4663 75.524C21.0349 75.524 19.875 74.359 19.875 72.9213C19.875 71.4837 21.0349 70.3186 22.4663 70.3186C23.8963 70.3173 25.0575 71.4824 25.0575 72.9213Z" fill="black"/>
<path d="M52.5243 72.9213C52.5243 74.359 51.3644 75.524 49.9331 75.524C48.5017 75.524 47.3418 74.359 47.3418 72.9213C47.3418 71.4837 48.5017 70.3186 49.9331 70.3186C51.3631 70.3173 52.5243 71.4824 52.5243 72.9213Z" fill="black"/>
<path d="M22.7823 47.0439C24.2027 46.8682 25.2123 45.5693 25.0375 44.1426C24.8626 42.716 23.5694 41.7019 22.149 41.8775C20.7286 42.0532 19.7189 43.3521 19.8938 44.7787C20.0687 46.2054 21.3619 47.2195 22.7823 47.0439Z" fill="black"/>
<path d="M60.537 207.445H29.6602C25.8787 207.445 22.8027 204.355 22.8027 200.557V157.209C22.8027 153.41 25.8787 150.321 29.6602 150.321H60.537C64.3185 150.321 67.3944 153.41 67.3944 157.209V200.557C67.3944 204.355 64.3185 207.445 60.537 207.445ZM29.6602 150.887C26.1904 150.887 23.3669 153.723 23.3669 157.209V200.557C23.3669 204.042 26.1904 206.878 29.6602 206.878H60.537C64.0067 206.878 66.8302 204.042 66.8302 200.557V157.209C66.8302 153.723 64.0067 150.887 60.537 150.887H29.6602Z" fill="black"/>
<path d="M37.9097 166.768H28.3184V198.424H37.9097V166.768Z" fill="#157B6C"/>
<path d="M49.8941 158.031H40.3027V198.423H49.8941V158.031Z" fill="#157B6C"/>
<path d="M61.8794 179.551H52.2881V198.424H61.8794V179.551Z" fill="#157B6C"/>
<path d="M184.68 125.985C184.608 125.985 184.536 125.957 184.481 125.902C184.371 125.792 184.371 125.612 184.481 125.502L208.384 101.493C208.494 101.383 208.673 101.383 208.783 101.493C208.893 101.603 208.893 101.783 208.783 101.893L184.88 125.902C184.824 125.957 184.752 125.985 184.68 125.985Z" fill="black"/>
<path d="M159.136 151.642C159.064 151.642 158.992 151.614 158.937 151.559C158.827 151.449 158.827 151.269 158.937 151.159L174.424 135.603C174.534 135.493 174.713 135.493 174.823 135.603C174.932 135.714 174.932 135.894 174.823 136.004L159.336 151.559C159.28 151.614 159.208 151.642 159.136 151.642Z" fill="black"/>
<path d="M198.636 99.5139C198.564 99.5139 198.492 99.486 198.437 99.4315C198.327 99.3212 198.327 99.1412 198.437 99.0309L208.584 88.8393C210.491 86.9238 210.491 83.8051 208.584 81.8895C207.554 80.855 206.986 79.4782 206.986 78.0139C206.986 76.5497 207.554 75.1742 208.584 74.1384L222.519 60.1411C222.629 60.0308 222.808 60.0308 222.918 60.1411C223.028 60.2514 223.028 60.4314 222.918 60.5417L208.982 74.539C208.058 75.467 207.55 76.7018 207.55 78.0139C207.55 79.3261 208.058 80.5609 208.982 81.4889C211.11 83.6263 211.11 87.1025 208.982 89.24L198.836 99.4315C198.78 99.486 198.708 99.5139 198.636 99.5139Z" fill="black"/>
<path d="M134.95 85.4267C134.878 85.4267 134.806 85.3988 134.75 85.3443C134.641 85.234 134.641 85.054 134.75 84.9437L158.755 60.8335C158.864 60.7232 159.044 60.7232 159.153 60.8335C159.263 60.9437 159.263 61.1238 159.153 61.2341L135.149 85.3443C135.094 85.3988 135.022 85.4267 134.95 85.4267Z" fill="black"/>
<path d="M97.0894 27.7257C97.0174 27.7257 96.9455 27.6979 96.89 27.6433C96.7802 27.533 96.7802 27.353 96.89 27.2427L116.336 7.71163C116.446 7.60133 116.625 7.60133 116.735 7.71163C116.845 7.82192 116.845 8.00194 116.735 8.11224L97.2888 27.6433C97.2345 27.6979 97.1613 27.7257 97.0894 27.7257Z" fill="black"/>
<path d="M193.594 107.331C191.955 107.331 190.621 105.993 190.621 104.35C190.621 102.707 191.954 101.37 193.594 101.37C193.749 101.37 193.875 101.497 193.875 101.653C193.875 101.809 193.749 101.935 193.594 101.935C192.266 101.935 191.185 103.019 191.185 104.35C191.185 105.682 192.266 106.765 193.594 106.765C194.921 106.765 196.002 105.682 196.002 104.35C196.002 104.194 196.128 104.068 196.283 104.068C196.438 104.068 196.565 104.194 196.565 104.35C196.566 105.995 195.232 107.331 193.594 107.331Z" fill="black"/>
<path d="M155.11 80.5977C155.038 80.5977 154.966 80.5698 154.91 80.5152L153.682 79.2804C153.572 79.1702 153.572 78.9901 153.682 78.8798C153.792 78.7695 153.971 78.7695 154.081 78.8798L155.309 80.1146C155.419 80.2249 155.419 80.405 155.309 80.5152C155.253 80.5698 155.181 80.5977 155.11 80.5977Z" fill="black"/>
<path d="M159.407 84.9194C159.335 84.9194 159.263 84.8915 159.208 84.837L157.98 83.6022C157.87 83.4919 157.87 83.3119 157.98 83.2016C158.09 83.0913 158.269 83.0913 158.379 83.2016L159.607 84.4364C159.717 84.5467 159.717 84.7267 159.607 84.837C159.553 84.8928 159.481 84.9194 159.407 84.9194Z" fill="black"/>
<path d="M153.881 84.9194C153.809 84.9194 153.738 84.8915 153.682 84.837C153.572 84.7267 153.572 84.5467 153.682 84.4364L154.91 83.2016C155.02 83.0913 155.198 83.0913 155.309 83.2016C155.419 83.3119 155.419 83.4919 155.309 83.6022L154.081 84.837C154.025 84.8928 153.953 84.9194 153.881 84.9194Z" fill="black"/>
<path d="M158.179 80.5977C158.107 80.5977 158.035 80.5698 157.98 80.5152C157.87 80.405 157.87 80.2249 157.98 80.1146L159.208 78.8798C159.318 78.7695 159.496 78.7695 159.607 78.8798C159.717 78.9901 159.717 79.1702 159.607 79.2804L158.379 80.5152C158.324 80.5698 158.252 80.5977 158.179 80.5977Z" fill="black"/>
<path d="M111.631 19.5082C111.559 19.5082 111.488 19.4803 111.432 19.4258C111.322 19.3155 111.322 19.1355 111.432 19.0252L126.038 4.35469C126.148 4.2444 126.327 4.2444 126.437 4.35469C126.547 4.46499 126.547 4.64501 126.437 4.75531L111.831 19.4246C111.775 19.4803 111.703 19.5082 111.631 19.5082Z" fill="black"/>
</g>
<defs>
<clipPath id="clip0_255_7041">
<rect width="223" height="232" fill="white"/>
</clipPath>
</defs>
</svg>
