<svg width="50" height="50" viewBox="0 0 50 50" fill="none" xmlns="http://www.w3.org/2000/svg">
<path d="M47.9592 0H2.04082C0.91551 0 0 0.91551 0 2.04082V47.9592C0 49.0845 0.91551 50 2.04082 50H47.9592C49.0845 50 50 49.0845 50 47.9592V2.04082C50 0.91551 49.0845 0 47.9592 0ZM47.9592 47.9592H2.04082V9.18367H47.9592V47.9592ZM47.9592 7.14286H2.04082V2.04082H47.9592V7.14286Z" fill="black"/>
<path d="M7.65346 3.57129H4.08203V5.61211H7.65346V3.57129Z" fill="black"/>
<path d="M12.755 3.57129H9.18359V5.61211H12.755V3.57129Z" fill="black"/>
<path d="M45.9191 3.57129H42.3477V5.61211H45.9191V3.57129Z" fill="black"/>
<path d="M12.2439 30.612H13.9982C14.1006 30.8909 14.2114 31.1612 14.3303 31.4222L13.0938 32.6659C12.7086 33.0511 12.4965 33.5628 12.4965 34.1069C12.4965 34.651 12.7087 35.1627 13.0938 35.5478L15.9815 38.4355C16.3667 38.8207 16.8784 39.0328 17.4225 39.0328C17.9666 39.0328 18.4783 38.8207 18.8614 38.4376L20.1072 37.1991C20.3681 37.3178 20.6385 37.4287 20.9174 37.531V39.2854C20.9174 40.4107 21.8329 41.3262 22.9582 41.3262H27.0399C28.1652 41.3262 29.0807 40.4107 29.0808 39.2854V37.531C29.3597 37.4287 29.63 37.3178 29.891 37.199L31.1347 38.4354C31.5199 38.8206 32.0316 39.0327 32.5757 39.0327C33.1198 39.0327 33.6315 38.8205 34.0166 38.4354L36.9042 35.5477C37.2895 35.1625 37.5016 34.6508 37.5016 34.1067C37.5016 33.5626 37.2895 33.0509 36.9064 32.6678L35.6678 31.422C35.7866 31.1611 35.8974 30.8907 35.9998 30.6118H37.7541C38.8795 30.6118 39.795 29.6963 39.795 28.571V24.4894C39.795 23.3641 38.8795 22.4486 37.7541 22.4486H35.9998C35.8974 22.1697 35.7866 21.8994 35.6677 21.6384L36.9041 20.3947C37.2894 20.0095 37.5015 19.4977 37.5015 18.9537C37.5015 18.4096 37.2892 17.8978 36.9041 17.5127L34.0165 14.6251C33.6313 14.2399 33.1196 14.0277 32.5755 14.0277C32.0314 14.0277 31.5197 14.2399 31.1366 14.6229L29.8908 15.8615C29.6299 15.7427 29.3595 15.6319 29.0806 15.5296V13.7752C29.0806 12.6499 28.1651 11.7344 27.0398 11.7344H22.9581C21.8328 11.7344 20.9173 12.6499 20.9173 13.7752V15.5296C20.6384 15.6319 20.3681 15.7427 20.1071 15.8616L18.8634 14.6252C18.4782 14.24 17.9665 14.0278 17.4224 14.0278C16.8783 14.0278 16.3666 14.2401 15.9815 14.6252L13.0938 17.5128C12.7086 17.898 12.4965 18.4098 12.4965 18.9539C12.4965 19.4979 12.7086 20.0097 13.0917 20.3927L14.3303 21.6386C14.2115 21.8995 14.1007 22.1699 13.9983 22.4488H12.2439C11.1186 22.4488 10.2031 23.3643 10.2031 24.4896V28.5712C10.2031 29.6965 11.1186 30.612 12.2439 30.612ZM12.2439 24.4894H14.7339C15.1846 24.4894 15.5818 24.1938 15.7113 23.7621C15.9126 23.0912 16.1663 22.4744 16.4654 21.9289C16.6829 21.5322 16.6132 21.0398 16.2942 20.7189L14.5371 18.9559L17.4225 16.0703L19.1878 17.8253C19.5086 18.1443 20.0011 18.2138 20.3978 17.9964C20.9433 17.6973 21.5602 17.4437 22.2311 17.2423C22.6628 17.1129 22.9583 16.7156 22.9583 16.265V13.7752H27.04V16.2652C27.04 16.7158 27.3356 17.113 27.7672 17.2425C28.4381 17.4439 29.055 17.6975 29.6005 17.9966C29.9971 18.2142 30.4895 18.1446 30.8105 17.8255L32.5734 16.0684L35.459 18.9538L33.704 20.7191C33.3851 21.0399 33.3154 21.5323 33.5329 21.9291C33.832 22.4746 34.0857 23.0914 34.287 23.7623C34.4164 24.1941 34.8137 24.4896 35.2644 24.4896H37.7541V28.5712H35.2644C34.8137 28.5712 34.4165 28.8668 34.287 29.2985C34.0857 29.9694 33.832 30.5862 33.5329 31.1317C33.3154 31.5284 33.3851 32.0208 33.704 32.3417L35.4612 34.1047L32.5758 36.9903L30.8105 35.2353C30.4895 34.9163 29.9971 34.8466 29.6005 35.0642C29.055 35.3633 28.4381 35.6169 27.7672 35.8183C27.3355 35.9476 27.04 36.345 27.04 36.7956V39.2854H22.9583V36.7955C22.9583 36.3449 22.6627 35.9476 22.2311 35.8182C21.5602 35.6168 20.9433 35.3632 20.3978 35.0641C20.2436 34.9796 20.075 34.9385 19.9075 34.9385C19.6441 34.9385 19.3839 35.0402 19.1876 35.2351L17.4247 36.9922L14.539 34.1068L16.294 32.3415C16.613 32.0207 16.6827 31.5283 16.4652 31.1315C16.1661 30.586 15.9124 29.9692 15.7111 29.2983C15.5817 28.8665 15.1843 28.571 14.7337 28.571H12.2439V24.4894Z" fill="black"/>
<path d="M25.0005 31.6328C27.8137 31.6328 30.1025 29.344 30.1025 26.5308C30.1025 23.7175 27.8137 21.4287 25.0005 21.4287C22.1872 21.4287 19.8984 23.7175 19.8984 26.5308C19.8984 29.344 22.1872 31.6328 25.0005 31.6328ZM25.0005 23.4695C26.6884 23.4695 28.0617 24.8428 28.0617 26.5308C28.0617 28.2187 26.6884 29.592 25.0005 29.592C23.3125 29.592 21.9393 28.2187 21.9393 26.5308C21.9393 24.8428 23.3125 23.4695 25.0005 23.4695Z" fill="black"/>
<path d="M40.8182 15.3062H38.7773V17.347H40.8182V15.3062Z" fill="black"/>
<path d="M43.8768 15.3062H41.8359V17.347H43.8768V15.3062Z" fill="black"/>
<path d="M46.9393 15.3062H44.8984V17.347H46.9393V15.3062Z" fill="black"/>
<path d="M5.09941 35.7139H3.05859V37.7547H5.09941V35.7139Z" fill="black"/>
<path d="M8.16191 35.7139H6.12109V37.7547H8.16191V35.7139Z" fill="black"/>
<path d="M11.2244 35.7139H9.18359V37.7547H11.2244V35.7139Z" fill="black"/>
<path d="M43.3675 43.8774H6.63281V45.9183H43.3675V43.8774Z" fill="black"/>
</svg>
