<svg width="71" height="75" viewBox="0 0 71 75" fill="none" xmlns="http://www.w3.org/2000/svg">
<path d="M31.1943 74.8677C27.7685 74.1809 24.8108 71.8197 23.3728 68.6235C22.7403 67.2174 22.4711 65.889 22.4758 64.1951C22.4885 59.3267 25.526 55.2615 30.2448 53.796C31.1141 53.5261 31.6877 53.4548 33.0205 53.4512C33.9446 53.4491 34.9636 53.498 35.285 53.5607L35.8694 53.6749L36.5886 52.2674C38.0573 49.3933 40.3461 47.1354 43.305 45.6419C45.746 44.4097 47.28 44.0514 50.1134 44.0514C52.098 44.0514 52.5584 44.0997 53.8388 44.4416C59.3681 45.9181 63.6778 50.2915 65.0342 55.8025C65.3739 57.1824 65.5433 60.2764 65.3457 61.4901L65.2108 62.3189L65.9851 62.4936C67.9259 62.9313 69.6008 64.2979 70.4572 66.1422C71.304 67.966 71.149 70.326 70.069 72.0502C69.5178 72.9302 68.4372 73.9083 67.5355 74.3434C67.0732 74.5663 66.5809 74.8091 66.4413 74.8829C66.128 75.0486 32.0234 75.0339 31.1943 74.8677ZM66.6497 72.8333C67.6092 72.3524 68.5583 71.2774 68.9526 70.2244C69.7708 68.0398 68.6792 65.5016 66.5016 64.5251C65.9517 64.2785 65.5409 64.2215 64.3941 64.2324C63.6106 64.2399 62.9697 64.19 62.9697 64.1217C62.9697 64.0533 63.1152 63.4125 63.2931 62.6975C63.7481 60.8684 63.7435 57.9518 63.2824 56.1706C62.2665 52.2429 59.6326 48.9668 56.0299 47.15C54.4467 46.3517 52.9409 45.9865 50.8834 45.9019C47.8388 45.7767 45.7133 46.2602 43.3709 47.6109C40.6395 49.1859 38.2851 52.04 37.3724 54.8822C37.1969 55.4289 36.9841 55.8753 36.8995 55.8742C36.8144 55.8732 36.3183 55.7306 35.796 55.5573C34.3429 55.0753 31.8648 55.1046 30.4147 55.6209C28.9549 56.1407 27.9041 56.807 26.8099 57.9062C25.1699 59.554 24.2589 61.7997 24.2589 64.1951C24.2589 67.7523 26.2031 70.8707 29.3661 72.3869C31.184 73.2583 30.555 73.2322 49.0174 73.2032L65.9642 73.1766L66.6497 72.8333ZM17.7538 65.9485C11.6228 65.1112 6.90375 63.5596 3.41307 61.2336C1.97278 60.2739 0.978367 59.2004 0.417689 58.0002L0 57.1059L0.0382667 32.8961L0.0765415 8.68626L0.425346 8.02666C1.30708 6.35931 3.02621 4.93656 5.76326 3.60927C9.22406 1.93092 13.215 0.881659 18.7764 0.187909C21.0666 -0.0977769 28.8439 -0.0472624 31.1943 0.268573C39.8495 1.43157 46.5661 4.28164 48.7072 7.69978C49.5508 9.04675 49.529 8.5585 49.529 26.1583V42.3168L49.0543 42.391C48.7932 42.4317 48.2016 42.5057 47.7396 42.5554C42.9734 43.0684 38.0305 46.3892 35.4968 50.7808L34.978 51.6799L32.9402 51.7768C30.5322 51.8914 29.3053 52.2023 27.4747 53.1616C24.3314 54.8086 22.0849 57.6641 21.1688 61.1767C20.9158 62.1469 20.8409 62.8502 20.8358 64.3055L20.8252 66.1828L20.0179 66.1654C19.5739 66.1558 18.5533 66.0583 17.7498 65.9485H17.7538ZM30.2175 43.6338C29.0674 42.6502 28.0728 41.7977 28.0072 41.7394C27.9413 41.6811 28.1806 41.4606 28.5381 41.2494C29.3309 40.7811 30.3518 39.6603 30.7854 38.7822C31.8447 36.6362 31.8211 33.9671 30.7237 31.8432C29.5171 29.5073 26.9919 28.2819 24.131 28.6439C22.5645 28.8422 21.5832 29.285 20.5483 30.2607C18.9147 31.8008 18.3489 33.3119 18.4348 35.9054C18.4837 37.3799 18.5358 37.6451 18.9543 38.54C19.8548 40.4663 21.7377 41.9061 23.6558 42.135C24.3774 42.2212 24.4401 42.2688 25.874 43.8229L27.3496 45.4222H29.8289H32.3083L30.2175 43.6338ZM23.9611 38.6124C22.9564 38.0987 22.5749 37.2185 22.5749 35.4139C22.5749 34.2397 22.6312 33.8969 22.9176 33.3098C23.3757 32.3723 24.289 31.8086 25.185 31.9104C26.0663 32.0105 26.5244 32.3698 26.9905 33.3263C27.3442 34.0523 27.3954 34.3275 27.3912 35.4836C27.3912 36.9098 27.1358 37.641 26.424 38.3081C25.6805 39.0052 24.9144 39.0998 23.9611 38.6124ZM13.8518 42.03C16.4936 41.4159 17.9286 39.1861 17.1678 36.8776C16.7848 35.7152 15.9752 34.9892 13.9978 34.0348C13.0846 33.5941 12.2679 33.1434 12.183 33.0334C11.8504 32.6028 11.8512 32.3178 12.183 31.926C12.6975 31.3232 13.8688 31.2943 15.4548 31.8455L16.6646 32.266L16.6231 30.6387L16.5816 29.0114L15.7782 28.819C14.563 28.5279 11.9366 28.5421 10.9032 28.8454C8.83125 29.4536 7.73945 30.8185 7.74625 32.7917C7.75689 34.8225 8.66105 35.7852 11.8579 37.1523C13.2104 37.7306 13.3653 38.8115 12.1563 39.2347C11.5968 39.4305 11.4375 39.4267 10.5522 39.1963C10.0115 39.0556 9.19121 38.743 8.72919 38.5015L7.88913 38.0625V39.8242V41.5858L8.72919 41.8215C9.19121 41.9511 9.63495 42.0802 9.71532 42.1084C10.0492 42.2256 13.2698 42.1646 13.8485 42.03H13.8518ZM42.0783 40.4897V38.9437H39.7408H37.4034V33.864V28.7843H35.5041H33.6049V35.41V42.0357H37.8417H42.0783V40.4897ZM30.8292 13.981C34.6388 13.536 37.7649 12.7311 39.7408 11.6867C41.0389 11.0005 41.3502 10.7533 41.8492 10.0122C43.3923 7.72048 39.937 5.41622 33.2396 4.27067C26.9475 3.19442 18.6554 3.43787 13.3482 4.85468C2.39781 7.77807 6.71462 13.1482 20.8661 14.2069C23.1887 14.3806 28.4237 14.2619 30.8292 13.981Z" fill="#00BCF2"/>
</svg>
