<svg width="77" height="77" viewBox="0 0 77 77" fill="none" xmlns="http://www.w3.org/2000/svg">
<path d="M47.621 36.1924L32.4008 41.1621L19.1602 47.0058L15.4552 47.9843C14.4773 48.9181 13.4761 49.8272 12.4526 50.7108C11.2793 51.7225 10.1868 52.6434 9.34726 53.3102C8.41508 54.0464 7.03461 55.4269 6.33279 56.3015C5.28542 57.6131 4.45773 59.0048 4.10089 60.0748C3.46795 62.0074 3.77908 63.9633 4.99804 65.7694C6.56317 68.0702 9.68036 70.4173 13.3153 72.0157C15.1678 72.8333 18.285 73.8801 20.6327 74.4661C24.5318 75.4559 32.079 76.5264 36.2317 76.6867C37.0712 76.7218 38.1988 76.7218 38.2445 76.6867C38.3371 76.6291 38.9813 75.3983 39.7294 73.8688C42.2826 68.6569 44.1232 63.7679 45.1249 59.5915C45.7228 57.0609 46.1942 53.6902 46.5047 49.6984C46.5855 48.5822 46.6199 44.8433 46.551 43.578C46.4471 41.5076 46.2631 39.8279 45.9751 38.1832C45.9294 37.941 45.9181 37.7225 45.9413 37.7106C45.987 37.6768 46.1253 37.6304 48.0004 37.0895L47.621 36.1924ZM44.147 38.2289C44.2853 38.2289 44.6528 41.76 44.7449 43.9919C44.768 44.4639 44.7567 44.7744 44.733 44.7744C44.6415 44.7744 42.789 43.6819 41.4668 42.8531C40.3161 42.1287 38.1299 40.6794 37.7855 40.4027C37.6697 40.3225 37.681 40.3106 38.6245 39.9888C40.2234 39.4485 44.0205 38.2283 44.1464 38.2283L44.147 38.2289ZM36.3926 40.7821C36.4965 40.7821 36.7607 40.9317 37.3936 41.323C39.7633 42.8074 42.985 44.6023 44.3654 45.2002C44.7906 45.3842 44.8369 45.3148 43.859 45.9827C41.7654 47.4089 39.1541 48.8125 35.9562 50.2274C35.3921 50.4804 34.9201 50.6757 34.9088 50.6757C34.8856 50.6757 34.9551 50.3884 35.0471 50.0434C35.8172 47.1785 36.2548 44.2798 36.278 41.9559C36.2899 40.8052 36.2899 40.8052 36.3932 40.7708C36.3694 40.7827 36.3813 40.7827 36.3932 40.7827L36.3926 40.7821ZM34.7942 41.3919C34.8631 41.4613 34.8168 44.0382 34.7247 44.74C34.5184 46.4357 34.1644 48.1101 33.6667 49.7441C33.5402 50.1699 33.425 50.5267 33.4019 50.5493C33.3555 50.6068 31.7797 49.0649 31.262 48.467C30.3648 47.4315 29.663 46.3966 29.1453 45.3842C28.881 44.8665 28.4666 43.8541 28.501 43.8197C28.6851 43.6926 34.7479 41.3461 34.7942 41.3919ZM27.2702 44.3487C27.2815 44.3487 27.2928 44.3487 27.3046 44.36C27.3278 44.3832 27.4085 44.5678 27.4774 44.7744C27.8455 45.7749 28.6732 47.2474 29.3869 48.1909C30.1695 49.2264 31.1931 50.3314 32.0445 51.0557C32.3206 51.2855 32.5736 51.504 32.608 51.5384C32.6769 51.6079 32.7 51.596 30.8244 52.3097C28.6513 53.138 26.281 53.9663 23.5658 54.8403C22.9172 55.0494 22.2692 55.2604 21.6219 55.4732C21.518 55.5077 21.553 55.4495 21.8516 54.978C23.1977 52.8738 25.2449 48.7437 26.3956 45.8212C26.5915 45.3148 26.7875 44.8089 26.8219 44.6937C26.8676 44.5328 26.9252 44.4752 27.0743 44.3944C27.155 44.3719 27.2358 44.3487 27.2702 44.3487ZM24.9694 45.3035C25.0039 45.3266 24.4172 46.5575 23.8419 47.6844C22.7256 49.8593 21.5067 51.9992 19.8733 54.5992C19.5966 55.0475 19.333 55.4619 19.2973 55.5077C19.2403 55.5884 19.2178 55.5653 19.0331 55.209C18.6418 54.4377 18.32 53.4485 18.1472 52.5395C17.975 51.6424 18.0095 50.0778 18.2054 49.1112C18.3539 48.3987 18.3432 48.41 18.6881 48.2372C20.1606 47.4891 24.9231 45.2578 24.9694 45.3035ZM44.8137 46.1092V46.5919C44.8137 49.1575 44.5376 52.6778 44.1351 55.2428C44.0662 55.6917 44.0086 56.0599 43.9973 56.0717C43.9973 56.0717 43.6636 55.9797 43.2729 55.8645C41.4395 55.2823 39.6669 54.5233 37.9803 53.5982C36.864 52.9884 35.2431 51.9873 35.2888 51.9416C35.3001 51.9297 35.7834 51.6768 36.3469 51.3775C38.6019 50.2043 40.7644 48.939 42.64 47.6844C43.3418 47.213 44.3999 46.4542 44.6297 46.2469L44.8137 46.1092ZM16.284 49.5138C16.3298 49.5138 16.3179 49.6058 16.249 50.0202C16.1916 50.4286 16.1494 50.839 16.1225 51.2505C16.0305 52.9308 16.3066 54.1735 17.1349 55.8758C17.3653 56.3472 17.5493 56.7385 17.5375 56.7498C17.4573 56.8193 9.84126 59.0512 7.44845 59.7067C6.73536 59.9026 6.11429 60.0748 6.06798 60.0861C5.98723 60.1098 5.97595 60.0979 6.01039 59.902C6.2752 58.211 7.56364 56.0023 9.35854 54.1385C10.5544 52.8958 11.5097 52.1714 13.1431 51.2398C14.3164 50.5724 16.1225 49.5714 16.2603 49.5256C16.2603 49.5138 16.2722 49.5138 16.284 49.5138ZM34.2301 52.7236C34.242 52.7117 34.5175 52.8619 34.8512 53.0573C37.3135 54.484 40.7412 55.8069 43.663 56.4856L43.9279 56.5432L43.5597 56.7504C42.0302 57.6018 37.0024 59.6954 31.8605 61.6162C31.1124 61.8923 30.3761 62.1683 30.2384 62.2259C30.1006 62.2835 29.9735 62.318 29.9735 62.3061C29.9735 62.2942 30.1808 61.8923 30.445 61.3977C31.883 58.7056 33.3324 55.4269 34.0692 53.1493C34.1613 52.9308 34.2183 52.7354 34.2295 52.7236H34.2301ZM32.4014 53.3215C32.4127 53.3333 32.3206 53.575 32.2055 53.8511C31.2044 56.2784 29.8928 58.9247 28.2131 61.8923C27.7879 62.6523 27.4311 63.2614 27.4198 63.2614C27.4085 63.2614 27.063 63.0542 26.6485 62.8013C24.21 61.3056 22.047 59.465 20.6327 57.682L20.4249 57.429L21.4722 57.1411C25.2224 56.1174 28.409 55.0131 31.5725 53.6558C32.0214 53.4717 32.3901 53.3215 32.4014 53.3215ZM43.767 57.2907C43.7788 57.5555 43.1916 59.9252 42.7083 61.6393C42.3057 63.0774 41.9608 64.2043 41.3278 66.1946C41.0523 67.0698 40.8113 67.7935 40.7994 67.7935C40.7875 67.7935 40.7186 67.7828 40.6492 67.7597C37.2327 67.138 34.1725 66.2753 31.2964 65.1252C30.4913 64.8028 29.3412 64.2851 29.2717 64.2275C29.2492 64.2043 29.9391 63.8825 30.8137 63.5031C36.0482 61.2136 41.4774 58.6136 43.3418 57.4979C43.5603 57.3596 43.7325 57.2907 43.767 57.2907ZM17.5262 58.1879C17.5493 58.2116 16.0881 60.3164 14.0409 63.1813C13.3272 64.1818 12.4989 65.355 12.1884 65.792C11.8291 66.2989 11.4801 66.813 11.1416 67.334L10.6583 68.0821L10.1405 67.6445C9.53073 67.138 8.47267 66.0568 8.00064 65.4589C7.01145 64.2281 6.34408 62.9278 6.07986 61.7432C5.95279 61.191 5.95279 60.9144 6.06798 60.8805C8.10636 60.3936 10.1465 59.914 12.1884 59.4419C13.5624 59.1255 14.9352 58.8035 16.3066 58.4758C16.974 58.3149 17.5149 58.1879 17.5262 58.1879ZM18.9987 58.7519L19.3668 59.1658C21.0234 61.0183 22.7144 62.3874 24.7622 63.5833C25.1303 63.7911 25.4064 63.9751 25.3833 63.987C25.3031 64.044 18.2737 66.5401 15.0182 67.6677C13.9048 68.0622 12.7889 68.4495 11.6706 68.8296C11.6593 68.8296 11.5554 68.7602 11.4408 68.68L11.2336 68.5304L11.5673 68.0471C12.6479 66.4825 14.0058 64.7684 16.9621 61.2023L18.9987 58.7519ZM28.1792 65.3206C28.1905 65.3087 28.6964 65.4928 29.318 65.7237C30.8137 66.2872 31.9982 66.644 33.5859 67.0466C35.5417 67.5412 38.3715 68.0245 40.04 68.1629C40.2929 68.1854 40.4307 68.2086 40.385 68.243C40.3042 68.2887 38.6132 68.8528 37.3711 69.2435C35.3921 69.8651 29.3525 71.6482 24.4285 73.0631C23.8508 73.2321 23.2718 73.3972 22.6918 73.5583C22.5766 73.5808 22.1966 73.4769 22.1966 73.4312C22.1966 73.4086 22.4727 73.0518 22.8064 72.6605C24.4629 70.6815 26.1082 68.4728 27.4774 66.3792C27.8574 65.8039 28.1792 65.3319 28.1792 65.3206ZM26.1545 65.3782C26.1658 65.39 25.3488 66.701 23.922 68.9561C23.3129 69.9108 22.6336 70.9927 22.3925 71.3721C22.1622 71.7402 21.8166 72.3155 21.6219 72.6374L21.2882 73.224L21.1154 73.1783C20.701 73.0631 17.7904 72.0389 17.0197 71.7283C16.1057 71.3648 15.2111 70.9541 14.3395 70.4981C13.4192 70.0029 12.2691 69.2666 12.3611 69.2435C12.3837 69.2316 13.9601 68.8065 15.8583 68.2887C20.8963 66.9195 23.6923 66.1263 25.5216 65.5509C25.8553 65.447 26.1427 65.3669 26.1539 65.3788L26.1545 65.3782ZM40.477 68.737H40.4889C40.5346 68.8528 38.6708 74.0291 37.9915 75.6625C37.8425 76.0306 37.7849 76.1233 37.7042 76.1114C37.5088 76.0995 34.8055 75.7207 33.1602 75.479C30.2959 75.042 25.4866 74.2019 24.2795 73.9258L24.0028 73.8682L25.7169 73.4769C29.3982 72.6486 31.1699 72.2004 32.9649 71.6482C35.2826 70.9394 37.547 70.0666 39.7407 69.0363C40.097 68.8759 40.3962 68.7483 40.477 68.737Z" fill="url(#paint0_linear_3308_2386)"/>
<path d="M31.9284 0.713484C31.6755 0.679047 27.5911 2.15155 24.9572 3.22148C21.4018 4.67083 18.6415 6.0513 16.9386 7.2477C16.3057 7.69658 15.5118 8.49042 15.3854 8.80095C15.3382 8.92593 15.3148 9.05865 15.3165 9.19223L16.8585 10.6529L20.5278 11.8267L29.2595 13.3912L39.2446 15.1054L39.3485 14.2427C39.3141 14.2427 39.2909 14.2308 39.2565 14.2308L37.9449 14.0242L37.6807 13.5521C36.3228 11.1593 34.8277 8.19117 33.9531 6.18964C33.2751 4.63639 32.6302 2.84208 32.274 1.55364C32.0781 0.771078 32.0555 0.724766 31.9284 0.712891V0.713484ZM31.7444 1.30011H31.7562C31.7675 1.31198 31.8132 1.63439 31.8596 2.0138C32.0555 3.62405 32.4117 5.1773 32.9758 6.85702C33.4009 8.1217 33.4009 8.05342 32.9063 7.9038C31.7331 7.58198 26.476 6.67295 22.6677 6.14333C22.0579 6.06317 21.5402 5.98302 21.5402 5.97114C21.4945 5.92483 24.2892 4.4642 25.5207 3.88886C27.0965 3.16448 31.4226 1.3577 31.7444 1.30011ZM20.6543 6.45445L21.1032 6.60408C23.5423 7.43236 29.6734 8.6062 33.056 8.8823C33.4354 8.91673 33.7578 8.95117 33.7685 8.95117C33.7803 8.96305 33.4585 9.13523 33.0441 9.33058C31.4107 10.1476 29.6158 11.1486 28.3736 11.9193C28.0055 12.1491 27.6718 12.3338 27.6255 12.3338C27.5798 12.3338 27.3381 12.2875 27.0852 12.2524L26.6251 12.1835L25.4744 11.056C24.0755 9.69364 22.6683 8.33987 21.2528 6.99477L20.6543 6.45445ZM20.1941 6.8113L21.8163 8.83598C22.7021 9.95223 23.5999 11.0447 23.7952 11.2864C23.9906 11.528 24.1515 11.7234 24.1396 11.7353C24.0939 11.7697 21.7931 11.3208 20.5741 11.0453C19.3201 10.7574 18.8024 10.619 18.0317 10.3774L17.3988 10.1701V10.0098C17.4106 9.23795 18.3886 8.08786 20.0445 6.9152L20.1941 6.8113ZM33.9763 9.57223C34.022 9.57223 34.0796 9.67555 34.2173 9.98608C34.6092 10.8488 35.8282 13.1727 36.1274 13.6216C36.2195 13.7712 36.3804 13.7831 34.7582 13.5183C30.8585 12.8854 29.6045 12.6781 29.6045 12.6556C29.6045 12.6437 29.7197 12.5635 29.8693 12.4828C31.0776 11.8154 32.2966 10.9646 33.3784 10.0555C33.6426 9.83705 33.8842 9.62983 33.9306 9.59539C33.9418 9.57223 33.9644 9.56095 33.9763 9.57223Z" fill="url(#paint1_linear_3308_2386)"/>
<path d="M15.469 8.63965C15.469 8.63965 15.2161 9.0428 15.4572 9.6413C15.6068 10.0094 16.0438 10.4577 16.539 10.9179C16.539 10.9179 21.6577 15.9107 22.2793 16.6238C25.1092 19.8912 26.3406 23.1123 26.4552 27.553C26.5247 30.4059 25.9837 32.9139 24.6377 35.8245C22.2449 41.0471 17.1945 46.8112 9.40625 53.2071L10.5451 52.8271C11.2813 52.2749 12.2824 51.6889 14.6295 50.4005C20.0474 47.4317 26.1447 44.7058 33.6223 41.898C44.39 37.8486 62.095 33.1093 72.1722 31.5679L73.2195 31.407L73.058 31.1535C72.1377 29.7267 71.5048 28.8414 70.7454 27.8979C68.5366 25.1601 65.857 22.9401 62.5778 21.0995C58.0682 18.5796 52.2358 16.6125 44.8502 15.1519C43.4578 14.8752 40.3976 14.3462 37.9128 13.9668C33.7655 13.3287 29.6239 12.6537 25.4886 11.9421C24.1425 11.7117 22.1291 11.3667 20.795 11.0788C20.1044 10.9291 18.7822 10.6186 17.7467 10.2624C16.9184 9.93996 15.722 9.61815 15.4684 8.64024L15.469 8.63965ZM18.4372 11.5158C18.4485 11.5051 18.6325 11.574 18.8742 11.6541C19.4253 11.8392 19.9816 12.0081 20.5426 12.1606C21.0474 12.2995 21.5535 12.4336 22.0608 12.5631C22.7508 12.7353 23.3261 12.8962 23.3374 12.8962C23.4182 12.977 24.5801 16.6927 24.9714 18.1195C25.121 18.6598 25.2362 19.1199 25.2249 19.1199C25.2131 19.1318 25.0866 18.9359 24.937 18.6716C23.5909 16.302 21.4629 13.8979 19.0007 11.9646C18.6788 11.7349 18.4372 11.5276 18.4372 11.5158ZM24.0968 13.0809C24.155 13.0809 24.4079 13.1153 24.7185 13.1842C26.6737 13.6212 30.1827 14.2886 32.4253 14.6686C32.8053 14.7262 33.1046 14.7951 33.1046 14.8176C33.1046 14.8414 32.9668 14.9215 32.7941 15.0136C32.4141 15.2089 30.8846 16.1179 30.3781 16.4623C29.1015 17.3143 27.9508 18.2346 27.1226 19.0629C26.7889 19.3966 26.5015 19.6727 26.5015 19.6727C26.5015 19.6727 26.4326 19.4768 26.3744 19.2357C25.9606 17.6361 25.0979 15.2665 24.3153 13.5981C24.1888 13.3338 24.0855 13.0922 24.0855 13.0696C24.0855 13.0922 24.0849 13.0809 24.0968 13.0809ZM34.0599 14.9785C34.1288 15.0023 34.244 15.393 34.4738 16.2557C34.9053 17.9772 35.0912 19.7511 35.026 21.5246C35.0028 22.0079 34.9797 22.4568 34.9565 22.5144L34.9221 22.629L34.3242 22.4331C33.0933 22.0424 31.0918 21.4557 29.3776 20.9724C28.3997 20.7076 27.6059 20.4666 27.6059 20.444C27.6059 20.3745 29.0327 18.9477 29.6424 18.4074C30.8038 17.3832 33.956 14.9447 34.0599 14.9785ZM34.8532 15.0937C34.8876 15.0593 39.6162 15.8757 41.7674 16.2901C43.367 16.6006 45.6903 17.084 45.8287 17.1416C45.8969 17.1647 45.6559 17.3019 44.8846 17.648C41.8476 19.0166 39.5931 20.2475 37.3499 21.7431C36.7633 22.1344 36.2681 22.4568 36.2574 22.4568C36.2455 22.4568 36.2337 22.1231 36.2337 21.7206C36.2337 19.535 35.7972 17.3256 34.9915 15.4624C34.9108 15.2784 34.8419 15.1056 34.8532 15.0943V15.0937ZM47.0821 17.5103C47.1165 17.5441 46.9675 18.4763 46.8291 19.0285C46.4147 20.7426 45.299 23.2851 43.9304 25.6779C43.6882 26.1036 43.4697 26.4486 43.4465 26.4599C43.424 26.4717 43.114 26.299 42.7566 26.0917C41.4224 25.3092 39.9036 24.5735 38.2471 23.883C37.7869 23.6871 37.3843 23.5267 37.3731 23.503C37.2923 23.4347 40.9967 20.9843 42.9519 19.8105C44.5058 18.867 47.0369 17.464 47.0821 17.5097V17.5103ZM47.9567 17.648C48.06 17.648 50.1535 18.2228 51.2466 18.5452C53.95 19.3503 57.0565 20.4891 59.0812 21.4094L59.9207 21.7894L59.3341 21.9272C54.3882 23.066 50.1541 24.3782 46.0697 26.0341C45.736 26.1725 45.4368 26.2877 45.4142 26.2877C45.3917 26.2877 45.5063 26.0229 45.6559 25.7011C46.8867 23.0891 47.6806 20.3632 47.8765 18.0387C47.8878 17.8202 47.9222 17.648 47.9567 17.648ZM27.1113 22.4336C27.1457 22.3992 28.7441 22.7786 29.6074 23.0203C30.9196 23.3884 33.7031 24.3206 33.7031 24.3889C33.7031 24.4007 33.3926 24.6656 33.0244 24.9874C31.5175 26.2414 30.0676 27.5642 28.3302 29.244C27.8131 29.7386 27.3761 30.1411 27.3529 30.1411C27.3292 30.1411 27.3185 30.0722 27.3292 29.9802C27.594 28.0476 27.537 25.5627 27.1689 23.0434C27.1338 22.721 27.1 22.4449 27.1113 22.4336ZM60.7146 22.4681C60.7371 22.4912 59.9783 23.6871 59.495 24.3657C58.8051 25.3555 57.7921 26.6671 55.5032 29.5432C54.4946 30.8093 53.4899 32.0785 52.4893 33.3509C52.0292 33.9263 51.6498 34.409 51.6373 34.409C51.6266 34.409 51.477 34.2024 51.3155 33.9494C50.0271 32.0162 48.4857 30.3252 46.6563 28.807C46.3775 28.571 46.0938 28.3408 45.8055 28.1164C45.6784 28.0244 45.5751 27.9324 45.5751 27.9205C45.5751 27.8866 47.5303 27.0465 49.0147 26.4486C51.6153 25.3899 55.1577 24.1246 57.8159 23.3076C59.2076 22.8706 60.6914 22.4449 60.7146 22.4681ZM61.6004 22.6979C61.6462 22.6866 61.9228 22.8249 62.2559 23.0203C65.0519 24.6192 67.7897 26.679 69.9521 28.7951C70.5619 29.3936 72.0694 30.9581 72.0463 30.9694C72.0463 30.9694 71.5167 31.0157 70.8956 31.0614C66.0524 31.4296 59.8518 32.4532 53.893 33.8912C53.4898 33.9833 53.133 34.0634 53.1104 34.0634C53.0878 34.0634 53.5361 33.6151 54.1002 33.0748C57.5974 29.7041 59.1963 27.5761 61.0827 23.7791C61.3475 23.2162 61.5773 22.7323 61.6004 22.6979C61.5886 22.6979 61.5886 22.6979 61.6004 22.6979ZM35.9807 25.3211C36.1416 25.3555 37.6373 26.0573 38.7648 26.6214C39.8003 27.1385 41.3536 27.9668 41.4337 28.0363C41.4456 28.0476 40.8934 28.3349 40.2142 28.6692C38.1862 29.6774 36.2019 30.7711 34.2666 31.9473C33.7144 32.281 33.2542 32.5571 33.2429 32.5571C33.1966 32.5571 33.2085 32.5108 33.519 31.9473C34.5545 30.061 35.3828 27.8059 35.8542 25.6084C35.9 25.4362 35.9463 25.3211 35.9807 25.3211ZM34.4851 25.5971C34.5195 25.6316 34.1288 27.0465 33.8872 27.8178C33.4151 29.2784 32.6213 31.1071 31.8506 32.4882C31.6665 32.81 31.3904 33.2821 31.2408 33.5463L30.9534 34.0064L30.3092 33.3854C29.5611 32.661 28.9519 32.2121 28.1699 31.809C27.8588 31.6487 27.6172 31.5103 27.6172 31.4872C27.6172 31.3951 29.5848 29.6121 31.0918 28.3236C32.1724 27.3915 34.4506 25.5627 34.4851 25.5971ZM43.6312 29.3591L44.1952 29.7273C45.4837 30.5674 47.0019 31.6831 48.1639 32.6604C48.8194 33.2007 50.0847 34.3407 50.3382 34.6162L50.4759 34.7658L49.5437 35.0306C44.2754 36.4913 40.2029 37.7916 35.4517 39.5402C34.9221 39.7361 34.4738 39.8964 34.4393 39.8964C34.3705 39.8964 34.3129 39.954 35.498 38.8609C38.535 36.0661 41.2265 32.9828 43.2286 29.9802L43.6312 29.3591ZM41.2265 29.9571C41.2502 29.9802 39.6738 32.2002 38.7304 33.4542C37.6028 34.9499 35.6013 37.4579 34.2202 39.0913C33.6455 39.7706 33.1515 40.334 33.1277 40.3453C33.0933 40.3572 33.0814 40.185 33.0814 39.9196C33.0814 38.5278 32.7252 37.0435 32.1041 35.7782C31.8393 35.2491 31.793 35.1227 31.8512 35.0651C32.0697 34.8691 35.4172 32.9596 37.5334 31.8208C38.9607 31.0614 41.1921 29.9345 41.2265 29.9571ZM26.6856 33.5237C26.72 33.5237 26.9842 33.6615 27.2841 33.8224C27.9841 34.2039 28.6465 34.6508 29.2624 35.1571C29.2856 35.1797 28.9863 35.4219 28.5951 35.7093C27.5026 36.4913 25.846 37.7459 24.8794 38.5166C23.867 39.3217 23.8326 39.3442 23.9472 39.1721C24.7072 38.0101 25.0866 37.3546 25.4892 36.5144C25.8595 35.7331 26.1821 34.9301 26.4552 34.1097C26.5472 33.7772 26.6624 33.5237 26.6856 33.5237ZM30.5627 36.5601C30.6197 36.5495 30.6892 36.6528 30.9992 37.1129C31.6547 38.0908 32.1611 39.4024 32.2876 40.4605L32.3113 40.6903L30.7349 41.3007C27.9164 42.3932 25.3164 43.4744 23.5565 44.2801C22.9135 44.5816 22.273 44.8883 21.6351 45.2004C21.0711 45.4878 20.6115 45.7063 20.6115 45.695C20.6115 45.6837 20.9678 45.4189 21.4048 45.0965C24.8449 42.6004 27.8244 39.862 30.0563 37.1242C30.2979 36.8368 30.5164 36.572 30.539 36.5607L30.5627 36.5601ZM28.7791 36.9977C28.8254 37.0435 27.5138 38.5278 26.6167 39.4369C24.3961 41.7026 22.1992 43.4744 19.4727 45.1998C19.1271 45.4183 18.8166 45.6142 18.7822 45.6368C18.702 45.6831 18.8047 45.5679 20.0017 44.2682C20.7033 43.5151 21.3675 42.728 21.992 41.9098C22.429 41.3458 22.5091 41.2656 23.1421 40.8173C24.8337 39.5972 28.7334 36.952 28.7791 36.9977Z" fill="url(#paint2_radial_3308_2386)"/>
<defs>
<linearGradient id="paint0_linear_3308_2386" x1="15.2411" y1="69.1979" x2="20.7419" y2="65.9475" gradientUnits="userSpaceOnUse">
<stop stop-color="#909CA9"/>
<stop offset="1" stop-color="#EDEDEE"/>
</linearGradient>
<linearGradient id="paint1_linear_3308_2386" x1="15.3662" y1="7.92002" x2="19.7923" y2="7.92002" gradientUnits="userSpaceOnUse">
<stop stop-color="#939FAB"/>
<stop offset="1" stop-color="#DCDEE1"/>
</linearGradient>
<radialGradient id="paint2_radial_3308_2386" cx="0" cy="0" r="1" gradientUnits="userSpaceOnUse" gradientTransform="translate(37.7527 28.2985) rotate(-171.408) scale(5.7113 11.4234)">
<stop stop-color="#EE352C"/>
<stop offset="1" stop-color="#A91D22"/>
</radialGradient>
</defs>
</svg>
