<svg width="235" height="95" viewBox="0 0 235 95" fill="none" xmlns="http://www.w3.org/2000/svg">
<rect x="0.5" y="0.5" width="234" height="94" fill="#061611" stroke="white"/>
<g clip-path="url(#clip0_2084_1703)">
<path d="M57.0916 20.0945C58.2837 20.8011 59.3163 21.6755 60.23 22.6756C61.0742 23.5759 61.988 24.4108 62.8993 25.2515C63.0949 25.4326 63.2904 25.6137 63.4859 25.7948C63.9045 26.1825 64.3234 26.5701 64.7425 26.9574C65.4066 27.5713 66.0698 28.186 66.7328 28.8009C68.6176 30.5486 70.5031 32.2955 72.3905 34.0408C73.4347 35.0064 74.478 35.9728 75.5202 36.9403C76.1775 37.5504 76.836 38.1594 77.4953 38.7676C77.9071 39.1479 78.3177 39.5293 78.728 39.911C78.9167 40.0862 79.1059 40.2609 79.2957 40.4352C80.7319 41.7553 82.1925 43.1467 82.9234 44.9296C82.9903 45.088 83.0572 45.2464 83.1261 45.4097C83.8079 47.2414 83.7641 49.6911 82.977 51.4784C82.8688 51.6848 82.8688 51.6847 82.7584 51.8952C82.6899 52.0294 82.6214 52.1636 82.5508 52.3018C82.0642 53.1428 81.4328 53.8352 80.7343 54.5294C80.6414 54.6223 80.5484 54.7153 80.4526 54.811C79.5157 55.743 78.5508 56.648 77.5783 57.5477C77.3875 57.7248 77.1968 57.902 77.0061 58.0792C76.6006 58.4559 76.1948 58.8323 75.7887 59.2086C75.1454 59.8047 74.5029 60.4014 73.8604 60.9983C72.4978 62.2638 71.1345 63.5287 69.771 64.7935C68.2954 66.1625 66.8198 67.5316 65.3451 68.9015C64.7076 69.4937 64.0696 70.0855 63.4312 70.677C63.0337 71.0455 62.6366 71.4144 62.2395 71.7833C62.0566 71.9531 61.8736 72.1228 61.6904 72.2923C60.7867 73.1285 59.9007 73.9673 59.0776 74.8732C57.8007 76.2164 55.6328 77.3091 53.6929 77.4548C49.9733 77.5442 49.9733 77.5442 48.2721 76.7712C48.1258 76.7056 47.9795 76.64 47.8288 76.5724C46.1551 75.7266 44.8081 74.4232 43.5481 73.1156C41.9567 71.4923 40.2601 69.961 38.5849 68.4132C37.9592 67.835 37.3344 67.256 36.7098 66.6769C34.9353 65.0318 33.16 63.3873 31.3828 61.7446C30.3974 60.8337 29.4129 59.9219 28.4294 59.0091C27.8102 58.4344 27.1898 57.8608 26.5685 57.288C26.1814 56.9305 25.7954 56.5721 25.4097 56.2133C25.2322 56.0486 25.0543 55.8843 24.8758 55.7205C23.5158 54.4713 22.2514 53.1859 21.5496 51.5066C21.4811 51.3466 21.4126 51.1867 21.342 51.022C20.6455 49.1963 20.7002 46.7324 21.4843 44.9481C21.5566 44.8103 21.629 44.6726 21.7035 44.5306C21.8093 44.3265 21.8093 44.3265 21.9173 44.1183C23.0441 42.1892 24.9976 40.6241 26.6554 39.0905C26.8427 38.9166 27.0299 38.7427 27.2171 38.5687C27.6157 38.1985 28.0145 37.8286 28.4135 37.4589C29.0457 36.8731 29.6772 36.2867 30.3085 35.7002C31.6478 34.4563 32.9879 33.2131 34.328 31.9699C35.7779 30.625 37.2276 29.2799 38.6765 27.934C39.303 27.352 39.93 26.7705 40.5573 26.1892C40.9481 25.827 41.3385 25.4644 41.7288 25.1017C41.9086 24.9348 42.0885 24.768 42.2686 24.6014C43.165 23.772 44.0429 22.9381 44.8642 22.0435C47.9241 18.7242 53.0404 18.0101 57.0916 20.0945ZM51.4572 40.3997C51.3619 40.4887 51.2666 40.5777 51.1684 40.6693C51.07 40.7607 50.9717 40.852 50.8703 40.9461C50.6609 41.1408 50.4518 41.3356 50.2428 41.5306C49.9272 41.825 49.6107 42.1186 49.2941 42.412C48.3747 43.2667 47.4704 44.1215 46.627 45.0424C46.0382 45.664 45.3971 46.2396 44.7641 46.8219C44.5584 47.012 44.5584 47.012 44.3486 47.2061C44.0146 47.5148 43.6802 47.8231 43.3455 48.1311C44.2597 49.1534 45.2532 50.0797 46.2724 51.0108C46.8657 51.5567 47.4442 52.1042 47.9875 52.6937C48.7649 53.5343 49.6141 54.3067 50.4605 55.0866C50.6228 55.2368 50.785 55.387 50.9522 55.5417C51.3488 55.9086 51.7457 56.2752 52.143 56.6413C53.0354 55.946 53.8739 55.2202 54.6943 54.4524C54.8043 54.3507 54.9143 54.249 55.0276 54.1443C55.5679 53.6407 56.0891 53.1301 56.5864 52.5895C57.4262 51.6852 58.3463 50.8539 59.258 50.0132C59.4389 49.8457 59.6198 49.6782 59.8006 49.5107C60.2388 49.1049 60.6775 48.6997 61.1165 48.2948C60.1165 47.1639 58.998 46.1494 57.8786 45.1228C56.9708 44.2892 56.0808 43.4519 55.2511 42.5498C54.7185 41.9855 54.1449 41.4593 53.5726 40.9302C53.4537 40.819 53.3349 40.7078 53.2124 40.5933C53.0995 40.4884 52.9865 40.3836 52.8702 40.2755C52.7174 40.1338 52.7175 40.1338 52.5617 39.9891C52.0569 39.5637 51.8617 40.0258 51.4572 40.3997Z" fill="#D0E2F3" fill-opacity="0.52"/>
<path d="M59.7092 22.4365C60.8371 23.3023 61.8661 24.2536 62.8996 25.214C63.0951 25.3951 63.2906 25.5761 63.4862 25.7571C64.0145 26.2464 64.5422 26.7362 65.0697 27.2261C65.4002 27.533 65.7307 27.8398 66.0612 28.1465C67.0979 29.1085 68.1342 30.0708 69.1699 31.0335C70.3611 32.1408 71.5535 33.247 72.7469 34.3522C73.6723 35.2095 74.5968 36.0677 75.5205 36.9267C76.0708 37.4383 76.6215 37.9496 77.1733 38.4599C77.6928 38.9404 78.211 39.4221 78.7283 39.9047C78.9171 40.0804 79.1063 40.2556 79.296 40.4305C80.7304 41.753 82.1927 43.1459 82.9237 44.9292C83.024 45.1669 83.024 45.1669 83.1264 45.4093C83.8082 47.2411 83.7644 49.6907 82.9773 51.4781C82.9052 51.6156 82.833 51.7532 82.7587 51.8949C82.6902 52.0291 82.6217 52.1632 82.5511 52.3015C82.0646 53.1423 81.4334 53.8345 80.735 54.5285C80.642 54.6215 80.5491 54.7144 80.4533 54.8102C79.5141 55.7445 78.5472 56.6524 77.573 57.5552C77.3817 57.7331 77.1904 57.911 76.9991 58.089C76.4874 58.5651 75.9751 59.0406 75.4627 59.516C74.9234 60.0166 74.3846 60.5177 73.8458 61.0187C72.8278 61.9651 71.8093 62.911 70.7907 63.8568C69.6333 64.9316 68.4763 66.0068 67.3194 67.082C65.3422 68.9197 63.3646 70.7571 61.3865 72.594C61.224 72.7449 61.0615 72.8958 60.8941 73.0513C60.7537 73.1817 60.6132 73.3122 60.4685 73.4466C60.0392 73.8453 59.6103 74.2443 59.1813 74.6433C59.3889 74.2534 59.6018 73.8667 59.8185 73.4811C61.0972 71.1739 61.7987 69.1227 61.0178 66.5116C60.2978 64.6593 59.2162 63.2623 57.6913 61.9138C57.5364 61.7728 57.3815 61.6319 57.2219 61.4866C56.7335 61.0422 56.2423 60.6006 55.7503 60.1596C55.0971 59.5738 54.4469 58.9854 53.7983 58.3952C53.6474 58.2615 53.4964 58.1279 53.3408 57.9902C53.2038 57.8655 53.0669 57.7408 52.9258 57.6124C52.8041 57.5035 52.6824 57.3945 52.557 57.2823C52.3193 56.9683 52.3193 56.9683 52.3501 56.6219C52.5517 56.1937 52.8402 55.9407 53.2004 55.6156C53.3451 55.4833 53.4898 55.351 53.6389 55.2147C53.7913 55.0778 53.9437 54.9409 54.1008 54.7998C55.3059 53.7164 55.3059 53.7164 56.4369 52.5674C57.2648 51.668 58.179 50.8459 59.0824 50.0128C59.2633 49.8454 59.4442 49.6779 59.625 49.5104C60.0631 49.1046 60.5018 48.6994 60.9408 48.2944C59.9409 47.1636 58.8224 46.1491 57.703 45.1225C56.7928 44.2867 55.9026 43.4465 55.0715 42.5414C54.4653 41.9072 53.7877 41.3329 53.1193 40.756C53.0131 40.6606 52.907 40.5652 52.7976 40.467C52.7013 40.3828 52.6051 40.2985 52.5059 40.2118C52.3193 39.9479 52.3193 39.9479 52.3562 39.6434C52.5305 39.2043 52.7641 38.9895 53.1256 38.6642C53.259 38.5428 53.3923 38.4214 53.5298 38.2963C53.6751 38.1663 53.8204 38.0362 53.9702 37.9022C54.2768 37.6224 54.5833 37.3426 54.8898 37.0628C55.3731 36.6243 55.8572 36.1866 56.3422 35.7498C56.8108 35.3269 57.2766 34.9014 57.7421 34.4756C57.8853 34.3482 58.0285 34.2207 58.176 34.0895C60.109 32.3148 61.2882 30.1308 61.3477 27.5917C61.3326 25.9144 60.8189 24.4657 59.8769 23.0432C59.7092 22.7638 59.7092 22.7638 59.7092 22.4365Z" fill="#FEFEFE" fill-opacity="0.59"/>
</g>
<path d="M102.69 55.8428H94.6265V55.0576H97.0425V38.5082H94.6265V37.723H104.019C105.609 37.723 106.958 38.0955 108.065 38.8404C109.374 39.7464 110.028 40.9443 110.028 42.4342C110.028 42.9778 109.938 43.5113 109.757 44.0347C109.153 45.6454 107.824 46.7124 105.77 47.2359L110.572 55.0576H111.417C111.538 55.0576 111.649 55.0677 111.75 55.0878C112.032 55.1281 112.172 55.3797 112.172 55.8428H107.31L102.599 47.5379H100.274V55.0576H102.69V55.8428ZM102.75 38.5082H100.274V46.6621H102.901C103.707 46.6621 104.411 46.4306 105.015 45.9675C106.002 45.1823 106.495 44.0347 106.495 42.5248C106.495 41.9006 106.384 41.3067 106.163 40.743C105.579 39.2532 104.441 38.5082 102.75 38.5082ZM116.461 49.3499C116.461 50.0143 116.491 50.6183 116.551 51.1618C116.833 53.9805 117.981 55.3898 119.994 55.3898C122.269 55.3495 123.427 53.2959 123.467 49.2291C123.467 48.4439 123.427 47.7292 123.346 47.0849C123.004 44.5884 121.877 43.3402 119.964 43.3402C117.83 43.5012 116.662 45.5045 116.461 49.3499ZM120.055 42.5852C121.544 42.5852 122.863 42.9778 124.011 43.763C125.782 45.0112 126.668 46.8534 126.668 49.2895C126.668 51.1014 126.115 52.6416 125.007 53.91C123.699 55.3998 121.997 56.1448 119.904 56.1448C118.373 56.1448 117.025 55.7018 115.857 54.816C114.125 53.5275 113.26 51.6652 113.26 49.2291C113.26 47.4775 113.793 45.9977 114.86 44.7897C116.169 43.32 117.9 42.5852 120.055 42.5852ZM131.198 60.6445C131.46 60.6445 131.712 60.5942 131.953 60.4935C132.92 60.111 133.926 58.6513 134.973 56.1146L129.356 43.7328H127.967V42.9476H134.339V43.7328H132.376L136.332 52.853L139.956 43.7328H137.721V42.9476H142.372C142.372 43.1086 142.362 43.2395 142.342 43.3402C142.281 43.6019 142.04 43.7328 141.617 43.7328C141.476 43.7328 141.345 43.7428 141.224 43.763C140.963 43.8234 140.731 44.1253 140.53 44.6689L136.03 55.9938C135.607 57.0608 135.164 57.9769 134.701 58.7419C133.554 60.6747 132.165 61.6411 130.534 61.6411C129.97 61.6411 129.457 61.5404 128.994 61.3391C128.148 60.9364 127.725 60.3828 127.725 59.6781C127.725 59.5775 127.735 59.4768 127.755 59.3761C127.917 58.7721 128.329 58.4701 128.994 58.4701C129.275 58.4701 129.517 58.5406 129.718 58.6815C129.94 58.8225 130.171 59.2251 130.413 59.8895C130.594 60.3928 130.856 60.6445 131.198 60.6445ZM154.21 56.1448C152.7 56.1246 151.794 55.2186 151.492 53.4268C151.331 53.8295 151.1 54.212 150.798 54.5744C149.872 55.6213 148.643 56.1448 147.113 56.1448C146.489 56.1448 145.915 56.0441 145.392 55.8428C144.003 55.2992 143.308 54.2221 143.308 52.6114C143.308 52.3094 143.338 52.0175 143.399 51.7356C143.902 49.6015 146.57 48.5043 151.402 48.4439V46.5111C151.382 44.4374 150.556 43.3804 148.925 43.3402C148.523 43.3402 148.18 43.4106 147.899 43.5516C147.516 43.773 147.194 44.2864 146.932 45.0917C146.872 45.2931 146.821 45.4441 146.781 45.5447C146.54 46.2091 146.107 46.5413 145.483 46.5413C145.322 46.5413 145.16 46.5212 144.999 46.4809C144.395 46.2997 144.093 45.887 144.093 45.2427C144.093 44.9005 144.204 44.5582 144.426 44.2159C145.171 43.1288 146.761 42.5852 149.197 42.5852C152.559 42.6053 154.261 44.1656 154.301 47.2661V53.608C154.321 54.5945 154.573 55.1079 155.056 55.1482C155.68 55.1281 156.062 54.4033 156.203 52.9738L156.989 53.004C156.968 53.4671 156.908 53.8798 156.807 54.2422C156.485 55.5106 155.62 56.1448 154.21 56.1448ZM148.352 54.9066C148.654 54.9066 148.966 54.8361 149.288 54.6952C150.355 54.2321 151.059 53.2959 151.402 51.8866V49.2593C150.214 49.2794 149.247 49.3801 148.503 49.5613C147.053 49.9237 146.328 50.7894 146.328 52.1584C146.328 52.4403 146.348 52.702 146.389 52.9436C146.59 54.2523 147.244 54.9066 148.352 54.9066ZM164.72 55.0878C164.84 55.0878 164.951 55.0979 165.052 55.118C165.314 55.1784 165.444 55.42 165.444 55.8428H157.925V55.0878C158.569 55.0878 159.052 55.0375 159.374 54.9368C159.938 54.7556 160.22 54.2221 160.22 53.3362V36.9681H157.925V36.2131H163.119V55.0878H164.72ZM166.683 43.763V43.008H168.797V40.139L171.696 39.5048V43.008H176.075V43.763H171.696V52.9436C171.716 54.4536 172.239 55.2287 173.266 55.269C174.273 55.2488 174.998 54.3429 175.441 52.551L176.256 52.702C176.196 53.0241 176.115 53.3362 176.014 53.6382C175.451 55.3294 174.313 56.175 172.602 56.175C172.441 56.175 172.27 56.1649 172.088 56.1448C169.894 55.9434 168.797 54.5241 168.797 51.8866V43.763H166.683ZM188.185 56.1448C186.675 56.1246 185.769 55.2186 185.467 53.4268C185.306 53.8295 185.074 54.212 184.772 54.5744C183.846 55.6213 182.618 56.1448 181.088 56.1448C180.464 56.1448 179.89 56.0441 179.366 55.8428C177.977 55.2992 177.283 54.2221 177.283 52.6114C177.283 52.3094 177.313 52.0175 177.373 51.7356C177.877 49.6015 180.544 48.5043 185.376 48.4439V46.5111C185.356 44.4374 184.531 43.3804 182.9 43.3402C182.497 43.3402 182.155 43.4106 181.873 43.5516C181.491 43.773 181.168 44.2864 180.907 45.0917C180.846 45.2931 180.796 45.4441 180.756 45.5447C180.514 46.2091 180.081 46.5413 179.457 46.5413C179.296 46.5413 179.135 46.5212 178.974 46.4809C178.37 46.2997 178.068 45.887 178.068 45.2427C178.068 44.9005 178.179 44.5582 178.4 44.2159C179.145 43.1288 180.736 42.5852 183.172 42.5852C186.534 42.6053 188.235 44.1656 188.275 47.2661V53.608C188.295 54.5945 188.547 55.1079 189.03 55.1482C189.654 55.1281 190.037 54.4033 190.178 52.9738L190.963 53.004C190.943 53.4671 190.883 53.8798 190.782 54.2422C190.46 55.5106 189.594 56.1448 188.185 56.1448ZM182.326 54.9066C182.628 54.9066 182.94 54.8361 183.262 54.6952C184.329 54.2321 185.034 53.2959 185.376 51.8866V49.2593C184.188 49.2794 183.222 49.3801 182.477 49.5613C181.027 49.9237 180.303 50.7894 180.303 52.1584C180.303 52.4403 180.323 52.702 180.363 52.9436C180.564 54.2523 181.219 54.9066 182.326 54.9066ZM191.205 55.8428C191.205 55.7018 191.215 55.571 191.235 55.4502C191.275 55.2488 191.446 55.1281 191.748 55.0878C192.332 55.0073 192.835 54.7053 193.258 54.1818L196.731 49.7123L192.654 43.7026H191.235V42.9476H197.667V43.7026H195.795L198.724 48.0513L201.926 43.7026H199.872V42.9476H204.372C204.372 43.0885 204.362 43.2194 204.342 43.3402C204.281 43.5415 204.1 43.6522 203.798 43.6724C203.174 43.7529 202.66 44.0649 202.258 44.6085L199.208 48.7761L203.466 55.0878H204.07C204.17 55.0878 204.271 55.0979 204.372 55.118C204.674 55.1583 204.825 55.3998 204.825 55.8428H198.634V55.0878H200.416L197.245 50.4069L193.621 55.0878H195.825V55.8428H191.205ZM212.073 55.0878C212.214 55.0878 212.334 55.0979 212.435 55.118C212.697 55.1583 212.828 55.3998 212.828 55.8428H205.67V55.0878C206.174 55.0878 206.566 55.0576 206.848 54.9972C207.492 54.816 207.814 54.2724 207.814 53.3664V43.7026H205.67V42.9476H210.714V55.0878H212.073ZM211.046 38.7196C211.046 39.0216 210.985 39.3035 210.865 39.5652C210.522 40.2497 209.949 40.592 209.143 40.592C208.861 40.592 208.59 40.5316 208.328 40.4108C207.623 40.0887 207.271 39.5249 207.271 38.7196C207.271 38.4176 207.341 38.1257 207.482 37.8438C207.825 37.1593 208.378 36.8171 209.143 36.8171C209.445 36.8171 209.737 36.8875 210.019 37.0285C210.704 37.3908 211.046 37.9546 211.046 38.7196Z" fill="white" fill-opacity="0.56"/>
<defs>
<clipPath id="clip0_2084_1703">
<rect width="62.4625" height="58.4258" fill="white" transform="translate(21 19)"/>
</clipPath>
</defs>
</svg>
