<svg width="259" height="221" viewBox="0 0 259 221" fill="none" xmlns="http://www.w3.org/2000/svg">
<g clip-path="url(#clip0_261_1194)">
<path d="M106.888 207.261C106.888 207.261 103.917 213.21 102.601 214.996L96.5108 217.693C94.2225 218.9 94.2471 220.754 94.2471 220.754L110.899 220.951L115.802 207.168L106.888 207.261Z" fill="#157B6C"/>
<path d="M161.562 195.122L134.496 169.553C134.496 169.553 125.471 161.03 119.892 164.164C112.621 168.253 104.969 210.857 104.969 210.857L119.8 215.26L127.12 189.364C131.045 192.985 134.047 195.215 139.275 199.279C153.657 210.469 161.562 195.122 161.562 195.122Z" fill="white" stroke="black" stroke-miterlimit="10" stroke-linecap="round" stroke-linejoin="round"/>
<path d="M123.663 184.906L126.739 188.878" stroke="black" stroke-width="1.0299" stroke-miterlimit="10" stroke-linecap="round"/>
<path d="M126.413 185.281L126.739 188.878" stroke="black" stroke-width="1.0299" stroke-miterlimit="10" stroke-linecap="round"/>
<path d="M155.497 219.836C155.497 219.836 166.557 219.614 168.772 219.664L174.037 220.452C178.423 221.406 180.213 220.815 181.29 220.156L168.87 209.447L151.037 209.73L155.497 219.836Z" fill="#157B6C"/>
<path d="M139.066 182.393C139.066 182.393 108.291 195.412 108.278 212.076C108.272 218.167 114.602 220.507 117.013 220.507L160.209 220.686L160.566 206.799L134.453 206.146C134.453 206.146 163.346 208.813 166.176 185.46L139.066 182.393Z" fill="white" stroke="black" stroke-miterlimit="10" stroke-linecap="round" stroke-linejoin="round"/>
<path d="M147.543 127.614C147.543 127.614 150.895 128.729 151.425 131.956C151.954 135.183 153.448 158.597 171.208 156.928C187.054 155.438 186.039 143.755 181.794 139.937C177.064 135.682 169.387 139.894 167.258 132.75C165.462 126.715 155.749 120.286 147.543 127.614Z" fill="#157B6C" stroke="#157B6C" stroke-width="1.0299" stroke-miterlimit="10" stroke-linecap="round"/>
<path d="M140.45 156.084L136.298 141.402L141.951 134.955L152.169 154.113L140.45 156.084Z" fill="white" stroke="black" stroke-miterlimit="10" stroke-linecap="round" stroke-linejoin="round"/>
<path d="M138.002 146.157L140.881 142.462L137.11 143.109L138.002 146.157Z" fill="black" stroke="black" stroke-width="1.0299" stroke-miterlimit="10" stroke-linecap="round"/>
<path d="M153.313 128.766C154.395 135.324 146.682 142.068 139.718 143.219C132.755 144.371 129.39 140.75 128.307 134.191C127.225 127.632 131.783 120.131 138.746 118.98C145.704 117.822 152.224 122.207 153.313 128.766Z" fill="white" stroke="black" stroke-miterlimit="10" stroke-linecap="round" stroke-linejoin="round"/>
<path d="M153.313 128.766C152.23 122.207 145.703 117.828 138.74 118.98C133.259 119.891 129.279 124.732 128.362 129.948C128.436 129.979 132.668 130.293 134.969 125.803C134.969 125.803 134.926 133.089 143.021 132.467C143.021 132.467 144.338 141.698 144.682 141.526C147.21 140.257 148.902 138.662 149.732 137.812C152.279 135.195 153.842 131.962 153.313 128.766Z" fill="#157B6C" stroke="black" stroke-width="1.0299" stroke-miterlimit="10" stroke-linecap="round"/>
<path d="M133.561 138.083C133.561 138.083 135.234 138.49 136.083 136.734L133.561 138.083Z" fill="white"/>
<path d="M133.561 138.083C133.561 138.083 135.234 138.49 136.083 136.734" stroke="black" stroke-miterlimit="10" stroke-linecap="round" stroke-linejoin="round"/>
<path d="M142.8 138.434C143.587 138.36 144.387 137.985 145.014 137.326C146.269 136.008 146.355 134.056 145.211 132.96C144.436 132.221 143.47 132.251 142.535 132.762" fill="white"/>
<path d="M142.8 138.434C143.587 138.36 144.387 137.985 145.014 137.326C146.269 136.008 146.355 134.056 145.211 132.96C144.436 132.221 143.47 132.251 142.535 132.762" stroke="black" stroke-miterlimit="10" stroke-linecap="round" stroke-linejoin="round"/>
<path d="M142.166 136.297C142.166 136.297 142.806 134.906 144.036 135.423L142.166 136.297Z" fill="white"/>
<path d="M142.166 136.297C142.166 136.297 142.806 134.906 144.036 135.423" stroke="black" stroke-miterlimit="10" stroke-linecap="round" stroke-linejoin="round"/>
<path d="M180.828 198.46C180.828 198.46 185.958 197.068 185.404 195.867C184.851 194.66 180.649 196.261 180.649 196.261C183.707 194.623 181.443 194.636 181.443 194.636C179.044 195.27 177.764 193.89 176.885 193.071C165.16 182.085 161.438 156.946 144.553 163.388L148.945 172.946C154.204 180.964 166.544 194.654 166.544 194.654C173.151 201.859 176.7 202.013 176.7 202.013C178.976 203.036 186.37 201.157 186.026 200.252C185.681 199.347 180.822 200.542 180.822 200.542C180.822 200.542 186.143 199.076 186.21 198.01C186.29 196.939 180.828 198.46 180.828 198.46Z" fill="white" stroke="black" stroke-miterlimit="10" stroke-linecap="round" stroke-linejoin="round"/>
<path d="M148.939 147.142L138.401 150.93L139.066 182.399C139.066 182.399 145.168 182.06 148.939 188.194C152.71 194.328 155.496 197.937 163.782 200.88C163.782 200.874 175.802 183.704 148.939 147.142Z" fill="white" stroke="black" stroke-miterlimit="10" stroke-linecap="round" stroke-linejoin="round"/>
<path d="M120.028 117.496L91.7969 116.214L90.0226 155.385L118.254 156.667L120.028 117.496Z" fill="#157B6C"/>
<path d="M95.9385 143.884L101.149 135.472L109.201 142.216L114.922 125.397" stroke="black" stroke-width="1.0299" stroke-miterlimit="10" stroke-linecap="round"/>
<path d="M97.7035 144.624L94.6401 146.114L93.2314 142.862L96.2949 141.366L97.7035 144.624Z" fill="white" stroke="black" stroke-miterlimit="10" stroke-linecap="round" stroke-linejoin="round"/>
<path d="M103.086 136.759L100.023 138.25L98.6143 134.998L101.678 133.508L103.086 136.759Z" fill="white" stroke="black" stroke-miterlimit="10" stroke-linecap="round" stroke-linejoin="round"/>
<path d="M111.427 143.103L108.358 144.593L106.955 141.341L110.018 139.845L111.427 143.103Z" fill="white" stroke="black" stroke-miterlimit="10" stroke-linecap="round" stroke-linejoin="round"/>
<path d="M117.825 126.444L114.755 127.941L113.353 124.683L116.416 123.192L117.825 126.444Z" fill="white" stroke="black" stroke-miterlimit="10" stroke-linecap="round" stroke-linejoin="round"/>
<path d="M139.263 169.811C136.821 162.144 129.931 148.3 129.931 148.3C126.216 140.99 123.38 140.06 123.38 140.06C121.775 138.724 115.371 138.57 115.445 139.383C115.519 140.196 119.714 140.325 119.714 140.325C119.714 140.325 115.082 140.307 114.787 141.15C114.491 141.994 119.246 142 119.246 142C119.246 142 114.787 141.963 114.965 143.066C115.143 144.162 118.896 143.817 118.896 143.817C116.06 144.451 117.887 144.95 117.887 144.95C119.966 144.981 120.692 146.379 121.215 147.241C128.215 158.763 125.564 179.917 140.653 178.519" fill="white"/>
<path d="M139.263 169.811C136.821 162.144 129.931 148.3 129.931 148.3C126.216 140.99 123.38 140.06 123.38 140.06C121.775 138.724 115.371 138.57 115.445 139.383C115.519 140.196 119.714 140.325 119.714 140.325C119.714 140.325 115.082 140.307 114.787 141.15C114.491 141.994 119.246 142 119.246 142C119.246 142 114.787 141.963 114.965 143.066C115.143 144.162 118.896 143.817 118.896 143.817C116.06 144.451 117.887 144.95 117.887 144.95C119.966 144.981 120.692 146.379 121.215 147.241C128.215 158.763 125.564 179.917 140.653 178.519" stroke="black" stroke-miterlimit="10" stroke-linecap="round" stroke-linejoin="round"/>
<path d="M137.731 164.965L140.66 178.532C140.66 178.532 158 163.314 151.978 155.062C147.094 148.374 137.731 164.965 137.731 164.965Z" fill="white" stroke="black" stroke-miterlimit="10" stroke-linecap="round" stroke-linejoin="round"/>
<path d="M50.9951 220.754V184.425C50.9951 176.789 57.1835 170.594 64.8112 170.594H97.3892C105.017 170.594 111.205 176.789 111.205 184.425V220.754" stroke="#157B6C" stroke-width="6.0269" stroke-miterlimit="10"/>
<path d="M59.5645 131.001L64.6763 167.718H96.7253" stroke="black" stroke-width="2" stroke-miterlimit="10" stroke-linecap="round"/>
<path d="M64.6768 167.718H96.7257" stroke="black" stroke-width="4" stroke-miterlimit="10" stroke-linecap="round"/>
<path d="M136.193 56.2781C139.729 52.738 139.729 46.9983 136.193 43.4582C132.656 39.9181 126.923 39.9181 123.387 43.4582C119.851 46.9983 119.851 52.738 123.387 56.2781C126.923 59.8183 132.656 59.8183 136.193 56.2781Z" fill="white" stroke="black" stroke-miterlimit="10" stroke-linecap="round" stroke-linejoin="round"/>
<path d="M129.783 0.307861V46.2618" stroke="black" stroke-miterlimit="10" stroke-linecap="round" stroke-linejoin="round"/>
<path d="M129.784 38.6809C118.785 38.6809 109.865 45.3812 109.865 53.6458H149.702C149.702 45.3812 140.788 38.6809 129.784 38.6809Z" fill="#157B6C"/>
<path d="M183.418 176.53C194.62 175.138 206.221 183.101 208.971 194.063C209.383 195.72 209.617 197.475 209.18 199.125C208.75 200.776 207.538 202.303 205.883 202.716C203.465 203.319 200.943 201.188 200.574 198.719C200.205 196.249 201.571 193.767 203.496 192.191C207.888 188.582 214.686 189.235 219.398 192.425C224.104 195.609 227.081 200.788 229.314 206.016" stroke="black" stroke-width="1.0299" stroke-miterlimit="10" stroke-linecap="round"/>
<path d="M221.637 202.087L229.301 206.016L232.26 197.906" stroke="black" stroke-width="1.0299" stroke-miterlimit="10" stroke-linecap="round"/>
<path d="M99.6846 197.463H68.7183C66.4853 197.463 64.6768 195.652 64.6768 193.417C64.6768 191.181 66.4853 189.371 68.7183 189.371H99.6846V197.463Z" stroke="black" stroke-width="1.0299" stroke-miterlimit="10" stroke-linecap="round"/>
<path d="M70.668 189.371V197.463" stroke="black" stroke-width="1.0299" stroke-miterlimit="10" stroke-linecap="round"/>
<path d="M70.668 192.216H99.6843" stroke="black" stroke-width="1.0299" stroke-miterlimit="10" stroke-linecap="round"/>
<path d="M70.668 195.073H99.6843" stroke="black" stroke-width="1.0299" stroke-miterlimit="10" stroke-linecap="round"/>
<path d="M258.698 33.7788H158.916V99.8891H258.698V33.7788Z" fill="white" stroke="black" stroke-miterlimit="10" stroke-linecap="round" stroke-linejoin="round"/>
<path d="M158.916 68.4937H258.692" stroke="black" stroke-miterlimit="10" stroke-linecap="round" stroke-linejoin="round"/>
<path d="M208.804 33.7788V99.8891" stroke="black" stroke-miterlimit="10" stroke-linecap="round" stroke-linejoin="round"/>
<path d="M247.312 56.38C247.312 56.38 247.687 44.3588 235.353 44.4081C231.423 44.4266 227.935 46.3111 225.751 49.2424C224.139 47.8568 222.042 47.0131 219.747 47.0131C216.167 47.0131 213.067 49.0577 211.535 52.0384C203.95 48.5342 199.484 53.5841 199.484 56.38H247.312Z" stroke="black" stroke-width="1.0299" stroke-miterlimit="10" stroke-linecap="round"/>
<path d="M182.821 61.7872C182.821 63.2653 181.628 64.46 180.151 64.46C178.675 64.46 177.481 63.2653 177.481 61.7872C177.481 60.3092 178.675 59.1145 180.151 59.1145C181.628 59.1145 182.821 60.3154 182.821 61.7872Z" stroke="black" stroke-width="1.0299" stroke-miterlimit="10" stroke-linecap="round"/>
<path d="M179.456 87.1906C181.32 90.3005 185.952 90.7193 189.126 88.958C192.294 87.2029 194.287 83.9143 195.923 80.6811C198.489 75.6066 191.101 77.5527 194.078 84.721C195.302 87.6771 197.504 90.7132 200.691 90.9903C205.224 91.3844 207.968 86.3469 210.625 82.6457C212.44 80.1207 214.642 75.0277 217.583 74.5289C222.018 73.7837 222.172 80.2316 222.651 82.0052C223.131 83.7726 224.282 85.6448 226.102 85.8603C228.292 86.119 229.867 83.9512 231.454 82.4178C234.979 78.9937 240.755 78.1685 245.104 80.4594" stroke="black" stroke-miterlimit="10" stroke-linecap="round" stroke-linejoin="round"/>
<path d="M99.6043 33.791H0.344727V99.5626H99.6043V33.791Z" fill="white" stroke="black" stroke-miterlimit="10" stroke-linecap="round" stroke-linejoin="round"/>
<path d="M0.344727 68.3274H99.6043" stroke="black" stroke-width="1.0717" stroke-miterlimit="10" stroke-linecap="round"/>
<path d="M49.9746 33.791V99.5626" stroke="black" stroke-width="1.0717" stroke-miterlimit="10" stroke-linecap="round"/>
<path d="M0.344634 99.5627C0.0493651 94.8145 4.56452 81.1614 14.3638 81.9189C20.5336 82.3992 23.4002 89.0441 28.1122 92.6345C30.2098 94.2295 33.0272 95.3934 35.6969 94.7776C36.9395 94.4881 38.0406 93.8415 39.0187 93.0964C42.6788 90.3128 44.758 86.2667 47.3047 82.6209C49.8575 78.9813 53.3577 75.157 58.1435 74.732C71.5536 73.5435 78.3202 95.6275 79.8765 99.5627" stroke="black" stroke-width="1.0717" stroke-miterlimit="10" stroke-linecap="round"/>
<path d="M90.4445 83.5201C90.4445 84.253 89.8478 84.8504 89.1158 84.8504C88.3838 84.8504 87.7871 84.253 87.7871 83.5201C87.7871 82.7873 88.3838 82.1899 89.1158 82.1899C89.8478 82.1899 90.4445 82.7811 90.4445 83.5201Z" stroke="black" stroke-width="1.0717" stroke-miterlimit="10" stroke-linecap="round"/>
<path d="M37.5422 52.1246C37.5422 52.8575 36.9455 53.4549 36.2135 53.4549C35.4815 53.4549 34.8848 52.8575 34.8848 52.1246C34.8848 51.3918 35.4815 50.7944 36.2135 50.7944C36.9455 50.7944 37.5422 51.3918 37.5422 52.1246Z" stroke="black" stroke-width="1.0717" stroke-miterlimit="10" stroke-linecap="round"/>
<g opacity="0.55">
<path d="M88.7095 57.23L87.836 58.1045L86.9625 58.979L86.089 59.8535L85.2155 60.728L84.342 61.6025L83.4685 62.477L82.595 63.3515L81.7215 64.226L80.848 65.1005L79.9745 65.975L79.101 66.8495L78.2275 67.7239L77.354 68.5984L76.4805 69.4729L75.607 70.3474L74.7335 71.2219L73.86 72.0964L73.7861 72.1703C73.8292 72.1826 73.8723 72.1888 73.9153 72.2011L74.0691 72.0471L74.9426 71.1726L75.8161 70.2982L76.6896 69.4237L77.5631 68.5492L78.4366 67.6747L79.3101 66.8002L80.1836 65.9257L81.0571 65.0512L81.9306 64.1767L82.8041 63.3022L83.6776 62.4277L84.5511 61.5532L85.4246 60.6787L86.2981 59.8043L87.1717 58.9298L88.0452 58.0553L88.9187 57.1808L89.6507 56.4479C89.6384 56.4048 89.6322 56.3617 89.6199 56.3186L89.583 56.3556L88.7095 57.23Z" fill="black"/>
</g>
<g opacity="0.55">
<path d="M89.755 57.0515L89.5766 57.2301L88.7031 58.1046L87.8296 58.9791L86.9561 59.8536L86.0826 60.7281L85.2091 61.6026L84.3356 62.4771L83.4621 63.3515L82.5886 64.226L81.715 65.1005L80.8415 65.975L79.968 66.8495L79.0945 67.724L78.221 68.5985L76.474 70.3475L75.6005 71.222L74.727 72.0965L74.5117 72.312C74.5548 72.3182 74.604 72.3305 74.6471 72.3366L75.8097 71.1727L76.6832 70.2982L77.5567 69.4237L78.4302 68.5492L79.3037 67.6747L80.1772 66.8002L81.0507 65.9258L81.9242 65.0513L82.7977 64.1768L83.6712 63.3023L84.5447 62.4278L85.4182 61.5533L86.2917 60.6788L87.1652 59.8043L88.0387 58.9298L88.9122 58.0553L89.7796 57.187C89.7734 57.1439 89.7673 57.0946 89.755 57.0515Z" fill="black"/>
</g>
<g opacity="0.55">
<path d="M89.8663 57.8213L89.5833 58.1046L88.7098 58.9791L87.8363 59.8536L86.9628 60.7281L86.0893 61.6025L85.2158 62.477L84.3423 63.3515L83.4688 64.226L82.5953 65.1005L81.7218 65.975L80.8483 66.8495L79.9748 67.724L79.1013 68.5985L78.2278 69.473L76.4808 71.2219L75.6073 72.0964L75.2812 72.4228C75.3305 72.429 75.3797 72.429 75.4289 72.4352L75.8103 72.0533L76.6838 71.1788L77.5573 70.3043L78.4308 69.4299L79.3043 68.5554L80.1778 67.6809L81.0513 66.8064L81.9248 65.9319L82.7983 65.0574L83.6718 64.1829L84.5453 63.3084L85.4188 62.4339L86.2923 61.5594L87.1658 60.6849L88.0393 59.8105L88.9128 58.936L89.7863 58.0615L89.8786 57.9691C89.8725 57.9198 89.8663 57.8706 89.8663 57.8213Z" fill="black"/>
</g>
<g opacity="0.55">
<path d="M89.9212 58.6343L89.5767 58.9791L88.7032 59.8536L87.8297 60.7281L86.9562 61.6026L86.0827 62.4771L85.2092 63.3516L84.3357 64.2261L83.4622 65.1006L82.5887 65.9751L81.7152 66.8496L80.8417 67.7241L79.9682 68.5986L78.2212 70.3475L77.3477 71.222L76.4742 72.0965L76.0928 72.4783C76.142 72.4783 76.1973 72.4783 76.2527 72.4845L77.5568 71.1789L78.4303 70.3044L79.3038 69.4299L80.1773 68.5554L81.0508 67.681L81.9243 66.8065L82.7978 65.932L83.6713 65.0575L84.5448 64.183L85.4184 63.3085L86.2919 62.434L87.1654 61.5595L88.0389 60.685L88.9124 59.8105L89.7859 58.936L89.9274 58.7944C89.9274 58.739 89.9273 58.6835 89.9212 58.6343Z" fill="black"/>
</g>
<g opacity="0.55">
<path d="M89.9333 59.4963L89.5827 59.8474L88.7092 60.7219L87.8357 61.5963L86.9622 62.4708L86.0887 63.3453L85.2152 64.2198L84.3417 65.0943L83.4682 65.9688L82.5947 66.8433L81.7212 67.7178L80.8477 68.5923L79.9742 69.4668L78.2272 71.2158L77.3537 72.0902L76.96 72.4844C77.0153 72.4844 77.0707 72.4844 77.126 72.4782L77.5628 72.041L78.4363 71.1665L79.3098 70.292L80.1833 69.4175L81.0568 68.543L81.9303 67.6685L82.8038 66.794L83.6773 65.9195L84.5508 65.045L85.4243 64.1706L86.2978 63.2961L87.1713 62.4216L88.0448 61.5471L88.9184 60.6726L89.7919 59.7981L89.9333 59.6565C89.9272 59.6072 89.9272 59.5518 89.9333 59.4963Z" fill="black"/>
</g>
<g opacity="0.55">
<path d="M89.8843 60.4202L89.5828 60.7219L88.7093 61.5964L87.8358 62.4709L86.9623 63.3454L86.0888 64.2199L85.2153 65.0944L84.3418 65.9689L83.4683 66.8434L82.5948 67.7179L81.7213 68.5923L79.9743 70.3413L79.1008 71.2158L78.2273 72.0903L77.8828 72.4352C77.9382 72.429 77.9997 72.429 78.0551 72.4229L79.3038 71.1727L80.1773 70.2982L81.0508 69.4237L81.9243 68.5492L82.7978 67.6748L83.6713 66.8003L84.5448 65.9258L85.4183 65.0513L86.2918 64.1768L87.1653 63.3023L88.0388 62.4278L88.9123 61.5533L89.7858 60.6788L89.8658 60.5988C89.872 60.5372 89.8781 60.4817 89.8843 60.4202Z" fill="black"/>
</g>
<g opacity="0.55">
<path d="M88.7345 53.7075L88.7038 53.7383L87.8302 54.6128L86.9567 55.4873L86.0832 56.3618L85.2097 57.2363L84.3362 58.1108L83.4627 58.9853L82.5892 59.8598L81.7157 60.7342L80.8422 61.6087L79.9687 62.4832L79.0952 63.3577L78.2217 64.2322L77.3482 65.1067L76.4747 65.9812L75.6012 66.8557L74.7277 67.7302L73.8542 68.6047L72.1072 70.3536L71.2337 71.2281L71.166 71.2959C71.2029 71.3144 71.2398 71.3267 71.2767 71.3451L71.4428 71.1789L72.3163 70.3044L73.1898 69.4299L74.0633 68.5554L74.9368 67.6809L75.8103 66.8064L76.6839 65.9319L77.5574 65.0574L78.4309 64.1829L79.3044 63.3085L80.1779 62.434L81.0514 61.5595L81.9249 60.685L82.7984 59.8105L83.6719 58.936L84.5454 58.0615L85.4189 57.187L86.2924 56.3125L87.1659 55.438L88.0394 54.5635L88.7837 53.8184C88.7714 53.7814 88.753 53.7445 88.7345 53.7075Z" fill="black"/>
</g>
<g opacity="0.55">
<path d="M88.9991 54.3171L88.71 54.6066L87.8365 55.4811L86.963 56.3556L86.0895 57.2301L85.216 58.1045L84.3425 58.979L83.469 59.8535L82.5955 60.728L81.722 61.6025L80.8485 62.477L79.975 63.3515L79.1015 64.226L78.228 65.1005L77.3544 65.975L76.4809 66.8495L75.6074 67.724L74.7339 68.5984L73.8604 69.4729L72.1134 71.2219L71.7812 71.5545C71.8182 71.5668 71.8551 71.5853 71.8981 71.5976L72.3226 71.1727L73.1961 70.2982L74.0696 69.4237L74.9431 68.5492L75.8166 67.6747L76.6901 66.8002L77.5636 65.9257L78.4371 65.0512L79.3106 64.1767L80.1841 63.3022L81.0576 62.4277L81.9311 61.5532L82.8046 60.6788L83.6781 59.8043L84.5516 58.9298L85.4251 58.0553L86.2986 57.1808L87.1721 56.3063L88.0456 55.4318L88.9191 54.5573L89.0483 54.428C89.0299 54.3972 89.0114 54.3541 88.9991 54.3171Z" fill="black"/>
</g>
<g opacity="0.55">
<path d="M89.2758 55.0746C89.2635 55.0315 89.2512 54.9945 89.2328 54.9514L88.7099 55.4749L87.8364 56.3494L86.9629 57.2239L86.0894 58.0983L85.2159 58.9728L84.3424 59.8473L83.4689 60.7218L82.5954 61.5963L81.7219 62.4708L80.8484 63.3453L79.9749 64.2198L79.1014 65.0943L78.2278 65.9688L77.3543 66.8433L76.4808 67.7178L75.6073 68.5922L73.8603 70.3412L72.9868 71.2157L72.4209 71.7823C72.464 71.7946 72.5009 71.8069 72.5439 71.8254L73.196 71.1726L74.0695 70.2981L74.943 69.4236L75.8165 68.5491L76.69 67.6746L77.5635 66.8002L78.437 65.9257L79.3105 65.0512L80.184 64.1767L81.0575 63.3022L81.931 62.4277L82.8045 61.5532L83.678 60.6787L84.5515 59.8042L85.425 58.9297L86.2985 58.0552L87.172 57.1808L88.0455 56.3063L88.919 55.4318L89.2758 55.0746Z" fill="black"/>
</g>
<g opacity="0.55">
<path d="M88.7098 63.3454L87.8362 64.2199L86.9627 65.0944L86.0892 65.9689L85.2157 66.8433L84.3422 67.7178L83.4687 68.5923L81.7217 70.3413L80.8482 71.2158L79.9932 72.0718C80.067 72.0533 80.1408 72.0287 80.2146 72.0102L81.0574 71.1727L81.9309 70.2982L82.8044 69.4237L83.6779 68.5492L84.5514 67.6747L85.4249 66.8002L86.2984 65.9257L87.1719 65.0513L88.0454 64.1768L88.9189 63.3023L89.4664 62.7542C89.4848 62.6803 89.5094 62.6064 89.5279 62.5325L88.7098 63.3454Z" fill="black"/>
</g>
<g opacity="0.55">
<path d="M87.8057 52.0139L86.9629 52.8576L86.0894 53.7321L85.2159 54.6066L84.3424 55.4811L83.4689 56.3556L82.5954 57.2301L81.7219 58.1046L80.8484 58.9791L79.9749 59.8535L79.1014 60.728L78.2279 61.6025L77.3544 62.477L76.4809 63.3515L75.6074 64.226L74.7339 65.1005L73.8604 65.975L72.9869 66.8495L72.1134 67.724L71.2399 68.5985L70.3664 69.473L69.5113 70.329L69.499 70.3413C69.5298 70.3598 69.5667 70.3844 69.5974 70.4029L69.7205 70.2797L70.594 69.4052L71.4675 68.5307L72.341 67.6562L73.2145 66.7817L74.088 65.9072L74.9615 65.0328L75.835 64.1583L76.7085 63.2838L77.582 62.4093L78.4555 61.5348L79.329 60.6603L80.2025 59.7858L81.076 58.9113L81.9495 58.0368L82.823 57.1623L83.6965 56.2878L84.57 55.4134L85.4435 54.5389L86.317 53.6644L87.1905 52.7899L87.8918 52.0878C87.8488 52.0817 87.8303 52.0509 87.8057 52.0139Z" fill="black"/>
</g>
<g opacity="0.55">
<path d="M88.1993 52.6606C88.1808 52.6237 88.1624 52.5929 88.1377 52.5559L87.8302 52.8638L86.9567 53.7383L86.0832 54.6128L85.2097 55.4873L84.3362 56.3618L83.4627 57.2363L82.5892 58.1108L81.7157 58.9853L80.8421 59.8598L79.9686 60.7343L79.0951 61.6087L78.2216 62.4832L77.3481 63.3577L76.4746 64.2322L75.6011 65.1067L74.7276 65.9812L73.8541 66.8557L72.9806 67.7302L72.1071 68.6047L70.3601 70.3537L70.0156 70.6985C70.0525 70.717 70.0833 70.7355 70.1202 70.7601L70.5693 70.3105L71.4428 69.4361L72.3163 68.5616L73.1898 67.6871L74.0633 66.8126L74.9368 65.9381L75.8103 65.0636L76.6838 64.1891L77.5573 63.3146L78.4308 62.4401L79.3043 61.5656L80.1778 60.6911L81.0513 59.8167L81.9248 58.9422L82.7983 58.0677L83.6718 57.1932L84.5453 56.3187L85.4188 55.4442L86.2923 54.5697L87.1658 53.6952L88.0393 52.8207L88.1993 52.6606Z" fill="black"/>
</g>
<g opacity="0.55">
<path d="M86.7595 50.6099C86.7349 50.5791 86.7103 50.5545 86.6857 50.5237L86.089 51.1149L85.2155 51.9894L84.342 52.8639L83.4685 53.7384L82.595 54.6129L81.7215 55.4873L80.848 56.3618L79.9745 57.2363L79.101 58.1108L78.2275 58.9853L77.354 59.8598L76.4805 60.7343L75.607 61.6088L74.7335 62.4833L73.86 63.3578L72.9865 64.2323L72.113 65.1068L71.2395 65.9812L70.366 66.8557L69.4925 67.7302L68.619 68.6047L67.9854 69.239C68.0161 69.2637 68.0407 69.2883 68.0715 69.3129L68.8219 68.5616L69.6955 67.6871L70.569 66.8126L71.4425 65.9381L72.316 65.0636L73.1895 64.1892L74.063 63.3147L74.9365 62.4402L75.81 61.5657L76.6835 60.6912L77.557 59.8167L78.4305 58.9422L79.304 58.0677L80.1775 57.1932L81.051 56.3187L81.9245 55.4442L82.798 54.5697L83.6715 53.6953L84.545 52.8208L85.4185 51.9463L86.292 51.0718L86.7595 50.6099Z" fill="black"/>
</g>
<g opacity="0.55">
<path d="M86.2675 50.0679L86.0892 50.2465L85.2156 51.1148L84.3421 51.9893L83.4686 52.8638L82.5951 53.7383L81.7216 54.6128L80.8481 55.4873L79.9746 56.3617L79.1011 57.2362L78.2276 58.1107L77.3541 58.9852L76.4806 59.8597L75.6071 60.7342L74.7336 61.6087L73.8601 62.4832L72.9866 63.3577L72.1131 64.2322L71.2396 65.1067L70.3661 65.9812L69.4926 66.8556L68.6191 67.7301L67.7456 68.6046L67.5303 68.8202C67.5549 68.8448 67.5856 68.8756 67.6102 68.9002L67.9486 68.5615L68.8221 67.687L69.6956 66.8125L70.5691 65.938L71.4426 65.0636L72.3161 64.1891L73.1896 63.3146L74.0631 62.4401L74.9366 61.5656L75.8101 60.6911L76.6836 59.8166L77.5571 58.9421L78.4306 58.0676L79.3041 57.1931L80.1776 56.3186L81.0511 55.4441L81.9246 54.5697L82.7981 53.6952L83.6716 52.8207L84.5451 51.9462L85.4186 51.0717L86.2921 50.1972L86.3414 50.1479C86.3168 50.1233 86.2922 50.0925 86.2675 50.0679Z" fill="black"/>
</g>
<g opacity="0.55">
<path d="M87.1467 51.0902C87.1221 51.0594 87.0975 51.0286 87.0729 50.9978L86.9622 51.1148L86.0887 51.9893L85.2152 52.8638L84.3417 53.7383L83.4682 54.6128L82.5947 55.4873L81.7212 56.3618L80.8477 57.2363L79.9742 58.1107L79.1007 58.9852L78.2272 59.8597L77.3537 60.7342L76.4802 61.6087L75.6067 62.4832L74.7332 63.3577L73.8597 64.2322L72.9861 65.1067L72.1126 65.9812L71.2391 66.8557L70.3656 67.7302L69.4921 68.6046L68.4648 69.6331C68.4956 69.6577 68.5264 69.6824 68.5571 69.7008L68.8278 69.4299L69.7013 68.5554L70.5748 67.6809L71.4483 66.8064L72.3218 65.9319L73.1953 65.0574L74.0688 64.1829L74.9423 63.3084L75.8158 62.4339L76.6893 61.5594L77.5628 60.685L78.4363 59.8105L79.3098 58.936L80.1833 58.0615L81.0568 57.187L81.9303 56.3125L82.8038 55.438L83.6773 54.5635L84.5508 53.689L85.4243 52.8145L86.2978 51.94L87.1467 51.0902Z" fill="black"/>
</g>
<g opacity="0.55">
<path d="M85.911 49.7107C85.8864 49.686 85.8556 49.6552 85.831 49.6306L85.222 50.2465L84.3424 51.1148L83.4689 51.9893L82.5954 52.8638L81.7219 53.7383L80.8484 54.6128L79.9748 55.4872L79.1013 56.3617L78.2278 57.2362L77.3543 58.1107L76.4808 58.9852L75.6073 59.8597L74.7338 60.7342L73.8603 61.6087L72.9868 62.4832L72.1133 63.3577L71.2398 64.2322L70.3663 65.1067L69.4928 65.9811L68.6193 66.8556L67.7458 67.7301L67.0938 68.3829C67.1184 68.4076 67.143 68.4383 67.1737 68.463L67.955 67.6809L68.8285 66.8064L69.702 65.9319L70.5755 65.0574L71.449 64.1829L72.3225 63.3084L73.196 62.4339L74.0695 61.5594L74.943 60.6849L75.8165 59.8104L76.69 58.9359L77.5635 58.0615L78.437 57.187L79.3105 56.3125L80.184 55.438L81.0575 54.5635L81.931 53.689L82.8045 52.8145L83.678 51.94L84.5515 51.0655L85.425 50.191L85.911 49.7107Z" fill="black"/>
</g>
<g opacity="0.55">
<path d="M84.3425 49.3657L83.469 50.2402L82.6017 51.1147L81.7282 51.9892L80.8547 52.8637L79.9812 53.7382L79.1077 54.6127L78.2342 55.4872L77.3607 56.3617L76.4872 57.2362L75.6137 58.1106L74.7402 58.9851L73.8667 59.8596L72.9932 60.7341L72.1196 61.6086L71.2461 62.4831L70.3726 63.3576L69.4991 64.2321L68.6256 65.1066L67.7521 65.9811L66.8786 66.8556L66.2881 67.4468C66.3127 67.4776 66.3373 67.5083 66.3619 67.5391L67.0878 66.8124L67.9613 65.938L68.8348 65.0635L69.7083 64.189L70.5818 63.3145L71.4553 62.44L72.3288 61.5655L73.2023 60.691L74.0758 59.8165L74.9493 58.942L75.8228 58.0675L76.6963 57.193L77.5698 56.3185L78.4433 55.4441L79.3168 54.5696L80.1903 53.6951L81.0638 52.8206L81.9373 51.9461L82.8108 51.0716L83.6843 50.1971L84.5578 49.3226L84.9884 48.8915C84.9577 48.8669 84.9269 48.8423 84.8962 48.8176L84.3425 49.3657Z" fill="black"/>
</g>
<g opacity="0.55">
<path d="M82.8408 70.9632C82.9577 70.9016 83.0746 70.8338 83.1915 70.7722L83.6774 70.2857L84.5509 69.4112L85.4244 68.5368L86.2979 67.6623L87.1714 66.7878L88.0449 65.9133L88.2356 65.7224C88.3033 65.6054 88.3648 65.4883 88.4263 65.3713L87.8358 65.9625L86.9623 66.837L86.0888 67.7115L85.2153 68.586L84.3418 69.4605L83.4683 70.335L82.8408 70.9632Z" fill="black"/>
</g>
<g opacity="0.55">
<path d="M81.2666 71.6652C81.3589 71.6344 81.445 71.5975 81.5311 71.5605L81.9371 71.1541L82.8106 70.2796L83.6841 69.4051L84.5576 68.5306L85.4311 67.6561L86.3046 66.7816L87.1781 65.9071L88.0516 65.0326L88.9251 64.1581L89.0359 64.0473C89.0728 63.9611 89.1097 63.8687 89.1404 63.7825L88.7221 64.2012L87.8486 65.0757L86.9751 65.9502L86.1016 66.8247L85.2281 67.6992L84.3546 68.5737L83.4811 69.4482L81.7341 71.1972L81.2666 71.6652Z" fill="black"/>
</g>
<g opacity="0.55">
<path d="M80.8541 47.623L79.9806 48.4975L79.1071 49.372L78.2336 50.2465L77.3662 51.1148L76.4927 51.9893L75.6192 52.8638L74.7457 53.7383L73.8722 54.6128L72.9987 55.4872L72.1252 56.3617L71.2517 57.2362L70.3782 58.1107L69.5109 58.9791L68.6374 59.8536L67.7639 60.728L66.8904 61.6025L66.0168 62.477L65.1433 63.3515L64.3867 64.109C64.399 64.1459 64.4175 64.1891 64.4298 64.226L64.479 64.1767L65.3525 63.3022L66.226 62.4278L67.0995 61.5533L67.973 60.6788L68.8465 59.8043L69.72 58.9298L70.5935 58.0553L71.467 57.1808L72.3405 56.3063L73.214 55.4318L74.0875 54.5573L74.961 53.6828L75.8345 52.8084L76.708 51.9339L77.5815 51.0594L78.4551 50.1849L79.3286 49.3104L80.2021 48.4359L81.0756 47.5614L81.703 46.9332C81.6661 46.9148 81.623 46.9025 81.5861 46.8901L80.8541 47.623Z" fill="black"/>
</g>
<g opacity="0.55">
<path d="M79.107 46.7484L78.2335 47.6229L77.36 48.4974L76.4865 49.3719L75.613 50.2464L74.7456 51.1147L73.8721 51.9892L72.9986 52.8637L72.1251 53.7382L71.2516 54.6127L70.3781 55.4872L69.5108 56.3555L68.6373 57.23L67.7638 58.1045L66.8903 58.979L66.0168 59.8535L65.1433 60.728L64.2698 61.6025L63.7715 62.1013C63.7838 62.1444 63.7899 62.1875 63.8022 62.2306L64.4789 61.5532L65.3524 60.6787L66.2259 59.8042L67.0994 58.9297L67.9729 58.0552L68.8464 57.1807L69.7199 56.3062L70.5934 55.4318L71.4669 54.5573L72.3404 53.6828L73.2139 52.8083L74.0874 51.9338L74.9609 51.0593L75.8344 50.1848L76.708 49.3103L77.5815 48.4358L78.455 47.5613L79.3285 46.6868L79.716 46.2989C79.6729 46.2865 79.6299 46.2804 79.5868 46.2681L79.107 46.7484Z" fill="black"/>
</g>
<g opacity="0.55">
<path d="M79.3167 72.0348L80.1902 71.1604L81.0637 70.2859L81.9372 69.4114L82.8108 68.5369L83.6843 67.6624L84.5578 66.7879L85.4313 65.9134L86.3048 65.0389L87.1783 64.1644L88.0518 63.2899L88.9253 62.4154L89.7311 61.6087C89.7434 61.5409 89.7557 61.4794 89.768 61.4116L89.5958 61.5841L88.7223 62.4585L87.8488 63.333L86.9753 64.2075L86.1018 65.082L85.2283 65.9565L84.3548 66.831L83.4813 67.7055L82.6078 68.58L81.7342 69.4545L79.9872 71.2035L79.1137 72.078L78.8984 72.2935C78.9661 72.2812 79.0276 72.2689 79.0953 72.2565L79.3167 72.0348Z" fill="black"/>
</g>
<g opacity="0.55">
<path d="M77.3661 46.7484L76.4926 47.6229L75.6191 48.4974L74.7456 49.3719L73.8721 50.2464L72.9986 51.1147L72.1251 51.9892L71.2516 52.8637L70.3781 53.7382L69.5107 54.6065L68.6372 55.481L67.7637 56.3555L66.8902 57.23L66.0167 58.1045L65.1432 58.979L64.2697 59.8535L63.5254 60.5986C63.5315 60.6479 63.5377 60.691 63.5438 60.7403L63.6054 60.6787L64.4789 59.8042L65.3524 58.9297L66.2259 58.0552L67.0994 57.1807L67.9729 56.3062L68.8464 55.4317L69.7199 54.5573L70.5934 53.6828L71.4669 52.8083L72.3404 51.9338L73.2139 51.0593L74.0874 50.1848L74.9609 49.3103L75.8344 48.4358L76.7079 47.5613L77.5814 46.6868L78.2273 46.0402C78.1781 46.034 78.1351 46.0279 78.0858 46.0217L77.3661 46.7484Z" fill="black"/>
</g>
<g opacity="0.55">
<path d="M75.6194 46.7485L74.7459 47.623L73.8724 48.4975L72.9989 49.372L72.1254 50.2464L71.258 51.1148L70.3845 51.9893L69.511 52.8638L68.6375 53.7383L67.764 54.6127L66.8905 55.4872L66.017 56.3617L65.1435 57.2362L64.27 58.1107L63.4642 58.9175C63.4642 58.9729 63.458 59.0283 63.458 59.0837L63.6056 58.9359L64.4791 58.0614L65.3526 57.187L66.2262 56.3125L67.0997 55.438L67.9732 54.5635L68.8467 53.689L69.7202 52.8145L70.5937 51.94L71.4672 51.0655L72.3407 50.191L73.2142 49.3165L74.0877 48.442L74.9612 47.5675L75.8347 46.6931L76.5667 45.9602C76.5113 45.9602 76.456 45.9602 76.4006 45.9664L75.6194 46.7485Z" fill="black"/>
</g>
<g opacity="0.55">
<path d="M73.8719 46.7486L72.9984 47.6231L72.1249 48.4976L71.2514 49.372L70.3779 50.2465L69.5106 51.1149L68.637 51.9894L67.7635 52.8639L66.89 53.7383L66.0165 54.6128L65.143 55.4873L64.2695 56.3618L63.6482 56.9838C63.6359 57.0516 63.6236 57.1131 63.6113 57.1809L64.4787 56.3126L65.3522 55.4381L66.2257 54.5636L67.0992 53.6891L67.9727 52.8146L68.8462 51.9401L69.7197 51.0656L70.5932 50.1911L71.4667 49.3166L72.3402 48.4421L73.2137 47.5676L74.0872 46.6931L74.6655 46.1143C74.5978 46.1266 74.5363 46.1389 74.4686 46.1512L73.8719 46.7486Z" fill="black"/>
</g>
<g opacity="0.55">
<path d="M74.0816 71.1603L74.9551 70.2858L75.8286 69.4113L76.7021 68.5368L77.5756 67.6623L78.4491 66.7878L79.3226 65.9133L80.1961 65.0388L81.0696 64.1644L81.9431 63.2899L82.8166 62.4154L83.6901 61.5409L84.5636 60.6664L85.4371 59.7919L86.3106 58.9174L87.1841 58.0429L88.0577 57.1684L88.9312 56.2939L89.4909 55.7335C89.4786 55.6904 89.4663 55.6473 89.454 55.6104L88.722 56.3432L87.8485 57.2177L86.975 58.0922L86.1015 58.9667L85.228 59.8412L84.3545 60.7157L83.481 61.5901L82.6075 62.4646L81.734 63.3391L80.8605 64.2136L79.987 65.0881L79.1135 65.9626L78.24 66.8371L77.3665 67.7116L76.493 68.5861L75.6195 69.4606L73.8724 71.2096L73.1035 71.9794C73.1466 71.9917 73.1896 72.004 73.2265 72.0163L74.0816 71.1603Z" fill="black"/>
</g>
<g opacity="0.55">
<path d="M73.5646 46.342C73.4969 46.3605 73.4231 46.3728 73.3554 46.3913L73.0048 46.7423L72.1313 47.6168L71.2578 48.4913L70.3843 49.3658L69.5108 50.2403L68.6373 51.1148L67.7638 51.9893L66.8903 52.8638L66.0168 53.7383L65.1433 54.6128L64.2698 55.4873L63.8822 55.8752C63.8638 55.943 63.8515 56.0169 63.833 56.0846L64.4789 55.438L65.3524 54.5635L66.2259 53.689L67.0994 52.8145L67.9729 51.94L68.8464 51.0655L69.7199 50.191L70.5934 49.3165L71.4669 48.4421L72.3404 47.5676L73.2139 46.6931L73.5646 46.342Z" fill="black"/>
</g>
<g opacity="0.55">
<path d="M72.3285 46.7114C72.2424 46.7422 72.1624 46.7669 72.0824 46.7976L71.2581 47.6229L70.3846 48.4974L69.5111 49.3657L68.6376 50.2402L67.7641 51.1147L66.8906 51.9892L66.0171 52.8637L65.1436 53.7382L64.2824 54.6003C64.2517 54.6804 64.2209 54.7666 64.1963 54.8467L64.4793 54.5634L65.3528 53.6889L66.2263 52.8144L67.0998 51.9399L67.9733 51.0654L68.8468 50.1909L69.7203 49.3164L70.5938 48.4419L71.4673 47.5674L72.3285 46.7114Z" fill="black"/>
</g>
<g opacity="0.55">
<path d="M71.4608 70.2859L72.3343 69.4114L73.2078 68.5369L74.0813 67.6624L74.9548 66.7879L75.8283 65.9135L76.7018 65.039L77.5753 64.1645L78.4488 63.29L79.3223 62.4155L80.1958 61.541L81.0693 60.6665L81.9429 59.792L82.8164 58.9175L83.6899 58.043L84.5634 57.1685L85.4369 56.2941L86.3104 55.4196L87.1839 54.5451L88.0574 53.6706L88.5187 53.2087C88.5003 53.1717 88.4818 53.1348 88.4634 53.104L87.8482 53.7198L86.9747 54.5943L86.1012 55.4688L85.2277 56.3433L84.3542 57.2178L83.4807 58.0923L82.6072 58.9668L81.7337 59.8413L80.8602 60.7158L79.9867 61.5903L79.1132 62.4648L78.2397 63.3392L77.3662 64.2137L76.4927 65.0882L75.6192 65.9627L74.7457 66.8372L73.8722 67.7117L72.9987 68.5862L72.1252 69.4607L70.5996 70.988C70.6365 71.0064 70.6734 71.0249 70.7042 71.0434L71.4608 70.2859Z" fill="black"/>
</g>
<g opacity="0.55">
<path d="M70.4891 47.5184L70.3845 47.6231L69.511 48.4976L68.6375 49.3721L67.764 50.2465L66.8905 51.1149L66.017 51.9894L65.1435 52.8639L65.002 53.0055C64.9467 53.1164 64.8851 53.2272 64.8359 53.3381L65.3527 52.8208L66.2262 51.9463L67.0997 51.0718L67.9732 50.1973L68.8467 49.3228L69.7202 48.4483L70.5937 47.5738L70.8213 47.3459C70.7106 47.4014 70.5998 47.4568 70.4891 47.5184Z" fill="black"/>
</g>
<g opacity="0.55">
<path d="M69.7206 69.4113L70.5941 68.5368L71.4676 67.6623L72.3411 66.7878L73.2146 65.9133L74.0881 65.0388L74.9616 64.1643L75.8351 63.2898L76.7086 62.4153L77.5821 61.5408L78.4556 60.6664L79.3291 59.7919L80.2026 58.9174L81.0761 58.0429L81.9496 57.1684L82.8231 56.2939L83.6967 55.4194L84.5702 54.5449L85.4437 53.6704L86.3172 52.7959L87.1907 51.9214L87.5413 51.5704C87.5167 51.5396 87.4982 51.5088 87.4736 51.478L86.9815 51.9707L86.108 52.8452L85.2345 53.7197L84.361 54.5942L83.4875 55.4687L82.614 56.3432L81.7405 57.2177L80.867 58.0921L79.9935 58.9666L79.12 59.8411L78.2465 60.7156L77.373 61.5901L76.4995 62.4646L75.626 63.3391L74.7525 64.2136L73.879 65.0881L73.0055 65.9626L72.132 66.8371L71.2585 67.7115L70.3849 68.586L69.5114 69.4605L68.9824 69.9902C69.0132 70.0148 69.0439 70.0333 69.0747 70.0579L69.7206 69.4113Z" fill="black"/>
</g>
<g opacity="0.55">
<path d="M68.3853 48.9102C67.6533 49.5014 66.989 50.1665 66.3984 50.8993L67.0997 50.1973L67.9732 49.3228L68.3853 48.9102Z" fill="black"/>
</g>
<g opacity="0.55">
<path d="M66.7002 67.9026C66.7248 67.9333 66.7494 67.958 66.774 67.9888L67.1 67.6624L67.9735 66.7879L68.847 65.9134L69.7205 65.0389L70.5941 64.1644L71.4676 63.2899L72.3411 62.4154L73.2146 61.5409L74.0881 60.6664L74.9616 59.7919L75.8351 58.9175L76.7086 58.043L77.5821 57.1685L78.4556 56.294L79.3291 55.4195L80.2026 54.545L81.0761 53.6705L81.9496 52.796L82.8231 51.9215L83.6966 51.047L84.5701 50.1725L85.4436 49.2981L85.4744 49.2673C85.4436 49.2426 85.419 49.218 85.3883 49.1934L85.2345 49.3473L84.361 50.2218L83.4752 51.1148L82.6017 51.9893L81.7281 52.8638L80.8546 53.7383L79.9811 54.6127L79.1076 55.4872L78.2341 56.3617L77.3606 57.2362L76.4871 58.1107L75.6136 58.9852L74.7401 59.8597L73.8666 60.7342L72.9931 61.6087L72.1196 62.4832L71.2461 63.3577L70.3726 64.2322L69.4991 65.1066L68.6256 65.9811L67.7521 66.8556L66.8786 67.7301L66.7002 67.9026Z" fill="black"/>
</g>
<g opacity="0.55">
<path d="M65.9307 66.9296C65.9553 66.9604 65.9737 66.9912 65.9983 67.022L66.2321 66.788L67.1056 65.9135L67.9791 65.039L68.8526 64.1645L69.7261 63.29L70.5996 62.4155L71.4731 61.541L72.3466 60.6665L73.2201 59.792L74.0936 58.9175L74.9671 58.043L75.8406 57.1686L76.7141 56.2941L77.5876 55.4196L78.4611 54.5451L79.3346 53.6706L80.2081 52.7961L81.0816 51.9216L81.9551 51.0471L82.8286 50.1726L83.7022 49.2981L84.5141 48.4852C84.4834 48.4606 84.4526 48.4421 84.4219 48.4175L84.3665 48.4729L83.493 49.3474L82.6195 50.2219L81.7275 51.1149L80.854 51.9893L79.9805 52.8638L79.107 53.7383L78.2335 54.6128L77.36 55.4873L76.4865 56.3618L75.613 57.2363L74.7395 58.1108L73.866 58.9853L72.9925 59.8598L72.119 60.7343L71.2455 61.6088L70.372 62.4832L69.4985 63.3577L68.625 64.2322L67.7515 65.1067L66.878 65.9812L66.0045 66.8557L65.9307 66.9296Z" fill="black"/>
</g>
<g opacity="0.55">
<path d="M64.9346 65.3038C64.953 65.3408 64.9715 65.3777 64.9899 65.4085L65.3529 65.0452L66.2264 64.1707L67.0999 63.2962L67.9734 62.4217L68.8469 61.5472L69.7204 60.6727L70.5939 59.7982L71.4674 58.9237L72.3409 58.0492L73.2144 57.1748L74.0879 56.3003L74.9614 55.4258L75.8349 54.5513L76.7084 53.6768L77.5819 52.8023L78.4554 51.9278L79.3289 51.0533L80.2024 50.1788L81.0759 49.3043L81.9494 48.4298L82.8229 47.5554L82.8968 47.4814C82.8598 47.463 82.8229 47.4445 82.7922 47.426L82.6199 47.5985L81.7464 48.4729L80.8729 49.3474L79.9994 50.2219L79.1075 51.1149L78.234 51.9894L77.3605 52.8639L76.487 53.7384L75.6135 54.6129L74.74 55.4874L73.8665 56.3618L72.993 57.2363L72.1194 58.1108L71.2459 58.9853L70.3724 59.8598L69.5112 60.722L68.6377 61.5965L67.7642 62.471L66.8907 63.3455L66.0172 64.22L65.1437 65.0944L64.9346 65.3038Z" fill="black"/>
</g>
<g opacity="0.55">
<path d="M65.3529 64.1705L66.2264 63.296L67.0999 62.4215L67.9734 61.5471L68.8469 60.6726L69.7204 59.7981L70.5939 58.9236L71.4675 58.0491L72.341 57.1746L73.2145 56.3001L74.088 55.4256L74.9615 54.5511L75.835 53.6766L76.7085 52.8021L77.582 51.9276L78.4555 51.0532L79.329 50.1787L80.2025 49.3042L81.076 48.4297L81.9495 47.5552L82.3124 47.1918C82.2755 47.1734 82.2386 47.1611 82.2017 47.1426L81.7403 47.6045L80.8668 48.4789L79.9933 49.3534L79.1198 50.2279L78.234 51.1147L77.3605 51.9892L76.487 52.8637L75.6135 53.7382L74.74 54.6127L73.8665 55.4872L72.993 56.3617L72.1195 57.2362L71.246 58.1107L70.3725 58.9852L69.5113 59.8473L68.6378 60.7218L67.7643 61.5963L66.8908 62.4708L66.0173 63.3453L65.1438 64.2198L64.6455 64.7186C64.664 64.7556 64.6763 64.7925 64.6947 64.8295L65.3529 64.1705Z" fill="black"/>
</g>
<g opacity="0.55">
<path d="M66.226 65.0451L67.0995 64.1706L67.973 63.2961L68.8465 62.4216L69.72 61.5472L70.5935 60.6727L71.467 59.7982L72.3405 58.9237L73.2141 58.0492L74.0876 57.1747L74.9611 56.3002L75.8346 55.4257L76.7081 54.5512L77.5816 53.6767L78.4551 52.8022L79.3286 51.9277L80.2021 51.0533L81.0756 50.1788L81.9491 49.3043L82.8226 48.4298L83.4562 47.7955C83.4254 47.777 83.3885 47.7585 83.3516 47.7339L82.6134 48.4729L81.7399 49.3474L80.8664 50.2219L79.9806 51.1148L79.1071 51.9893L78.2336 52.8638L77.3601 53.7383L76.4866 54.6128L75.6131 55.4873L74.7396 56.3618L73.8661 57.2363L72.9926 58.1108L72.1191 58.9853L71.2456 59.8598L70.3721 60.7343L69.4986 61.6087L68.6251 62.4832L67.7516 63.3577L66.8781 64.2322L66.0046 65.1067L65.2295 65.8827C65.2479 65.9196 65.2664 65.9504 65.291 65.9874L65.3464 65.9319L66.226 65.0451Z" fill="black"/>
</g>
<g opacity="0.55">
<path d="M65.5742 66.4122C65.5927 66.443 65.6173 66.4799 65.6357 66.5107L66.2263 65.9195L67.0998 65.045L67.9733 64.1705L68.8468 63.2961L69.7203 62.4216L70.5938 61.5471L71.4673 60.6726L72.3408 59.7981L73.2143 58.9236L74.0878 58.0491L74.9613 57.1746L75.8348 56.3001L76.7083 55.4256L77.5818 54.5511L78.4553 53.6766L79.3288 52.8022L80.2023 51.9277L81.0758 51.0532L81.9493 50.1787L82.8228 49.3042L83.6963 48.4297L83.9916 48.1341C83.9609 48.1156 83.924 48.091 83.8932 48.0725L83.4872 48.479L82.6137 49.3535L81.7402 50.2279L80.8544 51.1148L79.9809 51.9892L79.1074 52.8637L78.2339 53.7382L77.3604 54.6127L76.4869 55.4872L75.6134 56.3617L74.7399 57.2362L73.8664 58.1107L72.9929 58.9852L72.1193 59.8597L71.2458 60.7342L70.3723 61.6087L69.4988 62.4831L68.6253 63.3576L67.7518 64.2321L66.8783 65.1066L66.0048 65.9811L65.5742 66.4122Z" fill="black"/>
</g>
<g opacity="0.55">
<path d="M63.5191 57.9875C63.513 58.0429 63.513 58.1045 63.5068 58.1599L63.6114 58.0552L64.4849 57.1807L65.3584 56.3062L66.2319 55.4317L67.1054 54.5572L67.9789 53.6827L68.8524 52.8082L69.7259 51.9338L70.5994 51.0593L71.4729 50.1848L72.3464 49.3103L73.22 48.4358L74.0935 47.5613L74.967 46.6868L75.6559 45.9971C75.6006 46.0032 75.539 46.0032 75.4837 46.0094L74.764 46.7299L73.8905 47.6044L73.017 48.4789L72.1435 49.3534L71.2699 50.2279L70.3841 51.1147L69.5106 51.9892L68.6371 52.8637L67.7636 53.7382L66.8901 54.6127L66.0166 55.4871L65.1431 56.3616L64.2696 57.2361L63.5191 57.9875Z" fill="black"/>
</g>
<g opacity="0.55">
<path d="M63.4707 59.7796C63.4707 59.8288 63.4707 59.8843 63.4769 59.9335L63.606 59.8042L64.4795 58.9297L65.353 58.0552L66.2265 57.1807L67.1001 56.3062L67.9736 55.4318L68.8471 54.5573L69.7206 53.6828L70.5941 52.8083L71.4676 51.9338L72.3411 51.0593L73.2146 50.1848L74.0881 49.3103L74.9616 48.4358L75.8351 47.5613L76.7086 46.6868L77.4222 45.9725C77.3729 45.9725 77.3176 45.9663 77.2684 45.9663L76.5056 46.7299L75.6321 47.6044L74.7586 48.4789L73.8851 49.3534L73.0116 50.2279L72.1258 51.1147L71.2523 51.9892L70.3788 52.8637L69.5114 53.7382L68.6379 54.6127L67.7644 55.4872L66.8909 56.3617L66.0174 57.2362L65.1439 58.1107L64.2704 58.9851L63.4707 59.7796Z" fill="black"/>
</g>
<g opacity="0.55">
<path d="M63.6367 61.3685C63.6429 61.4116 63.6552 61.4609 63.6613 61.504L64.4856 60.6787L65.3591 59.8042L66.2326 58.9298L67.1061 58.0553L67.9796 57.1808L68.8531 56.3063L69.7266 55.4318L70.6001 54.5573L71.4736 53.6828L72.3472 52.8083L73.2207 51.9338L74.0942 51.0593L74.9677 50.1848L75.8412 49.3104L76.7147 48.4359L77.5882 47.5614L78.4617 46.6869L78.9969 46.1511C78.9538 46.1449 78.9046 46.1326 78.8615 46.1265L78.2587 46.73L77.3852 47.6045L76.5117 48.479L75.6382 49.3535L74.7647 50.228L73.8727 51.1148L72.9992 51.9893L72.1257 52.8637L71.2522 53.7382L70.3787 54.6127L69.5113 55.4811L68.6378 56.3556L67.7643 57.23L66.8908 58.1045L66.0173 58.979L65.1438 59.8535L64.2703 60.728L63.6367 61.3685Z" fill="black"/>
</g>
<g opacity="0.55">
<path d="M64.1964 63.5855L64.4855 63.2961L65.359 62.4216L66.2325 61.5471L67.106 60.6726L67.9795 59.7981L68.853 58.9236L69.7265 58.0491L70.6 57.1746L71.4735 56.3002L72.347 55.4257L73.2205 54.5512L74.094 53.6767L74.9675 52.8022L75.841 51.9277L76.7145 51.0532L77.5881 50.1787L78.4616 49.3042L79.3351 48.4297L80.2086 47.5552L81.0759 46.6869C81.039 46.6746 80.996 46.6623 80.9529 46.6438L80.8729 46.7239L79.9994 47.5984L79.1259 48.4728L78.2524 49.3473L77.3789 50.2218L76.4931 51.1148L75.6196 51.9893L74.7461 52.8638L73.8726 53.7383L72.9991 54.6128L72.1256 55.4872L71.2521 56.3617L70.3786 57.2362L69.5112 58.1046L68.6377 58.9791L67.7642 59.8535L66.8907 60.728L66.0172 61.6025L65.1437 62.477L64.2702 63.3515L64.1533 63.4685C64.1718 63.5055 64.1841 63.5424 64.1964 63.5855Z" fill="black"/>
</g>
<g opacity="0.55">
<path d="M64.4857 62.4217L65.3592 61.5472L66.2327 60.6727L67.1062 59.7982L67.9797 58.9237L68.8532 58.0492L69.7267 57.1747L70.6002 56.3003L71.4737 55.4258L72.3472 54.5513L73.2207 53.6768L74.0942 52.8023L74.9677 51.9278L75.8412 51.0533L76.7147 50.1788L77.5882 49.3043L78.4617 48.4298L79.3352 47.5553L80.2087 46.6809L80.4117 46.4776C80.3687 46.4653 80.3256 46.453 80.2887 46.4407L79.9996 46.7301L79.1261 47.6046L78.2526 48.4791L77.3791 49.3536L76.5056 50.2281L75.6198 51.1149L74.7463 51.9894L73.8728 52.8639L72.9992 53.7384L72.1257 54.6129L71.2522 55.4873L70.3787 56.3618L69.5114 57.2302L68.6379 58.1047L67.7644 58.9792L66.8909 59.8536L66.0174 60.7281L65.1439 61.6026L64.2704 62.4771L63.9443 62.8035C63.9566 62.8466 63.9689 62.8897 63.9812 62.9267L64.4857 62.4217Z" fill="black"/>
</g>
<path d="M94.2275 0.307861H165.344" stroke="black" stroke-miterlimit="10" stroke-linecap="round"/>
</g>
<defs>
<clipPath id="clip0_261_1194">
<rect width="259" height="221" fill="white"/>
</clipPath>
</defs>
</svg>
