<svg width="67" height="40" viewBox="0 0 67 40" fill="none" xmlns="http://www.w3.org/2000/svg">
<g clip-path="url(#clip0_3928_3407)">
<path fill-rule="evenodd" clip-rule="evenodd" d="M61.0023 25.1212V40H31.3517V25.1212H61.0023ZM31.2863 2.21577C30.981 2.26009 30.6756 2.31548 30.3757 2.37642C29.3501 2.5859 28.3487 2.90336 27.3878 3.32365C26.4364 3.73959 25.5239 4.24203 24.6615 4.82483C23.8206 5.39921 23.0371 6.056 22.3224 6.78578C21.8153 7.30664 21.3434 7.86186 20.9102 8.4476H25.7738C27.3702 6.16257 29.2198 4.07157 31.2863 2.21577ZM14.0238 21.0497L10.5287 22.1022C10.9486 26.8384 13.0042 30.0568 17.1426 31.702C10.1362 33.3638 5.4034 29.6081 3.56592 24.246L0 25.3428L4.90723 16.1363L14.0238 21.0497ZM60.2335 20.4958L52.6764 13.6712L56.2477 13.4718C56.9238 8.86305 55.7025 5.32338 52.142 2.76971C59.1812 2.84172 62.8289 7.52252 63.3577 13.0508L67 12.8403L60.2335 20.4958ZM27.8949 27.9851H27.3878C27.5514 28.2066 27.7204 28.4227 27.8949 28.6442V31.0483C27.0169 30.0873 26.2079 29.0636 25.474 27.9851H20.8721C21.3142 28.5716 21.7951 29.1268 22.3115 29.6469C23.0262 30.3767 23.8097 31.0334 24.6506 31.6078C25.513 32.1906 26.4255 32.6931 27.3769 33.109H27.4205L27.884 33.2973V35.5131C27.4641 35.3691 27.0443 35.2084 26.6299 35.0312H26.5754C25.5097 34.5733 24.4876 34.017 23.522 33.3694C21.6143 32.0663 19.9736 30.3996 18.6911 28.4614C18.0536 27.4804 17.506 26.4421 17.0553 25.3594C16.59 24.2484 16.2374 23.092 16.003 21.9083C15.5377 19.4939 15.5377 17.0107 16.003 14.5963C16.2326 13.432 16.5779 12.2942 17.0335 11.2007V11.1453C17.4842 10.0626 18.0318 9.02424 18.6693 8.04322C19.3094 7.07672 20.0398 6.17516 20.8503 5.35107C21.6587 4.52462 22.5464 3.78234 23.5002 3.13531C24.4636 2.4762 25.4859 1.91055 26.5536 1.4458C27.6586 0.962976 28.8097 0.597286 29.9886 0.354535C32.3651 -0.118178 34.8093 -0.118178 37.1859 0.354535C38.332 0.587802 39.4518 0.938579 40.5282 1.40148H40.5828C41.6456 1.87423 42.6624 2.4473 43.6198 3.11316C45.5289 4.41024 47.1685 6.07594 48.4452 8.01552C49.0826 8.9966 49.6302 10.035 50.081 11.1176C50.5463 12.2286 50.8989 13.3849 51.1333 14.5686C51.5927 16.8877 51.6223 19.2735 51.2205 21.6037H49.1486V21.4652C49.3083 20.6542 49.4068 19.8319 49.443 19.0057H44.8466C44.8178 19.8799 44.7101 20.7495 44.5249 21.6037H42.9273C43.1347 20.7523 43.2571 19.882 43.2926 19.0057H34.3506V21.6037H32.8021V19.0168H23.8655C24.0217 21.6801 24.8764 24.2525 26.3409 26.4673H27.8949V27.9851ZM19.8743 26.4673H24.5361C23.2069 24.2063 22.4465 21.6473 22.3224 19.0168H17.6933C17.7317 19.845 17.8319 20.669 17.9932 21.4818C18.1993 22.5232 18.5099 23.5403 18.9201 24.5174C19.2033 25.1863 19.5256 25.8374 19.8852 26.4673H19.8743ZM17.6933 17.4325H22.3551C22.5886 14.8044 23.4152 12.2663 24.7706 10.0152H19.8634C19.5093 10.6341 19.1925 11.2741 18.9146 11.9319V11.9817C18.5112 12.9398 18.2026 13.9363 17.9932 14.9564C17.8353 15.7675 17.7387 16.5898 17.7042 17.4159L17.6933 17.4325ZM23.9036 17.4325H32.8021V10.0152H26.5863C25.103 12.2247 24.1814 14.773 23.9036 17.4325ZM34.3615 17.4325H43.2599C42.9822 14.773 42.0606 12.2247 40.5773 10.0152H34.3506V17.4325H34.3615ZM44.8193 17.4325H49.4703C49.4349 16.6007 49.3364 15.7729 49.1759 14.9564C48.9724 13.9132 48.6636 12.8941 48.2544 11.9153C47.9744 11.2585 47.6576 10.6186 47.3057 9.99863H42.3984C43.7605 12.253 44.5892 14.7977 44.8193 17.4325ZM27.6768 8.43098H32.8021V2.96359C30.9182 4.60755 29.2012 6.43916 27.6768 8.43098ZM34.3615 8.43098H39.4814C37.9556 6.43863 36.2367 4.60698 34.3506 2.96359V8.43098H34.3615ZM41.4006 8.43098H46.2642C45.8308 7.84385 45.357 7.28853 44.8466 6.76916C44.1392 6.04327 43.363 5.39014 42.5293 4.81929C41.6662 4.23927 40.7538 3.73873 39.8031 3.32365H39.754C38.8069 2.91338 37.82 2.60518 36.8097 2.40411C36.5098 2.34318 36.2099 2.28779 35.9045 2.24347C37.9627 4.08639 39.8068 6.16237 41.4006 8.43098ZM43.6634 31.0982C43.9572 30.4988 44.4193 30.0015 44.9914 29.669C45.5635 29.3365 46.2198 29.1839 46.8772 29.2305C47.5347 29.277 48.1638 29.5207 48.6849 29.9305C49.2061 30.3404 49.5958 30.8981 49.8049 31.533C50.014 32.168 50.0331 32.8517 49.8596 33.4977C49.6861 34.1436 49.328 34.7228 48.8305 35.1619C48.3329 35.601 47.7184 35.8804 47.0646 35.9646C46.4107 36.0488 45.747 35.9341 45.1574 35.635C44.7657 35.4371 44.4164 35.1627 44.1292 34.8275C43.8421 34.4923 43.6229 34.1028 43.4841 33.6814C43.3453 33.26 43.2897 32.8149 43.3205 32.3717C43.3513 31.9284 43.4678 31.4956 43.6634 31.0982ZM36.0954 27.3203L56.215 27.4588C56.2292 28.0368 56.4653 28.5863 56.8728 28.9899C57.2803 29.3935 57.8269 29.6194 58.396 29.6192L58.4832 35.502C57.9134 35.515 57.3711 35.7542 56.9727 36.1684C56.5742 36.5825 56.3512 37.1387 56.3513 37.7178L36.2262 37.5793C36.2134 37.0003 35.978 36.4495 35.5703 36.0446C35.1627 35.6398 34.6153 35.4132 34.0452 35.4134L33.958 29.5361C34.5289 29.5245 35.0725 29.2859 35.4721 28.8716C35.8717 28.4574 36.0955 27.9004 36.0954 27.3203Z" fill="black"/>
</g>
<defs>
<clipPath id="clip0_3928_3407">
<rect width="67" height="40" fill="white"/>
</clipPath>
</defs>
</svg>
