<svg width="92" height="92" viewBox="0 0 92 92" fill="none" xmlns="http://www.w3.org/2000/svg">
<path d="M57.8 28.832H58.0844L57.9422 28.6898L67.8953 18.7367V18.5234C59.5063 11.1297 47.918 8.57031 37.1828 11.7695C26.4477 14.9687 18.2008 23.5 15.2148 34.3062C15.357 34.2352 15.5703 34.1641 15.7836 34.1641C19.4805 31.7469 23.8883 30.325 28.5094 30.325C30.0734 30.325 31.5664 30.4672 33.0594 30.7516C33.1305 30.6805 33.2016 30.6805 33.2727 30.6805C39.6711 23.6422 50.4773 22.7891 57.8711 28.832H57.8Z" fill="#EA4535"/>
<path d="M77.3539 34.1648C75.7188 28.1219 72.3063 22.6477 67.543 18.4531L57.3766 28.5484C61.6422 32.032 64.1305 37.293 63.9883 42.7672V44.5445C76.0031 44.5445 76.0031 62.4602 63.9883 62.4602H45.9305V76.6789H45.8594L45.9305 76.8211H63.9883C74.368 76.8922 83.5391 70.2094 86.5961 60.3984C89.6531 50.5875 85.8852 39.9234 77.3539 34.1648Z" fill="#557EBF"/>
<path d="M28.2273 76.892H46.925V62.5311H28.2273C26.8766 62.5311 25.5969 62.2467 24.3883 61.749L13.582 72.1287V72.2709C17.8477 75.3279 22.9664 76.9631 28.2984 76.9631L28.2273 76.892Z" fill="#36A852"/>
<path d="M29.0789 29.9697C18.4859 30.0408 9.10155 36.5814 5.68905 46.1791C2.27655 55.8478 5.68905 66.4408 14.0781 72.6971L25.1687 62.1041C19.0547 59.4736 17.6328 51.7955 22.325 47.3166C27.0172 42.7666 34.9797 44.1885 37.7523 50.0182L48.843 39.4252C44.1508 33.5244 36.8281 30.0408 29.0789 30.1119V29.9697Z" fill="#F9BC15"/>
</svg>
