<svg width="74" height="75" viewBox="0 0 74 75" fill="none" xmlns="http://www.w3.org/2000/svg">
<path d="M72.9374 44.8571C72.7127 44.2032 72.3077 43.6262 71.7692 43.1926C71.2306 42.759 70.5804 42.4865 69.8937 42.4067C69.0823 42.3091 68.26 42.355 67.4645 42.5424C66.2341 42.8141 64.9825 42.9788 63.7237 43.0346C67.09 37.3553 69.661 31.241 71.365 24.8627C73.9005 15.0477 72.5463 10.5779 70.9632 8.55319C68.8609 5.89353 66.1704 3.75771 63.1032 2.31365C60.0359 0.869586 56.6756 0.156634 53.2862 0.230838C50.1769 0.201707 47.0806 0.635709 44.0991 1.51857C42.3234 1.21412 40.5263 1.05042 38.7247 1.02902C35.4501 0.90469 32.2066 1.70405 29.3647 3.33576C27.2095 2.60707 24.9995 2.05189 22.7558 1.67554C20.1402 1.04808 17.4266 0.942234 14.7702 1.36406C12.1137 1.78589 9.56633 2.72711 7.27378 4.13394C2.6603 7.39051 0.521179 13.0523 0.917609 20.9622C1.6274 26.8632 2.87964 32.6862 4.65841 38.3572C5.68284 41.8996 7.03125 45.3401 8.68656 48.6351C9.90904 51.641 12.233 54.0668 15.1837 55.417C16.2653 55.7734 17.4226 55.834 18.5355 55.5926C19.6484 55.3512 20.6765 54.8166 21.5133 54.0441C21.8931 54.4938 22.3422 54.88 22.8436 55.1882C23.6208 55.6705 24.4681 56.0295 25.3552 56.2524C28.2591 57.0612 31.3502 56.8739 34.1352 55.7203C34.1512 56.1753 34.1645 56.6116 34.1724 56.9894C34.1884 57.5987 34.207 58.1973 34.2283 58.7587C34.1967 61.7265 34.5919 64.6834 35.4016 67.5387C35.4442 67.6531 35.5001 67.8234 35.5586 68.007C36.026 69.7546 36.9338 71.3531 38.1953 72.6497C39.7077 74.0385 41.7035 74.7805 43.7559 74.717C44.6301 74.7114 45.5014 74.6142 46.3553 74.427C47.9741 74.2237 49.5358 73.6983 50.9483 72.8817C52.3608 72.0652 53.5953 70.9739 54.5792 69.6725C56.737 66.5995 57.7879 61.9727 57.9768 54.68C58.0008 54.4725 58.0247 54.2756 58.046 54.0894L58.0912 53.7036L58.5994 53.7488H58.7298C61.607 53.8707 64.4768 53.3735 67.1452 52.2908C68.8241 51.5112 74.2065 48.6697 72.9374 44.8411" fill="black"/>
<path d="M68.1017 45.6019C59.6863 47.3366 59.1089 44.4898 59.1089 44.4898C67.9927 31.3065 71.7069 14.5713 68.5008 10.4767C59.7581 -0.697839 44.622 4.58877 44.3692 4.72446L44.2867 4.74043C42.438 4.36939 40.5584 4.17341 38.6729 4.15509C35.4931 3.99555 32.3553 4.93501 29.7865 6.81569C29.7865 6.81569 2.78668 -4.30827 4.04249 20.8051C4.30855 26.1476 11.6997 61.2303 20.5143 50.6331C23.7362 46.7593 26.8491 43.4814 26.8491 43.4814C28.4169 44.5396 30.3032 45.021 32.1863 44.8436L32.338 44.7159C32.2935 45.2193 32.314 45.7264 32.3992 46.2245C30.127 48.7627 30.8028 49.207 26.2558 50.1409C21.6636 51.0881 24.3615 52.7722 26.1228 53.2139C27.9942 53.8193 30.0089 53.818 31.8795 53.2102C33.7501 52.6024 35.3809 51.4193 36.5391 49.8296L36.406 50.3617C37.2947 51.0748 37.9199 54.9965 37.8161 58.5537C37.5259 61.1994 37.7061 63.8755 38.3483 66.4584C39.0507 68.366 39.7477 72.6549 45.7155 71.3778C47.8376 71.1682 49.8113 70.195 51.2697 68.6392C52.7281 67.0834 53.5718 65.051 53.6441 62.9198C53.9101 59.6366 54.4768 60.1208 54.5114 57.1862L54.9743 55.7973C55.5065 51.3462 55.0595 49.9094 58.1298 50.5772L58.8775 50.6438C61.2529 50.7435 63.6229 50.3448 65.8349 49.4731C69.5757 47.7384 71.792 44.8383 68.1044 45.6019" fill="#336791"/>
<path d="M31.364 23.1942C30.7537 23.0658 30.1175 23.1602 29.5707 23.4603C29.4995 23.5115 29.4393 23.5766 29.3936 23.6515C29.3479 23.7264 29.3176 23.8098 29.3047 23.8966C29.3047 24.2034 29.4152 24.5 29.616 24.732C29.973 25.2223 30.506 25.5551 31.1033 25.6606C31.1826 25.6715 31.2626 25.6769 31.3427 25.6765C31.738 25.6817 32.1253 25.5653 32.4522 25.343C32.7791 25.1208 33.0299 24.8035 33.1705 24.434C33.2637 23.7742 32.3032 23.3325 31.372 23.2022M56.4934 23.2235C56.4215 22.7046 55.4983 22.5583 54.6309 22.6913C53.7636 22.8244 52.9095 23.2075 52.9814 23.7263C53.1166 24.0518 53.3458 24.3296 53.6396 24.5244C53.9333 24.7191 54.2785 24.822 54.6309 24.8198C54.7048 24.8197 54.7786 24.8144 54.8518 24.8039C55.3132 24.7228 55.7349 24.4918 56.0517 24.1467C56.3166 23.9141 56.4783 23.5859 56.5013 23.2341" fill="white"/>
<path d="M70.8979 45.4052C70.576 44.434 69.5437 44.1227 67.8276 44.4766C62.7325 45.5408 60.91 44.7985 60.3087 44.3595C64.3434 38.1659 67.3723 31.3727 69.2829 24.2321C70.0563 21.4076 70.5026 18.5036 70.6132 15.5772C70.8183 13.5302 70.3423 11.4728 69.259 9.72386C67.3414 7.31054 64.8896 5.37549 62.0968 4.07119C59.304 2.76688 56.2464 2.12895 53.165 2.20766C49.9998 2.15814 46.8498 2.65405 43.8529 3.67365C42.1389 3.25072 40.3821 3.02488 38.6169 3.00052C35.4409 2.86097 32.3017 3.72583 29.6453 5.47222C27.2808 4.6077 24.8399 3.9681 22.3553 3.56191C17.6056 2.41251 12.5943 3.18208 8.40841 5.70369C4.41751 8.53457 2.55509 13.595 2.92492 20.7441C3.62379 26.4737 4.84658 32.1272 6.57792 37.6335C9.42476 46.959 12.519 52.2402 15.7756 53.3311C16.1966 53.4729 16.6377 53.5457 17.082 53.5466C17.9087 53.4954 18.7128 53.2565 19.4334 52.848C20.1539 52.4396 20.7719 51.8723 21.2405 51.1893C23.0887 48.9721 24.9999 46.81 26.9741 44.7028C28.2432 45.3896 29.6556 45.7696 31.098 45.8122V45.924C30.8497 46.2184 30.6076 46.5182 30.3717 46.8233C29.3739 48.087 29.1691 48.3504 25.9604 49.0129C25.0478 49.2018 22.624 49.702 22.5894 51.4075C22.5522 53.2699 25.4549 54.0441 25.7821 54.1266C26.868 54.4058 27.984 54.5506 29.1052 54.5576C31.5573 54.6029 33.935 53.7146 35.7567 52.0726C35.4847 57.136 35.825 62.2137 36.7704 67.1955C37.2072 68.7903 38.1527 70.199 39.4632 71.2075C40.7737 72.2159 42.3776 72.769 44.0312 72.7827C44.8515 72.7802 45.6693 72.691 46.471 72.5167C48.6597 72.3276 50.7089 71.3625 52.2486 69.7955C53.7884 68.2284 54.7173 66.1626 54.8678 63.9708C55.3387 61.241 56.1476 54.7252 56.528 51.2292C57.4895 51.4935 58.4844 51.6163 59.4813 51.5937C61.7773 51.6103 64.0543 51.1764 66.1833 50.3166C68.0777 49.436 71.5045 47.2809 70.874 45.4052H70.8979ZM58.4197 21.7817C58.3856 22.7695 58.2825 23.7536 58.1111 24.727C57.9133 25.8708 57.7889 27.0261 57.7386 28.1858C57.7296 29.4943 57.8185 30.8016 58.0047 32.0968C58.5794 34.7479 58.3676 37.509 57.3954 40.0414C57.1889 39.6751 57.005 39.2966 56.8446 38.908C56.6903 38.5328 56.3524 37.9289 55.8895 37.0961C54.0803 33.8502 49.8393 26.2462 52.0103 23.1439C52.6568 22.2207 54.2984 21.2815 58.417 21.7817H58.4197ZM53.4258 4.30422C56.1491 4.24854 58.8483 4.82557 61.3109 5.98991C63.7734 7.15425 65.9322 8.87413 67.6174 11.0142C70.2115 14.3267 67.3513 29.4043 59.0902 42.4093L58.8401 42.0927L58.7363 41.9623C60.3776 38.861 60.8551 35.2748 60.0826 31.8521C59.9047 30.6613 59.8158 29.4589 59.8165 28.2549C59.8647 27.1791 59.9812 26.1074 60.1651 25.0462C60.4045 23.7361 60.5141 22.4056 60.4923 21.074C60.5356 20.8911 60.5473 20.7021 60.5269 20.5152C59.6453 16.9525 57.8979 13.6625 55.4398 10.9371C53.2311 8.33435 50.4686 6.25814 47.3543 4.86028C49.3487 4.44441 51.3835 4.25343 53.4204 4.29091L53.4258 4.30422ZM19.6494 49.8617C17.9813 51.8677 16.8266 51.4846 16.4567 51.3569C13.9877 50.5321 11.1196 45.312 8.59466 37.0322C6.91816 31.6878 5.72497 26.2035 5.02945 20.6456C4.71018 14.2602 6.25865 9.80634 9.63229 7.4118C15.1211 3.51934 24.1485 5.85003 27.7749 7.03133C27.7217 7.08188 27.6685 7.12977 27.6179 7.18299C21.6662 13.1933 21.8072 23.4632 21.8232 24.0911C21.8232 24.3332 21.8418 24.6764 21.871 25.1553C22.0892 28.0163 22.017 30.892 21.6555 33.7384C21.4082 35.3682 21.5353 37.033 22.0271 38.6063C22.519 40.1797 23.3628 41.6204 24.4944 42.8191C24.7303 43.0638 24.9769 43.2962 25.234 43.5161C24.215 44.607 21.9988 47.0228 19.6468 49.8617H19.6494ZM26.0083 41.3744C25.0907 40.4043 24.4065 39.2377 24.0077 37.9634C23.6089 36.689 23.506 35.3405 23.7069 34.0205C24.0882 31.0375 24.1658 28.0236 23.9383 25.025C23.9224 24.7722 23.9091 24.5514 23.9011 24.3784C26.1298 22.6987 28.8957 21.8916 31.678 22.1089C32.3182 22.254 32.8973 22.5948 33.335 23.084C33.7726 23.5731 34.0472 24.1864 34.1204 24.8387C35.8392 32.7913 34.3466 36.1037 33.1493 38.767C32.9019 39.315 32.6678 39.8312 32.4709 40.3633L32.3166 40.7784C31.9342 41.7424 31.6073 42.7276 31.3375 43.729C30.3372 43.7148 29.3502 43.4983 28.4357 43.0928C27.5212 42.6872 26.6983 42.1009 26.0163 41.369L26.0083 41.3744ZM26.3089 52.0966C25.8153 51.9751 25.3451 51.7728 24.9174 51.4979C25.393 51.2948 25.8902 51.1466 26.3994 51.0563C30.1721 50.2794 30.7548 49.726 32.0292 48.1163C32.3219 47.7465 32.6518 47.3181 33.1094 46.8153C33.7905 46.0517 34.1045 46.182 34.6685 46.4162C34.9361 46.5615 35.1706 46.7606 35.3575 47.001C35.5443 47.2414 35.6793 47.5179 35.7541 47.813C35.8284 48.0273 35.855 48.2552 35.832 48.4809C35.8091 48.7065 35.737 48.9244 35.621 49.1194C34.5896 50.5436 33.13 51.6009 31.4553 52.1369C29.7805 52.673 27.9783 52.6598 26.3116 52.0992L26.3089 52.0966ZM46.0612 70.4707C45.3145 70.7303 44.5215 70.8295 43.7339 70.7618C42.9463 70.6942 42.1818 70.4611 41.4903 70.078C40.7988 69.6949 40.1959 69.1702 39.721 68.5383C39.246 67.9063 38.9097 67.1813 38.7339 66.4106C37.797 60.3809 37.5293 54.266 37.9357 48.1775C37.9384 48.0658 37.9232 47.9544 37.8905 47.8476C37.8626 47.6408 37.8199 47.4363 37.7628 47.2356C37.6052 46.6372 37.3181 46.0806 36.9218 45.6053C36.5255 45.1299 36.0297 44.7473 35.4694 44.4846C34.8162 44.1607 34.0727 44.0669 33.3595 44.2185C33.6116 43.2958 33.9154 42.388 34.2694 41.4994L34.4238 41.0817C34.5994 40.6108 34.8175 40.1239 35.049 39.6077C36.3021 36.8221 38.0209 33.0041 36.1558 24.3838C36.0378 23.6505 35.7708 22.9492 35.3713 22.323C34.9718 21.6969 34.4483 21.1593 33.8331 20.7432C33.2179 20.3271 32.5239 20.0415 31.7941 19.9039C31.0642 19.7663 30.3139 19.7797 29.5894 19.9432C27.837 20.1705 26.1379 20.7027 24.5689 21.5156C24.3614 21.6221 24.1698 21.7232 23.9942 21.8216C24.1954 16.9872 25.9896 12.355 29.0972 8.64632C30.3454 7.42478 31.8352 6.47759 33.4708 5.86547C35.1065 5.25335 36.8521 4.98981 38.5956 5.09175C41.541 5.11733 44.4449 5.78889 47.1025 7.05907C49.7601 8.32925 52.1066 10.1671 53.9765 12.443C55.8014 14.5739 57.2272 17.0164 58.1856 19.6532C54.2931 19.2568 51.6458 20.0257 50.3049 21.944C47.3782 26.1158 51.9012 34.2147 54.0723 38.1071C54.4714 38.8202 54.8146 39.4374 54.921 39.7035C55.4944 41.042 56.2667 42.2861 57.2118 43.3937C57.4167 43.6598 57.6162 43.8966 57.7652 44.1148C56.5866 44.4553 54.4687 45.2402 54.6629 49.1699C54.5086 51.1387 53.4018 60.3577 52.8378 63.617C52.0955 67.9191 50.5124 69.5235 46.0586 70.4786L46.0612 70.4707ZM65.3293 48.4196C63.6914 49.0694 61.9529 49.4295 60.1917 49.4839C59.0198 49.6564 57.8231 49.5027 56.7329 49.0395C56.6132 46.5944 57.5311 46.339 58.4889 46.0676C58.6405 46.0251 58.7869 45.9825 58.9305 45.9346C59.0245 46.0104 59.1221 46.0815 59.2232 46.1475C60.9233 47.2702 63.9591 47.39 68.2426 46.5066H68.2905C67.4051 47.2939 66.4036 47.9401 65.3213 48.4223L65.3293 48.4196Z" fill="white"/>
</svg>
