<svg width="80" height="80" viewBox="0 0 80 80" fill="none" xmlns="http://www.w3.org/2000/svg">
<path d="M39.9046 0.161621C19.7267 0.161623 20.9867 8.91199 20.9867 8.91199L21.0092 17.9773H40.2645V20.6991H13.3611C13.3611 20.6991 0.449219 19.2348 0.449219 39.5945C0.449217 59.9543 11.719 59.2323 11.719 59.2323H18.4448V49.7846C18.4448 49.7846 18.0823 38.5148 29.5346 38.5148H48.6325C48.6325 38.5148 59.3624 38.6883 59.3624 28.1448V10.7116C59.3624 10.7116 60.9915 0.161621 39.9046 0.161621ZM29.2872 6.25764C31.203 6.25764 32.7514 7.80603 32.7514 9.7218C32.7514 11.6376 31.203 13.186 29.2872 13.186C27.3714 13.186 25.8231 11.6376 25.8231 9.7218C25.823 7.80603 27.3714 6.25764 29.2872 6.25764Z" fill="url(#paint0_linear_2119_10047)"/>
<path d="M40.4752 79.2315C60.6532 79.2315 59.3931 70.4812 59.3931 70.4812L59.3706 61.4159H40.1153V58.694H67.0188C67.0188 58.694 79.9306 60.1583 79.9306 39.7986C79.9306 19.4389 68.6609 20.1609 68.6609 20.1609H61.935V29.6086C61.935 29.6086 62.2976 40.8783 50.8452 40.8783H31.7474C31.7474 40.8783 21.0175 40.7049 21.0175 51.2483V68.6816C21.0175 68.6816 19.3884 79.2315 40.4752 79.2315ZM51.0927 73.1355C49.1769 73.1355 47.6285 71.5871 47.6285 69.6714C47.6285 67.7556 49.1769 66.2072 51.0927 66.2072C53.0084 66.2072 54.5568 67.7556 54.5568 69.6714C54.5568 71.5871 53.0084 73.1355 51.0927 73.1355Z" fill="url(#paint1_linear_2119_10047)"/>
<defs>
<linearGradient id="paint0_linear_2119_10047" x1="764.304" y1="711.375" x2="4703.24" y2="4611.01" gradientUnits="userSpaceOnUse">
<stop stop-color="#387EB8"/>
<stop offset="1" stop-color="#366994"/>
</linearGradient>
<linearGradient id="paint1_linear_2119_10047" x1="1148.41" y1="1235.85" x2="5378.4" y2="5234.59" gradientUnits="userSpaceOnUse">
<stop stop-color="#FFE052"/>
<stop offset="1" stop-color="#FFC331"/>
</linearGradient>
</defs>
</svg>
