<svg width="30" height="30" viewBox="0 0 30 30" fill="none" xmlns="http://www.w3.org/2000/svg">
<path d="M3.08479e-05 15H3.00002C2.99646 13.423 3.30428 11.8609 3.90584 10.4032C4.5074 8.94552 5.39085 7.62095 6.50552 6.50549C7.59721 5.41017 8.8925 4.53883 10.3185 3.94049C13.2577 2.71939 16.5582 2.69732 19.5135 3.87899C19.5424 4.85019 19.9489 5.77183 20.6467 6.44801C21.3444 7.12419 22.2784 7.50159 23.25 7.49998C25.329 7.49998 27 5.82899 27 3.74999C27 1.671 25.329 0 23.25 0C22.2165 0 21.282 0.413999 20.6055 1.0875C16.959 -0.371999 12.771 -0.349499 9.15301 1.176C7.36972 1.92554 5.74954 3.01534 4.38302 4.38449C3.01326 5.75024 1.92292 7.36995 1.17303 9.15298C0.394833 11.0039 -0.00403998 12.9921 3.08479e-05 15ZM26.0595 19.683C25.458 21.111 24.594 22.395 23.4945 23.4944C22.395 24.5939 21.111 25.4579 19.6815 26.0594C16.7423 27.2805 13.4418 27.3026 10.4865 26.1209C10.4576 25.1497 10.0511 24.2281 9.35334 23.5519C8.65559 22.8757 7.72165 22.4984 6.75002 22.5C4.67102 22.5 3.00002 24.1709 3.00002 26.2499C3.00002 28.3289 4.67102 29.9999 6.75002 29.9999C7.78351 29.9999 8.71801 29.5859 9.39451 28.9124C11.1758 29.6318 13.079 30.001 15 29.9999C17.9498 30.0056 20.8356 29.14 23.2952 27.5116C25.7548 25.8833 27.6787 23.5647 28.8255 20.847C29.6047 18.9963 30.0041 17.008 30 15H27C27.0037 16.6082 26.6839 18.2008 26.0595 19.683Z" fill="black"/>
<path d="M14.9984 8.19287C11.2454 8.19287 8.19141 11.2469 8.19141 14.9999C8.19141 18.7528 11.2454 21.8068 14.9984 21.8068C18.7514 21.8068 21.8054 18.7528 21.8054 14.9999C21.8054 11.2469 18.7514 8.19287 14.9984 8.19287ZM14.9984 18.8068C12.8999 18.8068 11.1914 17.0984 11.1914 14.9999C11.1914 12.9014 12.8999 11.1929 14.9984 11.1929C17.0969 11.1929 18.8054 12.9014 18.8054 14.9999C18.8054 17.0984 17.0969 18.8068 14.9984 18.8068Z" fill="black"/>
</svg>
