<svg width="46" height="46" viewBox="0 0 46 46" fill="none" xmlns="http://www.w3.org/2000/svg">
<g clip-path="url(#clip0_3928_3088)">
<path d="M20.2672 0C25.8651 0 30.93 2.24609 34.5964 5.88102C38.2628 9.51221 40.5344 14.5322 40.5344 20.0726C40.5344 24.1268 39.3211 27.9002 37.2309 31.0597L46.0038 40.527L39.9561 46.0037L31.4932 36.7835C28.2804 38.9061 24.4174 40.1452 20.2672 40.1452C14.6694 40.1452 9.60444 37.8991 5.93804 34.2642C2.26787 30.6292 0 25.613 0 20.0726C0 14.5285 2.26787 9.51221 5.93426 5.87728C9.60444 2.24609 14.6694 0 20.2672 0ZM20.6868 15.4157L21.25 13.2931L18.0523 12.1813L24.5459 8.73356L28.0007 15.2547L24.6026 14.2065L24.1302 16.4339L20.6868 15.4157ZM31.4403 30.6929H11.2146C10.8102 30.6929 10.4247 30.5319 10.1374 30.2474C9.86524 29.9779 9.69515 29.5998 9.69515 29.188L9.69137 13.1396H11.9819V28.4243H31.4403V30.6929ZM26.4283 19.9603H29.3576C29.5239 19.9603 29.6562 20.0951 29.6562 20.256V26.298C29.6562 26.4627 29.5201 26.5938 29.3576 26.5938H26.4283C26.262 26.5938 26.1297 26.459 26.1297 26.298V20.2598C26.1259 20.0951 26.262 19.9603 26.4283 19.9603ZM14.8848 16.2617H17.8141C17.9804 16.2617 18.1127 16.3965 18.1127 16.5575V26.3018C18.1127 26.4665 17.9767 26.5975 17.8141 26.5975H14.8848C14.7185 26.5975 14.5862 26.4627 14.5862 26.3018V16.5612C14.5862 16.3965 14.7185 16.2617 14.8848 16.2617ZM23.9714 18.2233V26.3055C23.9714 26.4702 23.8353 26.6012 23.6728 26.6012H20.7472C20.5809 26.6012 20.4486 26.4665 20.4486 26.3055V17.2238L23.6161 18.1559C23.6652 18.1709 23.7144 18.1821 23.7635 18.1934C23.8278 18.2046 23.8996 18.2158 23.9714 18.2233ZM32.9975 7.46077C29.7394 4.23389 25.2376 2.23861 20.2672 2.23861C15.2968 2.23861 10.7951 4.23389 7.53689 7.46077C4.27494 10.6877 2.26031 15.1462 2.26031 20.0726C2.26031 24.9953 4.27494 29.4538 7.53311 32.6807C10.7913 35.9076 15.293 37.9028 20.2634 37.9028C25.2376 37.9028 29.7356 35.9076 32.9938 32.6807C36.2519 29.4538 38.2666 24.9953 38.2666 20.0726C38.2703 15.1462 36.2557 10.6877 32.9975 7.46077Z" fill="#D329B7"/>
</g>
<defs>
<clipPath id="clip0_3928_3088">
<rect width="46" height="46" fill="white"/>
</clipPath>
</defs>
</svg>
