<svg width="30" height="26" viewBox="0 0 30 26" fill="none" xmlns="http://www.w3.org/2000/svg">
<path d="M21.8271 4.73069C22.253 4.25753 22.9818 4.21917 23.455 4.64503L26.1252 7.04826C27.257 8.06666 28.1957 8.91142 28.8402 9.67769C29.518 10.4833 29.9998 11.349 29.9998 12.4176C29.9998 13.4862 29.518 14.3519 28.8402 15.1575C28.1957 15.9238 27.257 16.7686 26.1252 17.7869L23.455 20.1902C22.9818 20.6161 22.253 20.5776 21.8271 20.1044C21.4013 19.6312 21.4397 18.9025 21.9129 18.4766L24.52 16.1302C25.7309 15.0404 26.5472 14.3021 27.0761 13.6735C27.5837 13.0701 27.6945 12.7179 27.6945 12.4176C27.6945 12.1173 27.5837 11.765 27.0761 11.1617C26.5472 10.5331 25.7309 9.7948 24.52 8.70501L21.9129 6.35852C21.4397 5.93266 21.4013 5.20387 21.8271 4.73069Z" fill="black"/>
<path d="M8.08694 6.35852C8.5601 5.93266 8.59846 5.20387 8.1726 4.73069C7.74676 4.25753 7.01795 4.21917 6.54479 4.64503L3.87453 7.04826C2.74289 8.06666 1.80417 8.91142 1.1596 9.67769C0.481802 10.4833 0 11.349 0 12.4176C0 13.4862 0.481802 14.3519 1.1596 15.1575C1.80417 15.9238 2.74287 16.7686 3.8745 17.7869L6.54479 20.1902C7.01795 20.6161 7.74676 20.5776 8.1726 20.1044C8.59846 19.6312 8.5601 18.9025 8.08694 18.4766L5.47972 16.1302C4.26887 15.0404 3.4525 14.3021 2.92367 13.6735C2.41612 13.0701 2.30527 12.7179 2.30527 12.4176C2.30527 12.1173 2.41612 11.765 2.92367 11.1617C3.4525 10.5331 4.26887 9.7948 5.47972 8.70501L8.08694 6.35852Z" fill="black"/>
<path d="M18.3511 0.0395631C18.966 0.204313 19.3308 0.836357 19.1661 1.45125L13.0593 24.2423C12.8945 24.8572 12.2624 25.222 11.6476 25.0573C11.0327 24.8925 10.6678 24.2604 10.8325 23.6455L16.9393 0.8546C17.1041 0.239707 17.7362 -0.125202 18.3511 0.0395631Z" fill="black"/>
</svg>
