<svg width="46" height="51" viewBox="0 0 46 51" fill="none" xmlns="http://www.w3.org/2000/svg">
<path d="M4.10248 16.4609C3.18879 16.4609 2.41355 16.7663 1.77629 17.377C1.13904 17.9877 0.820312 18.7205 0.820312 19.5758V32.7079C0.820312 33.5846 1.13894 34.3269 1.77629 34.9376C2.41355 35.5483 3.18879 35.8538 4.10248 35.8538C5.01551 35.8538 5.78605 35.5484 6.41343 34.9376C7.03956 34.3269 7.35349 33.5846 7.35349 32.7079V19.5758C7.35349 18.7204 7.03486 17.9877 6.39751 17.377C5.76016 16.7663 4.99499 16.4609 4.10248 16.4609Z" fill="black"/>
<path d="M30.4925 4.67222L32.7553 0.672142C32.9038 0.40732 32.8509 0.204247 32.5963 0.0614528C32.3198 -0.0616774 32.1074 0.0007147 31.959 0.244218L29.6647 4.27627C27.6458 3.42089 25.5105 2.99241 23.2588 2.99241C21.0067 2.99241 18.8712 3.42098 16.8531 4.27627L14.5586 0.244218C14.4095 0.0007147 14.1971 -0.0611261 13.9214 0.0614528C13.6661 0.20489 13.6133 0.40732 13.7624 0.672142L16.0252 4.67222C13.7307 5.79353 11.9033 7.35517 10.5437 9.36054C9.18402 11.367 8.50391 13.5596 8.50391 15.9423H37.9817C37.9817 13.5602 37.3015 11.3675 35.9419 9.36054C34.5822 7.35517 32.7653 5.79353 30.4925 4.67222ZM17.4105 10.4904C17.1658 10.7254 16.8736 10.8424 16.5339 10.8424C16.1935 10.8424 15.9072 10.7254 15.6736 10.4904C15.44 10.2564 15.3232 9.97748 15.3232 9.65081C15.3232 9.32525 15.44 9.04573 15.6736 8.81123C15.9072 8.57728 16.1941 8.46031 16.5339 8.46031C16.8736 8.46031 17.1658 8.57728 17.4105 8.81123C17.6547 9.04628 17.7773 9.32525 17.7773 9.65081C17.7766 9.97692 17.6541 10.2564 17.4105 10.4904ZM30.8428 10.4904C30.6088 10.7254 30.3218 10.8424 29.9826 10.8424C29.6421 10.8424 29.35 10.7254 29.1057 10.4904C28.8611 10.2564 28.7391 9.97748 28.7391 9.65081C28.7391 9.32525 28.8611 9.04573 29.1057 8.81123C29.35 8.57728 29.6421 8.46031 29.9826 8.46031C30.3223 8.46031 30.6087 8.57728 30.8428 8.81123C31.0766 9.04628 31.1932 9.32525 31.1932 9.65081C31.1932 9.97692 31.0765 10.2564 30.8428 10.4904Z" fill="black"/>
<path d="M8.62891 37.3803C8.62891 38.3178 8.96863 39.1113 9.64817 39.7625C10.3283 40.4138 11.1564 40.7393 12.1339 40.7393H14.4923L14.5246 47.6726C14.5246 48.5482 14.8433 49.2916 15.4805 49.9024C16.1178 50.5132 16.883 50.8185 17.775 50.8185C18.6881 50.8185 19.4638 50.5132 20.1012 49.9024C20.7385 49.2916 21.0571 48.5483 21.0571 47.6726V40.74H25.4549V47.6726C25.4549 48.5482 25.7734 49.2916 26.4107 49.9024C27.0481 50.5132 27.8231 50.8185 28.7369 50.8185C29.65 50.8185 30.4258 50.5132 31.0631 49.9024C31.7005 49.2916 32.019 48.5483 32.019 47.6726V40.74H34.4092C35.3651 40.74 36.1826 40.4143 36.8633 39.7631C37.5428 39.1119 37.8827 38.3183 37.8827 37.381V17.0405H8.62891V37.3803Z" fill="black"/>
<path d="M42.4106 16.4609C41.518 16.4609 40.7534 16.7618 40.116 17.3618C39.4788 17.9629 39.1602 18.7014 39.1602 19.5758V32.7079C39.1602 33.5846 39.4787 34.3269 40.116 34.9376C40.7534 35.5484 41.5186 35.8538 42.4106 35.8538C43.3237 35.8538 44.0994 35.5484 44.7368 34.9376C45.3741 34.3269 45.6927 33.5846 45.6927 32.7079V19.5758C45.6927 18.7013 45.3741 17.9629 44.7368 17.3618C44.0994 16.7618 43.3237 16.4609 42.4106 16.4609Z" fill="black"/>
</svg>
