<svg width="44" height="43" viewBox="0 0 44 43" fill="none" xmlns="http://www.w3.org/2000/svg">
<path d="M8.83966 18.7687C8.83966 17.2964 7.64609 16.1028 6.17374 16.1028C4.70139 16.1028 3.50781 17.2964 3.50781 18.7687V26.7665C3.50781 28.2388 4.70139 29.4324 6.17374 29.4324C7.64609 29.4324 8.83966 28.2388 8.83966 26.7665V18.7687Z" fill="#8BC34A"/>
<path d="M40.8318 18.7687C40.8318 17.2964 39.6383 16.1028 38.1659 16.1028C36.6936 16.1028 35.5 17.2964 35.5 18.7687V26.7665C35.5 28.2388 36.6936 29.4324 38.1659 29.4324C39.6383 29.4324 40.8318 28.2388 40.8318 26.7665V18.7687Z" fill="#8BC34A"/>
<path d="M11.5039 16.1024H32.8313V32.098H11.5039V16.1024ZM14.1698 32.098H19.5017V37.4298C19.5017 38.1369 19.2208 38.8149 18.7208 39.3149C18.2209 39.8149 17.5428 40.0957 16.8358 40.0957C16.1287 40.0957 15.4506 39.8149 14.9507 39.3149C14.4507 38.8149 14.1698 38.1369 14.1698 37.4298V32.098ZM24.8335 32.098H30.1654V37.4298C30.1654 38.1369 29.8845 38.8149 29.3845 39.3149C28.8846 39.8149 28.2065 40.0957 27.4995 40.0957C26.7924 40.0957 26.1143 39.8149 25.6144 39.3149C25.1144 38.8149 24.8335 38.1369 24.8335 37.4298V32.098ZM29.5589 5.75996L32.3848 2.93408C32.6276 2.68268 32.7619 2.34597 32.7589 1.99647C32.7558 1.64697 32.6157 1.31265 32.3685 1.06551C32.1214 0.818367 31.7871 0.678181 31.4376 0.675144C31.0881 0.672107 30.7513 0.806462 30.4999 1.04927L27.3995 4.14974C25.8036 3.24674 24.0012 2.77215 22.1676 2.77215C20.334 2.77215 18.5316 3.24674 16.9357 4.14974L13.8366 1.04927C13.7136 0.92196 13.5665 0.820412 13.4039 0.750553C13.2413 0.680694 13.0664 0.643922 12.8894 0.642384C12.7124 0.640846 12.5369 0.674573 12.3731 0.741595C12.2092 0.808618 12.0604 0.907594 11.9353 1.03275C11.8101 1.1579 11.7111 1.30673 11.6441 1.47055C11.5771 1.63437 11.5434 1.80989 11.5449 1.98688C11.5464 2.16387 11.5832 2.33878 11.6531 2.50141C11.7229 2.66403 11.8245 2.81112 11.9518 2.93408L14.7777 5.75996C13.742 6.75226 12.9181 7.94399 12.3554 9.2633C11.7928 10.5826 11.5031 12.0022 11.5039 13.4365H32.8313C32.8322 12.0023 32.5428 10.5828 31.9804 9.26346C31.418 7.94415 30.5943 6.75237 29.5589 5.75996ZM19.5017 10.7706H16.8358V8.10464H19.5017V10.7706ZM27.4995 10.7706H24.8335V8.10464H27.4995V10.7706Z" fill="#8BC34A"/>
</svg>
