<svg width="35" height="35" viewBox="0 0 35 35" fill="none" xmlns="http://www.w3.org/2000/svg">
<path d="M26.9035 5.98729C27.6239 6.34748 27.9158 7.22346 27.5556 7.94385L25.8428 11.3696C29.6163 14.0055 32.0846 18.3812 32.0846 23.3334V24.7917C32.0846 26.4024 30.7788 27.7084 29.168 27.7084H5.83464C4.2238 27.7084 2.91797 26.4024 2.91797 24.7917V23.3334C2.91797 18.3812 5.38631 14.0055 9.15981 11.3696L7.44692 7.94385C7.08673 7.22346 7.37873 6.34748 8.09912 5.98729C8.81949 5.6271 9.69549 5.91908 10.0557 6.63947L11.7088 9.94569C13.4844 9.1764 15.443 8.74999 17.5013 8.74999C19.5596 8.74999 21.5183 9.1764 23.2938 9.94569L24.947 6.63947C25.3072 5.91908 26.1831 5.6271 26.9035 5.98729ZM17.5013 11.6667C11.058 11.6667 5.83464 16.89 5.83464 23.3334V24.7917H29.168V23.3334C29.168 16.89 23.9447 11.6667 17.5013 11.6667ZM12.3971 17.5C13.6053 17.5 14.5846 18.4793 14.5846 19.6875C14.5846 20.8956 13.6053 21.875 12.3971 21.875C11.189 21.875 10.2096 20.8956 10.2096 19.6875C10.2096 18.4793 11.189 17.5 12.3971 17.5ZM22.6055 17.5C23.8136 17.5 24.793 18.4793 24.793 19.6875C24.793 20.8956 23.8136 21.875 22.6055 21.875C21.3974 21.875 20.418 20.8956 20.418 19.6875C20.418 18.4793 21.3974 17.5 22.6055 17.5Z" fill="black"/>
</svg>
