<svg width="84" height="85" viewBox="0 0 84 85" fill="none" xmlns="http://www.w3.org/2000/svg">
<path d="M20.6569 1.68359C19.4984 2.43959 18.3819 3.52109 17.1779 4.75309C15.1864 6.81459 13.8634 8.82709 11.8369 10.3181C11.4309 10.6681 10.2934 11.2281 8.86192 11.3121C8.18992 11.3471 7.74892 11.4591 6.50992 11.3016C5.41792 10.7101 4.38192 11.0951 3.37042 12.3061C2.26092 13.9021 0.850418 16.9331 0.269418 18.8441C-0.938082 23.7091 2.13492 27.7201 5.08192 30.8141C7.70342 33.3691 9.21192 34.9721 10.2899 37.3206C11.1054 38.8431 11.7074 40.9326 12.3619 42.3956C12.5964 42.8611 12.5474 42.8576 13.1844 42.9976C14.5494 43.2916 16.4534 43.2916 18.1439 43.4386C18.8754 43.4491 19.8799 43.4211 20.8319 43.3231C22.1444 43.0746 23.6844 42.8331 24.9794 42.3851C26.2394 42.0701 27.3664 41.6431 28.3779 41.2476C28.2484 41.6886 27.2824 42.1191 26.9219 42.6826C23.5549 47.4986 22.5819 51.8001 23.1069 58.4676L23.0789 58.4431L23.1174 58.6181L23.1384 58.8876C23.4779 61.9466 24.1814 64.4876 25.2384 67.3926C25.8875 69.0933 26.7295 70.7139 27.7479 72.2226C28.0023 72.5773 28.2799 72.9389 28.5809 73.3076H28.5739L28.5914 73.3216C31.8464 77.2766 38.0624 81.8966 46.4344 83.7726C48.0339 83.9896 49.8469 83.8741 51.5549 83.4226C56.0769 82.0506 65.2924 78.8061 65.2924 78.8061C65.2924 78.8061 57.1129 79.4851 53.3644 79.1141C52.4964 78.9776 51.5444 78.9321 50.9389 78.3406C50.8339 78.2111 50.4664 77.4656 50.7044 77.4621C51.0299 77.4516 51.9644 77.0666 53.3994 76.9371C50.3299 76.6081 50.3719 76.6116 50.1479 76.0516C49.7213 74.9976 49.2436 73.9651 48.7164 72.9576C50.0674 73.0731 53.0564 73.2376 54.0679 72.1946C54.0679 72.1946 52.3004 72.3976 50.7394 72.2156C50.1623 72.1035 49.5957 71.9431 49.0454 71.7361C48.3454 71.4596 47.7679 71.3756 47.6314 71.1971C47.3864 70.5776 47.2254 70.3711 46.9314 69.5416C46.5324 68.4391 46.5009 67.2141 46.4239 66.0906C47.4459 67.3506 48.7479 68.4111 50.4734 68.9536C50.4944 68.9081 52.7064 69.9161 54.3164 69.3981L54.6244 69.2966C54.4669 69.3281 53.5499 69.3666 53.1929 69.1916C49.9239 67.7986 49.4304 66.5841 48.9019 65.9786L47.4914 63.8646C47.9219 63.0071 48.1634 62.9756 48.7339 62.9686C50.4524 63.1576 51.2014 63.3046 52.2479 63.0526C52.9584 64.5086 53.1474 65.9751 54.7609 67.0321C60.1264 68.6281 61.2919 66.5596 62.5904 64.7361C66.4544 67.5711 72.7404 68.4426 77.1049 64.7851C82.6559 58.3626 84.4129 48.2371 83.9194 47.6596C83.2264 46.4836 82.3199 45.2691 81.5394 45.4371C78.7534 46.1966 77.7244 47.6071 74.9699 47.2886C75.2989 47.2676 75.8519 47.2606 75.8554 47.2291C76.0654 44.8946 75.8379 43.7641 75.7364 43.5681C74.8964 41.7236 73.7974 39.7811 73.0344 38.3251C72.8349 38.0241 72.2539 35.7281 71.2844 34.8251C70.8644 34.4681 69.8494 33.5301 69.8494 33.5301L69.7584 34.5276C69.7584 34.5276 70.1574 34.5871 70.3114 35.2031C70.5879 36.3301 71.4069 38.1921 72.2084 39.8581H70.9134L72.3974 40.2431C73.1954 41.8706 73.9269 43.2251 74.0319 43.3511C74.7074 44.4431 74.5499 45.7066 74.5744 46.7811L74.1894 46.9736C74.1299 45.7101 72.7719 45.8011 71.6274 45.7906L70.6894 45.5596C70.9764 45.8256 71.8584 45.8046 71.5014 46.3751C71.2004 46.5361 71.0639 47.2221 70.8924 47.7996L70.3849 47.8241C71.2809 48.1741 72.1139 48.4821 73.1009 48.8951L73.5979 48.9686L73.1009 50.2181L72.4254 49.9451L72.4009 49.4726C71.2109 48.9966 68.9184 48.7971 68.8344 48.8951C67.9874 49.7246 67.3714 50.7291 66.7029 51.6951C67.6199 50.9811 68.3129 49.9031 69.5484 49.6056C69.6464 49.5951 70.8714 49.8331 71.5364 49.9486C71.1094 50.0361 70.4164 50.0676 70.3114 50.2181C69.3699 51.3801 68.6804 52.7941 67.8719 54.0856C68.9884 52.9341 69.3279 51.7546 71.2214 50.6381C71.3789 50.5331 72.5339 50.5576 73.0974 50.8411C72.9189 51.4816 72.5129 52.2446 72.1874 52.9656C71.7219 54.0611 70.8364 55.0691 70.1574 56.1226C72.2854 53.5326 71.6799 54.4811 73.1009 52.8116C73.6959 51.3976 74.2909 49.8716 74.8404 48.3631L74.9454 48.3071C75.1344 48.4226 76.5904 48.2791 77.7279 48.3491C79.6844 47.9291 79.6004 47.0646 81.2909 46.9351C82.4284 46.8476 82.5439 48.9861 82.5264 49.1541C82.2471 51.7801 81.5623 54.3469 80.4964 56.7631C78.2144 61.1661 75.6559 65.1211 72.0264 65.6706C67.5989 66.4441 65.2994 64.5086 62.8984 63.2766L61.9814 64.0606C58.8629 67.1651 55.1599 66.8886 53.6444 62.8321L53.6339 62.8111C53.5333 62.6034 53.426 62.3992 53.3119 62.1986C52.8674 61.3376 52.4369 60.4661 51.9049 59.6646C47.2219 55.9616 49.3849 52.5876 50.6309 50.4526C48.0269 49.7946 44.5759 48.3946 44.0999 46.5571C43.3334 40.6071 43.7219 38.7171 44.4849 35.6616C40.9989 36.3966 37.4639 37.1281 33.7154 38.3776L33.7119 38.3496C32.7109 38.5736 29.3509 39.8056 28.3989 40.3201C26.2394 40.9466 24.4439 41.6011 21.6894 42.2906C20.8141 42.399 19.9286 42.3966 19.0539 42.2836C17.0729 42.0141 13.6954 42.2556 13.4784 42.0561C12.1379 40.1836 11.7704 36.8306 10.5454 35.0351L10.5314 35.0176L10.5139 35.0036C9.80342 34.0411 8.97042 33.2606 8.15142 32.4486C5.21492 29.5261 2.70542 26.7051 2.00192 23.7196C1.82692 22.8376 1.37192 21.9241 1.60992 19.3166L1.61692 19.3026L1.62042 19.2921C2.32742 16.8526 3.47542 14.8646 5.42492 12.8731C7.45492 12.9081 9.46042 12.9501 11.0249 13.2511C11.7424 13.3701 13.2334 13.5661 14.7734 14.1401C18.6759 15.5926 23.8279 17.9796 23.8279 17.9796C19.9604 15.8551 15.6379 13.0971 12.9044 12.5406C12.4949 12.4811 12.2464 12.2956 12.1274 11.9736C16.2329 9.55859 16.9854 6.71659 19.6874 4.16859C20.9229 3.62959 21.4024 3.35659 22.4524 3.24109C32.1614 4.77759 38.2724 8.64159 43.1024 11.2281C45.0624 12.2921 46.8474 13.1006 48.5519 14.0701C50.0429 14.5601 54.5474 17.9656 55.8669 19.7996C57.2074 22.6241 58.1839 25.6796 59.0764 28.6266C59.7169 31.6261 60.2769 32.8406 60.2769 32.8406C60.2769 32.8406 59.7344 30.3346 59.8219 29.8831C60.3889 30.0931 61.7189 30.5131 62.2719 30.4431C62.2719 30.4431 59.8044 29.1691 59.4824 28.0421C58.4464 24.4266 57.4034 18.7986 57.1234 18.5046C56.3324 17.5106 53.0354 14.9871 51.0124 13.8181C50.2494 13.3771 49.8364 13.1041 49.8049 12.9081C50.4489 12.2571 51.2469 11.3926 51.9644 10.8431C52.6469 10.3181 53.2734 9.72309 54.2289 9.37309C58.4289 7.47959 60.8299 10.0976 61.4039 9.56909C61.4039 9.56909 60.4974 8.53309 60.8999 8.70459C61.3094 8.92509 62.6499 9.18759 62.7969 9.32409C64.3264 10.5211 68.3304 14.8996 70.7419 19.5196C71.3229 20.6501 71.5574 21.3956 71.2879 22.7571C71.0184 24.1221 70.8119 24.8711 70.5179 25.7811C70.2519 26.3901 68.7504 30.5586 68.7574 31.1186C68.4529 33.4041 69.7374 36.2671 69.7374 36.2671C69.7479 35.4901 69.6884 35.0771 69.7584 34.5206L69.8459 33.5266C69.8459 33.5266 69.7899 33.2641 69.8004 33.1591C69.8669 32.4731 70.0349 31.8956 70.0839 31.5001C70.5669 28.5146 71.4034 26.3656 72.3589 23.7441C72.6389 23.0826 73.0064 22.7151 72.9889 22.2111C73.0064 21.3186 72.2049 20.1181 71.6274 18.9456C70.9796 17.6028 70.2466 16.3029 69.4329 15.0536C67.3469 12.0541 65.5724 9.70909 62.3174 8.23909C61.4074 7.84009 57.8234 7.44809 56.5844 7.67909C55.0829 7.99409 53.7949 8.30209 52.7624 8.96359C51.1454 9.99959 49.8714 11.6061 48.3804 12.5511C45.0764 10.8991 43.4804 9.66359 43.1864 9.49209C41.2229 8.44209 38.8674 7.22059 36.3334 6.06209C35.1154 4.93859 27.5694 2.22609 20.6569 1.68709V1.68359ZM54.6244 69.2966C54.6408 69.2966 54.6489 69.2943 54.6489 69.2896L54.6244 69.2966ZM61.4739 12.3796C61.6489 13.2896 61.7924 14.1891 62.4784 15.3336C63.9484 16.9541 64.4769 18.0986 64.6834 18.6061C65.4009 20.4471 65.9749 22.2881 66.4999 24.1291C66.3249 22.2111 65.6704 20.1531 65.4044 18.3191C65.2539 17.4791 62.0654 12.4391 61.4739 12.3796ZM36.7009 21.1646C40.3794 22.0991 45.8324 22.1236 48.4889 23.7651C48.5274 23.9086 48.4189 24.0031 48.2579 24.0801C47.6034 23.9891 46.9559 23.8106 46.2629 23.9751C45.2479 24.3006 44.3449 24.9166 43.3859 25.3961C46.0249 24.8571 46.7634 25.4906 48.7689 25.6586C50.9389 26.4846 52.2164 30.4711 53.6479 31.5946C52.3249 28.7001 51.4884 24.3846 48.9054 22.0956C45.6959 21.0666 40.9709 21.3081 36.7009 21.1646ZM61.1554 38.3706C60.3699 38.3599 59.5857 38.4374 58.8174 38.6016C58.2574 39.3541 58.2224 40.1171 57.9774 40.8241C59.6434 38.9866 60.3049 38.8746 62.9719 38.4931C62.3686 38.4127 61.7641 38.3718 61.1554 38.3706ZM33.9009 39.6481C35.6369 46.1581 39.2069 52.7136 42.7559 58.6881C44.1209 60.4241 44.4954 61.2011 46.5604 62.2511C46.3901 62.6151 46.2011 63.0538 45.9934 63.5671C42.0314 61.6106 38.7589 59.2551 35.4654 56.8821C30.1734 53.0181 28.8504 48.4191 27.9229 42.4061C28.0358 42.2529 28.1787 42.1242 28.3429 42.0281C30.0287 40.8909 31.9146 40.0833 33.9009 39.6481ZM62.5484 43.6206C60.9174 43.6136 59.5699 44.1806 57.8199 45.3076C57.8199 45.3076 59.7589 45.0276 59.7239 45.2026C59.5944 45.8151 59.8919 47.2151 59.9794 47.3096L60.0004 47.2921C60.0004 47.3154 59.9934 47.3213 59.9794 47.3096L58.9084 48.1846C61.1974 47.0331 63.6019 47.2641 66.0449 47.0891C66.0449 47.0891 63.9869 46.5221 64.1129 46.5046C64.5714 46.4381 63.9904 44.3591 63.8329 44.3136C64.2176 44.1871 64.6077 44.0773 65.0019 43.9846C64.2028 43.7598 63.3784 43.6375 62.5484 43.6206ZM60.9839 45.5911C61.3129 45.5946 61.6454 45.6891 61.7539 45.9061C61.8582 46.2039 61.8799 46.5244 61.8169 46.8336C61.3187 46.785 60.8214 46.936 60.4344 47.2536C60.1859 47.4986 60.0039 46.0391 60.1964 45.8116C60.3154 45.6716 60.6514 45.5876 60.9839 45.5911ZM71.5434 46.6341C71.8374 46.6306 72.4394 46.6656 72.5479 47.0541C72.6179 47.2711 72.4009 47.9991 72.2959 48.0761C72.1349 48.1566 71.0499 48.0866 71.0044 47.8626C70.9134 47.5966 71.1339 46.7916 71.3824 46.6446L71.5434 46.6341ZM81.6829 47.9781L79.7474 48.9231C76.5974 49.9171 76.4084 49.0281 75.2324 48.6921C76.0094 49.5776 76.9369 50.2391 78.5854 49.8471C80.8429 49.1611 80.9199 48.5871 81.6829 47.9781ZM23.9364 50.4246C25.6864 55.1846 34.0409 64.0536 45.2514 65.3976L45.2234 65.4606C44.8384 66.3916 44.5164 67.9946 44.5374 69.3246L44.5164 69.3596C29.9739 66.2621 28.1714 62.3806 23.6879 58.9051C23.3624 56.2171 23.3204 53.2981 23.9364 50.4246ZM56.9834 57.0886C56.9088 57.0886 56.8703 57.0921 56.8679 57.0991C55.8319 57.8341 55.6779 58.5411 55.6989 59.1501C57.4174 57.4596 57.3544 57.4526 59.8639 57.4701C58.9121 57.2861 57.9503 57.1587 56.9834 57.0886ZM58.0194 58.3591C57.6519 60.3436 56.3149 61.7541 55.2789 63.1471C55.0724 63.4726 54.9254 63.9171 55.9404 65.3311C56.2134 65.7091 57.2004 65.7721 57.8654 65.7371C57.1899 65.2261 56.1574 64.6836 55.9894 64.2111C57.1829 65.0266 58.2889 65.2611 59.2899 65.1281C59.5174 65.1036 59.8009 64.8586 60.0214 64.4876C60.4659 63.5286 60.8159 63.2976 61.1694 63.0421L61.9814 64.0606L62.8984 63.2766C60.8649 61.6841 59.1534 60.0461 58.0194 58.3591ZM25.5359 66.8291C30.6459 69.9021 38.8849 73.2656 45.8779 73.0976C46.5779 74.3121 47.4144 75.5861 48.0934 76.6011C39.1894 77.9556 33.0154 75.2326 29.2389 73.3811L28.8294 72.9681C27.6219 71.5996 26.4634 69.0026 25.5359 66.8291ZM49.6299 78.9251C49.9799 79.6496 50.5469 80.2516 50.5854 80.3321C53.5814 84.2381 46.8089 83.3386 45.4124 83.1006C42.9274 82.7051 40.4949 81.7321 38.1849 80.4161C41.9439 80.3426 45.9129 80.6261 49.6299 78.9251Z" fill="black"/>
</svg>
