<svg width="71" height="71" viewBox="0 0 71 71" fill="none" xmlns="http://www.w3.org/2000/svg">
<path d="M34.4743 0.780823C34.4228 0.779708 34.3721 0.793771 34.3285 0.821258C34.285 0.848746 34.2504 0.888444 34.2293 0.935407C31.757 5.7345 28.8557 10.3002 25.5609 14.5767C19.4651 22.5333 10.5547 33.4358 10.5547 44.805C10.5547 47.946 11.1734 51.0563 12.3755 53.9582C13.5776 56.8601 15.3396 59.4968 17.5607 61.7177C19.7819 63.9386 22.4188 65.7002 25.3209 66.9019C28.2229 68.1037 31.3332 68.722 34.4743 68.7217V54.1296C34.4743 53.8204 34.728 53.5667 35.0401 53.5667H43.2359V45.3621C43.2359 45.0529 43.4897 44.805 43.8018 44.805H58.3968C58.3968 33.43 49.4834 22.5333 43.3905 14.5767C40.0948 10.3003 37.1925 5.73461 34.7193 0.935407C34.6954 0.890531 34.6603 0.852661 34.6173 0.825547C34.5743 0.798433 34.525 0.783016 34.4743 0.780823ZM29.7143 12.0596C29.8601 12.0596 29.9476 12.1587 29.8222 12.3862L28.8655 14.1158C27.7105 16.1633 26.4768 18.1671 25.278 20.1825C24.7083 20.0911 24.1395 20.0055 23.5718 19.9258C25.0155 18.0271 26.4884 16.1458 27.8884 14.2121C28.3347 13.6025 28.7693 12.9783 29.2126 12.3629C29.2693 12.2791 29.3435 12.2086 29.4302 12.1562C29.5168 12.1038 29.6137 12.0709 29.7143 12.0596ZM22.2009 21.74C22.8465 21.843 23.494 21.9587 24.1434 22.0871L23.493 23.2042C21.7154 26.2721 20.1324 29.4488 18.7534 32.7154C16.2043 38.9075 14.7197 45.6771 16.5076 52.2775C17.6422 56.4292 19.8762 60.1978 22.9739 63.1858C23.2159 63.4279 22.9155 63.8158 22.6268 63.6379C21.6731 63.0408 20.7663 62.3719 19.9143 61.6371C15.9147 58.1714 13.2732 53.4001 12.4593 48.1708C11.4997 41.8825 13.588 35.7867 16.5951 30.3354C18.273 27.3516 20.1436 24.4804 22.1951 21.74H22.2009ZM45.333 46.3421C45.1857 46.3436 45.0449 46.4028 44.9408 46.5069C44.8366 46.6111 44.7775 46.7519 44.7759 46.8992V54.1558H52.5839V46.3392L45.333 46.3421ZM54.9551 46.3421V54.1558H58.8868C59.8308 51.6574 60.3389 49.0154 60.3889 46.345L54.9551 46.3421ZM36.5714 55.1037C36.4231 55.1053 36.2814 55.1653 36.1771 55.2707C36.0728 55.3761 36.0143 55.5184 36.0143 55.6667V62.9146H43.8251V55.1037H36.5714ZM46.1818 56.5154V64.3321H52.3505C52.5661 64.334 52.7799 64.2933 52.9796 64.2122C53.1794 64.1311 53.3611 64.0112 53.5143 63.8596V63.8479C53.817 63.539 53.9848 63.1225 53.9809 62.69V56.5183L46.1818 56.5154ZM56.8976 57.0462V62.8212C58.3556 61.0793 59.5514 59.1338 60.4472 57.0462H56.8976ZM36.5714 65.2829C36.4236 65.2844 36.2823 65.344 36.1781 65.4488C36.0739 65.5536 36.015 65.6951 36.0143 65.8429V70.7196C38.6848 70.6687 41.3268 70.1596 43.8251 69.2146V65.2829H36.5714ZM46.7214 67.2312V70.7808C48.8089 69.885 50.7544 68.6892 52.4964 67.2312H46.7214Z" fill="#272727"/>
</svg>
