<svg width="274" height="134" viewBox="0 0 274 134" fill="none" xmlns="http://www.w3.org/2000/svg">
<mask id="path-1-inside-1_1148_69273" fill="white">
<path d="M0 24C0 16.8203 5.8203 11 13 11H252V121C252 128.18 246.18 134 239 134H13C5.82029 134 0 128.18 0 121V24Z"/>
</mask>
<path fill-rule="evenodd" clip-rule="evenodd" d="M13 11C12.829 11 12.6585 11.0027 12.4888 11.008L12.4891 11.0167C12.6583 11.0056 12.8287 11 13 11ZM11.4782 11.1496L11.4691 11.0723C11.1274 11.1047 10.7889 11.1479 10.4538 11.2015L10.4953 11.4111C10.8169 11.3033 11.1448 11.2157 11.4782 11.1496ZM9.5561 11.7915L9.44487 11.3964C9.10791 11.4728 8.77499 11.5599 8.44648 11.6573L8.67468 12.2756C8.96118 12.0967 9.25525 11.935 9.5561 11.7915ZM7.85893 12.8473L7.46067 11.9848C7.1325 12.106 6.80939 12.2375 6.49175 12.3791L7.11455 13.4888C7.35479 13.2611 7.60314 13.047 7.85893 12.8473ZM6.443 14.1845L5.5431 12.8403C5.22852 13.0063 4.92014 13.1825 4.6184 13.3684L5.84338 14.9202C6.03539 14.6645 6.23544 14.419 6.443 14.1845ZM5.31337 15.684L5.19405 15.555L3.72194 13.9632C3.42629 14.174 3.1381 14.3946 2.85787 14.6245L4.55497 16.1941L4.84939 16.4663C4.99653 16.1978 5.15133 15.9368 5.31337 15.684ZM4.44746 17.2596L3.96776 16.8809L2.03081 15.3519C1.75996 15.6071 1.49801 15.8716 1.24547 16.1449L3.4361 17.6115L4.1033 18.0582C4.21097 17.7863 4.3258 17.5199 4.44746 17.2596ZM3.81285 18.8576L2.96357 18.381L0.507285 17.0025C0.278542 17.2879 0.0593808 17.5814 -0.149712 17.8824C-0.15924 17.8961 -0.168747 17.9098 -0.178234 17.9236L-0.170481 17.9272L2.55314 19.1849L3.57208 19.6554C3.64575 19.3853 3.72609 19.1192 3.81285 18.8576ZM3.37734 20.4503L2.20744 20.0186L-0.60702 18.9799L-0.80514 18.9068C-1.00459 19.2463 -1.19187 19.5937 -1.36639 19.9486L-0.958842 20.0634L1.92892 20.8763L3.22561 21.2413C3.26996 20.9745 3.32061 20.7108 3.37734 20.4503ZM3.11408 22.03L1.71892 21.754L-1.22404 21.1718L-1.85583 21.0468C-2.00662 21.4228 -2.14356 21.8058 -2.266 22.1952L-1.40085 22.2965L1.57877 22.6456L3.04085 22.8169C3.05922 22.5522 3.08369 22.2899 3.11408 22.03ZM3.00454 23.6047L1.50874 23.5468L-1.48902 23.4309L-2.59069 23.3883C-2.6374 23.5908 -2.68026 23.7947 -2.71921 24C-2.75034 24.1641 -2.77896 24.3291 -2.80503 24.4949H-1.5H1.5H3V24C3 23.8678 3.00152 23.736 3.00454 23.6047ZM3 25.4847H1.5H-1.5H-2.92918C-2.95992 25.8119 -2.9808 26.1419 -2.99153 26.4745H-1.5H1.5H3V25.4847ZM3 27.4643H1.5H-1.5H-3V28.4541H-1.5H1.5H3V27.4643ZM3 29.4439H1.5H-1.5H-3V30.4337H-1.5H1.5H3V29.4439ZM3 31.4235H1.5H-1.5H-3V32.4133H-1.5H1.5H3V31.4235ZM3 33.4031H1.5H-1.5H-3V34.3929H-1.5H1.5H3V33.4031ZM3 35.3827H1.5H-1.5H-3V36.3724H-1.5H1.5H3V35.3827ZM3 37.3622H1.5H-1.5H-3V38.352H-1.5H1.5H3V37.3622ZM3 39.3418H1.5H-1.5H-3V40.3316H-1.5H1.5H3V39.3418ZM3 41.3214H1.5H-1.5H-3V42.3112H-1.5H1.5H3V41.3214ZM3 43.301H1.5H-1.5H-3V44.2908H-1.5H1.5H3V43.301ZM3 45.2806H1.5H-1.5H-3V46.2704H-1.5H1.5H3V45.2806ZM3 47.2602H1.5H-1.5H-3V48.25H-1.5H1.5H3V47.2602ZM3 49.2398H1.5H-1.5H-3V50.2296H-1.5H1.5H3V49.2398ZM3 51.2194H1.5H-1.5H-3V52.2092H-1.5H1.5H3V51.2194ZM3 53.199H1.5H-1.5H-3V54.1888H-1.5H1.5H3V53.199ZM3 55.1786H1.5H-1.5H-3V56.1684H-1.5H1.5H3V55.1786ZM3 57.1582H1.5H-1.5H-3V58.148H-1.5H1.5H3V57.1582ZM3 59.1378H1.5H-1.5H-3V60.1275H-1.5H1.5H3V59.1378ZM3 61.1173H1.5H-1.5H-3V62.1071H-1.5H1.5H3V61.1173ZM3 63.0969H1.5H-1.5H-3V64.0867H-1.5H1.5H3V63.0969ZM3 65.0765H1.5H-1.5H-3V66.0663H-1.5H1.5H3V65.0765ZM3 67.0561H1.5H-1.5H-3V68.0459H-1.5H1.5H3V67.0561ZM3 69.0357H1.5H-1.5H-3V70.0255H-1.5H1.5H3V69.0357ZM3 71.0153H1.5H-1.5H-3V72.0051H-1.5H1.5H3V71.0153ZM3 72.9949H1.5H-1.5H-3V73.9847H-1.5H1.5H3V72.9949ZM3 74.9745H1.5H-1.5H-3V75.9643H-1.5H1.5H3V74.9745ZM3 76.9541H1.5H-1.5H-3V77.9439H-1.5H1.5H3V76.9541ZM3 78.9337H1.5H-1.5H-3V79.9235H-1.5H1.5H3V78.9337ZM3 80.9133H1.5H-1.5H-3V81.9031H-1.5H1.5H3V80.9133ZM3 82.8928H1.5H-1.5H-3V83.8826H-1.5H1.5H3V82.8928ZM3 84.8724H1.5H-1.5H-3V85.8622H-1.5H1.5H3V84.8724ZM3 86.852H1.5H-1.5H-3V87.8418H-1.5H1.5H3V86.852ZM3 88.8316H1.5H-1.5H-3V89.8214H-1.5H1.5H3V88.8316ZM3 90.8112H1.5H-1.5H-3V91.801H-1.5H1.5H3V90.8112ZM3 92.7908H1.5H-1.5H-3V93.7806H-1.5H1.5H3V92.7908ZM3 94.7704H1.5H-1.5H-3V95.7602H-1.5H1.5H3V94.7704ZM3 96.75H1.5H-1.5H-3V97.7398H-1.5H1.5H3V96.75ZM3 98.7296H1.5H-1.5H-3V99.7194H-1.5H1.5H3V98.7296ZM3 100.709H1.5H-1.5H-3V101.699H-1.5H1.5H3V100.709ZM3 102.689H1.5H-1.5H-3V103.679H-1.5H1.5H3V102.689ZM3 104.668H1.5H-1.5H-3V105.658H-1.5H1.5H3V104.668ZM3 106.648H1.5H-1.5H-3V107.638H-1.5H1.5H3V106.648ZM3 108.628H1.5H-1.5H-3V109.617H-1.5H1.5H3V108.628ZM3 110.607H1.5H-1.5H-3V111.597H-1.5H1.5H3V110.607ZM3 112.587H1.5H-1.5H-3V113.577H-1.5H1.5H3V112.587ZM3 114.566H1.5H-1.5H-3V115.556H-1.5H1.5H3V114.566ZM3 116.546H1.5H-1.5H-3V117.536H-1.5H1.5H3V116.546ZM3 118.526H1.5H-1.5H-3V119.515H-1.5H1.5H3V118.526ZM3 120.505H1.5H-1.5H-3V121C-3 121.184 -2.9969 121.367 -2.99073 121.549C-2.98985 121.575 -2.9889 121.601 -2.9879 121.627L-1.48902 121.569L1.50874 121.453L3.00762 121.395C3.00256 121.264 3 121.133 3 121V120.505ZM-1.40085 122.703L1.57877 122.354L3.06858 122.18C3.09926 122.442 3.14001 122.7 3.19041 122.955L1.71892 123.246L-1.22404 123.828L-2.69552 124.119C-2.77637 123.711 -2.84161 123.297 -2.89066 122.878L-1.40085 122.703ZM-0.958843 124.937L1.92892 124.124L3.3728 123.717C3.44387 123.97 3.52463 124.218 3.61466 124.462L2.20743 124.981L-0.607022 126.02L-2.01425 126.539C-2.15884 126.148 -2.28856 125.749 -2.40272 125.343L-0.958843 124.937ZM-0.170483 127.073L2.55314 125.815L3.91496 125.186C4.02485 125.424 4.14388 125.657 4.27164 125.885L2.96356 126.619L0.347409 128.087L-0.960668 128.821C-1.16525 128.457 -1.35603 128.083 -1.5323 127.702L-0.170483 127.073ZM0.943195 129.057L3.4361 127.389L4.68255 126.554C4.82849 126.772 4.98283 126.984 5.14512 127.19L3.96776 128.119L1.61303 129.978L0.435666 130.907C0.176582 130.579 -0.0699716 130.24 -0.303258 129.892L0.943195 129.057ZM2.35248 130.843L4.55496 128.806L5.6562 127.787C5.83432 127.98 6.01992 128.166 6.21251 128.344L5.19405 129.445L3.15712 131.648L2.13866 132.749C1.83143 132.465 1.53538 132.169 1.25124 131.861L2.35248 130.843ZM4.02211 132.387L5.88094 130.032L6.81036 128.855C7.01594 129.017 7.22797 129.172 7.44595 129.317L6.61147 130.564L4.94251 133.057L4.10803 134.303C3.75958 134.07 3.42089 133.823 3.09269 133.564L4.02211 132.387ZM5.91273 133.653L7.38097 131.036L8.1151 129.728C8.34274 129.856 8.57577 129.975 8.81374 130.085L8.18488 131.447L6.92716 134.17L6.2983 135.532C5.9166 135.356 5.54313 135.165 5.17861 134.961L5.91273 133.653ZM7.97989 134.607L9.01856 131.793L9.5379 130.385C9.78186 130.475 10.0303 130.556 10.2827 130.627L9.87628 132.071L9.06336 134.959L8.6569 136.403C8.25136 136.289 7.85234 136.159 7.46056 136.014L7.97989 134.607ZM10.1718 135.224L10.754 132.281L11.0451 130.81C11.2998 130.86 11.5583 130.901 11.8201 130.931L11.6456 132.421L11.2965 135.401L11.122 136.891C10.7033 136.842 10.2893 136.776 9.88068 136.696L10.1718 135.224ZM12.4309 135.489L12.5468 132.491L12.6048 130.992C12.7357 130.997 12.8675 131 13 131M13.5 132.5V135.5V137H13C12.7902 137 12.5811 136.996 12.373 136.988L12.4309 135.489M14.5 137H15.5V135.5V132.5V131H14.5V132.5V135.5V137ZM13.5 132.5V131V132.5ZM13 131H13.5H13ZM16.5 131V132.5V135.5V137H17.5V135.5V132.5V131H16.5ZM18.5 131V132.5V135.5V137H19.5V135.5V132.5V131H18.5ZM20.5 131V132.5V135.5V137H21.5V135.5V132.5V131H20.5ZM22.5 131V132.5V135.5V137H23.5V135.5V132.5V131H22.5ZM24.5 131V132.5V135.5V137H25.5V135.5V132.5V131H24.5ZM26.5 131V132.5V135.5V137H27.5V135.5V132.5V131H26.5ZM28.5 131V132.5V135.5V137H29.5V135.5V132.5V131H28.5ZM30.5 131V132.5V135.5V137H31.5V135.5V132.5V131H30.5ZM32.5 131V132.5V135.5V137H33.5V135.5V132.5V131H32.5ZM34.5 131V132.5V135.5V137H35.5V135.5V132.5V131H34.5ZM36.5 131V132.5V135.5V137H37.5V135.5V132.5V131H36.5ZM38.5 131V132.5V135.5V137H39.5V135.5V132.5V131H38.5ZM40.5 131V132.5V135.5V137H41.5V135.5V132.5V131H40.5ZM42.5 131V132.5V135.5V137H43.5V135.5V132.5V131H42.5ZM44.5 131V132.5V135.5V137H45.5V135.5V132.5V131H44.5ZM46.5 131V132.5V135.5V137H47.5V135.5V132.5V131H46.5ZM48.5 131V132.5V135.5V137H49.5V135.5V132.5V131H48.5ZM50.5 131V132.5V135.5V137H51.5V135.5V132.5V131H50.5ZM52.5 131V132.5V135.5V137H53.5V135.5V132.5V131H52.5ZM54.5 131V132.5V135.5V137H55.5V135.5V132.5V131H54.5ZM56.5 131V132.5V135.5V137H57.5V135.5V132.5V131H56.5ZM58.5 131V132.5V135.5V137H59.5V135.5V132.5V131H58.5ZM60.5 131V132.5V135.5V137H61.5V135.5V132.5V131H60.5ZM62.5 131V132.5V135.5V137H63.5V135.5V132.5V131H62.5ZM64.5 131V132.5V135.5V137H65.5V135.5V132.5V131H64.5ZM66.5 131V132.5V135.5V137H67.5V135.5V132.5V131H66.5ZM68.5 131V132.5V135.5V137H69.5V135.5V132.5V131H68.5ZM70.5 131V132.5V135.5V137H71.5V135.5V132.5V131H70.5ZM72.5 131V132.5V135.5V137H73.5V135.5V132.5V131H72.5ZM74.5 131V132.5V135.5V137H75.5V135.5V132.5V131H74.5ZM76.5 131V132.5V135.5V137H77.5V135.5V132.5V131H76.5ZM78.5 131V132.5V135.5V137H79.5V135.5V132.5V131H78.5ZM80.5 131V132.5V135.5V137H81.5V135.5V132.5V131H80.5ZM82.5 131V132.5V135.5V137H83.5V135.5V132.5V131H82.5ZM84.5 131V132.5V135.5V137H85.5V135.5V132.5V131H84.5ZM86.5 131V132.5V135.5V137H87.5V135.5V132.5V131H86.5ZM88.5 131V132.5V135.5V137H89.5V135.5V132.5V131H88.5ZM90.5 131V132.5V135.5V137H91.5V135.5V132.5V131H90.5ZM92.5 131V132.5V135.5V137H93.5V135.5V132.5V131H92.5ZM94.5 131V132.5V135.5V137H95.5V135.5V132.5V131H94.5ZM96.5 131V132.5V135.5V137H97.5V135.5V132.5V131H96.5ZM98.5 131V132.5V135.5V137H99.5V135.5V132.5V131H98.5ZM100.5 131V132.5V135.5V137H101.5V135.5V132.5V131H100.5ZM102.5 131V132.5V135.5V137H103.5V135.5V132.5V131H102.5ZM104.5 131V132.5V135.5V137H105.5V135.5V132.5V131H104.5ZM106.5 131V132.5V135.5V137H107.5V135.5V132.5V131H106.5ZM108.5 131V132.5V135.5V137H109.5V135.5V132.5V131H108.5ZM110.5 131V132.5V135.5V137H111.5V135.5V132.5V131H110.5ZM112.5 131V132.5V135.5V137H113.5V135.5V132.5V131H112.5ZM114.5 131V132.5V135.5V137H115.5V135.5V132.5V131H114.5ZM116.5 131V132.5V135.5V137H117.5V135.5V132.5V131H116.5ZM118.5 131V132.5V135.5V137H119.5V135.5V132.5V131H118.5ZM120.5 131V132.5V135.5V137H121.5V135.5V132.5V131H120.5ZM122.5 131V132.5V135.5V137H123.5V135.5V132.5V131H122.5ZM124.5 131V132.5V135.5V137H125.5V135.5V132.5V131H124.5ZM126.5 131V132.5V135.5V137H127.5V135.5V132.5V131H126.5ZM128.5 131V132.5V135.5V137H129.5V135.5V132.5V131H128.5ZM130.5 131V132.5V135.5V137H131.5V135.5V132.5V131H130.5ZM132.5 131V132.5V135.5V137H133.5V135.5V132.5V131H132.5ZM134.5 131V132.5V135.5V137H135.5V135.5V132.5V131H134.5ZM136.5 131V132.5V135.5V137H137.5V135.5V132.5V131H136.5ZM138.5 131V132.5V135.5V137H139.5V135.5V132.5V131H138.5ZM140.5 131V132.5V135.5V137H141.5V135.5V132.5V131H140.5ZM142.5 131V132.5V135.5V137H143.5V135.5V132.5V131H142.5ZM144.5 131V132.5V135.5V137H145.5V135.5V132.5V131H144.5ZM146.5 131V132.5V135.5V137H147.5V135.5V132.5V131H146.5ZM148.5 131V132.5V135.5V137H149.5V135.5V132.5V131H148.5ZM150.5 131V132.5V135.5V137H151.5V135.5V132.5V131H150.5ZM152.5 131V132.5V135.5V137H153.5V135.5V132.5V131H152.5ZM154.5 131V132.5V135.5V137H155.5V135.5V132.5V131H154.5ZM156.5 131V132.5V135.5V137H157.5V135.5V132.5V131H156.5ZM158.5 131V132.5V135.5V137H159.5V135.5V132.5V131H158.5ZM160.5 131V132.5V135.5V137H161.5V135.5V132.5V131H160.5ZM162.5 131V132.5V135.5V137H163.5V135.5V132.5V131H162.5ZM164.5 131V132.5V135.5V137H165.5V135.5V132.5V131H164.5ZM166.5 131V132.5V135.5V137H167.5V135.5V132.5V131H166.5ZM168.5 131V132.5V135.5V137H169.5V135.5V132.5V131H168.5ZM170.5 131V132.5V135.5V137H171.5V135.5V132.5V131H170.5ZM172.5 131V132.5V135.5V137H173.5V135.5V132.5V131H172.5ZM174.5 131V132.5V135.5V137H175.5V135.5V132.5V131H174.5ZM176.5 131V132.5V135.5V137H177.5V135.5V132.5V131H176.5ZM178.5 131V132.5V135.5V137H179.5V135.5V132.5V131H178.5ZM180.5 131V132.5V135.5V137H181.5V135.5V132.5V131H180.5ZM182.5 131V132.5V135.5V137H183.5V135.5V132.5V131H182.5ZM184.5 131V132.5V135.5V137H185.5V135.5V132.5V131H184.5ZM186.5 131V132.5V135.5V137H187.5V135.5V132.5V131H186.5ZM188.5 131V132.5V135.5V137H189.5V135.5V132.5V131H188.5ZM190.5 131V132.5V135.5V137H191.5V135.5V132.5V131H190.5ZM192.5 131V132.5V135.5V137H193.5V135.5V132.5V131H192.5ZM194.5 131V132.5V135.5V137H195.5V135.5V132.5V131H194.5ZM196.5 131V132.5V135.5V137H197.5V135.5V132.5V131H196.5ZM198.5 131V132.5V135.5V137H199.5V135.5V132.5V131H198.5ZM200.5 131V132.5V135.5V137H201.5V135.5V132.5V131H200.5ZM202.5 131V132.5V135.5V137H203.5V135.5V132.5V131H202.5ZM204.5 131V132.5V135.5V137H205.5V135.5V132.5V131H204.5ZM206.5 131V132.5V135.5V137H207.5V135.5V132.5V131H206.5ZM208.5 131V132.5V135.5V137H209.5V135.5V132.5V131H208.5ZM210.5 131V132.5V135.5V137H211.5V135.5V132.5V131H210.5ZM212.5 131V132.5V135.5V137H213.5V135.5V132.5V131H212.5ZM214.5 131V132.5V135.5V137H215.5V135.5V132.5V131H214.5ZM216.5 131V132.5V135.5V137H217.5V135.5V132.5V131H216.5ZM218.5 131V132.5V135.5V137H219.5V135.5V132.5V131H218.5ZM220.5 131V132.5V135.5V137H221.5V135.5V132.5V131H220.5ZM222.5 131V132.5V135.5V137H223.5V135.5V132.5V131H222.5ZM224.5 131V132.5V135.5V137H225.5V135.5V132.5V131H224.5ZM226.5 131V132.5V135.5V137H227.5V135.5V132.5V131H226.5ZM228.5 131V132.5V135.5V137H229.5V135.5V132.5V131H228.5ZM230.5 131V132.5V135.5V137H231.5V135.5V132.5V131H230.5ZM232.5 131V132.5V135.5V137H233.5V135.5V132.5V131H232.5ZM234.5 131V132.5V135.5V137H235.5V135.5V132.5V131H234.5ZM236.5 131V132.5V135.5V137H237.5V135.5V132.5V131H236.5ZM238.5 131V132.5V135.5V137H239C239.21 137 239.419 136.996 239.627 136.988L239.569 135.489L239.453 132.491L239.395 130.992C239.264 130.997 239.133 131 239 131H238.5ZM240.703 135.401L240.354 132.421L240.18 130.931C240.442 130.901 240.7 130.86 240.955 130.81L241.246 132.281L241.828 135.224L242.119 136.696C241.711 136.776 241.297 136.842 240.878 136.891L240.703 135.401ZM242.937 134.959L242.124 132.071L241.717 130.627C241.97 130.556 242.218 130.475 242.462 130.385L242.981 131.793L244.02 134.607L244.539 136.014C244.148 136.159 243.749 136.289 243.343 136.403L242.937 134.959ZM245.073 134.17L243.815 131.447L243.186 130.085C243.424 129.975 243.657 129.856 243.885 129.728L244.619 131.036L246.087 133.653L246.821 134.961C246.457 135.165 246.083 135.356 245.702 135.532L245.073 134.17ZM247.057 133.057L245.389 130.564L244.554 129.317C244.772 129.172 244.984 129.017 245.19 128.855L246.119 130.032L247.978 132.387L248.907 133.564C248.579 133.823 248.24 134.07 247.892 134.303L247.057 133.057ZM247.445 128.806L249.648 130.843L250.749 131.861C250.465 132.169 250.169 132.465 249.861 132.749L248.843 131.648L246.806 129.445L245.787 128.344C245.98 128.166 246.166 127.98 246.344 127.787L247.445 128.806ZM250.387 129.978L248.032 128.119L246.855 127.19C247.017 126.984 247.172 126.772 247.317 126.554L248.564 127.389L251.057 129.057L252.303 129.892C252.07 130.24 251.823 130.579 251.564 130.907L250.387 129.978ZM251.653 128.087L249.036 126.619L247.728 125.885C247.856 125.657 247.975 125.424 248.085 125.186L249.447 125.815L252.17 127.073L253.532 127.702C253.356 128.083 253.165 128.457 252.961 128.821L251.653 128.087ZM252.607 126.02L249.793 124.981L248.385 124.462C248.475 124.218 248.556 123.97 248.627 123.717L250.071 124.124L252.959 124.937L254.403 125.343C254.289 125.749 254.159 126.148 254.014 126.539L252.607 126.02ZM253.224 123.828L250.281 123.246L248.81 122.955C248.86 122.7 248.901 122.442 248.931 122.18L250.421 122.354L253.401 122.703L254.891 122.878C254.842 123.297 254.776 123.711 254.696 124.119L253.224 123.828ZM253.489 121.569L250.491 121.453L248.992 121.395C248.997 121.264 249 121.133 249 121V120.5H250.5H253.5H255V121C255 121.21 254.996 121.419 254.988 121.627L253.489 121.569ZM255 119.5V118.5H253.5H250.5H249V119.5H250.5H253.5H255ZM249 117.5H250.5H253.5H255V116.5H253.5H250.5H249V117.5ZM249 115.5H250.5H253.5H255V114.5H253.5H250.5H249V115.5ZM249 113.5H250.5H253.5H255V112.5H253.5H250.5H249V113.5ZM249 111.5H250.5H253.5H255V110.5H253.5H250.5H249V111.5ZM249 109.5H250.5H253.5H255V108.5H253.5H250.5H249V109.5ZM249 107.5H250.5H253.5H255V106.5H253.5H250.5H249V107.5ZM249 105.5H250.5H253.5H255V104.5H253.5H250.5H249V105.5ZM249 103.5H250.5H253.5H255V102.5H253.5H250.5H249V103.5ZM249 101.5H250.5H253.5H255V100.5H253.5H250.5H249V101.5ZM249 99.5H250.5H253.5H255V98.5H253.5H250.5H249V99.5ZM249 97.5H250.5H253.5H255V96.5H253.5H250.5H249V97.5ZM249 95.5H250.5H253.5H255V94.5H253.5H250.5H249V95.5ZM249 93.5H250.5H253.5H255V92.5H253.5H250.5H249V93.5ZM249 91.5H250.5H253.5H255V90.5H253.5H250.5H249V91.5ZM249 89.5H250.5H253.5H255V88.5H253.5H250.5H249V89.5ZM249 87.5H250.5H253.5H255V86.5H253.5H250.5H249V87.5ZM249 85.5H250.5H253.5H255V84.5H253.5H250.5H249V85.5ZM249 83.5H250.5H253.5H255V82.5H253.5H250.5H249V83.5ZM249 81.5H250.5H253.5H255V80.5H253.5H250.5H249V81.5ZM249 79.5H250.5H253.5H255V78.5H253.5H250.5H249V79.5ZM249 77.5H250.5H253.5H255V76.5H253.5H250.5H249V77.5ZM249 75.5H250.5H253.5H255V74.5H253.5H250.5H249V75.5ZM249 73.5H250.5H253.5H255V72.5H253.5H250.5H249V73.5ZM249 71.5H250.5H253.5H255V70.5H253.5H250.5H249V71.5ZM249 69.5H250.5H253.5H255V68.5H253.5H250.5H249V69.5ZM249 67.5H250.5H253.5H255V66.5H253.5H250.5H249V67.5ZM249 65.5H250.5H253.5H255V64.5H253.5H250.5H249V65.5ZM249 63.5H250.5H253.5H255V62.5H253.5H250.5H249V63.5ZM249 61.5H250.5H253.5H255V60.5H253.5H250.5H249V61.5ZM249 59.5H250.5H253.5H255V58.5H253.5H250.5H249V59.5ZM249 57.5H250.5H253.5H255V56.5H253.5H250.5H249V57.5ZM249 55.5H250.5H253.5H255V54.5H253.5H250.5H249V55.5ZM249 53.5H250.5H253.5H255V52.5H253.5H250.5H249V53.5ZM249 51.5H250.5H253.5H255V50.5H253.5H250.5H249V51.5ZM249 49.5H250.5H253.5H255V48.5H253.5H250.5H249V49.5ZM249 47.5H250.5H253.5H255V46.5H253.5H250.5H249V47.5ZM249 45.5H250.5H253.5H255V44.5H253.5H250.5H249V45.5ZM249 43.5H250.5H253.5H255V42.5H253.5H250.5H249V43.5ZM249 41.5H250.5H253.5H255V40.5H253.5H250.5H249V41.5ZM249 39.5H250.5H253.5H255V38.5H253.5H250.5H249V39.5ZM249 37.5H250.5H253.5H255V36.5H253.5H250.5H249V37.5ZM249 35.5H250.5H253.5H255V34.5H253.5H250.5H249V35.5ZM249 33.5H250.5H253.5H255V32.5H253.5H250.5H249V33.5ZM249 31.5H250.5H253.5H255V30.5H253.5H250.5H249V31.5ZM249 29.5H250.5H253.5H255V28.5H253.5H250.5H249V29.5ZM249 27.5H250.5H253.5H255V26.5H253.5H250.5H249V27.5ZM249 25.5H250.5H253.5H255V24.5H253.5H250.5H249V25.5ZM249 23.5H250.5H253.5H255V22.5H253.5H250.5H249V23.5ZM249 21.5H250.5H253.5H255V20.5H253.5H250.5H249V21.5ZM249 19.5H250.5H253.5H255V18.5H253.5H250.5H249V19.5ZM249 17.5H250.5H253.5H255V16.5H253.5H250.5H249V17.5ZM249 15.5H250.5H253.5H255V14.5H253.5H250.5H249V15.5ZM249 13.5H250.5H253.5H255V12.5H253.5H250.5H249V13.5ZM249 11.5H250.5H253.5H255V11H253.5H252H250.5H249V11.5Z" fill="#157B6C" mask="url(#path-1-inside-1_1148_69273)"/>
<path d="M273.061 13.0607C273.646 12.4749 273.646 11.5251 273.061 10.9393L263.515 1.3934C262.929 0.807611 261.979 0.807611 261.393 1.3934C260.808 1.97919 260.808 2.92893 261.393 3.51472L269.879 12L261.393 20.4853C260.808 21.0711 260.808 22.0208 261.393 22.6066C261.979 23.1924 262.929 23.1924 263.515 22.6066L273.061 13.0607ZM250 13.5H250.5V10.5H250V13.5ZM251.5 13.5H252.5V10.5H251.5V13.5ZM253.5 13.5H254.5V10.5H253.5V13.5ZM255.5 13.5H256.5V10.5H255.5V13.5ZM257.5 13.5H258.5V10.5H257.5V13.5ZM259.5 13.5H260.5V10.5H259.5V13.5ZM261.5 13.5H262.5V10.5H261.5V13.5ZM263.5 13.5H264.5V10.5H263.5V13.5ZM265.5 13.5H266.5V10.5H265.5V13.5ZM267.5 13.5H268.5V10.5H267.5V13.5ZM269.5 13.5H270.5V10.5H269.5V13.5ZM271.5 13.5H272V10.5H271.5V13.5ZM273.061 13.0607C273.646 12.4749 273.646 11.5251 273.061 10.9393L263.515 1.3934C262.929 0.807611 261.979 0.807611 261.393 1.3934C260.808 1.97919 260.808 2.92893 261.393 3.51472L269.879 12L261.393 20.4853C260.808 21.0711 260.808 22.0208 261.393 22.6066C261.979 23.1924 262.929 23.1924 263.515 22.6066L273.061 13.0607ZM250 13.5H250.5V10.5H250V13.5ZM251.5 13.5H252.5V10.5H251.5V13.5ZM253.5 13.5H254.5V10.5H253.5V13.5ZM255.5 13.5H256.5V10.5H255.5V13.5ZM257.5 13.5H258.5V10.5H257.5V13.5ZM259.5 13.5H260.5V10.5H259.5V13.5ZM261.5 13.5H262.5V10.5H261.5V13.5ZM263.5 13.5H264.5V10.5H263.5V13.5ZM265.5 13.5H266.5V10.5H265.5V13.5ZM267.5 13.5H268.5V10.5H267.5V13.5ZM269.5 13.5H270.5V10.5H269.5V13.5ZM271.5 13.5H272V10.5H271.5V13.5Z" fill="#157B6C"/>
</svg>
