<svg width="65" height="60" viewBox="0 0 65 60" fill="none" xmlns="http://www.w3.org/2000/svg">
<g clip-path="url(#clip0_1402_1418)">
<path fill-rule="evenodd" clip-rule="evenodd" d="M32.5106 12.7087C38.4086 16.42 43.7406 18.1785 48.311 17.7585C49.1097 33.7953 43.1429 43.2651 32.5688 47.2441C22.3596 43.5696 16.3188 34.4829 16.7684 17.5433C22.1375 17.8215 27.406 16.6719 32.5106 12.7349V12.7087ZM39.9902 9.92652V12.2257C40.6038 12.4882 41.2122 12.7244 41.8152 12.9449V10.8452H43.9311C44.1457 11.4325 44.5621 11.9259 45.107 12.2388C45.6519 12.5516 46.2905 12.6639 46.9106 12.5557C47.5306 12.4476 48.0924 12.1261 48.4972 11.6476C48.902 11.1691 49.1239 10.5644 49.1239 9.93964C49.1239 9.3149 48.902 8.71015 48.4972 8.23169C48.0924 7.75323 47.5306 7.43168 46.9106 7.32356C46.2905 7.21544 45.6519 7.32766 45.107 7.64051C44.5621 7.95336 44.1457 8.44681 43.9311 9.03413H40.9001C40.7804 9.03343 40.6618 9.05631 40.5511 9.10144C40.4404 9.14657 40.3398 9.21305 40.2552 9.29703C40.1705 9.38101 40.1035 9.48082 40.0581 9.59068C40.0126 9.70053 39.9895 9.81826 39.9902 9.93702V9.92652ZM3.30131e-06 19.1496C-0.000468002 18.6708 0.12951 18.2007 0.376182 17.7892C0.622855 17.3776 0.977048 17.0399 1.40128 16.8117C1.82551 16.5836 2.30401 16.4735 2.78613 16.4931C3.26825 16.5127 3.73607 16.6612 4.14008 16.9231C4.5441 17.1849 4.86927 17.5502 5.0812 17.9804C5.29314 18.4106 5.38394 18.8896 5.34401 19.3668C5.30408 19.844 5.1349 20.3016 4.85437 20.6912C4.57385 21.0809 4.1924 21.388 3.75041 21.5801V26.8871H13.4517C13.5575 27.5013 13.6686 28.105 13.7903 28.6982H2.84058C2.60339 28.6996 2.37512 28.6085 2.20494 28.4446C2.03476 28.2806 1.93629 28.0569 1.93075 27.8215V21.7008C1.37345 21.5412 0.883639 21.206 0.535316 20.7457C0.186994 20.2855 -0.000908295 19.7252 3.30131e-06 19.1496ZM7.35799 17.3858C7.36562 16.731 7.61719 16.1022 8.06423 15.6206C8.51127 15.1389 9.12214 14.8385 9.77912 14.7772C10.4361 14.7159 11.0927 14.8981 11.6223 15.2886C12.152 15.6792 12.5173 16.2505 12.6477 16.8924C12.6477 17.2021 12.6477 17.5118 12.6477 17.8215C12.5668 18.2894 12.3621 18.7274 12.0544 19.0909C11.7467 19.4543 11.3472 19.73 10.8968 19.8898V21.9895H12.8381C12.8857 22.6037 12.9439 23.2074 13.0074 23.8005H10.0029C9.76155 23.8005 9.53013 23.7054 9.3595 23.5361C9.18888 23.3668 9.09302 23.1371 9.09302 22.8976V19.8688C8.58127 19.6827 8.13993 19.3444 7.82936 18.8999C7.5188 18.4555 7.35417 17.9267 7.35799 17.3858ZM0.042321 33.853C0.0440367 33.2298 0.266521 32.627 0.670847 32.1502C1.07517 31.6733 1.6356 31.3527 2.25406 31.2445C2.87252 31.1362 3.50965 31.2473 4.05396 31.5581C4.59827 31.869 5.0151 32.3599 5.23153 32.9449H14.8958C15.0916 33.5643 15.3031 34.168 15.52 34.7559H5.23153C5.01527 35.3405 4.59887 35.8312 4.05511 36.1421C3.51134 36.453 2.87478 36.5644 2.25665 36.4568C1.63851 36.3493 1.07811 36.0296 0.673368 35.5537C0.268621 35.0777 0.0452633 34.4758 0.042321 33.853ZM5.81869 44.9029C5.81858 44.3643 5.98345 43.8385 6.29143 43.395C6.5994 42.9516 7.03593 42.6115 7.54313 42.42V38.9291C7.54313 38.8097 7.56701 38.6914 7.61339 38.5812C7.65977 38.4709 7.72774 38.3709 7.81335 38.287C7.89896 38.203 8.00051 38.1367 8.11212 38.0919C8.22373 38.0472 8.34318 38.0249 8.46354 38.0263H16.9535C17.2656 38.6509 17.5989 39.2546 17.948 39.8425H9.36808V42.3937C9.83287 42.5528 10.2445 42.8359 10.5579 43.2118C10.8712 43.5878 11.0741 44.0422 11.1444 44.5251C11.2147 45.008 11.1495 45.5007 10.9562 45.9493C10.7628 46.3979 10.4487 46.785 10.0483 47.0681C9.64781 47.3511 9.17654 47.5193 8.68614 47.5541C8.19574 47.5889 7.70515 47.489 7.26821 47.2653C6.83126 47.0416 6.46484 46.7028 6.20915 46.2861C5.95345 45.8694 5.81836 45.3908 5.81869 44.9029ZM44.6452 60C45.1276 60.001 45.6013 59.8726 46.0162 59.6284C46.4311 59.3842 46.7718 59.0332 47.0022 58.6126C47.2327 58.1921 47.3443 57.7175 47.3253 57.2391C47.3063 56.7608 47.1573 56.2964 46.8942 55.8952C46.6311 55.4939 46.2636 55.1707 45.8306 54.9597C45.3976 54.7486 44.9152 54.6577 44.4343 54.6964C43.9535 54.7351 43.4922 54.902 43.0991 55.1796C42.706 55.4571 42.3958 55.8349 42.2013 56.273H36.8534V49.7218C36.261 50.0473 35.6527 50.357 35.0285 50.6509V57.1811C35.0285 57.4206 35.1243 57.6502 35.295 57.8195C35.4656 57.9889 35.697 58.084 35.9383 58.084H42.0797C42.2402 58.6362 42.5772 59.1216 43.04 59.4672C43.5027 59.8128 44.0661 59.9998 44.6452 60ZM46.4278 52.6982C46.9191 52.6988 47.401 52.5652 47.8209 52.3121C48.2407 52.0591 48.5823 51.6962 48.8081 51.2633C49.034 50.8303 49.1355 50.3441 49.1014 49.8578C49.0673 49.3714 48.899 48.9038 48.615 48.5061C48.3309 48.1083 47.942 47.7959 47.4909 47.6029C47.0398 47.4099 46.5439 47.3438 46.0574 47.4119C45.571 47.48 45.1128 47.6796 44.7331 47.9889C44.3534 48.2982 44.0668 48.7052 43.9046 49.1654H41.7887V46.2887C41.1998 46.7962 40.5915 47.2791 39.9638 47.7375V50.0735C39.9631 50.1923 39.9861 50.31 40.0316 50.4198C40.0771 50.5297 40.1441 50.6295 40.2287 50.7135C40.3133 50.7975 40.4139 50.8639 40.5246 50.9091C40.6353 50.9542 40.7539 50.9771 40.8736 50.9764H43.9046C44.0921 51.4842 44.4331 51.9222 44.8809 52.2304C45.3288 52.5386 45.8617 52.702 46.4067 52.6982H46.4278ZM29.834 59.9528C30.4633 59.9547 31.0731 59.736 31.5559 59.3353C32.0387 58.9347 32.3634 58.3777 32.4728 57.7627C32.5822 57.1477 32.4693 56.5141 32.1539 55.9736C31.8386 55.4331 31.3411 55.0205 30.7491 54.8084V50.9554C30.1514 50.6877 29.5166 50.3937 28.9242 50.0945V54.8189C28.3326 55.0308 27.8354 55.443 27.52 55.9829C27.2047 56.5229 27.0913 57.1559 27.2001 57.7706C27.3088 58.3853 27.6325 58.9422 28.1143 59.3433C28.5961 59.7444 29.2051 59.9639 29.834 59.9633V59.9528ZM18.7256 54.2257C19.2663 54.2189 19.7922 54.0498 20.2341 53.7406C20.676 53.4313 21.0131 52.9965 21.2012 52.4934H24.7188C24.9602 52.4907 25.1908 52.394 25.361 52.2241C25.5312 52.0542 25.6273 51.8248 25.6287 51.5853V48.126C24.9992 47.6903 24.3909 47.2441 23.8037 46.7192V50.6877H21.2276C21.0673 50.2264 20.7821 49.8179 20.4032 49.507C20.0243 49.196 19.5665 48.9946 19.0799 48.9249C18.5933 48.8552 18.0967 48.9198 17.6447 49.1117C17.1926 49.3036 16.8026 49.6153 16.5173 50.0127C16.2321 50.4101 16.0626 50.8778 16.0275 51.3644C15.9925 51.8511 16.0932 52.3379 16.3186 52.7715C16.544 53.2051 16.8854 53.5688 17.3053 53.8225C17.7252 54.0762 18.2075 54.2103 18.6991 54.21L18.7256 54.2257ZM65.0265 19.1496C65.0269 18.6708 64.8969 18.2007 64.6503 17.7892C64.4036 17.3776 64.0494 17.0399 63.6252 16.8117C63.2009 16.5836 62.7224 16.4735 62.2403 16.4931C61.7582 16.5127 61.2904 16.6612 60.8864 16.9231C60.4824 17.1849 60.1572 17.5502 59.9452 17.9804C59.7333 18.4106 59.6425 18.8896 59.6824 19.3668C59.7224 19.844 59.8915 20.3016 60.1721 20.6912C60.4526 21.0809 60.834 21.388 61.276 21.5801V26.8871H51.8392C51.744 27.5013 51.6329 28.105 51.5112 28.6982H62.1859C62.4185 28.6928 62.64 28.5988 62.8046 28.4355C62.9691 28.2722 63.0639 28.0524 63.0693 27.8215V21.7008C63.6265 21.5412 64.1164 21.206 64.4647 20.7457C64.813 20.2855 65.0009 19.7252 65 19.1496H65.0265ZM57.6579 17.3858C57.6608 16.7596 57.4402 16.1525 57.0352 15.6723C56.6303 15.192 56.067 14.8695 55.4453 14.762C54.8236 14.6544 54.1837 14.7688 53.6388 15.0848C53.094 15.4007 52.6794 15.8979 52.4687 16.4882C52.273 17.087 52.273 17.7319 52.4687 18.3307C52.6038 18.6909 52.8155 19.0179 53.0893 19.2896C53.3631 19.5614 53.6927 19.7714 54.0556 19.9055V22.0053H52.3682C52.3258 22.6194 52.2782 23.2231 52.2201 23.8163H55.013C55.2543 23.8163 55.4857 23.7212 55.6564 23.5518C55.827 23.3825 55.9229 23.1529 55.9229 22.9134V19.8688C56.4346 19.6827 56.8759 19.3444 57.1865 18.8999C57.4971 18.4555 57.6617 17.9267 57.6579 17.3858ZM64.9577 33.853C64.9527 33.2323 64.7288 32.6329 64.3248 32.159C63.9209 31.685 63.3625 31.3664 62.7465 31.2585C62.1305 31.1506 61.4959 31.2602 60.9528 31.5683C60.4098 31.8763 59.9926 32.3634 59.7738 32.9449H50.3845C50.1835 33.5643 49.9719 34.168 49.7445 34.7559H59.7738C59.99 35.3405 60.4064 35.8312 60.9502 36.1421C61.494 36.453 62.1305 36.5644 62.7486 36.4568C63.3668 36.3493 63.9272 36.0296 64.3319 35.5537C64.7367 35.0777 64.96 34.4758 64.963 33.853H64.9577ZM59.1813 44.9029C59.1814 44.3643 59.0166 43.8385 58.7086 43.395C58.4006 42.9516 57.9641 42.6115 57.4569 42.42V38.9291C57.4569 38.8101 57.4332 38.6923 57.3871 38.5824C57.3411 38.4725 57.2736 38.3727 57.1885 38.2888C57.1035 38.2049 57.0025 38.1385 56.8915 38.0935C56.7806 38.0484 56.6617 38.0256 56.5417 38.0263H48.2845C47.9618 38.6509 47.618 39.2546 47.2636 39.8425H55.6319V42.3937C55.1671 42.5528 54.7555 42.8359 54.4422 43.2118C54.1288 43.5878 53.9259 44.0422 53.8556 44.5251C53.7853 45.008 53.8505 45.5007 54.0438 45.9493C54.2372 46.3979 54.5513 46.785 54.9518 47.0681C55.3522 47.3511 55.8235 47.5193 56.3139 47.5541C56.8043 47.5889 57.2949 47.489 57.7318 47.2653C58.1687 47.0416 58.5352 46.7028 58.7909 46.2861C59.0466 45.8694 59.1816 45.3908 59.1813 44.9029ZM44.6452 1.15717e-05C45.1279 -0.00140231 45.6021 0.126774 46.0174 0.370966C46.4327 0.615158 46.7738 0.966274 47.0044 1.38713C47.2351 1.80798 47.3467 2.2829 47.3276 2.76159C47.3084 3.24028 47.1591 3.70491 46.8956 4.10628C46.632 4.50766 46.264 4.83082 45.8305 5.04156C45.3969 5.25229 44.914 5.34274 44.4329 5.30333C43.9518 5.26393 43.4904 5.09613 43.0975 4.81771C42.7047 4.53929 42.395 4.16062 42.2013 3.7218H36.8534V10.7507C36.2504 10.4357 35.6421 10.1102 35.0285 9.76379V2.81891C35.0278 2.70015 35.0508 2.58242 35.0963 2.47257C35.1418 2.36271 35.2088 2.2629 35.2934 2.17892C35.378 2.09494 35.4786 2.02846 35.5893 1.98333C35.7 1.9382 35.8186 1.91533 35.9383 1.91602H42.0797C42.2402 1.36384 42.5772 0.878397 43.04 0.532818C43.5027 0.187239 44.0661 0.00024618 44.6452 1.15717e-05ZM29.834 0.0420063C30.462 0.0437089 31.0694 0.264495 31.5499 0.665736C32.0305 1.06698 32.3535 1.62312 32.4626 2.23687C32.5717 2.85061 32.4598 3.48287 32.1465 4.02303C31.8333 4.56318 31.3386 4.97683 30.7491 5.19161V9.50657C30.139 9.91602 29.5307 10.294 28.9242 10.6404V5.19161C28.335 4.977 27.8406 4.56378 27.5273 4.02417C27.214 3.48455 27.1018 2.85285 27.2102 2.23943C27.3185 1.62602 27.6407 1.0699 28.1203 0.668237C28.5999 0.26658 29.2064 0.0449262 29.834 0.0420063ZM18.6991 5.77429C19.2418 5.77418 19.7717 5.93779 20.2186 6.24342C20.6654 6.54904 21.0081 6.98225 21.2012 7.48558H24.7188C24.9611 7.48834 25.1925 7.58579 25.3628 7.75678C25.5332 7.92778 25.6287 8.15852 25.6287 8.39896V12.2572C25.0203 12.5092 24.412 12.7349 23.7984 12.9344V9.2966H21.2276C21.0673 9.75783 20.7821 10.1663 20.4032 10.4773C20.0243 10.7882 19.5665 10.9896 19.0799 11.0594C18.5933 11.1291 18.0967 11.0645 17.6447 10.8726C17.1926 10.6807 16.8026 10.369 16.5173 9.97158C16.2321 9.57419 16.0626 9.10652 16.0275 8.61986C15.9925 8.1332 16.0932 7.64636 16.3186 7.21275C16.544 6.77914 16.8854 6.41551 17.3053 6.16177C17.7252 5.90802 18.2075 5.77396 18.6991 5.77429ZM26.6337 26.315H27.2209V25.2389C27.2183 23.8018 27.7755 22.4194 28.776 21.3806C29.2596 20.8669 29.8443 20.4573 30.494 20.1772C31.1438 19.8972 31.8445 19.7527 32.5529 19.7527C33.2613 19.7527 33.962 19.8972 34.6118 20.1772C35.2615 20.4573 35.8462 20.8669 36.3298 21.3806C37.3303 22.4194 37.8875 23.8018 37.8849 25.2389V26.315H38.4721C38.7031 26.3163 38.9243 26.408 39.0877 26.5702C39.2511 26.7323 39.3435 26.9518 39.3449 27.1811V36.3045C39.3435 36.5333 39.2509 36.7522 39.0874 36.9135C38.9239 37.0748 38.7027 37.1654 38.4721 37.1654H26.6443C26.4137 37.1654 26.1925 37.0748 26.029 36.9135C25.8655 36.7522 25.7729 36.5333 25.7715 36.3045V27.1811C25.7729 26.9518 25.8653 26.7323 26.0287 26.5702C26.192 26.408 26.4132 26.3163 26.6443 26.315H26.6337ZM31.8388 32.1417L30.9025 34.5827H34.2033L33.3252 32.1102C33.6704 31.9348 33.9454 31.6485 34.1053 31.2979C34.2653 30.9473 34.3007 30.5533 34.2058 30.1802C34.1109 29.8071 33.8913 29.4769 33.5828 29.2437C33.2744 29.0104 32.8954 28.8878 32.5077 28.896C32.12 28.9042 31.7466 29.0425 31.4484 29.2886C31.1502 29.5346 30.9449 29.8737 30.866 30.2505C30.7871 30.6272 30.8393 31.0194 31.0141 31.3629C31.1889 31.7065 31.4759 31.981 31.8282 32.1417H31.8388ZM28.8818 26.315H36.2451V25.2389C36.2496 24.2237 35.8593 23.2459 35.1554 22.5092C34.8238 22.1563 34.4226 21.8749 33.9767 21.6825C33.5308 21.4901 33.0497 21.3908 32.5635 21.3908C32.0772 21.3908 31.5962 21.4901 31.1503 21.6825C30.7044 21.8749 30.3031 22.1563 29.9715 22.5092C29.2677 23.2459 28.8773 24.2237 28.8818 25.2389V26.315Z" fill="white"/>
</g>
<defs>
<clipPath id="clip0_1402_1418">
<rect width="65" height="60" fill="white"/>
</clipPath>
</defs>
</svg>
