<svg width="29" height="29" viewBox="0 0 29 29" fill="none" xmlns="http://www.w3.org/2000/svg">
<rect width="29" height="29" rx="4" fill="#C9C7F0" fill-opacity="0.23"/>
<g clip-path="url(#clip0_1380_1398)">
<path d="M15.9679 7.14274C16.975 7.34196 17.9089 7.74316 18.7265 8.30208C19.2923 7.95207 20.0449 8.02262 20.5361 8.51375C21.0299 9.00765 21.0991 9.76717 20.7408 10.3358C21.2914 11.1589 21.6829 12.0969 21.8725 13.1055C22.5199 13.259 23.0014 13.8401 23.0014 14.5346C23.0014 15.2332 22.513 15.8184 21.8586 15.9665C21.6594 16.9736 21.2582 17.9075 20.6993 18.7251C21.0493 19.2909 20.9788 20.0435 20.4876 20.5347C19.9937 21.0286 19.2342 21.0977 18.6656 20.7394C17.8424 21.29 16.9045 21.6816 15.8959 21.8711C15.7423 22.5186 15.1613 23 14.4668 23C13.7681 23 13.1829 22.5116 13.0349 21.8573C12.0278 21.658 11.0939 21.2568 10.2763 20.6979C9.71045 21.0479 8.95784 20.976 8.46672 20.4862C7.97282 19.9924 7.90365 19.2328 8.26196 18.6642C7.71134 17.8411 7.31982 16.9031 7.13029 15.8945C6.48145 15.7396 6 15.1585 6 14.4654C6 13.7668 6.48836 13.1816 7.14274 13.0335C7.34196 12.0264 7.74316 11.0925 8.30208 10.2749C7.95207 9.70907 8.02401 8.95646 8.51375 8.46533C9.00765 7.97144 9.76717 7.90226 10.3358 8.26058C11.1589 7.70996 12.0969 7.31844 13.1055 7.12891C13.259 6.48145 13.8415 6 14.5346 6C15.2346 6 15.8198 6.48836 15.9679 7.14274ZM20.0062 10.9307C19.4846 11.123 18.8759 11.0109 18.4581 10.5917C18.0361 10.1698 17.9241 9.55412 18.1247 9.02979C17.4509 8.58293 16.6886 8.25643 15.871 8.08211C15.6386 8.58708 15.1281 8.93848 14.536 8.93848C13.9383 8.93848 13.4237 8.58154 13.1954 8.06966C12.375 8.23568 11.6099 8.55387 10.932 8.99382C11.1243 9.51538 11.0123 10.1241 10.5931 10.5419C10.1711 10.9639 9.5555 11.0759 9.03117 10.8753C8.58431 11.5491 8.25781 12.3114 8.0835 13.129C8.58846 13.3614 8.93986 13.8719 8.93986 14.464C8.93986 15.0617 8.58293 15.5763 8.07104 15.8046C8.23706 16.625 8.55526 17.3901 8.99658 18.068C9.51815 17.8757 10.1269 17.9877 10.5447 18.4069C10.9666 18.8289 11.0787 19.4445 10.8781 19.9688C11.5518 20.4157 12.3141 20.7422 13.1318 20.9165C13.3642 20.4115 13.8747 20.0601 14.4668 20.0601C15.0645 20.0601 15.5791 20.4171 15.8074 20.929C16.6278 20.7629 17.3928 20.4447 18.0707 20.0034C17.8784 19.4819 17.9905 18.8731 18.4097 18.4553C18.8316 18.0334 19.4473 17.9213 19.9716 18.1219C20.4185 17.4482 20.745 16.6859 20.9193 15.8682C20.4143 15.6358 20.0629 15.1253 20.0629 14.5332C20.0629 13.9355 20.4198 13.4209 20.9317 13.1926C20.7657 12.3736 20.4475 11.6086 20.0062 10.9307ZM17.7345 12.8232L17.7511 16.4341C17.7525 16.6084 17.6432 16.7578 17.4869 16.8201V16.8215L14.5955 17.9905C14.5429 18.0112 14.4875 18.0223 14.4308 18.0223C14.4253 18.0223 14.4184 18.0209 14.4128 18.0223C14.3879 18.0251 14.363 18.0292 14.3381 18.0292C14.2828 18.0292 14.2261 18.0181 14.1749 17.996L11.5103 16.8754V16.874C11.3568 16.809 11.2489 16.6554 11.2489 16.477L11.2641 12.9076C11.2627 12.873 11.2641 12.8371 11.271 12.8025C11.2724 12.7527 11.2821 12.7029 11.3014 12.6572C11.3457 12.5493 11.4329 12.4691 11.5352 12.4276L14.3174 11.3083C14.4308 11.2627 14.5526 11.2682 14.6563 11.3125L17.4329 12.3169C17.599 12.3764 17.7041 12.5258 17.711 12.6877C17.7262 12.7306 17.7345 12.7776 17.7345 12.8232ZM13.9743 17.2987L13.995 14.1168L11.7677 13.1539L11.7206 16.3483L13.9743 17.2987ZM17.2586 13.1539L14.7712 14.1168L14.7905 17.296L17.2738 16.3677L17.2586 13.1539Z" fill="#9F97EA"/>
</g>
<defs>
<clipPath id="clip0_1380_1398">
<rect width="17" height="17" fill="white" transform="translate(6 6)"/>
</clipPath>
</defs>
</svg>
