<svg width="55" height="55" viewBox="0 0 55 55" fill="none" xmlns="http://www.w3.org/2000/svg">
<g clip-path="url(#clip0_1647_2021)">
<path d="M28.7383 0.671884C29.6183 1.19658 30.1661 1.92315 30.4374 2.91392C30.5209 3.85126 30.5322 4.73136 30.0155 5.55064C29.9785 5.61617 29.9415 5.6817 29.9034 5.74922C29.5712 6.28223 29.1008 6.64678 28.5389 6.92173C28.3301 6.95654 28.1213 6.99134 27.9061 7.0272C27.9409 8.5238 27.9757 10.0204 28.0116 11.5624C28.29 11.2839 28.5685 11.0055 28.8553 10.7186C29.2606 10.9213 29.4675 11.0975 29.7782 11.4173C29.8625 11.5035 29.9468 11.5897 30.0336 11.6785C30.1291 11.7776 30.1291 11.7776 30.2264 11.8788C30.0593 12.2862 29.7983 12.542 29.4873 12.8494C29.4361 12.9003 29.3849 12.9512 29.3322 13.0037C29.1693 13.1653 29.0058 13.3263 28.8422 13.4872C28.7313 13.597 28.6205 13.7068 28.5097 13.8168C28.2387 14.0854 27.9671 14.3533 27.6952 14.6209C27.7534 14.6278 27.8117 14.6346 27.8717 14.6416C30.8819 15.0048 33.2271 15.9879 35.6053 17.8905C35.6401 16.6723 35.6749 15.4542 35.7108 14.1991C36.3025 14.1991 36.8942 14.1991 37.5038 14.1991C37.5386 14.6167 37.5734 15.0344 37.6092 15.4647C39.1232 13.9507 39.1232 13.9507 40.6678 12.4061C40.5634 12.0581 40.459 11.71 40.3514 11.3514C40.2147 10.2573 40.4447 9.38733 41.0502 8.47739C41.7182 7.65644 42.5472 7.36016 43.5789 7.2505C44.6309 7.21422 45.5151 7.54627 46.284 8.25987C47.008 9.02222 47.25 9.9241 47.2361 10.9559C47.1398 11.9112 46.6826 12.7616 45.9808 13.4076C45.13 14.0714 44.1499 14.2137 43.0936 14.0936C42.7456 13.9892 42.3975 13.8848 42.0389 13.7772C41.0296 14.7865 40.0203 15.7959 38.9803 16.8358C39.398 16.8706 39.8156 16.9054 40.246 16.9413C40.246 17.5329 40.246 18.1246 40.246 18.7342C38.4187 18.7864 38.4187 18.7864 36.5546 18.8397C36.7264 19.0485 36.8983 19.2574 37.0753 19.4725C38.7892 21.6255 39.5525 24.0343 39.8241 26.7499C40.6594 25.9145 41.4947 25.0792 42.3553 24.2186C42.7606 24.4213 42.9675 24.5975 43.2782 24.9173C43.3625 25.0035 43.4468 25.0897 43.5336 25.1785C43.5972 25.2446 43.6609 25.3107 43.7264 25.3788C43.539 25.8662 43.2982 26.0179 42.8827 26.4334C44.3793 26.4683 45.8759 26.5031 47.4178 26.5389C47.4526 26.3301 47.4874 26.1213 47.5233 25.9061C47.9679 25.0381 48.6069 24.4636 49.5054 24.0991C50.4165 23.8528 51.5079 23.8864 52.3633 24.2969C53.2434 24.8217 53.7907 25.5481 54.0624 26.5389C54.1677 27.7096 54.0992 28.7258 53.3505 29.6832C52.7525 30.3235 52.0086 30.7151 51.1335 30.7931C50.3108 30.8114 49.6084 30.7861 48.8944 30.3358C48.8289 30.2988 48.7633 30.2618 48.6958 30.2237C48.1628 29.8915 47.7983 29.4211 47.5233 28.8592C47.4885 28.6504 47.4537 28.4416 47.4178 28.2264C45.1729 28.2786 45.1729 28.2786 42.8827 28.3319C43.1611 28.6103 43.4396 28.8888 43.7264 29.1756C43.5238 29.5809 43.3475 29.7878 43.0277 30.0985C42.9415 30.1828 42.8553 30.2671 42.7665 30.3539C42.7004 30.4175 42.6344 30.4812 42.5663 30.5467C42.1588 30.3796 41.903 30.1186 41.5956 29.8076C41.5447 29.7564 41.4938 29.7052 41.4414 29.6525C41.2797 29.4896 41.1188 29.3261 40.9579 29.1625C40.8481 29.0516 40.7382 28.9408 40.6283 28.83C40.3597 28.559 40.0917 28.2874 39.8241 28.0155C39.8173 28.0737 39.8104 28.132 39.8034 28.192C39.4402 31.2022 38.4571 33.5474 36.5546 35.9256C37.7727 35.9604 38.9909 35.9952 40.246 36.0311C40.246 36.6228 40.246 37.2145 40.246 37.8241C39.8283 37.8589 39.4106 37.8937 38.9803 37.9295C39.3876 38.376 39.7999 38.817 40.2176 39.2537C40.3588 39.4028 40.4985 39.5533 40.6367 39.7052C41.3822 40.6037 41.3822 40.6037 42.4047 41.0133C42.7291 40.93 43.0024 40.814 43.3046 40.6717C44.2953 40.5358 45.2397 40.8573 46.0426 41.4318C46.7242 42.0312 47.1331 42.8801 47.2366 43.7765C47.2792 44.9141 46.8945 45.8115 46.1324 46.6439C45.4037 47.3523 44.4802 47.5697 43.4891 47.5564C42.5338 47.4601 41.6835 47.0029 41.0374 46.3011C40.3737 45.4503 40.2313 44.4702 40.3514 43.4139C40.5081 42.8918 40.5081 42.8918 40.6678 42.3592C39.6585 41.3499 38.6492 40.3406 37.6092 39.3006C37.5744 39.7183 37.5396 40.1359 37.5038 40.5663C36.9121 40.5663 36.3204 40.5663 35.7108 40.5663C35.676 39.3481 35.6412 38.1299 35.6053 36.8749C35.3965 37.0467 35.1877 37.2186 34.9725 37.3956C32.8088 39.1181 30.4144 39.8422 27.6952 40.1444C28.5305 40.9797 29.3658 41.815 30.2264 42.6756C30.0238 43.0809 29.8475 43.2878 29.5277 43.5985C29.4415 43.6828 29.3553 43.7671 29.2665 43.8539C29.2004 43.9175 29.1344 43.9812 29.0663 44.0467C28.5789 43.8593 28.4271 43.6185 28.0116 43.203C27.9768 44.6996 27.942 46.1962 27.9061 47.7381C28.1149 47.7729 28.3238 47.8077 28.5389 47.8436C29.407 48.2882 29.9815 48.9272 30.3459 49.8257C30.5923 50.7368 30.5587 51.8282 30.1482 52.6836C29.6235 53.5636 28.8969 54.1114 27.9061 54.3827C26.9726 54.4659 26.0817 54.4839 25.2694 53.9608C25.1949 53.9148 25.1204 53.8689 25.0436 53.8215C24.3153 53.3279 23.9197 52.6951 23.6874 51.8514C23.5826 50.6868 23.6735 49.7567 24.34 48.7665C24.9262 48.1932 25.4017 47.8743 26.2186 47.7381C26.1838 46.2415 26.149 44.7449 26.1131 43.203C25.8347 43.4814 25.5563 43.7599 25.2694 44.0467C24.8641 43.8441 24.6572 43.6678 24.3465 43.348C24.2201 43.2187 24.2201 43.2187 24.0911 43.0868C24.0275 43.0207 23.9639 42.9546 23.8983 42.8866C24.0654 42.4791 24.3265 42.2233 24.6374 41.9159C24.6886 41.865 24.7398 41.8141 24.7926 41.7617C24.9554 41.6 25.119 41.4391 25.2826 41.2782C25.3935 41.1684 25.5043 41.0585 25.6151 40.9486C25.886 40.68 26.1576 40.412 26.4296 40.1444C26.3713 40.1376 26.313 40.1307 26.253 40.1237C23.2428 39.7605 20.8976 38.7774 18.5194 36.8749C18.4846 38.093 18.4498 39.3112 18.4139 40.5663C17.8223 40.5663 17.2306 40.5663 16.621 40.5663C16.5862 40.1486 16.5514 39.7309 16.5155 39.3006C15.5062 40.31 14.4968 41.3193 13.4569 42.3592C13.6135 42.8813 13.6135 42.8813 13.7733 43.4139C13.9101 44.508 13.6801 45.378 13.0746 46.2879C12.548 46.9465 11.7503 47.3799 10.9256 47.5272C9.92184 47.6209 8.98179 47.4276 8.18346 46.7889C7.4406 46.1636 6.98935 45.4029 6.89271 44.4253C6.8628 43.3565 7.1596 42.4503 7.84646 41.6222C8.60062 40.9311 9.53774 40.655 10.5379 40.6423C10.8202 40.6717 10.8202 40.6717 11.0913 40.7966C11.4558 40.9571 11.6858 41.0152 12.0858 40.9881C12.724 40.6283 13.2072 40.014 13.6942 39.4786C13.8354 39.3295 13.977 39.1807 14.119 39.0322C14.4652 38.6686 14.806 38.3005 15.1444 37.9295C14.7267 37.8947 14.3091 37.8599 13.8788 37.8241C13.8788 37.2324 13.8788 36.6407 13.8788 36.0311C15.0969 35.9963 16.3151 35.9615 17.5702 35.9256C17.3091 35.6059 17.3091 35.6059 17.0428 35.2796C15.339 33.1299 14.5712 30.7209 14.3006 28.0155C13.4653 28.8508 12.63 29.6861 11.7694 30.5467C11.3641 30.3441 11.1572 30.1678 10.8465 29.848C10.7623 29.7618 10.678 29.6756 10.5911 29.5868C10.5275 29.5207 10.4639 29.4546 10.3983 29.3866C10.5858 28.8992 10.8265 28.7474 11.2421 28.3319C9.74545 28.2971 8.24885 28.2623 6.7069 28.2264C6.67209 28.4352 6.63729 28.6441 6.60143 28.8592C6.15684 29.7272 5.51802 30.3014 4.61977 30.6662C3.75098 30.9008 2.65046 30.9051 1.85039 30.4685C1.78242 30.4247 1.71444 30.3809 1.6444 30.3358C1.5699 30.2898 1.49539 30.2439 1.41863 30.1965C0.690279 29.7029 0.294699 29.0701 0.0623682 28.2264C-0.0429439 27.0557 0.0255098 26.0396 0.774282 25.0821C1.37099 24.4432 2.11418 24.0508 2.98748 23.9722C4.02683 23.949 4.79802 24.0676 5.67858 24.6603C6.25181 25.2465 6.57075 25.722 6.7069 26.5389C8.2035 26.5041 9.7001 26.4693 11.2421 26.4334C10.9636 26.155 10.6852 25.8766 10.3983 25.5897C10.601 25.1844 10.7772 24.9775 11.097 24.6668C11.1832 24.5826 11.2694 24.4983 11.3582 24.4114C11.4243 24.3478 11.4904 24.2842 11.5585 24.2186C11.9659 24.3857 12.2217 24.6468 12.5291 24.9577C12.58 25.0089 12.6309 25.0601 12.6834 25.1129C12.845 25.2757 13.006 25.4393 13.1669 25.6029C13.2767 25.7138 13.3865 25.8246 13.4964 25.9354C13.7651 26.2063 14.033 26.4779 14.3006 26.7499C14.3075 26.6916 14.3143 26.6333 14.3213 26.5733C14.6845 23.5631 15.6676 21.2179 17.5702 18.8397C16.352 18.8049 15.1339 18.7701 13.8788 18.7342C13.8788 18.1426 13.8788 17.5509 13.8788 16.9413C14.2964 16.9065 14.7141 16.8717 15.1444 16.8358C13.6304 15.3218 13.6304 15.3218 12.0858 13.7772C11.5637 13.9338 11.5637 13.9338 11.0311 14.0936C9.937 14.2304 9.06703 14.0004 8.15709 13.3949C7.49968 12.8692 7.06237 12.0698 6.91784 11.2459C6.82395 10.3115 6.96643 9.46801 7.50615 8.6838C8.18043 7.87436 8.89255 7.41037 9.94347 7.2645C10.9931 7.1811 11.8908 7.42191 12.7186 8.08189C13.5766 8.94151 13.8062 9.79295 13.8153 10.9819C13.7733 11.3514 13.7733 11.3514 13.4569 12.4061C14.4662 13.4154 15.4756 14.4248 16.5155 15.4647C16.5503 15.047 16.5851 14.6294 16.621 14.1991C17.2126 14.1991 17.8043 14.1991 18.4139 14.1991C18.4487 15.4172 18.4835 16.6354 18.5194 17.8905C18.7326 17.7165 18.9458 17.5424 19.1654 17.3631C21.3257 15.6509 23.7209 14.9219 26.4296 14.6209C25.5942 13.7856 24.7589 12.9503 23.8983 12.0897C24.101 11.6844 24.2772 11.4775 24.597 11.1668C24.6832 11.0826 24.7694 10.9983 24.8582 10.9114C24.9243 10.8478 24.9904 10.7842 25.0585 10.7186C25.5459 10.9061 25.6976 11.1468 26.1131 11.5624C26.148 10.0658 26.1828 8.56915 26.2186 7.0272C25.9054 6.97499 25.9054 6.97499 25.5858 6.92173C24.7178 6.47712 24.1433 5.83818 23.7788 4.93966C23.5325 4.02851 23.5661 2.93716 23.9766 2.0817C24.947 0.45438 27.0176 -0.153851 28.7383 0.671884ZM25.6517 2.87437C25.4193 3.35717 25.3963 3.75825 25.4803 4.28501C25.726 4.79533 26.0247 5.09399 26.535 5.3397C27.0618 5.42378 27.4629 5.40077 27.9457 5.16831C28.3237 4.82631 28.6017 4.5524 28.6848 4.03205C28.7118 3.43259 28.6377 3.05637 28.2225 2.59751C27.7637 2.18236 27.3874 2.10826 26.788 2.13526C26.2676 2.21832 25.9937 2.49636 25.6517 2.87437ZM8.98766 9.72324C8.69456 10.1629 8.67556 10.5152 8.71081 11.035C8.91049 11.5897 9.19573 11.8566 9.66002 12.1952C10.1518 12.3591 10.5552 12.3581 11.0443 12.182C11.4596 11.9111 11.7558 11.5895 11.9803 11.1405C12.0197 10.5494 12.0023 10.1715 11.6639 9.66392C11.2727 9.26839 10.935 9.05229 10.3719 8.99815C9.76219 9.04896 9.39977 9.2786 8.98766 9.72324ZM42.4806 9.66392C42.1377 10.1342 42.0662 10.5683 42.1444 11.1405C42.4342 11.6985 42.8069 12.0996 43.41 12.3006C43.9645 12.3425 44.3129 12.2896 44.7811 11.9842C45.2218 11.5729 45.401 11.2517 45.4337 10.6453C45.3912 10.1222 45.1927 9.73739 44.8017 9.38871C43.9831 8.82174 43.1456 8.89789 42.4806 9.66392ZM19.996 19.0506C19.9217 19.1075 19.8475 19.1643 19.771 19.2228C18.1577 20.5226 17.1347 22.4912 16.5155 24.4295C16.4615 24.5935 16.4615 24.5935 16.4063 24.7608C15.6695 27.4887 16.2514 30.4742 17.6097 32.9C18.7917 34.8271 20.5326 36.5101 22.6327 37.4022C22.7023 37.4022 22.7719 37.4022 22.8436 37.4022C23.2209 34.7157 23.2209 34.7157 22.4795 32.2353C21.9829 31.639 21.3838 31.1538 20.7483 30.7117C20.5233 30.5467 20.5233 30.5467 20.4178 30.3358C20.413 30.1749 20.4138 30.0138 20.4178 29.8529C20.4745 28.7952 20.4745 28.7952 20.1093 27.8523C19.866 27.7042 19.6263 27.5957 19.3631 27.4881C18.7357 26.8285 18.6821 26.2042 18.6978 25.3207C18.7595 24.6308 19.0093 24.2185 19.5148 23.7572C20.2231 23.1688 21.0113 23.1904 21.8944 23.2694C22.5489 23.4415 23.0056 23.8699 23.371 24.4295C23.7092 25.1107 23.7046 25.9667 23.5131 26.6951C23.207 27.3742 22.6554 27.8005 21.9999 28.1209C21.9007 28.7486 21.8556 29.2732 22.2157 29.8193C22.5157 30.1389 22.8263 30.4337 23.1534 30.7247C23.2646 30.8281 23.3755 30.9319 23.4861 31.036C23.6873 31.2253 23.8902 31.4118 24.0952 31.5972C24.3482 31.8392 24.4195 31.93 24.4423 32.2769C24.4448 32.4364 24.4448 32.4364 24.4473 32.5991C24.4505 32.7796 24.4505 32.7796 24.4537 32.9638C24.4554 33.0942 24.4572 33.2246 24.459 33.359C24.4612 33.4921 24.4634 33.6252 24.4657 33.7624C24.4714 34.1165 24.4767 34.4705 24.4818 34.8246C24.4871 35.1858 24.493 35.5471 24.4988 35.9083C24.5101 36.6172 24.5208 37.3261 24.5311 38.035C24.7134 38.0708 24.8958 38.1058 25.0782 38.1405C25.1798 38.1601 25.2814 38.1796 25.386 38.1998C25.67 38.2427 25.9322 38.2493 26.2186 38.2459C26.2408 36.6067 26.2575 34.9675 26.2678 33.3282C26.2727 32.567 26.2794 31.8059 26.2902 31.0448C26.2997 30.3812 26.3058 29.7178 26.3079 29.0542C26.3092 28.7029 26.3126 28.3518 26.319 28.0005C26.3259 27.608 26.3268 27.2159 26.3264 26.8233C26.3315 26.6492 26.3315 26.6492 26.3367 26.4716C26.3371 25.8649 26.3371 25.8649 26.0091 25.3826C25.7585 25.2104 25.7585 25.2104 25.4984 25.0783C25.016 24.8225 24.8034 24.4019 24.6366 23.9022C24.5516 23.0749 24.5209 22.2577 25.0585 21.5819C25.5279 21.0857 25.9751 20.774 26.6689 20.7027C27.5416 20.6931 28.1787 20.7194 28.8281 21.3339C29.4538 22.0194 29.537 22.6219 29.5207 23.5384C29.4587 24.2319 29.2087 24.642 28.6971 25.1019C28.4362 25.3142 28.2158 25.4348 27.9061 25.5897C27.9061 29.7663 27.9061 33.9428 27.9061 38.2459C28.7542 38.1704 28.7542 38.1704 29.5936 38.035C29.5931 37.9248 29.5931 37.9248 29.5927 37.8125C29.5903 37.1173 29.5915 36.4223 29.5966 35.7272C29.5991 35.3699 29.6003 35.0127 29.5983 34.6554C29.5967 34.2438 29.5999 33.8324 29.6039 33.4208C29.6024 33.2936 29.6009 33.1665 29.5994 33.0355C29.6121 32.2891 29.705 31.8701 30.2488 31.3435C30.311 31.2894 30.3732 31.2353 30.4374 31.1795C30.5161 31.104 30.5949 31.0284 30.6761 30.9506C30.7763 30.8643 30.7763 30.8643 30.8786 30.7762C31.8814 29.931 31.8814 29.931 32.2897 28.7406C32.24 28.3646 32.188 28.1853 31.9218 27.9141C31.6788 27.7473 31.6788 27.7473 31.4142 27.6138C30.9261 27.3567 30.7115 26.9388 30.5428 26.4334C30.4578 25.6062 30.4272 24.789 30.9647 24.1131C31.4342 23.617 31.8813 23.3052 32.5752 23.234C33.4478 23.2243 34.0849 23.2506 34.7344 23.8651C35.36 24.5506 35.4432 25.1531 35.4269 26.0697C35.3649 26.7632 35.115 27.1733 34.6034 27.6332C34.3529 27.8369 34.1018 27.9794 33.8124 28.1209C33.813 28.1836 33.8137 28.2463 33.8144 28.3109C33.8153 28.5993 33.8106 28.8873 33.8058 29.1756C33.8069 29.2742 33.8081 29.3728 33.8093 29.4743C33.7928 30.1459 33.6597 30.5161 33.1855 30.9959C32.9744 31.1746 32.7604 31.3231 32.5274 31.4716C31.9619 31.8556 31.5499 32.2258 31.2811 32.867C31.0074 34.3348 31.1794 35.9223 31.2811 37.4022C33.6166 36.6492 35.6507 34.5969 36.7696 32.4454C38.0318 29.8788 38.413 26.8585 37.5038 24.1131C37.4631 23.9904 37.4225 23.8676 37.3806 23.7411C36.9165 22.454 36.2427 21.3842 35.3944 20.3163C35.3087 20.2041 35.3087 20.2041 35.2214 20.0897C33.5278 17.994 30.7769 16.8158 28.1657 16.4699C25.1353 16.1844 22.3364 17.1547 19.996 19.0506ZM26.4955 22.597C26.2727 22.9226 26.2595 23.0931 26.3241 23.4803C26.4823 23.744 26.4823 23.744 26.746 23.9022C27.1332 23.9667 27.3037 23.9536 27.6293 23.7308C27.852 23.4052 27.8652 23.2348 27.8006 22.8475C27.6424 22.5838 27.6424 22.5838 27.3788 22.4256C26.9915 22.3611 26.821 22.3743 26.4955 22.597ZM20.5892 25.1283C20.3665 25.4538 20.3533 25.6243 20.4178 26.0116C20.576 26.2752 20.576 26.2752 20.8397 26.4334C21.227 26.498 21.3974 26.4848 21.723 26.2621C21.9458 25.9365 21.9589 25.766 21.8944 25.3788C21.7362 25.1151 21.7362 25.1151 21.4725 24.9569C21.0853 24.8923 20.9148 24.9055 20.5892 25.1283ZM32.4017 25.1283C32.179 25.4538 32.1658 25.6243 32.2303 26.0116C32.3885 26.2752 32.3885 26.2752 32.6522 26.4334C33.0395 26.498 33.2099 26.4848 33.5355 26.2621C33.7583 25.9365 33.7714 25.766 33.7069 25.3788C33.5487 25.1151 33.5487 25.1151 33.285 24.9569C32.8978 24.8923 32.7273 24.9055 32.4017 25.1283ZM2.02672 26.4994C1.79426 26.9822 1.77126 27.3832 1.85534 27.91C2.10105 28.4203 2.3997 28.719 2.91002 28.9647C3.43679 29.0488 3.83786 29.0258 4.32067 28.7933C4.69868 28.4513 4.97672 28.1774 5.05977 27.6571C5.08678 27.0576 5.01268 26.6814 4.59752 26.2225C4.13867 25.8074 3.76245 25.7333 3.16298 25.7603C2.64264 25.8433 2.36873 26.1214 2.02672 26.4994ZM49.2767 26.4994C49.0443 26.9822 49.0213 27.3832 49.1053 27.91C49.351 28.4203 49.6497 28.719 50.16 28.9647C50.6868 29.0488 51.0879 29.0258 51.5707 28.7933C51.9487 28.4513 52.2267 28.1774 52.3098 27.6571C52.3368 27.0576 52.2627 26.6814 51.8475 26.2225C51.3887 25.8074 51.0124 25.7333 50.413 25.7603C49.8926 25.8433 49.6187 26.1214 49.2767 26.4994ZM9.04699 43.0975C8.7076 43.563 8.65481 43.8993 8.71081 44.4686C8.90601 44.9575 9.1757 45.317 9.63366 45.5826C10.1133 45.784 10.5385 45.7965 11.0311 45.6288C11.4154 45.3964 11.6888 45.1292 11.921 44.7455C12.0422 44.1801 12.0675 43.7928 11.8024 43.2821C11.5134 42.9385 11.2233 42.6663 10.8202 42.4647C10.0715 42.4148 9.56028 42.508 9.04699 43.0975ZM42.4278 43.1634C42.1214 43.5947 42.0919 43.9481 42.1444 44.4686C42.3257 44.9822 42.6123 45.3651 43.0936 45.6288C43.5956 45.7886 44.0147 45.7835 44.4977 45.5694C44.8936 45.3375 45.1098 45.1006 45.3085 44.6795C45.4296 44.2108 45.4532 43.8506 45.3019 43.3875C44.9941 42.9507 44.6657 42.6372 44.1483 42.4647C43.3612 42.4002 42.9658 42.5527 42.4278 43.1634ZM25.6517 50.1244C25.4193 50.6072 25.3963 51.0082 25.4803 51.535C25.726 52.0453 26.0247 52.344 26.535 52.5897C27.0618 52.6738 27.4629 52.6508 27.9457 52.4183C28.3237 52.0763 28.6017 51.8024 28.6848 51.282C28.7118 50.6826 28.6377 50.3064 28.2225 49.8475C27.7637 49.4324 27.3874 49.3583 26.788 49.3853C26.2676 49.4683 25.9937 49.7464 25.6517 50.1244Z" fill="white"/>
</g>
<defs>
<clipPath id="clip0_1647_2021">
<rect width="54" height="54" fill="white" transform="translate(0.0625 0.382324)"/>
</clipPath>
</defs>
</svg>
