<svg width="72" height="74" viewBox="0 0 72 74" fill="none" xmlns="http://www.w3.org/2000/svg">
<path d="M26.5312 47.0128C29.0834 49.5842 32.5295 51.0367 36.1275 51.0574V45.3087C35.0889 45.3182 34.059 45.1157 33.0992 44.7132C32.1394 44.3107 31.2693 43.7164 30.5407 42.9658L26.5312 47.0128ZM41.0618 24.5493L38.9625 29.8715C40.6215 30.55 42.0264 31.7429 42.9765 33.2797H49.0875C48.4764 31.3098 47.4386 29.5034 46.0499 27.9928C44.6612 26.4823 42.9569 25.3057 41.0618 24.5493Z" fill="#3F5364"/>
<path d="M22.5195 37.3244C22.5262 39.2306 22.9191 41.1151 23.6738 42.861L28.8488 40.5182C28.4182 39.5108 28.2035 38.4222 28.2188 37.3244C28.2388 35.2096 29.0777 33.1874 30.5546 31.6938C32.0315 30.2003 34.0281 29.3549 36.114 29.3401V23.5913C32.5176 23.5931 29.0683 25.0389 26.5207 27.6126C23.973 30.1862 22.5344 33.6781 22.5195 37.3244ZM38.9423 44.7773L41.0415 50.0994C42.9633 49.3445 44.6908 48.157 46.094 46.6265C47.4971 45.096 48.5391 43.2625 49.1415 41.2642H43.0373C42.1055 42.8728 40.6612 44.1118 38.9423 44.7773Z" fill="#F18B21"/>
<path d="M36.1048 51.6962C33.4712 51.685 30.8927 50.9302 28.6586 49.5163C26.4244 48.1025 24.6229 46.0856 23.4561 43.6917C22.2893 41.2979 21.8034 38.6218 22.0527 35.9636C22.3021 33.3054 23.277 30.7702 24.8679 28.6423C26.4589 26.5144 28.6031 24.8779 31.0601 23.9165C33.5171 22.9551 36.1897 22.7066 38.7781 23.199C41.3666 23.6915 43.7686 24.9053 45.7147 26.7044C47.6608 28.5035 49.0741 30.8167 49.796 33.3846H55.277C54.302 28.5952 51.609 24.343 47.7194 21.4511C43.8298 18.5592 39.0203 17.2333 34.2219 17.7302C29.4235 18.227 24.9777 20.5113 21.7449 24.1407C18.5122 27.77 16.7227 32.4864 16.7227 37.3768C16.7227 42.2671 18.5122 46.9835 21.7449 50.6129C24.9777 54.2423 29.4235 56.5265 34.2219 57.0233C39.0203 57.5202 43.8298 56.1943 47.7194 53.3024C51.609 50.4105 54.302 46.1583 55.277 41.3689H49.796C48.9296 44.3643 47.125 46.9922 44.6548 48.8554C42.1847 50.7186 39.1834 51.7158 36.1048 51.6962Z" fill="#3F5364"/>
<path d="M36.107 16.884V11.4546C30.9581 11.4435 25.9267 13.0142 21.6756 15.9597C17.4246 18.9051 14.1534 23.0872 12.293 27.9549L17.243 29.8712C18.7503 26.0452 21.3522 22.7639 24.7139 20.4494C28.0756 18.135 32.0435 16.8933 36.107 16.884ZM36.107 57.764V63.1934C42.1929 63.1993 48.0816 61.0052 52.7155 57.0051C57.3495 53.0051 60.4251 47.4611 61.3902 41.3687H55.9092C54.9964 46.006 52.5218 50.1774 48.9093 53.1684C45.2967 56.1594 40.771 57.784 36.107 57.764Z" fill="#3F5364"/>
<path d="M56.0124 33.3843H61.3877C60.6798 28.905 58.8287 24.6913 56.018 21.1617C53.2073 17.6321 49.5349 14.9093 45.3654 13.2637L43.4754 18.2665C46.638 19.5341 49.4399 21.5797 51.6285 24.2188C53.8171 26.8579 55.3237 30.0077 56.0124 33.3843ZM15.8814 37.324H10.5039C10.509 42.5103 12.0487 47.5757 14.924 51.8651C17.7992 56.1545 21.8777 59.4706 26.6319 61.3844L28.6277 56.3816C24.8729 54.8529 21.6539 52.2223 19.383 48.827C17.1122 45.4318 15.8929 41.4263 15.8814 37.324Z" fill="#F18B21"/>
<path d="M62.0204 33.3847H67.3956C66.7854 28.8171 65.2404 24.4292 62.8596 20.5024L58.3236 23.3768C60.2863 26.3865 61.5502 29.8082 62.0204 33.3847ZM4.5014 37.3449C4.45835 42.0925 5.41009 46.7952 7.29365 51.1419L12.5024 48.9702C10.839 45.3211 9.95861 41.3555 9.9194 37.3358" fill="#3F5364"/>
<path d="M36.1042 63.8325C32.6611 63.8375 29.251 63.1535 26.0691 61.8198C22.8873 60.4861 19.9963 58.5289 17.5619 56.0603L13.7617 59.8928C16.6824 62.8848 20.1634 65.2549 24.0002 66.8638C27.837 68.4727 31.9522 69.288 36.1042 69.2619C43.7979 69.256 51.2267 66.4116 57.0037 61.2596C62.7806 56.1076 66.511 49.0002 67.4984 41.2641H62.1232C61.1448 47.5498 57.9872 53.2757 53.2179 57.4124C48.4487 61.5492 42.3805 63.8256 36.1042 63.8325ZM36.1042 10.8162C41.7699 10.7817 47.2869 12.6535 51.7912 16.1384L55.0672 11.7744C49.6005 7.60906 42.9424 5.36636 36.1042 5.38686C29.7421 5.3856 23.5267 7.32374 18.2649 10.9496C13.0031 14.5755 8.93807 19.7216 6.59766 25.7196L11.6579 27.7431C13.5864 22.76 16.9494 18.4806 21.3094 15.4617C25.6693 12.4428 30.8245 10.8241 36.1042 10.8162Z" fill="#F18B21"/>
</svg>
