<svg width="228" height="76" viewBox="0 0 228 76" fill="none" xmlns="http://www.w3.org/2000/svg">
<path d="M77.3672 17H84.3319V59.9998H77.3672V17Z" fill="white"/>
<path d="M108.554 46.3733C108.554 53.0352 103.103 53.6408 101.286 53.6408C97.0469 53.6408 96.4413 49.7042 96.4413 47.5845V30.9297H89.4766V47.2817C89.4766 51.2183 90.6878 54.8521 93.1103 56.9718C95.2301 59.0915 97.9554 60 101.286 60C103.709 60 106.737 59.3943 108.554 57.5775V60H115.519V30.9297H108.554V46.3733Z" fill="white"/>
<path d="M129.152 20.3311H122.187V30.9296H117.039V37.5915H122.187V59.9999H129.152V37.5915H134.3V30.9296H129.152V20.3311Z" fill="white"/>
<path d="M156.099 51.218C154.585 52.4293 152.465 53.3377 150.346 53.3377C145.501 53.3377 142.17 49.7039 142.17 44.8589C142.17 40.0138 145.501 36.6829 150.346 36.6829C152.465 36.6829 154.585 37.2885 156.099 38.8026L157.008 39.711L161.853 35.1688L160.642 34.2603C157.916 31.8378 154.282 30.3237 150.346 30.3237C141.867 30.3237 135.508 36.6829 135.508 45.1617C135.508 53.6405 141.867 59.9996 150.346 59.9996C154.282 59.9996 157.916 58.4856 160.642 56.063L161.853 55.1546L157.008 50.3095L156.099 51.218Z" fill="white"/>
<path d="M186.377 33.352C184.257 31.2323 182.137 30.3239 178.806 30.3239C176.384 30.3239 173.961 30.9295 172.144 32.7464V17H165.18V59.9998H172.144V43.9506C172.144 37.2886 176.687 36.683 178.504 36.683C182.743 36.683 182.44 40.6196 182.44 42.7393V59.697H189.405V43.0421C189.405 39.1055 188.496 35.4717 186.377 33.352Z" fill="white"/>
<path d="M150.04 50.007C152.716 50.007 154.885 47.8378 154.885 45.1619C154.885 42.4861 152.716 40.3169 150.04 40.3169C147.365 40.3169 145.195 42.4861 145.195 45.1619C145.195 47.8378 147.365 50.007 150.04 50.007Z" fill="#EF4335"/>
<path d="M67.6759 49.4014C65.2534 51.8239 61.6196 53.338 57.683 53.338C50.1126 53.338 44.6619 47.2817 44.6619 39.1056C44.6619 30.9296 50.1126 24.8733 57.9858 24.8733C61.6196 24.8733 65.2534 26.3874 67.9787 29.1127L68.8872 30.0212L73.4294 25.4789L72.521 24.5705C68.5844 20.6339 63.4365 18.5142 57.9858 18.5142C46.4788 18.2114 38 27.2958 38 39.1056C38 50.9154 46.4788 59.9999 57.683 59.9999C63.1337 59.9999 68.5844 57.8802 72.2181 53.9436L73.1266 53.0352L68.5844 48.4929L67.6759 49.4014Z" fill="white"/>
</svg>
