<svg width="465" height="410" viewBox="0 0 465 410" fill="none" xmlns="http://www.w3.org/2000/svg">
<path d="M376.631 223.675C376.631 239.338 363.942 252.019 348.294 252.019C332.646 252.019 319.969 239.338 319.969 223.675C319.969 208.022 332.646 195.33 348.294 195.33C363.942 195.33 376.631 208.034 376.631 223.675Z" stroke="#FF879F" stroke-miterlimit="10"/>
<path d="M176.952 157.832C176.952 173.496 164.263 186.177 148.615 186.177C132.967 186.177 120.289 173.496 120.289 157.832C120.289 142.18 132.967 129.487 148.615 129.487C164.263 129.487 176.952 142.18 176.952 157.832Z" stroke="#4675CD" stroke-miterlimit="10"/>
<path d="M66.2687 253.135C55.6509 280.603 61.5687 299.614 67.7937 313.183C68.4424 288.014 72.9717 246.533 93.1035 209.718C92.6028 210.208 76.7045 226.088 66.2687 253.135Z" fill="#8DB566"/>
<path d="M67.793 313.183C95.6065 297.007 91.4527 242.389 93.1028 209.718C72.971 246.533 68.4416 288.014 67.793 313.183Z" fill="#A7D678"/>
<path d="M67.7956 313.194C67.4315 327.446 68.3077 336.474 68.3077 336.474" stroke="#213D8C" stroke-linecap="round" stroke-linejoin="round"/>
<path d="M93.1028 209.718C72.971 246.533 68.4416 288.014 67.793 313.183" stroke="#213D8C" stroke-linecap="round" stroke-linejoin="round"/>
<path d="M93.1149 209.707L93.1035 209.718M93.1035 209.718C92.6028 210.208 76.7045 226.088 66.2687 253.135C55.6509 280.604 61.5687 299.614 67.7937 313.183V313.195C95.6072 297.007 91.442 242.389 93.1035 209.718Z" stroke="#213D8C" stroke-linecap="round" stroke-linejoin="round"/>
<path d="M35.7017 272.385C52.9543 290.382 54.5248 307.161 54.0809 319.797C45.3636 300.343 28.3045 269.414 0.582031 247.227C1.12829 247.443 18.7336 254.66 35.7017 272.385Z" fill="#8DB566"/>
<path d="M54.0809 319.797C27.0868 316.234 12.52 272.214 0.582031 247.227C28.3159 269.414 45.375 300.343 54.0809 319.797Z" fill="#A7D678"/>
<path d="M54.082 319.809C59.0097 330.828 61.2744 338.159 61.2744 338.159" stroke="#213D8C" stroke-linecap="round" stroke-linejoin="round"/>
<path d="M0.582031 247.227C28.3159 269.425 45.375 300.343 54.0809 319.797" stroke="#213D8C" stroke-linecap="round" stroke-linejoin="round"/>
<path d="M0.570312 247.216C1.12795 247.443 18.7333 254.661 35.7014 272.385C52.9539 290.382 54.5244 307.161 54.0806 319.797V319.808C27.0865 316.234 12.531 272.214 0.570312 247.216Z" stroke="#213D8C" stroke-linecap="round" stroke-linejoin="round"/>
<path d="M85.535 271.394C72.4248 292.602 74.3936 309.336 77.4663 321.596C81.9274 300.753 92.1469 266.943 114.634 239.441C114.134 239.782 98.4289 250.517 85.535 271.394Z" fill="#8DB566"/>
<path d="M77.4688 321.596C103.131 312.466 108.173 266.374 114.637 239.441C92.1494 266.943 81.9298 300.753 77.4688 321.596Z" fill="#A7D678"/>
<path d="M77.4674 321.607C74.941 333.412 74.2695 341.061 74.2695 341.061" stroke="#213D8C" stroke-linecap="round" stroke-linejoin="round"/>
<path d="M114.625 239.452C92.1377 266.943 81.9181 300.764 77.457 321.607" stroke="#213D8C" stroke-linecap="round" stroke-linejoin="round"/>
<path d="M114.634 239.441C114.134 239.782 98.4289 250.517 85.535 271.394C72.4248 292.602 74.3936 309.336 77.4663 321.596V321.607C103.129 312.466 108.159 266.386 114.634 239.441Z" stroke="#213D8C" stroke-linecap="round" stroke-linejoin="round"/>
<path d="M15.4102 195.523C16.0133 195.978 35.3143 210.925 49.8925 239.315C67.7483 274.069 62.8889 293.148 59.6682 307.343C52.8173 256.026 36.9303 222.582 15.4102 195.523Z" fill="#8DB566"/>
<path d="M15.4102 195.523C36.9417 222.582 52.8173 256.026 59.6682 307.343C20.7134 285.703 29.7835 231.734 15.4102 195.523Z" fill="#A7D678"/>
<path d="M15.4102 195.523C36.9417 222.582 52.8173 256.026 59.6682 307.343C60.8973 316.575 61.8305 326.376 62.4564 336.827" stroke="#213D8C" stroke-linecap="round" stroke-linejoin="round"/>
<path d="M15.4102 195.523C16.0133 195.978 35.3143 210.925 49.8925 239.315C67.7483 274.069 62.8889 293.148 59.6682 307.343C20.7134 285.703 29.7835 231.734 15.4102 195.523Z" stroke="#213D8C" stroke-linecap="round" stroke-linejoin="round"/>
<path d="M15.4097 195.523L15.3984 195.512" stroke="#213D8C" stroke-linecap="round" stroke-linejoin="round"/>
<path d="M91.2156 320.548H42.3371L39.0938 325.933L52.2949 395.475H81.2579L94.459 325.933L91.2156 320.548Z" fill="white" stroke="#213D8C" stroke-linecap="round" stroke-linejoin="round"/>
<path d="M49.6633 371.103H45.3047V409.431H49.6633V371.103Z" fill="#F7CDBA" stroke="#213D8C" stroke-linecap="round" stroke-linejoin="round"/>
<path d="M88.2415 371.103H83.8828V409.431H88.2415V371.103Z" fill="#F7CDBA" stroke="#213D8C" stroke-linecap="round" stroke-linejoin="round"/>
<path d="M91.2842 368.393H42.2578V373.812H91.2842V368.393Z" fill="#F7CDBA" stroke="#213D8C" stroke-linecap="round" stroke-linejoin="round"/>
<path d="M39.0938 325.933H94.459" stroke="#213D8C" stroke-linecap="round" stroke-linejoin="round"/>
<path d="M416.066 253.135C405.448 280.603 411.366 299.614 417.591 313.183C418.239 288.014 422.769 246.533 442.9 209.718C442.4 210.208 426.501 226.088 416.066 253.135Z" fill="#8DB566"/>
<path d="M417.59 313.183C445.403 297.007 441.25 242.389 442.9 209.718C422.768 246.533 418.239 288.014 417.59 313.183Z" fill="#A7D678"/>
<path d="M417.592 313.194C417.228 327.446 418.105 336.474 418.105 336.474" stroke="#213D8C" stroke-linecap="round" stroke-linejoin="round"/>
<path d="M442.9 209.718C422.768 246.533 418.239 288.014 417.59 313.183" stroke="#213D8C" stroke-linecap="round" stroke-linejoin="round"/>
<path d="M442.912 209.707L442.9 209.718M442.9 209.718C442.4 210.208 426.501 226.088 416.066 253.135C405.448 280.604 411.366 299.614 417.591 313.183V313.195C445.404 297.007 441.239 242.389 442.9 209.718Z" stroke="#213D8C" stroke-linecap="round" stroke-linejoin="round"/>
<path d="M385.499 272.385C402.751 290.382 404.322 307.161 403.878 319.797C395.16 300.343 378.101 269.414 350.379 247.227C350.925 247.443 368.531 254.66 385.499 272.385Z" fill="#8DB566"/>
<path d="M403.878 319.797C376.884 316.234 362.317 272.214 350.379 247.227C378.113 269.414 395.172 300.343 403.878 319.797Z" fill="#A7D678"/>
<path d="M403.879 319.809C408.807 330.828 411.071 338.159 411.071 338.159" stroke="#213D8C" stroke-linecap="round" stroke-linejoin="round"/>
<path d="M350.379 247.227C378.113 269.425 395.172 300.343 403.878 319.797" stroke="#213D8C" stroke-linecap="round" stroke-linejoin="round"/>
<path d="M350.367 247.216C350.925 247.443 368.53 254.661 385.498 272.385C402.751 290.382 404.321 307.161 403.877 319.797V319.808C376.883 316.234 362.328 272.214 350.367 247.216Z" stroke="#213D8C" stroke-linecap="round" stroke-linejoin="round"/>
<path d="M435.332 271.394C422.222 292.602 424.191 309.336 427.263 321.596C431.724 300.753 441.944 266.943 464.431 239.441C463.931 239.782 448.237 250.517 435.332 271.394Z" fill="#8DB566"/>
<path d="M427.266 321.596C452.928 312.466 457.97 266.374 464.434 239.441C441.946 266.943 431.727 300.753 427.266 321.596Z" fill="#A7D678"/>
<path d="M427.264 321.607C424.738 333.412 424.066 341.061 424.066 341.061" stroke="#213D8C" stroke-linecap="round" stroke-linejoin="round"/>
<path d="M464.434 239.452C441.946 266.943 431.727 300.764 427.266 321.607" stroke="#213D8C" stroke-linecap="round" stroke-linejoin="round"/>
<path d="M464.431 239.441C463.931 239.782 448.226 250.517 435.332 271.394C422.222 292.602 424.191 309.336 427.263 321.596V321.607C452.926 312.466 457.967 266.386 464.431 239.441Z" stroke="#213D8C" stroke-linecap="round" stroke-linejoin="round"/>
<path d="M365.207 195.523C365.81 195.978 385.111 210.925 399.689 239.315C417.545 274.069 412.686 293.148 409.465 307.343C402.614 256.026 386.727 222.582 365.207 195.523Z" fill="#8DB566"/>
<path d="M365.207 195.523C386.739 222.582 402.614 256.026 409.465 307.343C370.51 285.703 379.58 231.734 365.207 195.523Z" fill="#A7D678"/>
<path d="M365.207 195.523C386.739 222.582 402.614 256.026 409.465 307.343C410.694 316.575 411.627 326.376 412.253 336.827" stroke="#213D8C" stroke-linecap="round" stroke-linejoin="round"/>
<path d="M365.207 195.523C365.81 195.978 385.111 210.925 399.689 239.315C417.545 274.069 412.686 293.148 409.465 307.343C370.51 285.703 379.58 231.734 365.207 195.523Z" stroke="#213D8C" stroke-linecap="round" stroke-linejoin="round"/>
<path d="M365.207 195.523L365.195 195.512" stroke="#213D8C" stroke-linecap="round" stroke-linejoin="round"/>
<path d="M441.012 320.548H392.134L388.891 325.933L402.092 395.475H431.055L444.256 325.933L441.012 320.548Z" fill="white" stroke="#213D8C" stroke-linecap="round" stroke-linejoin="round"/>
<path d="M399.46 371.103H395.102V409.431H399.46V371.103Z" fill="#F7CDBA" stroke="#213D8C" stroke-linecap="round" stroke-linejoin="round"/>
<path d="M438.038 371.103H433.68V409.431H438.038V371.103Z" fill="#F7CDBA" stroke="#213D8C" stroke-linecap="round" stroke-linejoin="round"/>
<path d="M441.089 368.393H392.062V373.812H441.089V368.393Z" fill="#F7CDBA" stroke="#213D8C" stroke-linecap="round" stroke-linejoin="round"/>
<path d="M388.891 325.933H444.256" stroke="#213D8C" stroke-linecap="round" stroke-linejoin="round"/>
<path d="M183.988 318.499H177.137V389.862H183.988V318.499Z" fill="#E1EDF7" stroke="#213D8C" stroke-linecap="round" stroke-linejoin="round"/>
<path d="M190.528 319.785C190.528 321.834 188.866 323.485 186.829 323.485H174.277C172.228 323.485 170.578 321.823 170.578 319.785V302.152C170.578 300.103 172.24 298.452 174.277 298.452H186.829C188.878 298.452 190.528 300.114 190.528 302.152V319.785Z" fill="#E1EDF7" stroke="#213D8C" stroke-linecap="round" stroke-linejoin="round"/>
<path d="M186.421 391.774C186.421 392.981 185.442 393.948 184.247 393.948H176.873C175.667 393.948 174.699 392.969 174.699 391.774V381.404C174.699 380.197 175.678 379.229 176.873 379.229H184.247C185.454 379.229 186.421 380.208 186.421 381.404V391.774Z" fill="#E1EDF7" stroke="#213D8C" stroke-linecap="round" stroke-linejoin="round"/>
<path d="M186.786 397.523L214.008 405.958L217.4 409.43H225.115L221.201 403.556L186.786 385.604H174.325L139.911 403.556L135.996 409.43H143.712L147.103 405.958L174.325 397.523H186.786Z" fill="#E1EDF7" stroke="#213D8C" stroke-linecap="round" stroke-linejoin="round"/>
<path d="M224.762 303.746C224.762 305.795 223.101 307.445 221.064 307.445H133.64C131.592 307.445 129.941 305.783 129.941 303.746V290.996C129.941 288.947 131.603 287.296 133.64 287.296H221.064C223.112 287.296 224.762 288.958 224.762 290.996V303.746Z" fill="#FFD373" stroke="#213D8C" stroke-linecap="round" stroke-linejoin="round"/>
<path d="M182.711 262.981C187.821 262.981 191.485 258.838 190.905 253.726L179.991 171.321C179.411 166.21 174.802 162.066 169.692 162.066H115.977C110.867 162.066 107.203 166.21 107.783 171.321L118.697 253.726C119.277 258.838 123.886 262.981 128.996 262.981H182.711Z" fill="#FFBB73" stroke="#213D8C" stroke-linecap="round" stroke-linejoin="round"/>
<path d="M135.768 253.726C136.348 258.838 132.684 262.981 127.574 262.981C122.464 262.981 117.855 258.838 117.275 253.726L106.361 171.321C105.781 166.21 109.445 162.066 114.555 162.066C119.665 162.066 124.274 166.21 124.854 171.321L135.768 253.726Z" fill="#FFD373" stroke="#213D8C" stroke-linecap="round" stroke-linejoin="round"/>
<path d="M194.435 167.257C197.189 170.376 211.779 197.002 212.188 197.629C212.598 198.243 205.508 206.576 197.383 208.534H191.727V167.269H194.435V167.257Z" fill="white" stroke="#213D8C" stroke-linecap="round" stroke-linejoin="round"/>
<path d="M170.411 157.832C170.411 157.832 151.792 164.719 146.079 168.578C140.378 172.437 139.137 173.974 139.911 179.381C140.685 184.777 147.616 227.659 147.775 232.292C147.934 236.925 141.914 259.908 141.914 259.908C141.914 259.908 177.535 263.608 201.445 254.66C201.445 254.66 196.972 231.677 196.972 226.429C196.972 221.181 201.285 210.23 201.445 200.828C201.604 191.413 198.201 182.398 197.132 178.004C196.05 173.61 196.665 169.978 194.821 167.667C192.966 165.357 177.785 157.855 177.785 157.855H170.411V157.832Z" fill="white" stroke="#213D8C" stroke-linecap="round" stroke-linejoin="round"/>
<path d="M184.203 141.804C184.203 141.804 181.972 154.326 182.166 161.93C182.166 161.93 176.578 169.124 166.848 162.545V136.317L184.203 141.804Z" fill="white"/>
<path d="M166.848 148.782C168.623 150.136 174.814 154.838 182.166 159.926C182.325 152.311 184.203 141.792 184.203 141.792L166.848 136.317V148.782Z" fill="#BADBF7"/>
<path d="M184.203 141.804C184.203 141.804 181.972 154.326 182.166 161.93C182.166 161.93 176.578 169.124 166.848 162.545V136.317L184.203 141.804Z" stroke="#213D8C" stroke-linecap="round" stroke-linejoin="round"/>
<path d="M265.949 342.108L271.309 352.854L263.149 358.956L257.004 347.368L265.949 342.108Z" fill="white" stroke="#213D8C" stroke-linecap="round" stroke-linejoin="round"/>
<path d="M296.114 348.872L265.801 366.679L267.132 368.947L297.445 351.14L296.114 348.872Z" fill="#E1EDF7" stroke="#213D8C" stroke-linecap="round" stroke-linejoin="round"/>
<path d="M286.31 348.893C286.31 348.893 285.263 347.367 283.659 347.459C282.054 347.55 272.278 347.732 271.004 347.743C269.729 347.743 268.841 347.242 268.147 347.868C267.442 348.494 267.1 351.363 269.831 351.739C272.563 352.114 286.083 350.953 286.083 350.953L286.31 348.893Z" fill="#BADBF7" stroke="#213D8C" stroke-linecap="round" stroke-linejoin="round"/>
<path d="M284.679 351.75C284.417 350.669 284.338 350.168 282.756 349.929C281.174 349.678 273.583 350.407 271.66 350.304C269.737 350.202 269.077 350.543 268.041 352.695C267.005 354.846 265.708 355.211 263.967 356.611C262.226 358.011 261.793 357.726 262.021 359.036C262.248 360.345 264.456 364.409 265.788 366.674L287.444 353.947L284.679 351.75Z" fill="white" stroke="#213D8C" stroke-linecap="round" stroke-linejoin="round"/>
<path d="M296.119 348.87C296.119 348.87 294.946 347.231 292.966 347.231C290.986 347.22 287.299 347.937 285.933 348.165C284.568 348.381 284.181 351.819 285.444 355.154L296.119 348.87Z" fill="white" stroke="#213D8C" stroke-linecap="round" stroke-linejoin="round"/>
<path d="M280.016 351.09C280.004 351.602 280.403 352.023 280.915 352.035C281.427 352.046 281.848 351.648 281.859 351.135L281.951 347.151C281.962 346.639 281.564 346.218 281.051 346.206C280.539 346.195 280.118 346.593 280.107 347.106L280.016 351.09Z" fill="white" stroke="#213D8C" stroke-linecap="round" stroke-linejoin="round"/>
<path d="M275.418 351.033C275.407 351.545 275.805 351.966 276.317 351.978C276.829 351.989 277.25 351.591 277.25 351.079L277.353 347.106C277.364 346.593 276.966 346.172 276.454 346.161C275.942 346.149 275.521 346.548 275.509 347.06L275.418 351.033Z" fill="white" stroke="#213D8C" stroke-linecap="round" stroke-linejoin="round"/>
<path d="M271.138 351.386C271.149 351.898 271.582 352.297 272.082 352.274C272.595 352.262 272.993 351.83 272.97 351.329L272.845 347.356C272.822 346.844 272.401 346.445 271.9 346.468C271.388 346.491 270.99 346.912 271.013 347.424L271.138 351.386Z" fill="white" stroke="#213D8C" stroke-linecap="round" stroke-linejoin="round"/>
<path d="M202.957 132.424C204.995 134.336 205.882 134.586 205.45 135.964C205.029 137.341 202.992 138.263 202.468 138.445C201.933 138.628 201.33 139.208 202.343 140.54C202.184 141.041 201.478 141.667 200.408 141.804C200.408 141.804 201.034 142.851 200.886 143.602C200.738 144.342 199.555 144.763 199.555 146.346C199.566 147.939 200.454 150.262 198.041 150.797C195.629 151.343 178.843 150.057 174.973 143.067C173.642 142.657 172.458 141.917 171.479 141.007L171.445 140.995C172.253 137.045 173.357 134.427 174.325 131.934C174.996 132.503 175.519 133.289 175.77 134.279C183.918 128.121 181.881 117.807 181.881 117.807C181.881 117.807 185.989 122.486 195.059 122.224L195.173 121.973C196.345 122.44 197.597 122.77 198.917 122.896C200.26 129.828 201.102 130.705 202.957 132.424Z" fill="white"/>
<path d="M195.151 121.985L195.037 122.236C185.967 122.497 181.859 117.819 181.859 117.819C181.859 117.819 183.896 128.132 175.748 134.291C175.497 133.3 174.974 132.515 174.302 131.946C173.335 134.439 172.243 137.057 171.423 141.007C171.366 141.269 171.309 141.542 171.264 141.815C169.511 151.15 172.641 155.874 178.149 160.405C170.649 165.243 156.913 165.345 151.929 155.874C146.99 146.517 151.314 139.47 153.636 121.006C155.331 107.505 164.675 107.027 164.675 107.027C164.675 107.027 169.773 97.9773 184.192 100.402C198.611 102.804 201.126 116.441 200.659 122.976C200.056 122.998 199.464 122.987 198.884 122.93C197.564 122.793 196.323 122.452 195.151 121.985Z" fill="#4675CD"/>
<path d="M180.276 128.121C180.572 127.278 180.845 126.459 181.039 125.616C181.255 124.774 181.38 123.909 181.494 123.055C181.585 122.19 181.619 121.325 181.596 120.471C181.585 120.038 181.551 119.617 181.505 119.185C181.46 118.763 181.392 118.331 181.3 117.955C181.221 117.648 181.414 117.341 181.722 117.272C181.938 117.215 182.154 117.295 182.291 117.454C182.404 117.591 182.575 117.75 182.723 117.898C182.882 118.046 183.042 118.194 183.212 118.331C183.554 118.604 183.907 118.877 184.282 119.116C185.022 119.606 185.807 120.038 186.626 120.403C187.457 120.756 188.299 121.074 189.164 121.302C190.029 121.552 190.928 121.712 191.827 121.848H191.839C191.998 121.871 192.1 122.019 192.078 122.179C192.055 122.327 191.918 122.429 191.77 122.418C190.849 122.327 189.915 122.201 189.005 121.996C188.083 121.803 187.196 121.518 186.308 121.2C185.432 120.858 184.578 120.448 183.759 119.97C183.349 119.731 182.951 119.469 182.564 119.185C182.37 119.048 182.177 118.889 181.995 118.741C181.801 118.581 181.631 118.433 181.437 118.228L182.416 117.716C182.507 118.217 182.552 118.65 182.586 119.116C182.609 119.572 182.632 120.027 182.609 120.482C182.586 121.393 182.507 122.304 182.37 123.192C182.211 124.08 182.04 124.968 181.767 125.833C181.517 126.709 181.198 127.552 180.857 128.36C180.788 128.519 180.606 128.599 180.447 128.531C180.299 128.451 180.219 128.28 180.276 128.121Z" fill="#213D8C"/>
<path d="M175.373 133.869C175.373 133.869 175.509 133.744 175.748 133.539C175.862 133.437 176.01 133.312 176.169 133.164C176.294 133.016 176.442 132.845 176.59 132.651C176.75 132.469 176.92 132.276 177.08 132.014C177.239 131.763 177.421 131.524 177.58 131.24C177.717 130.955 177.865 130.659 178.013 130.352C178.183 130.056 178.252 129.714 178.377 129.396C178.491 129.066 178.616 128.747 178.661 128.405C178.73 128.075 178.798 127.745 178.866 127.426C178.923 127.108 178.923 126.789 178.946 126.493C178.969 126.197 178.991 125.912 179.014 125.65C178.957 124.603 178.969 123.875 178.969 123.875V123.852C178.969 123.761 179.048 123.681 179.139 123.681C179.219 123.681 179.287 123.738 179.299 123.806C179.299 123.806 179.469 124.512 179.663 125.616C179.686 125.89 179.686 126.197 179.697 126.516C179.697 126.834 179.72 127.176 179.697 127.517C179.652 127.87 179.606 128.223 179.56 128.587C179.526 128.952 179.424 129.316 179.322 129.68C179.208 130.033 179.151 130.42 178.991 130.75C178.844 131.092 178.696 131.422 178.548 131.752C178.388 132.071 178.195 132.355 178.024 132.64C177.865 132.925 177.683 133.175 177.478 133.403C177.284 133.63 177.102 133.835 176.954 134.017C176.795 134.165 176.647 134.291 176.533 134.393C176.294 134.598 176.169 134.723 176.169 134.723C175.93 134.928 175.577 134.917 175.361 134.678C175.122 134.439 175.134 134.074 175.373 133.869Z" fill="#213D8C"/>
<path d="M174.312 131.946C174.984 132.515 175.507 133.3 175.758 134.291" stroke="#213D8C" stroke-linecap="round" stroke-linejoin="round"/>
<path d="M198.892 122.919C200.257 129.829 201.1 130.705 202.955 132.436C204.992 134.348 205.879 134.598 205.447 135.976C205.026 137.353 202.989 138.275 202.465 138.457C201.93 138.64 201.327 139.22 202.34 140.552C202.181 141.053 201.475 141.679 200.405 141.816C200.405 141.816 201.031 142.863 200.883 143.614C200.735 144.354 199.552 144.775 199.552 146.358C199.563 147.951 200.451 150.274 198.038 150.809C195.626 151.355 178.84 150.069 174.97 143.079C173.639 142.669 172.455 141.929 171.477 141.019" stroke="#213D8C" stroke-linecap="round" stroke-linejoin="round"/>
<path d="M173.776 131.752C173.776 131.752 174.071 131.001 174.527 129.863C174.629 129.578 174.777 129.271 174.868 128.952C174.971 128.622 175.073 128.28 175.175 127.927C175.278 127.574 175.392 127.199 175.505 126.823C175.642 126.447 175.665 126.049 175.744 125.662C175.881 124.877 176.017 124.08 176.154 123.34C176.2 122.588 176.234 121.883 176.268 121.279C176.336 120.073 176.382 119.264 176.382 119.264V119.242C176.382 119.139 176.473 119.048 176.587 119.06C176.689 119.06 176.769 119.151 176.769 119.253C176.769 119.253 176.769 120.073 176.78 121.291C176.78 121.905 176.78 122.623 176.78 123.385C176.689 124.148 176.598 124.968 176.507 125.787C176.45 126.197 176.45 126.607 176.325 127.005C176.234 127.404 176.131 127.791 176.04 128.166C175.949 128.542 175.858 128.906 175.779 129.259C175.71 129.612 175.585 129.908 175.494 130.204C175.107 131.365 174.857 132.128 174.857 132.128V132.139C174.754 132.435 174.436 132.595 174.14 132.503C173.844 132.401 173.685 132.082 173.776 131.786C173.764 131.775 173.764 131.764 173.776 131.752Z" fill="#213D8C"/>
<path d="M171.273 141.804C171.319 141.531 171.376 141.258 171.433 140.996C172.241 137.046 173.345 134.428 174.312 131.935" stroke="#213D8C" stroke-linecap="round" stroke-linejoin="round"/>
<path d="M172.284 153.95C172.284 153.95 172.193 153.78 172.045 153.472C171.966 153.324 171.875 153.142 171.772 152.926C171.659 152.721 171.579 152.459 171.465 152.186C171.363 151.913 171.226 151.617 171.135 151.287C171.044 150.956 170.942 150.615 170.839 150.262C170.748 149.909 170.691 149.522 170.623 149.147C170.543 148.771 170.498 148.372 170.464 147.985C170.441 147.598 170.361 147.2 170.373 146.813C170.373 146.426 170.361 146.039 170.361 145.675C170.35 145.299 170.395 144.946 170.407 144.616C170.429 144.274 170.441 143.956 170.464 143.66C170.612 142.487 170.703 141.713 170.703 141.713C170.737 141.406 171.021 141.178 171.34 141.224C171.647 141.258 171.875 141.542 171.829 141.861C171.829 141.872 171.829 141.884 171.829 141.895L171.818 141.929C171.818 141.929 171.681 142.681 171.465 143.796C171.431 144.081 171.397 144.388 171.351 144.707C171.317 145.026 171.249 145.367 171.249 145.72C171.237 146.073 171.215 146.437 171.192 146.813C171.158 147.189 171.203 147.564 171.203 147.94C171.215 148.316 171.226 148.703 171.283 149.067C171.329 149.431 171.363 149.807 171.431 150.148C171.511 150.501 171.579 150.831 171.647 151.15C171.715 151.469 171.829 151.753 171.909 152.027C172 152.3 172.057 152.55 172.159 152.766C172.25 152.983 172.33 153.176 172.398 153.324C172.535 153.632 172.603 153.814 172.603 153.814C172.649 153.905 172.603 154.019 172.501 154.064C172.432 154.087 172.33 154.041 172.284 153.95Z" fill="#213D8C"/>
<path d="M177.897 160.894C177.897 160.894 177.749 160.814 177.498 160.678C177.237 160.53 176.884 160.359 176.44 160.074C175.996 159.813 175.495 159.482 174.972 159.107C174.71 158.936 174.448 158.708 174.187 158.503C173.925 158.287 173.652 158.082 173.424 157.832C173.185 157.593 172.935 157.354 172.696 157.115C172.48 156.864 172.263 156.602 172.059 156.363C171.638 155.885 171.33 155.362 171.034 154.963C170.761 154.531 170.568 154.155 170.42 153.905C170.272 153.643 170.192 153.506 170.192 153.506C170.124 153.381 170.169 153.233 170.283 153.153C170.397 153.085 170.545 153.119 170.625 153.233L170.636 153.256C170.636 153.256 170.727 153.392 170.886 153.631C171.046 153.87 171.262 154.223 171.546 154.622C171.865 154.997 172.172 155.475 172.605 155.908C172.81 156.124 173.037 156.352 173.254 156.591C173.493 156.796 173.743 157.012 173.982 157.229C174.221 157.445 174.494 157.627 174.744 157.82C175.006 158.003 175.245 158.196 175.518 158.355C176.03 158.686 176.52 158.97 176.952 159.186C177.362 159.426 177.76 159.585 178.022 159.71C178.284 159.835 178.432 159.904 178.432 159.904C178.716 160.04 178.841 160.382 178.705 160.666C178.568 160.951 178.227 161.076 177.942 160.94C177.919 160.905 177.908 160.905 177.897 160.894Z" fill="#213D8C"/>
<path d="M193.42 121.166C193.966 121.473 194.547 121.746 195.139 121.985C196.311 122.452 197.563 122.782 198.883 122.907C199.463 122.964 200.055 122.987 200.658 122.953C201.125 116.43 198.61 102.793 184.191 100.379C169.772 97.966 164.673 107.005 164.673 107.005C164.673 107.005 155.319 107.483 153.635 120.983C151.313 139.448 147 146.494 151.928 155.851C156.912 165.311 170.637 165.22 178.148 160.382" stroke="#213D8C" stroke-linecap="round" stroke-linejoin="round"/>
<path d="M184.952 112.378C184.952 112.378 185.35 113.038 186.056 113.949C186.386 114.415 186.841 114.916 187.296 115.474C187.797 115.998 188.286 116.578 188.855 117.09C189.436 117.591 189.948 118.16 190.54 118.559C191.12 118.98 191.609 119.424 192.11 119.697C193.078 120.278 193.726 120.653 193.726 120.653L193.783 120.688C194.056 120.847 194.147 121.2 193.977 121.473C193.817 121.746 193.464 121.837 193.191 121.667C193.18 121.667 193.169 121.655 193.157 121.644C193.157 121.644 192.497 121.2 191.507 120.517C191.006 120.187 190.517 119.697 189.948 119.219C189.368 118.764 188.867 118.138 188.309 117.591C187.763 117.022 187.296 116.396 186.818 115.838C186.397 115.235 185.965 114.7 185.658 114.21C184.998 113.243 184.633 112.548 184.633 112.548V112.537C184.588 112.446 184.622 112.332 184.713 112.275C184.781 112.264 184.895 112.287 184.952 112.378Z" fill="#213D8C"/>
<path d="M200.34 142.373C200.34 142.373 200.237 142.35 200.044 142.316C199.85 142.282 199.577 142.225 199.27 142.145C198.644 141.997 197.825 141.735 197.028 141.405C196.641 141.223 196.232 141.075 195.89 140.87C195.537 140.665 195.207 140.506 194.946 140.312C194.422 139.925 194.081 139.675 194.081 139.675C193.967 139.595 193.944 139.436 194.024 139.322C194.103 139.22 194.251 139.185 194.354 139.254L194.388 139.277C194.388 139.277 194.741 139.481 195.253 139.8C195.515 139.96 195.856 140.073 196.186 140.244C196.527 140.404 196.926 140.506 197.301 140.654C198.075 140.893 198.872 141.064 199.475 141.143C199.771 141.189 200.021 141.223 200.192 141.235C200.374 141.246 200.465 141.257 200.465 141.257H200.488C200.806 141.28 201.034 141.565 201.011 141.872C200.988 142.191 200.704 142.418 200.397 142.384C200.374 142.373 200.351 142.373 200.34 142.373Z" fill="#213D8C"/>
<path d="M193.798 129.168C194.082 130.091 194.867 130.671 195.562 130.466C196.244 130.261 196.574 129.328 196.29 128.406C196.005 127.484 195.22 126.903 194.526 127.108C193.843 127.324 193.513 128.246 193.798 129.168Z" fill="#213D8C"/>
<path d="M145.51 214.761V214.772C148.799 214.795 151.621 215.751 154.307 216.537C159.553 218.073 185.307 223.401 185.307 223.401C185.307 223.401 191.93 219.929 193.785 218.699C195.64 217.47 196.801 217.629 197.791 218.392C198.792 219.155 203.72 222.945 204.653 224.175C205.575 225.404 205.507 226.406 205.052 227.1C204.585 227.795 201.569 229.81 201.569 229.81C201.569 229.81 132.878 229.81 130.01 229.81C127.165 229.81 124.536 221.625 125.469 219.246C126.379 216.855 133.162 197.799 133.162 197.799L149.436 203.206L145.51 214.761Z" fill="white"/>
<path d="M134.494 218.005C138.807 215.501 142.38 214.727 145.51 214.772C148.799 214.795 151.621 215.751 154.307 216.537C159.553 218.073 185.307 223.401 185.307 223.401C185.307 223.401 191.93 219.929 193.785 218.699C195.64 217.47 196.801 217.629 197.791 218.392C198.792 219.155 203.72 222.945 204.653 224.175C205.575 225.404 205.507 226.406 205.052 227.1C204.585 227.795 201.569 229.81 201.569 229.81C201.569 229.81 132.878 229.81 130.01 229.81C127.165 229.81 124.536 221.625 125.469 219.246C126.379 216.855 133.162 197.799 133.162 197.799L149.436 203.206L145.498 214.772" stroke="#213D8C" stroke-linecap="round" stroke-linejoin="round"/>
<path d="M141.21 172.505C138.842 175.499 126.188 200.953 126.188 200.953C126.188 200.953 138.467 204.607 148.14 212.518C148.14 212.518 153.079 202.444 155.754 195.648L141.21 172.505Z" fill="white"/>
<path d="M150.793 205.62L155.516 195.557C155.573 195.432 155.721 195.375 155.846 195.432C155.971 195.489 156.028 195.637 155.971 195.762L151.829 206.064V206.075C151.715 206.371 151.385 206.508 151.089 206.394C150.793 206.28 150.657 205.95 150.77 205.654C150.782 205.643 150.782 205.631 150.793 205.62Z" fill="#213D8C"/>
<path d="M141.21 172.505C138.842 175.499 126.188 200.953 126.188 200.953C126.188 200.953 138.467 204.607 148.14 212.518C148.14 212.518 149.574 209.593 151.315 205.836" stroke="#213D8C" stroke-linecap="round" stroke-linejoin="round"/>
<path d="M268.042 186.461C268.555 185.335 268.054 184.424 266.927 184.424H208.74C207.613 184.424 206.281 185.335 205.769 186.461L189.416 222.411C188.904 223.538 189.404 224.448 190.531 224.448H248.719C249.845 224.448 251.177 223.538 251.689 222.411L268.042 186.461Z" fill="white" stroke="#213D8C" stroke-linecap="round" stroke-linejoin="round"/>
<path d="M236.028 206.28C234.981 209.73 231.339 212.53 227.891 212.53C224.443 212.53 222.485 209.73 223.532 206.28C224.579 202.831 228.221 200.031 231.669 200.031C235.117 200.031 237.063 202.831 236.028 206.28Z" fill="#E1EDF7" stroke="#213D8C" stroke-linecap="round" stroke-linejoin="round"/>
<path d="M190.531 224.459L151.315 227.135L148.629 229.81H190.531V224.459Z" fill="white" stroke="#213D8C" stroke-linecap="round" stroke-linejoin="round"/>
<path d="M248.719 224.459H190.531V229.81H248.719V224.459Z" fill="#E1EDF7" stroke="#213D8C" stroke-linecap="round" stroke-linejoin="round"/>
<path d="M169.008 256.743C169.008 256.743 178.51 255.411 201.157 253.146C214.745 260.056 225.5 266.829 230.746 300.149L169.008 256.743Z" fill="#BADBF7" stroke="#213D8C" stroke-linecap="round" stroke-linejoin="round"/>
<path d="M141.915 259.885C141.915 259.885 139.708 267.136 140.424 275.981C141.141 284.826 146.081 294.286 165.712 293.671C185.343 293.057 199.841 289.562 212.075 282.151C212.075 282.151 243.098 333.206 256.993 351.181C256.993 351.181 264.094 347.561 268.419 344.112C268.419 344.112 240.765 276.084 237.988 271.303C235.211 266.522 233.675 263.437 226.881 262.355C220.098 261.274 197.781 257.574 179.072 256.96C171.663 256.709 154.718 256.026 141.915 259.885Z" fill="#BADBF7" stroke="#213D8C" stroke-linecap="round" stroke-linejoin="round"/>
<path d="M234.3 383.237L236.644 395.019L227.176 398.764L224.285 385.957L234.3 383.237Z" fill="white" stroke="#213D8C" stroke-linecap="round" stroke-linejoin="round"/>
<path d="M261.646 397.675L227.723 406.899L228.412 409.437L262.336 400.213L261.646 397.675Z" fill="#E1EDF7" stroke="#213D8C" stroke-linecap="round" stroke-linejoin="round"/>
<path d="M252.156 395.121C252.156 395.121 251.541 393.379 249.971 393.038C248.4 392.696 238.921 390.317 237.691 389.987C236.451 389.657 235.734 388.94 234.892 389.361C234.05 389.782 232.969 392.457 235.506 393.539C238.044 394.62 251.393 397.045 251.393 397.045L252.156 395.121Z" fill="#BADBF7" stroke="#213D8C" stroke-linecap="round" stroke-linejoin="round"/>
<path d="M249.846 397.455C249.881 396.35 249.937 395.85 248.469 395.189C247.001 394.54 239.49 393.243 237.658 392.639C235.826 392.036 235.098 392.195 233.538 393.994C231.979 395.804 230.636 395.804 228.588 396.703C226.54 397.591 226.198 397.204 226.084 398.525C225.959 399.845 227.029 404.353 227.712 406.892L251.952 400.3L249.846 397.455Z" fill="white" stroke="#213D8C" stroke-linecap="round" stroke-linejoin="round"/>
<path d="M261.634 397.683C261.634 397.683 260.928 395.793 259.016 395.269C257.105 394.734 253.36 394.461 251.983 394.313C250.606 394.165 249.332 397.375 249.673 400.927L261.634 397.683Z" fill="white" stroke="#213D8C" stroke-linecap="round" stroke-linejoin="round"/>
<path d="M245.508 395.588C245.36 396.077 245.645 396.589 246.123 396.726C246.612 396.874 247.124 396.589 247.261 396.111L248.399 392.298C248.547 391.808 248.262 391.296 247.784 391.148C247.295 391 246.783 391.285 246.635 391.763L245.508 395.588Z" fill="white" stroke="#213D8C" stroke-linecap="round" stroke-linejoin="round"/>
<path d="M241.094 394.336C240.946 394.825 241.23 395.338 241.72 395.474C242.209 395.622 242.721 395.337 242.858 394.859L243.996 391.046C244.144 390.556 243.859 390.044 243.37 389.896C242.881 389.748 242.368 390.033 242.221 390.511L241.094 394.336Z" fill="white" stroke="#213D8C" stroke-linecap="round" stroke-linejoin="round"/>
<path d="M236.871 393.55C236.758 394.04 237.065 394.541 237.554 394.654C238.044 394.78 238.544 394.461 238.658 393.971L239.58 390.101C239.694 389.6 239.386 389.111 238.897 388.997C238.396 388.883 237.907 389.19 237.793 389.68L236.871 393.55Z" fill="white" stroke="#213D8C" stroke-linecap="round" stroke-linejoin="round"/>
<path d="M218.559 278.395C209.5 277.53 199.292 281.947 201.443 298.134C203.594 314.333 222.61 393.129 222.61 393.129C222.61 393.129 231.225 390.682 236.836 387.597C236.836 387.597 231.259 300.445 230.451 292.419C229.666 284.417 225.034 279.01 218.559 278.395Z" fill="#BADBF7" stroke="#213D8C" stroke-linecap="round" stroke-linejoin="round"/>
<path d="M347.68 180.099C347.68 180.099 338.474 209.411 331.691 219.395C328.777 221.33 320.527 222.764 318.706 222.855C316.885 222.946 315.315 224.153 313.141 224.847C310.967 225.542 308.93 226.589 307.189 226.543C305.448 226.498 304.674 226.714 304.708 227.363C304.754 228.012 305.528 229.799 307.667 229.799C309.795 229.799 313.004 229.105 314.177 228.934C315.349 228.763 316.418 228.479 316.418 228.479L316.43 228.467C316.236 229.15 316.362 229.799 317.386 229.799C319.207 229.799 322.769 229.014 324.772 229.059C326.763 229.105 328.208 229.799 330.769 229.799C333.33 229.799 335.378 228.035 337.586 223.845C340.659 218.028 343.492 214.204 345.62 211.073C347.749 207.943 358.344 189.672 358.344 189.672L347.68 180.099Z" fill="white"/>
<path d="M317.226 227.112C316.577 227.727 315.576 229.81 317.397 229.81C319.218 229.81 322.78 229.025 324.783 229.07C326.774 229.116 328.22 229.81 330.78 229.81C333.341 229.81 335.389 228.046 337.597 223.857C340.67 218.04 343.503 214.215 345.631 211.084C347.76 207.954 358.355 189.683 358.355 189.683L347.669 180.11C347.669 180.11 338.462 209.422 331.679 219.406C328.766 221.341 320.515 222.775 318.694 222.866C316.873 222.957 315.303 224.164 313.129 224.858C310.956 225.553 308.919 226.6 307.177 226.555C305.436 226.509 304.662 226.725 304.696 227.374C304.742 228.023 305.516 229.81 307.655 229.81C309.783 229.81 312.993 229.116 314.165 228.945C315.337 228.774 316.407 228.49 316.407 228.49" stroke="#213D8C" stroke-linecap="round" stroke-linejoin="round"/>
<path d="M325.239 223.857C325.239 223.857 325.137 223.948 324.955 224.096C324.761 224.244 324.477 224.449 324.147 224.699C323.794 224.915 323.384 225.177 322.952 225.45C322.485 225.678 321.973 225.917 321.461 226.156C320.938 226.361 320.437 226.52 319.925 226.668C319.435 226.805 318.992 226.942 318.593 227.044C318.218 227.158 317.967 227.283 317.808 227.363C317.683 227.454 317.614 227.511 317.614 227.511L317.546 227.568C317.296 227.761 316.943 227.716 316.75 227.477C316.556 227.238 316.602 226.885 316.841 226.68C316.841 226.68 316.989 226.555 317.262 226.395C317.535 226.259 317.91 226.133 318.32 226.042C318.718 225.963 319.185 225.86 319.686 225.758C319.925 225.701 320.175 225.644 320.425 225.587C320.676 225.519 320.96 225.45 321.199 225.382C321.689 225.2 322.178 225.018 322.633 224.836C323.077 224.608 323.487 224.392 323.84 224.21C324.17 223.993 324.454 223.823 324.648 223.697C324.841 223.561 324.955 223.481 324.955 223.481C325.057 223.401 325.194 223.424 325.273 223.527C325.342 223.652 325.319 223.777 325.239 223.857Z" fill="#213D8C"/>
<path d="M368.176 385.708L368.984 397.683L379.112 398.821L378.543 385.708H368.176Z" fill="white" stroke="#213D8C" stroke-linecap="round" stroke-linejoin="round"/>
<path d="M380.728 406.812H345.574V409.442H380.728V406.812Z" fill="#E1EDF7" stroke="#213D8C" stroke-linecap="round" stroke-linejoin="round"/>
<path d="M354.043 401.861C354.043 401.861 354.18 400.017 355.613 399.277C357.036 398.537 365.56 393.744 366.664 393.107C367.768 392.458 368.28 391.581 369.202 391.775C370.123 391.957 371.876 394.268 369.714 395.964C367.551 397.672 355.295 403.523 355.295 403.523L354.043 401.861Z" fill="#BADBF7" stroke="#213D8C" stroke-linecap="round" stroke-linejoin="round"/>
<path d="M356.884 403.5C356.554 402.441 356.372 401.974 357.624 400.95C358.864 399.937 365.772 396.715 367.388 395.656C369.004 394.598 369.733 394.552 371.713 395.884C373.693 397.216 374.99 396.875 377.21 397.193C379.417 397.512 379.645 397.057 380.112 398.297C380.578 399.538 380.737 404.171 380.737 406.79H355.621L356.884 403.5Z" fill="white" stroke="#213D8C" stroke-linecap="round" stroke-linejoin="round"/>
<path d="M345.574 406.812C345.574 406.812 345.756 404.809 347.463 403.796C349.17 402.783 352.71 401.542 354.007 401.03C355.293 400.529 357.364 403.284 357.967 406.812H345.574Z" fill="white" stroke="#213D8C" stroke-linecap="round" stroke-linejoin="round"/>
<path d="M360.583 400.563C360.856 400.996 360.72 401.565 360.287 401.827C359.855 402.1 359.286 401.963 359.024 401.531L356.93 398.15C356.657 397.717 356.794 397.148 357.226 396.886C357.658 396.613 358.228 396.75 358.489 397.182L360.583 400.563Z" fill="white" stroke="#213D8C" stroke-linecap="round" stroke-linejoin="round"/>
<path d="M364.521 398.207C364.794 398.639 364.657 399.208 364.225 399.47C363.792 399.743 363.223 399.607 362.962 399.174L360.868 395.793C360.595 395.361 360.731 394.791 361.164 394.53C361.596 394.268 362.165 394.393 362.427 394.826L364.521 398.207Z" fill="white" stroke="#213D8C" stroke-linecap="round" stroke-linejoin="round"/>
<path d="M368.381 396.328C368.62 396.772 368.461 397.33 368.006 397.569C367.562 397.808 367.004 397.649 366.765 397.205L364.865 393.71C364.626 393.255 364.785 392.697 365.229 392.458C365.673 392.219 366.23 392.378 366.481 392.822L368.381 396.328Z" fill="white" stroke="#213D8C" stroke-linecap="round" stroke-linejoin="round"/>
<path d="M397.141 385.708L397.949 397.683L408.077 398.821L407.508 385.708H397.141Z" fill="white" stroke="#213D8C" stroke-linecap="round" stroke-linejoin="round"/>
<path d="M409.693 406.812H374.539V409.442H409.693V406.812Z" fill="#E1EDF7" stroke="#213D8C" stroke-linecap="round" stroke-linejoin="round"/>
<path d="M383.008 401.861C383.008 401.861 383.144 400.017 384.578 399.277C386.001 398.537 394.525 393.744 395.629 393.107C396.733 392.458 397.245 391.581 398.166 391.775C399.088 391.957 400.841 394.268 398.679 395.964C396.516 397.672 384.26 403.523 384.26 403.523L383.008 401.861Z" fill="#BADBF7" stroke="#213D8C" stroke-linecap="round" stroke-linejoin="round"/>
<path d="M385.853 403.5C385.523 402.441 385.341 401.974 386.593 400.95C387.833 399.937 394.741 396.715 396.357 395.656C397.973 394.598 398.701 394.552 400.682 395.884C402.662 397.216 403.959 396.875 406.178 397.193C408.386 397.512 408.614 397.057 409.08 398.297C409.547 399.538 409.706 404.171 409.706 406.79H384.59L385.853 403.5Z" fill="white" stroke="#213D8C" stroke-linecap="round" stroke-linejoin="round"/>
<path d="M374.539 406.812C374.539 406.812 374.721 404.809 376.428 403.796C378.135 402.783 381.675 401.542 382.972 401.03C384.258 400.529 386.329 403.284 386.932 406.812H374.539Z" fill="white" stroke="#213D8C" stroke-linecap="round" stroke-linejoin="round"/>
<path d="M389.552 400.563C389.825 400.996 389.689 401.565 389.256 401.827C388.824 402.1 388.255 401.963 387.993 401.531L385.899 398.15C385.626 397.717 385.762 397.148 386.195 396.886C386.627 396.613 387.196 396.75 387.458 397.182L389.552 400.563Z" fill="white" stroke="#213D8C" stroke-linecap="round" stroke-linejoin="round"/>
<path d="M393.49 398.207C393.763 398.639 393.626 399.208 393.194 399.47C392.761 399.743 392.192 399.607 391.93 399.174L389.836 395.793C389.563 395.361 389.7 394.791 390.132 394.53C390.565 394.268 391.134 394.393 391.407 394.826L393.49 398.207Z" fill="white" stroke="#213D8C" stroke-linecap="round" stroke-linejoin="round"/>
<path d="M397.358 396.328C397.597 396.772 397.437 397.33 396.982 397.569C396.538 397.808 395.981 397.649 395.742 397.205L393.841 393.71C393.602 393.255 393.762 392.697 394.205 392.458C394.649 392.219 395.207 392.378 395.457 392.822L397.358 396.328Z" fill="white" stroke="#213D8C" stroke-linecap="round" stroke-linejoin="round"/>
<path d="M362.43 212.53C362.43 212.53 350.401 279.784 349.172 285.806C347.943 291.828 348.091 297.997 349.172 303.234C350.253 308.482 368.143 388.223 368.143 388.223H379.557C379.557 388.223 375.699 305.693 375.859 302.152C376.007 298.601 377.862 290.279 380.479 283.95C383.097 277.621 409.01 211.574 409.01 211.574L362.43 212.53Z" fill="#E1EDF7" stroke="#213D8C" stroke-linecap="round" stroke-linejoin="round"/>
<path d="M365.82 213.919C365.82 213.919 375.687 279.943 376.768 286.568C377.849 293.205 380.467 301.219 382.629 308.163C384.791 315.107 395.887 374.802 396.194 388.223H408.531C408.531 388.223 409.612 336.861 408.531 320.195C407.45 303.541 405.754 288.731 406.22 276.699C406.687 264.666 413.823 225.177 410.795 208.671L365.82 213.919Z" fill="white" stroke="#213D8C" stroke-linecap="round" stroke-linejoin="round"/>
<path d="M393.715 205.666C393.715 205.666 394.511 265.293 395.581 292.636C396.651 319.991 403.445 388.223 403.445 388.223" stroke="#213D8C" stroke-width="0.5" stroke-linecap="round" stroke-linejoin="round"/>
<path d="M385.258 206.667C386.692 220.032 391.961 230.22 394.169 233.715" stroke="#213D8C" stroke-width="0.5" stroke-linecap="round" stroke-linejoin="round"/>
<path d="M412.015 211.426C412.015 211.426 405.277 215.456 385.168 216.902C365.059 218.347 361.486 216.685 360.883 216.594L361.349 212.53L410.797 205.666L412.015 211.426Z" fill="#F7CDBA" stroke="#213D8C" stroke-linecap="round" stroke-linejoin="round"/>
<path d="M321.176 123.989C321.176 123.989 330.041 128.998 332.283 137.638L345.086 122.054C345.086 122.054 338.69 114.802 335.606 110.215L321.176 123.989Z" fill="white"/>
<path d="M335.595 110.215L321.176 123.978C321.176 123.978 326.764 127.154 330.189 132.777C335.071 125.241 337.472 117.99 338.508 114.154C337.427 112.788 336.403 111.41 335.595 110.215Z" fill="#BADBF7"/>
<path d="M321.176 123.989C321.176 123.989 330.041 128.998 332.283 137.638L345.086 122.054C345.086 122.054 338.69 114.802 335.606 110.215L321.176 123.989Z" stroke="#213D8C" stroke-linecap="round" stroke-linejoin="round"/>
<path d="M336.776 112.321C336.765 112.332 336.765 112.332 336.765 112.332C336.105 113.846 335.035 115.247 333.59 116.225C331.939 124.035 316.269 130.193 313.799 130.398C311.33 130.58 311.5 128.098 311.034 126.584C310.579 125.07 309.315 125.014 308.963 124.353C308.587 123.682 308.894 122.486 308.894 122.486C307.836 122.68 306.982 122.293 306.675 121.86C307.256 120.289 306.504 119.914 305.947 119.891C305.389 119.88 303.17 119.606 302.362 118.411C301.565 117.216 302.328 116.704 303.716 114.279C305.093 111.866 305.617 110.784 304.513 101.552C303.102 89.6564 309.452 82.4848 318.249 80.8797C328.241 79.0583 338.312 82.2457 340.998 91.7623C344.754 105.092 337.163 111.979 336.776 112.321Z" fill="white"/>
<path d="M322.48 94.6082C322.48 94.6082 322.48 101.006 322.48 102.064C322.48 103.123 323.061 104.136 323.983 104.501C324.904 104.865 325.951 105.058 325.986 107.062C326.02 109.065 325.986 110.42 325.986 110.955C325.986 111.49 326.407 112.116 327.146 112.116C327.875 112.116 329.036 111.809 329.377 111.035C329.73 110.261 329.935 109.726 330.287 107.096C330.64 104.478 332.962 103.123 334.783 103.59C336.603 104.057 338.094 106.447 337.434 110.215C337.309 110.887 337.218 111.444 337.127 111.968C338.663 110.409 344.331 103.658 340.985 91.751C340.587 90.3394 340.006 89.0759 339.301 87.9375H322.913L322.48 94.6082Z" fill="#2358B8"/>
<path d="M327.878 111.478C327.878 111.478 328.061 111.41 328.334 111.308C328.413 111.285 328.425 111.239 328.47 111.205C328.516 111.171 328.561 111.137 328.607 111.103C328.652 111.057 328.721 111.046 328.766 110.966L328.925 110.761C329.028 110.625 329.164 110.499 329.221 110.34C329.301 110.181 329.369 110.044 329.426 109.919C329.551 109.668 329.631 109.498 329.631 109.498L329.654 109.452C329.711 109.327 329.859 109.27 329.984 109.338C330.086 109.395 330.143 109.509 330.12 109.623C330.12 109.623 330.075 109.816 329.995 110.112C329.961 110.26 329.916 110.442 329.87 110.625C329.824 110.818 329.699 111 329.62 111.194L329.472 111.49C329.438 111.592 329.324 111.672 329.255 111.763C329.176 111.854 329.096 111.934 329.016 112.013C328.937 112.082 328.857 112.184 328.8 112.207C328.55 112.366 328.391 112.469 328.391 112.469C328.117 112.64 327.765 112.56 327.605 112.287C327.435 112.025 327.514 111.661 327.787 111.501C327.81 111.513 327.844 111.49 327.878 111.478Z" fill="#213D8C"/>
<path d="M322.48 94.6084C322.48 94.6084 322.48 101.006 322.48 102.065C322.48 103.123 323.061 104.136 323.983 104.501C324.904 104.865 325.951 105.058 325.986 107.062C326.02 109.065 325.986 110.42 325.986 110.955C325.986 111.49 326.407 112.116 327.146 112.116C327.42 112.116 327.761 112.116 328.125 111.991" stroke="#213D8C" stroke-width="1.0011" stroke-linecap="round" stroke-linejoin="round"/>
<path d="M332.281 104.045C333.248 103.442 334.42 103.294 335.445 103.829C337.846 105.058 338.244 108.974 336.776 112.321C336.765 112.332 336.765 112.332 336.765 112.332C336.105 113.846 335.035 115.247 333.59 116.225C331.939 124.035 316.269 130.193 313.799 130.398C311.33 130.58 311.5 128.099 311.034 126.584C310.579 125.07 309.315 125.014 308.963 124.353C308.587 123.682 308.894 122.486 308.894 122.486C307.836 122.68 306.982 122.293 306.675 121.86C307.256 120.289 306.504 119.914 305.947 119.891C305.389 119.88 303.17 119.606 302.362 118.411C301.565 117.216 302.328 116.704 303.716 114.279C305.093 111.866 305.617 110.784 304.513 101.552C303.102 89.6564 309.452 82.4848 318.249 80.8797C328.241 79.0583 338.312 82.2457 340.998 91.7623C344.742 105.104 337.163 111.991 336.776 112.332" stroke="#213D8C" stroke-linecap="round" stroke-linejoin="round"/>
<path d="M330.04 108.041C330.04 108.041 330.04 107.972 330.029 107.836C330.029 107.699 329.995 107.529 330.006 107.301C330.04 107.073 330.029 106.766 330.109 106.493C330.166 106.197 330.257 105.901 330.382 105.605C330.427 105.445 330.518 105.32 330.587 105.172C330.655 105.036 330.735 104.888 330.826 104.774C330.996 104.512 331.178 104.296 331.349 104.125C331.508 103.931 331.69 103.818 331.793 103.715C331.907 103.624 331.975 103.567 331.975 103.567C332.214 103.374 332.578 103.408 332.783 103.647C332.988 103.897 332.942 104.25 332.703 104.455C332.681 104.466 332.658 104.489 332.635 104.501L332.578 104.535C332.578 104.535 332.521 104.569 332.43 104.626C332.339 104.683 332.191 104.751 332.043 104.876C331.884 104.99 331.713 105.138 331.554 105.32C331.463 105.4 331.383 105.514 331.315 105.616C331.247 105.719 331.144 105.821 331.087 105.946C330.951 106.174 330.826 106.413 330.746 106.663C330.632 106.902 330.621 107.13 330.552 107.324C330.507 107.529 330.507 107.722 330.496 107.847C330.484 107.972 330.473 108.052 330.473 108.052C330.461 108.166 330.359 108.257 330.234 108.246C330.131 108.234 330.052 108.143 330.04 108.041Z" fill="#213D8C"/>
<path d="M308.668 121.963C308.668 121.963 308.759 121.928 308.93 121.86C309.089 121.803 309.317 121.701 309.59 121.564C310.136 121.314 310.853 120.915 311.524 120.46C311.843 120.221 312.196 120.005 312.48 119.743C312.765 119.492 313.049 119.276 313.254 119.048C313.664 118.593 313.937 118.297 313.937 118.297L313.96 118.274C314.04 118.183 314.176 118.183 314.267 118.263C314.347 118.343 314.358 118.457 314.301 118.548C314.301 118.548 314.051 118.889 313.664 119.413C313.471 119.675 313.197 119.925 312.924 120.232C312.651 120.54 312.31 120.79 312.002 121.086C311.342 121.633 310.637 122.133 310.091 122.464C309.817 122.634 309.578 122.771 309.408 122.862C309.237 122.953 309.146 122.999 309.146 122.999C308.861 123.147 308.52 123.044 308.372 122.759C308.224 122.486 308.327 122.133 308.611 121.985C308.622 121.974 308.645 121.963 308.668 121.963Z" fill="#213D8C"/>
<path d="M311.501 108.462C311.501 109.43 310.921 110.215 310.204 110.215C309.487 110.215 308.906 109.43 308.906 108.462C308.906 107.494 309.487 106.709 310.204 106.709C310.921 106.709 311.501 107.494 311.501 108.462Z" fill="#213D8C"/>
<path d="M324.907 93.6978C324.907 93.6978 327.422 101.871 336.116 99.7197C336.116 99.7197 339.053 102.235 344.595 101.883C344.595 101.883 345.004 94.1759 342.535 87.6418C340.065 81.1077 335.024 78.7968 331.223 78.8537C327.012 75.8143 320.73 74.2206 313.538 77.0551C305.06 80.3905 301.452 87.4369 301.247 95.2005C301.076 101.655 302.681 104.512 302.681 104.512C302.681 104.512 310.192 104.102 314.812 98.8546C314.812 98.8546 314.505 100.038 314.653 101.325C317.475 100.403 319.843 98.7521 319.843 98.7521C319.843 98.7521 319.945 100.596 320.047 101.268C320.07 101.256 324.804 99.5603 324.907 93.6978Z" fill="#4675CD"/>
<path d="M314.95 97.1924C314.95 97.1924 315.167 96.8395 315.497 96.2931C315.656 96.0199 315.849 95.7125 316.054 95.371C316.271 95.0409 316.419 94.6653 316.601 94.301C316.976 93.5724 317.306 92.8211 317.534 92.2406C317.784 91.6714 317.909 91.273 317.909 91.273C317.955 91.1364 318.103 91.0567 318.239 91.1022C318.365 91.1478 318.444 91.2844 318.41 91.4096V91.421C318.41 91.421 318.308 91.8421 318.114 92.4455C317.932 93.0488 317.67 93.857 317.34 94.6653C317.181 95.0637 317.056 95.4849 316.862 95.8264C316.692 96.1793 316.532 96.5094 316.384 96.794C316.111 97.3632 315.918 97.7388 315.918 97.7388C315.781 98.0234 315.44 98.1372 315.155 98.0006C314.871 97.864 314.757 97.5225 314.894 97.2379C314.928 97.2265 314.939 97.2038 314.95 97.1924Z" fill="#213D8C"/>
<path d="M310.57 102.065C312.038 101.222 313.484 100.095 314.679 98.5813C314.952 98.2397 315.213 97.8641 315.452 97.4771" stroke="#213D8C" stroke-linecap="round" stroke-linejoin="round"/>
<path d="M304.809 104.193C306.322 103.886 308.462 103.271 310.556 102.064" stroke="#213D8C" stroke-linecap="round" stroke-linejoin="round"/>
<path d="M338.187 100.653C338.722 100.767 339.268 100.96 339.792 101.017C340.327 101.074 340.827 101.211 341.362 101.222L342.159 101.268C342.421 101.29 342.682 101.313 342.956 101.29C343.49 101.268 344.014 101.279 344.549 101.313L344.014 101.848C344.048 100.653 344.048 99.4121 343.968 98.1941C343.946 97.5794 343.9 96.9761 343.832 96.3613C343.764 95.758 343.729 95.1433 343.616 94.54L343.331 92.73L342.933 90.9542C342.819 90.3509 342.625 89.7817 342.432 89.2011C342.239 88.6433 342.091 87.9945 341.852 87.5164L341.078 85.8316C340.805 85.2852 340.44 84.8412 340.133 84.3404C339.849 83.8281 339.405 83.4183 339.018 82.9743C338.813 82.758 338.631 82.519 338.415 82.3255L337.721 81.7677C337.493 81.5856 337.265 81.392 337.026 81.2213L336.264 80.7887C336.002 80.6521 335.763 80.4813 335.49 80.3675L334.671 80.0488C334.136 79.7983 333.544 79.7187 332.975 79.5821C332.406 79.4341 331.814 79.4796 331.234 79.4113L331.177 79.3999C331.074 79.3885 330.972 79.3544 330.892 79.2975C330.016 78.7397 329.163 78.1591 328.207 77.7493L327.512 77.4078L326.784 77.1574C326.295 76.998 325.817 76.7931 325.305 76.6793C324.292 76.463 323.279 76.2239 322.243 76.2011C321.208 76.0645 320.172 76.1898 319.136 76.2353C318.613 76.2467 318.112 76.4061 317.6 76.4857C317.088 76.5996 316.565 76.6451 316.075 76.8045L314.584 77.2826L313.845 77.5216C313.64 77.6013 313.367 77.7265 313.128 77.829C312.638 78.0453 312.138 78.2502 311.705 78.5006C311.25 78.7397 310.795 78.9787 310.362 79.2633C309.918 79.5365 309.486 79.8211 309.076 80.1398C308.655 80.4358 308.246 80.7659 307.87 81.1188C307.085 81.8018 306.391 82.5759 305.753 83.3841C305.423 83.7826 305.161 84.2265 304.854 84.6477C304.581 85.0917 304.331 85.5356 304.08 85.991C303.614 86.9244 303.204 87.8692 302.897 88.871C302.567 89.8614 302.339 90.8745 302.168 91.9104C301.986 92.9349 301.907 93.9822 301.861 95.0295C301.873 96.0426 301.816 97.181 301.929 98.1941C301.986 99.23 302.123 100.277 302.328 101.29C302.51 102.304 302.829 103.339 303.227 104.182L303.261 104.25C303.398 104.535 303.272 104.876 302.988 105.001C302.703 105.138 302.373 105.013 302.237 104.728C301.713 103.635 301.429 102.6 301.212 101.507C300.996 100.425 300.86 99.3438 300.791 98.2396C300.678 97.1127 300.735 96.1109 300.723 94.9839C300.769 93.8911 300.86 92.7983 301.042 91.7169C301.224 90.6354 301.463 89.554 301.816 88.5181C302.134 87.4708 302.578 86.4577 303.079 85.4673C303.341 84.9778 303.625 84.4997 303.91 84.033C304.228 83.589 304.513 83.1109 304.866 82.6784C305.548 81.8132 306.288 80.9822 307.13 80.2651C307.54 79.8894 307.961 79.5365 308.416 79.2178C308.849 78.8763 309.315 78.5803 309.782 78.2843C310.237 77.977 310.726 77.7152 311.227 77.4647C311.717 77.1915 312.206 76.9752 312.707 76.7703C312.957 76.6679 313.173 76.554 313.469 76.4516L314.254 76.2011L315.825 75.6889C316.348 75.5181 316.906 75.4612 317.441 75.3474C317.987 75.2677 318.522 75.1083 319.068 75.0856C320.172 75.04 321.276 74.9034 322.369 75.0514C323.472 75.0742 324.554 75.336 325.635 75.5637C326.17 75.6775 326.682 75.9052 327.217 76.0645L328.002 76.3377L328.753 76.702C329.777 77.1346 330.688 77.7607 331.621 78.3526L331.279 78.2502C331.928 78.3185 332.599 78.2729 333.237 78.4323C333.874 78.5803 334.523 78.6828 335.114 78.9446L336.025 79.2975C336.321 79.4341 336.594 79.6048 336.878 79.7642L337.721 80.2537C337.982 80.4472 338.233 80.6521 338.483 80.857L339.246 81.4717C339.485 81.688 339.689 81.9384 339.906 82.1775C340.338 82.667 340.805 83.1109 341.135 83.6801C341.476 84.2265 341.886 84.7729 342.17 85.3307L342.944 87.0155C343.251 87.6416 343.365 88.2221 343.581 88.8368C343.775 89.4402 343.98 90.0435 344.105 90.6582L344.526 92.5023L344.811 94.3692C344.924 94.9839 344.958 95.61 345.027 96.2361C345.095 96.8622 345.141 97.4883 345.175 98.1144C345.254 99.3666 345.266 100.607 345.22 101.894C345.232 102.178 345.015 102.406 344.742 102.429H344.697C344.128 102.463 343.559 102.474 342.978 102.463C342.409 102.474 341.84 102.304 341.283 102.224C340.725 102.156 340.167 101.928 339.621 101.757C339.063 101.598 338.608 101.29 338.096 101.063C337.982 101.017 337.937 100.881 337.982 100.767C338.028 100.664 338.13 100.619 338.233 100.642L338.187 100.653Z" fill="#213D8C"/>
<path d="M325.238 93.2423C325.238 93.2423 325.238 93.2537 325.249 93.2764C325.249 93.2878 325.26 93.322 325.34 93.413C325.397 93.4927 325.465 93.6065 325.522 93.7431C325.545 93.8001 325.568 93.857 325.59 93.9253C325.681 94.1871 325.841 94.5514 326.057 94.9726C326.489 95.8149 327.195 96.9078 328.151 97.7501C328.618 98.1827 329.141 98.547 329.665 98.8316C329.915 98.9909 330.188 99.0934 330.438 99.1958C330.689 99.3097 330.939 99.3894 331.167 99.4463C331.622 99.5943 332.02 99.6512 332.305 99.6967C332.589 99.7423 332.749 99.765 332.749 99.765H332.783C332.942 99.7878 333.045 99.9358 333.022 100.095C332.999 100.243 332.862 100.357 332.703 100.334C332.703 100.334 332.532 100.311 332.237 100.289C331.929 100.266 331.508 100.22 330.996 100.084C330.746 100.038 330.473 99.9585 330.188 99.8447C329.904 99.7423 329.608 99.6398 329.312 99.4804C328.72 99.1958 328.117 98.8316 327.582 98.3762C326.478 97.4997 325.647 96.35 325.124 95.4507C324.862 94.9953 324.669 94.5969 324.555 94.3123C324.521 94.244 324.498 94.1871 324.475 94.1302C324.487 94.1643 324.521 94.1871 324.555 94.1985C324.6 94.2213 324.6 94.1871 324.589 94.1643C324.578 94.1416 324.578 94.1302 324.578 94.1302L324.35 93.5041C324.259 93.265 324.384 92.9918 324.634 92.9008C324.873 92.8097 325.147 92.9349 325.238 93.1854C325.226 93.2309 325.238 93.2309 325.238 93.2423Z" fill="#213D8C"/>
<path d="M319.96 100.949C319.96 100.949 320.472 100.755 321.166 100.243C321.86 99.7536 322.68 98.9454 323.249 97.9778C323.533 97.4997 323.749 96.9761 323.92 96.4866C324 96.2361 324.057 95.9857 324.113 95.758C324.182 95.5304 324.193 95.2913 324.227 95.0864C324.307 94.6766 324.296 94.3237 324.307 94.0733C324.318 93.8228 324.318 93.6862 324.318 93.6862V93.6293C324.33 93.3106 324.603 93.0715 324.91 93.0829C325.229 93.0943 325.468 93.3561 325.456 93.6749C325.456 93.6862 325.456 93.6976 325.456 93.6976C325.456 93.6976 325.445 93.857 325.422 94.1302C325.388 94.4034 325.377 94.7904 325.274 95.2572C325.217 95.4848 325.195 95.7467 325.104 95.9971C325.024 96.2589 324.944 96.5321 324.842 96.8053C324.626 97.3517 324.352 97.9209 324 98.4446C323.305 99.4918 322.361 100.346 321.576 100.835C320.802 101.347 320.187 101.552 320.187 101.552H320.176C320.005 101.609 319.823 101.518 319.755 101.347C319.709 101.199 319.789 101.017 319.96 100.949Z" fill="#213D8C"/>
<path d="M314.598 101.108C314.598 101.108 314.746 101.029 315.008 100.892C315.144 100.824 315.304 100.744 315.486 100.653C315.679 100.573 315.85 100.437 316.066 100.312C316.499 100.095 316.954 99.7651 317.443 99.4008C317.705 99.2415 317.921 99.0252 318.16 98.8203C318.399 98.6154 318.65 98.4218 318.843 98.1714C319.048 97.9324 319.253 97.6933 319.469 97.4656C319.64 97.2038 319.81 96.9534 319.981 96.7143C320.175 96.4867 320.288 96.2248 320.402 95.9858C320.527 95.7467 320.641 95.5191 320.755 95.3028C320.869 95.0979 320.891 94.8702 320.971 94.6881C321.039 94.5059 321.096 94.3352 321.142 94.21C321.244 93.9367 321.301 93.7888 321.301 93.7888L321.313 93.7546C321.369 93.618 321.517 93.5383 321.665 93.5952C321.779 93.6408 321.847 93.7432 321.847 93.8571C321.847 93.8571 321.836 94.0278 321.802 94.3352C321.779 94.4832 321.768 94.6767 321.734 94.8816C321.699 95.0979 321.688 95.3483 321.597 95.5874C321.506 95.8378 321.404 96.111 321.313 96.3956C321.21 96.6916 321.085 96.9875 320.891 97.2607C320.709 97.5453 320.516 97.8299 320.334 98.1259C320.106 98.3877 319.856 98.6381 319.605 98.9C319.378 99.1732 319.082 99.3781 318.809 99.5944C318.536 99.7993 318.285 100.038 317.989 100.186C317.42 100.516 316.886 100.801 316.385 100.995C315.895 101.211 315.497 101.302 315.213 101.382C314.928 101.45 314.757 101.495 314.757 101.495C314.644 101.53 314.518 101.45 314.496 101.336C314.462 101.256 314.507 101.154 314.598 101.108Z" fill="#213D8C"/>
<path d="M329.597 92.6615C329.597 92.6615 329.995 93.2649 330.667 94.0959C330.997 94.5057 331.395 94.9838 331.839 95.4505C332.294 95.9172 332.783 96.4067 333.33 96.8279C333.603 97.0328 333.865 97.2605 334.149 97.4312C334.422 97.6247 334.707 97.7955 334.991 97.9435C335.276 98.1029 335.549 98.2395 335.822 98.3419C336.095 98.4557 336.357 98.581 336.607 98.6379C336.858 98.7176 337.085 98.7972 337.29 98.8655C337.506 98.9111 337.688 98.9452 337.836 98.9794C338.144 99.0477 338.326 99.1046 338.326 99.1046L338.348 99.116C338.439 99.1388 338.496 99.2412 338.474 99.3323C338.451 99.4006 338.394 99.4461 338.326 99.4575C338.326 99.4575 338.144 99.4803 337.814 99.503C337.484 99.5258 337.006 99.5713 336.425 99.4803C336.129 99.4575 335.822 99.4006 335.503 99.3095C335.173 99.2298 334.832 99.1388 334.502 98.9794C333.808 98.7289 333.148 98.3078 332.533 97.841C332.214 97.6134 331.953 97.3288 331.668 97.0783C331.406 96.8051 331.145 96.5319 330.928 96.2473C330.473 95.6896 330.12 95.1204 329.859 94.6081C329.335 93.595 329.176 92.8437 329.176 92.8437C329.142 92.7185 329.221 92.5932 329.347 92.5591C329.449 92.5363 329.551 92.5819 329.597 92.6615Z" fill="#213D8C"/>
<path d="M314.926 88.9394C314.926 88.9394 314.835 89.7135 314.414 90.7608C314.197 91.2845 313.902 91.8878 313.503 92.4911C313.31 92.7985 313.082 93.0944 312.843 93.3904C312.581 93.6636 312.342 93.971 312.047 94.2328C311.478 94.7564 310.852 95.2345 310.192 95.5533C309.873 95.7468 309.543 95.8606 309.224 95.9745C308.917 96.0997 308.61 96.1907 308.325 96.2363C307.756 96.3729 307.278 96.3843 306.948 96.3843C306.618 96.3956 306.425 96.3843 306.425 96.3843C306.322 96.3843 306.254 96.2932 306.254 96.2021C306.254 96.1338 306.299 96.0655 306.368 96.0428L306.39 96.0314C306.39 96.0314 306.561 95.9631 306.868 95.8606C307.016 95.8151 307.198 95.7582 307.403 95.6899C307.597 95.5988 307.824 95.5077 308.063 95.4053C308.314 95.3142 308.553 95.1776 308.814 95.0296C309.076 94.9044 309.338 94.7337 309.611 94.5515C309.884 94.3921 310.146 94.1873 310.408 93.971C310.681 93.7774 310.92 93.527 311.17 93.2993C311.671 92.8326 312.115 92.2976 312.524 91.7967C312.923 91.2845 313.276 90.7722 313.571 90.3282C314.163 89.4403 314.505 88.8028 314.505 88.8028C314.562 88.689 314.71 88.6435 314.823 88.7118C314.892 88.7459 314.937 88.837 314.926 88.9394Z" fill="#213D8C"/>
<path d="M335.445 93.1624C335.445 93.1624 335.809 93.6861 336.412 94.4032C336.708 94.7561 337.061 95.1659 337.459 95.5871C337.857 95.9969 338.29 96.4181 338.757 96.7824C338.995 96.9645 339.223 97.1581 339.473 97.306C339.712 97.4768 339.951 97.6362 340.202 97.75C340.441 97.8866 340.68 98.0118 340.93 98.1029C341.169 98.2053 341.385 98.3192 341.613 98.3761C342.045 98.5355 342.421 98.6493 342.694 98.6948C342.967 98.7631 343.115 98.8087 343.115 98.8087L343.138 98.82C343.229 98.8542 343.286 98.9453 343.252 99.0477C343.229 99.116 343.172 99.1616 343.115 99.1729C343.115 99.1729 342.956 99.1957 342.66 99.2299C342.364 99.2526 341.943 99.2982 341.431 99.2299C341.169 99.2185 340.896 99.1729 340.611 99.0819C340.327 99.0136 340.02 98.9339 339.724 98.7973C339.109 98.581 338.518 98.2053 337.971 97.7955C337.687 97.602 337.459 97.3402 337.197 97.1239C336.97 96.8849 336.742 96.6344 336.549 96.384C336.15 95.8831 335.843 95.3822 335.616 94.9269C335.16 94.0276 335.035 93.3446 335.035 93.3446C335.012 93.2194 335.092 93.0941 335.217 93.0714C335.297 93.0486 335.388 93.0828 335.445 93.1624Z" fill="#213D8C"/>
<path d="M346.702 121.507C346.702 121.507 359.141 122.555 375.073 136.943C391.006 151.344 404.378 175.818 410.238 195.477C412.685 203.685 411.911 207.35 411.911 207.35C411.911 207.35 405.299 211.596 385.259 213.68C365.206 215.763 361.588 214.215 360.973 214.146C360.358 214.067 359.585 211.528 360.893 208.364C355.419 194.476 334.878 165.015 333.137 136.602L346.702 121.507Z" fill="#BADBF7" stroke="#213D8C" stroke-linecap="round" stroke-linejoin="round"/>
<path d="M339.781 131.354C339.781 131.354 340.783 139.334 345.073 145.129C349.363 150.923 372.659 175.375 382.492 213.953" stroke="#213D8C" stroke-width="0.5" stroke-linecap="round" stroke-linejoin="round"/>
<path d="M342.936 119.561C342.936 119.561 330.304 134.883 330.201 135.191C330.099 135.498 331.339 143.762 331.339 143.762C331.339 143.762 342.037 131.354 349.377 121.769L344.336 118.946L342.936 119.561Z" fill="#BADBF7" stroke="#213D8C" stroke-linecap="round" stroke-linejoin="round"/>
<path d="M316.555 170.411V170.4L329.039 155.874L349.034 164.867C349.034 164.867 331.759 180.235 327.741 183.479C323.747 186.724 321.22 188.625 320.048 189.035C318.865 189.444 317.067 188.625 315.109 187.646C313.152 186.667 305.026 183.127 296.798 175.989C288.582 168.84 278.965 160.826 278.339 160.405C277.725 159.995 274.493 160.405 272.171 158.504C271.818 158.208 271.466 157.923 271.147 157.65C271.955 159.403 270.373 159.699 269.224 159.267C268.063 158.845 266.015 158.504 265.753 157.844C265.48 157.195 264.319 155.681 263.784 154.599C263.238 153.529 263.511 152.562 264.558 151.788C264.603 151.754 264.672 151.697 264.729 151.651C264.729 151.651 264.285 149.101 264.091 148.156C263.909 147.246 264.205 146.085 265.218 145.618C265.389 145.55 265.662 145.413 265.992 145.242C265.753 143.979 266.049 142.305 267.448 141.565C268.143 141.212 269.11 140.598 269.918 140.085C269.918 140.085 268.894 138.799 268.222 137.991C267.539 137.16 266.731 136.431 263.124 133.608C259.516 130.785 260.495 127.029 260.962 126.676C261.428 126.323 262.339 126.414 263.784 128.531C265.229 130.637 268.439 132.311 269.907 133.517C271.727 135.02 276.53 138.549 277.144 139.846C277.759 141.133 281.367 148.532 283.734 154.599C289.549 160.587 307.325 166.427 313.186 168.681C314.472 169.17 315.587 169.751 316.555 170.411Z" fill="white"/>
<path d="M329.04 155.874L318.82 167.77C321.347 171.515 325.33 176.888 330.11 181.498C336.232 176.262 349.035 164.867 349.035 164.867L329.04 155.874Z" fill="#BADBF7"/>
<path d="M270.795 158.06C270.795 158.06 270.533 157.821 270.157 157.456C269.771 157.081 269.258 156.637 268.746 156.181C268.496 155.954 268.2 155.806 267.95 155.612C267.824 155.521 267.699 155.441 267.574 155.362C267.438 155.305 267.324 155.259 267.21 155.214C266.755 155.02 266.447 154.895 266.447 154.895L266.391 154.872C266.231 154.804 266.152 154.622 266.22 154.463C266.288 154.315 266.447 154.235 266.607 154.28C266.607 154.28 266.96 154.394 267.483 154.554C267.62 154.599 267.756 154.645 267.916 154.69C268.052 154.758 268.2 154.838 268.348 154.929C268.644 155.1 268.997 155.259 269.281 155.476C269.862 155.897 270.453 156.329 270.852 156.648C271.261 156.978 271.546 157.195 271.546 157.195C271.796 157.388 271.842 157.752 271.637 157.991C271.443 158.242 271.091 158.287 270.84 158.094C270.818 158.082 270.806 158.071 270.795 158.06Z" fill="#213D8C"/>
<path d="M316.556 170.399L329.04 155.874L349.035 164.867C349.035 164.867 331.76 180.235 327.743 183.479C323.748 186.723 321.222 188.624 320.05 189.034C318.866 189.444 317.068 188.624 315.111 187.645C313.153 186.666 305.028 183.126 296.8 175.989C288.583 168.84 278.967 160.826 278.341 160.405C277.726 159.995 274.494 160.405 272.173 158.504C271.82 158.208 271.467 157.923 271.148 157.65" stroke="#213D8C" stroke-linecap="round" stroke-linejoin="round"/>
<path d="M316.555 170.411C315.576 169.739 314.472 169.17 313.198 168.669C307.337 166.415 289.561 160.576 283.745 154.588C281.378 148.52 277.771 141.11 277.156 139.835C276.542 138.537 271.739 135.008 269.918 133.506C268.45 132.299 265.241 130.626 263.796 128.52C262.35 126.414 261.44 126.311 260.973 126.664C260.507 127.017 259.528 130.774 263.136 133.597C266.743 136.42 267.551 137.148 268.234 137.979C268.894 138.788 269.93 140.074 269.93 140.074" stroke="#213D8C" stroke-linecap="round" stroke-linejoin="round"/>
<path d="M322.598 178.573C322.598 178.573 322.53 178.425 322.405 178.174C322.28 177.924 322.12 177.548 321.881 177.127C321.665 176.694 321.381 176.216 321.062 175.716C320.914 175.454 320.721 175.215 320.55 174.953C320.379 174.691 320.186 174.441 319.981 174.201C319.594 173.701 319.161 173.245 318.74 172.835C318.331 172.414 317.875 172.096 317.534 171.777C316.772 171.23 316.248 170.889 316.248 170.889L316.214 170.866C315.952 170.695 315.884 170.342 316.055 170.081C316.225 169.819 316.578 169.751 316.84 169.921C316.851 169.933 316.863 169.933 316.874 169.944C316.874 169.944 317.409 170.354 318.183 171.003C318.535 171.367 318.979 171.743 319.389 172.221C319.799 172.687 320.22 173.2 320.595 173.758C320.789 174.019 320.971 174.304 321.13 174.589C321.29 174.873 321.472 175.135 321.608 175.408C321.893 175.955 322.154 176.467 322.337 176.922C322.541 177.377 322.678 177.753 322.78 178.015C322.883 178.277 322.94 178.425 322.94 178.425C322.974 178.516 322.928 178.618 322.837 178.664C322.735 178.698 322.644 178.652 322.598 178.573Z" fill="#213D8C"/>
<path d="M264.739 151.64C264.682 151.685 264.614 151.742 264.568 151.776C263.521 152.55 263.248 153.518 263.794 154.588C264.341 155.669 265.501 157.183 265.763 157.832C266.025 158.493 268.073 158.834 269.234 159.255C270.384 159.688 271.965 159.392 271.157 157.639V157.627" stroke="#213D8C" stroke-linecap="round" stroke-linejoin="round"/>
<path d="M269.578 147.792L265.117 152.072C264.889 152.289 264.525 152.289 264.309 152.061C264.093 151.833 264.104 151.469 264.32 151.253C264.332 151.241 264.343 151.23 264.366 151.218L264.377 151.207L269.237 147.394C269.35 147.303 269.51 147.325 269.601 147.439C269.692 147.553 269.68 147.701 269.578 147.792Z" fill="#213D8C"/>
<path d="M266.222 145.128C266.154 145.163 266.074 145.197 266.006 145.231C265.676 145.39 265.403 145.527 265.232 145.607C264.219 146.073 263.923 147.234 264.105 148.145C264.299 149.078 264.742 151.64 264.742 151.64" stroke="#213D8C" stroke-linecap="round" stroke-linejoin="round"/>
<path d="M270.326 143.284L266.468 145.64C266.195 145.8 265.854 145.72 265.683 145.447C265.524 145.174 265.603 144.821 265.876 144.661C265.899 144.65 265.933 144.627 265.956 144.616L270.133 142.92C270.235 142.874 270.36 142.931 270.394 143.034C270.451 143.125 270.406 143.238 270.326 143.284Z" fill="#213D8C"/>
<path d="M270.043 140.005C270.009 140.028 269.964 140.051 269.929 140.085C269.121 140.609 268.154 141.212 267.46 141.565C266.072 142.305 265.764 143.978 266.003 145.242" stroke="#213D8C" stroke-linecap="round" stroke-linejoin="round"/>
<path d="M271.921 139.414C271.921 139.414 271.818 139.482 271.659 139.573C271.5 139.664 271.283 139.801 271.101 139.937C270.726 140.211 270.35 140.484 270.35 140.484L270.282 140.529C270.02 140.711 269.667 140.654 269.474 140.404C269.292 140.142 269.349 139.789 269.599 139.596C269.645 139.562 269.69 139.539 269.736 139.528C269.736 139.528 270.225 139.334 270.726 139.152C270.965 139.049 271.204 138.981 271.386 138.936C271.568 138.89 271.682 138.856 271.682 138.856C271.852 138.81 272.023 138.901 272.069 139.072C272.103 139.197 272.046 139.345 271.921 139.414Z" fill="#213D8C"/>
<path d="M340.089 136.977C336.345 140.04 321.812 162.818 321.812 162.818L340.419 179.472C340.419 179.472 351.185 169.136 356.898 159.801C362.6 150.467 359.311 141.554 354.281 137.353C349.649 133.506 342.9 134.678 340.089 136.977Z" fill="#BADBF7" stroke="#213D8C" stroke-linecap="round" stroke-linejoin="round"/>
<path d="M322.894 158.492L318.797 164.719C318.797 164.719 329.016 174.839 338.576 182.318L344.164 177.241C333.386 168.828 330.382 166.21 322.894 158.492Z" fill="#E1EDF7" stroke="#213D8C" stroke-linecap="round" stroke-linejoin="round"/>
<path d="M352.177 229.81H62.3086V236.902H352.177V229.81Z" fill="#F7CDBA" stroke="#213D8C" stroke-linecap="round" stroke-linejoin="round"/>
<path d="M70.8102 409.43H65.0859L98.2596 236.902H114.602L70.8102 409.43Z" fill="#F7CDBA" stroke="#213D8C" stroke-linecap="round" stroke-linejoin="round"/>
<path d="M343.679 409.43H349.414L316.229 236.902H299.898L343.679 409.43Z" fill="#F7CDBA" stroke="#213D8C" stroke-linecap="round" stroke-linejoin="round"/>
<path d="M151.315 68.0616C151.315 43.9741 128.486 24.4399 100.332 24.4399C72.1766 24.4399 49.3477 43.9741 49.3477 68.0616C49.3477 92.1491 72.1766 111.683 100.332 111.683C102.892 111.683 105.407 111.467 107.877 111.205C110.244 110.955 111.393 111.353 112.599 112.139C119.507 116.646 127.508 120.46 135.372 120.46C137.636 120.46 138.615 119.424 137.477 118.024C136.692 117.045 130.432 112.059 130.239 106.219C130.159 103.999 131.775 102.406 132.64 101.791C144.032 93.7883 151.315 81.6535 151.315 68.0616Z" fill="white" stroke="#213D8C" stroke-linecap="round" stroke-linejoin="round"/>
<path d="M93.7194 92.0009C91.5799 92.0009 89.5314 91.1471 88.0178 89.6445L74.8167 76.4282C71.6757 73.2864 71.6757 68.1752 74.8167 65.0333C77.9576 61.8915 83.0674 61.8915 86.2084 65.0333L93.7194 72.5464L114.443 51.8171C117.584 48.6638 122.694 48.6638 125.835 51.8171C128.976 54.9589 128.976 60.0701 125.835 63.212L99.4209 89.6445C97.9073 91.1585 95.8589 92.0009 93.7194 92.0009Z" fill="#A7D678" stroke="#213D8C" stroke-linecap="round" stroke-linejoin="round"/>
<path d="M342.73 60.9927C342.73 36.9052 365.559 17.3711 393.714 17.3711C421.869 17.3711 444.698 36.9052 444.698 60.9927C444.698 85.0802 421.869 104.614 393.714 104.614C391.154 104.614 388.639 104.398 386.181 104.136C383.813 103.886 382.664 104.284 381.458 105.081C374.55 109.589 366.549 113.402 358.686 113.402C356.421 113.402 355.442 112.367 356.58 110.966C357.366 109.987 363.625 105.001 363.818 99.1616C363.898 96.9418 362.282 95.3368 361.417 94.7335C350.014 86.7308 342.73 74.596 342.73 60.9927Z" fill="white" stroke="#213D8C" stroke-linecap="round" stroke-linejoin="round"/>
<path d="M441.366 25.5102L453.099 24.1898C455.853 23.871 458.334 25.8631 458.641 28.6066C458.949 31.3614 456.968 33.8316 454.226 34.1503C453.44 34.2414 452.644 34.1276 451.95 33.8771L440.854 29.836C439.693 29.4148 439.101 28.1284 439.522 26.9673C439.818 26.1477 440.558 25.6013 441.366 25.5102Z" fill="#FFD373" stroke="#213D8C" stroke-linecap="round" stroke-linejoin="round"/>
<path d="M435.391 17.0977L440.114 6.272C441.218 3.73347 444.176 2.57235 446.714 3.68794C449.252 4.79214 450.413 7.75185 449.298 10.279C448.979 11.0075 448.49 11.6336 447.921 12.1117L438.873 19.7045C437.929 20.5014 436.517 20.3762 435.721 19.4313C435.163 18.7597 435.061 17.849 435.391 17.0977Z" fill="#FFD373" stroke="#213D8C" stroke-linecap="round" stroke-linejoin="round"/>
<path d="M425.125 18.0654L418.115 8.56017C416.476 6.329 416.942 3.19854 419.173 1.54793C421.403 -0.0912986 424.533 0.375425 426.183 2.60659C426.65 3.24407 426.957 3.984 427.082 4.71254L429.131 16.3465C429.347 17.5645 428.539 18.7256 427.321 18.9419C426.445 19.0899 425.614 18.7256 425.125 18.0654Z" fill="#FFD373" stroke="#213D8C" stroke-linecap="round" stroke-linejoin="round"/>
<path d="M400.837 30.2687C412.183 33.3992 418.84 45.1356 415.722 56.4736C411.785 70.7826 401.895 68.9727 392.711 82.0751C391.619 81.7677 388.774 80.9823 386.998 80.5042C385.234 80.0147 382.378 79.2292 381.285 78.9332C380.113 62.9849 370.69 59.4674 374.628 45.1583C377.757 33.809 389.491 27.1496 400.837 30.2687Z" fill="#FFD373" stroke="#213D8C" stroke-linecap="round" stroke-linejoin="round"/>
<path d="M405.596 63.6111C404.697 62.7915 404.617 61.4141 405.425 60.5034C406.791 58.9552 407.724 57.1111 408.453 54.4815C408.703 53.5481 408.874 52.5918 408.931 51.6356C408.999 50.4176 410.057 49.4841 411.275 49.5638C412.504 49.6435 413.426 50.6908 413.346 51.9088C413.266 53.1724 413.062 54.436 412.72 55.6654C411.81 58.978 410.581 61.3799 408.737 63.4517C407.929 64.3624 406.529 64.4535 405.608 63.6339C405.608 63.6225 405.607 63.6225 405.596 63.6111Z" fill="#F2FCFF" stroke="#213D8C" stroke-linecap="round" stroke-linejoin="round"/>
<path d="M408.699 46.9453C408.437 46.7063 408.244 46.4103 408.107 46.0688C408.027 45.8525 407.948 45.6476 407.857 45.4313C407.379 44.3044 407.902 43.0067 409.018 42.5285C410.144 42.0504 411.442 42.5741 411.92 43.701C412.045 43.9856 412.159 44.2702 412.261 44.5548C412.682 45.7045 412.09 46.9795 410.952 47.4007C410.156 47.6739 409.302 47.469 408.699 46.9453Z" fill="#F2FCFF" stroke="#213D8C" stroke-linecap="round" stroke-linejoin="round"/>
<path d="M396.763 76.1103C396.672 75.0402 395.454 73.9246 394.043 73.5376L384.495 70.908C383.073 70.521 381.468 70.8511 380.842 71.7162L380.262 72.5245C380.74 74.4369 381.092 76.5314 381.275 78.922C382.367 79.218 385.224 80.0148 386.987 80.4929C388.751 80.9824 391.608 81.7679 392.7 82.0638C394.077 80.1059 395.454 78.4894 396.843 77.0892L396.763 76.1103Z" fill="#F2FCFF" stroke="#213D8C" stroke-linecap="round" stroke-linejoin="round"/>
<path d="M388.661 88.1196C389.162 88.2562 389.401 88.7684 389.185 89.2352L386.237 95.3709C386.021 95.849 385.441 96.1222 384.929 95.9856L381.298 94.9838C380.786 94.8472 380.433 94.3122 380.49 93.7886L381.105 87.0154C381.162 86.4917 381.628 86.1844 382.129 86.321L388.661 88.1196Z" fill="#7096B5" stroke="#213D8C" stroke-linecap="round" stroke-linejoin="round"/>
<path d="M394.213 78.9786C395.158 79.229 395.59 80.1739 395.192 81.0618L389.695 92.5136C389.297 93.4015 388.193 93.9138 387.26 93.652L380.477 91.7851C379.532 91.5232 378.861 90.5215 378.963 89.5539L380.101 76.9068C380.215 75.9392 381.069 75.3587 382.013 75.6205L394.213 78.9786Z" fill="#BADBF7" stroke="#213D8C" stroke-linecap="round" stroke-linejoin="round"/>
<path d="M396.625 80.436C396.42 81.1987 395.624 81.6541 394.861 81.4378L379.771 77.2828C378.997 77.0779 378.553 76.281 378.77 75.5183C378.986 74.7443 379.771 74.3003 380.533 74.5166L395.624 78.6716C396.386 78.8765 396.83 79.6733 396.625 80.436Z" fill="#F2FCFF" stroke="#213D8C" stroke-linecap="round" stroke-linejoin="round"/>
<path d="M395.236 83.703C395.031 84.4657 394.235 84.921 393.472 84.7047L379.292 80.8002C378.53 80.5839 378.075 79.7984 378.28 79.0244C378.496 78.2617 379.281 77.8063 380.055 78.0226L394.235 81.9272C394.997 82.1435 395.441 82.9403 395.236 83.703Z" fill="#F2FCFF" stroke="#213D8C" stroke-linecap="round" stroke-linejoin="round"/>
<path d="M393.846 86.9701C393.63 87.7328 392.844 88.1882 392.071 87.9719L378.79 84.3064C378.027 84.0901 377.572 83.3046 377.788 82.542C377.993 81.7793 378.79 81.3239 379.552 81.5402L392.833 85.2057C393.607 85.4106 394.062 86.2074 393.846 86.9701Z" fill="#F2FCFF" stroke="#213D8C" stroke-linecap="round" stroke-linejoin="round"/>
<path d="M392.471 90.2373C392.255 91.0113 391.47 91.4553 390.696 91.2504L378.314 87.8354C377.54 87.6191 377.096 86.8336 377.312 86.0595C377.529 85.2968 378.314 84.8415 379.076 85.0578L391.458 88.4728C392.232 88.6777 392.676 89.4746 392.471 90.2373Z" fill="#F2FCFF" stroke="#213D8C" stroke-linecap="round" stroke-linejoin="round"/>
<path d="M237.951 98.5809H235.402V96.0424C235.402 95.2227 234.742 94.5625 233.922 94.5625C233.103 94.5625 232.443 95.2227 232.443 96.0424V98.5809H229.905C229.086 98.5809 228.426 99.2411 228.426 100.061C228.426 100.88 229.086 101.541 229.905 101.541H232.443V104.091C232.443 104.91 233.103 105.57 233.922 105.57C234.742 105.57 235.402 104.91 235.402 104.091V101.541H237.951C238.77 101.541 239.431 100.88 239.431 100.061C239.431 99.2411 238.77 98.5809 237.951 98.5809Z" fill="#BADBF7"/>
<path d="M291.486 199.268H288.937V196.73C288.937 195.91 288.277 195.25 287.458 195.25C286.638 195.25 285.978 195.91 285.978 196.73V199.268H283.44C282.621 199.268 281.961 199.929 281.961 200.748C281.961 201.568 282.621 202.228 283.44 202.228H285.978V204.778C285.978 205.598 286.638 206.258 287.458 206.258C288.277 206.258 288.937 205.598 288.937 204.778V202.228H291.486C292.306 202.228 292.966 201.568 292.966 200.748C292.966 199.94 292.306 199.268 291.486 199.268Z" fill="#FFD373"/>
<path d="M304.641 31.3044L302.843 29.5058L304.641 27.7072C305.222 27.1267 305.222 26.1932 304.641 25.6127C304.061 25.0321 303.128 25.0321 302.547 25.6127L300.749 27.4113L298.951 25.6127C298.371 25.0321 297.438 25.0321 296.857 25.6127C296.277 26.1932 296.277 27.1267 296.857 27.7072L298.655 29.5058L296.857 31.3044C296.277 31.885 296.277 32.8184 296.857 33.399C297.438 33.9795 298.371 33.9795 298.951 33.399L300.749 31.6004L302.547 33.399C303.128 33.9795 304.061 33.9795 304.641 33.399C305.222 32.8184 305.222 31.8736 304.641 31.3044Z" fill="#FF879F"/>
<path d="M444.378 189.82C444.378 192.586 442.136 194.829 439.371 194.829C436.606 194.829 434.375 192.586 434.375 189.82C434.375 187.054 436.617 184.811 439.371 184.811C442.136 184.811 444.378 187.054 444.378 189.82Z" stroke="#FF879F" stroke-miterlimit="10"/>
<path d="M126.062 331.34C126.062 334.106 123.82 336.349 121.055 336.349C118.289 336.349 116.059 334.106 116.059 331.34C116.059 328.574 118.301 326.331 121.055 326.331C123.82 326.331 126.062 328.574 126.062 331.34Z" stroke="#FF879F" stroke-miterlimit="10"/>
<path d="M174.039 35.9146L179.126 38.51L174.335 41.6177L174.039 35.9146Z" stroke="#2E7EFB" stroke-miterlimit="10" stroke-linejoin="round"/>
<path d="M288.695 277.678L293.794 280.262L289.003 283.381L288.695 277.678Z" stroke="#2E7EFB" stroke-miterlimit="10" stroke-linejoin="round"/>
<path d="M37.3633 164.901C41.8926 164.901 41.8926 169.17 46.4334 169.17C50.9741 169.17 50.9741 164.901 55.5035 164.901C60.0329 164.901 60.0443 169.17 64.5736 169.17C69.1144 169.17 69.1144 164.901 73.6437 164.901C78.1845 164.901 78.1845 169.17 82.7253 169.17C87.266 169.17 87.266 164.901 91.8067 164.901" stroke="#FF879F" stroke-miterlimit="10"/>
<path d="M399.328 135.509C403.869 135.509 403.869 139.778 408.398 139.778C412.939 139.778 412.939 135.509 417.468 135.509C422.009 135.509 422.009 139.778 426.55 139.778C431.091 139.778 431.091 135.509 435.62 135.509C440.161 135.509 440.161 139.778 444.701 139.778C449.242 139.778 449.242 135.509 453.783 135.509" stroke="#2E7EFB" stroke-miterlimit="10" stroke-linecap="round" stroke-linejoin="round"/>
</svg>
