<svg width="45" height="50" viewBox="0 0 45 50" fill="none" xmlns="http://www.w3.org/2000/svg">
<g clip-path="url(#clip0_3928_3091)">
<path fill-rule="evenodd" clip-rule="evenodd" d="M33.2683 28.8167C35.818 28.8167 38.1278 29.8543 39.8032 31.5226C41.4786 33.1991 42.5074 35.5021 42.5074 38.0615C42.5074 39.9251 41.9503 41.6667 41.0028 43.1193L45.0002 47.4772L42.2431 50L38.388 45.756C36.9241 46.7326 35.1633 47.3022 33.2723 47.3022C30.7226 47.3022 28.4129 46.2646 26.7415 44.5964C25.0661 42.9199 24.0373 40.6169 24.0373 38.0615C24.0373 35.5103 25.0743 33.1991 26.7415 31.5226C28.4088 29.8462 30.7145 28.8167 33.2683 28.8167ZM2.3506 16.626V35.7869C2.3506 35.8968 2.39127 35.9985 2.4604 36.0677C2.52953 36.1369 2.62713 36.1816 2.74099 36.1816H20.0359C21.2273 36.3037 21.2639 38.3667 20.0359 38.5457H8.96681V42.9403C8.96681 43.0542 9.00748 43.1519 9.08068 43.221C9.14981 43.2902 9.2474 43.3309 9.36127 43.3309H20.0399C20.902 43.4286 21.1826 45.3898 20.0399 45.695H9.37347C8.61709 45.695 7.91766 45.3857 7.42967 44.8812C6.92543 44.3766 6.61637 43.693 6.61637 42.9362V38.5417H2.75319C1.99682 38.5417 1.29738 38.2324 0.809396 37.7279C0.305149 37.2233 -0.00390625 36.5397 -0.00390625 35.7829V2.75879C0.00016026 2.00195 0.309215 1.30208 0.813462 0.813802C1.31771 0.309245 2.00088 0 2.75725 0H31.7596C32.516 0 33.2154 0.309245 33.7034 0.809733C34.2076 1.31429 34.5126 2.00195 34.5126 2.75472V7.14925H38.3758C39.1322 7.14925 39.8316 7.4585 40.3196 7.95898C40.8239 8.46354 41.1329 9.15121 41.1329 9.90397V24.9715C41.0516 25.8341 38.9329 25.8464 38.754 24.9715V9.91211C38.754 9.79818 38.7133 9.70052 38.6442 9.63135C38.5751 9.56217 38.4775 9.51742 38.3636 9.51742H34.5004V24.9756C34.293 25.7568 32.5322 25.8748 32.1378 24.9756V16.626H2.3506ZM2.3506 14.4491H32.1378V2.75879C32.1378 2.64486 32.0971 2.5472 32.0239 2.47803C31.9548 2.40885 31.8572 2.3641 31.7433 2.3641H2.74099C2.62713 2.3641 2.52953 2.40479 2.4604 2.47803C2.39127 2.5472 2.3506 2.64486 2.3506 2.75879V14.4491ZM15.8433 8.76465H17.7627C17.8643 8.76465 17.9335 8.83382 17.9335 8.93555V13.1917C17.9335 13.2935 17.8643 13.3626 17.7627 13.3626H15.8433C15.7416 13.3626 15.6725 13.2935 15.6725 13.1917V8.93555C15.6725 8.87044 15.7416 8.76465 15.8433 8.76465ZM25.302 8.76465H27.2214C27.323 8.76465 27.3922 8.83382 27.3922 8.93555V13.1917C27.3922 13.2935 27.323 13.3626 27.2214 13.3626H25.302C25.2003 13.3626 25.1312 13.2935 25.1312 13.1917V8.93555C25.1312 8.87044 25.2003 8.76465 25.302 8.76465ZM20.5726 5.16357H22.492C22.5978 5.16357 22.6628 5.23275 22.6628 5.33447V13.2243C22.6628 13.326 22.5937 13.3952 22.492 13.3952H20.5726C20.471 13.3952 20.4018 13.326 20.4018 13.2243V5.33447C20.4018 5.23275 20.471 5.16357 20.5726 5.16357ZM6.38865 6.46566H8.30804C8.4097 6.46566 8.47883 6.53483 8.47883 6.63656V13.2243C8.47883 13.326 8.4097 13.3952 8.30804 13.3952H6.38865C6.28698 13.3952 6.21785 13.326 6.21785 13.2243V6.64062C6.18532 6.53483 6.28698 6.46566 6.38865 6.46566ZM11.1139 5.16357H13.0333C13.135 5.16357 13.2041 5.23275 13.2041 5.33447V13.2243C13.2041 13.326 13.135 13.3952 13.0333 13.3952H11.1139C11.0123 13.3952 10.9431 13.326 10.9431 13.2243V5.33447C10.9431 5.23275 11.0123 5.16357 11.1139 5.16357ZM17.3601 27.3356L22.7076 27.4292C22.7076 29.3498 21.7641 31.1117 20.1904 32.1818L17.3601 27.3356ZM17.0673 25.6999L17.0063 19.4661V19.0552L17.417 19.0877C17.9213 19.1203 18.4255 19.2139 18.8972 19.34C19.3689 19.4661 19.8081 19.6533 20.2514 19.873C22.4229 21.0083 23.9316 23.2747 24.0576 25.8545L24.0902 26.2655H23.6794L17.4821 26.0783H17.1364L17.0673 25.6999ZM17.7586 19.8405L17.8196 25.3215L23.2647 25.4801C23.0451 23.3398 21.7235 21.4803 19.8976 20.5078C19.5194 20.3166 19.1128 20.1579 18.702 20.0317C18.3564 19.9666 18.0717 19.9056 17.7586 19.8405ZM15.5668 26.7782L18.6207 32.0679C17.6773 32.605 16.6403 32.8857 15.5668 32.8857C12.1997 32.8857 9.46293 30.1473 9.46293 26.7741C9.46293 23.4985 12.0452 20.7926 15.3146 20.6665L15.5668 26.7782ZM38.1806 33.1421C36.9241 31.8848 35.1877 31.1035 33.2683 31.1035C31.353 31.1035 29.6125 31.8848 28.3559 33.1421C27.0994 34.3994 26.3186 36.1369 26.3186 38.0575C26.3186 39.974 27.0994 41.7155 28.3559 42.9728C29.6125 44.2301 31.3489 45.0114 33.2683 45.0114C35.1836 45.0114 36.9241 44.2301 38.1806 42.9728C39.4372 41.7155 40.2179 39.974 40.2179 38.0575C40.2179 36.141 39.4372 34.3994 38.1806 33.1421Z" fill="#4F71CE"/>
</g>
<defs>
<clipPath id="clip0_3928_3091">
<rect width="45" height="50" fill="white"/>
</clipPath>
</defs>
</svg>
