<svg width="224" height="224" viewBox="0 0 224 224" fill="none" xmlns="http://www.w3.org/2000/svg">
<g clip-path="url(#clip0_255_6720)">
<path d="M205.952 37.326C205.802 37.326 205.683 37.2048 205.683 37.0567V34.9648C205.683 34.8155 205.804 34.6956 205.952 34.6956C206.101 34.6956 206.221 34.8167 206.221 34.9648V37.0567C206.221 37.2061 206.1 37.326 205.952 37.326Z" fill="black"/>
<path d="M205.952 42.2001C205.802 42.2001 205.683 42.0789 205.683 41.9308V39.8389C205.683 39.6895 205.804 39.5696 205.952 39.5696C206.101 39.5696 206.221 39.6908 206.221 39.8389V41.9308C206.221 42.0789 206.1 42.2001 205.952 42.2001Z" fill="black"/>
<path d="M204.562 38.7178H202.472C202.323 38.7178 202.203 38.5966 202.203 38.4485C202.203 38.2992 202.324 38.1792 202.472 38.1792H204.562C204.711 38.1792 204.831 38.3004 204.831 38.4485C204.832 38.5966 204.711 38.7178 204.562 38.7178Z" fill="black"/>
<path d="M209.431 38.7178H207.341C207.192 38.7178 207.072 38.5966 207.072 38.4485C207.072 38.2992 207.193 38.1792 207.341 38.1792H209.431C209.58 38.1792 209.7 38.3004 209.7 38.4485C209.701 38.5966 209.58 38.7178 209.431 38.7178Z" fill="black"/>
<path d="M212.004 51.2018C211.625 51.2018 211.251 51.0953 210.918 50.8872C209.954 50.2862 209.639 49.0132 210.218 48.0499C210.496 47.586 210.939 47.2604 211.465 47.1343C211.999 47.0058 212.554 47.0963 213.027 47.3926C213.992 47.9936 214.306 49.2666 213.728 50.2299C213.449 50.6938 213.007 51.0194 212.481 51.1455C212.323 51.1834 212.163 51.2018 212.004 51.2018ZM211.94 47.6178C211.823 47.6178 211.707 47.6312 211.591 47.6594C211.207 47.7524 210.884 47.9899 210.68 48.3289C210.252 49.0413 210.487 49.9839 211.203 50.4306C211.553 50.6485 211.962 50.7158 212.355 50.6216C212.739 50.5286 213.062 50.2911 213.266 49.952C213.694 49.2396 213.458 48.2971 212.742 47.8503C212.495 47.6961 212.219 47.6178 211.94 47.6178Z" fill="black"/>
<path d="M166.071 211.785H65.8195C61.4998 211.785 58.4395 208.297 58.9848 203.994L83.6694 9.13513C84.2147 4.83262 88.159 1.3441 92.4787 1.3441L187.699 0.232666C198.629 0.232666 200.112 4.83262 199.567 9.13513L174.881 203.994C174.337 208.297 170.392 211.785 166.071 211.785Z" fill="#157B6C"/>
<path d="M160.04 211.785H59.7873C55.4676 211.785 52.4072 208.28 52.9526 203.954L77.6371 8.10072C78.1824 3.77617 82.1268 0.269287 86.4465 0.269287H186.7C191.019 0.269287 194.08 3.77495 193.534 8.10072L168.849 203.954C168.305 208.28 164.36 211.785 160.04 211.785Z" fill="white"/>
<path d="M160.04 212.056H59.7873C57.6305 212.056 55.7048 211.216 54.3623 209.692C53.0051 208.151 52.4097 206.102 52.6848 203.921L77.3693 8.06645C77.9305 3.61827 82.0021 0 86.4465 0H186.7C188.856 0 190.782 0.839694 192.125 2.36363C193.482 3.9047 194.077 5.95375 193.802 8.135L169.116 203.988C168.556 208.436 164.485 212.056 160.04 212.056ZM86.4465 0.539803C82.2649 0.539803 78.4331 3.94632 77.9049 8.135L53.2191 203.988C52.9635 206.014 53.5138 207.912 54.7658 209.335C56.0043 210.741 57.787 211.515 59.7861 211.515H160.038C164.221 211.515 168.053 208.107 168.58 203.92L193.267 8.06645C193.522 6.04066 192.972 4.14216 191.72 2.71983C190.481 1.3134 188.699 0.539803 186.7 0.539803H86.4465Z" fill="black"/>
<path d="M58.6649 204.224L82.2356 17.2173C82.3616 16.2185 83.2725 15.4094 84.2689 15.4094H185.06C186.058 15.4094 186.764 16.2185 186.639 17.2173L163.068 204.224C162.942 205.223 162.031 206.032 161.035 206.032H60.2434C59.2457 206.032 58.539 205.223 58.6649 204.224Z" fill="white"/>
<path d="M135.318 10.4999C134.461 10.4999 133.694 10.1657 133.159 9.5574C132.618 8.94293 132.38 8.12894 132.49 7.26231C132.71 5.51438 134.311 4.09204 136.058 4.09204C136.915 4.09204 137.682 4.42621 138.217 5.03455C138.758 5.64902 138.996 6.46301 138.886 7.32964C138.665 9.07879 137.064 10.4999 135.318 10.4999ZM136.057 4.63307C134.572 4.63307 133.211 5.84365 133.024 7.33086C132.935 8.04081 133.126 8.70546 133.564 9.2012C133.995 9.69082 134.618 9.96133 135.318 9.96133C136.802 9.96133 138.163 8.75075 138.35 7.26354C138.44 6.55359 138.249 5.88894 137.811 5.3932C137.38 4.90358 136.757 4.63307 136.057 4.63307Z" fill="black"/>
<path d="M178.194 84.3537C178.183 84.3537 178.17 84.3525 178.159 84.3512C178.011 84.3329 177.907 84.1982 177.926 84.0501L186.371 17.1831C186.422 16.7755 186.313 16.3948 186.064 16.112C185.818 15.8329 185.461 15.6787 185.06 15.6787H84.2689C83.4045 15.6787 82.6122 16.3838 82.5022 17.2504L78.597 48.2395C78.5786 48.3876 78.4429 48.4929 78.2962 48.4733C78.1482 48.4549 78.0443 48.3203 78.0626 48.1722L81.9679 17.1831C82.1097 16.0557 83.1416 15.1389 84.2689 15.1389H185.06C185.618 15.1389 186.118 15.358 186.467 15.7546C186.821 16.1561 186.976 16.6873 186.905 17.2504L178.46 84.1175C178.444 84.2545 178.328 84.3537 178.194 84.3537Z" fill="black"/>
<path d="M67.1195 135.16C67.1084 135.16 67.0974 135.16 67.0864 135.158C66.9385 135.139 66.8333 135.005 66.8517 134.858L67.6134 128.569C67.6318 128.421 67.7675 128.316 67.913 128.334C68.0609 128.352 68.1661 128.487 68.1477 128.634L67.386 134.923C67.3701 135.06 67.2539 135.16 67.1195 135.16Z" fill="black"/>
<path d="M62.3802 175.016C62.3692 175.016 62.357 175.015 62.346 175.014C62.198 174.995 62.0941 174.861 62.1124 174.713L66.1632 142.573C66.1815 142.425 66.3184 142.324 66.4639 142.339C66.6119 142.357 66.7158 142.492 66.6975 142.64L62.6468 174.78C62.6296 174.917 62.5135 175.016 62.3802 175.016Z" fill="black"/>
<path d="M87.2836 206.391L60.2417 206.302C59.6841 206.302 59.1841 206.083 58.8344 205.686C58.481 205.284 58.3258 204.753 58.3967 204.19L60.8151 185.002C60.8335 184.854 60.9692 184.754 61.1159 184.768C61.2638 184.787 61.3678 184.921 61.3494 185.069L58.9322 204.257C58.8808 204.665 58.9897 205.046 59.2391 205.329C59.4848 205.608 59.8419 205.762 60.2429 205.762L87.2848 205.851C87.434 205.851 87.5538 205.972 87.5538 206.122C87.5526 206.271 87.4327 206.391 87.2836 206.391Z" fill="black"/>
<path d="M171.791 35.7042H117.572C116.481 35.7042 115.436 35.2403 114.706 34.43C113.975 33.6197 113.618 32.5327 113.728 31.447C113.928 29.464 115.581 27.9683 117.572 27.9683H171.79C172.881 27.9683 173.925 28.4322 174.656 29.2425C175.387 30.0528 175.744 31.1398 175.634 32.2255C175.435 34.2084 173.782 35.7042 171.791 35.7042ZM117.572 28.5068C115.859 28.5068 114.437 29.7933 114.263 31.4996C114.169 32.4336 114.475 33.37 115.104 34.0664C115.734 34.7629 116.633 35.1632 117.572 35.1632H171.79C173.503 35.1632 174.925 33.8767 175.099 32.1704C175.193 31.2352 174.887 30.3001 174.257 29.6024C173.628 28.9059 172.729 28.5056 171.791 28.5056H117.572V28.5068Z" fill="black"/>
<path d="M170.363 49.8212H126.924C125.834 49.8212 124.789 49.3572 124.058 48.5469C123.327 47.7366 122.97 46.6497 123.08 45.5639C123.281 43.581 124.934 42.0852 126.924 42.0852H170.363C171.454 42.0852 172.498 42.5491 173.229 43.3594C173.961 44.1698 174.318 45.2567 174.207 46.3424C174.007 48.3254 172.354 49.8212 170.363 49.8212ZM126.924 42.6238C125.211 42.6238 123.789 43.9103 123.616 45.6166C123.522 46.5517 123.827 47.4869 124.457 48.1846C125.087 48.8811 125.985 49.2814 126.923 49.2814H170.362C172.075 49.2814 173.497 47.9949 173.67 46.2886C173.764 45.3534 173.458 44.4182 172.828 43.7205C172.199 43.024 171.3 42.6238 170.362 42.6238H126.924Z" fill="black"/>
<path d="M102.289 147.511C99.4339 147.916 96.7306 145.523 96.2635 142.176L90.4619 100.728L100.756 99.2649L106.568 140.788C107.03 144.105 105.119 147.108 102.289 147.511Z" fill="white"/>
<path d="M101.661 147.824C100.577 147.824 99.4984 147.453 98.5643 146.749C97.19 145.713 96.2534 144.06 95.9966 142.213L90.1951 100.764C90.1743 100.618 90.277 100.48 90.4237 100.46L100.717 98.9969C100.788 98.9859 100.86 99.0055 100.918 99.0483C100.975 99.0912 101.013 99.156 101.023 99.227L106.836 140.75C107.317 144.203 105.295 147.356 102.328 147.778C102.105 147.809 101.884 147.824 101.661 147.824ZM90.766 100.957L96.531 142.138C96.7694 143.843 97.6289 145.367 98.8895 146.318C99.8994 147.08 101.094 147.409 102.251 147.244C104.925 146.864 106.742 143.984 106.3 140.825L100.525 99.5698L90.766 100.957Z" fill="black"/>
<path d="M116.541 70.8342L87.8389 76.892L75.452 82.0158L69.5232 86.4762L69.4804 86.513C68.3751 87.2498 67.7186 89.7775 67.9142 92.725C68.1074 95.6394 69.1039 98.0373 70.2788 98.664L70.2336 98.6665L76.3641 102.173L89.2364 105.513L118.768 107.541L148.134 126.872L148.355 126.976C140.995 122.015 134.89 106.639 133.665 88.1201C132.441 69.6236 136.457 53.6315 143.089 47.7793L143.084 47.7732L116.877 70.5404L116.541 70.8342Z" fill="white"/>
<path d="M153.897 128.645C163.519 127.998 170.071 108.843 168.529 85.8607C166.988 62.8786 157.937 44.7724 148.314 45.4193C138.692 46.0662 132.14 65.2212 133.682 88.2032C135.223 111.185 144.274 129.291 153.897 128.645Z" fill="white"/>
<path d="M153.381 128.934C148.774 128.934 144.21 124.845 140.477 117.35C136.649 109.665 134.135 99.2909 133.397 88.141C132.279 71.2517 135.506 55.8422 141.618 48.8835C143.66 46.559 145.916 45.3032 148.323 45.1538C152.09 44.9225 155.86 47.4281 159.223 52.4124C162.479 57.2364 165.116 63.9968 166.85 71.9628C166.882 72.1085 166.79 72.2517 166.645 72.2836C166.499 72.3166 166.356 72.2236 166.324 72.0779C162.863 56.1788 155.863 45.679 148.8 45.679C148.652 45.679 148.505 45.6839 148.357 45.6924C146.098 45.8332 143.967 47.0266 142.023 49.2397C136.001 56.0968 132.826 71.3533 133.935 88.1055C135.443 110.903 144.369 128.967 153.832 128.38C156.092 128.239 158.223 127.046 160.167 124.833C166.189 117.976 169.364 102.719 168.255 85.9671C168.023 82.4554 167.608 78.9791 167.023 75.6325C166.997 75.4857 167.095 75.3461 167.241 75.3204C167.389 75.2959 167.528 75.3926 167.553 75.5395C168.143 78.9044 168.559 82.4003 168.793 85.9316C169.91 102.821 166.684 118.23 160.572 125.19C158.53 127.515 156.274 128.769 153.867 128.92C153.704 128.929 153.543 128.934 153.381 128.934Z" fill="black"/>
<path d="M153.115 124.096C149.032 124.096 144.987 120.477 141.682 113.841C138.298 107.045 136.074 97.8721 135.421 88.0137C134.433 73.0791 137.288 59.4506 142.695 53.2937C144.504 51.2324 146.506 50.1197 148.643 49.9863C154.355 49.6277 160.097 56.6182 163.628 68.2233C163.672 68.3653 163.591 68.5171 163.448 68.5599C163.306 68.6028 163.155 68.5232 163.112 68.38C159.657 57.027 154.131 50.1895 148.676 50.5249C146.688 50.6485 144.811 51.7 143.099 53.6499C137.782 59.704 134.979 73.1795 135.959 87.977C137.27 107.788 144.917 123.554 153.114 123.555C153.246 123.555 153.378 123.551 153.512 123.543C161.074 123.07 166.622 109.038 166.416 90.9012C166.414 90.7519 166.533 90.6295 166.682 90.6282C166.824 90.6319 166.952 90.7457 166.955 90.8951C167.055 99.7339 165.781 107.959 163.368 114.058C160.905 120.279 157.417 123.839 153.545 124.081C153.403 124.092 153.258 124.096 153.115 124.096Z" fill="black"/>
<path d="M146.503 97.02C148.731 96.8702 150.248 92.435 149.891 87.1136C149.534 81.7922 147.438 77.5998 145.21 77.7495C142.982 77.8993 141.465 82.3346 141.822 87.656C142.179 92.9774 144.275 97.1698 146.503 97.02Z" fill="white"/>
<path d="M146.375 97.2968C144.012 97.2968 141.903 93.1154 141.541 87.6574C141.279 83.6952 142.046 80.0683 143.496 78.4171C144.006 77.8357 144.577 77.5223 145.192 77.4832C147.597 77.3228 149.783 81.5641 150.151 87.1176C150.413 91.0811 149.646 94.7079 148.196 96.3579C147.686 96.9393 147.115 97.2527 146.5 97.2919C146.458 97.2955 146.417 97.2968 146.375 97.2968ZM145.315 78.0181C145.285 78.0181 145.254 78.0193 145.224 78.0205C144.758 78.0499 144.311 78.302 143.899 78.7721C142.54 80.3205 141.825 83.7943 142.078 87.6207C142.414 92.698 144.424 96.8904 146.465 96.7533C146.93 96.7239 147.377 96.4717 147.789 96.0017C149.148 94.4533 149.864 90.9795 149.611 87.1531C149.28 82.1517 147.327 78.0181 145.315 78.0181Z" fill="black"/>
<path d="M148.356 127.248C148.316 127.248 148.277 127.239 148.241 127.222L148.019 127.118C148.008 127.113 147.996 127.107 147.986 127.1L118.68 107.806L89.2184 105.783C89.2013 105.782 89.1854 105.779 89.1695 105.775L76.2972 102.435C76.274 102.429 76.252 102.421 76.2312 102.408L70.1019 98.9028C70.0665 98.882 70.0359 98.8538 70.0139 98.822C68.7802 98.03 67.8375 95.6272 67.6468 92.7446C67.4451 89.7041 68.1175 87.1177 69.3182 86.3L69.3488 86.2731L75.2909 81.8017C75.3093 81.7882 75.3289 81.7772 75.3496 81.7686L87.7366 76.6448C87.7512 76.6386 87.7671 76.6337 87.7842 76.6301L116.418 70.5857L142.908 47.5725C143.02 47.4758 143.188 47.4868 143.286 47.597C143.334 47.6508 143.361 47.7243 143.357 47.7953C143.352 47.8675 143.323 47.9373 143.269 47.985C136.493 53.9632 132.743 70.0876 133.935 88.1055C135.13 106.153 140.985 121.686 148.507 126.756C148.624 126.834 148.66 126.99 148.591 127.113C148.541 127.199 148.45 127.248 148.356 127.248ZM89.2808 105.247L118.788 107.273C118.834 107.276 118.878 107.291 118.917 107.317L145.362 124.726C139.11 117.993 134.448 104.02 133.396 88.141C132.353 72.3777 135.089 58.0258 140.331 50.5249L116.718 71.0399C116.683 71.0705 116.642 71.0913 116.597 71.0998L87.92 77.1515L75.5881 82.2533L69.6581 86.7186C69.6495 86.726 69.641 86.7321 69.6312 86.7382C68.609 87.42 68.0001 89.9318 68.1835 92.7079C68.3645 95.4314 69.2986 97.8366 70.4064 98.4266C70.4443 98.4462 70.4748 98.4744 70.4993 98.5074L76.4672 101.921L89.2808 105.247Z" fill="black"/>
<path d="M116.622 70.7656L143.085 47.7756L143.09 47.7818C136.459 53.6339 132.442 69.6273 133.666 88.1226C134.891 106.64 140.996 122.016 148.356 126.979L148.135 126.875L118.819 107.575L118.138 107.131C114.739 104.869 111.911 97.9161 111.375 89.5412C110.825 80.9436 113.242 73.6691 116.292 71.0435L116.622 70.7656Z" fill="white"/>
<path d="M148.356 127.248C148.317 127.248 148.278 127.239 148.241 127.222L148.02 127.118C148.009 127.113 147.996 127.107 147.987 127.1L118.669 107.8L117.99 107.356C114.4 104.967 111.634 97.8146 111.106 89.5572C110.506 80.1749 113.282 73.2762 116.116 70.8379L116.447 70.56L142.909 47.5713C143.02 47.4746 143.189 47.4856 143.287 47.5958C143.334 47.6496 143.361 47.7231 143.358 47.794C143.353 47.8663 143.323 47.936 143.27 47.9838C136.494 53.962 132.744 70.0863 133.936 88.1043C135.13 106.152 140.986 121.685 148.508 126.755C148.625 126.833 148.66 126.988 148.592 127.112C148.542 127.199 148.45 127.248 148.356 127.248ZM140.333 50.5237L116.798 70.9701C116.796 70.9713 116.795 70.9725 116.794 70.9725L116.465 71.2492C113.644 73.6765 111.082 80.7343 111.644 89.5229C112.162 97.6212 114.831 104.607 118.287 106.906L118.965 107.349L145.363 124.726C139.11 117.993 134.448 104.02 133.397 88.141C132.354 72.3777 135.091 58.0258 140.333 50.5237Z" fill="black"/>
<path d="M76.0343 102.255C75.9891 102.255 75.9426 102.244 75.9011 102.22L70.1019 98.9028C70.0665 98.882 70.0359 98.8538 70.0139 98.822C68.7802 98.03 67.8375 95.6272 67.6468 92.7446C67.4451 89.7041 68.1175 87.1177 69.3182 86.3L69.3488 86.2731L75.2909 81.8017C75.4095 81.7123 75.5795 81.7368 75.6688 81.8555C75.758 81.9742 75.7348 82.1432 75.615 82.2337L69.6581 86.7199C69.6495 86.7272 69.641 86.7333 69.6312 86.7395C68.609 87.4212 68.0001 89.933 68.1848 92.7091C68.3645 95.4326 69.2998 97.8379 70.4076 98.4278C70.4455 98.4474 70.4761 98.4756 70.5005 98.5086L76.1701 101.751C76.2997 101.825 76.3437 101.99 76.2703 102.12C76.219 102.208 76.1285 102.255 76.0343 102.255Z" fill="black"/>
<path d="M76.437 102.165C74.5198 101.159 72.9805 97.1438 72.6662 92.3908C72.3325 87.3551 73.6884 82.8873 75.6483 81.9448L69.5252 86.4775L69.4824 86.5142C68.3771 87.251 67.7205 89.7787 67.9162 92.7262C68.1093 95.6406 69.1058 98.0385 70.2808 98.6653L70.2356 98.6677L76.437 102.165Z" fill="white"/>
<path d="M76.4366 102.434C76.395 102.434 76.3522 102.424 76.3119 102.403C76.2642 102.378 76.2153 102.351 76.1676 102.323L70.1031 98.9039C70.0665 98.8831 70.0359 98.855 70.0139 98.8219C68.7802 98.03 67.8375 95.6272 67.6468 92.7445C67.4451 89.704 68.1175 87.1176 69.3182 86.3L69.3488 86.273L74.7322 82.2875C74.9841 82.0342 75.2506 81.8371 75.5318 81.7012C75.6565 81.6412 75.8069 81.6865 75.8791 81.8053C75.9512 81.924 75.9206 82.0782 75.8081 82.1615L75.0611 82.7147C73.5645 84.2668 72.6573 88.1984 72.9336 92.3737C73.2356 96.9308 74.6649 100.785 76.4342 101.855L76.5674 101.931C76.6958 102.003 76.7423 102.165 76.6714 102.295C76.6249 102.383 76.532 102.434 76.4366 102.434ZM70.4981 98.5073L74.7774 100.92C73.5303 99.0875 72.6341 95.987 72.3969 92.4092C72.1682 88.95 72.7197 85.7124 73.7638 83.6756L69.6581 86.7198C69.6495 86.7271 69.641 86.7333 69.6312 86.7394C68.609 87.4212 68.0001 89.9329 68.1848 92.7091C68.3645 95.4326 69.2998 97.8378 70.4076 98.4278C70.4443 98.4474 70.4748 98.4755 70.4981 98.5073Z" fill="black"/>
<path d="M88.7673 105.393L89.3211 105.514C86.2999 104.88 83.7567 98.789 83.2726 91.4851C82.7798 84.0356 84.8278 77.7073 87.8392 76.8933L87.4248 77.0647L75.681 81.929C73.7027 82.8373 72.3296 87.3258 72.6646 92.3909C72.9886 97.2785 74.6662 101.386 76.6567 102.244L88.7673 105.393Z" fill="white"/>
<path d="M89.3215 105.783C89.3032 105.783 89.2848 105.781 89.2665 105.777C89.253 105.775 89.2384 105.771 89.2249 105.767L88.7114 105.656C88.7077 105.655 88.704 105.655 88.7016 105.653L76.591 102.505C76.5776 102.501 76.5653 102.498 76.5519 102.492C74.4391 101.581 72.731 97.4339 72.3985 92.4092C72.0586 87.2805 73.4231 82.6707 75.5713 81.6842L87.0889 76.9128C87.3102 76.7892 87.5376 76.6962 87.7711 76.6325C87.9093 76.5958 88.0511 76.6717 88.0964 76.8063C88.1416 76.941 88.0756 77.0879 87.9435 77.1429L87.2772 77.4184C84.712 78.8823 83.1005 84.7687 83.5431 91.4667C84.0212 98.6959 86.5106 104.601 89.3411 105.242L89.3802 105.251C89.5257 105.282 89.6174 105.426 89.5868 105.571C89.5587 105.696 89.4462 105.783 89.3215 105.783ZM76.7451 101.989L87.4679 104.777C85.1766 102.663 83.4086 97.5992 83.0052 91.5034C82.6212 85.7113 83.7889 80.4895 85.8051 78.0292L75.7853 82.1799C73.8706 83.0588 72.6149 87.5387 72.9352 92.3749C73.2482 97.112 74.8499 101.149 76.7451 101.989Z" fill="black"/>
<path d="M145.207 77.7524C142.978 77.892 141.362 82.3255 141.809 87.639C142.56 96.5501 146.029 97.0519 146.451 97.0801C146.458 97.0801 146.458 97.0911 146.451 97.0935L137.41 99.5563C136.655 95.9393 136.117 92.0493 135.848 87.9854C135.59 84.0905 135.598 80.3229 135.839 76.7744L145.207 77.7524Z" fill="#157B6C"/>
<path d="M137.409 99.8268C137.36 99.8268 137.311 99.8134 137.269 99.7864C137.205 99.7473 137.161 99.6848 137.145 99.6114C136.369 95.8989 135.842 91.993 135.578 88.0038C135.324 84.1774 135.322 80.3939 135.569 76.7573C135.574 76.6838 135.608 76.6165 135.664 76.5688C135.721 76.521 135.793 76.4978 135.866 76.5076L145.234 77.4831C145.374 77.4978 145.479 77.6166 145.476 77.7573C145.474 77.8981 145.364 78.0119 145.223 78.0205C144.74 78.0511 144.277 78.3192 143.845 78.8186C142.478 80.4037 141.768 83.9388 142.077 87.6146C142.81 96.3151 146.095 96.7851 146.468 96.8096C146.6 96.8181 146.712 96.9271 146.723 97.0593C146.736 97.1915 146.644 97.32 146.516 97.353L137.479 99.8146C137.457 99.8232 137.434 99.8268 137.409 99.8268ZM136.089 77.0731C135.861 80.6008 135.871 84.2643 136.116 87.9683C136.371 91.8326 136.876 95.6173 137.615 99.2209L145.485 97.0776C144.19 96.446 142.107 94.3823 141.541 87.6623C141.214 83.7919 141.959 80.1822 143.438 78.4673C143.634 78.2408 143.838 78.0523 144.049 77.903L136.089 77.0731Z" fill="#157B6C"/>
<path d="M140.864 185.298L139.446 180.119L133.588 180.386C133.045 179.245 132.417 178.165 131.705 177.154L134.807 172.184L130.99 168.408L126.048 171.568C125.02 170.863 123.934 170.244 122.802 169.717L123.004 163.854L117.81 162.493L115.115 167.694C113.882 167.597 112.632 167.607 111.373 167.721L108.619 162.543L103.441 163.962L103.707 169.822C102.567 170.365 101.486 170.993 100.475 171.704L95.5056 168.602L91.73 172.42L94.8906 177.363C94.1851 178.392 93.5664 179.478 93.0407 180.609L87.1792 180.407L85.8184 185.602L91.0184 188.297C90.9218 189.53 90.9316 190.781 91.0453 192.039L85.8685 194.794L87.2868 199.973L93.1446 199.707C93.6875 200.847 94.3159 201.928 95.0275 202.939L91.9256 207.909L95.7428 211.685L100.685 208.525C101.713 209.231 102.799 209.849 103.931 210.375L103.729 216.238L108.923 217.6L111.618 212.399C112.85 212.495 114.101 212.486 115.358 212.372L118.114 217.549L123.292 216.131L123.026 210.271C124.166 209.728 125.247 209.1 126.258 208.389L131.227 211.49L135.003 207.673L131.842 202.73C132.548 201.701 133.166 200.615 133.692 199.484L139.555 199.686L140.916 194.491L135.716 191.796C135.812 190.563 135.802 189.312 135.689 188.054L140.864 185.298ZM117.016 203.379C109.653 205.395 102.051 201.06 100.034 193.696C98.0182 186.333 102.353 178.729 109.716 176.712C117.078 174.696 124.681 179.03 126.697 186.394C128.713 193.759 124.379 201.363 117.016 203.379Z" fill="white"/>
<path d="M108.921 217.869C108.898 217.869 108.876 217.866 108.852 217.86L103.658 216.499C103.536 216.467 103.453 216.355 103.458 216.229L103.654 210.543C102.623 210.053 101.623 209.483 100.679 208.846L95.8872 211.911C95.7808 211.979 95.6426 211.964 95.5522 211.876L91.735 208.1C91.6457 208.012 91.6286 207.872 91.6959 207.764L94.7036 202.947C94.0629 202.019 93.4834 201.022 92.9784 199.983L87.2979 200.241C87.1744 200.251 87.0595 200.164 87.0252 200.043L85.6069 194.863C85.5739 194.742 85.6289 194.613 85.7402 194.553L90.7593 191.881C90.6639 190.728 90.6554 189.576 90.7348 188.451L85.6925 185.838C85.5813 185.781 85.5238 185.652 85.5556 185.53L86.9164 180.335C86.9482 180.214 87.0668 180.127 87.1866 180.134L92.8708 180.33C93.3587 179.3 93.9285 178.302 94.5667 177.355L91.5027 172.563C91.4342 172.457 91.4501 172.317 91.5381 172.228L95.3137 168.41C95.4018 168.321 95.5412 168.305 95.6475 168.371L100.465 171.38C101.393 170.738 102.388 170.159 103.429 169.654L103.171 163.973C103.165 163.847 103.248 163.734 103.369 163.7L108.547 162.281C108.668 162.248 108.796 162.303 108.856 162.415L111.528 167.435C112.681 167.339 113.832 167.331 114.957 167.41L117.571 162.367C117.63 162.256 117.757 162.199 117.879 162.23L123.073 163.591C123.196 163.623 123.279 163.736 123.274 163.862L123.078 169.547C124.109 170.036 125.108 170.606 126.053 171.244L130.845 168.179C130.951 168.111 131.09 168.126 131.18 168.214L134.997 171.99C135.086 172.079 135.103 172.218 135.036 172.326L132.028 177.144C132.669 178.072 133.248 179.068 133.753 180.107L139.434 179.849C139.559 179.844 139.672 179.926 139.707 180.047L141.125 185.227C141.158 185.348 141.103 185.477 140.992 185.537L135.973 188.209C136.068 189.362 136.076 190.514 135.997 191.639L141.039 194.252C141.151 194.31 141.208 194.438 141.176 194.561L139.815 199.755C139.784 199.874 139.677 199.956 139.555 199.956C139.551 199.956 139.549 199.956 139.545 199.956L133.861 199.76C133.372 200.791 132.802 201.79 132.165 202.735L135.229 207.527C135.298 207.633 135.282 207.773 135.194 207.862L131.418 211.68C131.33 211.769 131.191 211.785 131.084 211.719L126.267 208.712C125.34 209.352 124.345 209.932 123.303 210.438L123.561 216.118C123.567 216.245 123.484 216.357 123.363 216.391L118.185 217.81C118.064 217.842 117.936 217.788 117.876 217.677L115.204 212.656C114.051 212.751 112.899 212.76 111.775 212.68L109.161 217.723C109.113 217.814 109.02 217.869 108.921 217.869ZM104.005 216.032L108.781 217.284L111.377 212.274C111.427 212.177 111.531 212.12 111.638 212.129C112.847 212.225 114.089 212.215 115.333 212.102C115.439 212.091 115.544 212.149 115.594 212.244L118.249 217.231L123.012 215.926L122.755 210.283C122.751 210.175 122.81 210.074 122.908 210.028C124.037 209.49 125.112 208.865 126.102 208.167C126.19 208.105 126.307 208.101 126.399 208.159L131.185 211.146L134.657 207.635L131.612 202.874C131.554 202.783 131.556 202.666 131.617 202.576C132.312 201.563 132.927 200.484 133.445 199.369C133.491 199.271 133.59 199.2 133.698 199.213L139.345 199.408L140.597 194.63L135.589 192.034C135.492 191.984 135.436 191.881 135.444 191.773C135.539 190.564 135.53 189.32 135.417 188.077C135.408 187.969 135.464 187.865 135.559 187.815L140.545 185.161L139.241 180.397L133.598 180.654C133.493 180.662 133.389 180.599 133.343 180.501C132.806 179.374 132.18 178.299 131.483 177.306C131.421 177.217 131.417 177.101 131.474 177.008L134.461 172.222L130.951 168.749L126.191 171.795C126.099 171.852 125.983 171.851 125.894 171.79C124.88 171.094 123.802 170.479 122.687 169.961C122.589 169.916 122.527 169.815 122.53 169.708L122.725 164.06L117.948 162.808L115.356 167.816C115.306 167.913 115.202 167.969 115.095 167.961C113.886 167.867 112.643 167.875 111.4 167.988C111.294 167.996 111.189 167.941 111.139 167.846L108.484 162.859L103.721 164.164L103.978 169.807C103.982 169.916 103.923 170.016 103.825 170.063C102.699 170.599 101.624 171.224 100.631 171.923C100.543 171.986 100.426 171.988 100.334 171.932L95.5485 168.944L92.0761 172.456L95.1206 177.216C95.1792 177.306 95.1768 177.424 95.1157 177.513C94.42 178.528 93.805 179.608 93.2878 180.72C93.2425 180.818 93.1423 180.886 93.0347 180.876L87.3884 180.681L86.1363 185.459L91.1444 188.055C91.241 188.105 91.2973 188.208 91.2887 188.316C91.1946 189.525 91.2031 190.769 91.3156 192.012C91.3254 192.12 91.2691 192.224 91.1738 192.274L86.1877 194.928L87.4923 199.692L93.1349 199.435C93.2413 199.429 93.344 199.49 93.3905 199.588C93.9272 200.715 94.5532 201.79 95.2502 202.783C95.3125 202.872 95.3162 202.988 95.2587 203.081L92.2717 207.867L95.782 211.34L100.542 208.294C100.634 208.236 100.75 208.238 100.839 208.299C101.851 208.995 102.93 209.609 104.046 210.128C104.144 210.173 104.205 210.274 104.201 210.381L104.005 216.032ZM113.37 204.141C107.179 204.141 101.488 200.022 99.7753 193.767C98.7812 190.136 99.2605 186.335 101.124 183.064C102.988 179.794 106.013 177.445 109.645 176.451C117.138 174.398 124.905 178.827 126.957 186.323C127.951 189.955 127.471 193.755 125.607 197.026C123.742 200.296 120.717 202.645 117.086 203.639C115.847 203.978 114.599 204.141 113.37 204.141ZM113.363 176.489C112.181 176.489 110.981 176.644 109.788 176.972C106.296 177.928 103.386 180.187 101.593 183.332C99.801 186.477 99.34 190.133 100.296 193.624C102.27 200.834 109.74 205.094 116.947 203.118C120.437 202.162 123.348 199.904 125.141 196.758C126.933 193.612 127.394 189.957 126.438 186.466C124.791 180.451 119.317 176.489 113.363 176.489Z" fill="black"/>
<path d="M183.008 181.419L183.242 177.507L179.131 176.32C179.023 175.404 178.841 174.509 178.587 173.645L181.894 170.936L180.141 167.433L175.985 168.461C175.44 167.733 174.835 167.051 174.176 166.423L175.689 162.418L172.419 160.262L169.337 163.225C168.508 162.87 167.642 162.584 166.745 162.368L166.055 158.145L162.143 157.914L160.955 162.025C160.039 162.134 159.145 162.315 158.28 162.57L155.573 159.264L152.068 161.019L153.094 165.175C152.365 165.721 151.683 166.327 151.055 166.985L147.05 165.474L144.892 168.745L147.855 171.825C147.499 172.654 147.213 173.522 146.997 174.418L142.774 175.11L142.54 179.022L146.651 180.21C146.758 181.125 146.94 182.02 147.195 182.884L143.887 185.593L145.641 189.096L149.797 188.068C150.342 188.796 150.947 189.478 151.606 190.106L150.092 194.111L153.363 196.268L156.444 193.305C157.273 193.66 158.14 193.946 159.036 194.161L159.728 198.384L163.64 198.616L164.828 194.504C165.744 194.395 166.638 194.214 167.503 193.959L170.21 197.266L173.715 195.51L172.688 191.355C173.416 190.809 174.098 190.203 174.727 189.544L178.731 191.056L180.889 187.784L177.927 184.704C178.282 183.876 178.569 183.008 178.785 182.112L183.008 181.419ZM162.29 188.334C156.729 188.004 152.49 183.229 152.822 177.669C153.153 172.108 157.93 167.867 163.491 168.196C169.051 168.525 173.29 173.3 172.959 178.861C172.628 184.422 167.851 188.663 162.29 188.334Z" fill="white"/>
<path d="M163.64 198.885C163.635 198.885 163.629 198.885 163.624 198.885L159.712 198.654C159.586 198.646 159.483 198.552 159.463 198.429L158.8 194.382C158.009 194.182 157.239 193.928 156.505 193.623L153.553 196.464C153.462 196.551 153.323 196.564 153.218 196.495L149.947 194.338C149.842 194.268 149.798 194.135 149.843 194.017L151.293 190.178C150.717 189.617 150.179 189.011 149.69 188.373L145.707 189.358C145.584 189.388 145.457 189.33 145.401 189.218L143.648 185.714C143.591 185.602 143.621 185.465 143.717 185.385L146.888 182.789C146.673 182.024 146.511 181.228 146.406 180.42L142.465 179.283C142.344 179.248 142.264 179.134 142.271 179.008L142.505 175.096C142.512 174.97 142.606 174.866 142.729 174.846L146.778 174.181C146.977 173.391 147.233 172.62 147.537 171.886L144.698 168.934C144.61 168.843 144.598 168.704 144.667 168.599L146.825 165.327C146.895 165.221 147.027 165.179 147.146 165.223L150.984 166.672C151.545 166.097 152.151 165.558 152.79 165.068L151.805 161.085C151.775 160.963 151.834 160.836 151.946 160.779L155.45 159.024C155.563 158.968 155.7 158.997 155.779 159.094L158.374 162.263C159.14 162.046 159.935 161.885 160.743 161.781L161.883 157.839C161.918 157.718 162.032 157.638 162.158 157.645L166.069 157.876C166.195 157.883 166.299 157.978 166.319 158.101L166.981 162.148C167.771 162.347 168.541 162.602 169.277 162.907L172.231 160.066C172.322 159.979 172.461 159.965 172.566 160.035L175.837 162.192C175.942 162.262 175.986 162.395 175.941 162.513L174.491 166.351C175.067 166.912 175.605 167.519 176.094 168.157L180.077 167.171C180.2 167.141 180.327 167.199 180.383 167.312L182.136 170.815C182.193 170.928 182.163 171.065 182.067 171.145L178.896 173.741C179.111 174.507 179.273 175.301 179.377 176.109L183.317 177.246C183.438 177.282 183.519 177.396 183.512 177.522L183.278 181.434C183.271 181.56 183.177 181.664 183.053 181.684L179.005 182.348C178.806 183.139 178.55 183.909 178.246 184.643L181.085 187.596C181.173 187.686 181.185 187.826 181.115 187.931L178.957 191.203C178.888 191.308 178.756 191.352 178.637 191.307L174.799 189.859C174.238 190.436 173.631 190.974 172.993 191.462L173.977 195.446C174.008 195.568 173.949 195.695 173.837 195.752L170.333 197.507C170.22 197.563 170.083 197.534 170.004 197.437L167.409 194.268C166.644 194.483 165.848 194.645 165.04 194.75L163.9 198.692C163.865 198.807 163.758 198.885 163.64 198.885ZM159.959 198.127L163.44 198.334L164.569 194.43C164.599 194.326 164.689 194.25 164.796 194.236C165.697 194.13 166.583 193.949 167.427 193.7C167.531 193.669 167.644 193.704 167.712 193.788L170.284 196.928L173.403 195.366L172.428 191.42C172.403 191.314 172.442 191.204 172.528 191.139C173.243 190.604 173.917 190.006 174.535 189.358C174.609 189.28 174.724 189.254 174.825 189.292L178.627 190.727L180.548 187.816L177.735 184.892C177.659 184.813 177.638 184.698 177.681 184.598C178.028 183.788 178.312 182.931 178.524 182.05C178.55 181.944 178.636 181.864 178.743 181.846L182.754 181.188L182.962 177.707L179.058 176.579C178.954 176.549 178.878 176.459 178.864 176.352C178.758 175.452 178.578 174.566 178.33 173.721C178.3 173.617 178.334 173.505 178.418 173.436L181.559 170.864L179.999 167.747L176.052 168.723C175.947 168.749 175.837 168.71 175.772 168.623C175.237 167.908 174.638 167.234 173.992 166.618C173.914 166.543 173.888 166.428 173.926 166.328L175.363 162.525L172.453 160.606L169.527 163.42C169.449 163.494 169.334 163.515 169.235 163.474C168.424 163.127 167.567 162.843 166.685 162.631C166.58 162.606 166.499 162.52 166.482 162.412L165.826 158.402L162.345 158.195L161.216 162.1C161.186 162.204 161.096 162.28 160.989 162.294C160.089 162.4 159.204 162.58 158.358 162.83C158.254 162.86 158.141 162.826 158.073 162.742L155.502 159.602L152.382 161.164L153.357 165.11C153.383 165.215 153.344 165.325 153.257 165.39C152.541 165.927 151.867 166.526 151.25 167.171C151.176 167.25 151.061 167.277 150.961 167.237L147.158 165.802L145.237 168.714L148.051 171.638C148.126 171.716 148.147 171.831 148.104 171.932C147.757 172.741 147.473 173.598 147.261 174.48C147.235 174.585 147.149 174.666 147.042 174.683L143.031 175.342L142.824 178.823L146.728 179.95C146.832 179.981 146.907 180.07 146.921 180.178C147.027 181.079 147.207 181.964 147.455 182.809C147.486 182.913 147.451 183.025 147.367 183.094L144.226 185.665L145.786 188.783L149.733 187.806C149.838 187.779 149.948 187.82 150.013 187.907C150.547 188.62 151.146 189.295 151.793 189.912C151.871 189.986 151.897 190.101 151.859 190.202L150.423 194.005L153.334 195.924L156.26 193.11C156.338 193.034 156.453 193.013 156.552 193.056C157.361 193.403 158.218 193.687 159.1 193.898C159.205 193.924 159.286 194.01 159.303 194.117L159.959 198.127ZM162.893 188.623C162.687 188.623 162.482 188.617 162.274 188.604C159.513 188.44 156.981 187.211 155.145 185.144C153.308 183.075 152.387 180.415 152.552 177.654C152.892 171.954 157.807 167.592 163.506 167.928C166.267 168.091 168.799 169.321 170.636 171.388C172.472 173.457 173.393 176.117 173.228 178.878C172.9 184.37 168.325 188.623 162.893 188.623ZM162.306 188.065C167.707 188.384 172.368 184.248 172.69 178.845C172.846 176.228 171.973 173.707 170.234 171.746C168.492 169.785 166.094 168.621 163.476 168.465C158.068 168.144 153.413 172.282 153.092 177.685C152.935 180.302 153.808 182.823 155.548 184.784C157.288 186.745 159.688 187.91 162.306 188.065Z" fill="black"/>
<path d="M194.347 207.86L196.134 219.588L200.459 217.386L199.223 205.683L194.347 207.86Z" fill="white"/>
<path d="M196.134 219.858C196.092 219.858 196.05 219.848 196.011 219.829C195.934 219.789 195.881 219.715 195.868 219.629L194.08 207.9C194.062 207.78 194.127 207.663 194.237 207.614L199.114 205.439C199.192 205.403 199.284 205.408 199.359 205.451C199.433 205.494 199.483 205.57 199.492 205.657L200.728 217.36C200.74 217.471 200.681 217.577 200.582 217.629L196.258 219.831C196.217 219.848 196.176 219.858 196.134 219.858ZM194.644 208.023L196.343 219.18L200.17 217.231L198.993 206.082L194.644 208.023Z" fill="black"/>
<path d="M195.019 215.151C194.526 216.283 194.057 218.421 193.582 221.207C193.357 222.528 194.392 223.731 195.748 223.731H211.658C212.753 223.731 213.27 222.395 212.454 221.672C209.288 218.87 204.439 215.766 200.252 213.94L198.656 216.198C198.656 216.198 195.158 214.836 195.019 215.151Z" fill="white"/>
<path d="M211.659 224H195.75C195.016 224 194.325 223.679 193.854 223.122C193.393 222.576 193.198 221.862 193.318 221.161C193.848 218.046 194.311 216.103 194.774 215.044C194.874 214.815 195.011 214.501 198.558 215.871L200.034 213.784C200.107 213.68 200.244 213.642 200.362 213.692C204.472 215.484 209.404 218.611 212.633 221.47C213.094 221.878 213.246 222.487 213.03 223.06C212.813 223.63 212.275 224 211.659 224ZM195.219 215.373C194.79 216.416 194.353 218.292 193.848 221.252C193.755 221.794 193.908 222.349 194.265 222.774C194.633 223.209 195.174 223.46 195.748 223.46H211.658C212.131 223.46 212.416 223.154 212.523 222.868C212.63 222.588 212.62 222.179 212.274 221.874C209.135 219.095 204.367 216.061 200.344 214.275L198.874 216.353C198.803 216.454 198.672 216.494 198.556 216.449C197.235 215.934 195.659 215.405 195.219 215.373Z" fill="black"/>
<path d="M211.363 222.634H194.604C194.455 222.634 194.335 222.513 194.335 222.365C194.335 222.215 194.456 222.095 194.604 222.095H211.363C211.512 222.095 211.632 222.217 211.632 222.365C211.633 222.513 211.512 222.634 211.363 222.634Z" fill="black"/>
<path d="M202.224 219.262C202.177 219.262 202.13 219.25 202.087 219.224C201.959 219.148 201.916 218.983 201.992 218.854L203.625 216.083C203.701 215.954 203.866 215.913 203.994 215.987C204.123 216.063 204.166 216.229 204.09 216.357L202.456 219.128C202.406 219.215 202.317 219.262 202.224 219.262Z" fill="black"/>
<path d="M204.617 219.667C204.573 219.667 204.528 219.656 204.487 219.633C204.357 219.56 204.31 219.395 204.383 219.265L205.441 217.368C205.514 217.238 205.679 217.191 205.808 217.264C205.938 217.336 205.984 217.5 205.912 217.631L204.853 219.529C204.803 219.617 204.712 219.667 204.617 219.667Z" fill="black"/>
<path d="M205.06 132.318C205.06 132.318 217.112 150.594 221.228 162.203C222.01 164.41 221.406 166.869 219.69 168.461C214.904 172.9 204.668 182.285 198.097 187.522L196.134 182.533C196.134 182.533 198.506 170.981 207.404 165.776L196.364 149.294L193.932 136.466L205.06 132.318Z" fill="#157B6C"/>
<path d="M184.16 137.264C184.16 137.264 187.729 164.584 188.276 171.561C188.822 178.538 188.318 186.301 188.048 191.997C187.778 197.694 194.235 210.939 194.235 210.939L200.458 209.838L201.613 145.667L203.286 133.789L184.16 137.264Z" fill="#157B6C"/>
<path d="M200.882 186.609C200.733 186.609 200.612 186.488 200.613 186.338L200.646 176.454C200.646 176.305 200.767 176.185 200.915 176.185C200.915 176.185 200.915 176.185 200.917 176.185C201.066 176.185 201.185 176.306 201.185 176.456L201.152 186.34C201.151 186.489 201.03 186.609 200.882 186.609Z" fill="white"/>
<path d="M201.523 156.065C201.374 156.065 201.254 155.944 201.254 155.796V150.697C201.254 150.606 201.299 150.522 201.374 150.472L204.375 148.474C204.5 148.392 204.666 148.425 204.75 148.55C204.831 148.673 204.798 148.841 204.675 148.924L201.794 150.842V155.797C201.793 155.944 201.672 156.065 201.523 156.065Z" fill="white"/>
<path d="M186.627 151.934C186.549 151.934 186.474 151.901 186.42 151.839C186.325 151.725 186.338 151.555 186.452 151.458C186.485 151.43 189.731 148.61 190.821 141.695C190.845 141.548 190.984 141.447 191.13 141.471C191.276 141.494 191.377 141.633 191.353 141.78C190.229 148.911 186.938 151.753 186.799 151.871C186.749 151.913 186.688 151.934 186.627 151.934Z" fill="white"/>
<path d="M216.352 114.446C216.352 114.446 217.487 113.482 218.389 112.993C219.291 112.503 222.082 108.33 222.082 108.33C222.082 108.33 221.999 114.911 219.116 115.917L216.352 114.446Z" fill="white"/>
<path d="M219.117 116.186C219.073 116.186 219.03 116.175 218.991 116.154L216.225 114.684C216.146 114.643 216.093 114.564 216.084 114.475C216.074 114.386 216.109 114.297 216.178 114.24C216.225 114.2 217.345 113.253 218.261 112.756C218.88 112.42 220.753 109.836 221.86 108.181C221.926 108.082 222.049 108.038 222.164 108.073C222.278 108.109 222.355 108.215 222.353 108.334C222.35 108.611 222.232 115.115 219.206 116.171C219.177 116.18 219.146 116.186 219.117 116.186ZM216.836 114.398L219.135 115.621C221.086 114.814 221.617 111.067 221.761 109.28C220.881 110.548 219.227 112.845 218.517 113.23C217.931 113.548 217.23 114.083 216.836 114.398Z" fill="black"/>
<path d="M213.541 115.264H216.814L223.014 106.29H219.822L213.541 115.264Z" fill="black"/>
<path d="M216.814 115.535H213.541C213.44 115.535 213.347 115.479 213.301 115.389C213.254 115.3 213.262 115.192 213.319 115.11L219.601 106.136C219.651 106.063 219.735 106.021 219.821 106.021H223.014C223.114 106.021 223.206 106.076 223.252 106.165C223.299 106.254 223.293 106.361 223.235 106.444L217.035 115.419C216.985 115.491 216.902 115.535 216.814 115.535ZM214.058 114.995H216.672L222.5 106.56H219.963L214.058 114.995Z" fill="black"/>
<path d="M214.256 115.264H217.529L223.729 106.29H220.538L214.256 115.264Z" fill="white"/>
<path d="M217.528 115.535H214.255C214.155 115.535 214.062 115.479 214.016 115.389C213.969 115.3 213.977 115.192 214.034 115.11L220.316 106.136C220.366 106.063 220.449 106.021 220.536 106.021H223.729C223.829 106.021 223.921 106.076 223.967 106.165C224.014 106.254 224.007 106.361 223.95 106.444L217.749 115.419C217.7 115.491 217.617 115.535 217.528 115.535ZM214.774 114.995H217.388L223.216 106.56H220.678L214.774 114.995Z" fill="black"/>
<path d="M216.352 114.445C216.352 114.445 212.276 120.964 208.474 120.279C205.786 119.796 204.395 116.891 202.089 113.633C199.783 110.374 196.991 108.653 196.991 108.653C196.991 108.653 191.998 106.963 185.895 107.226C179.895 107.484 174.621 111.249 172.522 116.883C170.891 121.261 169.704 127.658 170.747 136.477C172.736 153.297 186.784 151.11 186.784 151.11L189.063 147.522C189.063 147.522 182.779 147.103 181.309 138.439C180.771 135.273 181.982 130.561 181.982 130.561L182.985 137.797C183.125 138.811 183.943 139.595 184.962 139.689C186.11 139.795 187.851 139.783 190.273 139.333C195.249 138.406 200.161 135.265 203.33 134.907C205.459 134.665 205.97 133.377 205.855 131.669C207.095 131.946 208.314 132.007 209.433 131.728C217.364 129.747 218.81 116.111 218.81 116.111L216.352 114.445Z" fill="white"/>
<path d="M185.179 151.48C183.166 151.48 179.641 151.078 176.489 148.682C173.157 146.15 171.135 142.054 170.479 136.51C169.592 128.998 170.193 122.363 172.269 116.79C174.395 111.082 179.739 107.222 185.883 106.958C191.967 106.696 197.026 108.382 197.076 108.399C197.096 108.405 197.114 108.413 197.131 108.424C197.247 108.495 199.998 110.212 202.309 113.477C202.747 114.095 203.148 114.695 203.535 115.275C205.167 117.715 206.454 119.642 208.522 120.014C208.695 120.046 208.871 120.06 209.047 120.06C212.482 120.06 216.085 114.364 216.123 114.302C216.162 114.24 216.224 114.197 216.295 114.181C216.367 114.166 216.442 114.181 216.502 114.222L218.961 115.889C219.043 115.945 219.088 116.042 219.078 116.141C219.018 116.705 217.519 129.986 209.497 131.99C208.507 132.237 207.378 132.242 206.137 132.003C206.162 133.921 205.25 134.959 203.359 135.173C201.886 135.341 200.034 136.122 197.889 137.025C195.575 138.001 192.952 139.108 190.322 139.597C188.278 139.978 186.466 140.098 184.937 139.957C183.789 139.851 182.876 138.977 182.718 137.833L181.925 132.106C181.614 133.738 181.236 136.398 181.575 138.394C182.995 146.752 189.021 147.247 189.081 147.252C189.176 147.258 189.261 147.315 189.304 147.399C189.346 147.485 189.341 147.585 189.29 147.666L187.011 151.255C186.969 151.321 186.902 151.365 186.825 151.377C186.751 151.39 186.134 151.48 185.179 151.48ZM187.185 107.47C186.764 107.47 186.337 107.478 185.906 107.497C179.979 107.752 174.825 111.474 172.774 116.978C170.729 122.47 170.136 129.02 171.014 136.446C171.652 141.84 173.603 145.812 176.814 148.252C180.914 151.369 185.804 150.955 186.622 150.861L188.612 147.727C187.135 147.437 182.304 145.927 181.041 138.487C180.499 135.3 181.669 130.691 181.719 130.496C181.751 130.372 181.865 130.292 181.996 130.294C182.124 130.302 182.229 130.398 182.247 130.527L183.25 137.762C183.374 138.657 184.088 139.34 184.985 139.423C186.002 139.518 187.736 139.534 190.222 139.071C192.796 138.592 195.39 137.498 197.679 136.532C199.861 135.612 201.747 134.817 203.297 134.641C205.025 134.445 205.709 133.563 205.583 131.69C205.577 131.605 205.613 131.522 205.676 131.467C205.741 131.412 205.828 131.39 205.91 131.408C207.203 131.697 208.366 131.718 209.364 131.468C216.564 129.67 218.324 117.769 218.519 116.245L216.425 114.825C215.633 116.021 211.983 121.184 208.424 120.546C206.131 120.134 204.786 118.123 203.086 115.577C202.699 114.999 202.301 114.401 201.868 113.789C199.735 110.777 197.157 109.082 196.873 108.901C196.486 108.773 192.344 107.47 187.185 107.47Z" fill="black"/>
<path d="M182.492 129.946C182.465 129.946 182.437 129.942 182.41 129.933C182.268 129.888 182.19 129.736 182.234 129.594L184.728 121.71C184.773 121.568 184.925 121.489 185.067 121.534C185.209 121.579 185.287 121.731 185.243 121.873L182.749 129.757C182.712 129.872 182.606 129.946 182.492 129.946Z" fill="black"/>
<path d="M205.756 130.017C205.619 130.017 205.502 129.913 205.488 129.773C205.082 125.575 200.712 115.881 200.668 115.783C200.607 115.648 200.667 115.487 200.803 115.426C200.939 115.365 201.098 115.425 201.16 115.561C201.341 115.962 205.609 125.435 206.025 129.72C206.04 129.869 205.931 130.001 205.783 130.015C205.774 130.017 205.766 130.017 205.756 130.017Z" fill="black"/>
<path d="M189.951 99.1426L184.361 107.514C184.361 107.514 189.039 109.527 191.902 109.962C194.764 110.395 191.269 107.363 191.269 107.363L193.531 102.211L189.951 99.1426Z" fill="white"/>
<path d="M192.395 110.275C192.213 110.275 192.026 110.253 191.861 110.229C188.997 109.795 184.447 107.845 184.255 107.762C184.181 107.73 184.125 107.668 184.103 107.591C184.08 107.514 184.093 107.431 184.137 107.364L189.727 98.9932C189.77 98.9295 189.839 98.8867 189.914 98.8757C189.99 98.8634 190.067 98.8879 190.126 98.9381L193.706 102.007C193.796 102.084 193.826 102.211 193.777 102.32L191.594 107.291C192.3 107.923 193.564 109.185 193.243 109.882C193.101 110.191 192.756 110.275 192.395 110.275ZM184.767 107.391C185.84 107.837 189.56 109.333 191.942 109.694C192.652 109.8 192.753 109.656 192.753 109.655C192.865 109.412 192.074 108.417 191.092 107.565C191.003 107.488 190.974 107.361 191.022 107.253L193.203 102.285L190.006 99.544L184.767 107.391Z" fill="black"/>
<path d="M200.764 95.1522C199.209 93.7751 197.269 95.0824 195.455 93.3981C194.625 92.6257 194.571 91.9244 193.557 91.4813C192.884 91.1875 191.677 90.9586 190.847 91.5461C189.79 92.294 190.502 93.5462 189.568 96.2624C188.912 98.1694 188.069 98.9785 188.501 99.6726C188.937 100.374 190.027 99.9137 190.56 100.643C191.251 101.588 189.876 102.976 190.242 104.287C190.472 105.113 191.591 106.295 194.388 106.909C194.842 107.008 195.301 106.771 195.481 106.341C195.711 105.792 195.998 105.098 196.216 104.41C197.256 101.134 196.802 99.85 197.644 99.4535C198.935 98.8451 200.39 100.924 201.354 100.347C202.355 99.7497 202.361 96.5659 200.764 95.1522Z" fill="black"/>
<path d="M194.061 96.5292L194.634 96.7581C194.634 96.7581 192.99 100.526 192.724 101.671C192.46 102.818 195.945 103.908 195.945 103.908L196.512 103.518L196.938 103.642C197.07 103.68 197.211 103.657 197.324 103.578C197.436 103.5 197.507 103.374 197.517 103.237C197.589 102.184 197.826 99.8806 198.563 98.2245C198.561 98.222 196.973 96.1424 194.061 96.5292Z" fill="white"/>
<path d="M194.327 96.5622C194.43 96.5585 194.522 96.5292 194.582 96.5034C194.642 96.479 194.679 96.4777 194.736 96.4998C194.878 96.5549 194.947 96.7152 194.892 96.856L194.89 96.8633L194.887 96.8682C194.579 97.5867 194.282 98.3126 193.987 99.036C193.694 99.7594 193.404 100.489 193.158 101.22C193.101 101.398 193.041 101.592 193.006 101.747C192.986 101.835 193.022 101.948 193.112 102.074C193.295 102.325 193.612 102.545 193.93 102.734C194.578 103.11 195.307 103.405 196.027 103.647L195.792 103.682C195.983 103.555 196.169 103.421 196.364 103.299L196.386 103.286C196.449 103.247 196.523 103.242 196.588 103.264C196.714 103.308 196.836 103.365 196.96 103.416L197.028 103.446C197.045 103.452 197.064 103.458 197.082 103.46C197.12 103.462 197.159 103.456 197.193 103.436C197.263 103.401 197.311 103.329 197.324 103.253L197.352 102.873C197.396 102.337 197.453 101.802 197.523 101.269C197.674 100.203 197.887 99.1339 198.318 98.1118L198.35 98.3848C198.116 98.1045 197.802 97.8279 197.481 97.6063C197.155 97.3799 196.802 97.195 196.433 97.0567C196.064 96.9172 195.676 96.829 195.285 96.7862C195.088 96.7678 194.891 96.7519 194.693 96.7568C194.594 96.7544 194.495 96.7642 194.396 96.7678L194.359 96.7703C194.352 96.7703 194.358 96.7703 194.359 96.7678C194.363 96.7642 194.374 96.7519 194.381 96.7299C194.396 96.6846 194.376 96.6038 194.327 96.5622ZM193.793 96.4949C193.848 96.4422 193.932 96.3504 194.055 96.2941C194.115 96.266 194.177 96.2488 194.233 96.239C194.26 96.2342 194.292 96.2305 194.31 96.2293L194.352 96.2268C194.462 96.2207 194.571 96.2097 194.681 96.2097C194.901 96.2011 195.121 96.2146 195.341 96.2329C195.78 96.2819 196.213 96.3835 196.625 96.5414C197.038 96.6981 197.429 96.9062 197.79 97.1595C198.152 97.4178 198.477 97.6932 198.775 98.0592C198.839 98.1375 198.849 98.2416 198.81 98.3273L198.807 98.3322C198.594 98.7985 198.431 99.2943 198.29 99.7986C198.149 100.303 198.034 100.817 197.944 101.337C197.852 101.856 197.781 102.381 197.736 102.908L197.719 103.105C197.712 103.178 197.714 103.217 197.697 103.325C197.663 103.511 197.539 103.676 197.374 103.768C197.292 103.815 197.201 103.845 197.105 103.856C197.058 103.861 197.009 103.865 196.961 103.86C196.91 103.856 196.863 103.845 196.835 103.842C196.703 103.818 196.57 103.801 196.44 103.772L196.663 103.736C196.479 103.875 196.287 103.999 196.099 104.133C196.028 104.183 195.94 104.193 195.864 104.168C195.098 103.917 194.359 103.629 193.645 103.225C193.293 103.014 192.937 102.794 192.645 102.414C192.574 102.316 192.509 102.206 192.465 102.074C192.422 101.943 192.407 101.788 192.436 101.641C192.487 101.413 192.546 101.233 192.608 101.037C192.865 100.28 193.156 99.5489 193.453 98.8181C193.75 98.0874 194.063 97.3676 194.38 96.6454L194.532 97.0139C194.396 96.96 194.243 96.8829 194.112 96.7813C193.98 96.6809 193.881 96.5744 193.793 96.4949Z" fill="black"/>
<path d="M192.772 99.1853C192.772 99.1853 193.162 96.9625 192.114 96.998C191.065 97.0347 190.698 99.4938 192.772 99.1853Z" fill="white"/>
<path d="M22.9518 130.03C22.8063 130.421 22.5997 130.782 22.3136 131.101C21.5812 131.918 20.4735 132.268 19.422 132.582C18.5539 132.842 17.6723 133.104 16.7663 133.111C14.9739 133.126 13.3 132.146 11.5088 132.061C10.2959 132.002 9.1075 132.356 7.9105 132.559C5.65222 132.943 3.84389 132.03 2.16393 130.55C-0.810834 127.927 -0.653109 120.556 2.22629 115.885C5.26952 110.95 10.0062 111.209 10.6615 106.975C11.0393 104.539 9.4364 103.525 10.2458 100.928C10.6701 99.5698 11.894 98.402 14.3418 96.0653C17.698 92.862 19.1029 92.3749 19.5895 92.2218C20.4148 91.9636 22.0874 91.4654 23.8591 92.1937C24.3909 92.4128 25.7004 92.9502 26.176 94.2587C26.6749 95.632 25.9462 96.9993 25.55 97.7423C24.6636 99.407 23.5338 99.855 22.898 100.636C20.0492 104.137 25.418 109.092 24.1415 117C23.8676 118.697 23.189 120.237 22.7489 121.883C22.1767 124.023 23.0655 124.576 23.2098 126.499C23.2979 127.676 23.3529 128.958 22.9518 130.03Z" fill="#157B6C"/>
<path d="M38.9526 205.703L37.6211 208.614C37.681 208.861 37.8167 209.104 38.0833 209.409C39.4967 211.024 43.3261 209.736 44.2406 209.429C47.6054 208.298 48.0309 206.901 51.0595 205.833C53.1393 205.098 55.0112 205.025 56.2216 205.067C56.0786 204.77 55.8292 204.305 55.3694 203.891C54.7153 203.302 53.6076 202.712 51.7907 202.708C48.1544 202.698 38.9526 205.703 38.9526 205.703Z" fill="white"/>
<path d="M40.3791 210.472C39.0293 210.472 38.2884 210.053 37.8812 209.588C37.5939 209.26 37.4337 208.98 37.3604 208.678C37.3457 208.62 37.3518 208.557 37.3775 208.502L38.709 205.591C38.7408 205.523 38.7994 205.47 38.8704 205.447C39.2469 205.325 48.1236 202.438 51.772 202.438C51.7781 202.438 51.7842 202.438 51.7904 202.438C53.7528 202.444 54.918 203.122 55.5489 203.692C56.0379 204.132 56.3057 204.622 56.4646 204.952C56.505 205.038 56.4989 205.138 56.4475 205.217C56.3962 205.296 56.3118 205.349 56.2128 205.339C54.4399 205.278 52.7367 205.529 51.1509 206.088C49.7289 206.59 48.9073 207.158 48.0368 207.759C47.0904 208.412 46.1123 209.087 44.3296 209.687C42.6301 210.255 41.3475 210.472 40.3791 210.472ZM37.9081 208.634C37.9705 208.819 38.0903 209.006 38.2859 209.232C38.7701 209.785 40.1762 210.511 44.1535 209.174C45.8653 208.599 46.8116 207.945 47.7274 207.314C48.5894 206.719 49.4795 206.104 50.9687 205.578C52.4543 205.054 54.0364 204.788 55.6809 204.788C55.7078 204.788 55.7359 204.788 55.7628 204.788C55.6259 204.566 55.44 204.32 55.1869 204.091C54.3824 203.365 53.2062 202.98 51.7879 202.976C51.7818 202.976 51.7757 202.976 51.7708 202.976C48.4231 202.976 40.2055 205.582 39.1491 205.921L37.9081 208.634Z" fill="black"/>
<path d="M50.4589 219.286C50.4589 219.286 56.6347 221.663 56.6285 217.61C56.6285 217.478 51.5532 201.083 51.5532 201.083L44.2832 205.02L50.4589 219.286Z" fill="white"/>
<path d="M53.9066 220.248C52.2352 220.248 50.4684 219.578 50.3633 219.538C50.296 219.512 50.241 219.46 50.2129 219.394L44.0372 205.127C43.9809 204.999 44.0335 204.85 44.1558 204.782L51.4258 200.846C51.4967 200.808 51.5811 200.803 51.6557 200.833C51.7302 200.864 51.7877 200.926 51.8109 201.004C56.8973 217.438 56.8985 217.559 56.8985 217.61C56.8997 218.576 56.5733 219.291 55.9277 219.735C55.3763 220.115 54.65 220.248 53.9066 220.248ZM50.6604 219.072C51.2534 219.282 54.2184 220.258 55.622 219.29C56.1135 218.951 56.3544 218.411 56.3593 217.64C56.1979 217.025 53.1094 207.021 51.394 201.476L44.629 205.138L50.6604 219.072Z" fill="black"/>
<path d="M49.6988 223.527H65.0018C65.4151 223.527 65.7342 223.164 65.6804 222.755L65.5667 221.883C65.2794 221.111 64.7194 220.468 63.9931 220.079L55.6936 215.621C55.6936 215.621 53.0159 216.189 53.247 218.999C53.247 218.999 51.4436 217.267 49.782 218.48C49.782 218.48 49.1339 220.64 49.1877 223.029C49.1926 223.306 49.4213 223.527 49.6988 223.527Z" fill="white"/>
<path d="M65.0016 223.797H49.6986C49.2768 223.797 48.9259 223.454 48.9173 223.034C48.8635 220.63 49.4956 218.492 49.5225 218.402C49.5397 218.346 49.5739 218.297 49.6216 218.261C50.8149 217.39 52.1488 217.87 52.968 218.43C53.1123 215.923 55.609 215.363 55.6359 215.357C55.6983 215.343 55.7631 215.353 55.8193 215.384L64.1188 219.842C64.9038 220.263 65.5078 220.956 65.8183 221.79C65.8257 221.81 65.8306 221.829 65.833 221.849L65.9467 222.721C65.9822 222.992 65.899 223.266 65.7181 223.472C65.5371 223.679 65.2755 223.797 65.0016 223.797ZM50.014 218.646C49.8967 219.072 49.4101 220.974 49.4553 223.022C49.4577 223.151 49.5666 223.257 49.6986 223.257H65.0016C65.1226 223.257 65.2339 223.207 65.3134 223.116C65.3928 223.025 65.4283 222.909 65.4124 222.79L65.3024 221.949C65.0346 221.251 64.5247 220.672 63.8645 220.317L55.6567 215.908C55.208 216.032 53.3263 216.696 53.5146 218.976C53.5243 219.088 53.4632 219.193 53.3617 219.242C53.2602 219.291 53.1404 219.271 53.0597 219.194C52.9925 219.13 51.4495 217.685 50.014 218.646Z" fill="black"/>
<path d="M60.7218 220.656C60.7084 220.656 60.6937 220.655 60.679 220.652C56.6454 220.017 54.2563 217.9 54.156 217.811C54.0448 217.712 54.0362 217.542 54.1353 217.43C54.2343 217.32 54.4055 217.31 54.5155 217.41C54.5387 217.43 56.8948 219.51 60.7622 220.118C60.9089 220.142 61.0091 220.28 60.9859 220.427C60.9663 220.56 60.8514 220.656 60.7218 220.656Z" fill="black"/>
<path d="M65.1185 222.805H49.725C49.5759 222.805 49.4561 222.684 49.4561 222.536C49.4561 222.388 49.5771 222.266 49.725 222.266H65.1185C65.2677 222.266 65.3875 222.388 65.3875 222.536C65.3875 222.684 65.2677 222.805 65.1185 222.805Z" fill="black"/>
<path d="M17.8194 210.026C16.4671 209.726 13.875 209.152 13.3016 207.379C12.8675 206.036 13.7968 204.638 14.0083 204.32C16.6224 200.388 25.2838 199.277 30.1867 203.126C32.7739 205.157 34.5248 208.734 33.6102 209.876C33.0539 210.57 31.8814 209.905 29.0142 209.653C23.6625 209.183 22.2944 211.018 17.8194 210.026Z" fill="white"/>
<path d="M20.3858 210.593C19.6118 210.593 18.7596 210.511 17.7619 210.289C16.3314 209.972 13.6672 209.381 13.0473 207.462C12.7368 206.501 12.9923 205.364 13.7858 204.17C14.9559 202.411 17.3083 201.132 20.2403 200.66C24.0049 200.054 27.7854 200.897 30.3543 202.913C32.2885 204.432 33.9012 206.914 34.1054 208.686C34.1727 209.267 34.0773 209.725 33.8218 210.045C33.3682 210.61 32.6578 210.483 31.4791 210.272C30.8311 210.156 30.0241 210.013 28.9922 209.921C26.5041 209.701 24.8583 209.994 23.407 210.251C22.4313 210.425 21.4887 210.593 20.3858 210.593ZM17.8781 209.763C20.1914 210.276 21.6378 210.019 23.3117 209.721C24.796 209.457 26.4796 209.158 29.0374 209.384C30.0938 209.477 30.913 209.624 31.572 209.741C32.692 209.942 33.1554 210.01 33.3999 209.707C33.5601 209.507 33.6188 209.176 33.5699 208.748C33.4061 207.331 32.0342 204.92 30.0205 203.339C27.5678 201.414 23.9426 200.613 20.3247 201.194C17.5406 201.642 15.3203 202.835 14.2333 204.47C13.5339 205.522 13.3004 206.499 13.5584 207.297C14.0841 208.921 16.5515 209.469 17.8781 209.763Z" fill="black"/>
<path d="M18.5694 202.708C18.3542 202.845 21.1505 219.908 21.1505 219.908L26.7357 220.59L26.4899 204.149L18.5694 202.708Z" fill="white"/>
<path d="M26.736 220.859C26.725 220.859 26.714 220.859 26.703 220.856L21.1179 220.175C20.9993 220.16 20.9039 220.069 20.8843 219.951C20.877 219.908 20.1776 215.635 19.5125 211.399C18.1406 202.659 18.2128 202.613 18.4243 202.479C18.4818 202.442 18.5502 202.428 18.6163 202.441L26.5367 203.883C26.6639 203.906 26.7556 204.015 26.7581 204.145L27.0038 220.585C27.005 220.663 26.972 220.738 26.9146 220.789C26.8656 220.834 26.8021 220.859 26.736 220.859ZM21.3832 219.664L26.4609 220.284L26.2225 204.375L18.8388 203.029C18.9892 204.742 20.3891 213.59 21.3832 219.664Z" fill="black"/>
<path d="M35.7871 223.527H20.4156C20.4156 223.527 19.8495 219.709 20.7347 218.009L21.214 218.547C21.4622 218.826 21.8889 218.848 22.1652 218.598C22.7766 218.048 23.8501 217.152 24.7769 216.729C26.5767 215.908 32.6008 219.982 34.908 221.364C35.4545 221.692 35.7883 222.281 35.7883 222.919V223.527H35.7871Z" fill="white"/>
<path d="M35.787 223.797H20.4155C20.2822 223.797 20.1685 223.699 20.149 223.567C20.1257 223.407 19.5804 219.641 20.4962 217.885C20.5378 217.806 20.6136 217.752 20.7016 217.741C20.7884 217.73 20.8777 217.763 20.9364 217.829L21.4157 218.367C21.4866 218.446 21.5856 218.494 21.692 218.5C21.8033 218.504 21.9047 218.47 21.9854 218.396C22.697 217.756 23.74 216.904 24.6643 216.483C26.2085 215.779 30.0514 218.031 33.8552 220.399C34.3124 220.683 34.7159 220.935 35.0448 221.132C35.6684 221.505 36.056 222.191 36.056 222.918V223.525C36.056 223.677 35.9361 223.797 35.787 223.797ZM20.6515 223.258H35.518V222.92C35.518 222.38 35.2307 221.874 34.7685 221.597C34.4371 221.399 34.03 221.145 33.5703 220.859C31.0283 219.276 26.2978 216.331 24.8881 216.976C23.9808 217.39 22.9049 218.297 22.3449 218.8C22.1566 218.969 21.9133 219.05 21.6614 219.041C21.4096 219.027 21.1797 218.916 21.0122 218.728L20.8153 218.508C20.3055 219.975 20.5573 222.488 20.6515 223.258Z" fill="black"/>
<path d="M35.0694 222.597H20.7397C20.5905 222.597 20.4707 222.476 20.4707 222.328C20.4707 222.179 20.5917 222.059 20.7397 222.059H35.0694C35.2186 222.059 35.3384 222.18 35.3384 222.328C35.3396 222.477 35.2186 222.597 35.0694 222.597Z" fill="black"/>
<path d="M28.6181 220.759C28.5777 220.759 28.5361 220.749 28.497 220.729L24.0648 218.491C23.9316 218.423 23.879 218.262 23.9462 218.128C24.0135 217.996 24.1761 217.942 24.3081 218.008L28.7403 220.247C28.8736 220.314 28.9262 220.476 28.8589 220.609C28.8112 220.705 28.7159 220.759 28.6181 220.759Z" fill="black"/>
<path d="M56.2197 205.068C53.2645 195.684 50.2824 186.307 47.271 176.937C43.2129 164.308 39.1047 151.697 34.9476 139.104C28.4919 139.862 14.0754 134.958 15.5805 141.377C16.3263 144.559 16.2578 145.263 16.1771 146.448C15.5536 155.703 14.5852 162.319 14.6158 164.632C14.6439 166.684 14.7234 172.849 14.5852 181.278C14.5632 182.654 14.5241 184.123 14.4617 185.892C14.1463 194.798 13.5496 196.971 13.5019 204.225C13.4958 205.245 13.4995 206.233 13.5117 207.192C16.797 206.549 20.5506 206.369 24.5304 207.268C27.6776 207.98 28.0334 208.703 30.8676 209.086C31.7992 209.212 32.6698 209.255 33.4975 209.237C31.1732 178.238 31.3444 171.128 31.3444 171.128C32.2284 178.014 33.3264 185.2 34.6848 192.651C35.6825 198.124 36.7633 203.41 37.9016 208.516C41.2554 207.524 44.1959 205.786 48.2002 205.047C50.2934 204.662 52.9637 204.497 56.2197 205.068Z" fill="#157B6C"/>
<path d="M31.3454 170.881C31.1999 170.881 31.0801 170.765 31.0764 170.619L30.6632 155.415C30.6607 155.324 30.7048 155.238 30.7793 155.186L32.7576 153.822C32.8799 153.737 33.0474 153.768 33.133 153.89C33.2173 154.013 33.1868 154.182 33.0633 154.266L31.2048 155.548L31.6132 170.606C31.6169 170.755 31.4995 170.879 31.3516 170.882C31.3503 170.881 31.3479 170.881 31.3454 170.881Z" fill="white"/>
<path d="M51.9916 111.77L49.4093 111.942C49.1012 113.06 48.5315 114.681 47.4249 116.403C46.4003 117.996 44.2191 121.39 41.5732 121.47C38.8454 121.552 36.8513 115.752 33.3813 112.682C28.8464 112.288 24.9889 112.469 22.0655 112.775C18.2532 113.174 15.3664 113.854 14.1866 114.149C11.2998 114.874 8.82269 115.748 6.68912 116.606C5.44933 120.524 1.84367 130.08 3.43437 141.437C4.65093 150.124 14.0337 155.614 16.5683 158.438C17.1931 157.736 17.714 156.921 18.148 156.051C17.4083 154.718 16.2993 152.721 14.9434 150.295C12.3477 145.649 11.8329 144.764 11.6141 144.346C10.4635 142.154 9.94999 138.535 11.9943 132.17C11.8977 133.375 11.8733 134.679 11.9613 136.068C12.1973 139.738 12.4039 142.962 14.5729 144.458C16.4118 145.726 17.7519 144.437 25.544 143.115C31.9251 142.033 34.6113 142.29 36.5028 139.93C37.5445 138.63 37.8661 137.134 37.9712 136.066C37.4724 133.699 36.9821 131.307 36.4967 128.904C38.6376 130.029 41.0548 130.505 43.071 130.17C48.7308 129.228 53.8501 121.462 51.9916 111.77Z" fill="white"/>
<path d="M16.5686 158.708C16.4916 158.708 16.4194 158.676 16.3681 158.619C15.7898 157.975 14.8202 157.166 13.6965 156.229C9.88057 153.048 4.11444 148.24 3.16687 141.476C1.69844 130.995 4.65853 121.953 6.08172 117.607C6.21133 117.209 6.32993 116.85 6.43141 116.526C6.45586 116.449 6.51333 116.388 6.58791 116.357C9.16408 115.322 11.6278 114.515 14.1208 113.89C16.5979 113.268 19.3355 112.791 22.0376 112.508C25.7839 112.115 29.6084 112.083 33.4048 112.414C33.4623 112.418 33.5161 112.442 33.5601 112.48C35.0187 113.77 36.2329 115.552 37.3051 117.124C38.7944 119.31 40.0831 121.201 41.5173 121.201C41.5332 121.201 41.5503 121.201 41.5662 121.2C44.0702 121.124 46.183 117.836 47.199 116.257C48.0635 114.913 48.72 113.437 49.1504 111.871C49.181 111.761 49.2776 111.682 49.3925 111.674L51.9748 111.502C52.1105 111.492 52.2316 111.586 52.2572 111.72C53.2549 116.919 52.3184 122.07 49.6884 125.851C47.9167 128.398 45.5827 130.026 43.1165 130.436C41.203 130.755 38.9545 130.375 36.8711 129.392C37.3785 131.898 37.8138 134.013 38.2356 136.012C38.2417 136.039 38.2429 136.067 38.2405 136.094C38.084 137.685 37.5705 139.033 36.7146 140.1C35.1948 141.996 33.1578 142.281 29.4617 142.797C28.3393 142.953 27.0665 143.131 25.5907 143.382C22.7822 143.858 20.8027 144.333 19.3575 144.679C16.7667 145.301 15.6944 145.558 14.4216 144.681C12.145 143.11 11.9359 139.855 11.6938 136.087C11.6571 135.519 11.6388 134.946 11.6388 134.372C10.5616 138.589 10.6325 141.896 11.854 144.222C11.9567 144.419 12.1364 144.737 12.568 145.504C13.0436 146.35 13.831 147.748 15.1796 150.163C16.5356 152.59 17.6446 154.587 18.3843 155.92C18.4271 155.998 18.4295 156.091 18.3904 156.171C17.9197 157.116 17.3743 157.938 16.7716 158.616C16.719 158.675 16.6456 158.707 16.5686 158.708ZM6.90703 116.809C6.81411 117.102 6.70773 117.424 6.59402 117.774C5.18428 122.081 2.25109 131.042 3.70118 141.4C4.61941 147.959 10.2902 152.686 14.0413 155.815C15.0574 156.662 15.9499 157.406 16.56 158.035C17.0295 157.468 17.4599 156.806 17.8426 156.058C17.1041 154.726 16.0208 152.78 14.7077 150.427C13.3591 148.014 12.5729 146.615 12.0973 145.77C11.6498 144.974 11.4823 144.677 11.3747 144.473C9.88668 141.638 10.0077 137.47 11.7366 132.088C11.7782 131.957 11.9114 131.877 12.0459 131.905C12.1804 131.932 12.2733 132.055 12.2623 132.192C12.1596 133.478 12.1486 134.777 12.2306 136.051C12.4629 139.68 12.6646 142.814 14.726 144.236C15.8008 144.978 16.6652 144.771 19.2304 144.154C20.6829 143.805 22.6722 143.328 25.499 142.849C26.9821 142.599 28.2586 142.42 29.3847 142.262C33.0612 141.748 34.9063 141.491 36.2916 139.761C37.0728 138.786 37.546 137.547 37.6976 136.08C37.2489 133.951 36.7831 131.685 36.2316 128.957C36.2109 128.855 36.2512 128.75 36.3343 128.687C36.4175 128.625 36.5288 128.616 36.6217 128.664C38.7381 129.777 41.0734 130.227 43.0273 129.903C45.3491 129.516 47.5573 127.968 49.2458 125.54C51.7535 121.934 52.6693 117.031 51.7706 112.054L49.6175 112.198C49.1724 113.748 48.511 115.211 47.6514 116.548C46.5865 118.206 44.3685 121.655 41.5821 121.74C41.5601 121.74 41.538 121.741 41.5148 121.741C39.7982 121.741 38.4349 119.741 36.8589 117.428C35.822 115.907 34.6483 114.185 33.2691 112.942C29.5363 112.624 25.7778 112.657 22.0939 113.043C19.4174 113.323 16.7055 113.797 14.2529 114.411C11.821 115.021 9.41718 115.807 6.90703 116.809Z" fill="black"/>
<path d="M49.0072 108.044L50.3852 103.458C50.4806 103.14 50.7899 102.936 51.1212 102.974C51.4954 103.017 51.7656 103.353 51.7265 103.728L51.5284 105.608L53.3538 107.073C53.9163 107.525 54.1364 108.278 53.9065 108.961L53.2988 110.767C52.9944 111.672 52.1666 112.297 51.2129 112.343L50.571 112.373C49.5831 112.421 48.6735 111.836 48.3079 110.918L47.8763 109.836C47.6048 109.158 47.9619 108.39 48.6551 108.16L49.0072 108.044Z" fill="white"/>
<path d="M50.4608 112.647C49.4069 112.647 48.452 112.006 48.0583 111.019L47.6267 109.937C47.4677 109.54 47.48 109.106 47.6597 108.718C47.8407 108.329 48.1634 108.041 48.5706 107.905L48.7907 107.832L50.1283 103.381C50.2616 102.938 50.6919 102.654 51.1529 102.707C51.6725 102.766 52.0503 103.237 51.9965 103.757L51.8143 105.492L53.5261 106.865C54.1741 107.385 54.4309 108.263 54.1656 109.05L53.5579 110.857C53.2155 111.874 52.301 112.564 51.2299 112.616L50.588 112.646C50.5428 112.646 50.5024 112.647 50.4608 112.647ZM51.0428 103.239C50.8607 103.239 50.6968 103.358 50.643 103.537L49.2651 108.122C49.2394 108.207 49.1758 108.273 49.0915 108.301L48.7393 108.418C48.474 108.506 48.2637 108.694 48.1476 108.946C48.0302 109.198 48.0228 109.478 48.1255 109.737L48.5571 110.819C48.8812 111.629 49.6845 112.146 50.5574 112.105L51.1993 112.075C52.0479 112.034 52.7717 111.487 53.0431 110.683L53.6508 108.876C53.844 108.303 53.6569 107.663 53.185 107.285L51.3595 105.82C51.2874 105.762 51.2507 105.673 51.2605 105.581L51.4586 103.701C51.4818 103.474 51.3179 103.269 51.0905 103.243C51.0746 103.241 51.0587 103.239 51.0428 103.239Z" fill="black"/>
<path d="M49.0068 108.044L50.5939 108.246C50.5939 108.246 50.8286 109.537 49.8297 109.513L49.0068 108.044Z" fill="white"/>
<path d="M49.8567 109.783C49.8457 109.783 49.8334 109.783 49.8224 109.783C49.6733 109.78 49.5559 109.656 49.5596 109.507C49.5632 109.357 49.6806 109.243 49.8359 109.243C49.9997 109.251 50.1208 109.205 50.2002 109.112C50.3323 108.958 50.3555 108.686 50.3482 108.487L48.9739 108.312C48.826 108.294 48.722 108.158 48.7404 108.011C48.7587 107.863 48.8957 107.761 49.0424 107.777L50.6294 107.979C50.7456 107.994 50.8397 108.083 50.8605 108.198C50.8752 108.28 50.995 109.015 50.6111 109.463C50.4839 109.609 50.2528 109.783 49.8567 109.783Z" fill="black"/>
<path d="M51.6297 108.548C51.6151 108.548 51.5992 108.547 51.5845 108.544C51.4378 108.52 51.3387 108.38 51.3644 108.234L51.752 105.959C51.7764 105.812 51.9171 105.713 52.0626 105.739C52.2093 105.763 52.3083 105.903 52.2826 106.05L51.895 108.324C51.873 108.455 51.7581 108.548 51.6297 108.548Z" fill="black"/>
<path d="M52.7655 109.094C52.7496 109.094 52.7338 109.093 52.7179 109.09C52.5711 109.063 52.4745 108.924 52.5002 108.777L52.8267 106.97C52.8536 106.823 52.9942 106.727 53.1397 106.752C53.2864 106.779 53.383 106.919 53.3573 107.066L53.0309 108.872C53.0064 109.002 52.8927 109.094 52.7655 109.094Z" fill="black"/>
<path d="M36.4012 127.44C36.2778 127.44 36.1677 127.356 36.1384 127.23L34.33 119.263C34.297 119.118 34.3875 118.973 34.533 118.94C34.6785 118.907 34.8228 118.999 34.8558 119.144L36.6641 127.11C36.6971 127.255 36.6067 127.4 36.4612 127.433C36.4404 127.438 36.4208 127.44 36.4012 127.44Z" fill="black"/>
<path d="M14.9685 159.861C14.8622 159.861 14.7607 159.798 14.7191 159.692C14.6629 159.554 14.7301 159.397 14.8671 159.341C20.2236 157.166 19.4362 145.118 19.4276 144.997C19.4166 144.848 19.5291 144.719 19.6771 144.709C19.8323 144.697 19.9546 144.811 19.9644 144.959C20.0011 145.47 20.7848 157.521 15.0688 159.842C15.037 159.855 15.0028 159.861 14.9685 159.861Z" fill="white"/>
<path d="M26.8034 112.451C25.1687 112.184 23.9961 110.73 24.0829 109.076L24.2174 106.508C25.769 106.387 27.0589 105.649 27.0552 105.158C27.0528 104.919 26.4843 102.585 26.1285 101.62C26.4292 101.375 26.7948 100.702 26.1468 100.29C25.5 99.8772 24.045 97.2516 24.045 97.2516C22.2514 95.167 21.7317 98.1047 20.3917 98.3496C19.4637 98.5185 18.9599 99.084 19.3108 100.296C19.6617 101.509 18.9954 100.9 18.3119 100.554C17.6297 100.209 17.165 100.477 17.5392 101.58C17.9133 102.683 19.279 103.345 19.279 103.345L19.9258 104.614L18.5626 110.858C18.3046 112.038 17.456 113.003 16.3177 113.409L14.4385 114.079L24.3152 119.248L29.0861 112.824L26.8034 112.451Z" fill="white"/>
<path d="M24.3153 119.517C24.2725 119.517 24.2297 119.507 24.1906 119.486L14.3139 114.317C14.2185 114.268 14.1622 114.167 14.1696 114.059C14.1769 113.951 14.2466 113.859 14.3481 113.824L16.2273 113.154C17.285 112.777 18.0601 111.897 18.2998 110.8L19.6435 104.651L19.0798 103.544C18.7607 103.374 17.6408 102.711 17.285 101.667C17.0612 101.007 17.0906 100.547 17.3754 100.299C17.5173 100.176 17.8425 100.014 18.4343 100.314C18.5627 100.379 18.6898 100.452 18.8096 100.522C18.905 100.577 19.0297 100.649 19.1288 100.697C19.1177 100.626 19.0957 100.521 19.0529 100.372C18.8659 99.7229 18.894 99.1941 19.1385 98.7975C19.3672 98.4291 19.7719 98.1892 20.3441 98.0839C20.7317 98.0129 21.0777 97.6114 21.4127 97.2234C21.8309 96.7387 22.2625 96.238 22.8714 96.238C23.314 96.238 23.7651 96.5122 24.2493 97.0753C24.2615 97.0888 24.2713 97.1047 24.2811 97.1206C24.8313 98.1133 25.8632 99.789 26.2924 100.062C26.669 100.302 26.7631 100.609 26.7754 100.823C26.7949 101.154 26.6372 101.473 26.4416 101.692C26.7986 102.738 27.3243 104.875 27.3268 105.154C27.3317 105.841 26.0014 106.574 24.4755 106.753L24.3532 109.089C24.2738 110.608 25.346 111.939 26.8487 112.184L29.1302 112.557C29.2231 112.572 29.3014 112.634 29.3369 112.722C29.3723 112.809 29.3601 112.908 29.3038 112.984L24.533 119.407C24.4792 119.479 24.3985 119.517 24.3153 119.517ZM15.1098 114.125L24.2359 118.901L28.6045 113.018L26.7595 112.717C24.9866 112.427 23.7199 110.856 23.8128 109.061L23.9473 106.493C23.9546 106.358 24.061 106.248 24.1955 106.238C25.7715 106.116 26.7864 105.384 26.7851 105.159C26.7729 104.93 26.2288 102.672 25.8742 101.713C25.8339 101.605 25.8681 101.483 25.9574 101.411C26.0809 101.31 26.2484 101.072 26.2362 100.855C26.2288 100.723 26.1518 100.613 26.0014 100.517C25.3338 100.093 24.028 97.7779 23.8226 97.407C23.4595 96.9896 23.1391 96.7778 22.8701 96.7778C22.507 96.7778 22.1732 97.1659 21.8186 97.5771C21.4237 98.0362 21.0141 98.5099 20.4395 98.6151C20.0237 98.691 19.7401 98.8477 19.5958 99.0815C19.4344 99.3422 19.4259 99.7253 19.5689 100.221C19.701 100.68 19.7425 101.023 19.5127 101.203C19.2559 101.404 18.9246 101.211 18.5394 100.989C18.4269 100.924 18.3083 100.855 18.1897 100.795C17.9281 100.663 17.7704 100.669 17.7276 100.706C17.6738 100.752 17.6187 100.976 17.7936 101.493C18.1286 102.477 19.3831 103.095 19.3965 103.101C19.4491 103.127 19.4919 103.17 19.5188 103.221L20.1656 104.491C20.1937 104.546 20.2023 104.609 20.1888 104.67L18.8255 110.914C18.5455 112.193 17.642 113.22 16.4071 113.661L15.1098 114.125Z" fill="black"/>
<path d="M23.6597 106.846C22.4871 106.846 21.7596 105.996 21.5163 105.475C21.454 105.34 21.5114 105.178 21.6472 105.116C21.7817 105.054 21.9418 105.111 22.0054 105.246C22.0335 105.305 22.6681 106.596 24.1549 106.245C24.2991 106.209 24.4446 106.3 24.4789 106.445C24.5131 106.59 24.4239 106.735 24.2784 106.77C24.0607 106.821 23.8541 106.846 23.6597 106.846Z" fill="black"/>
<path d="M28.0016 69.2539C33.2308 69.2539 37.47 65.0303 37.47 59.8202C37.47 54.6101 33.2308 50.3865 28.0016 50.3865C22.7723 50.3865 18.5332 54.6101 18.5332 59.8202C18.5332 65.0303 22.7723 69.2539 28.0016 69.2539Z" fill="white"/>
<path d="M28.0061 69.5244C23.816 69.5244 19.9364 66.8058 18.6734 62.6061C17.9288 60.1299 18.1929 57.5129 19.4192 55.2349C20.6517 52.9447 22.707 51.2715 25.2061 50.526C30.3487 48.9899 35.7872 51.9092 37.329 57.0343C38.0736 59.5105 37.8095 62.1275 36.5831 64.4055C35.3507 66.6957 33.2954 68.3689 30.7962 69.1144C29.8682 69.3922 28.9292 69.5244 28.0061 69.5244ZM27.9975 50.6558C27.1245 50.6558 26.2381 50.7806 25.3602 51.0426C23.0004 51.7476 21.0588 53.3267 19.8948 55.4908C18.737 57.6414 18.4876 60.1128 19.1906 62.4507C20.6468 67.2905 25.7845 70.0483 30.6434 68.5978C33.0031 67.8928 34.9447 66.3138 36.1087 64.1496C37.2666 61.999 37.516 59.5277 36.813 57.1897C35.6197 53.2238 31.9553 50.6558 27.9975 50.6558Z" fill="black"/>
<path d="M25.147 63.5143L24.5565 56.3194C24.5259 55.9522 24.8915 55.6805 25.2338 55.8163L32.7154 58.7736C33.0956 58.9242 33.1409 59.4444 32.7924 59.6586L25.9002 63.8962C25.586 64.0909 25.1776 63.8828 25.147 63.5143Z" fill="#157B6C"/>
<path d="M60.0618 30.3416C65.3491 30.3416 69.6354 26.0714 69.6354 20.8039C69.6354 15.5363 65.3491 11.2661 60.0618 11.2661C54.7745 11.2661 50.4883 15.5363 50.4883 20.8039C50.4883 26.0714 54.7745 30.3416 60.0618 30.3416Z" fill="white"/>
<path d="M60.067 30.612C55.8316 30.612 51.9105 27.8641 50.6341 23.6191C49.8809 21.1159 50.1487 18.4708 51.3884 16.1683C52.6343 13.8537 54.7117 12.1633 57.2377 11.4092C62.4353 9.85594 67.9337 12.8083 69.4914 17.9873C70.2445 20.4892 69.9768 23.1356 68.737 25.438C67.4911 27.7527 65.4137 29.4431 62.8877 30.1971C61.9487 30.4786 60.9999 30.612 60.067 30.612ZM51.15 23.4649C52.6233 28.3598 57.8185 31.1494 62.7336 29.6818C65.1215 28.9694 67.0839 27.3708 68.2613 25.1834C69.4327 23.0083 69.6845 20.5076 68.9742 18.1439C67.5008 13.2478 62.3057 10.4594 57.3906 11.927C55.0039 12.6394 53.0403 14.238 51.8628 16.4254C50.6915 18.6005 50.4384 21.1 51.15 23.4649Z" fill="black"/>
<path d="M57.9746 27.0513H56.4512L58.383 14.6982H59.9064L57.9746 27.0513Z" fill="black"/>
<path d="M55.2188 19.805L55.4254 18.3545H65.2899L65.0821 19.805H55.2188Z" fill="black"/>
<path d="M54.748 23.1002L54.9559 21.6497H64.8192L64.6114 23.1002H54.748Z" fill="black"/>
<path d="M61.6211 27.0513H60.0977L62.0283 14.6982H63.5517L61.6211 27.0513Z" fill="black"/>
<path d="M34.7606 45.281C41.472 45.281 46.9127 39.8342 46.9127 33.1152C46.9127 26.3963 41.472 20.9495 34.7606 20.9495C28.0491 20.9495 22.6084 26.3963 22.6084 33.1152C22.6084 39.8342 28.0491 45.281 34.7606 45.281Z" fill="white"/>
<path d="M34.761 45.5515C27.9116 45.5515 22.3398 39.9735 22.3398 33.1165C22.3398 26.2594 27.9128 20.6814 34.761 20.6814C41.6104 20.6814 47.1834 26.2594 47.1834 33.1165C47.1821 39.9723 41.6104 45.5515 34.761 45.5515ZM34.761 21.22C28.2087 21.22 22.8778 26.5568 22.8778 33.1165C22.8778 39.6761 28.2087 45.0129 34.761 45.0129C41.3133 45.0129 46.6442 39.6761 46.6442 33.1165C46.6442 26.5568 41.3133 21.22 34.761 21.22Z" fill="black"/>
<path d="M34.8279 39.2353C34.708 39.31 34.5564 39.3137 34.4329 39.2439C33.3619 38.6441 28.3942 35.6477 28.5886 31.7283C28.794 27.5849 33.2849 28.3034 34.3938 30.3427C34.4354 30.4198 34.5185 30.4663 34.6066 30.4614C34.6946 30.4565 34.7716 30.4026 34.8059 30.3206C35.3499 29.0109 37.1069 28.0623 38.7612 28.6841C40.7334 29.4271 42.7386 34.3269 34.8279 39.2353Z" fill="#157B6C"/>
<path d="M58.4665 90.0407L50.689 91.7948C49.7305 92.0114 48.9859 92.7667 48.7817 93.7288L47.7449 98.6164L44.1881 94.5966C43.5804 93.9099 42.6475 93.6088 41.7525 93.8096L34.6011 95.4253C33.2464 95.7313 31.9002 94.8794 31.5946 93.5219L28.1735 78.3229C27.8678 76.9667 28.7188 75.619 30.0748 75.313L53.9401 69.9297C55.2949 69.6237 56.641 70.4756 56.9467 71.8331L60.3677 87.032C60.6722 88.3883 59.8212 89.7359 58.4665 90.0407Z" fill="white"/>
<path d="M47.7464 98.8868C47.6706 98.8868 47.596 98.8549 47.5446 98.7962L43.9879 94.7776C43.445 94.1644 42.6124 93.8951 41.814 94.075L34.6613 95.6883C33.1636 96.0274 31.6707 95.0812 31.3332 93.5818L27.9122 78.3828C27.5747 76.8834 28.5186 75.3888 30.0164 75.051L53.8818 69.6676C55.3795 69.3298 56.8724 70.2747 57.2099 71.7742L60.6309 86.9731C60.9684 88.4726 60.0245 89.9672 58.5267 90.305L50.7493 92.0591C49.8958 92.2512 49.2283 92.9293 49.0461 93.785L48.0093 98.6726C47.9885 98.7717 47.9127 98.8513 47.8149 98.877C47.7916 98.8843 47.7684 98.8868 47.7464 98.8868ZM42.3055 93.4802C43.0929 93.4802 43.8546 93.8155 44.3901 94.419L47.5923 98.0373L48.5179 93.6723C48.7429 92.6111 49.5718 91.7702 50.6294 91.5315L58.4069 89.7774C59.6149 89.5045 60.3766 88.2988 60.1039 87.0894L56.6829 71.8905C56.4103 70.6811 55.2071 69.9185 53.9979 70.1915L30.1325 75.5749C28.9245 75.8478 28.164 77.0535 28.4355 78.2629L31.8565 93.4618C31.9886 94.0469 32.3407 94.5463 32.8469 94.8682C33.3531 95.1901 33.9558 95.293 34.5403 95.1608L41.6929 93.5475C41.8971 93.5022 42.1025 93.4802 42.3055 93.4802Z" fill="black"/>
<path d="M35.2882 80.7698C35.1647 80.7698 35.0547 80.6854 35.0253 80.5605C34.9923 80.4148 35.0828 80.2704 35.2283 80.2374L52.3849 76.3204C52.5304 76.2861 52.6746 76.3779 52.7077 76.5236C52.7407 76.6693 52.6502 76.8137 52.5047 76.8468L35.3481 80.7637C35.3273 80.7674 35.3078 80.7698 35.2882 80.7698Z" fill="black"/>
<path d="M35.7892 84.8886C35.6657 84.8886 35.5557 84.8042 35.5263 84.6793C35.4933 84.5337 35.5838 84.3892 35.7293 84.3562L48.4451 81.4527C48.5906 81.4185 48.7349 81.5103 48.7679 81.6559C48.8009 81.8016 48.7104 81.946 48.5649 81.9791L35.8491 84.8825C35.8295 84.8862 35.8088 84.8886 35.7892 84.8886Z" fill="black"/>
<path d="M37.1945 88.9059C37.071 88.9059 36.9609 88.8214 36.9316 88.6966C36.8986 88.5509 36.9891 88.4065 37.1346 88.3734L54.2911 84.4565C54.4366 84.4235 54.5809 84.514 54.6139 84.6597C54.6469 84.8054 54.5564 84.9498 54.4109 84.9829L37.2544 88.8998C37.2348 88.9035 37.214 88.9059 37.1945 88.9059Z" fill="black"/>
<path d="M221.92 76.1013C222.616 76.1013 223.181 76.6668 223.181 77.3633V86.0479C223.181 86.7444 222.616 87.3099 221.92 87.3099H198.006C197.31 87.3099 196.745 86.7444 196.745 86.0479V77.3633C196.745 76.6668 197.31 76.1013 198.006 76.1013H221.92Z" fill="white"/>
<path d="M221.92 87.5804H198.006C197.162 87.5804 196.477 86.8937 196.477 86.0491V77.3645C196.477 76.5199 197.162 75.8333 198.006 75.8333H202.724C202.874 75.8333 202.993 75.9544 202.993 76.1025C202.993 76.2519 202.872 76.3718 202.724 76.3718H198.006C197.46 76.3718 197.015 76.8174 197.015 77.3645V86.0491C197.015 86.5963 197.46 87.0418 198.006 87.0418H221.92C222.467 87.0418 222.912 86.5963 222.912 86.0491V77.3645C222.912 76.8174 222.467 76.3718 221.92 76.3718H205.902C205.753 76.3718 205.633 76.2506 205.633 76.1025C205.633 75.9532 205.754 75.8333 205.902 75.8333H221.92C222.764 75.8333 223.45 76.5199 223.45 77.3645V86.0491C223.45 86.8937 222.764 87.5804 221.92 87.5804Z" fill="black"/>
<path d="M219.69 80.5054H200.684C200.535 80.5054 200.415 80.3842 200.415 80.2361C200.415 80.088 200.536 79.9668 200.684 79.9668H219.69C219.84 79.9668 219.959 80.088 219.959 80.2361C219.959 80.3842 219.84 80.5054 219.69 80.5054Z" fill="black"/>
<path d="M219.69 83.0479H215.716C215.567 83.0479 215.447 82.9267 215.447 82.7786C215.447 82.6292 215.568 82.5093 215.716 82.5093H219.69C219.839 82.5093 219.959 82.6305 219.959 82.7786C219.96 82.9279 219.839 83.0479 219.69 83.0479Z" fill="black"/>
<path d="M213.177 83.0479H200.685C200.536 83.0479 200.416 82.9267 200.416 82.7786C200.416 82.6292 200.537 82.5093 200.685 82.5093H213.177C213.326 82.5093 213.446 82.6305 213.446 82.7786C213.446 82.9279 213.325 83.0479 213.177 83.0479Z" fill="black"/>
</g>
<defs>
<clipPath id="clip0_255_6720">
<rect width="224" height="224" fill="white"/>
</clipPath>
</defs>
</svg>
