<svg width="89" height="155" viewBox="0 0 89 155" fill="none" xmlns="http://www.w3.org/2000/svg">
<path d="M73.7113 1.52727C69.3361 7.88997 64.9626 14.2505 60.5874 20.6132C59.2282 22.5869 62.2069 24.8183 63.5709 22.8382C66.7845 18.162 69.9997 13.4904 73.2133 8.81419C73.3283 46.5313 59.8942 82.2186 37.9263 112.741C27.7141 126.931 15.5877 140.855 1.64294 151.552C-0.264631 153.015 2.02587 155.949 3.92654 154.49C19.06 142.881 31.9871 127.598 42.9335 112.128C64.3421 81.8749 76.8828 46.2246 76.9161 9.17379C79.797 14.0608 82.6789 18.9485 85.5622 23.8323C86.7791 25.8993 89.6987 23.5815 88.4988 21.5471C84.5573 14.864 80.6155 8.17897 76.6722 1.49608C76.0596 0.460336 74.3362 0.618199 73.7113 1.52727Z" fill="#A7EAE5"/>
</svg>
