<svg width="35" height="146" viewBox="0 0 35 146" fill="none" xmlns="http://www.w3.org/2000/svg">
<path d="M34.5729 1.61547C34.4457 8.30191 34.3185 14.986 34.1913 21.6724C34.1532 23.7476 30.9306 23.817 30.9686 21.7349C31.0633 16.8218 31.1547 11.911 31.2495 6.99785C12.1515 33.4994 3.61791 65.403 3.69781 97.9724C3.73458 113.113 5.2527 129.033 9.67934 143.596C10.2847 145.588 7.19245 146.5 6.58955 144.514C1.78637 128.709 0.389285 111.429 0.481038 95.0159C0.65908 62.9184 9.80316 31.4912 28.4607 5.38411C23.9681 7.37287 19.4743 9.36165 14.9815 11.347C13.0824 12.1889 12.1952 9.0847 14.0658 8.25714C20.211 5.53832 26.3573 2.81833 32.5036 0.100653C33.4572 -0.319832 34.5912 0.660257 34.5729 1.61547Z" fill="#A7EAE5"/>
</svg>
