<svg width="70" height="72" viewBox="0 0 70 72" fill="none" xmlns="http://www.w3.org/2000/svg">
<path d="M35.0777 57.6168H21.4594V44.0614H35.0782L35.0777 57.6168ZM21.4594 68.2507H11.1415V57.6157H21.4594V68.2507ZM11.142 57.6157H2.47734V48.8566H11.1415L11.142 57.6157ZM34.8731 71.3797V57.6157C49.3161 57.6157 60.4581 43.2271 54.8871 28.002C52.8227 22.372 48.492 17.7847 42.7137 15.6985C27.8567 10.2781 13.6199 21.5377 13.6199 35.9269H0C0 12.9883 22.0773 -5.15551 46.2219 2.35164C56.7448 5.68919 64.9983 14.0306 68.2992 24.6667C75.7263 49.0646 57.7746 71.3792 34.8726 71.3792L34.8731 71.3797Z" fill="#0080FF"/>
</svg>
