<svg width="45" height="51" viewBox="0 0 45 51" fill="none" xmlns="http://www.w3.org/2000/svg">
<g clip-path="url(#clip0_3928_3405)">
<path d="M21.2867 12.356V9.08554C20.5106 8.87729 19.8025 8.46592 19.2339 7.89291C18.6653 7.3199 18.2562 6.60552 18.048 5.82178C17.8397 5.03805 17.8397 4.21268 18.0477 3.4289C18.2558 2.64512 18.6647 1.93064 19.2332 1.35751C19.6564 0.928462 20.1591 0.588037 20.7127 0.355756C21.2663 0.123475 21.8598 0.00390625 22.4592 0.00390625C23.0586 0.00390625 23.6522 0.123475 24.2058 0.355756C24.7593 0.588037 25.2621 0.928462 25.6853 1.35751C26.2638 1.94049 26.6772 2.66953 26.8824 3.46875C27.0876 4.26797 27.077 5.10816 26.8518 5.90186C26.6267 6.69556 26.1951 7.41376 25.6021 7.98171C25.009 8.54966 24.2762 8.94659 23.4798 9.13119V12.2315L23.41 12.1983C23.286 12.1643 23.1597 12.1393 23.0322 12.1236C22.8625 12.1138 22.6925 12.1138 22.5229 12.1236H22.4654C22.328 12.1231 22.1907 12.1328 22.0547 12.1527C21.9602 12.1527 21.8452 12.1942 21.7179 12.2274C21.5779 12.2594 21.4406 12.3024 21.3072 12.356H21.2744H21.2867ZM13.8942 19.6234L22.219 14.9127L22.3217 14.8712C22.4078 14.8429 22.498 14.8289 22.5886 14.8297C22.6662 14.8289 22.7436 14.8386 22.8186 14.8587C22.8842 14.8724 22.946 14.9008 22.9993 14.9417L31.2379 19.7603C31.4354 19.8369 31.5979 19.9848 31.6937 20.1754C31.7797 20.3417 31.8221 20.5274 31.817 20.7149V30.431C31.8069 30.5905 31.7568 30.7447 31.6713 30.8791C31.5857 31.0134 31.4677 31.1235 31.3282 31.1988L23.0527 36.0589C22.993 36.0916 22.9296 36.1167 22.8638 36.1336C22.699 36.1833 22.5234 36.1833 22.3586 36.1336C22.2775 36.1102 22.2001 36.0752 22.1286 36.0299L13.6642 31.0494C13.5285 30.9745 13.4135 30.8666 13.3296 30.7354C13.2457 30.6042 13.1955 30.4539 13.1837 30.2982V20.5282C13.1845 20.3205 13.2535 20.1191 13.3799 19.9553C13.5062 19.7916 13.6828 19.6748 13.8818 19.6234H13.8942ZM21.6974 33.6558V26.0523L15.0318 22.0472V29.7005L21.6892 33.6558H21.6974ZM29.9811 22.1634L23.5373 26.0565V33.6642L29.9811 29.825V22.1634ZM22.5886 16.797L16.3008 20.5904L22.6174 24.4337L28.7449 20.6983L22.5886 16.797ZM23.5414 41.9193C24.3511 42.122 25.0908 42.5439 25.6812 43.1395C26.1057 43.5671 26.4426 44.0752 26.6724 44.6346C26.9023 45.1941 27.0206 45.7939 27.0206 46.3996C27.0206 47.0054 26.9023 47.6052 26.6724 48.1646C26.4426 48.7241 26.1057 49.2322 25.6812 49.6598C25.258 50.0888 24.7552 50.4292 24.2016 50.6615C23.6481 50.8938 23.0545 51.0134 22.4551 51.0134C21.8557 51.0134 21.2622 50.8938 20.7086 50.6615C20.155 50.4292 19.6522 50.0888 19.2291 49.6598C18.8046 49.2322 18.4677 48.7241 18.2378 48.1646C18.008 47.6052 17.8897 47.0054 17.8897 46.3996C17.8897 45.7939 18.008 45.1941 18.2378 44.6346C18.4677 44.0752 18.8046 43.5671 19.2291 43.1395C19.8149 42.5443 20.5505 42.1224 21.3565 41.9193V38.682C21.4451 38.7186 21.5356 38.7505 21.6276 38.7774L21.7836 38.8189C21.8885 38.8498 21.9956 38.872 22.104 38.8853C22.2751 38.9136 22.4481 38.9288 22.6215 38.931C22.7948 38.929 22.9678 38.9137 23.1389 38.8853C23.278 38.866 23.4154 38.8354 23.5496 38.794V41.9193H23.5414ZM24.1328 44.7C23.6854 44.2534 23.0819 44.003 22.4531 44.003C21.8242 44.003 21.2207 44.2534 20.7733 44.7C20.3312 45.1529 20.0832 45.7634 20.0832 46.3996C20.0832 47.0358 20.3312 47.6464 20.7733 48.0992C21.2207 48.5458 21.8242 48.7962 22.4531 48.7962C23.0819 48.7962 23.6854 48.5458 24.1328 48.0992C24.577 47.6474 24.8263 47.0365 24.8263 46.3996C24.8263 45.7628 24.577 45.1518 24.1328 44.7ZM24.1328 2.90561C23.6854 2.45901 23.0819 2.20858 22.4531 2.20858C21.8242 2.20858 21.2207 2.45901 20.7733 2.90561C20.3312 3.35843 20.0832 3.96901 20.0832 4.60519C20.0832 5.24137 20.3312 5.85196 20.7733 6.30478C21.2213 6.75361 21.8264 7.00567 22.4572 7.00619C22.927 7.00551 23.3861 6.86421 23.7765 6.60011C24.1669 6.33601 24.4712 5.96095 24.6509 5.52227C24.8306 5.08359 24.8777 4.60095 24.7862 4.13525C24.6947 3.66955 24.4688 3.24167 24.1369 2.90561H24.1328ZM40.4293 31.3109C41.6402 31.3115 42.8014 31.7982 43.6573 32.6639C44.0819 33.0915 44.4188 33.5996 44.6486 34.1591C44.8785 34.7185 44.9968 35.3183 44.9968 35.924C44.9968 36.5298 44.8785 37.1296 44.6486 37.689C44.4188 38.2485 44.0819 38.7566 43.6573 39.1842C42.9379 39.911 41.9989 40.3744 40.9894 40.5007C39.9798 40.6269 38.9573 40.409 38.0843 39.8813C37.2112 39.3536 36.5374 38.5465 36.1699 37.5879C35.8023 36.6293 35.762 35.5741 36.0553 34.5897L33.3817 33.0291C33.6135 32.8092 33.8139 32.5578 33.9772 32.2821C34.0548 32.1479 34.1247 32.0093 34.1867 31.867C34.2514 31.7334 34.305 31.5946 34.3468 31.452C34.3856 31.3281 34.4171 31.202 34.4413 31.0743L37.1724 32.6681L37.1971 32.639C38.0543 31.7727 39.2169 31.286 40.4293 31.286V31.3109ZM42.109 34.2162C41.7759 33.8814 41.3522 33.6537 40.8913 33.5621C40.4304 33.4704 39.9529 33.5187 39.5191 33.701C39.0853 33.8832 38.7147 34.1912 38.454 34.5861C38.1932 34.981 38.0541 35.4451 38.0541 35.9199C38.0541 36.3946 38.1932 36.8587 38.454 37.2536C38.7147 37.6486 39.0853 37.9566 39.5191 38.1388C39.9529 38.3211 40.4304 38.3694 40.8913 38.2777C41.3522 38.186 41.7759 37.9584 42.109 37.6236C42.5532 37.1719 42.8024 36.5609 42.8024 35.924C42.8024 35.2872 42.5532 34.6762 42.109 34.2245V34.2162ZM4.57136 31.3109C5.75844 31.3105 6.89887 31.778 7.75015 32.6141L10.5593 30.9539L10.584 31.0536L10.6497 31.3067C10.6997 31.474 10.7643 31.6365 10.8427 31.7923C10.8875 31.9051 10.9425 32.0134 11.007 32.1161C11.1716 32.3885 11.3703 32.6382 11.5984 32.859L11.623 32.8839L8.91242 34.4652C9.2427 35.4532 9.23213 36.5251 8.88241 37.5063C8.5327 38.4875 7.86447 39.32 6.98663 39.8683C6.10878 40.4165 5.07306 40.6482 4.04827 40.5255C3.02348 40.4027 2.07002 39.9329 1.34328 39.1925C0.704027 38.5464 0.26869 37.7234 0.0923214 36.8273C-0.0840469 35.9312 0.00647506 35.0024 0.35244 34.1584C0.698406 33.3143 1.28428 32.5928 2.03597 32.0853C2.78766 31.5777 3.67141 31.3067 4.57546 31.3067L4.57136 31.3109ZM6.25111 34.2162C5.80407 33.7673 5.19948 33.5154 4.5693 33.5154C3.93913 33.5154 3.33454 33.7673 2.8875 34.2162C2.44434 34.6684 2.19573 35.2792 2.19573 35.9157C2.19573 36.5522 2.44434 37.163 2.8875 37.6153H2.87518C3.32326 38.0622 3.92746 38.3127 4.55698 38.3127C5.18651 38.3127 5.7907 38.0622 6.23878 37.6153C6.6832 37.1629 6.93259 36.5512 6.93259 35.9137C6.93259 35.2761 6.6832 34.6645 6.23878 34.212L6.25111 34.2162ZM40.4293 10.4303C41.3342 10.4283 42.2193 10.698 42.9723 11.2053C43.7252 11.7126 44.3121 12.4344 44.6584 13.2793C45.0047 14.1242 45.0948 15.054 44.9173 15.9508C44.7398 16.8475 44.3027 17.6708 43.6614 18.316C43.2373 18.7448 42.7338 19.085 42.1795 19.3171C41.6253 19.5491 41.0312 19.6686 40.4313 19.6686C39.8314 19.6686 39.2373 19.5491 38.6831 19.3171C38.1288 19.085 37.6253 18.7448 37.2012 18.316L37.1396 18.2621L34.4249 19.8392C34.3494 19.4885 34.222 19.1513 34.047 18.839C33.8615 18.4959 33.623 18.1848 33.3406 17.9176L36.043 16.3404C35.8096 15.545 35.7936 14.7006 35.9968 13.8968C36.2 13.093 36.6148 12.3598 37.1971 11.775C37.6204 11.3456 38.1235 11.005 38.6775 10.7728C39.2315 10.5406 39.8254 10.4214 40.4251 10.422L40.4293 10.4303ZM42.109 13.3355C41.6621 12.8879 41.0584 12.6368 40.4293 12.6368C39.8001 12.6368 39.1964 12.8879 38.7495 13.3355C38.3029 13.7863 38.0518 14.3979 38.0514 15.0357C38.051 15.6736 38.3014 16.2855 38.7475 16.7368C39.1935 17.1881 39.7987 17.4419 40.4299 17.4422C41.061 17.4426 41.6665 17.1896 42.1131 16.7389C42.334 16.5157 42.5093 16.2507 42.6288 15.9591C42.7484 15.6675 42.8099 15.3549 42.8099 15.0393C42.8099 14.7236 42.7484 14.411 42.6288 14.1194C42.5093 13.8278 42.334 13.5628 42.1131 13.3397L42.109 13.3355ZM4.57136 10.4303C5.17207 10.4273 5.76733 10.5454 6.32231 10.7778C6.8773 11.0101 7.38086 11.3519 7.80354 11.7833C8.2294 12.2095 8.5671 12.717 8.79696 13.2764C9.02682 13.8357 9.14425 14.4357 9.14241 15.0414C9.14205 15.4076 9.09933 15.7725 9.01509 16.1288L11.7175 17.7889C11.5947 17.8956 11.4807 18.0122 11.3766 18.1375C11.1544 18.3942 10.9704 18.6822 10.8304 18.9925L10.7195 19.2415C10.6702 19.3868 10.625 19.5279 10.5881 19.6566L8.00478 18.0711C7.94202 18.1484 7.87482 18.2218 7.80354 18.2911C7.38966 18.7571 6.88628 19.1331 6.32403 19.3962C5.76178 19.6594 5.15243 19.8041 4.53306 19.8217C3.91369 19.8393 3.29726 19.7293 2.72128 19.4985C2.1453 19.2677 1.62183 18.9208 1.18272 18.479C0.743613 18.0373 0.398053 17.5098 0.167074 16.9288C-0.0639045 16.3477 -0.175471 15.7253 -0.160835 15.0993C-0.146199 14.4733 -0.00566611 13.8569 0.25221 13.2875C0.510086 12.7181 0.879911 12.2078 1.33918 11.7874C1.76247 11.3581 2.26557 11.0175 2.81956 10.7853C3.37355 10.5531 3.9675 10.4338 4.56725 10.4344L4.57136 10.4303ZM6.25111 13.3355C5.80302 12.8887 5.19883 12.6381 4.5693 12.6381C3.93978 12.6381 3.33558 12.8887 2.8875 13.3355H2.87518C2.433 13.7884 2.18508 14.3989 2.18508 15.0351C2.18508 15.6713 2.433 16.2819 2.87518 16.7347C3.20776 17.0718 3.6319 17.3014 4.0938 17.3946C4.55571 17.4877 5.03458 17.4401 5.46969 17.2578C5.90479 17.0755 6.27653 16.7668 6.53775 16.3707C6.79897 15.9746 6.93792 15.509 6.93697 15.033C6.93805 14.7182 6.87766 14.4061 6.75927 14.1149C6.64087 13.8236 6.46679 13.5587 6.247 13.3355H6.25111Z" fill="black"/>
</g>
<defs>
<clipPath id="clip0_3928_3405">
<rect width="45" height="51" fill="white"/>
</clipPath>
</defs>
</svg>
