<svg width="122" height="122" viewBox="0 0 122 122" fill="none" xmlns="http://www.w3.org/2000/svg">
<path d="M110.457 52.5011C110.155 52.2995 107.634 50.3332 102.189 50.3332C100.777 50.3332 99.3658 50.4845 97.9541 50.7365C96.8954 43.6782 90.9966 40.0986 90.7445 39.9474L89.2824 39.0903L88.3749 40.4515C87.1649 42.2665 86.207 44.3336 85.8037 46.4511C84.7954 50.4845 85.4004 54.3161 87.4674 57.5932C84.997 59.0049 80.9637 59.3578 80.1066 59.3578H13.7079C11.9937 59.3578 10.582 60.7695 10.582 62.534C10.582 68.332 11.4895 74.1299 13.5062 79.5749C15.7749 85.5745 19.2033 90.0111 23.5895 92.7336C28.5304 95.7586 36.6474 97.4728 45.8737 97.4728C49.8566 97.4728 53.9908 97.1199 58.0745 96.3636C63.7212 95.3553 69.1662 93.389 74.1574 90.5153C78.2912 88.1515 81.9911 85.0995 85.0979 81.4907C90.3916 75.592 93.5174 68.8865 95.7862 63.0886H96.7441C102.492 63.0886 106.071 60.7695 108.037 58.8032C109.348 57.5932 110.306 56.1311 111.012 54.417L111.415 53.207L110.457 52.5011ZM19.9091 57.4924H28.7824C29.1858 57.4924 29.5891 57.1395 29.5891 56.6857V48.7199C29.5891 48.3165 29.2362 47.9132 28.7824 47.9132H19.9091C19.4554 47.9132 19.1024 48.2661 19.1024 48.7199V56.6857C19.1529 57.1395 19.4554 57.4924 19.9091 57.4924ZM32.1604 57.4924H41.0337C41.437 57.4924 41.8404 57.1395 41.8404 56.6857V48.7199C41.8404 48.3165 41.4874 47.9132 41.0337 47.9132H32.1604C31.7066 47.9132 31.3537 48.2661 31.3537 48.7199V56.6857C31.4041 57.1395 31.7066 57.4924 32.1604 57.4924ZM44.6133 57.4924H53.4362C53.9404 57.4924 54.2933 57.1395 54.2933 56.6857V48.7199C54.2933 48.3165 53.9908 47.9132 53.4362 47.9132H44.6133C44.2099 47.9132 43.857 48.2661 43.857 48.7199V56.6857C43.857 57.1395 44.1595 57.4924 44.6133 57.4924ZM56.9149 57.4924H65.8387C66.242 57.4924 66.5949 57.1395 66.5949 56.6857V48.7199C66.5949 48.3165 66.2924 47.9132 65.8387 47.9132H56.9149C56.5116 47.9132 56.1587 48.2661 56.1587 48.7199V56.6857C56.1587 57.1395 56.5116 57.4924 56.9149 57.4924ZM32.1604 46.199H41.0337C41.437 46.199 41.8404 45.7453 41.8404 45.2915V37.3761C41.8404 36.9224 41.4874 36.5695 41.0337 36.5695H32.1604C31.7066 36.5695 31.3537 36.872 31.3537 37.3761V45.2915C31.4041 45.7453 31.7066 46.199 32.1604 46.199ZM44.6133 46.199H53.4362C53.9404 46.199 54.2933 45.7453 54.2933 45.2915V37.3761C54.2933 36.9224 53.9908 36.5695 53.4362 36.5695H44.6133C44.2099 36.5695 43.857 36.872 43.857 37.3761V45.2915C43.857 45.7453 44.1595 46.199 44.6133 46.199ZM56.9149 46.199H65.8387C66.242 46.199 66.5949 45.7453 66.5949 45.2915V37.3761C66.5949 36.9224 66.242 36.5695 65.8387 36.5695H56.9149C56.5116 36.5695 56.1587 36.872 56.1587 37.3761V45.2915C56.1587 45.7453 56.5116 46.199 56.9149 46.199ZM56.9149 34.704H65.8387C66.242 34.704 66.5949 34.3511 66.5949 33.8974V26.0324C66.5949 25.5282 66.242 25.1753 65.8387 25.1753H56.9149C56.5116 25.1753 56.1587 25.4778 56.1587 26.0324V33.8974C56.1587 34.3007 56.5116 34.704 56.9149 34.704ZM69.3174 57.4924H78.1908C78.6445 57.4924 78.9974 57.1395 78.9974 56.6857V48.7199C78.9974 48.3165 78.6445 47.9132 78.1908 47.9132H69.3174C68.9141 47.9132 68.5612 48.2661 68.5612 48.7199V56.6857C68.5612 57.1395 68.9141 57.4924 69.3174 57.4924Z" fill="#0288D1"/>
</svg>
