<svg width="69" height="69" viewBox="0 0 69 69" fill="none" xmlns="http://www.w3.org/2000/svg">
<path d="M24.2637 26.7075C26.6273 33.9354 27.5226 46.8288 34.4343 46.8288C34.9598 46.8288 35.4922 46.7774 36.0257 46.6757C29.7434 45.2111 28.9985 32.458 25.1643 25.8529C24.8588 26.1321 24.5585 26.417 24.2637 26.7075Z" fill="url(#paint0_linear_1131_9032)"/>
<path d="M25.168 25.8524C29.0021 32.4569 29.747 45.21 36.0294 46.6752C36.5336 46.58 37.0298 46.446 37.5133 46.2744C31.8736 43.511 30.3153 31.1271 25.961 25.1653C25.6974 25.385 25.433 25.6141 25.168 25.8524Z" fill="url(#paint1_linear_1131_9032)"/>
<path d="M30.6937 21.9252C30.1693 21.9252 29.6358 21.9766 29.1006 22.0782C27.7029 22.3421 26.2816 22.9441 24.8496 23.8554C25.2403 24.2418 25.6132 24.6832 25.9632 25.1654C27.4204 23.9565 28.8673 23.0634 30.3084 22.5261C30.8346 22.329 31.3769 22.1782 31.9293 22.0756C31.5253 21.9745 31.1102 21.924 30.6937 21.9252Z" fill="#14559A"/>
<path d="M41.9119 43.7276C42.5128 43.2478 43.0914 42.7407 43.6458 42.2078C41.2441 35.0141 40.3842 21.9357 33.4243 21.9357C32.9267 21.9357 32.4247 21.9822 31.9238 22.0748C38.2635 23.6518 39.0758 37.4447 41.9119 43.7276Z" fill="url(#paint2_linear_1131_9032)"/>
<path d="M31.9222 22.0751C31.5178 21.9738 31.1024 21.9231 30.6855 21.9242L33.4222 21.9344C32.925 21.9344 32.4231 21.9804 31.9222 22.0751Z" fill="#3092C4"/>
<path d="M41.7883 45.2555C41.5109 44.988 41.249 44.705 41.0038 44.4078C39.8329 45.2367 38.6664 45.8655 37.5078 46.2749C37.9204 46.4761 38.3522 46.6259 38.8114 46.7185C39.1667 46.7913 39.5354 46.8287 39.9218 46.8287C41.2227 46.8287 42.2512 46.6746 43.1256 46.2551C42.6439 45.9939 42.2019 45.6568 41.7883 45.2555Z" fill="#1969BC"/>
<path d="M30.3008 22.5269C35.979 25.4968 36.4729 38.9467 41.0038 44.4076C41.3071 44.1936 41.6087 43.9669 41.9087 43.7275C39.0726 37.4446 38.2618 23.6501 31.9233 22.0747C31.3828 22.1753 30.842 22.326 30.3008 22.5269Z" fill="url(#paint3_linear_1131_9032)"/>
<path d="M25.9531 25.1654C30.3074 31.1272 31.8657 43.5116 37.5054 46.275C38.6645 45.8657 39.8311 45.2374 41.0014 44.408C36.4705 38.947 35.9766 25.4977 30.2983 22.5272C28.8573 23.0634 27.4103 23.9565 25.9531 25.1654Z" fill="url(#paint4_linear_1131_9032)"/>
<path d="M21.4855 26.5327C20.8032 28.0754 20.106 30.1041 19.2637 32.7514C20.9392 30.3899 22.6098 28.3559 24.2708 26.7071C24.0611 26.0504 23.8142 25.4062 23.5313 24.7775C22.8178 25.3247 22.1349 25.9107 21.4855 26.5327Z" fill="url(#paint5_linear_1131_9032)"/>
<path d="M24.134 24.3323C23.9339 24.4757 23.7321 24.6223 23.5293 24.7775C23.7942 25.3554 24.0393 26.004 24.2678 26.7077C24.5632 26.4177 24.8636 26.1327 25.1689 25.8531C24.8634 25.3204 24.5174 24.812 24.134 24.3323Z" fill="#2B74B1"/>
<path d="M24.8463 23.8546C24.6087 24.0059 24.3702 24.1648 24.1309 24.3314C24.5028 24.7889 24.8442 25.3 25.1669 25.8533C25.4316 25.6132 25.6959 25.3836 25.9599 25.1646C25.6099 24.683 25.2375 24.241 24.8463 23.8546Z" fill="#125A9E"/>
<path d="M63.5737 21.375C60.3624 33.7599 53.6546 43.7079 48.0315 46.2155H48.0203L47.7169 46.3456L47.6799 46.36L47.5938 46.3932L47.5553 46.4092L47.4145 46.459L47.3567 46.4793L47.2866 46.5024L47.2192 46.5259L47.1593 46.5462L47.0394 46.5826L46.988 46.596L46.9072 46.6179L46.8521 46.6329L46.7638 46.6559L46.6562 46.6795C46.9104 46.7731 47.1753 46.8208 47.4605 46.8208C52.7931 46.8208 58.17 37.2645 67.0665 21.3723H63.5732L63.5737 21.375Z" fill="url(#paint6_linear_1131_9032)"/>
<path d="M18.1013 22.4283L18.1114 22.4198L18.1237 22.4117H18.1307L18.2168 22.3786L18.234 22.37L18.2564 22.3609L18.349 22.3277H18.3538L18.5588 22.256L18.5893 22.248L18.6771 22.2218L18.7172 22.2089L18.8055 22.1827L18.8392 22.1736L19.1324 22.0976L19.1726 22.0885L19.2582 22.0719L19.2999 22.0591L19.3861 22.043H19.4064L19.5846 22.0098H19.6199L19.7024 21.9954L19.7489 21.9874L19.8276 21.9756L19.8709 21.967L20.0625 21.9499C19.8738 21.9319 19.6843 21.9223 19.4947 21.921C13.489 21.921 5.2149 33.0634 1.48828 47.4936H2.20696C3.32116 45.5019 4.40261 43.4921 5.45089 41.4649C8.06177 31.244 13.3782 24.2734 18.1013 22.4267" fill="url(#paint7_linear_1131_9032)"/>
<path d="M21.4883 26.5328C22.1383 25.9114 22.8212 25.3253 23.5341 24.7771C23.389 24.4542 23.2263 24.1396 23.0466 23.8347C22.4975 24.5015 21.9956 25.3812 21.4883 26.5328Z" fill="#0D82CA"/>
<path d="M21.9822 22.512C22.3745 22.8405 22.7261 23.2932 23.0471 23.8353C23.1477 23.7115 23.2512 23.5958 23.3575 23.488C22.9262 23.0803 22.4372 22.7382 21.9062 22.4729L21.9705 22.5034L21.9822 22.512Z" fill="#0D82CA"/>
<path d="M5.45117 41.465C10.9271 30.9129 13.5214 24.2345 18.1015 22.4269C13.3791 24.2752 8.06152 31.2452 5.45117 41.465Z" fill="url(#paint8_linear_1131_9032)"/>
<path d="M23.3533 23.4888C23.2469 23.5979 23.1452 23.7119 23.043 23.8361C23.2153 24.124 23.3753 24.4375 23.5315 24.7779C23.7338 24.6227 23.9361 24.4766 24.1357 24.3327C23.8954 24.033 23.634 23.751 23.3533 23.4888Z" fill="#127BCA"/>
<path d="M7.93099 47.4462L7.83146 47.458H7.81273L7.72818 47.4665H7.71426L7.51306 47.4799H7.49219C13.0339 47.3247 15.5678 44.5501 16.8248 40.5249C17.78 37.4741 18.565 34.9034 19.2526 32.7468C16.9313 36.0143 14.5992 39.9089 12.2548 44.2729C11.1246 46.3759 9.40526 47.2546 7.93099 47.4419" fill="url(#paint9_linear_1131_9032)"/>
<path d="M7.94389 47.4441C9.41817 47.2562 11.1375 46.3786 12.2677 44.2745C14.6121 39.9127 16.9452 36.017 19.2645 32.749C20.1084 30.1006 20.8046 28.0736 21.4874 26.5303C16.8644 30.9306 12.2238 38.2474 7.94336 47.4414" fill="url(#paint10_linear_1131_9032)"/>
<path d="M5.4515 41.4657C4.40322 43.493 3.32158 45.5028 2.20703 47.4944H4.29616C4.56063 45.464 4.94625 43.4512 5.45096 41.4668" fill="#05A1E6"/>
<path d="M19.8658 21.9714L19.8214 21.9799L19.7433 21.9912L19.6973 21.9992L19.6148 22.0136L19.5795 22.0222L19.4013 22.0532H19.381L19.2943 22.0704L19.251 22.0821L19.1669 22.0987L19.1273 22.1084L18.8336 22.1843L18.7999 22.194L18.711 22.2202L18.6709 22.2314L18.5837 22.2577L18.5516 22.2662L18.3477 22.3379L18.2551 22.37L18.2166 22.3861L18.1304 22.4182L18.1015 22.4321C13.5219 24.2392 10.9276 30.9176 5.45168 41.4697C4.9457 43.4539 4.56007 45.4668 4.29688 47.4974H4.58959L6.59899 47.4888H7.52101L7.72168 47.4755H7.73452L7.81907 47.4669H7.83887L7.93841 47.4551C12.2194 38.2606 16.86 30.9443 21.4824 26.544C21.9908 25.3924 22.4922 24.5127 23.0402 23.847C22.7191 23.3049 22.3681 22.8511 21.9764 22.522L21.9651 22.5134L21.8998 22.4819L21.8351 22.4492L21.7725 22.4187L21.6981 22.3877L21.6403 22.3625L21.5188 22.3117L21.4669 22.2924L21.3765 22.256L21.3278 22.24L21.202 22.1966H21.1919L21.0463 22.1554L21.0137 22.1453L20.8911 22.111L20.8628 22.103C20.7621 22.077 20.6605 22.0547 20.5583 22.0361L20.5267 22.0275L20.3945 22.0061L20.3683 21.9981L20.2121 21.9772H20.1848L20.0638 21.9639L19.8722 21.9815" fill="url(#paint11_linear_1131_9032)"/>
<path d="M51.0288 28.2312C49.9746 31.6062 49.1222 34.3905 48.3789 36.6813C51.2702 32.7027 54.1181 27.6982 56.8296 21.9231C53.6654 22.9168 51.9787 25.1911 51.0288 28.2312Z" fill="url(#paint12_linear_1131_9032)"/>
<path d="M48.4853 46.0046C48.3382 46.0795 48.1899 46.1507 48.0449 46.2155C53.668 43.7073 60.3764 33.7593 63.5871 21.3744H62.9364C55.5581 34.5551 53.1853 43.3788 48.4853 46.0046Z" fill="url(#paint13_linear_1131_9032)"/>
<path d="M44.8045 44.8972C46.0283 43.4037 47.0242 40.8651 48.385 36.6809C46.8155 38.8369 45.2358 40.6901 43.6545 42.2013L43.6465 42.2146C43.9916 43.248 44.37 44.1604 44.8013 44.8967" fill="#079AE1"/>
<path d="M44.8014 44.8979C44.385 45.4063 43.9436 45.7932 43.4534 46.08C43.3464 46.1428 43.2375 46.2012 43.127 46.255C43.6587 46.5439 44.2412 46.7276 44.8426 46.796L45.123 46.8207H45.1396L45.2744 46.8292H45.7319L45.7839 46.8207L45.885 46.8121H45.9342L46.0439 46.8003H46.053L46.0867 46.7923L46.2039 46.7741H46.2382L46.3698 46.7522H46.3912L46.654 46.6965C45.9278 46.4311 45.3204 45.8045 44.7976 44.9124" fill="#1969BC"/>
<path d="M34.4316 46.8288C34.9571 46.8288 35.489 46.7775 36.0226 46.6747C36.5271 46.5812 37.0233 46.4475 37.5065 46.275C37.9191 46.4762 38.3514 46.626 38.8095 46.7197C39.1641 46.7924 39.5346 46.829 39.921 46.8294L34.4316 46.8288ZM39.921 46.8294C41.2208 46.8294 42.2504 46.6747 43.1242 46.2546C43.656 46.5437 44.2385 46.7276 44.8398 46.7962L45.1202 46.8203H45.1368L45.2717 46.8288H45.4333L39.921 46.8294Z" fill="#1E5CB3"/>
<path d="M45.4355 46.8286H45.7358L45.7877 46.82L45.8899 46.8114H45.9391L46.0483 46.7997H46.0574L46.0905 46.7911L46.2077 46.7734L46.2436 46.7654L46.3758 46.744H46.3966L46.6594 46.6884C46.9136 46.782 47.1785 46.8296 47.4637 46.8296L45.4366 46.8382L45.4355 46.8286Z" fill="#1D60B5"/>
<path d="M43.6437 42.2152V42.2067C43.0893 42.7395 42.5107 43.2466 41.9099 43.7264C41.6144 43.9617 41.3123 44.1885 41.0039 44.4066C41.2586 44.7105 41.5171 44.9952 41.7895 45.2547C42.2026 45.6556 42.6441 45.9932 43.1262 46.2538C43.2364 46.1996 43.3451 46.1413 43.4521 46.0788C43.9434 45.792 44.3838 45.4046 44.8006 44.8967C44.3693 44.1604 43.991 43.2475 43.6464 42.2147" fill="#175FAB"/>
<path d="M60.8669 21.3744H57.5914L57.0723 21.3995L56.8309 21.9165C54.1189 27.6921 51.2721 32.6966 48.3808 36.6752C47.0216 40.8589 46.0241 43.398 44.8008 44.891C45.3236 45.7836 45.932 46.4108 46.6555 46.6767L46.7122 46.6644H46.724L46.7642 46.6559L46.8551 46.6334L46.9092 46.6179L46.99 46.597L47.0403 46.5826L47.1612 46.5462L47.2212 46.5258L47.2886 46.5012L47.3581 46.4793L47.4149 46.4579L47.5561 46.4081L47.5952 46.3937L47.6819 46.3599L47.7183 46.3466L48.0222 46.2165H48.0329C48.178 46.1528 48.3257 46.0806 48.4723 46.0057C53.1734 43.3793 55.5466 34.5561 62.925 21.376H60.8642L60.8669 21.3744Z" fill="url(#paint14_linear_1131_9032)"/>
<path d="M20.0664 21.9541L20.1001 21.9627L20.1857 21.9718H20.2146L20.3709 21.9921L20.3971 22.0007L20.5288 22.0226L20.5619 22.0306L20.8653 22.098L20.8932 22.1066L21.0152 22.1409L21.0489 22.151L21.1939 22.1922L21.2052 22.2008L21.332 22.2441L21.3801 22.2597L21.4711 22.2966L21.5225 22.3148L21.6434 22.3651L21.7023 22.3902L21.7751 22.4218L21.8393 22.4523L21.903 22.4855C22.4268 22.7423 22.9085 23.0854 23.3548 23.5011C23.5192 23.3288 23.6908 23.1729 23.8695 23.0334C22.894 22.3415 21.7879 21.9471 20.5138 21.9471C20.3661 21.9471 20.2184 21.9557 20.0685 21.9669" fill="#7DCBEC"/>
<path d="M23.3438 23.4882C23.6172 23.7424 23.8789 24.026 24.1261 24.3321C24.3658 24.1657 24.6034 24.0051 24.8416 23.8553C24.5382 23.5493 24.2089 23.27 23.8575 23.0205C23.6795 23.1596 23.5082 23.3155 23.3438 23.4882Z" fill="#5EC5ED"/>
<path d="M19.9132 21.989L20.3587 21.9702C21.6337 21.9702 22.7387 22.3645 23.7139 23.056C24.7431 22.2429 25.9882 21.9594 27.7171 21.9594H19.3457L19.9132 21.989Z" fill="url(#paint15_linear_1131_9032)"/>
<path d="M27.7336 21.9587C26.0048 21.9587 24.7624 22.2423 23.7305 23.0554C24.0726 23.2967 24.4004 23.575 24.7138 23.8901C26.1482 22.9798 27.5663 22.3746 28.9656 22.1126C29.5004 22.0118 30.0308 21.9613 30.5566 21.9613L27.7336 21.9587Z" fill="url(#paint16_linear_1131_9032)"/>
<path d="M48.391 36.6836C49.1354 34.3912 49.9857 31.608 51.042 28.2319C51.9929 25.1902 53.6775 22.9159 56.8401 21.9238L57.0841 21.4069C51.9277 21.7156 49.5175 24.3388 48.3054 28.2233C46.1842 35.0049 44.8993 39.401 43.6621 42.2024C45.2418 40.6917 46.8215 38.8375 48.391 36.6836Z" fill="url(#paint17_linear_1131_9032)"/>
<defs>
<linearGradient id="paint0_linear_1131_9032" x1="30.2619" y1="21.7548" x2="30.2619" y2="53.0845" gradientUnits="userSpaceOnUse">
<stop stop-color="#0994DC"/>
<stop offset="0.35" stop-color="#66CEF5"/>
<stop offset="0.846" stop-color="#127BCA"/>
<stop offset="1" stop-color="#127BCA"/>
</linearGradient>
<linearGradient id="paint1_linear_1131_9032" x1="31.4452" y1="21.0006" x2="31.4452" y2="53.0466" gradientUnits="userSpaceOnUse">
<stop stop-color="#0E76BC"/>
<stop offset="0.36" stop-color="#36AEE8"/>
<stop offset="0.846" stop-color="#00ADEF"/>
<stop offset="1" stop-color="#00ADEF"/>
</linearGradient>
<linearGradient id="paint2_linear_1131_9032" x1="37.7827" y1="46.0674" x2="37.7827" y2="20.569" gradientUnits="userSpaceOnUse">
<stop stop-color="#1C63B7"/>
<stop offset="0.5" stop-color="#33BDF2"/>
<stop offset="1" stop-color="#33BDF2" stop-opacity="0.42"/>
</linearGradient>
<linearGradient id="paint3_linear_1131_9032" x1="36.0579" y1="17.6525" x2="36.0579" y2="51.0096" gradientUnits="userSpaceOnUse">
<stop stop-color="#166AB8"/>
<stop offset="0.4" stop-color="#36AEE8"/>
<stop offset="0.846" stop-color="#0798DD"/>
<stop offset="1" stop-color="#0798DD"/>
</linearGradient>
<linearGradient id="paint4_linear_1131_9032" x1="33.5978" y1="17.9133" x2="33.5978" y2="53.3843" gradientUnits="userSpaceOnUse">
<stop stop-color="#124379"/>
<stop offset="0.39" stop-color="#1487CB"/>
<stop offset="0.78" stop-color="#165197"/>
<stop offset="1" stop-color="#165197"/>
</linearGradient>
<linearGradient id="paint5_linear_1131_9032" x1="18.9946" y1="28.3853" x2="24.0013" y2="28.3853" gradientUnits="userSpaceOnUse">
<stop stop-color="#33BDF2" stop-opacity="0.698"/>
<stop offset="1" stop-color="#1DACD8"/>
</linearGradient>
<linearGradient id="paint6_linear_1131_9032" x1="56.9018" y1="45.3431" x2="56.9018" y2="20.5042" gradientUnits="userSpaceOnUse">
<stop stop-color="#136AB4"/>
<stop offset="0.6" stop-color="#59CAF5" stop-opacity="0.549"/>
<stop offset="1" stop-color="#59CAF5" stop-opacity="0.235"/>
</linearGradient>
<linearGradient id="paint7_linear_1131_9032" x1="1.2222" y1="34.326" x2="19.7946" y2="34.326" gradientUnits="userSpaceOnUse">
<stop stop-color="#05A1E6" stop-opacity="0.247"/>
<stop offset="1" stop-color="#05A1E6"/>
</linearGradient>
<linearGradient id="paint8_linear_1131_9032" x1="11.8756" y1="46.0453" x2="11.8756" y2="20.6122" gradientUnits="userSpaceOnUse">
<stop stop-color="#318ED5"/>
<stop offset="1" stop-color="#38A7E4"/>
</linearGradient>
<linearGradient id="paint9_linear_1131_9032" x1="13.2743" y1="46.2084" x2="13.2743" y2="21.4226" gradientUnits="userSpaceOnUse">
<stop stop-color="#05A1E6"/>
<stop offset="1" stop-color="#05A1E6" stop-opacity="0.549"/>
</linearGradient>
<linearGradient id="paint10_linear_1131_9032" x1="14.8071" y1="47.4766" x2="14.8071" y2="26.5323" gradientUnits="userSpaceOnUse">
<stop stop-color="#1959A6"/>
<stop offset="0.5" stop-color="#05A1E6"/>
<stop offset="0.918" stop-color="#7EC5EA"/>
<stop offset="1" stop-color="#7EC5EA"/>
</linearGradient>
<linearGradient id="paint11_linear_1131_9032" x1="15.4242" y1="46.0905" x2="11.4301" y2="23.439" gradientUnits="userSpaceOnUse">
<stop stop-color="#165096"/>
<stop offset="1" stop-color="#0D82CA"/>
</linearGradient>
<linearGradient id="paint12_linear_1131_9032" x1="52.4748" y1="33.2412" x2="52.4748" y2="21.4036" gradientUnits="userSpaceOnUse">
<stop stop-color="#05A1E6"/>
<stop offset="0.874" stop-color="#0495D6"/>
<stop offset="1" stop-color="#0495D6"/>
</linearGradient>
<linearGradient id="paint13_linear_1131_9032" x1="58.2597" y1="20.3555" x2="53.4466" y2="47.6524" gradientUnits="userSpaceOnUse">
<stop stop-color="#38A7E4" stop-opacity="0.329"/>
<stop offset="0.962" stop-color="#0E88D3"/>
<stop offset="1" stop-color="#0E88D3"/>
</linearGradient>
<linearGradient id="paint14_linear_1131_9032" x1="53.7076" y1="21.3297" x2="53.7076" y2="47.1546" gradientUnits="userSpaceOnUse">
<stop stop-color="#168CD4"/>
<stop offset="0.5" stop-color="#1C87CC"/>
<stop offset="1" stop-color="#154B8D"/>
</linearGradient>
<linearGradient id="paint15_linear_1131_9032" x1="18.773" y1="18.8102" x2="48.8003" y2="31.2653" gradientUnits="userSpaceOnUse">
<stop stop-color="#97D6EE"/>
<stop offset="0.703" stop-color="#55C1EA"/>
<stop offset="1" stop-color="#55C1EA"/>
</linearGradient>
<linearGradient id="paint16_linear_1131_9032" x1="26.9529" y1="25.8586" x2="50.6695" y2="15.1078" gradientUnits="userSpaceOnUse">
<stop stop-color="#7ACCEC"/>
<stop offset="1" stop-color="#3FB7ED"/>
</linearGradient>
<linearGradient id="paint17_linear_1131_9032" x1="50.1904" y1="22.7343" x2="50.1904" y2="47.9935" gradientUnits="userSpaceOnUse">
<stop stop-color="#1DA7E7"/>
<stop offset="1" stop-color="#37ABE7" stop-opacity="0"/>
</linearGradient>
</defs>
</svg>
