<svg width="179" height="178" viewBox="0 0 179 178" fill="none" xmlns="http://www.w3.org/2000/svg">
<g clip-path="url(#clip0_255_6366)">
<path d="M82.4235 136.86L81.3907 133.095L77.124 133.289C76.729 132.46 76.2707 131.674 75.7528 130.939L78.0115 127.327L75.2311 124.582L71.6324 126.88C70.8834 126.367 70.0925 125.917 69.2684 125.535L69.4157 121.273L65.6346 120.284L63.6714 124.064C62.7742 123.994 61.8633 124.001 60.9476 124.083L58.9405 120.321L55.1692 121.352L55.3633 125.611C54.5334 126.005 53.7454 126.463 53.009 126.979L49.3909 124.724L46.6407 127.5L48.9423 131.092C48.4283 131.84 47.9777 132.628 47.5945 133.45L43.3248 133.303L42.333 137.078L46.1199 139.037C46.0497 139.933 46.0565 140.842 46.1394 141.757L42.3691 143.76L43.4019 147.524L47.6686 147.33C48.0636 148.159 48.5219 148.945 49.0398 149.68L46.7811 153.292L49.5615 156.037L53.1602 153.739C53.9092 154.252 54.7001 154.702 55.5242 155.085L55.377 159.346L59.1599 160.335L61.1231 156.555C62.0203 156.625 62.9312 156.619 63.847 156.536L65.854 160.298L69.6253 159.267L69.4313 155.009C70.2622 154.614 71.0492 154.157 71.7855 153.64L75.4037 155.895L78.1539 153.12L75.8523 149.528C76.3662 148.78 76.8168 147.991 77.2001 147.168L81.4697 147.315L82.4615 143.54L78.6747 141.581C78.7449 140.685 78.7381 139.777 78.6552 138.862L82.4235 136.86ZM65.0553 149.999C59.6934 151.465 54.1559 148.315 52.6882 142.963C51.2204 137.611 54.3763 132.085 59.7383 130.62C65.1002 129.155 70.6376 132.305 72.1054 137.657C73.5741 143.008 70.4172 148.534 65.0553 149.999Z" fill="white"/>
<path d="M59.1602 160.549C59.1417 160.549 59.1232 160.547 59.1056 160.542L55.3236 159.553C55.2261 159.528 55.1588 159.438 55.1627 159.337L55.3051 155.218C54.5619 154.866 53.8412 154.455 53.1585 153.996L49.6798 156.217C49.595 156.271 49.4828 156.26 49.4116 156.189L46.6312 153.444C46.559 153.373 46.5464 153.262 46.6 153.176L48.7836 149.685C48.3223 149.017 47.9039 148.3 47.5382 147.551L43.4148 147.738C43.3144 147.744 43.2237 147.677 43.1964 147.579L42.1636 143.815C42.1373 143.718 42.1811 143.616 42.2709 143.568L45.9154 141.632C45.8471 140.803 45.8412 139.973 45.8968 139.163L42.2367 137.269C42.147 137.222 42.1012 137.12 42.1275 137.023L43.1193 133.248C43.1447 133.151 43.2383 133.082 43.3358 133.087L47.4631 133.229C47.8161 132.488 48.2267 131.769 48.687 131.087L46.4625 127.614C46.4079 127.53 46.4196 127.419 46.4908 127.347L49.241 124.572C49.3122 124.5 49.4233 124.487 49.5092 124.541L53.0064 126.719C53.6764 126.259 54.3942 125.841 55.1451 125.477L54.9579 121.361C54.953 121.261 55.0193 121.17 55.1168 121.143L58.8881 120.112C58.9856 120.087 59.089 120.129 59.1358 120.219L61.0756 123.856C61.9075 123.788 62.7384 123.782 63.5498 123.838L65.4476 120.185C65.4945 120.095 65.5969 120.05 65.6944 120.076L69.4764 121.065C69.5739 121.09 69.6412 121.18 69.6373 121.281L69.4949 125.4C70.2381 125.753 70.9588 126.163 71.6414 126.621L75.1202 124.4C75.206 124.346 75.3172 124.358 75.3883 124.429L78.1688 127.174C78.2409 127.245 78.2536 127.355 78.2 127.441L76.0164 130.932C76.4787 131.601 76.8971 132.318 77.2618 133.066L81.3851 132.879C81.4856 132.873 81.5763 132.941 81.6036 133.038L82.6364 136.802C82.6627 136.899 82.6188 137.002 82.5301 137.049L78.8856 138.985C78.9539 139.815 78.9597 140.644 78.9041 141.454L82.5642 143.348C82.6539 143.395 82.6998 143.497 82.6735 143.594L81.6816 147.369C81.6563 147.467 81.5685 147.543 81.4651 147.53L77.3379 147.388C76.9848 148.13 76.5733 148.849 76.1139 149.531L78.3385 153.003C78.3931 153.088 78.3814 153.199 78.3102 153.271L75.56 156.046C75.4888 156.118 75.3776 156.13 75.2918 156.077L71.7946 153.898C71.1246 154.359 70.4068 154.776 69.6558 155.14L69.8431 159.256C69.848 159.357 69.7816 159.447 69.6841 159.474L65.9128 160.505C65.8153 160.531 65.7119 160.488 65.6651 160.398L63.7253 156.761C62.8935 156.83 62.0626 156.835 61.2511 156.779L59.3533 160.432C59.3143 160.506 59.2392 160.549 59.1602 160.549ZM55.5996 159.18L59.0481 160.081L60.9313 156.454C60.9713 156.377 61.0551 156.333 61.14 156.338C62.0187 156.407 62.9227 156.401 63.8278 156.319C63.9126 156.31 63.9974 156.356 64.0384 156.433L65.9635 160.043L69.4013 159.104L69.215 155.017C69.2111 154.931 69.2599 154.85 69.3379 154.813C70.1581 154.423 70.9393 153.969 71.6609 153.463C71.7321 153.413 71.8258 153.411 71.8999 153.456L75.3718 155.62L77.8782 153.091L75.6692 149.643C75.6224 149.57 75.6244 149.477 75.6731 149.405C76.1783 148.67 76.6259 147.886 77.0034 147.077C77.0394 146.998 77.1155 146.946 77.2072 146.952L81.3032 147.093L82.2073 143.651L78.5735 141.771C78.4965 141.731 78.4506 141.649 78.4575 141.562C78.5267 140.684 78.5199 139.781 78.438 138.88C78.4301 138.793 78.475 138.711 78.5521 138.67L82.1702 136.749L81.2291 133.317L77.135 133.503C77.0492 133.51 76.9673 133.458 76.9302 133.38C76.5401 132.562 76.0847 131.782 75.5775 131.062C75.5278 130.991 75.5249 130.898 75.5707 130.824L77.7387 127.358L75.204 124.857L71.7507 127.061C71.6775 127.107 71.5839 127.106 71.5117 127.057C70.7744 126.552 69.9894 126.106 69.1789 125.73C69.0999 125.694 69.0512 125.614 69.0541 125.528L69.1955 121.439L65.747 120.537L63.8638 124.164C63.8239 124.241 63.7419 124.289 63.6551 124.28C62.7764 124.211 61.8724 124.218 60.9674 124.299C60.8815 124.306 60.7977 124.262 60.7567 124.186L58.8316 120.575L55.3938 121.515L55.5801 125.601C55.584 125.687 55.5352 125.768 55.4572 125.805C54.637 126.195 53.8558 126.649 53.1342 127.155C53.063 127.206 52.9693 127.208 52.8952 127.162L49.4233 124.999L46.917 127.529L49.1259 130.975C49.1727 131.048 49.1707 131.141 49.122 131.213C48.6158 131.949 48.1682 132.733 47.7917 133.542C47.7557 133.621 47.6796 133.677 47.5879 133.666L43.4919 133.525L42.5878 136.967L46.2216 138.848C46.2986 138.888 46.3445 138.969 46.3377 139.056C46.2684 139.934 46.2752 140.836 46.3572 141.738C46.365 141.825 46.3201 141.908 46.2431 141.949L42.6249 143.871L43.566 147.302L47.6601 147.116C47.7469 147.109 47.8278 147.161 47.8649 147.239C48.255 148.057 48.7104 148.837 49.2176 149.557C49.2673 149.628 49.2702 149.721 49.2244 149.795L47.0574 153.261L49.5921 155.763L53.0454 153.558C53.1185 153.512 53.2122 153.514 53.2843 153.562C54.0216 154.067 54.8067 154.514 55.6171 154.89C55.6961 154.926 55.7449 155.006 55.742 155.092L55.5996 159.18ZM62.3815 150.576C60.6182 150.576 58.8784 150.12 57.3053 149.225C54.9189 147.867 53.2063 145.664 52.4807 143.019C50.9837 137.562 54.2138 131.906 59.6829 130.412C62.3317 129.688 65.1053 130.037 67.4908 131.394C69.8762 132.752 71.5907 134.955 72.3153 137.6C73.8123 143.057 70.5823 148.714 65.1141 150.208C64.21 150.454 63.2923 150.576 62.3815 150.576ZM62.4127 130.474C61.5398 130.474 60.6611 130.591 59.7961 130.827C54.558 132.259 51.4626 137.677 52.8972 142.906C53.5915 145.439 55.2339 147.549 57.5189 148.85C59.8049 150.15 62.4605 150.485 64.999 149.791C70.2371 148.359 73.3325 142.942 71.8979 137.713C71.2036 135.18 69.5612 133.069 67.2762 131.769C65.7695 130.911 64.1018 130.474 62.4127 130.474Z" fill="black"/>
<path d="M63.5173 7.02866C63.4929 7.02866 63.4676 7.02477 63.4432 7.01602C63.331 6.97516 63.2735 6.85163 63.3135 6.73978L63.8869 5.1689C63.9279 5.05704 64.0527 4.99966 64.1639 5.04051C64.276 5.08136 64.3336 5.20489 64.2936 5.31675L63.7202 6.88762C63.688 6.97419 63.6051 7.02866 63.5173 7.02866Z" fill="black"/>
<path d="M62.1814 10.689C62.157 10.689 62.1316 10.6851 62.1072 10.6763C61.9951 10.6355 61.9376 10.5119 61.9775 10.4001L62.551 8.8292C62.5919 8.71735 62.7158 8.65899 62.8279 8.70081C62.9401 8.74166 62.9976 8.86519 62.9577 8.97705L62.3842 10.5479C62.353 10.6345 62.2701 10.689 62.1814 10.689Z" fill="black"/>
<path d="M62.0889 7.69305C62.0646 7.69305 62.0392 7.68916 62.0148 7.68041L60.4398 7.10847C60.3276 7.06762 60.2701 6.94409 60.3111 6.83223C60.352 6.72037 60.4759 6.66299 60.588 6.70384L62.1631 7.27577C62.2752 7.31663 62.3327 7.44016 62.2918 7.55201C62.2596 7.63858 62.1767 7.69305 62.0889 7.69305Z" fill="black"/>
<path d="M65.7583 9.02459C65.734 9.02459 65.7086 9.0207 65.6842 9.01195L64.1092 8.44002C63.997 8.39916 63.9395 8.27563 63.9795 8.16377C64.0205 8.05192 64.1443 7.99453 64.2565 8.03538L65.8315 8.60732C65.9436 8.64817 66.0012 8.7717 65.9612 8.88356C65.929 8.9711 65.8461 9.02459 65.7583 9.02459Z" fill="black"/>
<path d="M21.6657 30.3807C21.3634 30.3807 21.0611 30.3243 20.7714 30.2125C20.1395 29.9673 19.6421 29.4859 19.37 28.8575C18.8141 27.5736 19.3905 26.0679 20.6544 25.5018C21.262 25.2294 21.9398 25.2119 22.56 25.4522C23.192 25.6973 23.6894 26.1788 23.9615 26.8071C24.5174 28.0911 23.941 29.5968 22.6771 30.1629C22.3533 30.3078 22.009 30.3807 21.6657 30.3807ZM20.8299 25.8947C19.7806 26.3646 19.3037 27.6174 19.7659 28.6863C19.9922 29.2087 20.4038 29.6075 20.9275 29.8108C21.4395 30.0092 21.9973 29.9946 22.4996 29.7699C23.5489 29.3001 24.0258 28.0473 23.5636 26.9783C23.3373 26.456 22.9258 26.0572 22.402 25.8539C21.89 25.6555 21.3322 25.6701 20.8299 25.8947Z" fill="black"/>
<path d="M49.5462 13.567C49.2438 13.567 48.9415 13.5106 48.6519 13.3987C48.0199 13.1536 47.5225 12.6722 47.2504 12.0438C46.6955 10.7599 47.2709 9.25417 48.5348 8.68807C49.1424 8.41572 49.8202 8.39821 50.4405 8.63846C51.0724 8.88358 51.5698 9.36505 51.8419 9.9934C52.3968 11.2773 51.8214 12.783 50.5575 13.3491C50.2328 13.4941 49.8895 13.567 49.5462 13.567ZM49.5452 8.90108C49.2614 8.90108 48.9786 8.96139 48.7114 9.08103C47.662 9.55083 47.1851 10.8036 47.6474 11.8726C47.8727 12.3949 48.2852 12.7937 48.8089 12.997C49.3209 13.1955 49.8787 13.1809 50.381 12.9562C51.4304 12.4864 51.9073 11.2336 51.445 10.1646C51.2197 9.64226 50.8072 9.24347 50.2835 9.04018C50.0436 8.94777 49.7939 8.90108 49.5452 8.90108Z" fill="black"/>
<path d="M35.6394 20.6549C35.5858 20.6549 35.5321 20.6355 35.4902 20.5956C35.4044 20.5129 35.4015 20.3768 35.4834 20.2912L36.2782 19.4634C36.3611 19.3778 36.4976 19.3749 36.5835 19.4566C36.6693 19.5393 36.6722 19.6755 36.5903 19.7611L35.7955 20.5888C35.7535 20.6326 35.697 20.6549 35.6394 20.6549Z" fill="black"/>
<path d="M32.8572 23.5525C32.8035 23.5525 32.7499 23.5331 32.708 23.4922C32.6222 23.4095 32.6192 23.2734 32.7011 23.1878L33.496 22.36C33.5789 22.2744 33.7154 22.2705 33.8012 22.3532C33.887 22.4359 33.89 22.5721 33.8081 22.6577L33.0132 23.4854C32.9703 23.5302 32.9137 23.5525 32.8572 23.5525Z" fill="black"/>
<path d="M33.6372 20.6987C33.5826 20.6987 33.5279 20.6783 33.486 20.6365L32.6785 19.8437C32.5937 19.7601 32.5927 19.6239 32.6766 19.5393C32.7604 19.4547 32.897 19.4537 32.9818 19.5364L33.7893 20.3291C33.8742 20.4128 33.8751 20.5489 33.7913 20.6336C33.7484 20.6773 33.6928 20.6987 33.6372 20.6987Z" fill="black"/>
<path d="M36.4624 23.4729C36.4078 23.4729 36.3531 23.4525 36.3112 23.4107L35.5037 22.6179C35.4189 22.5343 35.4179 22.3981 35.5018 22.3135C35.5856 22.2288 35.7222 22.2279 35.807 22.3106L36.6145 23.1033C36.6994 23.1869 36.7003 23.3231 36.6165 23.4077C36.5736 23.4515 36.518 23.4729 36.4624 23.4729Z" fill="black"/>
<path d="M152.493 166.335L148.446 166.628L73.3841 166.335C69.9747 166.335 67.5599 163.592 67.99 160.209L87.4696 6.99939C87.8997 3.61642 91.0117 0.873465 94.4212 0.873465L169.559 0C178.184 0 179.355 3.61642 178.925 6.99939L159.445 160.209C159.015 163.592 155.903 166.335 152.493 166.335Z" fill="#157B6C"/>
<path d="M147.733 166.629H68.6234C65.2139 166.629 62.7992 163.873 63.2293 160.473L82.7089 6.50422C83.139 3.10374 86.251 0.348145 89.6605 0.348145H168.77C172.179 0.348145 174.594 3.10471 174.164 6.50422L154.684 160.472C154.254 163.873 151.142 166.629 147.733 166.629Z" fill="white"/>
<path d="M148.518 162.321H68.9828C68.541 162.321 68.146 162.149 67.869 161.836C67.5901 161.52 67.4672 161.102 67.5228 160.658L86.1228 13.6437C86.2349 12.7557 87.0512 12.0339 87.9416 12.0339H167.477C167.918 12.0339 168.314 12.2061 168.591 12.5193C168.87 12.8354 168.993 13.2537 168.937 13.6982L150.338 160.713C150.225 161.6 149.409 162.321 148.518 162.321ZM67.9529 160.712C67.9129 161.031 67.9978 161.329 68.1948 161.551C68.3879 161.77 68.6688 161.89 68.9838 161.89H148.519C149.2 161.89 149.823 161.338 149.91 160.658L168.509 13.6437C168.549 13.3247 168.463 13.0261 168.267 12.8043C168.074 12.5854 167.793 12.4648 167.478 12.4648H87.9426C87.2619 12.4648 86.6387 13.0173 86.5519 13.6972L67.9529 160.712Z" fill="black"/>
<path d="M128.225 8.39416C127.548 8.39416 126.941 8.13056 126.519 7.65201C126.092 7.16859 125.904 6.52662 125.99 5.84477C126.165 4.46941 127.429 3.34985 128.809 3.34985C129.486 3.34985 130.091 3.61345 130.515 4.09201C130.942 4.57543 131.13 5.21739 131.043 5.89827C130.869 7.27461 129.605 8.39416 128.225 8.39416ZM128.808 3.78172C127.638 3.78172 126.566 4.73203 126.419 5.89924C126.348 6.45659 126.499 6.97794 126.843 7.36701C127.182 7.75122 127.674 7.96326 128.225 7.96326C129.394 7.96326 130.467 7.01296 130.614 5.84574C130.684 5.2884 130.534 4.76704 130.19 4.37797C129.85 3.99279 129.359 3.78172 128.808 3.78172Z" fill="black"/>
<path d="M162.013 102.761C162.004 102.761 161.995 102.761 161.986 102.76C161.868 102.745 161.783 102.637 161.799 102.518L173.949 6.47613C174.15 4.88483 173.717 3.39274 172.729 2.27513C171.753 1.17017 170.347 0.562248 168.77 0.562248H89.6604C86.3621 0.562248 83.3398 3.23906 82.9233 6.52962L81.0275 21.5157C81.0128 21.6343 80.9046 21.718 80.7856 21.7024C80.6666 21.6878 80.5837 21.5799 80.5984 21.4612L82.4942 6.4771C82.937 2.97838 86.1514 0.132324 89.6604 0.132324H168.77C170.472 0.132324 171.993 0.792772 173.053 1.99111C174.124 3.20307 174.595 4.81577 174.377 6.53157L162.227 102.574C162.213 102.683 162.12 102.761 162.013 102.761Z" fill="black"/>
<path d="M68.6245 166.844C66.9207 166.844 65.3993 166.184 64.3402 164.986C63.2684 163.774 62.7983 162.162 63.0158 160.446L69.9742 105.444C69.9888 105.327 70.0961 105.242 70.2161 105.257C70.3341 105.272 70.4189 105.38 70.4033 105.499L63.4449 160.501C63.244 162.092 63.677 163.584 64.6649 164.702C65.6412 165.807 67.0475 166.415 68.6245 166.415L106.149 166.193H106.15C106.269 166.193 106.366 166.288 106.367 166.407C106.368 166.525 106.271 166.623 106.152 166.624L68.6245 166.844Z" fill="black"/>
<path d="M80.0329 131.76C79.9686 131.76 79.9042 131.731 79.8613 131.676C79.7881 131.582 79.8067 131.447 79.9003 131.374L96.5419 118.6C96.6365 118.527 96.7721 118.546 96.8452 118.639C96.9174 118.734 96.8999 118.869 96.8062 118.942L80.1646 131.715C80.1256 131.745 80.0788 131.76 80.0329 131.76Z" fill="black"/>
<path d="M99.3382 116.943C99.2738 116.943 99.2095 116.914 99.1665 116.859C99.0944 116.765 99.1119 116.63 99.2055 116.557L106.258 111.145C106.352 111.073 106.488 111.09 106.561 111.184C106.633 111.278 106.615 111.413 106.522 111.486L99.4698 116.898C99.4299 116.929 99.384 116.943 99.3382 116.943Z" fill="black"/>
<path d="M76.5759 142.968C76.5115 142.968 76.4472 142.939 76.4043 142.884C76.3311 142.79 76.3496 142.655 76.4433 142.582L84.5388 136.368C84.6334 136.295 84.769 136.313 84.8421 136.407C84.9153 136.502 84.8967 136.637 84.8031 136.71L76.7076 142.923C76.6676 142.953 76.6217 142.968 76.5759 142.968Z" fill="black"/>
<path d="M88.4773 133.834C88.4129 133.834 88.3485 133.805 88.3056 133.75C88.2325 133.656 88.251 133.52 88.3446 133.448L102.799 122.353C102.893 122.281 103.029 122.299 103.102 122.392C103.174 122.486 103.157 122.622 103.063 122.695L88.6089 133.789C88.5699 133.819 88.5241 133.834 88.4773 133.834Z" fill="black"/>
<path d="M93.2151 142.106C93.1508 142.106 93.0864 142.077 93.0435 142.023C92.9713 141.928 92.9889 141.793 93.0825 141.72L105.109 132.489C105.205 132.417 105.339 132.435 105.413 132.528C105.485 132.623 105.467 132.758 105.374 132.831L93.3468 142.062C93.3078 142.092 93.261 142.106 93.2151 142.106Z" fill="black"/>
<path d="M151.51 26.029C156.058 26.0407 159.392 29.6824 158.942 34.146L152.975 93.4463C152.525 97.9099 148.461 101.532 143.913 101.52L44.2562 101.259C39.7086 101.247 36.3742 97.6054 36.8238 93.1418L42.7914 33.8416C43.241 29.3779 47.3058 25.7557 51.8534 25.7674L151.51 26.029Z" fill="white"/>
<path d="M143.936 101.736C143.928 101.736 143.921 101.736 143.912 101.736L97.6319 101.615C97.5129 101.615 97.4163 101.517 97.4163 101.399C97.4163 101.28 97.5139 101.184 97.6328 101.184C97.6328 101.184 97.6328 101.184 97.6338 101.184L143.914 101.305C143.921 101.305 143.929 101.305 143.937 101.305C148.367 101.305 152.324 97.7745 152.761 93.4257L158.727 34.1254C158.937 32.0439 158.312 30.0801 156.968 28.5948C155.603 27.0852 153.664 26.2506 151.508 26.2448L51.8518 25.9831C51.844 25.9831 51.8371 25.9831 51.8293 25.9831C47.3988 25.9831 43.4422 29.514 43.0053 33.8628L38.4714 78.9192C38.4597 79.0378 38.3553 79.1244 38.2344 79.1118C38.1154 79.1001 38.0286 78.9941 38.0413 78.8754L42.5752 33.819C43.0345 29.2552 47.1832 25.5513 51.8293 25.5513C51.8371 25.5513 51.844 25.5513 51.8527 25.5513L151.509 25.8129C153.788 25.8188 155.84 26.7039 157.289 28.3049C158.716 29.8816 159.379 31.9641 159.157 34.1672L153.191 93.4675C152.731 98.0313 148.582 101.735 143.936 101.736ZM87.9077 101.588C87.9067 101.588 87.9067 101.588 87.9077 101.588L45.7838 101.478C45.6648 101.478 45.5682 101.38 45.5682 101.262C45.5682 101.143 45.6648 101.047 45.7847 101.047C45.7847 101.047 45.7847 101.047 45.7857 101.047L87.9086 101.158C88.0276 101.158 88.1242 101.255 88.1242 101.373C88.1232 101.492 88.0266 101.588 87.9077 101.588Z" fill="black"/>
<path d="M66.685 40.3389H59.832C59.3034 40.3389 58.8226 40.1308 58.4793 39.7524C58.1224 39.3604 57.9566 38.8361 58.0112 38.2778C58.1204 37.1641 59.0976 36.2585 60.1899 36.2585H67.043C67.5715 36.2585 68.0523 36.4667 68.3956 36.8451C68.7526 37.2371 68.9184 37.7613 68.8637 38.3196C68.7535 39.4334 67.7763 40.3389 66.685 40.3389ZM60.1889 36.6904C59.3131 36.6904 58.5281 37.4219 58.4403 38.3206C58.3974 38.7564 58.5251 39.163 58.7982 39.4635C59.0586 39.7505 59.4253 39.908 59.831 39.908H66.6841C67.5598 39.908 68.3449 39.1766 68.4327 38.2778C68.4756 37.8421 68.3478 37.4355 68.0748 37.1349C67.8144 36.848 67.4477 36.6904 67.042 36.6904H60.1889Z" fill="black"/>
<path d="M86.6707 86.1395H53.2031C52.6745 86.1395 52.1937 85.9313 51.8504 85.5529C51.4935 85.1609 51.3277 84.6367 51.3823 84.0784C51.4915 82.9646 52.4687 82.0591 53.561 82.0591H87.0296C87.5581 82.0591 88.0389 82.2672 88.3822 82.6456C88.7392 83.0376 88.905 83.5619 88.8503 84.1202C88.7411 85.2339 87.7629 86.1395 86.6707 86.1395ZM53.561 82.491C52.6852 82.491 51.9001 83.2224 51.8124 84.1212C51.7695 84.5569 51.8972 84.9635 52.1703 85.2641C52.4307 85.551 52.7974 85.7086 53.2031 85.7086H86.6707C87.5464 85.7086 88.3315 84.9771 88.4193 84.0784C88.4622 83.6426 88.3344 83.236 88.0614 82.9355C87.801 82.6485 87.4343 82.491 87.0286 82.491H53.561Z" fill="black"/>
<path d="M90.7483 93.6883H51.8603C51.3317 93.6883 50.8509 93.4801 50.5076 93.1018C50.1507 92.7098 49.9849 92.1855 50.0395 91.6272C50.1487 90.5135 51.1259 89.6079 52.2182 89.6079H91.1053C91.6338 89.6079 92.1146 89.8161 92.4579 90.1944C92.8149 90.5864 92.9807 91.1107 92.926 91.669C92.8178 92.7827 91.8396 93.6883 90.7483 93.6883ZM52.2182 90.0388C51.3424 90.0388 50.5574 90.7703 50.4696 91.669C50.4267 92.1048 50.5544 92.5114 50.8275 92.8119C51.0879 93.0989 51.4546 93.2564 51.8603 93.2564H90.7473C91.6231 93.2564 92.4082 92.525 92.496 91.6262C92.5389 91.1905 92.4111 90.7839 92.138 90.4833C91.8776 90.1964 91.511 90.0388 91.1053 90.0388H52.2182Z" fill="black"/>
<path d="M106.701 40.3389H77.3925C76.8639 40.3389 76.3831 40.1308 76.0398 39.7524C75.6829 39.3604 75.5171 38.8361 75.5717 38.2778C75.681 37.1641 76.6582 36.2585 77.7504 36.2585H107.059C107.587 36.2585 108.068 36.4667 108.411 36.8451C108.768 37.2371 108.934 37.7613 108.879 38.3196C108.77 39.4334 107.793 40.3389 106.701 40.3389ZM77.7514 36.6904C76.8756 36.6904 76.0906 37.4219 76.0028 38.3206C75.9599 38.7564 76.0876 39.163 76.3607 39.4635C76.6211 39.7505 76.9878 39.908 77.3935 39.908H106.701C107.576 39.908 108.362 39.1766 108.449 38.2778C108.492 37.8421 108.364 37.4355 108.091 37.1349C107.831 36.848 107.464 36.6904 107.059 36.6904H77.7514Z" fill="black"/>
<path d="M155.615 66.4805L39.48 66.9795C38.9387 66.9815 38.5164 66.5136 38.5759 65.9767L39.6204 56.5631C39.6575 56.2314 39.9383 55.9815 40.2728 55.9834L156.755 56.605C157.158 56.6069 157.469 56.96 157.42 57.3598L156.367 65.8162C156.32 66.1946 155.998 66.4796 155.615 66.4805Z" fill="#157B6C"/>
<path d="M127.253 101.962H117.335C116.972 101.962 116.706 101.621 116.743 101.2L123.269 26.0162C123.305 25.596 123.63 25.2546 123.994 25.2546H133.911C134.275 25.2546 134.54 25.5951 134.504 26.0162L127.977 101.2C127.941 101.621 127.617 101.962 127.253 101.962Z" fill="#157B6C"/>
<path d="M131.7 64.2524C135.376 72.8859 137.597 79.6295 138.105 82.28C138.231 82.9385 137.814 83.6428 137.153 83.8529C136.155 84.1709 135.166 84.3256 134.185 84.3343L129.227 64.9314L131.7 64.2524Z" fill="#157B6C"/>
<path d="M134.183 84.5492C134.085 84.5492 133.998 84.4821 133.974 84.3868L129.016 64.9838C128.986 64.87 129.054 64.7543 129.168 64.7231L131.642 64.0442C131.747 64.016 131.856 64.0685 131.898 64.1677C135.591 72.8401 137.814 79.6139 138.317 82.2391C138.465 83.0153 137.982 83.8139 137.217 84.057C136.222 84.3741 135.202 84.5395 134.184 84.5482C134.185 84.5492 134.184 84.5492 134.183 84.5492ZM129.488 65.083L134.351 84.1154C135.268 84.0911 136.188 83.9335 137.087 83.6475C137.638 83.4725 137.999 82.8772 137.892 82.3208C137.397 79.7354 135.21 73.0697 131.575 64.5111L129.488 65.083Z" fill="#157B6C"/>
<path d="M130.77 64.4214C132.861 77.5379 134.987 84.2202 136.707 83.9936C129.566 85.5042 120.202 85.1336 110.072 83.9605C109.129 83.8516 108.507 82.9986 108.657 82.0191C109.497 76.5283 112.204 70.9315 116.079 65.2696L130.77 64.4214Z" fill="white"/>
<path d="M125.537 85.2105C121.116 85.2105 116.007 84.8652 110.047 84.1756C109.546 84.1172 109.105 83.8702 108.805 83.4772C108.488 83.0628 108.359 82.5337 108.443 81.9871C109.231 76.8387 111.669 71.3304 115.9 65.1481C115.938 65.0926 115.999 65.0586 116.066 65.0547L130.758 64.2065C130.868 64.2017 130.966 64.2785 130.984 64.3874C133.902 82.6903 136.086 83.8604 136.679 83.7797C136.797 83.7632 136.901 83.8429 136.92 83.9567C136.94 84.0705 136.866 84.1805 136.752 84.2038C133.583 84.8749 129.895 85.2105 125.537 85.2105ZM116.197 65.4788C112.042 71.5707 109.644 76.9933 108.871 82.0522C108.806 82.4822 108.904 82.8955 109.149 83.2156C109.377 83.5142 109.714 83.7029 110.097 83.7466C121.44 85.0598 129.686 85.1201 135.939 83.9285C133.814 82.1845 131.892 72.7894 130.588 64.6481L116.197 65.4788Z" fill="black"/>
<path d="M126.286 71.4259C126.285 71.4259 126.284 71.4259 126.284 71.4259C126.165 71.4249 126.068 71.3276 126.07 71.208L126.127 65.5509C126.128 65.4322 126.224 65.3379 126.343 65.3379C126.344 65.3379 126.345 65.3379 126.345 65.3379C126.464 65.3389 126.561 65.4361 126.559 65.5558L126.502 71.2129C126.5 71.3306 126.404 71.4259 126.286 71.4259Z" fill="black"/>
<path d="M118.91 71.0301C118.887 71.0301 118.865 71.0271 118.843 71.0194C118.73 70.9824 118.668 70.8608 118.705 70.747L120.438 65.4858C120.475 65.373 120.597 65.3117 120.711 65.3487C120.824 65.3856 120.886 65.5072 120.849 65.621L119.116 70.8822C119.084 70.9727 119.001 71.0301 118.91 71.0301Z" fill="black"/>
<path d="M132.077 58.2273C137.003 49.4187 140.214 42.5643 141.12 39.8845C141.346 39.2192 141.045 38.5296 140.432 38.3458C139.504 38.0676 138.561 37.9518 137.605 37.983L129.764 57.6466L132.077 58.2273Z" fill="#157B6C"/>
<path d="M132.077 58.4433C132.059 58.4433 132.042 58.4414 132.024 58.4365L129.711 57.8558C129.651 57.8403 129.6 57.8004 129.572 57.7449C129.543 57.6895 129.54 57.6253 129.563 57.5669L137.404 37.9033C137.436 37.8235 137.512 37.77 137.598 37.7671C138.594 37.734 139.567 37.8605 140.494 38.1387C140.822 38.2369 141.092 38.4626 141.252 38.7729C141.433 39.123 141.46 39.553 141.324 39.9527C140.428 42.6042 137.212 49.4859 132.265 58.3315C132.227 58.4025 132.154 58.4433 132.077 58.4433ZM130.055 57.4979L131.969 57.9784C136.856 49.2272 140.03 42.435 140.915 39.8165C141.012 39.5267 140.996 39.2183 140.868 38.9713C140.762 38.7661 140.584 38.6163 140.369 38.5521C139.53 38.3001 138.65 38.1766 137.752 38.1951L130.055 57.4979Z" fill="#157B6C"/>
<path d="M131.195 58.0952C135.262 44.8532 138.371 38.0648 140.019 38.2214C133.271 36.9949 124.061 37.7439 113.977 39.3293C113.037 39.4772 112.298 40.3574 112.293 41.334C112.267 46.8082 114.05 52.3136 116.963 57.8365L131.195 58.0952Z" fill="white"/>
<path d="M131.194 58.3111C131.193 58.3111 131.191 58.3111 131.19 58.3111L116.96 58.0524C116.881 58.0505 116.809 58.0067 116.772 57.9376C113.588 51.9012 112.053 46.4707 112.077 41.3331C112.082 40.2544 112.902 39.2807 113.943 39.1163C125.724 37.2634 134.021 36.9122 140.058 38.0094C140.172 38.0298 140.249 38.1368 140.234 38.2506C140.218 38.3644 140.118 38.45 139.999 38.4355C139.432 38.3771 137.092 39.6357 131.402 58.1575C131.373 58.2489 131.289 58.3111 131.194 58.3111ZM117.095 57.6235L131.035 57.8764C133.568 49.6495 136.903 40.1162 139.238 38.308C133.315 37.3762 125.264 37.7721 114.01 39.5424C113.174 39.6737 112.514 40.4615 112.509 41.335C112.485 46.3676 113.985 51.6969 117.095 57.6235Z" fill="black"/>
<path d="M127.041 57.355C127.031 57.355 127.02 57.354 127.01 57.353C126.892 57.3355 126.81 57.2266 126.826 57.1089L127.644 51.4362C127.661 51.3185 127.768 51.2368 127.888 51.2533C128.006 51.2709 128.088 51.3798 128.072 51.4975L127.254 57.1701C127.24 57.2771 127.147 57.355 127.041 57.355Z" fill="black"/>
<path d="M121.469 57.5844C121.366 57.5844 121.274 57.5105 121.257 57.4045L120.374 52.1968C120.355 52.0791 120.434 51.9682 120.552 51.9478C120.671 51.9273 120.781 52.0071 120.801 52.1248L121.684 57.3325C121.703 57.4502 121.624 57.5611 121.506 57.5815C121.494 57.5835 121.481 57.5844 121.469 57.5844Z" fill="black"/>
<path d="M118.059 57.4639H131.235C132.043 57.4639 132.632 58.134 132.551 58.9598L132.063 63.9438C131.982 64.7706 131.261 65.4398 130.453 65.4398H117.277C116.469 65.4398 115.88 64.7696 115.961 63.9438L116.449 58.9598C116.53 58.134 117.251 57.4639 118.059 57.4639Z" fill="white"/>
<path d="M130.452 65.6559H117.276C116.831 65.6559 116.428 65.4808 116.138 65.1627C115.838 64.833 115.698 64.3924 115.744 63.9235L116.232 58.9395C116.324 58.0077 117.143 57.249 118.058 57.249H131.234C131.678 57.249 132.082 57.4241 132.372 57.7422C132.671 58.0719 132.812 58.5125 132.766 58.9814L132.277 63.9654C132.187 64.8972 131.367 65.6559 130.452 65.6559ZM118.059 57.6789C117.361 57.6789 116.735 58.2635 116.664 58.9804L116.175 63.9644C116.141 64.3107 116.241 64.6336 116.459 64.8719C116.666 65.0985 116.955 65.224 117.277 65.224H130.453C131.152 65.224 131.778 64.6404 131.848 63.9226L132.337 58.9386C132.371 58.5923 132.269 58.2694 132.053 58.0311C131.846 57.8044 131.556 57.6789 131.235 57.6789H118.059Z" fill="black"/>
<path d="M12.0374 162.014L9.17405 171.409L4.98828 170.207L8.03301 160.333L12.0374 162.014Z" fill="white"/>
<path d="M9.17422 171.625C9.15471 171.625 9.13423 171.622 9.11473 171.616L4.92896 170.413C4.87337 170.398 4.82656 170.36 4.79828 170.308C4.77097 170.258 4.76512 170.197 4.7817 170.142L7.82545 160.267C7.84398 160.209 7.88494 160.161 7.94053 160.135C7.99612 160.11 8.05951 160.109 8.11608 160.132L12.1214 161.814C12.2238 161.857 12.2765 161.969 12.2443 162.075L9.38097 171.471C9.35269 171.565 9.26687 171.625 9.17422 171.625ZM5.25957 170.06L9.02988 171.144L11.7752 162.138L8.16971 160.623L5.25957 170.06Z" fill="black"/>
<path d="M9.56104 169.993L5.386 168.673C5.08953 168.58 4.76672 168.672 4.56777 168.909C3.9124 169.691 2.49049 171.55 1.95898 173.573C1.81367 174.126 2.1316 174.695 2.67774 174.868L8.61017 176.744C9.91311 177.157 11.258 177.426 12.6194 177.55C12.6194 177.55 17.0032 178.011 17.0549 176.619C17.129 174.619 14.1749 174.22 13.779 173.816C12.2615 172.266 10.6728 170.82 10.0896 170.296C9.93651 170.157 9.75707 170.055 9.56104 169.993Z" fill="white"/>
<path d="M14.1625 177.842C13.394 177.842 12.7454 177.778 12.5972 177.763C11.226 177.639 9.86162 177.365 8.54601 176.949L2.61358 175.072C1.95529 174.864 1.57689 174.181 1.75146 173.517C2.30052 171.429 3.78875 169.502 4.40316 168.769C4.65965 168.465 5.07121 168.345 5.45253 168.466L9.62757 169.786C9.8548 169.858 10.0596 169.975 10.2351 170.133C10.8437 170.68 12.4226 172.119 13.9343 173.662C14.0045 173.734 14.3175 173.853 14.5926 173.957C15.6166 174.344 17.3311 174.994 17.2716 176.624C17.2628 176.867 17.1565 177.078 16.9556 177.252C16.4026 177.731 15.1777 177.842 14.1625 177.842ZM5.15313 168.852C4.99319 168.852 4.8391 168.921 4.73377 169.048C4.13789 169.757 2.6955 171.623 2.16887 173.628C2.05281 174.07 2.3054 174.524 2.74426 174.663L8.6767 176.539C9.96305 176.946 11.2962 177.214 12.6401 177.335C13.5256 177.428 15.9706 177.536 16.6728 176.929C16.783 176.834 16.8356 176.733 16.8405 176.611C16.8893 175.289 15.4157 174.732 14.4404 174.362C14.0474 174.214 13.7626 174.106 13.6261 173.967C12.1232 172.433 10.5521 171.001 9.94647 170.456C9.81676 170.339 9.6656 170.253 9.49786 170.2L5.32282 168.88C5.26626 168.861 5.20969 168.852 5.15313 168.852Z" fill="black"/>
<path d="M9.37709 174.119C9.3137 174.119 9.25128 174.092 9.20837 174.038C9.13425 173.946 9.14888 173.81 9.24153 173.736L11.6992 171.771C11.7918 171.697 11.9283 171.712 12.0034 171.804C12.0776 171.896 12.0629 172.033 11.9703 172.107L9.51265 174.071C9.47169 174.103 9.4239 174.119 9.37709 174.119Z" fill="black"/>
<path d="M10.6867 175.578C10.6233 175.578 10.5609 175.551 10.5179 175.498C10.4438 175.404 10.4585 175.269 10.5511 175.194L13.0087 173.229C13.1014 173.155 13.2379 173.17 13.313 173.262C13.3871 173.356 13.3725 173.491 13.2798 173.566L10.8222 175.531C10.7822 175.563 10.7344 175.578 10.6867 175.578Z" fill="black"/>
<path d="M35.7404 164.369L35.5405 171.075L30.8076 171.073L31.1392 164.071L35.7404 164.369Z" fill="white"/>
<path d="M35.5405 171.291L30.8066 171.289C30.7471 171.289 30.6915 171.264 30.6506 171.221C30.6096 171.179 30.5882 171.121 30.5911 171.063L30.9227 164.062C30.9256 164.003 30.951 163.95 30.9948 163.911C31.0377 163.872 31.0933 163.854 31.1528 163.856L35.754 164.154C35.8701 164.162 35.9598 164.259 35.9559 164.376L35.756 171.081C35.7531 171.197 35.6575 171.291 35.5405 171.291ZM31.0338 170.857L35.3308 170.859L35.518 164.57L31.345 164.3L31.0338 170.857Z" fill="black"/>
<path d="M35.3559 170.973L30.9614 170.971C30.6493 170.971 30.3684 171.159 30.2504 171.449C29.8603 172.403 29.0655 174.633 29.1718 176.748C29.2011 177.326 29.678 177.779 30.2524 177.779L43.1471 177.784C43.7401 177.784 44.1906 177.239 44.0726 176.654C43.9302 175.953 43.4407 175.031 42.0265 174.203C39.7376 172.86 36.8616 171.519 35.9547 171.104C35.7655 171.018 35.5626 170.973 35.3559 170.973Z" fill="white"/>
<path d="M43.1469 178L30.2512 177.995C29.5587 177.995 28.9892 177.453 28.9551 176.76C28.8458 174.576 29.6836 172.262 30.0493 171.369C30.2014 170.998 30.5584 170.758 30.9602 170.758C30.9602 170.758 30.9602 170.758 30.9611 170.758L35.3556 170.76C35.5945 170.76 35.8257 170.81 36.0441 170.91C36.8877 171.296 39.8203 172.662 42.1355 174.02C43.6569 174.912 44.1436 175.922 44.283 176.614C44.3523 176.955 44.2645 177.308 44.0431 177.577C43.8217 177.845 43.495 178 43.1469 178ZM30.9602 171.187C30.7349 171.187 30.535 171.323 30.4491 171.532C30.0941 172.398 29.2808 174.641 29.3861 176.739C29.4095 177.202 29.7889 177.564 30.2512 177.564L43.1459 177.569C43.1459 177.569 43.1459 177.569 43.1469 177.569C43.3653 177.569 43.5691 177.472 43.7086 177.303C43.8481 177.132 43.9027 176.913 43.8598 176.698C43.6842 175.83 43.0123 175.032 41.9161 174.39C39.6184 173.042 36.7024 171.685 35.8627 171.3C35.7018 171.226 35.5312 171.189 35.3546 171.189L30.9602 171.187Z" fill="black"/>
<path d="M36.3663 175.022C36.3254 175.022 36.2844 175.01 36.2473 174.986C36.1479 174.92 36.1206 174.786 36.1859 174.687L37.9404 172.041C38.0067 171.941 38.1403 171.914 38.2398 171.979C38.3393 172.045 38.3666 172.179 38.3012 172.278L36.5467 174.925C36.5048 174.989 36.4365 175.022 36.3663 175.022Z" fill="black"/>
<path d="M38.0616 176.031C38.0207 176.031 37.9797 176.02 37.9427 175.995C37.8432 175.929 37.8159 175.796 37.8812 175.697L39.6357 173.05C39.702 172.951 39.8356 172.924 39.9351 172.989C40.0346 173.055 40.0619 173.188 39.9965 173.287L38.2421 175.934C38.2011 175.997 38.1319 176.031 38.0616 176.031Z" fill="black"/>
<path d="M15.9009 107.323C15.9009 107.323 13.7398 112.704 13.3204 118.22C12.9011 123.736 7.15882 157.03 5.43945 165.42C5.43945 165.42 9.29266 167.57 11.4889 167.217C11.4889 167.217 23.8941 142.575 25.9148 124.219C27.9355 105.863 27.3455 107.328 27.3455 107.328L15.9009 107.323Z" fill="#157B6C"/>
<path d="M19.7078 109.39C19.7078 109.39 19.0115 119.335 22.4697 126.365C25.9279 133.394 30.0815 160.721 29.7919 167.671C29.7919 167.671 34.1717 168.827 36.249 168.017C36.249 168.017 42.5403 128.626 34.5277 109.258L19.7078 109.39Z" fill="#157B6C"/>
<path d="M24.5776 134.021C24.4752 134.021 24.3845 133.948 24.365 133.845C24.3601 133.816 23.8179 130.952 22.513 128.652C20.5469 125.187 19.8076 120.881 19.8008 120.838C19.7813 120.72 19.8603 120.609 19.9783 120.59C20.0963 120.571 20.2075 120.649 20.227 120.767C20.2338 120.809 20.9614 125.042 22.8894 128.44C24.2304 130.804 24.7677 133.646 24.7902 133.766C24.8116 133.882 24.7346 133.995 24.6166 134.017C24.6039 134.02 24.5912 134.021 24.5776 134.021Z" fill="white"/>
<path d="M20.0567 85.1512L17.9989 82.8741C17.1114 80.6146 14.6392 78.6576 12.5638 77.3921C3.95435 72.1435 5.16365 62.1794 5.11294 58.1448L1.83611 58.6515C1.83611 58.6515 -6.22919 79.5768 13.6288 89.5778L20.0567 85.1512Z" fill="white"/>
<path d="M13.6285 89.7938C13.5954 89.7938 13.5622 89.786 13.531 89.7705C3.18263 84.5579 0.498743 76.3485 0.0696342 70.3792C-0.394584 63.9245 1.61345 58.6263 1.63393 58.5738C1.66221 58.5018 1.72561 58.4503 1.80265 58.4376L5.07948 57.9309C5.1419 57.9211 5.20432 57.9386 5.2521 57.9795C5.29989 58.0203 5.32817 58.0787 5.32817 58.1409C5.33402 58.5718 5.32525 59.0572 5.31452 59.6184C5.23455 64.1482 5.08436 72.5794 12.6747 77.2074C14.3014 78.1995 17.1726 80.2353 18.1839 82.7575L20.2153 85.0053C20.2573 85.051 20.2768 85.1133 20.27 85.1746C20.2631 85.2359 20.229 85.2913 20.1783 85.3273L13.7514 89.7559C13.7143 89.7812 13.6714 89.7938 13.6285 89.7938ZM1.99477 58.8452C1.70805 59.6505 0.0793867 64.5276 0.502644 70.3636C0.924927 76.1948 3.5464 84.2068 13.6119 89.3279L19.7316 85.1133L17.8387 83.0191C17.8211 82.9997 17.8075 82.9773 17.7977 82.953C16.8459 80.531 14.0391 78.5448 12.4504 77.576C4.64843 72.8196 4.80154 64.227 4.88346 59.6116C4.89126 59.1593 4.89809 58.7576 4.89809 58.3958L1.99477 58.8452Z" fill="black"/>
<path d="M2.98323 59.0523C2.79794 58.9949 2.60776 58.9113 2.41369 58.7994C1.47842 58.2606 0.272042 56.536 0.757716 55.4116C1.45307 53.8018 5.16291 54.1393 5.85631 55.5692C6.69698 57.3015 4.86059 59.6369 2.98323 59.0523Z" fill="white"/>
<path d="M3.57629 59.3577C3.35588 59.3577 3.1345 59.3246 2.91897 59.2585C2.71515 59.1953 2.50839 59.1039 2.30554 58.9871C1.25715 58.3831 0.0351632 56.5399 0.558871 55.3279C0.871926 54.6042 1.76038 54.1568 2.93555 54.1306C4.14779 54.1101 5.60481 54.5576 6.05049 55.4767C6.49033 56.3813 6.29138 57.5262 5.54337 58.3919C5.00405 59.0163 4.2892 59.3577 3.57629 59.3577ZM3.04771 58.8471C3.93811 59.1243 4.75244 58.6486 5.21666 58.1107C5.85154 57.3754 6.02709 56.4144 5.66235 55.6645C5.34344 55.0089 4.17899 54.5323 2.9453 54.5614C1.94372 54.5838 1.19961 54.934 0.955798 55.4981C0.540342 56.4591 1.62189 58.0952 2.52205 58.6136C2.69662 58.7148 2.87314 58.7926 3.04771 58.8471Z" fill="black"/>
<path d="M52.7754 78.1218C61.7525 83.9695 56.6744 102.363 42.7898 95.9383L41.874 86.6191C53.8745 91.7811 53.0504 84.7 49.9354 77.0713L52.7754 78.1218Z" fill="white"/>
<path d="M48.2588 97.5014C46.5277 97.5014 44.6679 97.0452 42.6989 96.1338C42.6297 96.1017 42.5819 96.0356 42.5751 95.9597L41.6593 86.6405C41.6515 86.5646 41.6856 86.4907 41.7471 86.445C41.8085 86.4002 41.8895 86.3905 41.9597 86.4216C46.4907 88.3709 49.473 88.6899 50.8237 87.37C52.2856 85.9411 51.9199 82.5037 49.7353 77.153C49.7032 77.0742 49.7207 76.9828 49.7802 76.9215C49.8397 76.8602 49.9304 76.8398 50.0104 76.87L52.8503 77.9204C52.8649 77.9263 52.8795 77.9331 52.8932 77.9418C57.9011 81.2032 58.5487 88.2775 56.012 92.8384C54.83 94.9627 53.0785 96.4373 50.9466 97.1016C50.0903 97.3682 49.1931 97.5014 48.2588 97.5014ZM42.9925 95.7944C48.4334 98.2669 53.1536 97.088 55.6336 92.6293C58.0727 88.2444 57.4642 81.4522 52.6767 78.3163L50.3176 77.4438C52.4397 82.7858 52.704 86.1367 51.126 87.6783C49.6524 89.1189 46.7062 88.8835 42.1245 86.9605L42.9925 95.7944Z" fill="black"/>
<path d="M50.8039 78.2463C50.601 78.1831 50.3923 78.0916 50.1797 77.9701C49.1548 77.3796 47.8333 75.4897 48.3648 74.2593C49.1265 72.4958 53.1903 72.8654 53.951 74.4315C54.8736 76.3282 52.8607 78.8863 50.8039 78.2463Z" fill="white"/>
<path d="M51.4538 78.5604C51.2139 78.5604 50.974 78.5244 50.74 78.4524C50.5176 78.3834 50.2933 78.2842 50.0729 78.1567C48.9309 77.4982 47.5987 75.4916 48.1682 74.1736C48.5076 73.3877 49.4741 72.9023 50.7536 72.8741C52.0682 72.8381 53.6618 73.3381 54.1475 74.337C54.6253 75.3214 54.4088 76.5664 53.5945 77.5089C53.0064 78.1888 52.2292 78.5604 51.4538 78.5604ZM50.8726 73.3031C50.8355 73.3031 50.7985 73.3031 50.7624 73.3041C49.6565 73.3284 48.8353 73.7165 48.5642 74.3429C48.1058 75.405 49.2966 77.2103 50.2884 77.7823C50.4815 77.8931 50.6766 77.9797 50.8687 78.04C51.8537 78.3474 52.7538 77.8212 53.2668 77.2269C53.968 76.4147 54.1611 75.3535 53.7583 74.5238C53.4151 73.8196 52.1872 73.3031 50.8726 73.3031Z" fill="black"/>
<path d="M43.9891 86.8465C43.9774 86.5985 43.8604 86.368 43.6663 86.2114C42.969 85.6462 40.4451 84.3886 38.2742 83.1494C35.877 81.7808 33.7529 80.9229 30.991 80.957L21.6432 80.4512C19.0364 80.4395 17.5384 79.9522 15.3724 78.6731C12.8416 77.1781 11.2383 75.0664 10.6005 74.37C10.4835 74.2426 10.2767 74.2708 10.1968 74.4245L4.74609 84.8234C4.74609 84.8234 8.96014 88.6606 14.5171 92.9248C14.6936 93.061 14.9277 97.3028 14.9033 97.5236L13.1625 113.345C13.0182 114.444 37.6929 116.213 37.6217 115.067C37.3916 111.373 36.0935 108.303 36.6406 96.6764C36.6601 96.2591 37.0424 95.9557 37.453 96.0344C38.6379 96.264 41.0195 96.7163 43.4264 97.1238C43.9784 97.2172 44.4748 96.7766 44.4475 96.2192L43.9891 86.8465Z" fill="white"/>
<path d="M34.3507 115.635C27.919 115.635 14.445 114.528 13.1362 113.656C12.9597 113.538 12.9372 113.407 12.9489 113.317L14.6897 97.5003C14.7151 97.1628 14.4849 93.524 14.3484 93.0659C8.86556 88.8571 4.64372 85.0209 4.60178 84.9829C4.52961 84.9168 4.51011 84.8108 4.55594 84.7242L10.0066 74.3234C10.0778 74.1882 10.2095 74.0958 10.3606 74.0763C10.5108 74.0578 10.66 74.1123 10.7614 74.2232C10.857 74.3273 10.9731 74.4625 11.1106 74.622C11.8957 75.5334 13.3566 77.2287 15.4836 78.4854C17.7325 79.8141 19.173 80.2226 21.6452 80.2333L31.0037 80.7391C33.8368 80.6944 36.0018 81.6009 38.3824 82.9598C39.1792 83.414 40.0072 83.8634 40.8088 84.2972C42.1713 85.0345 43.3474 85.6726 43.8038 86.0422C44.0437 86.2367 44.191 86.5256 44.2056 86.8339L44.665 96.2076C44.6816 96.5393 44.5479 96.8564 44.2983 97.0762C44.0496 97.2961 43.719 97.3904 43.3913 97.335C40.9756 96.9255 38.6087 96.4751 37.413 96.2436C37.2784 96.2183 37.1448 96.2495 37.0376 96.3341C36.9303 96.4187 36.864 96.5461 36.8581 96.6833C36.4602 105.13 37.0444 109.086 37.4715 111.975C37.6354 113.082 37.7758 114.037 37.8392 115.049C37.8441 115.122 37.8246 115.259 37.6451 115.363C37.3155 115.554 36.0906 115.635 34.3507 115.635ZM13.3849 113.306C13.8939 113.673 18.1821 114.321 25.3502 114.831C32.5007 115.339 36.8308 115.302 37.4013 115.009C37.337 114.041 37.2004 113.112 37.0415 112.041C36.6123 109.135 36.0243 105.154 36.4241 96.6667C36.4368 96.4041 36.5616 96.1609 36.7684 95.9985C36.9732 95.838 37.2375 95.7738 37.493 95.8234C38.6867 96.0549 41.0497 96.5033 43.4615 96.9119C43.6595 96.9449 43.8584 96.8885 44.0086 96.7552C44.1598 96.622 44.2398 96.4304 44.23 96.23L43.7707 86.8563C43.7619 86.6696 43.6731 86.4954 43.5278 86.3778C43.1026 86.0334 41.9431 85.4051 40.6001 84.6775C39.7965 84.2427 38.9656 83.7924 38.1649 83.3352C35.8897 82.0367 33.8183 81.17 31.1461 81.17C31.0954 81.17 31.0437 81.17 30.992 81.171L21.6296 80.6652C19.1086 80.6545 17.5589 80.2149 15.2603 78.857C13.0728 77.5643 11.5816 75.8339 10.78 74.904C10.6454 74.7484 10.5323 74.6161 10.4386 74.514C10.4357 74.5111 10.4289 74.5033 10.4123 74.5043C10.4045 74.5052 10.3928 74.5091 10.386 74.5228L5.01236 84.7758C5.7477 85.4372 9.68282 88.9456 14.6468 92.7537C14.9755 93.0056 15.1198 97.5062 15.1159 97.547L13.3849 113.306ZM13.378 113.363L13.3771 113.369C13.378 113.367 13.378 113.365 13.378 113.363Z" fill="black"/>
<path d="M23.9972 73.8965L23.2384 81.3744C23.1312 82.2897 23.8285 83.1019 24.752 83.1379L26.9892 83.2245C27.8943 83.2595 28.6442 82.5339 28.6364 81.6302L28.5818 74.4888L23.9972 73.8965Z" fill="white"/>
<path d="M27.0533 83.4424C27.0289 83.4424 27.0055 83.4424 26.9812 83.4405L24.7439 83.3539C24.2436 83.3344 23.7706 83.1059 23.4449 82.7265C23.1192 82.3472 22.9661 81.8453 23.0236 81.3492L23.7814 73.8742C23.7872 73.8158 23.8165 73.7633 23.8623 73.7273C23.9082 73.6913 23.9667 73.6748 24.0242 73.6826L28.6098 74.2759C28.7171 74.2895 28.7971 74.38 28.7981 74.4879L28.8527 81.6293C28.8566 82.1254 28.6625 82.5894 28.3055 82.9347C27.9652 83.2634 27.5234 83.4424 27.0533 83.4424ZM24.189 74.1387L23.4527 81.3969C23.4079 81.783 23.521 82.1546 23.7726 82.4473C24.0232 82.7401 24.3743 82.9094 24.7605 82.924L26.9977 83.0105C27.3761 83.0261 27.7331 82.8889 28.0052 82.6263C28.2763 82.3637 28.4245 82.0116 28.4216 81.6342L28.3689 74.6805L24.189 74.1387Z" fill="black"/>
<path d="M27.6044 64.69C25.807 64.9322 25.5613 66.9564 23.4138 67.1927C22.4298 67.3017 21.9353 66.9369 21.0634 67.3542C20.4861 67.6304 19.6454 68.2967 19.5596 69.178C19.4494 70.3004 20.6841 70.5436 21.9441 72.7049C22.8286 74.2232 22.8823 75.2387 23.5864 75.3496C24.2983 75.4605 24.6172 74.48 25.4043 74.5432C26.4224 74.625 26.5551 76.3213 27.6298 76.8271C28.3076 77.1461 29.7256 77.08 31.7297 75.585C32.0545 75.3428 32.1598 74.9031 31.9794 74.5413C31.7483 74.0773 31.4528 73.4928 31.1231 72.9578C29.5539 70.4074 28.4461 69.9775 28.6645 69.1955C29 67.9981 31.2041 68.2208 31.3738 67.2569C31.5493 66.257 29.4506 64.442 27.6044 64.69Z" fill="#157B6C"/>
<path d="M25.1328 69.5661C25.1328 69.5661 26.7117 72.8762 27.3174 73.7029C27.924 74.5297 30.6342 72.8518 30.6342 72.8518L30.7005 72.2556L31.0243 72.0455C31.1247 71.9803 31.1901 71.8733 31.2028 71.7537C31.2145 71.635 31.1725 71.5164 31.0877 71.4327C30.4343 70.7859 29.0475 69.3191 28.3736 67.8912C28.3736 67.8902 26.5411 67.4253 25.1328 69.5661Z" fill="white"/>
<path d="M27.892 74.1454C27.576 74.1454 27.3088 74.0569 27.143 73.8302C26.5315 72.9967 25.0023 69.7946 24.937 69.6594C24.9048 69.5913 24.9097 69.5116 24.9516 69.4483C26.4281 67.2053 28.3455 67.6606 28.4264 67.682C28.4888 67.6975 28.5415 67.7403 28.5688 67.7987C29.2378 69.2178 30.6597 70.705 31.239 71.2789C31.3717 71.4102 31.436 71.5911 31.4175 71.775C31.399 71.9598 31.2985 72.1242 31.1425 72.2253L30.9035 72.38L30.848 72.8751C30.8411 72.9412 30.8031 72.9996 30.7475 73.0346C30.3828 73.2612 28.8906 74.1454 27.892 74.1454ZM25.3807 69.5845C25.6606 70.1652 26.9665 72.8585 27.4921 73.5764C27.8159 74.017 29.4017 73.3439 30.4315 72.7233L30.4861 72.2321C30.493 72.1679 30.5291 72.1106 30.5827 72.0755L30.9065 71.8654C30.9523 71.8353 30.9816 71.7876 30.9874 71.7332C30.9933 71.6787 30.9738 71.6252 30.9348 71.5863C30.2111 70.8704 28.9131 69.4775 28.2255 68.0827C27.8588 68.0273 26.5081 67.9553 25.3807 69.5845Z" fill="black"/>
<path d="M25.7037 72.2565C25.7037 72.2565 24.4573 70.7342 23.8829 71.4462C23.3085 72.1582 24.7226 73.8001 25.7037 72.2565Z" fill="white"/>
<path d="M171.875 127.296L141.982 135.248L112.175 127.259C112.119 127.245 112.119 127.166 112.175 127.15L142.334 119.115L171.875 127.213C171.918 127.225 171.918 127.285 171.875 127.296Z" fill="white"/>
<path d="M141.983 135.464C141.964 135.464 141.945 135.461 141.926 135.456L112.119 127.467C112.001 127.436 111.917 127.328 111.917 127.205C111.917 127.082 112 126.974 112.12 126.942L142.278 118.907C142.315 118.897 142.355 118.897 142.392 118.907L171.933 127.004C172.046 127.036 172.124 127.139 172.124 127.255C172.123 127.372 172.044 127.474 171.931 127.504L142.039 135.456C142.02 135.461 142.001 135.464 141.983 135.464ZM112.807 127.206L141.983 135.025L171.203 127.253L142.333 119.34L112.807 127.206ZM112.23 127.051H112.231C112.231 127.051 112.231 127.051 112.23 127.051Z" fill="black"/>
<path d="M141.961 177.574L141.989 135.182L172.155 127.227L172.126 169.433L141.961 177.574Z" fill="white"/>
<path d="M154.251 174.469L154.279 132.077L162.58 129.851L162.551 172.056L154.251 174.469Z" fill="#157B6C"/>
<path d="M141.961 177.79C141.914 177.79 141.867 177.774 141.829 177.745C141.775 177.704 141.744 177.641 141.744 177.574L141.772 135.182C141.772 135.084 141.839 134.999 141.933 134.974L172.099 127.019C172.165 127.001 172.233 127.016 172.286 127.057C172.34 127.098 172.37 127.161 172.37 127.228L172.342 169.434C172.342 169.531 172.276 169.616 172.182 169.642L142.016 177.783C141.998 177.787 141.979 177.79 141.961 177.79ZM142.204 135.347L142.176 177.292L171.91 169.267L171.938 127.506L142.204 135.347Z" fill="black"/>
<path d="M141.961 177.574L141.989 135.182L112.096 127.177L112.067 169.433L141.961 177.574Z" fill="white"/>
<path d="M121.395 129.541L121.367 171.687L129.352 174.169L129.38 132.001L121.395 129.541Z" fill="#157B6C"/>
<path d="M141.524 177.655C141.467 177.655 141.408 177.647 141.351 177.631L112.011 169.641C111.917 169.615 111.852 169.53 111.852 169.433L111.88 127.431C111.88 127.303 111.939 127.184 112.042 127.106C112.144 127.027 112.274 127.001 112.399 127.036L142.045 134.975C142.14 135 142.205 135.085 142.205 135.183L142.177 177.004C142.177 177.209 142.083 177.398 141.919 177.521C141.803 177.609 141.666 177.655 141.524 177.655ZM112.284 169.268L141.465 177.216C141.531 177.233 141.602 177.221 141.657 177.179C141.712 177.137 141.744 177.073 141.744 177.004L141.772 135.348L112.312 127.46L112.284 169.268Z" fill="black"/>
<path d="M121.517 135.206L127.456 133.15C128.015 132.956 128.575 133.439 128.463 134.018L127.563 138.712C127.418 139.468 128.355 139.942 128.881 139.379L138.69 128.869C139.086 128.445 138.885 127.753 138.324 127.605L130.323 125.489C130.068 125.421 129.795 125.49 129.602 125.67L120.739 133.922C120.132 134.486 120.732 135.478 121.517 135.206Z" fill="white"/>
<path d="M128.326 139.843C128.174 139.843 128.02 139.807 127.872 139.732C127.471 139.529 127.266 139.112 127.351 138.672L128.251 133.978C128.289 133.782 128.22 133.588 128.069 133.457C127.918 133.327 127.715 133.288 127.526 133.353L121.587 135.409C121.066 135.59 120.625 135.328 120.42 134.988C120.215 134.649 120.188 134.138 120.592 133.763L129.455 125.51C129.705 125.278 130.05 125.192 130.38 125.279L138.381 127.395C138.718 127.485 138.977 127.738 139.074 128.072C139.171 128.407 139.087 128.759 138.849 129.014L129.04 139.524C128.845 139.734 128.589 139.843 128.326 139.843ZM127.712 132.89C127.944 132.89 128.17 132.973 128.353 133.13C128.622 133.363 128.743 133.709 128.677 134.058L127.777 138.752C127.719 139.053 127.89 139.257 128.069 139.348C128.249 139.438 128.515 139.456 128.724 139.232L138.533 128.722C138.666 128.579 138.714 128.382 138.66 128.194C138.605 128.006 138.46 127.864 138.27 127.814L130.269 125.697C130.083 125.648 129.89 125.696 129.751 125.827L120.888 134.079C120.646 134.303 120.685 134.589 120.791 134.766C120.897 134.943 121.133 135.11 121.445 135.003L127.385 132.947C127.493 132.909 127.603 132.89 127.712 132.89Z" fill="black"/>
<path d="M152.357 111.811L146.471 115.386C146.053 115.64 145.52 115.329 145.535 114.842L145.737 108.544C145.758 107.901 144.899 107.664 144.585 108.226L136.606 122.519C136.432 122.83 136.56 123.224 136.885 123.373L143.98 126.66C144.264 126.791 144.601 126.689 144.764 126.424L153.203 112.657C153.539 112.106 152.908 111.476 152.357 111.811Z" fill="white"/>
<path d="M144.237 126.932C144.119 126.932 144 126.907 143.887 126.855L136.792 123.569C136.583 123.472 136.422 123.292 136.351 123.073C136.28 122.854 136.303 122.614 136.415 122.413L144.394 108.121C144.584 107.78 144.964 107.622 145.342 107.725C145.718 107.829 145.964 108.161 145.951 108.551L145.75 114.849C145.745 114.998 145.819 115.131 145.947 115.206C146.076 115.281 146.229 115.279 146.356 115.202L152.243 111.627C152.577 111.424 152.987 111.474 153.264 111.75C153.54 112.026 153.589 112.436 153.385 112.768L144.946 126.536C144.791 126.789 144.519 126.932 144.237 126.932ZM145.113 108.125C144.99 108.125 144.857 108.178 144.772 108.331L136.794 122.623C136.739 122.722 136.728 122.834 136.763 122.941C136.797 123.047 136.873 123.131 136.974 123.179L144.069 126.465C144.253 126.55 144.472 126.484 144.578 126.311L153.017 112.544C153.138 112.346 153.067 112.161 152.959 112.054C152.851 111.947 152.666 111.875 152.468 111.996L146.581 115.571C146.316 115.732 145.998 115.735 145.73 115.578C145.462 115.423 145.308 115.145 145.317 114.835L145.519 108.537C145.526 108.307 145.373 108.181 145.227 108.14C145.192 108.13 145.153 108.125 145.113 108.125Z" fill="black"/>
<path d="M137.296 128.231L142.143 124.213C142.143 124.213 139.972 112.892 130.692 111.265C127.13 110.641 123.256 111.9 119.847 117.292C117.127 121.592 122.34 126.539 137.296 128.231Z" fill="white"/>
<path d="M137.296 128.446C137.288 128.446 137.279 128.446 137.271 128.444C127.56 127.346 121.029 124.72 119.352 121.238C118.713 119.912 118.822 118.507 119.663 117.176C122.709 112.359 126.431 110.3 130.728 111.052C140.048 112.685 142.333 124.056 142.354 124.171C142.369 124.248 142.341 124.327 142.28 124.377L137.433 128.395C137.394 128.429 137.345 128.446 137.296 128.446ZM129.046 111.334C125.608 111.334 122.582 113.369 120.029 117.406C119.259 118.623 119.163 119.85 119.741 121.053C121.347 124.387 127.717 126.92 137.227 128.006L141.903 124.13C141.63 122.905 139.16 112.969 130.652 111.478C130.108 111.381 129.573 111.334 129.046 111.334Z" fill="black"/>
<path d="M137.296 128.231C137.296 128.231 135.695 118.086 126.662 115.976C117.63 113.866 112.783 125.46 137.296 128.231Z" fill="white"/>
<path d="M137.295 128.446C137.288 128.446 137.279 128.446 137.271 128.444C123.157 126.849 120.039 122.595 119.354 120.841C118.851 119.556 119.06 118.289 119.943 117.276C121.3 115.715 123.958 115.122 126.712 115.765C135.781 117.884 137.493 128.093 137.509 128.196C137.52 128.262 137.498 128.33 137.451 128.379C137.41 128.423 137.354 128.446 137.295 128.446ZM124.532 115.94C122.746 115.94 121.18 116.511 120.268 117.56C119.497 118.447 119.315 119.557 119.756 120.685C120.176 121.759 121.356 123.361 124.593 124.889C127.656 126.335 131.839 127.376 137.028 127.983C136.684 126.343 134.559 118.042 126.613 116.186C125.903 116.021 125.202 115.94 124.532 115.94Z" fill="black"/>
<path d="M137.35 128.062L142.848 122.845C142.848 122.845 149.569 115.755 156.372 118.775C160.325 120.53 161.664 124.324 162.035 127.573C162.039 127.603 162.042 127.633 162.045 127.663C162.278 129.941 160.84 132.061 158.655 132.764L152.134 134.862C152.134 134.863 145.819 135.946 137.35 128.062Z" fill="white"/>
<path d="M151.242 135.135C149.174 135.135 143.872 134.429 137.202 128.219C137.158 128.178 137.134 128.122 137.134 128.063C137.134 128.003 137.158 127.946 137.201 127.905L142.7 122.689C142.76 122.624 149.597 115.529 156.46 118.577C160.609 120.419 161.898 124.472 162.25 127.547L162.26 127.642C162.5 129.991 161.012 132.232 158.721 132.969L152.2 135.067C152.191 135.07 152.181 135.073 152.171 135.074C152.116 135.084 151.794 135.135 151.242 135.135ZM137.665 128.06C145.675 135.428 151.757 134.698 152.084 134.652L158.588 132.559C160.686 131.884 162.049 129.835 161.829 127.686L161.82 127.602C161.481 124.634 160.245 120.732 156.284 118.972C149.702 116.051 143.071 122.924 143.005 122.994L137.665 128.06Z" fill="black"/>
<path d="M137.35 128.062C137.35 128.062 144.373 121.244 151.372 125.196C160.857 130.553 153.527 142.199 137.35 128.062Z" fill="white"/>
<path d="M150.745 135.032C147.095 135.032 142.252 132.632 137.207 128.224C137.161 128.184 137.135 128.128 137.133 128.068C137.131 128.007 137.155 127.949 137.198 127.907C137.269 127.838 144.419 121.022 151.478 125.009C154.315 126.611 155.927 128.915 155.792 131.172C155.701 132.699 154.784 133.935 153.277 134.562C152.521 134.877 151.672 135.032 150.745 135.032ZM137.674 128.058C146.744 135.91 151.778 134.721 153.111 134.164C154.46 133.602 155.28 132.502 155.362 131.146C155.485 129.088 153.916 126.88 151.266 125.383C145.085 121.893 138.789 127.067 137.674 128.058Z" fill="black"/>
<path d="M30.3721 52.2901C33.919 48.7525 33.919 43.017 30.3721 39.4795C26.8252 35.9419 21.0746 35.9419 17.5277 39.4795C13.9808 43.017 13.9808 48.7525 17.5277 52.2901C21.0746 55.8276 26.8253 55.8276 30.3721 52.2901Z" fill="white"/>
<path d="M23.9504 55.1586C18.8235 55.1586 14.6514 50.9984 14.6514 45.8841C14.6514 40.7707 18.8225 36.6096 23.9504 36.6096C29.0772 36.6096 33.2494 40.7698 33.2494 45.8841C33.2494 50.9984 29.0772 55.1586 23.9504 55.1586ZM23.9504 37.0415C19.0614 37.0415 15.0844 41.0081 15.0844 45.8841C15.0844 50.7601 19.0614 54.7267 23.9504 54.7267C28.8393 54.7267 32.8163 50.7601 32.8163 45.8841C32.8163 41.009 28.8393 37.0415 23.9504 37.0415Z" fill="black"/>
<path d="M24.0008 50.441C23.9111 50.4964 23.7979 50.4993 23.7063 50.4478C22.9056 50.0013 19.1928 47.77 19.3381 44.851C19.4912 41.7666 22.8481 42.3016 23.677 43.819C23.7082 43.8764 23.7706 43.9114 23.836 43.9075C23.9013 43.9036 23.9598 43.8637 23.9842 43.8034C24.3909 42.8288 25.7036 42.1226 26.9402 42.5856C28.4138 43.1381 29.9128 46.7866 24.0008 50.441Z" fill="#157B6C"/>
</g>
<defs>
<clipPath id="clip0_255_6366">
<rect width="179" height="178" fill="white"/>
</clipPath>
</defs>
</svg>
