<svg width="63" height="63" viewBox="0 0 63 63" fill="none" xmlns="http://www.w3.org/2000/svg">
<path d="M23.8666 8.15723H31.6257V23.6755H23.8666C21.8087 23.6755 19.8351 22.8581 18.38 21.4029C16.9249 19.9478 16.1074 17.9742 16.1074 15.9164C16.1074 13.8585 16.9249 11.885 18.38 10.4298C19.8351 8.97471 21.8087 8.15723 23.8666 8.15723Z" fill="#F4511E"/>
<path d="M39.3861 23.6755H31.627V8.15723H39.3861C41.444 8.15723 43.4175 8.97471 44.8727 10.4298C46.3278 11.885 47.1453 13.8585 47.1453 15.9164C47.1453 17.9742 46.3278 19.9478 44.8727 21.4029C43.4175 22.8581 41.444 23.6755 39.3861 23.6755Z" fill="#FF8A65"/>
<path d="M31.6262 31.4347C31.6262 35.72 35.1001 39.1938 39.3854 39.1938C43.6706 39.1938 47.1445 35.72 47.1445 31.4347C47.1445 27.1494 43.6706 23.6755 39.3854 23.6755C35.1001 23.6755 31.6262 27.1494 31.6262 31.4347Z" fill="#29B6F6"/>
<path d="M23.8666 23.6753H31.6257V39.1936H23.8666C21.8087 39.1936 19.8351 38.3761 18.38 36.921C16.9249 35.4659 16.1074 33.4923 16.1074 31.4344C16.1074 29.3766 16.9249 27.403 18.38 25.9479C19.8351 24.4928 21.8087 23.6753 23.8666 23.6753Z" fill="#7C4DFF"/>
<path d="M23.8666 39.1938H31.6257V46.953C31.6257 49.0109 30.8083 50.9844 29.3531 52.4396C27.898 53.8947 25.9244 54.7122 23.8666 54.7122C21.8087 54.7122 19.8351 53.8947 18.38 52.4396C16.9249 50.9844 16.1074 49.0109 16.1074 46.953C16.1074 44.8951 16.9249 42.9216 18.38 41.4665C19.8351 40.0113 21.8087 39.1938 23.8666 39.1938Z" fill="#00E676"/>
</svg>
