<svg width="54" height="42" viewBox="0 0 54 42" fill="none" xmlns="http://www.w3.org/2000/svg">
<path d="M9.75019 22.0285C11.0042 22.1699 12.1901 21.7143 13.0249 20.8898L23.9164 24.8039C24.029 26.7188 25.5073 28.3376 27.4771 28.5595C29.6788 28.8075 31.6721 27.218 31.9202 25.0165C31.9377 24.8603 31.9448 24.7053 31.9446 24.5516L41.1358 17.846C41.593 18.1054 42.1086 18.2788 42.663 18.3413C44.8647 18.5894 46.8578 16.9999 47.1058 14.7982C47.3539 12.5964 45.7644 10.6032 43.5627 10.3551C41.3611 10.107 39.3681 11.6965 39.1199 13.8983C39.0405 14.6032 39.1498 15.2862 39.4073 15.8979L31.0258 22.0127C30.3855 21.2349 29.4548 20.6947 28.3769 20.5733C26.8505 20.4013 25.4251 21.1128 24.611 22.2989L14.1842 18.5516C14.1869 18.5295 14.1908 18.5076 14.1932 18.4853C14.4413 16.2836 12.8518 14.2904 10.6502 14.0423C8.44832 13.7942 6.45527 15.3837 6.20716 17.5854C5.95905 19.7872 7.54843 21.7804 9.75019 22.0285ZM41.6962 14.1885C41.7841 13.4072 42.4915 12.8433 43.2725 12.9314C44.0535 13.0194 44.6179 13.7265 44.5296 14.5079C44.4414 15.2891 43.7342 15.8531 42.9532 15.7651C42.1722 15.677 41.6082 14.9697 41.6962 14.1885ZM26.5101 24.4066C26.598 23.6254 27.3054 23.0614 28.0864 23.1494C28.8677 23.2374 29.4318 23.9447 29.3437 24.726C29.2553 25.507 28.5483 26.0711 27.7671 25.9831C26.9861 25.8951 26.422 25.188 26.5101 24.4066ZM8.78328 17.8756C8.87143 17.0944 9.57882 16.5304 10.3598 16.6184C11.1411 16.7066 11.705 17.4138 11.6171 18.195C11.529 18.9762 10.8216 19.5401 10.0406 19.4521C9.25928 19.364 8.69539 18.6568 8.78328 17.8756Z" fill="#34BDFE"/>
<path d="M9.55097 31.9974C11.7529 32.2455 13.7459 30.656 13.994 28.4542C14.0783 27.706 13.9499 26.9818 13.6578 26.3418L16.7476 23.605L13.9662 22.6055L11.8796 24.4535C11.4472 24.2239 10.9661 24.0692 10.451 24.0113C8.2491 23.7632 6.25605 25.3528 6.00794 27.5546C5.75983 29.7561 7.34921 31.7493 9.55097 31.9974Z" fill="#34BDFE"/>
<path d="M43.5494 31.1692C45.7511 31.4173 47.7442 29.8277 47.9923 27.6259C48.2403 25.4243 46.6508 23.4311 44.4493 23.183C43.4594 23.0715 42.5129 23.3319 41.7466 23.8516L38.2925 21.5251L36.0645 23.1504L40.1807 25.9228C40.097 26.1794 40.0376 26.4478 40.006 26.7261C39.7582 28.928 41.3478 30.9212 43.5494 31.1692Z" fill="#34BDFE"/>
<path d="M21.1736 19.6856L23.4241 17.6924C23.9766 18.1061 24.642 18.3836 25.376 18.4664C26.374 18.5788 27.3286 18.3128 28.0974 17.7845L31.4903 20.0693L33.7184 18.4439L29.6515 15.7049C29.7317 15.4552 29.7891 15.1938 29.8194 14.9232C30.0675 12.7214 28.4779 10.7282 26.2764 10.4801C24.0745 10.232 22.0814 11.8215 21.8333 14.0233C21.7744 14.5454 21.8199 15.0555 21.9516 15.5337L18.3926 18.6858L21.1736 19.6856Z" fill="#34BDFE"/>
<path d="M52.7037 38.6296H2.59259V2.07413C2.59259 1.35818 2.01211 0.777832 1.29629 0.777832C0.580481 0.777832 0 1.35818 0 2.07413V39.9259C0 40.6419 0.580481 41.2222 1.29629 41.2222H52.7037C53.4194 41.2222 54 40.6419 54 39.9259C54 39.21 53.4196 38.6296 52.7037 38.6296Z" fill="#34BDFE"/>
</svg>
