<svg width="98" height="98" viewBox="0 0 98 98" fill="none" xmlns="http://www.w3.org/2000/svg">
<circle cx="49" cy="49" r="49" fill="#FDE7C5"/>
<path d="M69.2084 49.5H51.2916C50.3021 49.5 49.5 50.3021 49.5 51.2916V69.2083C49.5 70.1978 50.3021 70.9999 51.2916 70.9999H69.2083C70.1978 70.9999 70.9999 70.1978 70.9999 69.2083V51.2916C71 50.3021 70.1979 49.5 69.2084 49.5ZM67.4166 67.4166H53.0834V53.0834H58.4584V57.7162L57.9336 57.1915C57.234 56.4918 56.0995 56.4918 55.3998 57.1915C54.7001 57.8911 54.7001 59.0256 55.3998 59.7253L58.9832 63.3086C58.9838 63.3093 58.9845 63.3098 58.9851 63.3104C59.0263 63.3514 59.0694 63.3903 59.1144 63.4273C59.1353 63.4444 59.1572 63.4592 59.1786 63.4753C59.204 63.4942 59.2288 63.514 59.2553 63.5316C59.2808 63.5487 59.3074 63.5635 59.3336 63.5791C59.3575 63.5934 59.3809 63.6084 59.4055 63.6216C59.4322 63.6359 59.4598 63.6481 59.4871 63.6609C59.5128 63.6731 59.5381 63.6859 59.5644 63.6969C59.5909 63.7078 59.6179 63.7167 59.6448 63.7263C59.6731 63.7364 59.701 63.7473 59.73 63.7561C59.7568 63.7642 59.7841 63.7702 59.8113 63.777C59.8407 63.7845 59.8699 63.7927 59.9 63.7987C59.9314 63.8049 59.9632 63.8086 59.9949 63.8131C60.021 63.8168 60.0468 63.8219 60.0732 63.8245C60.1908 63.836 60.3093 63.836 60.4269 63.8245C60.4533 63.8219 60.479 63.8169 60.5051 63.8131C60.5369 63.8086 60.5686 63.8049 60.6 63.7986C60.6301 63.7926 60.6592 63.7844 60.6886 63.7769C60.7159 63.7701 60.7432 63.7642 60.77 63.756C60.7989 63.7473 60.8269 63.7364 60.8551 63.7263C60.882 63.7166 60.909 63.7078 60.9355 63.6969C60.9618 63.686 60.9872 63.6731 61.0129 63.6609C61.0402 63.6481 61.0677 63.636 61.0944 63.6217C61.1191 63.6085 61.1425 63.5934 61.1665 63.5791C61.1927 63.5635 61.2192 63.5487 61.2447 63.5317C61.2712 63.514 61.2961 63.4942 61.3216 63.4752C61.3429 63.4592 61.3648 63.4443 61.3856 63.4273C61.4308 63.3901 61.4744 63.351 61.5158 63.3095C61.5161 63.3092 61.5165 63.309 61.5168 63.3086L65.1002 59.7253C65.7999 59.0256 65.7999 57.8911 65.1002 57.1915C64.4005 56.4918 63.266 56.4918 62.5664 57.1915L62.0416 57.7162V53.0834H67.4166V67.4166Z" fill="black"/>
<path d="M69.2084 28H29.7916C28.8021 28 28 28.8021 28 29.7916V40.5416V69.2083C28 70.1979 28.8021 71 29.7916 71H45.9166C46.9061 71 47.7083 70.1979 47.7083 69.2084C47.7083 68.2189 46.9061 67.4167 45.9166 67.4167H31.5834V42.3334H67.4167V45.9167C67.4167 46.9062 68.2189 47.7084 69.2084 47.7084C70.1979 47.7084 71 46.9061 71 45.9166V40.5416V29.7916C71 28.8021 70.1979 28 69.2084 28ZM31.5834 38.75V31.5834H67.4167V38.75H31.5834Z" fill="black"/>
<path d="M35.1666 33.375C34.1776 33.375 33.375 34.1776 33.375 35.1666C33.375 36.1556 34.1776 36.9583 35.1666 36.9583C36.1556 36.9583 36.9583 36.1556 36.9583 35.1666C36.9583 34.1776 36.1556 33.375 35.1666 33.375Z" fill="black"/>
<path d="M40.5416 33.375C39.5526 33.375 38.75 34.1776 38.75 35.1666C38.75 36.1556 39.5526 36.9583 40.5416 36.9583C41.5306 36.9583 42.3333 36.1556 42.3333 35.1666C42.3333 34.1776 41.5306 33.375 40.5416 33.375Z" fill="black"/>
<path d="M45.9166 33.375C44.9276 33.375 44.125 34.1776 44.125 35.1666C44.125 36.1556 44.9276 36.9583 45.9166 36.9583C46.9056 36.9583 47.7083 36.1556 47.7083 35.1666C47.7083 34.1776 46.9056 33.375 45.9166 33.375Z" fill="black"/>
<path d="M45.9159 45.9165H36.9577C35.9682 45.9165 35.166 46.7186 35.166 47.7081C35.166 48.6976 35.9682 49.4998 36.9577 49.4998H45.916C46.9055 49.4998 47.7077 48.6976 47.7077 47.7081C47.7077 46.7187 46.9054 45.9165 45.9159 45.9165Z" fill="black"/>
<path d="M36.9577 56.6668H42.3327C43.3222 56.6668 44.1243 55.8646 44.1243 54.8751C44.1243 53.8856 43.3222 53.0835 42.3327 53.0835H36.9577C35.9682 53.0835 35.166 53.8856 35.166 54.8751C35.166 55.8646 35.9682 56.6668 36.9577 56.6668Z" fill="black"/>
<path d="M36.9577 63.8333H45.916C46.9055 63.8333 47.7077 63.0311 47.7077 62.0416C47.7077 61.0521 46.9055 60.25 45.916 60.25H36.9577C35.9682 60.25 35.166 61.0521 35.166 62.0416C35.1659 63.0311 35.9682 63.8333 36.9577 63.8333Z" fill="black"/>
</svg>
