<svg width="98" height="98" viewBox="0 0 98 98" fill="none" xmlns="http://www.w3.org/2000/svg">
<circle cx="49" cy="49" r="49" fill="#FDC5C6"/>
<path d="M37 34.4122C37.2003 32.2974 37.9026 30.2696 39.0421 28.5155C40.1815 26.7614 41.7217 25.3375 43.5207 24.3747C45.3197 23.4118 47.3196 22.9411 49.3368 23.0059C51.3538 23.0706 53.3228 23.6687 55.0628 24.7451C56.8028 25.8215 58.2578 27.3416 59.2937 29.1655C60.3297 30.9894 60.9134 33.0585 60.9911 35.1823C61.0687 37.3061 60.6381 39.4163 59.7384 41.3187C58.8557 43.1854 57.5494 44.7932 55.9361 46" stroke="black" stroke-width="3" stroke-linecap="round" stroke-linejoin="round"/>
<path d="M39 29C40.8608 31.216 43.089 32.9777 45.5519 34.1803C48.015 35.3828 50.6625 36.0017 53.3371 36C55.9675 36.003 58.5718 35.4055 61 34.2427" stroke="black" stroke-width="3" stroke-linecap="round" stroke-linejoin="round"/>
<path d="M46.5 44C45.8079 44 45.1312 44.2053 44.5555 44.5899C43.9799 44.9744 43.5314 45.5212 43.2664 46.1607C43.0015 46.8001 42.9322 47.5038 43.0672 48.1828C43.2023 48.8618 43.5356 49.4855 44.0251 49.9748C44.5146 50.4643 45.1382 50.7978 45.8172 50.9329C46.4962 51.0677 47.2 50.9984 47.8395 50.7336C48.4791 50.4688 49.0256 50.0201 49.4101 49.4444C49.7949 48.869 50 48.1921 50 47.5001C50 46.5719 49.6313 45.6815 48.975 45.0251C48.3186 44.3687 47.4284 44 46.5 44Z" stroke="black" stroke-width="3" stroke-linecap="round" stroke-linejoin="round"/>
<path d="M32 38V40.6435C32 42.5945 32.786 44.4657 34.1852 45.8453C35.5843 47.2249 37.4819 48 39.4606 48H43" stroke="black" stroke-width="3" stroke-linecap="round" stroke-linejoin="round"/>
<path d="M72 76C72.0002 71.8689 70.7835 67.8172 68.4826 64.2865C66.1912 60.77 62.9121 57.9046 59 56" stroke="black" stroke-width="3" stroke-linecap="round" stroke-linejoin="round"/>
<path d="M26 76C25.9995 71.8683 27.217 67.816 29.5197 64.2841C31.8109 60.7701 35.0891 57.9058 39 56" stroke="black" stroke-width="3" stroke-linecap="round" stroke-linejoin="round"/>
</svg>
