<svg width="112" height="112" viewBox="0 0 112 112" fill="none" xmlns="http://www.w3.org/2000/svg">
<circle cx="56" cy="56" r="56" fill="#EDB749"/>
<g clip-path="url(#clip0_3928_3410)">
<path d="M55.2867 43.356V40.0855C54.5106 39.8773 53.8025 39.4659 53.2339 38.8929C52.6653 38.3199 52.2562 37.6055 52.048 36.8218C51.8397 36.038 51.8397 35.2127 52.0477 34.4289C52.2558 33.6451 52.6647 32.9306 53.2332 32.3575C53.6564 31.9285 54.1591 31.588 54.7127 31.3558C55.2663 31.1235 55.8598 31.0039 56.4592 31.0039C57.0586 31.0039 57.6522 31.1235 58.2058 31.3558C58.7593 31.588 59.2621 31.9285 59.6853 32.3575C60.2638 32.9405 60.6772 33.6695 60.8824 34.4688C61.0876 35.268 61.077 36.1082 60.8518 36.9019C60.6267 37.6956 60.1951 38.4138 59.6021 38.9817C59.009 39.5497 58.2762 39.9466 57.4798 40.1312V43.2315L57.41 43.1983C57.286 43.1643 57.1597 43.1393 57.0322 43.1236C56.8625 43.1138 56.6925 43.1138 56.5229 43.1236H56.4654C56.328 43.1231 56.1907 43.1328 56.0547 43.1527C55.9602 43.1527 55.8452 43.1942 55.7179 43.2274C55.5779 43.2594 55.4406 43.3024 55.3072 43.356H55.2744H55.2867ZM47.8942 50.6234L56.219 45.9127L56.3217 45.8712C56.4078 45.8429 56.498 45.8289 56.5886 45.8297C56.6662 45.8289 56.7436 45.8386 56.8186 45.8587C56.8842 45.8724 56.946 45.9008 56.9993 45.9417L65.2379 50.7603C65.4354 50.8369 65.5979 50.9848 65.6937 51.1754C65.7797 51.3417 65.8221 51.5274 65.817 51.7149V61.431C65.8069 61.5905 65.7568 61.7447 65.6713 61.8791C65.5857 62.0134 65.4677 62.1235 65.3282 62.1988L57.0527 67.0589C56.993 67.0916 56.9296 67.1167 56.8638 67.1336C56.699 67.1833 56.5234 67.1833 56.3586 67.1336C56.2775 67.1102 56.2001 67.0752 56.1286 67.0299L47.6642 62.0494C47.5285 61.9745 47.4135 61.8666 47.3296 61.7354C47.2457 61.6042 47.1955 61.4539 47.1837 61.2982V51.5282C47.1845 51.3205 47.2535 51.1191 47.3799 50.9553C47.5062 50.7916 47.6828 50.6748 47.8818 50.6234H47.8942ZM55.6974 64.6558V57.0523L49.0318 53.0472V60.7005L55.6892 64.6558H55.6974ZM63.9811 53.1634L57.5373 57.0565V64.6642L63.9811 60.825V53.1634ZM56.5886 47.797L50.3008 51.5904L56.6174 55.4337L62.7449 51.6983L56.5886 47.797ZM57.5414 72.9193C58.3511 73.122 59.0908 73.5439 59.6812 74.1395C60.1057 74.5671 60.4426 75.0752 60.6724 75.6346C60.9023 76.1941 61.0206 76.7939 61.0206 77.3996C61.0206 78.0054 60.9023 78.6052 60.6724 79.1646C60.4426 79.7241 60.1057 80.2322 59.6812 80.6598C59.258 81.0888 58.7552 81.4292 58.2016 81.6615C57.6481 81.8938 57.0545 82.0134 56.4551 82.0134C55.8557 82.0134 55.2622 81.8938 54.7086 81.6615C54.155 81.4292 53.6522 81.0888 53.2291 80.6598C52.8046 80.2322 52.4677 79.7241 52.2378 79.1646C52.008 78.6052 51.8897 78.0054 51.8897 77.3996C51.8897 76.7939 52.008 76.1941 52.2378 75.6346C52.4677 75.0752 52.8046 74.5671 53.2291 74.1395C53.8149 73.5443 54.5505 73.1224 55.3565 72.9193V69.682C55.4451 69.7186 55.5356 69.7505 55.6276 69.7774L55.7836 69.8189C55.8885 69.8498 55.9956 69.872 56.104 69.8853C56.2751 69.9136 56.4481 69.9288 56.6215 69.931C56.7948 69.929 56.9678 69.9137 57.1389 69.8853C57.278 69.866 57.4154 69.8354 57.5496 69.794V72.9193H57.5414ZM58.1328 75.7C57.6854 75.2534 57.0819 75.003 56.4531 75.003C55.8242 75.003 55.2207 75.2534 54.7733 75.7C54.3312 76.1529 54.0832 76.7634 54.0832 77.3996C54.0832 78.0358 54.3312 78.6464 54.7733 79.0992C55.2207 79.5458 55.8242 79.7962 56.4531 79.7962C57.0819 79.7962 57.6854 79.5458 58.1328 79.0992C58.577 78.6474 58.8263 78.0365 58.8263 77.3996C58.8263 76.7628 58.577 76.1518 58.1328 75.7ZM58.1328 33.9056C57.6854 33.459 57.0819 33.2086 56.4531 33.2086C55.8242 33.2086 55.2207 33.459 54.7733 33.9056C54.3312 34.3584 54.0832 34.969 54.0832 35.6052C54.0832 36.2414 54.3312 36.852 54.7733 37.3048C55.2213 37.7536 55.8264 38.0057 56.4572 38.0062C56.927 38.0055 57.3861 37.8642 57.7765 37.6001C58.1669 37.336 58.4712 36.961 58.6509 36.5223C58.8306 36.0836 58.8777 35.6009 58.7862 35.1352C58.6947 34.6695 58.4688 34.2417 58.1369 33.9056H58.1328ZM74.4293 62.3109C75.6402 62.3115 76.8014 62.7982 77.6573 63.6639C78.0819 64.0915 78.4188 64.5996 78.6486 65.1591C78.8785 65.7185 78.9968 66.3183 78.9968 66.924C78.9968 67.5298 78.8785 68.1296 78.6486 68.689C78.4188 69.2485 78.0819 69.7566 77.6573 70.1842C76.9379 70.911 75.9989 71.3744 74.9894 71.5007C73.9798 71.6269 72.9573 71.409 72.0843 70.8813C71.2112 70.3536 70.5374 69.5465 70.1699 68.5879C69.8023 67.6293 69.762 66.5741 70.0553 65.5897L67.3817 64.0291C67.6135 63.8092 67.8139 63.5578 67.9772 63.2821C68.0548 63.1479 68.1247 63.0093 68.1867 62.867C68.2514 62.7334 68.305 62.5946 68.3468 62.452C68.3856 62.3281 68.4171 62.202 68.4413 62.0743L71.1724 63.6681L71.1971 63.639C72.0543 62.7727 73.2169 62.286 74.4293 62.286V62.3109ZM76.109 65.2162C75.7759 64.8814 75.3522 64.6537 74.8913 64.5621C74.4304 64.4704 73.9529 64.5187 73.5191 64.701C73.0853 64.8832 72.7147 65.1912 72.454 65.5861C72.1932 65.981 72.0541 66.4451 72.0541 66.9199C72.0541 67.3946 72.1932 67.8587 72.454 68.2536C72.7147 68.6486 73.0853 68.9566 73.5191 69.1388C73.9529 69.3211 74.4304 69.3694 74.8913 69.2777C75.3522 69.186 75.7759 68.9584 76.109 68.6236C76.5532 68.1719 76.8024 67.5609 76.8024 66.924C76.8024 66.2872 76.5532 65.6762 76.109 65.2245V65.2162ZM38.5714 62.3109C39.7584 62.3105 40.8989 62.778 41.7501 63.6141L44.5593 61.9539L44.584 62.0536L44.6497 62.3067C44.6997 62.474 44.7643 62.6365 44.8427 62.7923C44.8875 62.9051 44.9425 63.0134 45.007 63.1161C45.1716 63.3885 45.3703 63.6382 45.5984 63.859L45.623 63.8839L42.9124 65.4652C43.2427 66.4532 43.2321 67.5251 42.8824 68.5063C42.5327 69.4875 41.8645 70.32 40.9866 70.8683C40.1088 71.4165 39.0731 71.6482 38.0483 71.5255C37.0235 71.4027 36.07 70.9329 35.3433 70.1925C34.704 69.5464 34.2687 68.7234 34.0923 67.8273C33.916 66.9312 34.0065 66.0024 34.3524 65.1584C34.6984 64.3143 35.2843 63.5928 36.036 63.0853C36.7877 62.5777 37.6714 62.3067 38.5755 62.3067L38.5714 62.3109ZM40.2511 65.2162C39.8041 64.7673 39.1995 64.5154 38.5693 64.5154C37.9391 64.5154 37.3345 64.7673 36.8875 65.2162C36.4443 65.6684 36.1957 66.2792 36.1957 66.9157C36.1957 67.5522 36.4443 68.163 36.8875 68.6153H36.8752C37.3233 69.0622 37.9275 69.3127 38.557 69.3127C39.1865 69.3127 39.7907 69.0622 40.2388 68.6153C40.6832 68.1629 40.9326 67.5512 40.9326 66.9137C40.9326 66.2761 40.6832 65.6645 40.2388 65.212L40.2511 65.2162ZM74.4293 41.4303C75.3342 41.4283 76.2193 41.698 76.9723 42.2053C77.7252 42.7126 78.3121 43.4344 78.6584 44.2793C79.0047 45.1242 79.0948 46.054 78.9173 46.9508C78.7398 47.8475 78.3027 48.6708 77.6614 49.316C77.2373 49.7448 76.7338 50.085 76.1795 50.3171C75.6253 50.5491 75.0312 50.6686 74.4313 50.6686C73.8314 50.6686 73.2373 50.5491 72.6831 50.3171C72.1288 50.085 71.6253 49.7448 71.2012 49.316L71.1396 49.2621L68.4249 50.8392C68.3494 50.4885 68.222 50.1513 68.047 49.839C67.8615 49.4959 67.623 49.1848 67.3406 48.9176L70.043 47.3404C69.8096 46.545 69.7936 45.7006 69.9968 44.8968C70.2 44.093 70.6148 43.3598 71.1971 42.775C71.6204 42.3456 72.1235 42.005 72.6775 41.7728C73.2315 41.5406 73.8254 41.4214 74.4251 41.422L74.4293 41.4303ZM76.109 44.3355C75.6621 43.8879 75.0584 43.6368 74.4293 43.6368C73.8001 43.6368 73.1964 43.8879 72.7495 44.3355C72.3029 44.7863 72.0518 45.3979 72.0514 46.0357C72.051 46.6736 72.3014 47.2855 72.7475 47.7368C73.1935 48.1881 73.7987 48.4419 74.4299 48.4422C75.061 48.4426 75.6665 48.1896 76.1131 47.7389C76.334 47.5157 76.5093 47.2507 76.6288 46.9591C76.7484 46.6675 76.8099 46.3549 76.8099 46.0393C76.8099 45.7236 76.7484 45.411 76.6288 45.1194C76.5093 44.8278 76.334 44.5628 76.1131 44.3397L76.109 44.3355ZM38.5714 41.4303C39.1721 41.4273 39.7673 41.5454 40.3223 41.7778C40.8773 42.0101 41.3809 42.3519 41.8035 42.7833C42.2294 43.2095 42.5671 43.717 42.797 44.2764C43.0268 44.8357 43.1442 45.4357 43.1424 46.0414C43.1421 46.4076 43.0993 46.7725 43.0151 47.1288L45.7175 48.7889C45.5947 48.8956 45.4807 49.0122 45.3766 49.1375C45.1544 49.3942 44.9704 49.6822 44.8304 49.9925L44.7195 50.2415C44.6702 50.3868 44.625 50.5279 44.5881 50.6566L42.0048 49.0711C41.942 49.1484 41.8748 49.2218 41.8035 49.2911C41.3897 49.7571 40.8863 50.1331 40.324 50.3962C39.7618 50.6594 39.1524 50.8041 38.5331 50.8217C37.9137 50.8393 37.2973 50.7293 36.7213 50.4985C36.1453 50.2677 35.6218 49.9208 35.1827 49.479C34.7436 49.0373 34.3981 48.5098 34.1671 47.9288C33.9361 47.3477 33.8245 46.7253 33.8392 46.0993C33.8538 45.4733 33.9943 44.8569 34.2522 44.2875C34.5101 43.7181 34.8799 43.2078 35.3392 42.7874C35.7625 42.3581 36.2656 42.0175 36.8196 41.7853C37.3736 41.5531 37.9675 41.4338 38.5673 41.4344L38.5714 41.4303ZM40.2511 44.3355C39.803 43.8887 39.1988 43.6381 38.5693 43.6381C37.9398 43.6381 37.3356 43.8887 36.8875 44.3355H36.8752C36.433 44.7884 36.1851 45.3989 36.1851 46.0351C36.1851 46.6713 36.433 47.2819 36.8752 47.7347C37.2078 48.0718 37.6319 48.3014 38.0938 48.3946C38.5557 48.4877 39.0346 48.4401 39.4697 48.2578C39.9048 48.0755 40.2765 47.7668 40.5378 47.3707C40.799 46.9746 40.9379 46.509 40.937 46.033C40.938 45.7182 40.8777 45.4061 40.7593 45.1149C40.6409 44.8236 40.4668 44.5587 40.247 44.3355H40.2511Z" fill="black"/>
</g>
<defs>
<clipPath id="clip0_3928_3410">
<rect width="45" height="51" fill="white" transform="translate(34 31)"/>
</clipPath>
</defs>
</svg>
