<svg width="112" height="112" viewBox="0 0 112 112" fill="none" xmlns="http://www.w3.org/2000/svg">
<circle cx="56" cy="56" r="56" fill="#EDB749"/>
<g clip-path="url(#clip0_3928_3415)">
<path fill-rule="evenodd" clip-rule="evenodd" d="M79.3597 48.9667C78.7127 49.2319 78.0614 49.3667 77.4145 49.3884C76.513 49.4188 75.6073 49.2276 74.7015 48.8581C74.0847 48.5407 73.5197 48.1104 73.0452 47.5931C72.6269 47.1367 72.2732 46.615 71.9972 46.0412C71.7211 46.615 71.3674 47.1367 70.9491 47.5931C69.8923 48.745 68.4345 49.4536 66.83 49.4536C65.2298 49.4536 63.7677 48.7364 62.7109 47.5931C62.2926 47.1367 61.9389 46.615 61.6628 46.0412C61.3868 46.615 61.0288 47.1367 60.6147 47.5931C59.558 48.745 58.1002 49.4536 56.4957 49.4536C54.8912 49.4536 53.4334 48.7364 52.3766 47.5931C51.9583 47.1367 51.6046 46.615 51.3285 46.0412C51.0525 46.615 50.6945 47.1367 50.2804 47.5931C49.2237 48.745 47.7659 49.4536 46.1614 49.4536C44.5569 49.4536 43.099 48.7364 42.0423 47.5931C41.6239 47.1367 41.2703 46.615 40.9942 46.0412C40.7225 46.615 40.3645 47.1367 39.9461 47.5931C39.2517 48.3495 38.3848 48.9189 37.41 49.2189C36.2066 49.484 35.137 49.4232 34.1838 49.1276C34.0026 49.0711 33.8258 49.0059 33.6532 48.9363V65.7329C33.6532 66.4197 34.2139 66.9848 34.8954 66.9848H78.1261C78.8076 66.9848 79.3683 66.4197 79.3683 65.7329V48.9667H79.3597ZM31.8072 47.6931C31.777 47.6627 31.7425 47.6279 31.7123 47.5931C30.6513 46.4412 30 44.8545 30 43.1071V40.6423V40.6076C30 40.4858 30.0259 40.3598 30.0819 40.2511L34.6668 35.3695C34.7876 35.1348 35.0162 35 35.2491 35H77.3886C77.656 35 77.8803 35.1652 77.9881 35.4086L82.9051 40.2294C82.9655 40.3337 82.9957 40.4511 83 40.5684C83.0043 40.5902 83.0043 40.6163 83.0043 40.6423V43.1071C83.0043 44.8502 82.3487 46.4412 81.292 47.5888C81.2618 47.6235 81.2273 47.654 81.1971 47.6887V70.971C81.1971 71.7491 80.5674 72.3881 79.791 72.3881H62.8748C62.9482 74.5442 63.8712 76.4786 66.2736 78.0043H46.735C48.6759 76.5872 50.0863 74.8832 50.1338 72.3881H33.2133C32.4412 72.3881 31.8072 71.7534 31.8072 70.971V47.6931ZM49.172 52.3747C48.8916 52.3747 48.6544 52.1357 48.6544 51.8401C48.6544 51.5575 48.8916 51.3184 49.172 51.3184H49.8879C49.9009 51.3184 49.9268 51.3184 49.9397 51.3184C50.4185 51.3315 50.8455 51.4271 51.2035 51.6532C51.6003 51.9096 51.8936 52.2965 52.0531 52.8703C52.0531 52.8833 52.0531 52.8964 52.0661 52.9094L52.1998 53.4441H63.703H63.828C64.1213 53.4441 64.3456 53.6832 64.3456 53.9657C64.3456 54.0179 64.3327 54.0744 64.3197 54.1266L62.9654 59.3168C62.9137 59.5559 62.698 59.7167 62.4608 59.7167H53.9552C54.1407 60.4123 54.3262 60.7861 54.5807 60.9643C54.8869 61.1643 55.4174 61.1773 56.3102 61.1643H56.3232H62.3314C62.6247 61.1643 62.849 61.4034 62.849 61.6859C62.849 61.9815 62.6117 62.2075 62.3314 62.2075H56.3232C55.219 62.2206 54.5418 62.1945 53.9984 61.8337C53.442 61.4599 53.1487 60.8165 52.8554 59.6515L51.0741 53.1702C51.0741 53.1572 51.0741 53.1572 51.0611 53.1442C50.9835 52.8486 50.8498 52.6486 50.6643 52.5399C50.4788 52.4182 50.2244 52.3661 49.9354 52.3661C49.9224 52.3661 49.9095 52.3661 49.8966 52.3661L49.172 52.3747ZM59.4329 56.7652C59.4329 56.6 59.5968 56.4652 59.7952 56.4652C59.9937 56.4652 60.1576 56.6 60.1576 56.7652V57.3911C60.1576 57.5563 59.9937 57.6911 59.7952 57.6911C59.5968 57.6911 59.4329 57.5563 59.4329 57.3911V56.7652ZM57.2677 56.7652C57.2677 56.6 57.4316 56.4652 57.63 56.4652C57.8285 56.4652 57.9924 56.6 57.9924 56.7652V57.3911C57.9924 57.5563 57.8285 57.6911 57.63 57.6911C57.4316 57.6911 57.2677 57.5563 57.2677 57.3911V56.7652ZM55.1025 56.7652C55.1025 56.6 55.2664 56.4652 55.4648 56.4652C55.6632 56.4652 55.8272 56.6 55.8272 56.7652V57.3911C55.8272 57.5563 55.6632 57.6911 55.4648 57.6911C55.2664 57.6911 55.1025 57.5563 55.1025 57.3911V56.7652ZM52.4931 54.4874L53.6749 58.6604H62.0597L63.1638 54.4874C59.6098 54.4874 56.0514 54.4874 52.4931 54.4874ZM60.7743 62.8292C61.4774 62.8292 62.051 63.403 62.051 64.1159C62.051 64.8288 61.4817 65.4025 60.7743 65.4025C60.0713 65.4025 59.4976 64.8288 59.4976 64.1159C59.4976 63.403 60.0713 62.8292 60.7743 62.8292ZM55.1802 62.8292C55.8832 62.8292 56.4569 63.403 56.4569 64.1159C56.4569 64.8288 55.8875 65.4025 55.1802 65.4025C54.4728 65.4025 53.9035 64.8288 53.9035 64.1159C53.9035 63.403 54.4728 62.8292 55.1802 62.8292ZM32.3464 39.9207H40.4723L42.0682 36.4475H35.633L32.3464 39.9207ZM61.5981 36.4475L62.2624 39.9207H71.1345L69.3187 36.4475H61.5981ZM60.9296 39.9207L60.2654 36.4475H52.7087L52.0575 39.9207H60.9296ZM50.729 39.9207L51.3803 36.4475H43.4312L41.831 39.9207H50.729ZM70.6903 36.4475L72.5061 39.9207H80.6062L77.009 36.4475H70.6903ZM72.6657 41.3639V43.1027C72.6657 44.4503 73.1703 45.6761 73.9898 46.5629C74.805 47.4497 75.9307 48.0017 77.1686 48.0017C78.4065 48.0017 79.5322 47.454 80.3474 46.5629C81.1626 45.6761 81.6716 44.4503 81.6716 43.1027V41.3639H72.6657ZM62.3271 41.3639V43.1027C62.3271 44.4503 62.8317 45.6761 63.6512 46.5629C64.4664 47.4497 65.5921 48.0017 66.83 48.0017C68.0679 48.0017 69.1936 47.454 70.0088 46.5629C70.824 45.6761 71.3329 44.4503 71.3329 43.1027V41.3639H62.3271ZM51.9971 41.3639V43.1027C51.9971 44.4503 52.5017 45.6761 53.3212 46.5629C54.1364 47.4497 55.2621 48.0017 56.5 48.0017C57.7379 48.0017 58.8636 47.454 59.6788 46.5629C60.494 45.6761 61.0029 44.4503 61.0029 43.1027V41.3639H51.9971ZM41.6628 41.3639V43.1027C41.6628 44.4503 42.1674 45.6761 42.9869 46.5629C43.8021 47.4497 44.9278 48.0017 46.1657 48.0017C47.4036 48.0017 48.5293 47.454 49.3445 46.5629C50.1597 45.6761 50.6686 44.4503 50.6686 43.1027V41.3639H41.6628ZM40.3343 41.3639H31.3285V43.1027C31.3285 44.4503 31.8331 45.6761 32.6526 46.5629C33.4678 47.4497 34.5935 48.0017 35.8314 48.0017C37.0693 48.0017 38.195 47.454 39.0102 46.5629C39.8254 45.6761 40.3343 44.4503 40.3343 43.1027V41.3639Z" fill="black"/>
</g>
<defs>
<clipPath id="clip0_3928_3415">
<rect width="53" height="43" fill="white" transform="translate(30 35)"/>
</clipPath>
</defs>
</svg>
