<svg width="98" height="98" viewBox="0 0 98 98" fill="none" xmlns="http://www.w3.org/2000/svg">
<circle cx="49" cy="49" r="49" fill="#DFCFFF"/>
<path d="M72.5795 34.9675C72.5795 32.6107 70.6621 30.6934 68.3054 30.6934C65.9486 30.6934 64.0312 32.6107 64.0312 34.9675C64.0312 37.3242 65.9486 39.2416 68.3054 39.2416C70.6621 39.2416 72.5795 37.3242 72.5795 34.9675ZM68.3054 37.532C66.8915 37.532 65.7409 36.3814 65.7409 34.9675C65.7409 33.5536 66.8915 32.403 68.3054 32.403C69.7193 32.403 70.8698 33.5536 70.8698 34.9675C70.8698 36.3814 69.7193 37.532 68.3054 37.532Z" fill="black"/>
<path d="M75.9982 43.5158C75.9982 41.1591 74.0808 39.2417 71.7241 39.2417H68.3048H64.8855C62.5287 39.2417 60.6113 41.1591 60.6113 43.5158V54.6285H62.4748L61.2781 60.6123H64.0306V69.1606H72.5789V60.6123H75.3314L74.1347 54.6285H75.9982V43.5158ZM67.4499 67.4509H65.7403V65.7413H67.4499V67.4509ZM67.4499 64.0316H65.7403V60.6123H67.4499V64.0316ZM70.8692 67.4509H69.1596V65.7413H70.8692V67.4509ZM70.8692 64.0316H69.1596V60.6123H70.8692V64.0316ZM74.2885 52.9189H73.7927L72.5789 46.8505V43.5158H70.8692V46.9351L73.2456 58.9027H71.7241H70.8692H65.7403H64.8855H63.3639L65.724 47.1027L65.7403 43.5158H64.0306V46.8505L62.8168 52.9189H62.321V43.5158C62.321 42.1019 63.4716 40.9513 64.8855 40.9513H71.7241C73.1379 40.9513 74.2885 42.1019 74.2885 43.5158V52.9189Z" fill="black"/>
<path d="M34.9682 34.9675C34.9682 32.6107 33.0508 30.6934 30.694 30.6934C28.3373 30.6934 26.4199 32.6107 26.4199 34.9675C26.4199 37.3242 28.3373 39.2416 30.694 39.2416C33.0508 39.2416 34.9682 37.3242 34.9682 34.9675ZM30.694 37.532C29.2802 37.532 28.1296 36.3814 28.1296 34.9675C28.1296 33.5536 29.2802 32.403 30.694 32.403C32.1079 32.403 33.2585 33.5536 33.2585 34.9675C33.2585 36.3814 32.1079 37.532 30.694 37.532Z" fill="black"/>
<path d="M38.3868 43.5158C38.3868 41.1591 36.4695 39.2417 34.1127 39.2417H30.6934H27.2741C24.9174 39.2417 23 41.1591 23 43.5158V54.6285H26.4193V69.1606H34.9675V54.6285H38.3868V43.5158ZM29.8386 67.4509H28.1289V65.7413H29.8386V67.4509ZM33.2579 67.4509H31.5482V65.7413H33.2579V67.4509ZM33.2579 52.9189V53.7737V64.0316H31.5482V55.4834H29.8386V64.0316H28.1289V53.7737V52.9189V51.2092H33.2579V52.9189ZM36.6772 52.9189H34.9675V43.5158H33.2579V49.4996H28.1289V43.5158H26.4193V52.9189H24.7096V43.5158C24.7096 42.1019 25.8602 40.9513 27.2741 40.9513H34.1127C35.5266 40.9513 36.6772 42.1019 36.6772 43.5158V52.9189Z" fill="black"/>
<path d="M58.9019 47.7898C58.9019 42.6053 54.6833 38.3867 49.4988 38.3867C44.3143 38.3867 40.0957 42.6053 40.0957 47.7898C40.0957 50.621 41.3361 53.2359 43.515 55.0319V55.4832H41.8054V57.1929H43.515V61.467H55.4826V57.1929H57.1922V55.4832H55.4826V55.0319C57.6615 53.2359 58.9019 50.621 58.9019 47.7898ZM53.7729 59.7573H45.2247V57.1929H53.7729V59.7573ZM48.644 47.7898C48.644 47.3179 49.0269 46.935 49.4988 46.935C49.9706 46.935 50.3536 47.3179 50.3536 47.7898C50.3536 48.2617 49.9706 48.6446 49.4988 48.6446C49.0269 48.6446 48.644 48.2617 48.644 47.7898ZM54.1131 53.9343L53.7729 54.1899V55.4832H50.3536V50.197C51.3461 49.8431 52.0633 48.9028 52.0633 47.7898C52.0633 46.3759 50.9127 45.2253 49.4988 45.2253C48.0849 45.2253 46.9343 46.3759 46.9343 47.7898C46.9343 48.9028 47.6515 49.8431 48.644 50.197V55.4832H45.2247V54.1899L44.8844 53.9334C42.9277 52.4623 41.8054 50.2226 41.8054 47.7898C41.8054 43.5473 45.2563 40.0964 49.4988 40.0964C53.7413 40.0964 57.1922 43.5473 57.1922 47.7898C57.1922 50.2226 56.0698 52.4623 54.1131 53.9343Z" fill="black"/>
<path d="M42.6614 32.1082V32.4031H44.0983C44.689 33.652 45.6866 34.6496 46.9355 35.2402V36.6772H52.0644V35.2402C53.3133 34.6496 54.3109 33.652 54.9016 32.4031H56.3386V32.109C58.3252 32.9467 60.175 34.1341 61.7385 35.5933L62.9053 34.3427C61.0222 32.5852 58.7611 31.1892 56.3386 30.2686V27.2741H54.9016C54.3109 26.0252 53.3133 25.0276 52.0644 24.437V23H46.9355V24.437C45.6866 25.0276 44.689 26.0252 44.0983 27.2741H42.6614V30.2686C40.2388 31.1892 37.9778 32.5852 36.0938 34.3418L37.2614 35.5924C38.8249 34.1332 40.6756 32.9459 42.6614 32.1082ZM44.371 28.9838H45.2737L45.4746 28.4145C45.9071 27.1929 46.8543 26.2458 48.0758 25.8132L48.6451 25.6123V24.7096H50.3548V25.6123L50.9241 25.8132C52.1457 26.2458 53.0928 27.1929 53.5253 28.4145L53.7262 28.9838H54.6289V30.6934H53.7262L53.5253 31.2627C53.0928 32.4843 52.1457 33.4314 50.9241 33.864L50.3548 34.0649V34.9675H48.6451V34.0649L48.0758 33.864C46.8543 33.4314 45.9071 32.4843 45.4746 31.2627L45.2737 30.6934H44.371V28.9838Z" fill="black"/>
<path d="M61.7396 63.4067C59.9214 65.1027 57.7647 66.4191 55.4643 67.2517C54.5274 64.8693 52.2109 63.1768 49.5002 63.1768C46.7896 63.1768 44.473 64.8693 43.5361 67.2517C41.2349 66.4191 39.079 65.1027 37.2608 63.4067L36.0957 64.6573C38.1259 66.5516 40.5451 68.0099 43.1249 68.9178C43.1018 69.1383 43.089 69.3623 43.089 69.5888C43.089 73.1244 45.9647 76 49.5002 76C53.0358 76 55.9114 73.1244 55.9114 69.5888C55.9114 69.3623 55.8986 69.1383 55.8755 68.9178C58.4554 68.0099 60.8754 66.5516 62.9047 64.6573L61.7396 63.4067ZM49.5002 74.2895C46.9084 74.2895 44.7987 72.1798 44.7987 69.5879C44.7987 66.9961 46.9084 64.8864 49.5002 64.8864C52.092 64.8864 54.2017 66.9961 54.2017 69.5879C54.2017 72.1798 52.092 74.2895 49.5002 74.2895Z" fill="black"/>
<path d="M49.5 32.4029C50.9139 32.4029 52.0645 31.2523 52.0645 29.8384C52.0645 28.4245 50.9139 27.2739 49.5 27.2739C48.0861 27.2739 46.9355 28.4245 46.9355 29.8384C46.9355 31.2523 48.0861 32.4029 49.5 32.4029ZM49.5 28.9836C49.9719 28.9836 50.3548 29.3665 50.3548 29.8384C50.3548 30.3103 49.9719 30.6932 49.5 30.6932C49.0282 30.6932 48.6452 30.3103 48.6452 29.8384C48.6452 29.3665 49.0282 28.9836 49.5 28.9836Z" fill="black"/>
<path d="M50.3542 66.5962H48.6445V70.3694L50.6046 72.3295L51.8134 71.1208L50.3542 69.6616V66.5962Z" fill="black"/>
<path d="M59.7565 23H58.0469V24.7096H59.7565V23Z" fill="black"/>
<path d="M63.1764 23H61.4668V24.7096H63.1764V23Z" fill="black"/>
<path d="M66.5964 23H64.8867V24.7096H66.5964V23Z" fill="black"/>
<path d="M34.9675 74.2896H33.2578V75.9992H34.9675V74.2896Z" fill="black"/>
<path d="M38.3874 74.2896H36.6777V75.9992H38.3874V74.2896Z" fill="black"/>
<path d="M41.8054 74.2896H40.0957V75.9992H41.8054V74.2896Z" fill="black"/>
</svg>
