<svg width="43" height="47" viewBox="0 0 43 47" fill="none" xmlns="http://www.w3.org/2000/svg">
<path d="M18.8208 44.5024C19.5197 44.5024 20.0905 45.0608 20.0905 45.7493C20.0905 46.4377 19.5236 46.9962 18.8208 46.9962H2.95106C2.13952 46.9962 1.40175 46.6711 0.865902 46.1432C0.330052 45.6192 0 44.8963 0 44.0931V2.9069C0 2.10368 0.330052 1.38078 0.865902 0.852946C1.40175 0.325114 2.13563 0 2.95106 0H39.1792C39.9907 0 40.7285 0.328939 41.2643 0.852946C41.8002 1.38078 42.1302 2.10368 42.1302 2.9069V23.5421C42.1302 24.2305 41.5633 24.789 40.8644 24.789C40.1654 24.789 39.5985 24.2305 39.5985 23.5421V2.9069C39.5985 2.79598 39.5519 2.69271 39.4743 2.62004C39.3966 2.54354 39.2918 2.49764 39.183 2.49764H2.95106C2.83845 2.49764 2.73361 2.54354 2.65595 2.61621C2.58217 2.69653 2.53558 2.79598 2.53558 2.9069V44.0931C2.53558 44.204 2.58217 44.3073 2.65983 44.38C2.73749 44.4565 2.84233 44.5024 2.95494 44.5024H18.8208ZM13.1788 22.1536C12.9381 21.7444 13.1128 20.574 13.6292 20.1609C15.1047 19.3118 17.1394 19.5757 18.5606 18.5965C18.6421 18.4741 18.7314 18.2982 18.8208 18.1031C18.9489 17.8124 19.0693 17.495 19.143 17.2769C18.8285 16.9097 18.5567 16.4967 18.3004 16.0912L17.4462 14.7525C17.1355 14.2935 16.9725 13.8728 16.9608 13.5286C16.9569 13.3679 16.9841 13.2188 17.0462 13.0887C17.1084 12.951 17.2054 12.8401 17.3413 12.7521C17.4035 12.71 17.4734 12.6756 17.5471 12.6488C17.4889 11.9221 17.4695 11.008 17.5083 10.2392C17.5277 10.0594 17.5627 9.87581 17.6131 9.69222C17.8306 8.92342 18.3781 8.30379 19.0576 7.87923C19.4304 7.64591 19.842 7.46615 20.2691 7.34757C20.5409 7.27108 20.0361 6.41813 20.3196 6.38753C21.6786 6.24984 23.8725 7.46997 24.8199 8.47974C25.2937 8.98462 25.5926 9.6578 25.6587 10.5452L25.6043 12.7292C25.8412 12.8018 25.9926 12.9472 26.0547 13.1882C26.1246 13.4559 26.0508 13.8269 25.8179 14.3394C25.814 14.3471 25.8101 14.3586 25.8023 14.3662L24.8277 15.9459C24.4705 16.5273 24.1055 17.1086 23.6318 17.5676C23.6745 17.6288 23.7211 17.69 23.7638 17.7512C23.9579 18.0304 24.1521 18.3097 24.4006 18.5583C24.4083 18.5659 24.4161 18.5774 24.42 18.585C25.5422 19.3653 28.2719 19.5566 29.3203 20.1303L29.363 20.1532C29.9027 20.5625 30.0697 21.7329 29.8212 22.1422H13.1788V22.1536ZM39.7189 30.2318C39.5131 30.0367 39.2762 29.9449 39.0044 29.9487C38.7287 29.9526 38.4958 30.0597 38.3055 30.2585L36.7329 31.8726L41.1478 36.0723L42.736 34.443C42.9262 34.2517 43.0039 34.0069 43 33.7392C42.9961 33.4753 42.899 33.2305 42.7049 33.0507L39.7189 30.2318ZM32.8266 44.4335C32.2442 44.6171 31.6617 44.8045 31.0832 44.9919C30.5007 45.1832 29.9183 45.3744 29.3397 45.5657C27.969 46.0094 27.2002 46.2542 27.0371 46.3C26.8818 46.3459 26.9711 45.7148 27.3206 44.3914L28.4117 40.2491L35.3311 33.2955L39.7422 37.4761L32.8266 44.4335ZM12.3245 36.474C11.6256 36.474 11.0548 35.9079 11.0548 35.2079C11.0548 34.508 11.6217 33.9419 12.3245 33.9419H20.9486C21.6476 33.9419 22.2183 34.508 22.2183 35.2079C22.2183 35.9079 21.6514 36.474 20.9486 36.474H12.3245ZM12.3245 28.5603C11.6256 28.5603 11.0587 28.0019 11.0587 27.3096C11.0587 26.6211 11.6256 26.0627 12.3245 26.0627H29.429C30.128 26.0627 30.6949 26.6211 30.6949 27.3096C30.6949 27.998 30.128 28.5603 29.429 28.5603H12.3245Z" fill="#C06B6B"/>
</svg>
