<svg width="190" height="87" viewBox="0 0 190 87" fill="none" xmlns="http://www.w3.org/2000/svg">
<rect x="0.5" y="0.5" width="188.085" height="86" fill="white" fill-opacity="0.19" stroke="white"/>
<path d="M99.6565 14.3037C99.6973 14.3729 99.7381 14.442 99.7801 14.5133C99.651 14.7577 99.651 14.7577 99.4485 15.0627C99.3752 15.1738 99.3018 15.2849 99.2262 15.3994C99.1465 15.5177 99.0668 15.636 98.9847 15.7578C98.8644 15.9379 98.8644 15.9379 98.7416 16.1217C98.2162 16.9022 97.674 17.6571 97.062 18.3909C96.9615 18.5151 96.8613 18.6394 96.7613 18.7638C96.1399 19.5365 95.5094 20.3038 94.8766 21.0698C94.8035 21.1585 94.7303 21.2471 94.6549 21.3385C94.2828 21.7892 93.9101 22.2396 93.5364 22.6893C92.5243 23.9111 91.5362 25.1461 90.557 26.3869C90.4173 26.564 90.2773 26.7409 90.1371 26.9178C87.9434 29.6879 86.0237 32.5537 84.9539 35.7877C84.9208 35.8864 84.8876 35.9852 84.8535 36.087C83.8989 39.0292 84.0817 42.0899 85.8252 44.7923C87.4373 47.1455 89.7372 48.856 92.8707 49.5753C95.9234 50.2115 99.3085 49.4151 101.949 48.0771C104.525 46.6766 106.291 44.7775 107.687 42.4948C107.779 42.3467 107.779 42.3467 107.872 42.1956C108.947 40.3232 109.307 38.1875 109.517 36.1336C109.525 36.0556 109.533 35.9776 109.541 35.8973C109.58 35.51 109.616 35.1227 109.649 34.735C109.662 34.592 109.675 34.4491 109.688 34.3061C109.698 34.18 109.709 34.0539 109.72 33.9239C109.806 33.4965 109.962 33.1835 110.382 32.9253C110.871 32.795 111.245 32.7932 111.711 32.9814C112.677 33.579 112.715 35.3077 112.897 36.24C113.805 41.2435 112.465 46.4539 108.982 50.5775C108.509 51.121 108.002 51.623 107.453 52.1131C107.246 52.299 107.055 52.4856 106.869 52.6866C106.478 53.0701 106.048 53.3873 105.587 53.7084C105.417 53.8268 105.417 53.8268 105.244 53.9475C102.452 55.8327 99.1284 57.2357 95.5793 57.6908C95.4382 57.71 95.2971 57.7292 95.1517 57.7489C94.3362 57.8319 93.5116 57.8212 92.6913 57.8218C92.603 57.8219 92.5147 57.8219 92.4238 57.822C91.0549 57.8203 89.7463 57.7595 88.4133 57.4812C88.3228 57.4632 88.2323 57.4452 88.139 57.4267C86.7624 57.1487 85.4833 56.7496 84.2126 56.2236C84.1341 56.1913 84.0556 56.159 83.9747 56.1258C82.1683 55.3723 80.6369 54.4053 79.194 53.219C79.0486 53.1002 78.9002 52.9842 78.7512 52.8688C75.4267 50.2265 73.7436 46.0721 73.5871 42.2852C73.4485 38.341 74.147 34.3478 76.4288 30.8621C76.5083 30.7366 76.5878 30.611 76.6672 30.4854C78.4648 27.6893 81.2081 25.1232 84.2371 23.2468C84.5868 23.0269 84.928 22.7979 85.2705 22.5699C86.074 22.0353 86.8843 21.5091 87.7029 20.9912C89.5265 19.8365 91.281 18.6229 92.9848 17.3429C93.0679 17.2821 93.151 17.2213 93.2367 17.1587C93.7746 16.7588 94.2843 16.3469 94.782 15.9113C94.9346 15.7786 94.9346 15.7786 95.0903 15.6433C95.2943 15.4652 95.4969 15.286 95.698 15.1056C96.8986 14.0592 98.0339 13.6759 99.6565 14.3037Z" fill="white" fill-opacity="0.58"/>
<path d="M111.716 32.9814C112.682 33.579 112.72 35.3077 112.903 36.24C113.811 41.2435 112.471 46.4539 108.987 50.5775C108.515 51.121 108.007 51.6229 107.459 52.1131C107.251 52.299 107.061 52.4856 106.874 52.6866C106.484 53.0701 106.054 53.3873 105.593 53.7084C105.48 53.7873 105.366 53.8662 105.25 53.9475C102.458 55.8327 99.1339 57.2357 95.5849 57.6908C95.3732 57.7195 95.3732 57.7195 95.1573 57.7489C94.3418 57.8319 93.5172 57.8212 92.6969 57.8218C92.6086 57.8218 92.5203 57.8219 92.4293 57.822C91.0604 57.8202 89.7519 57.7595 88.4189 57.4812C88.2831 57.4542 88.2831 57.4542 88.1445 57.4267C85.8166 56.9565 83.3981 56.1178 81.5 54.8612C81.5815 54.8266 81.6631 54.792 81.7471 54.7564C81.7385 54.6951 81.7298 54.6339 81.7209 54.5708C81.6016 53.6177 81.5989 52.6679 81.6004 51.7106C81.6005 51.6227 81.6005 51.5349 81.6006 51.4443C81.606 49.1111 81.8421 46.8549 82.3128 44.5555C82.3637 44.2828 82.4011 44.0111 82.4339 43.7364C82.4884 43.3332 82.4884 43.3332 82.612 43.2284C82.641 43.0246 82.6697 42.8208 82.6969 42.6168C82.7355 42.39 82.7355 42.39 82.8513 42.0494C83.005 41.5894 83.0887 41.1307 83.1723 40.6584C83.2297 40.3988 83.2297 40.3988 83.3533 40.294C83.4196 40.0323 83.4811 39.7712 83.5386 39.508C83.7072 38.7362 83.7072 38.7362 83.8475 38.6172C83.8679 38.4962 83.8883 38.3751 83.9093 38.2504C83.971 37.8836 83.971 37.8836 84.0946 37.7788C84.1612 37.5214 84.2226 37.2648 84.2799 37.0059C84.4502 36.2451 84.4502 36.2451 84.5888 35.8924C84.6703 35.8924 84.7519 35.8924 84.8359 35.8924C84.5888 37.0452 84.5888 37.0452 84.5266 37.2967C83.8679 40.0747 84.441 42.973 86.2413 45.3637C87.9863 47.5851 90.3208 49.121 93.4377 49.6844C96.576 50.1286 100.042 49.2408 102.605 47.7047C104.858 46.3037 106.413 44.5866 107.693 42.4948C107.754 42.3961 107.815 42.2973 107.877 42.1956C108.953 40.3232 109.312 38.1874 109.523 36.1336C109.531 36.0556 109.539 35.9776 109.547 35.8972C109.586 35.51 109.622 35.1226 109.654 34.7349C109.667 34.592 109.68 34.449 109.693 34.3061C109.704 34.18 109.714 34.0538 109.725 33.9239C109.812 33.4964 109.968 33.1835 110.388 32.9253C110.877 32.795 111.251 32.7932 111.716 32.9814Z" fill="white" fill-opacity="0.58"/>
<path d="M103.37 20.0669C103.337 20.1746 103.304 20.2822 103.27 20.3932C102.757 22.0931 102.395 23.7281 102.59 25.4903C102.598 25.5674 102.606 25.6445 102.614 25.724C102.839 27.4863 103.441 29.1857 104.049 30.8744C105.503 34.9249 106.45 38.8527 104.064 42.8019C102.882 44.5657 101.184 45.7853 98.8956 46.4003C96.4663 46.9371 93.9243 46.584 91.6895 45.6687C91.3585 45.5001 91.0652 45.322 90.7672 45.114C90.6618 45.0418 90.5564 44.9695 90.4477 44.895C88.6609 43.6001 87.6686 42.0535 87.4545 40.064C87.2161 35.8093 90.2667 31.8529 93.4984 28.8234C94.5721 27.8237 94.5721 27.8237 95.0143 27.7959C95.4622 27.8221 95.4622 27.8221 95.7016 27.9334C95.9613 28.3352 95.8595 28.7826 95.7291 29.2111C95.6843 29.3255 95.6396 29.4399 95.5935 29.5578C95.3316 30.2963 95.1778 31.0306 95.2151 31.8045C95.3374 31.9601 95.3374 31.9601 95.4622 32.1189C95.8406 32.0869 96.0259 32.0667 96.2807 31.8188C96.4674 31.5368 96.6489 31.2545 96.8213 30.9661C96.8764 30.8739 96.9315 30.7818 96.9883 30.6869C97.6121 29.5345 97.8279 28.2705 98.0678 27.0278C98.6263 24.1629 100.184 22.0596 102.78 20.1823C102.999 20.0669 102.999 20.0669 103.37 20.0669Z" fill="white" fill-opacity="0.58"/>
<path d="M28 60.52C29.427 60.52 30.854 60.52 32.3243 60.52C32.7129 61.3112 33.0948 62.1002 33.4541 62.9006C33.5003 63.0029 33.5464 63.1052 33.594 63.2106C33.7398 63.5342 33.8853 63.8578 34.0309 64.1815C34.1268 64.3944 34.2228 64.6074 34.3188 64.8203C34.4141 65.0319 34.5094 65.2435 34.6047 65.4551C34.6513 65.5585 34.6979 65.662 34.7459 65.7685C34.9827 66.2945 35.2186 66.8208 35.4529 67.3476C35.4984 67.4498 35.544 67.552 35.5909 67.6573C35.6775 67.8516 35.7638 68.0461 35.8499 68.2406C35.8882 68.3265 35.9265 68.4125 35.966 68.501C35.9996 68.5766 36.0331 68.6522 36.0677 68.7301C36.1395 68.9045 36.1395 68.9045 36.278 69.0088C36.301 68.9548 36.324 68.9008 36.3477 68.8451C36.8843 67.5858 37.4212 66.3267 37.9585 65.0676C38.2176 64.4604 38.4764 63.8531 38.7347 63.2456C38.8723 62.9224 39.0101 62.5992 39.148 62.276C39.2114 62.1274 39.2747 61.9786 39.3378 61.8299C39.4243 61.626 39.5113 61.4222 39.5984 61.2184C39.6465 61.1055 39.6946 60.9925 39.7442 60.876C39.861 60.6248 39.861 60.6248 39.9845 60.52C40.3229 60.5108 40.6582 60.508 40.9966 60.5098C41.0979 60.51 41.1992 60.5101 41.3035 60.5103C41.6283 60.5109 41.9531 60.5122 42.2779 60.5135C42.4976 60.514 42.7173 60.5145 42.937 60.5149C43.4766 60.5161 44.0163 60.5179 44.5559 60.52C44.5559 60.6584 44.5559 60.7967 44.5559 60.9392C44.4387 60.9825 44.3215 61.0257 44.2007 61.0702C43.7926 61.2641 43.7266 61.3193 43.5675 61.6728C43.5306 61.8857 43.5306 61.8857 43.5353 62.1103C43.5344 62.1967 43.5336 62.2831 43.5327 62.3721C43.533 62.466 43.5333 62.5599 43.5336 62.6566C43.5326 62.8059 43.5326 62.8059 43.5317 62.9583C43.5299 63.2874 43.5301 63.6165 43.5304 63.9457C43.5299 64.1743 43.5293 64.403 43.5287 64.6317C43.5278 65.1109 43.5279 65.5902 43.5285 66.0694C43.5292 66.684 43.5271 67.2986 43.5243 67.9132C43.5224 68.3854 43.5223 68.8576 43.5227 69.3298C43.5227 69.5564 43.522 69.783 43.5208 70.0097C43.5192 70.3263 43.5201 70.6429 43.5215 70.9595C43.5206 71.0534 43.5196 71.1472 43.5187 71.2439C43.5223 71.7457 43.5223 71.7457 43.735 72.2061C43.9874 72.4003 44.2338 72.4834 44.5559 72.572C44.5559 72.7104 44.5559 72.8487 44.5559 72.9912C42.6804 72.9912 40.8049 72.9912 38.8725 72.9912C38.8725 72.8529 38.8725 72.7145 38.8725 72.572C39.013 72.5241 39.1534 72.4761 39.298 72.4267C39.5868 72.2851 39.7134 72.2143 39.8195 71.9426C39.85 71.668 39.8539 71.4008 39.8489 71.1249C39.8504 71.0219 39.8519 70.9188 39.8535 70.8127C39.8575 70.4755 39.8554 70.1386 39.8532 69.8014C39.8548 69.5697 39.8567 69.3381 39.859 69.1065C39.8638 68.5219 39.8635 67.9374 39.8617 67.3529C39.8606 66.8402 39.8633 66.3276 39.8658 65.8149C39.8693 64.9232 39.8673 64.0317 39.861 63.14C39.8176 63.244 39.8176 63.244 39.7733 63.3501C39.404 64.2343 39.0343 65.1184 38.6641 66.0024C38.6346 66.0727 38.6052 66.143 38.5748 66.2154C37.6257 68.4812 36.6621 70.7418 35.6602 72.9912C35.2117 72.9912 34.7632 72.9912 34.3011 72.9912C33.9536 72.3405 33.6333 71.6857 33.333 71.0184C33.2884 70.9199 33.2439 70.8213 33.198 70.7198C33.1033 70.5103 33.0088 70.3008 32.9145 70.0912C32.7772 69.7864 32.6394 69.4818 32.5014 69.1773C31.5957 67.1721 30.7252 65.1559 29.8533 63.14C29.8475 64.236 29.8432 65.3319 29.8405 66.4279C29.8392 66.9368 29.8374 67.4457 29.8346 67.9546C29.8319 68.4459 29.8305 68.9372 29.8298 69.4284C29.8294 69.6157 29.8285 69.803 29.8271 69.9903C29.8254 70.2529 29.8251 70.5155 29.8252 70.7782C29.8243 70.8553 29.8234 70.9324 29.8225 71.0119C29.8247 71.4661 29.8902 71.8387 30.1004 72.2576C30.3056 72.3965 30.3056 72.3965 30.5483 72.4541C30.7547 72.5125 30.7547 72.5125 30.9652 72.572C30.9652 72.7104 30.9652 72.8487 30.9652 72.9912C29.9867 72.9912 29.0082 72.9912 28 72.9912C28 72.8529 28 72.7145 28 72.572C28.1172 72.5266 28.2344 72.4812 28.3552 72.4345C28.7661 72.2793 28.7661 72.2793 28.9884 71.9432C29.026 71.7394 29.026 71.7394 29.0215 71.5143C29.023 71.3837 29.023 71.3837 29.0246 71.2503C29.0245 71.1551 29.0244 71.0599 29.0243 70.9618C29.0251 70.8612 29.026 70.7606 29.0268 70.657C29.0292 70.3239 29.0297 69.9908 29.0299 69.6577C29.0307 69.4265 29.0315 69.1954 29.0324 68.9642C29.0339 68.4794 29.0343 67.9946 29.0342 67.5098C29.0342 66.888 29.0376 66.2662 29.0418 65.6444C29.0446 65.167 29.0451 64.6895 29.0449 64.212C29.0452 63.9827 29.0463 63.7535 29.0482 63.5242C29.0506 63.2038 29.0499 62.8835 29.0484 62.5631C29.0498 62.468 29.0512 62.373 29.0526 62.2751C29.0511 61.7517 29.0511 61.7517 28.7549 61.3044C28.5101 61.1583 28.2751 61.0393 28 60.9392C28 60.8009 28 60.6626 28 60.52Z" fill="white" fill-opacity="0.58"/>
<path d="M95.0085 27.7959C95.4564 27.8221 95.4564 27.8221 95.6958 27.9334C95.9555 28.3352 95.8536 28.7826 95.7233 29.2111C95.6785 29.3255 95.6338 29.44 95.5877 29.5578C95.3257 30.2963 95.1719 31.0306 95.2093 31.8045C95.2908 31.9082 95.3724 32.012 95.4564 32.1189C95.7528 32.1052 95.7528 32.1052 96.0741 32.0141C96.3001 31.7903 96.3001 31.7903 96.468 31.5097C96.5283 31.4183 96.5887 31.3268 96.6509 31.2326C96.7913 31.0052 96.929 30.7772 97.0626 30.5469C97.1441 30.5469 97.2256 30.5469 97.3097 30.5469C97.5729 31.6512 97.6067 32.7382 97.6093 33.8613C97.6108 34.1591 97.6169 34.4567 97.6231 34.7544C97.6406 36.4412 97.2946 37.9891 96.5683 39.5597C96.4868 39.5597 96.4053 39.5597 96.3212 39.5597C96.3057 39.6719 96.3057 39.6719 96.2899 39.7865C96.0253 40.6394 95.0349 41.3461 94.1909 41.8129C93.1632 42.287 92.1152 42.6136 90.9448 42.6091C90.7903 42.6088 90.6358 42.6084 90.4767 42.6081C90.3158 42.6072 90.155 42.6063 89.9892 42.6054C89.7451 42.6047 89.7451 42.6047 89.496 42.604C89.0941 42.6027 88.6922 42.601 88.2904 42.5989C88.2108 42.4497 88.1316 42.3004 88.0524 42.151C88.0083 42.0679 87.9641 41.9847 87.9186 41.8991C86.9142 39.9021 87.51 37.505 88.3957 35.5551C89.2337 33.7974 92.3783 27.9612 95.0085 27.7959Z" fill="white" fill-opacity="0.58"/>
<path d="M103.119 20.6963C103.105 20.7547 103.09 20.8132 103.076 20.8734C102.698 22.4317 102.415 23.8956 102.586 25.4909C102.598 25.6067 102.598 25.6067 102.611 25.7249C102.836 27.4871 103.437 29.1863 104.046 30.875C105.499 34.9255 106.446 38.8533 104.061 42.8025C102.879 44.5663 101.181 45.7859 98.8921 46.4009C98.0663 46.5834 97.2731 46.6043 96.424 46.608C96.3032 46.6102 96.1824 46.6123 96.0579 46.6146C95.1869 46.6185 94.4329 46.4957 93.6055 46.2674C93.8526 45.953 93.8526 45.953 94.1393 45.8875C94.2536 45.8746 94.368 45.8616 94.4858 45.8482C95.3765 45.7287 96.153 45.4898 96.9414 45.1146C96.9821 45.0455 97.0229 44.9763 97.0649 44.905C97.2297 44.8701 97.3944 44.8352 97.5591 44.8002C97.5999 44.7311 97.6407 44.6619 97.6827 44.5906C97.7668 44.5517 97.8509 44.5128 97.9375 44.4727C99.0879 43.8499 99.6493 42.9632 100.277 41.9706C100.362 41.8494 100.448 41.7282 100.533 41.6071C100.781 41.2406 100.95 40.8607 101.096 40.4576C101.122 40.3855 101.148 40.3135 101.175 40.2393C101.877 38.205 102.05 35.022 100.895 33.0627C99.3219 30.3939 100.056 26.155 101.019 23.4211C101.171 23.0668 101.335 22.7187 101.513 22.3731C101.594 22.3731 101.676 22.3731 101.76 22.3731C101.773 22.2996 101.785 22.2261 101.798 22.1504C101.895 21.8081 102.059 21.5297 102.254 21.2203C102.336 21.2203 102.417 21.2203 102.501 21.2203C102.524 21.1198 102.524 21.1198 102.548 21.0172C102.573 20.9459 102.598 20.8746 102.625 20.8011C102.872 20.6963 102.872 20.6963 103.119 20.6963Z" fill="white" fill-opacity="0.58"/>
<path d="M111.394 63.6641C111.523 63.8807 111.523 63.8807 111.61 64.1423C111.64 64.2289 111.67 64.3155 111.701 64.4047C111.722 64.4716 111.743 64.5384 111.764 64.6073C111.859 64.5465 111.859 64.5465 111.955 64.4845C113.226 63.7123 114.526 63.4074 116.089 63.5593C116.931 63.7286 117.477 63.9862 117.942 64.6073C118.378 65.3749 118.369 66.0918 118.371 66.9342C118.373 67.0777 118.375 67.2212 118.377 67.3646C118.382 67.7401 118.385 68.1155 118.388 68.4909C118.392 69.0931 118.4 69.6954 118.408 70.2976C118.41 70.5073 118.411 70.717 118.413 70.9267C118.414 71.054 118.415 71.1814 118.417 71.3126C118.417 71.4245 118.418 71.5365 118.419 71.6519C118.44 72.0164 118.44 72.0164 118.56 72.3625C118.743 72.4144 118.743 72.4144 118.93 72.4673C119.114 72.5192 119.114 72.5192 119.301 72.5721C119.342 72.7104 119.382 72.8488 119.424 72.9913C117.631 72.9913 115.837 72.9913 113.988 72.9913C113.988 72.853 113.988 72.7146 113.988 72.5721C114.108 72.5246 114.228 72.477 114.351 72.428C114.738 72.2936 114.738 72.2936 114.853 72.0481C114.866 71.8412 114.871 71.6338 114.873 71.4266C114.874 71.2961 114.875 71.1656 114.877 71.0312C114.877 70.888 114.878 70.7449 114.878 70.6018C114.879 70.4553 114.88 70.3088 114.88 70.1624C114.882 69.855 114.882 69.5476 114.883 69.2402C114.883 68.847 114.886 68.4537 114.89 68.0604C114.892 67.7577 114.893 67.455 114.893 67.1523C114.893 67.0073 114.894 66.8624 114.896 66.7175C114.898 66.5143 114.898 66.3111 114.897 66.108C114.898 65.9925 114.898 65.877 114.898 65.758C114.847 65.4017 114.739 65.2053 114.482 64.9217C113.839 64.7397 113.327 64.7591 112.722 65.0134C112.431 65.1467 112.164 65.2897 111.888 65.4457C111.831 65.7355 111.831 65.7355 111.84 66.0802C111.839 66.2135 111.838 66.3467 111.836 66.484C111.837 66.6301 111.838 66.7762 111.839 66.9223C111.838 67.0717 111.838 67.221 111.838 67.3703C111.837 67.6835 111.838 67.9967 111.839 68.3099C111.842 68.7114 111.84 69.1129 111.838 69.5144C111.837 69.8229 111.837 70.1313 111.838 70.4398C111.838 70.5879 111.838 70.7359 111.837 70.8839C111.836 71.0909 111.838 71.2979 111.84 71.5048C111.84 71.6816 111.84 71.6816 111.841 71.8619C111.86 72.1526 111.86 72.1526 112.053 72.3441C112.272 72.4879 112.272 72.4879 112.629 72.5721C112.629 72.7104 112.629 72.8488 112.629 72.9913C110.876 72.9913 109.123 72.9913 107.316 72.9913C107.316 72.853 107.316 72.7146 107.316 72.5721C107.436 72.5224 107.556 72.4727 107.679 72.4215C108.034 72.2889 108.034 72.2889 108.181 72.1529C108.193 71.9439 108.196 71.7346 108.195 71.5253C108.195 71.391 108.195 71.2568 108.195 71.1184C108.195 70.9708 108.194 70.8231 108.193 70.6755C108.193 70.5253 108.193 70.375 108.193 70.2248C108.192 69.8287 108.191 69.4326 108.19 69.0365C108.188 68.6326 108.188 68.2287 108.187 67.8248C108.186 67.0318 108.184 66.2388 108.181 65.4457C107.753 65.2382 107.753 65.2382 107.316 65.0265C107.316 64.8882 107.316 64.7499 107.316 64.6073C107.817 64.4547 108.318 64.3036 108.82 64.1538C108.991 64.1027 109.161 64.0511 109.331 63.9992C109.576 63.9245 109.822 63.8513 110.067 63.7783C110.215 63.7339 110.362 63.6894 110.514 63.6436C110.882 63.5632 111.053 63.5306 111.394 63.6641Z" fill="white" fill-opacity="0.58"/>
<path d="M71.6148 63.6643C71.858 63.8706 71.8202 64.2248 71.8619 64.5027C72.2089 64.5027 72.3751 64.3679 72.665 64.208C73.8687 63.5901 75.1161 63.3751 76.5139 63.616C77.1538 63.7804 77.6941 63.9895 78.0583 64.488C78.4325 65.089 78.5486 65.6147 78.5512 66.2952C78.5525 66.4851 78.5525 66.4851 78.5539 66.6788C78.5544 66.8147 78.5549 66.9505 78.5554 67.0904C78.5567 67.232 78.5581 67.3735 78.5597 67.5151C78.5661 68.1148 78.5721 68.7145 78.574 69.3142C78.5752 69.6818 78.5789 70.0493 78.584 70.4168C78.5863 70.6244 78.586 70.832 78.5856 71.0396C78.5876 71.1659 78.5897 71.2921 78.5918 71.4222C78.5925 71.5333 78.5932 71.6443 78.594 71.7587C78.6732 72.1211 78.8135 72.2428 79.1515 72.4675C79.3349 72.5194 79.3349 72.5194 79.5221 72.5723C79.5221 72.7107 79.5221 72.849 79.5221 72.9915C77.7282 72.9915 75.9342 72.9915 74.0859 72.9915C74.0859 72.8532 74.0859 72.7149 74.0859 72.5723C74.514 72.4686 74.514 72.4686 74.9507 72.3627C75.0765 72.0092 75.0907 71.6858 75.0922 71.3174C75.093 71.1911 75.0938 71.0649 75.0946 70.9348C75.0947 70.7988 75.0949 70.6627 75.095 70.5226C75.0954 70.3811 75.0958 70.2396 75.0963 70.0982C75.097 69.8019 75.0972 69.5057 75.0972 69.2094C75.0971 68.8305 75.0988 68.4515 75.101 68.0726C75.1023 67.7805 75.1026 67.4884 75.1025 67.1963C75.1027 66.9889 75.1041 66.7815 75.1054 66.574C75.1049 66.3841 75.1049 66.3841 75.1043 66.1904C75.1045 66.0793 75.1046 65.9681 75.1048 65.8536C75.0729 65.5369 74.993 65.3107 74.8272 65.0267C74.4076 64.75 73.9811 64.768 73.4681 64.8171C72.9263 65.0025 72.4014 65.198 71.9855 65.5507C71.9475 65.8226 71.9475 65.8226 71.9535 66.1434C71.9527 66.2676 71.9519 66.3918 71.9511 66.5198C71.9516 66.6546 71.9521 66.7894 71.9527 66.9283C71.9524 67.0663 71.9522 67.2043 71.9519 67.3466C71.9516 67.6391 71.9521 67.9317 71.9533 68.2243C71.9547 68.5985 71.9539 68.9727 71.9524 69.347C71.9513 69.7045 71.952 70.0619 71.9527 70.4194C71.9522 70.5536 71.9517 70.6878 71.9511 70.826C71.9519 70.9512 71.9527 71.0764 71.9535 71.2053C71.9537 71.3153 71.9539 71.4252 71.9541 71.5384C71.9872 71.8555 72.0595 72.0808 72.2326 72.3627C72.5444 72.5053 72.5444 72.5053 72.8503 72.5723C72.8503 72.7107 72.8503 72.849 72.8503 72.9915C71.0564 72.9915 69.2624 72.9915 67.4141 72.9915C67.4548 72.8532 67.4956 72.7149 67.5376 72.5723C67.7805 72.4607 68.0278 72.3556 68.2789 72.2579C68.4461 71.9743 68.42 71.7506 68.4224 71.4331C68.4236 71.304 68.4248 71.175 68.426 71.042C68.4266 70.9005 68.4271 70.759 68.4276 70.6176C68.4283 70.4729 68.429 70.3283 68.4297 70.1837C68.431 69.8804 68.4317 69.577 68.4322 69.2737C68.4328 68.8849 68.4358 68.4961 68.4393 68.1072C68.4416 67.8085 68.4423 67.5097 68.4425 67.211C68.4428 67.0676 68.4438 66.9243 68.4454 66.7809C68.4475 66.5805 68.4471 66.38 68.4465 66.1796C68.447 66.0655 68.4474 65.9514 68.4479 65.8338C68.43 65.5498 68.43 65.5498 68.2351 65.362C67.9777 65.2029 67.7135 65.116 67.4141 65.0267C67.4141 64.8884 67.4141 64.7501 67.4141 64.6075C67.9323 64.455 68.4511 64.3038 68.9705 64.154C69.1471 64.1029 69.3235 64.0513 69.4997 63.9994C69.7533 63.9247 70.0073 63.8515 70.2615 63.7786C70.4142 63.7341 70.5669 63.6897 70.7243 63.6439C71.0983 63.5643 71.2662 63.5384 71.6148 63.6643Z" fill="white" fill-opacity="0.58"/>
<path d="M87.9444 64.117C88.8085 64.6842 89.1111 65.5042 89.2769 66.389C89.3119 66.7906 89.3169 67.1909 89.3194 67.5934C89.3212 67.7053 89.323 67.8172 89.3249 67.9325C89.3325 68.4078 89.3375 68.8831 89.3426 69.3583C89.3468 69.7067 89.3523 70.055 89.358 70.4034C89.359 70.565 89.359 70.565 89.36 70.7299C89.3616 70.8296 89.3633 70.9294 89.365 71.0321C89.3663 71.1636 89.3663 71.1636 89.3677 71.2978C89.3846 71.5551 89.3846 71.5551 89.6476 71.8386C89.9028 71.8815 90.1446 71.8845 90.4043 71.8906C90.636 71.9434 90.636 71.9434 90.7904 72.1567C90.8363 72.2586 90.8363 72.2586 90.8831 72.3626C90.0848 73.0362 89.5284 73.264 88.4198 73.3386C87.7689 73.3201 87.0993 73.2085 86.5984 72.8379C86.1881 72.4359 86.1881 72.4359 86.1881 72.153C86.1268 72.1936 86.0655 72.2341 86.0023 72.2758C84.7085 73.1171 83.7696 73.4187 82.1109 73.3058C81.3259 73.1228 80.6363 72.7765 80.165 72.2054C79.7578 71.5146 79.7429 70.6478 80.0183 69.9195C80.937 68.8385 82.049 68.4306 83.5318 68.092C83.6285 68.0699 83.7252 68.0478 83.8248 68.0251C84.5267 67.8741 85.2195 67.7976 85.941 67.7514C85.9309 67.3693 85.917 66.9873 85.9024 66.6052C85.8982 66.4446 85.8982 66.4446 85.894 66.2808C85.8658 65.6019 85.7507 65.0277 85.4468 64.3979C85.249 64.3717 85.0507 64.3482 84.8522 64.3258C84.7419 64.3124 84.6315 64.2991 84.5178 64.2853C84.2068 64.2681 84.2068 64.2681 83.9941 64.4318C83.6372 64.8402 83.5757 65.3227 83.4854 65.8126C83.3843 66.3017 83.2521 66.6399 82.8522 67.0178C82.3696 67.2612 81.9228 67.2693 81.3696 67.2274C80.9104 67.0504 80.6485 66.8539 80.3812 66.4938C80.2607 65.8866 80.3267 65.3242 80.7519 64.8171C82.3578 63.2637 85.9049 63.0857 87.9444 64.117ZM83.5477 69.2276C83.0637 69.7101 83.0467 70.2171 83.0593 70.8258C83.1154 71.2167 83.2865 71.4436 83.5935 71.7338C83.985 71.9552 84.049 71.9728 84.4893 71.9369C84.5791 71.9313 84.6689 71.9258 84.7615 71.9201C85.255 71.7923 85.631 71.6802 85.941 71.3146C86.0501 70.8125 86.0223 70.323 85.9951 69.8147C85.9912 69.6771 85.9873 69.5395 85.9833 69.3977C85.9731 69.0583 85.9589 68.7194 85.941 68.3802C84.9537 68.3802 84.2782 68.6794 83.5477 69.2276Z" fill="white" fill-opacity="0.58"/>
<path d="M124.863 60.52C128.451 60.52 132.039 60.52 135.736 60.52C135.875 62.2885 135.875 62.2885 135.867 63.0287C135.867 63.1015 135.866 63.1744 135.865 63.2495C135.864 63.4226 135.862 63.5957 135.859 63.7688C135.572 63.745 135.572 63.745 135.242 63.664C135.053 63.4647 135.053 63.4647 134.897 63.2063C134.811 63.0671 134.811 63.0671 134.722 62.9251C134.664 62.8274 134.606 62.7297 134.547 62.6291C134.43 62.437 134.312 62.2451 134.194 62.0535C134.143 61.968 134.092 61.8825 134.04 61.7945C133.838 61.5032 133.672 61.3044 133.292 61.1836C132.931 61.1379 132.577 61.1255 132.213 61.1157C132.073 61.1117 131.934 61.1077 131.791 61.1036C131.615 61.099 131.439 61.0945 131.257 61.0899C130.696 61.0747 130.136 61.0596 129.558 61.044C129.558 62.7732 129.558 64.5024 129.558 66.284C130.496 66.2494 131.434 66.2148 132.4 66.1792C132.481 66.0409 132.563 65.9025 132.647 65.76C132.812 65.4805 132.977 65.2011 133.141 64.9216C133.345 64.9216 133.549 64.9216 133.759 64.9216C133.759 66.0629 133.759 67.2041 133.759 68.38C133.141 68.2752 133.141 68.2752 132.9 68.0165C132.83 67.9116 132.759 67.8068 132.686 67.6988C132.437 67.2882 132.437 67.2882 132.029 67.0176C131.842 67.0018 131.653 66.9915 131.465 66.9844C131.299 66.9779 131.299 66.9779 131.129 66.9711C131.013 66.967 130.898 66.9629 130.778 66.9587C130.603 66.9519 130.603 66.9519 130.425 66.9449C130.136 66.9338 129.847 66.9231 129.558 66.9128C129.573 67.6066 129.588 68.3004 129.604 68.9942C129.61 69.2302 129.615 69.4663 129.62 69.7023C129.627 70.0416 129.635 70.3808 129.643 70.72C129.645 70.8256 129.647 70.9311 129.649 71.0399C129.653 71.1878 129.653 71.1878 129.656 71.3386C129.659 71.4685 129.659 71.4685 129.662 71.601C129.682 71.8356 129.712 72.0359 129.805 72.2576C130.091 72.3774 130.091 72.3774 130.431 72.441C130.601 72.4791 130.601 72.4791 130.775 72.518C130.863 72.5358 130.95 72.5536 131.041 72.572C131.041 72.7103 131.041 72.8487 131.041 72.9912C129.002 72.9912 126.964 72.9912 124.863 72.9912C124.863 72.8529 124.863 72.7145 124.863 72.572C125.291 72.4682 125.291 72.4682 125.728 72.3624C125.826 72.0685 125.868 71.8068 125.869 71.5017C125.87 71.4144 125.87 71.3272 125.871 71.2373C125.871 71.095 125.871 71.095 125.872 70.9498C125.873 70.799 125.873 70.799 125.873 70.645C125.875 70.3125 125.876 69.98 125.877 69.6474C125.878 69.4164 125.878 69.1854 125.879 68.9544C125.88 68.4702 125.881 67.986 125.881 67.5018C125.882 66.8809 125.885 66.2599 125.889 65.639C125.891 65.162 125.891 64.6849 125.892 64.2079C125.892 63.9789 125.893 63.7499 125.895 63.521C125.897 63.2011 125.897 62.8813 125.896 62.5614C125.897 62.4191 125.897 62.4191 125.899 62.2739C125.897 61.7685 125.897 61.7685 125.684 61.3045C125.432 61.1111 125.185 61.0277 124.863 60.9392C124.863 60.8009 124.863 60.6625 124.863 60.52Z" fill="white" fill-opacity="0.58"/>
<path d="M104.817 64.3284C105.929 65.0248 106.648 65.9734 106.948 67.1224C107.209 68.6025 107.107 70.2064 106.117 71.4843C105.183 72.5449 104.03 73.094 102.5 73.3056C100.789 73.3882 99.2078 73.2838 97.805 72.3624C96.6087 71.4144 96.0059 70.2805 95.9161 68.8905C95.866 67.5122 96.1254 66.3874 97.0637 65.236C97.1376 65.1409 97.2115 65.0458 97.2877 64.9478C99.2198 63.2621 102.534 63.0655 104.817 64.3284ZM100.153 64.6072C98.9406 66.2594 99.3354 69.391 99.6964 71.2264C99.8524 71.7698 100.048 72.1857 100.546 72.572C101.205 72.7708 101.769 72.76 102.415 72.5327C103.28 71.8158 103.374 70.7678 103.388 69.7887C103.389 69.7051 103.389 69.6214 103.39 69.5353C103.391 69.4021 103.391 69.4021 103.392 69.2662C103.393 69.079 103.394 68.8917 103.395 68.7045C103.396 68.4223 103.4 68.1402 103.403 67.8581C103.465 66.0998 103.465 66.0998 102.678 64.5286C102.192 64.1485 101.85 64.1515 101.208 64.1594C100.737 64.2024 100.494 64.332 100.153 64.6072Z" fill="white" fill-opacity="0.58"/>
<path d="M159.392 64.2603C160.237 64.8635 160.771 65.6759 160.944 66.5986C161.035 68.0171 161.035 68.0171 160.821 68.3802C158.66 68.3802 156.499 68.3802 154.273 68.3802C154.568 70.0198 154.568 70.0198 155.539 71.3605C156.533 71.8395 157.48 71.961 158.589 71.7273C159.191 71.5652 159.611 71.2939 160.079 70.9401C160.327 70.7906 160.327 70.7906 160.821 70.7906C160.737 71.5638 160.226 71.9505 159.585 72.4674C158.395 73.3048 156.881 73.4076 155.393 73.328C153.931 73.2012 152.672 72.6156 151.748 71.6552C151.052 70.8074 150.8 69.9218 150.69 68.9042C150.681 68.8236 150.672 68.7429 150.663 68.6598C150.598 67.4284 151.026 66.1292 151.941 65.1708C153.817 63.4565 157.01 62.8863 159.392 64.2603ZM155.014 64.6075C154.302 65.5295 154.273 66.687 154.273 67.7514C155.455 67.7514 156.637 67.7514 157.856 67.7514C157.867 67.2619 157.867 67.2619 157.879 66.7624C157.882 66.6616 157.886 66.5607 157.889 66.4568C157.897 65.7824 157.822 65.0956 157.332 64.5381C157.002 64.2678 156.697 64.1525 156.249 64.1293C155.721 64.1635 155.407 64.2969 155.014 64.6075Z" fill="white" fill-opacity="0.58"/>
<path d="M53.5641 64.3066C54.3993 64.9134 54.9868 65.7782 55.0756 66.7181C55.083 66.9539 55.0822 67.1885 55.0777 67.4244C55.0775 67.5456 55.0775 67.5456 55.0774 67.6692C55.0719 68.2611 55.0719 68.2611 54.9309 68.3807C54.7262 68.3905 54.5209 68.393 54.3158 68.3926C54.1847 68.3926 54.0536 68.3926 53.9186 68.3926C53.776 68.392 53.6334 68.3915 53.4864 68.3909C53.3413 68.3908 53.1961 68.3906 53.0465 68.3905C52.5807 68.3899 52.1149 68.3886 51.6491 68.3872C51.3342 68.3867 51.0193 68.3862 50.7044 68.3858C49.9305 68.3846 49.1566 68.3829 48.3827 68.3807C48.4374 68.6478 48.4932 68.9146 48.5497 69.1814C48.5649 69.2563 48.5801 69.3313 48.5958 69.4085C48.7559 70.1566 49.0334 70.7951 49.6491 71.3609C50.6473 71.842 51.5954 71.963 52.707 71.7212C53.2604 71.5712 53.6496 71.3417 54.0955 71.0318C54.3643 70.8639 54.599 70.8087 54.9309 70.7911C54.9764 71.1347 54.9573 71.2818 54.7268 71.5734C53.5146 72.686 52.3969 73.2869 50.5849 73.3485C49.0019 73.3698 47.6114 73.0645 46.4059 72.1535C44.9794 70.9016 44.8647 69.5071 44.8895 67.853C44.9417 66.439 45.6305 65.5447 46.7997 64.5817C48.6173 63.2568 51.6058 63.1335 53.5641 64.3066ZM49.124 64.6079C48.4719 65.5395 48.3827 66.6934 48.3827 67.7519C49.5651 67.7519 50.7475 67.7519 51.9657 67.7519C51.9733 67.406 51.981 67.0602 51.9889 66.7039C51.9922 66.5966 51.9956 66.4894 51.9991 66.3788C52.0069 65.6472 51.9174 65.0358 51.3402 64.4572C50.9411 64.1842 50.6388 64.151 50.124 64.1613C49.6685 64.2096 49.4544 64.3404 49.124 64.6079Z" fill="white" fill-opacity="0.58"/>
<path d="M59.7565 59.7862C59.88 59.891 59.88 59.891 59.8945 60.091C59.8939 60.2233 59.8939 60.2233 59.8932 60.3583C59.8929 60.5098 59.8929 60.5098 59.8926 60.6642C59.8914 60.8317 59.8914 60.8317 59.8901 61.0026C59.8897 61.1195 59.8894 61.2364 59.889 61.3568C59.8881 61.6116 59.8869 61.8665 59.8855 62.1213C59.8834 62.5242 59.8821 62.9271 59.8811 63.3301C59.878 64.476 59.8737 65.622 59.8682 66.768C59.8648 67.468 59.8627 68.168 59.8614 68.868C59.8606 69.1353 59.8594 69.4026 59.8577 69.6699C59.8553 70.0435 59.8544 70.4171 59.8539 70.7907C59.8528 70.9018 59.8518 71.0128 59.8506 71.1272C59.8508 71.229 59.851 71.3308 59.8511 71.4357C59.8507 71.5241 59.8503 71.6125 59.8499 71.7035C59.8837 71.9726 59.9528 72.136 60.1271 72.3622C60.5019 72.5474 60.5019 72.5474 60.8684 72.6766C60.8684 72.7803 60.8684 72.8841 60.8684 72.991C59.0337 72.991 57.1989 72.991 55.3086 72.991C55.3086 72.8527 55.3086 72.7143 55.3086 72.5718C55.4258 72.5286 55.543 72.4853 55.6638 72.4408C56.0719 72.247 56.1381 72.1918 56.297 71.8382C56.3333 71.6253 56.3333 71.6253 56.3276 71.4007C56.3283 71.2711 56.3283 71.2711 56.3291 71.1389C56.3284 71.0451 56.3277 70.9512 56.327 70.8545C56.3273 70.7549 56.3275 70.6553 56.3277 70.5528C56.3282 70.2236 56.3269 69.8945 56.3255 69.5653C56.3253 69.3367 56.3253 69.108 56.3253 68.8794C56.3251 68.4001 56.3241 67.9209 56.3224 67.4416C56.3203 66.827 56.3199 66.2124 56.32 65.5978C56.3199 65.1256 56.3192 64.6535 56.3184 64.1813C56.318 63.9546 56.3177 63.728 56.3176 63.5014C56.3174 63.1848 56.3163 62.8682 56.315 62.5515C56.315 62.4577 56.3151 62.3638 56.3151 62.2671C56.3146 62.1807 56.3141 62.0943 56.3135 62.0053C56.3132 61.8931 56.3132 61.8931 56.3129 61.7786C56.2963 61.5578 56.2443 61.3612 56.1735 61.1486C55.8881 61.0795 55.6026 61.0103 55.3086 60.939C55.3086 60.8007 55.3086 60.6624 55.3086 60.5198C55.8027 60.4142 56.2972 60.3098 56.7919 60.2064C56.9599 60.1711 57.1277 60.1355 57.2955 60.0997C57.5379 60.0479 57.7806 59.9972 58.0234 59.9467C58.2417 59.9006 58.2417 59.9006 58.4645 59.8536C58.9067 59.7838 59.3077 59.7669 59.7565 59.7862Z" fill="white" fill-opacity="0.58"/>
<path d="M145.99 63.6635C146.204 63.8454 146.194 64.1042 146.245 64.3512C146.266 64.4573 146.288 64.5633 146.311 64.6726C146.335 64.7956 146.335 64.7956 146.36 64.9211C146.417 64.8666 146.475 64.8122 146.533 64.7561C147.22 64.133 147.92 63.6374 148.943 63.5161C149.571 63.4989 150.071 63.5079 150.561 63.8731C150.656 63.9401 150.75 64.0071 150.847 64.0761C151.177 64.5848 151.146 65.0874 151.055 65.6547C150.906 65.9929 150.701 66.2121 150.33 66.4014C149.81 66.5827 149.237 66.5794 148.708 66.4173C148.219 66.1967 147.925 65.9186 147.596 65.5499C147.474 65.5153 147.351 65.4807 147.225 65.4451C147.129 65.5402 147.032 65.6353 146.932 65.7333C146.877 65.7868 146.823 65.8403 146.767 65.8954C146.441 66.2608 146.33 66.5453 146.329 67.0038C146.328 67.1048 146.327 67.2059 146.326 67.3101C146.327 67.4186 146.327 67.5271 146.328 67.6389C146.327 67.7511 146.327 67.8632 146.327 67.9788C146.327 68.2158 146.327 68.4529 146.328 68.6899C146.33 69.0524 146.328 69.4148 146.327 69.7773C146.327 70.0077 146.327 70.2381 146.328 70.4685C146.327 70.5768 146.327 70.6851 146.326 70.7967C146.327 70.8981 146.328 70.9995 146.329 71.104C146.329 71.1928 146.329 71.2816 146.329 71.3731C146.38 71.7834 146.51 72.0699 146.855 72.3619C147.141 72.4372 147.429 72.5076 147.72 72.5715C147.72 72.7098 147.72 72.8481 147.72 72.9907C145.762 72.9907 143.805 72.9907 141.789 72.9907C141.83 72.8523 141.871 72.714 141.913 72.5715C142.156 72.4599 142.403 72.3547 142.654 72.2571C142.821 71.9734 142.795 71.7498 142.797 71.4322C142.799 71.3031 142.8 71.1741 142.801 71.0411C142.802 70.8997 142.802 70.7582 142.803 70.6167C142.803 70.4721 142.804 70.3275 142.805 70.1828C142.806 69.8795 142.807 69.5762 142.807 69.2729C142.808 68.884 142.811 68.4952 142.814 68.1064C142.817 67.8076 142.817 67.5089 142.817 67.2101C142.818 67.0668 142.819 66.9234 142.82 66.78C142.823 66.5796 142.822 66.3792 142.822 66.1787C142.822 66.0646 142.822 65.9505 142.823 65.833C142.805 65.5489 142.805 65.5489 142.61 65.3612C142.353 65.202 142.088 65.1151 141.789 65.0259C141.789 64.8875 141.789 64.7492 141.789 64.6067C142.307 64.4541 142.826 64.303 143.346 64.1532C143.522 64.102 143.698 64.0505 143.875 63.9985C144.128 63.9239 144.382 63.8507 144.637 63.7777C144.789 63.7333 144.942 63.6888 145.099 63.643C145.473 63.5634 145.641 63.5376 145.99 63.6635Z" fill="white" fill-opacity="0.58"/>
<path d="M140.307 63.6644C140.308 63.7701 140.309 63.8757 140.309 63.9846C140.316 64.9792 140.325 65.9739 140.336 66.9685C140.342 67.4799 140.347 67.9913 140.35 68.5027C140.353 68.996 140.358 69.4893 140.364 69.9826C140.367 70.171 140.368 70.3594 140.369 70.5479C140.37 70.8114 140.373 71.0748 140.377 71.3382C140.377 71.4165 140.377 71.4947 140.377 71.5754C140.385 71.9903 140.385 71.9903 140.596 72.3548C140.817 72.4867 140.817 72.4867 141.172 72.5724C141.172 72.7107 141.172 72.8491 141.172 72.9916C139.419 72.9916 137.666 72.9916 135.859 72.9916C135.859 72.8532 135.859 72.7149 135.859 72.5724C135.979 72.5227 136.099 72.473 136.222 72.4217C136.577 72.2892 136.577 72.2892 136.724 72.1532C136.736 71.9442 136.739 71.7348 136.738 71.5256C136.738 71.3913 136.738 71.257 136.738 71.1187C136.738 70.971 136.737 70.8234 136.736 70.6758C136.736 70.5255 136.736 70.3753 136.736 70.2251C136.735 69.829 136.734 69.4329 136.733 69.0368C136.731 68.6329 136.731 68.229 136.73 67.8251C136.729 67.032 136.727 66.239 136.724 65.446C136.439 65.3422 136.153 65.2385 135.859 65.1316C135.859 64.9587 135.859 64.7858 135.859 64.6076C136.393 64.4548 136.927 64.3037 137.462 64.1541C137.644 64.103 137.825 64.0515 138.006 63.9995C138.268 63.9247 138.529 63.8515 138.791 63.7786C138.872 63.7552 138.952 63.7317 139.036 63.7075C139.517 63.5757 139.821 63.5651 140.307 63.6644Z" fill="white" fill-opacity="0.58"/>
<path d="M65.9283 63.6637C65.9691 66.5342 66.0099 69.4047 66.0519 72.3621C66.4188 72.4659 66.4188 72.4659 66.7932 72.5717C66.7932 72.71 66.7932 72.8484 66.7932 72.9909C65.04 72.9909 63.2868 72.9909 61.4805 72.9909C61.4805 72.8526 61.4805 72.7142 61.4805 72.5717C61.9086 72.4679 61.9086 72.4679 62.3453 72.3621C62.4363 71.947 62.4849 71.5535 62.4868 71.1315C62.4876 71.0157 62.4884 70.9 62.4892 70.7807C62.4894 70.6572 62.4895 70.5337 62.4896 70.4065C62.49 70.2784 62.4905 70.1503 62.4909 70.0182C62.4915 69.7479 62.4918 69.4776 62.4918 69.2072C62.492 68.7935 62.4943 68.3798 62.4966 67.966C62.497 67.7032 62.4972 67.4403 62.4974 67.1774C62.4987 66.9918 62.4987 66.9918 62.5 66.8025C62.4997 66.6871 62.4993 66.5717 62.4989 66.4528C62.4991 66.3516 62.4992 66.2504 62.4994 66.1461C62.4659 65.8366 62.3931 65.6152 62.2218 65.3405C61.8474 65.1967 61.8474 65.1967 61.4805 65.1309C61.5212 64.958 61.562 64.7851 61.604 64.6069C62.1399 64.4544 62.6763 64.3032 63.2133 64.1534C63.3958 64.1023 63.5782 64.0507 63.7604 63.9988C64.0226 63.9241 64.2852 63.8509 64.548 63.7779C64.6293 63.7545 64.7105 63.731 64.7942 63.7068C65.2574 63.58 65.4389 63.5599 65.9283 63.6637Z" fill="white" fill-opacity="0.58"/>
<path d="M139.759 59.963C140.273 60.3763 140.452 60.6527 140.478 61.2533C140.46 61.6875 140.402 61.962 140.061 62.3013C139.504 62.7261 139.102 62.8584 138.346 62.8478C137.774 62.7988 137.354 62.6103 136.926 62.2948C136.602 61.7988 136.528 61.2817 136.647 60.7228C136.816 60.3094 137.1 60.0478 137.562 59.8553C138.309 59.6674 139.058 59.681 139.759 59.963Z" fill="white" fill-opacity="0.58"/>
<path d="M65.382 59.9633C65.8956 60.3766 66.075 60.653 66.1002 61.2536C66.0827 61.6877 66.0244 61.9623 65.6832 62.3016C65.1268 62.7264 64.7245 62.8587 63.9689 62.8481C63.397 62.7991 62.9764 62.6106 62.5481 62.2951C62.2598 61.853 62.199 61.4415 62.2237 60.9392C62.4087 60.4932 62.6632 60.1956 63.0886 59.8912C63.8383 59.6792 64.668 59.6764 65.382 59.9633Z" fill="white" fill-opacity="0.58"/>
<path d="M103.364 20.0669C103.271 20.3747 103.271 20.3747 103.117 20.6957C102.854 20.7874 102.854 20.7874 102.622 20.8005C102.582 20.9388 102.541 21.0772 102.499 21.2197C102.417 21.2197 102.336 21.2197 102.252 21.2197C102.233 21.3007 102.233 21.3007 102.213 21.3834C102.098 21.729 101.929 22.0441 101.758 22.3725C101.717 22.3725 101.676 22.3725 101.634 22.3725C101.593 22.165 101.552 21.9575 101.51 21.7437C101.074 21.9494 100.739 22.1672 100.398 22.4773C100.58 21.8983 101.066 21.5578 101.557 21.1542C101.64 21.0842 101.723 21.0142 101.809 20.9421C102.857 20.0669 102.857 20.0669 103.364 20.0669Z" fill="white" fill-opacity="0.58"/>
<path d="M97.0667 30.5474C97.1482 30.5474 97.2298 30.5474 97.3138 30.5474C97.5975 31.9761 97.5975 31.9761 97.5609 32.6434C97.5201 32.6434 97.4793 32.6434 97.4373 32.6434C97.315 32.2629 97.1927 31.8825 97.0667 31.4906C96.7405 31.8364 96.4143 32.1822 96.0783 32.5386C95.4605 32.4338 95.4605 32.4338 95.0898 32.2242C95.1306 32.0858 95.1714 31.9475 95.2134 31.805C95.3357 31.9606 95.3357 31.9606 95.4605 32.1194C95.7569 32.1057 95.7569 32.1057 96.0783 32.0146C96.3042 31.7907 96.3042 31.7907 96.4721 31.5102C96.5324 31.4188 96.5928 31.3273 96.655 31.2331C96.7954 31.0057 96.9331 30.7777 97.0667 30.5474Z" fill="white" fill-opacity="0.58"/>
<path d="M102.377 23.002C102.418 23.002 102.459 23.002 102.501 23.002C102.498 23.0835 102.495 23.1651 102.492 23.2492C102.475 24.1233 102.545 24.9708 102.66 25.8388C102.719 26.2935 102.762 26.7354 102.748 27.1939C102.707 27.1939 102.666 27.1939 102.624 27.1939C102.343 26.6025 102.292 26.0152 102.23 25.3861C102.219 25.2828 102.207 25.1795 102.195 25.073C102.127 24.41 102.111 23.7641 102.253 23.1068C102.294 23.0722 102.335 23.0376 102.377 23.002Z" fill="white" fill-opacity="0.58"/>
<path d="M95.7136 45.6318C95.8932 45.6351 95.8932 45.6351 96.0765 45.6384C96.0765 45.7076 96.0765 45.7767 96.0765 45.848C95.2203 46.0036 95.2203 46.0036 94.3468 46.1624C94.7953 46.197 95.2438 46.2316 95.7058 46.2672C95.7466 46.3709 95.7874 46.4747 95.8294 46.5816C95.0368 46.6264 94.3609 46.4618 93.6055 46.2672C93.8526 45.9528 93.8526 45.9528 94.1697 45.8799C94.2918 45.8651 94.414 45.8502 94.5398 45.8349C94.9727 45.7805 95.3014 45.639 95.7136 45.6318Z" fill="white" fill-opacity="0.58"/>
<path d="M94.0995 28.2422C94.0995 28.5566 94.0995 28.5566 93.9219 28.7138C93.8582 28.7657 93.7945 28.8175 93.7288 28.871C93.6881 28.9747 93.6473 29.0785 93.6053 29.1854C93.5238 29.1854 93.4422 29.1854 93.3582 29.1854C93.3582 29.2546 93.3582 29.3237 93.3582 29.395C93.0909 29.634 92.8192 29.8617 92.5242 30.0762C92.3415 30.2314 92.3415 30.2314 92.3466 30.4823C92.1842 30.9274 91.7236 31.0699 91.2578 31.2814C91.8685 30.1714 93.0824 29.1049 94.0995 28.2422Z" fill="white" fill-opacity="0.58"/>
<path d="M82.6075 43.229C82.6483 43.229 82.689 43.229 82.731 43.229C82.757 43.9062 82.7262 44.4646 82.4839 45.1154C82.3919 45.5333 82.3133 45.9528 82.2368 46.373C82.1961 46.373 82.1553 46.373 82.1133 46.373C82.2939 43.495 82.2939 43.495 82.6075 43.229Z" fill="white" fill-opacity="0.58"/>
<path d="M103.364 20.0669C103.282 20.2744 103.2 20.4819 103.116 20.6957C102.872 20.7303 102.627 20.7649 102.375 20.8005C102.334 20.9042 102.294 21.008 102.252 21.1149C102.129 21.1495 102.007 21.1841 101.881 21.2197C101.759 21.3753 101.759 21.3753 101.634 21.5341C101.552 21.5341 101.471 21.5341 101.387 21.5341C101.707 20.9226 102.532 20.0669 103.364 20.0669Z" fill="white" fill-opacity="0.58"/>
<path d="M100.895 45.3247C100.976 45.3939 101.058 45.463 101.142 45.5343C100.864 45.6549 100.586 45.7749 100.308 45.8946C100.19 45.9457 100.19 45.9457 100.07 45.9979C99.6922 46.16 99.3373 46.3089 98.918 46.3727C99.0423 46.0923 99.1085 45.9767 99.4324 45.8438C99.5328 45.8195 99.6331 45.7952 99.7365 45.7701C99.888 45.732 99.888 45.732 100.042 45.6931C100.12 45.6753 100.197 45.6575 100.277 45.6391C100.277 45.5699 100.277 45.5008 100.277 45.4295C100.57 45.364 100.57 45.364 100.895 45.3247Z" fill="white" fill-opacity="0.58"/>
<path d="M89.0337 43.3325C89.2576 43.398 89.2576 43.398 89.5279 43.5421C89.5814 43.6415 89.6349 43.741 89.6901 43.8434C89.9686 44.2809 90.2442 44.374 90.7634 44.5901C90.7227 44.6939 90.6819 44.7976 90.6399 44.9045C90.2271 44.7522 89.9523 44.5591 89.636 44.2888C89.5516 44.2178 89.4672 44.1467 89.3802 44.0735C89.1694 43.8683 89.0375 43.6856 88.9102 43.4373C88.9509 43.4027 88.9917 43.3682 89.0337 43.3325Z" fill="white" fill-opacity="0.58"/>
<path d="M84.5865 35.8921C84.6681 35.8921 84.7496 35.8921 84.8336 35.8921C84.6689 36.6606 84.5041 37.4292 84.3394 38.1977C84.2171 38.2323 84.0948 38.2669 83.9688 38.3025C83.9936 38.1975 83.9936 38.1975 84.0189 38.0904C84.0735 37.8585 84.1274 37.6265 84.1811 37.3945C84.2133 37.2561 84.2455 37.1178 84.2776 36.9794C84.3018 36.8744 84.3018 36.8744 84.3264 36.7673C84.3963 36.4677 84.4725 36.1823 84.5865 35.8921Z" fill="white" fill-opacity="0.58"/>
<path d="M98.1729 26.356C98.2544 26.4251 98.336 26.4943 98.42 26.5656C98.3737 26.9455 98.3737 26.9455 98.2964 27.2992C98.378 27.2992 98.4595 27.2992 98.5435 27.2992C98.4727 27.7049 98.2363 27.9365 97.9258 28.2424C98.0448 26.9146 98.0448 26.9146 98.1729 26.356Z" fill="white" fill-opacity="0.58"/>
<path d="M111.396 32.8534C111.478 32.9226 111.56 32.9917 111.644 33.063C111.277 33.063 110.91 33.063 110.532 33.063C110.491 33.1667 110.45 33.2705 110.408 33.3774C110.326 33.3774 110.245 33.3774 110.161 33.3774C110.079 33.6886 109.998 33.9999 109.914 34.3206C109.873 34.3206 109.832 34.3206 109.79 34.3206C109.754 33.7994 109.77 33.4776 110.161 33.063C110.557 32.8199 110.917 32.818 111.396 32.8534Z" fill="white" fill-opacity="0.58"/>
<path d="M104.353 41.6562C104.438 41.8282 104.438 41.8282 104.477 42.0754C104.327 42.3686 104.327 42.3686 104.114 42.678C104.044 42.7813 103.974 42.8845 103.902 42.9908C103.847 43.0692 103.792 43.1475 103.736 43.2282C103.695 43.2282 103.654 43.2282 103.612 43.2282C103.555 42.5353 103.868 42.1854 104.353 41.6562Z" fill="white" fill-opacity="0.58"/>
<path d="M95.4565 29.2891C95.6593 29.6332 95.4894 29.9866 95.4024 30.3502C95.3842 30.4292 95.3659 30.5082 95.3471 30.5896C95.302 30.785 95.2557 30.9803 95.2094 31.1755C95.1278 31.1755 95.0463 31.1755 94.9623 31.1755C94.9332 30.5723 94.9627 30.0682 95.2094 29.4987C95.2909 29.4295 95.3724 29.3603 95.4565 29.2891Z" fill="white" fill-opacity="0.58"/>
<path d="M89.1578 34.1099C89.1986 34.1099 89.2394 34.1099 89.2814 34.1099C89.345 34.6767 89.1619 34.9094 88.7872 35.3675C88.6818 35.6105 88.6115 35.8485 88.5401 36.1011C88.4585 36.1011 88.377 36.1011 88.293 36.1011C88.3753 35.6389 88.573 35.2348 88.7949 34.8107C88.8297 34.7431 88.8645 34.6755 88.9004 34.6058C88.9856 34.4403 89.0717 34.2751 89.1578 34.1099Z" fill="white" fill-opacity="0.58"/>
<path d="M95.7136 45.6318C95.8932 45.6351 95.8932 45.6351 96.0765 45.6384C96.0765 45.7076 96.0765 45.7767 96.0765 45.848C95.2655 46.0723 94.4587 46.1624 93.6055 46.1624C93.9169 45.8982 94.1094 45.8981 94.5398 45.8414C94.9721 45.7837 95.301 45.639 95.7136 45.6318Z" fill="white" fill-opacity="0.58"/>
<path d="M74.4566 35.0532C74.4974 35.0532 74.5381 35.0532 74.5801 35.0532C74.5801 35.5374 74.5801 36.0216 74.5801 36.5204C74.4171 36.5204 74.254 36.5204 74.0859 36.5204C74.2083 36.0362 74.3306 35.5521 74.4566 35.0532Z" fill="white" fill-opacity="0.58"/>
<path d="M90.2658 32.4341C90.3893 32.6437 90.3893 32.6437 90.2966 32.9646C90.2457 33.0662 90.1947 33.1678 90.1422 33.2725C90.0199 33.3071 89.8976 33.3416 89.7716 33.3773C89.6196 33.7453 89.6196 33.7453 89.5244 34.1109C89.4429 34.1109 89.3614 34.1109 89.2773 34.1109C89.4713 33.4856 89.8643 32.976 90.2658 32.4341Z" fill="white" fill-opacity="0.58"/>
<path d="M91.1319 31.2812C91.261 31.6096 91.2474 31.6994 91.1319 32.0148C91.0504 32.0148 90.9688 32.0148 90.8848 32.0148C90.8441 32.1532 90.8033 32.2915 90.7613 32.434C90.639 32.434 90.5166 32.434 90.3906 32.434C90.5698 32.0034 90.8244 31.6551 91.1319 31.2812Z" fill="white" fill-opacity="0.58"/>
<path d="M98.4226 44.1714C98.4226 44.2751 98.4226 44.3789 98.4226 44.4858C98.341 44.555 98.2595 44.6241 98.1755 44.6954C98.0532 44.6954 97.9308 44.6954 97.8048 44.6954C97.764 44.8337 97.7233 44.9721 97.6813 45.1146C97.3959 45.1838 97.1105 45.2529 96.8164 45.3242C96.9091 45.1211 96.9091 45.1211 97.0635 44.905C97.3183 44.8395 97.3183 44.8395 97.5577 44.8002C97.5985 44.731 97.6393 44.6618 97.6813 44.5906C97.8849 44.4826 98.0908 44.3777 98.299 44.2762C98.3398 44.2416 98.3806 44.207 98.4226 44.1714Z" fill="white" fill-opacity="0.58"/>
<path d="M92.1227 30.3384C92.2042 30.4421 92.2858 30.5459 92.3698 30.6528C92.0554 30.9639 91.6915 31.1099 91.2578 31.2816C91.4499 30.8816 91.7565 30.6327 92.1227 30.3384Z" fill="white" fill-opacity="0.58"/>
<path d="M102.994 20.0669C103.117 20.0669 103.239 20.0669 103.365 20.0669C103.264 20.3747 103.264 20.3747 103.118 20.6957C102.995 20.7303 102.873 20.7649 102.747 20.8005C102.666 20.7313 102.584 20.6622 102.5 20.5909C102.582 20.5909 102.663 20.5909 102.747 20.5909C102.774 20.4904 102.774 20.4904 102.801 20.3878C102.871 20.1717 102.871 20.1717 102.994 20.0669Z" fill="white" fill-opacity="0.58"/>
<path d="M87.7979 37.1499C87.8387 37.1499 87.8794 37.1499 87.9214 37.1499C88.1204 37.992 88.1204 37.992 87.8056 38.414C87.7215 38.4811 87.6374 38.5481 87.5508 38.6171C87.5683 38.4511 87.5865 38.2852 87.6048 38.1193C87.6149 38.0269 87.6249 37.9345 87.6352 37.8393C87.6697 37.6012 87.7223 37.3806 87.7979 37.1499Z" fill="white" fill-opacity="0.58"/>
<path d="M98.1769 46.2672C98.2177 46.3364 98.2585 46.4056 98.3005 46.4768C97.8465 46.6001 97.4147 46.5894 96.9414 46.5816C97.2756 46.1815 97.6359 46.2413 98.1769 46.2672Z" fill="white" fill-opacity="0.58"/>
<path d="M95.5793 40.6074C95.5793 40.9877 95.4276 41.1332 95.1401 41.4147C94.8927 41.603 94.6707 41.6396 94.3438 41.6554C94.7556 41.3061 95.1674 40.9568 95.5793 40.6074Z" fill="white" fill-opacity="0.58"/>
<path d="M94.2199 41.6562C94.2199 41.9706 94.2199 41.9706 93.9728 42.285C93.9728 42.2159 93.9728 42.1467 93.9728 42.0754C93.9014 42.1122 93.8301 42.1489 93.7566 42.1868C93.4786 42.285 93.4786 42.285 92.9844 42.1802C93.3921 42.0073 93.7998 41.8344 94.2199 41.6562Z" fill="white" fill-opacity="0.58"/>
<path d="M86.9356 30.8613C87.0172 30.8613 87.0987 30.8613 87.1827 30.8613C87.0399 31.2713 86.8917 31.5818 86.565 31.9093C86.5242 31.7364 86.4834 31.5635 86.4414 31.3853C86.5637 31.3162 86.686 31.247 86.8121 31.1757C86.8528 31.072 86.8936 30.9682 86.9356 30.8613Z" fill="white" fill-opacity="0.58"/>
<path d="M96.3248 39.5605C96.3656 39.5605 96.4063 39.5605 96.4483 39.5605C96.4076 39.8026 96.3668 40.0447 96.3248 40.2941C96.2025 40.3287 96.0802 40.3633 95.9541 40.3989C95.9541 40.4681 95.9541 40.5373 95.9541 40.6085C95.8726 40.574 95.791 40.5394 95.707 40.5037C95.786 40.4065 95.865 40.3092 95.9464 40.209C96.2119 39.8915 96.2119 39.8915 96.3248 39.5605Z" fill="white" fill-opacity="0.58"/>
<path d="M90.5172 19.1245C90.5172 19.4389 90.5172 19.4389 90.2701 19.7533C89.9458 19.8254 89.9458 19.8254 89.6523 19.8581C89.9406 19.6136 90.2289 19.369 90.5172 19.1245Z" fill="white" fill-opacity="0.58"/>
</svg>
