<svg width="38" height="190" viewBox="0 0 38 190" fill="none" xmlns="http://www.w3.org/2000/svg">
<path d="M20.2592 156H20.254C20.109 155.975 19.995 155.404 20.0002 154.709C20.2178 112.617 20.3628 67.6695 20.482 9.03916L20.4509 1.26648C20.4457 0.571156 20.5648 0 20.7047 0C20.8498 0 20.9689 0.546323 20.9689 1.21681L21 9.03916C20.8808 67.744 20.7306 112.667 20.5182 154.783C20.5182 155.454 20.3991 156 20.2592 156Z" fill="white" fill-opacity="0.16"/>
<path d="M18.1328 155.142C18.1722 153.532 18.2196 151.93 18.259 150.32C18.2748 149.799 18.2906 149.254 18.5587 148.804C19.0162 148.015 20.0494 147.81 20.9486 147.857C21.406 147.881 21.8871 147.96 22.2657 148.228C22.597 148.457 22.8257 148.812 22.9835 149.191C23.2753 149.901 23.3068 150.683 23.3384 151.44C23.3778 152.585 23.4173 153.729 23.4409 154.881C23.4409 155.055 23.433 155.252 23.2989 155.355C23.2043 155.426 23.086 155.418 22.9677 155.418C21.3745 155.363 19.7891 155.307 18.1328 155.142Z" fill="white" fill-opacity="0.1"/>
<path d="M23.0191 155.812C22.9876 155.812 22.9639 155.812 22.9402 155.812C21.3786 155.765 19.7696 155.71 18.0896 155.544C17.8845 155.52 17.7268 155.347 17.7347 155.142L17.8609 150.32C17.8766 149.807 17.8924 149.16 18.2079 148.615C18.6732 147.818 19.6749 147.4 20.9605 147.471C21.3786 147.494 21.9859 147.565 22.4828 147.913C22.8456 148.165 23.1295 148.544 23.3346 149.049C23.658 149.838 23.6895 150.73 23.7211 151.44C23.7605 152.577 23.7999 153.737 23.8236 154.881C23.8236 155.055 23.8315 155.449 23.516 155.686C23.3504 155.797 23.1532 155.812 23.0191 155.812ZM18.5392 154.779C20.0614 154.913 21.5363 154.96 22.9639 155.007C22.9797 155.007 23.0034 155.007 23.027 155.007C23.027 154.984 23.0349 154.936 23.027 154.873C23.0034 153.729 22.9718 152.577 22.9323 151.44C22.9087 150.762 22.8772 149.988 22.609 149.325C22.467 148.97 22.2698 148.702 22.0332 148.544C21.7808 148.362 21.4338 148.276 20.9211 148.244C20.4558 148.22 19.3358 148.244 18.8941 148.994C18.6732 149.365 18.6654 149.87 18.6496 150.32L18.5392 154.779Z" fill="white" fill-opacity="0.16"/>
<path d="M13.3703 181.303C13.0706 182.464 13.3388 183.703 13.741 184.839C14.2221 186.204 14.932 187.562 16.1072 188.39C18.008 189.724 20.7922 189.235 22.3854 187.57C23.9787 185.904 24.4361 183.324 23.8919 181.043C20.4688 181.004 17.0458 180.956 13.3703 181.303Z" fill="white" fill-opacity="0.16"/>
<path d="M18.6533 189.558C17.6595 189.558 16.6893 189.282 15.8769 188.714C14.8043 187.964 13.9761 186.733 13.3609 184.973C12.8325 183.458 12.7142 182.266 12.9823 181.209C13.0218 181.043 13.1637 180.925 13.3294 180.909C17.0285 180.562 20.5146 180.609 23.8904 180.648C24.0718 180.648 24.2295 180.775 24.269 180.956C24.8842 183.529 24.269 186.173 22.6679 187.846C21.5952 188.966 20.1045 189.558 18.6533 189.558ZM13.6922 181.674C13.5502 182.511 13.6843 183.489 14.1102 184.713C14.6702 186.315 15.3958 187.412 16.3265 188.067C17.9907 189.227 20.5777 188.888 22.0921 187.293C23.4487 185.873 24.0008 183.655 23.567 181.438C20.3963 181.398 17.1231 181.367 13.6922 181.674Z" fill="white" fill-opacity="0.16"/>
<path d="M36.6717 183.766C24.7304 183.647 12.7812 183.521 1.24219 182.929C1.96781 177.05 3.93964 171.438 8.99536 168.479C10.7621 167.445 9.72888 168.163 13.3412 165.693C16.3857 163.61 13.1992 157.541 15.7389 154.842C17.2454 153.24 19.5879 153.145 21.7569 153.35C24.3755 153.603 27.0808 155.142 27.3174 157.343C27.696 160.84 26.0476 163.239 28.0825 166.088C28.7844 167.074 31.3478 169.41 32.2864 170.16C35.9855 173.096 37.0424 179.378 36.6717 183.766Z" fill="white" fill-opacity="0.1"/>
<path d="M36.6716 184.168C24.9196 184.05 12.7811 183.924 1.21843 183.332C1.10801 183.324 1.00549 183.276 0.934502 183.19C0.863517 183.103 0.831955 182.992 0.84773 182.882C1.74688 175.566 4.34178 170.744 8.79019 168.14C9.20821 167.895 9.47638 167.745 9.68145 167.627C10.3203 167.272 10.3755 167.24 13.1203 165.362C14.5242 164.407 14.4296 162.386 14.327 160.248C14.2245 158.148 14.122 155.978 15.4549 154.566C17.1507 152.758 19.7377 152.758 21.7962 152.956C24.4621 153.208 27.4435 154.818 27.7117 157.304C27.8536 158.63 27.7196 159.822 27.5934 160.871C27.3883 162.647 27.2069 164.178 28.4057 165.859C29.0525 166.766 31.5449 169.063 32.5387 169.852C36.2378 172.78 37.484 178.967 37.0817 183.797C37.0502 184.01 36.8767 184.168 36.6716 184.168ZM1.69167 182.558C12.9862 183.126 24.8328 183.253 36.3088 183.363C36.5927 178.936 35.4017 173.135 32.0418 170.476C31.1663 169.781 28.5083 167.374 27.759 166.324C26.3787 164.399 26.5838 162.639 26.8046 160.776C26.9308 159.719 27.057 158.63 26.9229 157.391C26.71 155.402 24.1072 153.974 21.7174 153.753C19.8323 153.571 17.4819 153.563 16.0307 155.118C14.9343 156.286 15.029 158.291 15.1236 160.224C15.2341 162.481 15.3445 164.825 13.5699 166.032C10.8014 167.927 10.7462 167.958 10.0758 168.329C9.87074 168.44 9.61836 168.589 9.20034 168.834C5.05954 171.249 2.5987 175.747 1.69167 182.558Z" fill="white" fill-opacity="0.16"/>
<path d="M35.5666 182.085L3.17374 180.901C3.10276 180.901 3.03966 180.838 3.04754 180.767C3.04754 180.696 3.11854 180.641 3.18164 180.641L35.5666 181.824C35.6376 181.824 35.7007 181.887 35.6928 181.958C35.6928 182.029 35.6376 182.085 35.5666 182.085Z" fill="white" fill-opacity="0.16"/>
<path d="M35.3804 180.491H35.3726C24.8668 179.757 14.1953 179.267 3.67374 179.038C3.60276 179.038 3.53966 178.975 3.54754 178.904C3.54754 178.833 3.61065 178.786 3.68164 178.778C14.2111 179.007 24.8825 179.496 35.3962 180.23C35.4672 180.238 35.5224 180.301 35.5224 180.372C35.5066 180.443 35.4514 180.491 35.3804 180.491Z" fill="white" fill-opacity="0.16"/>
<g opacity="0.1294">
<path d="M23.5485 183.797C23.0674 183.56 22.4995 183.718 21.9868 183.632C20.6381 183.632 19.2973 183.56 17.9486 183.537C16.4027 183.521 16.2291 183.497 14.8883 183.284C14.4151 183.221 13.9103 182.992 13.4686 183.276C12.6799 183.71 12.8455 185.013 13.721 185.226C16.0083 185.628 18.3429 185.597 20.6539 185.478C21.4032 185.478 22.1525 185.533 22.9018 185.447C23.1936 185.502 23.5091 185.431 23.722 185.202C24.1321 184.807 24.0296 184.081 23.5485 183.797Z" fill="white" fill-opacity="0.16"/>
</g>
</svg>
