<svg width="112" height="112" viewBox="0 0 112 112" fill="none" xmlns="http://www.w3.org/2000/svg">
<circle cx="56" cy="56" r="56" fill="#EDB749"/>
<g clip-path="url(#clip0_3928_3409)">
<path fill-rule="evenodd" clip-rule="evenodd" d="M84.0023 61.1212V76H54.3517V61.1212H84.0023ZM54.2863 38.2158C53.981 38.2601 53.6756 38.3155 53.3757 38.3764C52.3501 38.5859 51.3487 38.9034 50.3878 39.3237C49.4364 39.7396 48.5239 40.242 47.6615 40.8248C46.8206 41.3992 46.0371 42.056 45.3224 42.7858C44.8153 43.3066 44.3434 43.8619 43.9102 44.4476H48.7738C50.3702 42.1626 52.2198 40.0716 54.2863 38.2158ZM37.0238 57.0497L33.5287 58.1022C33.9486 62.8384 36.0042 66.0568 40.1426 67.702C33.1362 69.3638 28.4034 65.6081 26.5659 60.246L23 61.3428L27.9072 52.1363L37.0238 57.0497ZM83.2335 56.4958L75.6764 49.6712L79.2477 49.4718C79.9238 44.8631 78.7025 41.3234 75.142 38.7697C82.1812 38.8417 85.8289 43.5225 86.3577 49.0508L90 48.8403L83.2335 56.4958ZM50.8949 63.9851H50.3878C50.5514 64.2066 50.7204 64.4227 50.8949 64.6442V67.0483C50.0169 66.0873 49.2079 65.0636 48.474 63.9851H43.8721C44.3142 64.5716 44.7951 65.1268 45.3115 65.6469C46.0262 66.3767 46.8097 67.0334 47.6506 67.6078C48.513 68.1906 49.4255 68.6931 50.3769 69.109H50.4205L50.884 69.2973V71.5131C50.4641 71.3691 50.0443 71.2084 49.6299 71.0312H49.5754C48.5097 70.5733 47.4876 70.017 46.522 69.3694C44.6143 68.0663 42.9736 66.3996 41.6911 64.4614C41.0536 63.4804 40.506 62.4421 40.0553 61.3594C39.59 60.2484 39.2374 59.092 39.003 57.9083C38.5377 55.4939 38.5377 53.0107 39.003 50.5963C39.2326 49.432 39.5779 48.2942 40.0335 47.2007V47.1453C40.4842 46.0626 41.0318 45.0242 41.6693 44.0432C42.3094 43.0767 43.0398 42.1752 43.8503 41.3511C44.6587 40.5246 45.5464 39.7823 46.5002 39.1353C47.4636 38.4762 48.4859 37.9105 49.5536 37.4458C50.6586 36.963 51.8097 36.5973 52.9886 36.3545C55.3651 35.8818 57.8093 35.8818 60.1859 36.3545C61.332 36.5878 62.4518 36.9386 63.5282 37.4015H63.5828C64.6456 37.8742 65.6624 38.4473 66.6198 39.1132C68.5289 40.4102 70.1685 42.0759 71.4452 44.0155C72.0826 44.9966 72.6302 46.035 73.081 47.1176C73.5463 48.2286 73.8989 49.3849 74.1333 50.5686C74.5927 52.8877 74.6223 55.2735 74.2205 57.6037H72.1486V57.4652C72.3083 56.6542 72.4068 55.8319 72.443 55.0057H67.8466C67.8178 55.8799 67.7101 56.7495 67.5249 57.6037H65.9273C66.1347 56.7523 66.2571 55.882 66.2926 55.0057H57.3506V57.6037H55.8021V55.0168H46.8655C47.0217 57.6801 47.8764 60.2525 49.3409 62.4673H50.8949V63.9851ZM42.8743 62.4673H47.5361C46.2069 60.2063 45.4465 57.6473 45.3224 55.0168H40.6933C40.7317 55.845 40.8319 56.669 40.9932 57.4818C41.1993 58.5232 41.5099 59.5403 41.9201 60.5174C42.2033 61.1863 42.5256 61.8374 42.8852 62.4673H42.8743ZM40.6933 53.4325H45.3551C45.5886 50.8044 46.4152 48.2663 47.7706 46.0152H42.8634C42.5093 46.6341 42.1925 47.2741 41.9146 47.9319V47.9817C41.5112 48.9398 41.2026 49.9363 40.9932 50.9564C40.8353 51.7675 40.7387 52.5898 40.7042 53.4159L40.6933 53.4325ZM46.9036 53.4325H55.8021V46.0152H49.5863C48.103 48.2247 47.1814 50.773 46.9036 53.4325ZM57.3615 53.4325H66.2599C65.9822 50.773 65.0606 48.2247 63.5773 46.0152H57.3506V53.4325H57.3615ZM67.8193 53.4325H72.4703C72.4349 52.6007 72.3364 51.7729 72.1759 50.9564C71.9724 49.9132 71.6636 48.8941 71.2544 47.9153C70.9744 47.2585 70.6576 46.6186 70.3057 45.9986H65.3984C66.7605 48.253 67.5892 50.7977 67.8193 53.4325ZM50.6768 44.431H55.8021V38.9636C53.9182 40.6076 52.2012 42.4392 50.6768 44.431ZM57.3615 44.431H62.4814C60.9556 42.4386 59.2367 40.607 57.3506 38.9636V44.431H57.3615ZM64.4006 44.431H69.2642C68.8308 43.8438 68.357 43.2885 67.8466 42.7692C67.1392 42.0433 66.363 41.3901 65.5293 40.8193C64.6662 40.2393 63.7538 39.7387 62.8031 39.3237H62.754C61.8069 38.9134 60.82 38.6052 59.8097 38.4041C59.5098 38.3432 59.2099 38.2878 58.9045 38.2435C60.9627 40.0864 62.8068 42.1624 64.4006 44.431ZM66.6634 67.0982C66.9572 66.4988 67.4193 66.0015 67.9914 65.669C68.5635 65.3365 69.2198 65.1839 69.8772 65.2305C70.5347 65.277 71.1638 65.5207 71.6849 65.9305C72.2061 66.3404 72.5958 66.8981 72.8049 67.533C73.014 68.168 73.0331 68.8517 72.8596 69.4977C72.6861 70.1436 72.328 70.7228 71.8305 71.1619C71.3329 71.601 70.7184 71.8804 70.0646 71.9646C69.4107 72.0488 68.747 71.9341 68.1574 71.635C67.7657 71.4371 67.4164 71.1627 67.1292 70.8275C66.8421 70.4923 66.6229 70.1028 66.4841 69.6814C66.3453 69.26 66.2897 68.8149 66.3205 68.3717C66.3513 67.9284 66.4678 67.4956 66.6634 67.0982ZM59.0954 63.3203L79.215 63.4588C79.2292 64.0368 79.4653 64.5863 79.8728 64.9899C80.2803 65.3935 80.8269 65.6194 81.396 65.6192L81.4832 71.502C80.9134 71.515 80.3711 71.7542 79.9727 72.1684C79.5742 72.5825 79.3512 73.1387 79.3513 73.7178L59.2262 73.5793C59.2134 73.0003 58.978 72.4495 58.5703 72.0446C58.1627 71.6398 57.6153 71.4132 57.0452 71.4134L56.958 65.5361C57.5289 65.5245 58.0725 65.2859 58.4721 64.8716C58.8717 64.4574 59.0955 63.9004 59.0954 63.3203Z" fill="black"/>
</g>
<defs>
<clipPath id="clip0_3928_3409">
<rect width="67" height="40" fill="white" transform="translate(23 36)"/>
</clipPath>
</defs>
</svg>
