<svg width="29" height="29" viewBox="0 0 29 29" fill="none" xmlns="http://www.w3.org/2000/svg">
<rect width="29" height="29" rx="4" fill="#EFDFFF"/>
<g clip-path="url(#clip0_3706_5014)">
<path d="M15.6095 19.0664C15.3851 19.3052 15.1438 19.5287 14.8874 19.7353C14.9607 19.726 15.034 19.7139 15.1073 19.7005C15.3056 19.6624 15.499 19.6036 15.6842 19.5253C15.7313 19.5066 15.7783 19.4851 15.8226 19.4651C15.8554 19.5062 15.8935 19.543 15.936 19.5748C15.9779 19.6082 16.0245 19.6357 16.0744 19.6564C15.9831 19.7032 15.889 19.746 15.7977 19.7902C15.593 19.8741 15.3796 19.9369 15.1613 19.9775C14.7196 20.0614 14.2652 20.0614 13.8235 19.9775C13.6104 19.9361 13.4023 19.8738 13.2023 19.7915C13.1996 19.7923 13.1967 19.7923 13.194 19.7915C12.9966 19.7091 12.8072 19.6097 12.6282 19.4945C12.4507 19.3808 12.2857 19.2499 12.1357 19.1038C11.9848 18.9595 11.8499 18.8003 11.7331 18.6289C11.6133 18.4559 11.51 18.2728 11.4246 18.0817C11.3386 17.8856 11.2732 17.6817 11.2295 17.4729C11.1871 17.2595 11.1658 17.0427 11.1659 16.8254C11.1656 16.6085 11.1874 16.392 11.2309 16.1792C11.2735 15.9731 11.3379 15.7718 11.4232 15.5785C11.4226 15.5772 11.4222 15.5758 11.4222 15.5744C11.4222 15.5731 11.4226 15.5717 11.4232 15.5704C11.5078 15.3788 11.6106 15.1952 11.7303 15.0219C11.8479 14.8507 11.9833 14.6916 12.1343 14.5469C12.2832 14.4002 12.4478 14.2693 12.6254 14.1563C12.8047 14.0384 12.995 13.9371 13.194 13.8539C13.3959 13.7695 13.6065 13.7059 13.8221 13.6639C14.0426 13.6218 14.2669 13.6008 14.4917 13.601C14.7161 13.6006 14.94 13.6221 15.1599 13.6653C15.3731 13.7056 15.5813 13.7675 15.7811 13.8499H15.7894C15.9869 13.9336 16.1766 14.0334 16.3566 14.1482C16.5333 14.2619 16.6978 14.3924 16.8477 14.5376C16.9983 14.6822 17.1332 14.8414 17.2503 15.0125C17.3717 15.186 17.4759 15.3701 17.5616 15.5624C17.6489 15.7592 17.7152 15.964 17.7594 16.1738C17.7845 16.2932 17.8025 16.4138 17.8134 16.5351L17.5118 16.4575C17.5021 16.3812 17.4897 16.3049 17.4744 16.23C17.4352 16.0404 17.3759 15.8553 17.2974 15.6775C17.2481 15.5654 17.1917 15.4564 17.1286 15.351H16.1602C16.3247 15.618 16.4504 15.9057 16.5337 16.2059L16.2058 16.1217C16.1114 15.8498 15.9812 15.5908 15.8184 15.351H14.6397V15.8755C14.6177 15.8874 14.5969 15.9013 14.5775 15.917C14.5623 15.929 14.5457 15.9424 14.5318 15.9558C14.5124 15.9755 14.4943 15.9965 14.4779 16.0186C14.4524 16.0552 14.4319 16.0947 14.417 16.1364C14.4013 16.1795 14.392 16.2245 14.3893 16.2702C14.3845 16.3061 14.3845 16.3426 14.3893 16.3785C14.3946 16.4084 14.402 16.4379 14.4115 16.4668V16.4749C14.4118 16.4807 14.4118 16.4865 14.4115 16.4923C14.4139 16.4986 14.4166 16.5049 14.4198 16.511L14.6287 16.9672V18.2957H15.2415L15.3702 18.578H14.6397V19.5708C14.9422 19.3335 15.2231 19.0716 15.4795 18.7881L15.6095 19.0731V19.0664ZM9.50016 14.844C9.47996 14.8914 9.44997 14.9344 9.41201 14.9702C9.37405 15.0061 9.32893 15.0341 9.2794 15.0525C9.22988 15.0709 9.17699 15.0793 9.12397 15.0773C9.07095 15.0753 9.01892 15.0628 8.97105 15.0407C8.92319 15.0185 8.8805 14.9872 8.84559 14.9485C8.81068 14.9099 8.78429 14.8648 8.76803 14.8159C8.75178 14.7671 8.74599 14.7155 8.75103 14.6645C8.75608 14.6134 8.77184 14.5638 8.79736 14.5188C9.20833 13.6887 9.8052 12.9575 10.5447 12.3782C10.6255 12.322 10.7254 12.2978 10.824 12.3106C10.9226 12.3233 11.0125 12.372 11.0752 12.4466C11.138 12.5213 11.1688 12.6164 11.1615 12.7123C11.1542 12.8083 11.1092 12.8979 11.0358 12.9629C10.3852 13.4712 9.86048 14.114 9.50016 14.844ZM19.3228 19.457C19.6686 20.4404 20.6564 20.4137 20.9608 19.457C21.2582 19.7153 22.134 19.7661 22.4605 19.9414C22.5676 19.9961 22.6618 20.0717 22.7371 20.1635C22.8605 20.3323 22.9307 20.5322 22.9391 20.7388L23.0069 21.2458C23.006 21.2845 22.9972 21.3227 22.9808 21.358C22.9645 21.3934 22.941 21.4252 22.9117 21.4516C22.8824 21.4781 22.848 21.4986 22.8104 21.5119C22.7728 21.5253 22.7329 21.5313 22.6929 21.5295H17.5934C17.5535 21.5311 17.5137 21.525 17.4763 21.5115C17.4389 21.4981 17.4046 21.4775 17.3755 21.4511C17.3464 21.4247 17.323 21.393 17.3068 21.3577C17.2905 21.3225 17.2816 21.2844 17.2808 21.2458L17.3444 20.7401C17.354 20.5335 17.4245 20.3338 17.5478 20.1648C17.6232 20.0731 17.7174 19.9975 17.8245 19.9427C18.1523 19.7661 19.0281 19.7153 19.3241 19.457H19.3228ZM8.04199 19.457C8.38647 20.4404 9.37565 20.4137 9.68001 19.457C9.97607 19.7153 10.8518 19.7661 11.1783 19.9414C11.2854 19.9961 11.3796 20.0717 11.455 20.1635C11.5784 20.3323 11.6485 20.5322 11.657 20.7388L11.7248 21.2458C11.7239 21.2844 11.7151 21.3225 11.6988 21.3577C11.6825 21.393 11.6591 21.4247 11.63 21.4511C11.6009 21.4775 11.5666 21.4981 11.5292 21.5115C11.4918 21.525 11.452 21.5311 11.4121 21.5295H6.31405C6.27416 21.5313 6.23431 21.5253 6.19682 21.5121C6.15933 21.4988 6.12496 21.4784 6.09571 21.4521C6.06647 21.4258 6.04294 21.3941 6.02651 21.359C6.01007 21.3238 6.00106 21.2858 6 21.2472L6.06779 20.7401C6.07827 20.5328 6.15085 20.3329 6.27669 20.1648C6.35207 20.0731 6.44628 19.9975 6.55339 19.9427C6.87988 19.7661 7.757 19.7153 8.05306 19.457H8.04199ZM7.82479 17.8435C7.85981 17.8516 7.89629 17.8516 7.93132 17.8435L7.86768 17.4422C7.89279 17.336 7.94405 17.2374 8.01709 17.1545C8.08747 17.0836 8.17969 17.0367 8.27995 17.0207C8.41829 17.0114 8.46257 17.109 8.59953 17.196C8.98421 17.4424 9.43888 17.5663 9.89998 17.5505L9.83496 17.7726C9.82506 17.7868 9.82065 17.8038 9.82251 17.8208C9.82251 17.8208 9.82251 17.8208 9.82251 17.8302L9.81421 17.873H9.85571C9.86931 17.8813 9.88535 17.885 9.90137 17.8837C9.99129 17.8756 10.048 17.8837 10.0618 17.9144C10.0757 17.9452 10.0618 18.0349 10.0051 18.166L9.72152 18.6182C9.62662 18.7868 9.50891 18.9425 9.3715 19.0811C9.3036 19.145 9.22329 19.1953 9.1352 19.229C9.0471 19.2628 8.95298 19.2794 8.85824 19.2778C8.67707 19.2788 8.50272 19.2111 8.37264 19.0891C8.24081 18.9599 8.12687 18.8146 8.03369 18.657L7.78052 18.2663C7.71559 18.1835 7.67411 18.0857 7.66016 17.9827C7.65853 17.9603 7.66232 17.9378 7.67122 17.9171C7.67896 17.9002 7.69204 17.8862 7.70858 17.877C7.7442 17.8552 7.78543 17.8437 7.82756 17.8435H7.82479ZM10.0757 17.7512L10.0909 17.2161C10.0834 16.9943 9.9963 16.7819 9.84465 16.6153C9.49878 16.2528 8.85409 16.1605 8.36572 16.3304C8.28533 16.3583 8.20833 16.3947 8.13607 16.4387C7.92962 16.5594 7.77718 16.7502 7.70858 16.9739C7.69385 17.0261 7.68322 17.0793 7.67676 17.1331C7.66697 17.3352 7.67113 17.5376 7.68921 17.7392C7.66733 17.7477 7.64646 17.7585 7.62695 17.7713C7.58839 17.7952 7.55806 17.8297 7.53979 17.8703C7.52035 17.9123 7.5118 17.9582 7.51489 18.0041C7.52619 18.1332 7.57406 18.2568 7.65324 18.3613L7.90641 18.7506C8.00676 18.9189 8.12956 19.0736 8.27165 19.2109C8.42806 19.3574 8.63773 19.4386 8.85547 19.437C8.96867 19.439 9.08115 19.4192 9.18637 19.3788C9.29159 19.3384 9.38744 19.2781 9.46834 19.2015C9.61599 19.0544 9.74256 18.8888 9.84465 18.7092L10.1379 18.2382V18.2289C10.2168 18.0549 10.2334 17.9359 10.1933 17.8556C10.1812 17.8319 10.1642 17.811 10.1432 17.7942C10.1222 17.7773 10.0978 17.765 10.0715 17.7579L10.0757 17.7512ZM13.645 8.6053C13.6787 8.61275 13.7137 8.61275 13.7474 8.6053L13.6824 8.20393C13.7058 8.09737 13.7578 7.99864 13.8332 7.91762C13.9032 7.84626 13.9956 7.79924 14.096 7.78383C14.2344 7.77447 14.2773 7.87213 14.4156 7.95776C14.8003 8.20412 15.255 8.32808 15.7161 8.3123L15.651 8.5344C15.6415 8.54866 15.6371 8.56561 15.6386 8.58256C15.6386 8.58256 15.6386 8.58925 15.6386 8.59193L15.6303 8.63608H15.6704C15.6844 8.64459 15.701 8.64835 15.7174 8.64678C15.8074 8.63875 15.8558 8.64678 15.8779 8.67488C15.9001 8.70297 15.8779 8.79663 15.8212 8.9264L15.5459 9.3746C15.4504 9.54282 15.3322 9.69803 15.1945 9.83618C15.127 9.90023 15.0469 9.95062 14.959 9.98439C14.8712 10.0182 14.7772 10.0346 14.6826 10.0328C14.5015 10.0339 14.3271 9.96616 14.197 9.8442C14.0623 9.71462 13.9464 9.56788 13.8525 9.40805L13.5994 9.01738C13.5344 8.93644 13.4925 8.84052 13.4776 8.7391C13.4761 8.71671 13.4799 8.69429 13.4887 8.67354C13.496 8.65715 13.5086 8.64352 13.5247 8.63474C13.5608 8.61302 13.6025 8.60144 13.645 8.60129V8.6053ZM13.8595 10.2108C14.2053 11.1942 15.1931 11.1687 15.4989 10.2108C15.7949 10.469 16.672 10.5212 16.9972 10.6964C17.1047 10.75 17.199 10.8253 17.2738 10.9172C17.3972 11.0861 17.4674 11.2859 17.4758 11.4925L17.5436 12.0009C17.5424 12.0394 17.5332 12.0774 17.5167 12.1125C17.5002 12.1476 17.4767 12.1792 17.4475 12.2054C17.4183 12.2317 17.384 12.2521 17.3466 12.2654C17.3092 12.2788 17.2694 12.2848 17.2296 12.2832H12.1329C12.0931 12.2848 12.0533 12.2788 12.0159 12.2654C11.9785 12.2521 11.9442 12.2317 11.915 12.2054C11.8858 12.1792 11.8622 12.1476 11.8457 12.1125C11.8292 12.0774 11.8201 12.0394 11.8188 12.0009L11.8866 11.4925C11.8946 11.2868 11.9643 11.0879 12.0872 10.9199C12.162 10.8279 12.2563 10.7526 12.3639 10.6991C12.689 10.5239 13.5675 10.4717 13.8622 10.2135L13.8595 10.2108ZM15.8959 8.50898L15.9111 7.97381C15.9034 7.7518 15.8158 7.53934 15.6635 7.37309C15.3176 6.99982 14.6729 6.91286 14.186 7.08277C14.105 7.11045 14.0275 7.1468 13.9549 7.19114C13.7504 7.30954 13.5981 7.49676 13.5274 7.71694C13.5126 7.76907 13.5024 7.82234 13.497 7.87615C13.4874 8.07864 13.4911 8.28151 13.5081 8.48356C13.4861 8.49138 13.4652 8.50171 13.4458 8.51433C13.4082 8.53932 13.3782 8.57348 13.3586 8.61333C13.3402 8.65279 13.3312 8.69579 13.3324 8.7391C13.3457 8.86887 13.396 8.99253 13.4776 9.09632L13.7308 9.48565C13.831 9.65352 13.9543 9.80744 14.0974 9.94321C14.2538 10.0897 14.4635 10.1709 14.6812 10.1693C14.7938 10.1726 14.9058 10.1543 15.011 10.1155C15.1162 10.0767 15.2124 10.0181 15.2941 9.94321C15.4416 9.79633 15.5678 9.63069 15.669 9.45086L15.9609 8.98795V8.97992C16.0398 8.80599 16.0578 8.68558 16.0163 8.6053C16.0044 8.5819 15.9876 8.5612 15.9668 8.54459C15.9461 8.52798 15.9219 8.51584 15.8959 8.50898ZM19.1056 17.8435C19.0643 17.844 19.0238 17.8546 18.988 17.8743C18.9727 17.8846 18.9604 17.8984 18.952 17.9144C18.9427 17.9351 18.9389 17.9576 18.9409 17.98C18.954 18.0829 18.9956 18.1804 19.0613 18.2623L19.3145 18.653C19.4085 18.8104 19.5228 18.9556 19.6548 19.0851C19.7849 19.2071 19.9592 19.2748 20.1404 19.2738C20.3317 19.2765 20.5162 19.2058 20.6536 19.0771C20.7909 18.9384 20.9086 18.7827 21.0037 18.6142L21.2887 18.1606C21.3481 18.0268 21.3661 17.9479 21.3454 17.9091C21.3246 17.8703 21.2748 17.8716 21.1849 17.8783C21.1685 17.8794 21.1521 17.8757 21.1379 17.8676H21.0977L21.106 17.8248C21.1053 17.8217 21.1053 17.8185 21.106 17.8154C21.1042 17.7985 21.1086 17.7814 21.1185 17.7673L21.1835 17.5452C20.7225 17.5602 20.268 17.4363 19.8831 17.1906C19.7447 17.1037 19.7032 17.006 19.5635 17.0154C19.4634 17.0319 19.3714 17.0787 19.3006 17.1492C19.2263 17.2308 19.1744 17.3293 19.1498 17.4355L19.2148 17.8368C19.179 17.8456 19.1414 17.8456 19.1056 17.8368V17.8435ZM21.3564 17.7512C21.3826 17.7577 21.407 17.7697 21.4278 17.7863C21.4486 17.803 21.4654 17.8239 21.4768 17.8475C21.5183 17.9278 21.5017 18.0482 21.4229 18.2208V18.2302L21.1337 18.6891C21.0319 18.8686 20.9058 19.0341 20.7588 19.1814C20.6781 19.2583 20.5823 19.3187 20.477 19.3591C20.3717 19.3996 20.2592 19.4192 20.1459 19.4169C19.9267 19.4196 19.7154 19.3383 19.5579 19.1908C19.4157 19.0532 19.2929 18.898 19.1927 18.7292L18.9395 18.3412C18.8617 18.236 18.814 18.1128 18.8012 17.984C18.7979 17.938 18.8069 17.8919 18.8275 17.8502C18.8465 17.8101 18.8767 17.7758 18.9146 17.7512C18.9341 17.7392 18.9545 17.7284 18.9755 17.7191C18.9579 17.5176 18.9542 17.3151 18.9644 17.113C18.9698 17.0592 18.9799 17.0059 18.9949 16.9538C19.0647 16.7308 19.2168 16.5403 19.4224 16.4187C19.4951 16.3746 19.5726 16.3383 19.6534 16.3103C20.1404 16.1404 20.7851 16.2327 21.1309 16.5953C21.2846 16.7607 21.3724 16.9737 21.3786 17.196L21.3564 17.7512ZM18.4028 13.0204C18.3636 12.9887 18.3313 12.9498 18.3077 12.906C18.284 12.8622 18.2696 12.8144 18.2651 12.7652C18.2606 12.716 18.2661 12.6664 18.2815 12.6193C18.2968 12.5722 18.3215 12.5284 18.3543 12.4906C18.3871 12.4527 18.4273 12.4215 18.4726 12.3986C18.5179 12.3758 18.5674 12.3618 18.6182 12.3574C18.6691 12.3531 18.7204 12.3585 18.7691 12.3733C18.8178 12.3881 18.863 12.412 18.9022 12.4438C18.981 12.508 19.0405 12.5588 19.0903 12.6003C19.1401 12.6418 19.2052 12.7046 19.2702 12.7649C19.5047 12.9875 19.7211 13.2273 19.9176 13.482C20.1138 13.7365 20.29 14.0048 20.4447 14.2847C20.493 14.3734 20.5028 14.477 20.4721 14.5728C20.4413 14.6685 20.3725 14.7485 20.2808 14.7951C20.1891 14.8418 20.0819 14.8513 19.983 14.8216C19.884 14.7918 19.8013 14.7253 19.753 14.6366C19.619 14.3898 19.4645 14.154 19.2909 13.9315C19.1202 13.7099 18.932 13.5015 18.7279 13.308C18.6822 13.2626 18.6283 13.2157 18.5702 13.1635L18.4083 13.0298L18.4028 13.0204ZM16.4756 21.9616C16.5737 21.9298 16.6809 21.9371 16.7735 21.9818C16.8662 22.0264 16.9366 22.1048 16.9695 22.1998C17.0023 22.2947 16.9948 22.3983 16.9486 22.4879C16.9025 22.5775 16.8214 22.6456 16.7232 22.6774C16.3954 22.7844 16.059 22.865 15.7174 22.9182C14.6714 23.0835 13.5994 22.9967 12.5964 22.6653C12.5025 22.6297 12.4265 22.5604 12.3842 22.472C12.3419 22.3835 12.3365 22.2826 12.3691 22.1904C12.4017 22.0982 12.4699 22.0216 12.5594 21.9768C12.6488 21.9319 12.7528 21.9222 12.8495 21.9496C13.7303 22.2403 14.6715 22.3171 15.5902 22.173C15.8909 22.1264 16.187 22.0557 16.4756 21.9616ZM17.7207 18.9781C17.7017 18.9968 17.6792 19.0118 17.6543 19.0222C17.6292 19.034 17.6019 19.0409 17.5741 19.0423C17.5442 19.0452 17.514 19.042 17.4855 19.0329C17.4569 19.0247 17.4304 19.0106 17.408 18.9915L16.863 18.558L16.6388 19.0811C16.6214 19.1228 16.5996 19.1627 16.5738 19.2002C16.5505 19.2348 16.5226 19.2662 16.4908 19.2938C16.4674 19.3139 16.4413 19.331 16.4133 19.3447C16.3871 19.3571 16.3592 19.3657 16.3303 19.3701C16.2974 19.3761 16.2636 19.3761 16.2307 19.3701C16.1981 19.3604 16.1676 19.345 16.1408 19.3246C16.1161 19.3053 16.0942 19.2828 16.0758 19.2577C16.0561 19.2302 16.039 19.2011 16.0246 19.1707C15.6095 18.2623 15.1115 17.2856 14.7393 16.3705C14.7347 16.3584 14.7314 16.3458 14.7297 16.333C14.7283 16.3206 14.7283 16.308 14.7297 16.2956C14.7313 16.2806 14.7345 16.2658 14.7393 16.2514C14.7448 16.237 14.7518 16.2231 14.7601 16.21C14.7648 16.2043 14.7699 16.1989 14.7753 16.1939C14.7802 16.1887 14.7858 16.1842 14.7919 16.1805C14.8016 16.1726 14.8123 16.1659 14.8237 16.1605C14.8346 16.1551 14.8463 16.1515 14.8583 16.1497C14.8689 16.1484 14.8796 16.1484 14.8901 16.1497C14.9016 16.1483 14.9132 16.1483 14.9247 16.1497H14.9372C15.9609 16.3852 16.9847 16.6635 18.0015 16.9244C18.0349 16.9331 18.0673 16.9448 18.0984 16.9592C18.1266 16.9725 18.1527 16.9896 18.1759 17.01C18.2013 17.0322 18.222 17.0591 18.2367 17.089C18.2509 17.1183 18.2584 17.1502 18.2589 17.1826C18.2602 17.2108 18.2559 17.2389 18.2464 17.2656C18.2378 17.2945 18.2248 17.322 18.2077 17.3472C18.1848 17.3821 18.1569 17.4136 18.1247 17.4408C18.0902 17.4715 18.0526 17.4988 18.0126 17.5224C17.8452 17.6174 17.6792 17.7178 17.5132 17.8154L18.0569 18.2516C18.0795 18.2705 18.0979 18.2938 18.1108 18.3198C18.1235 18.3445 18.131 18.3713 18.133 18.3988C18.1357 18.4271 18.1329 18.4557 18.1247 18.4831C18.1158 18.51 18.1022 18.5354 18.0846 18.558C17.9691 18.7024 17.8458 18.8409 17.7152 18.9727L17.7207 18.9781ZM17.5492 18.7734L17.8577 18.4228L17.2033 17.8877L17.1922 17.877L17.1798 17.8596C17.1628 17.8303 17.1579 17.7959 17.1659 17.7633C17.1697 17.7468 17.1769 17.7314 17.1871 17.7178C17.1974 17.7042 17.2104 17.6928 17.2254 17.6843C17.4385 17.5693 17.6626 17.4355 17.8757 17.3017C17.899 17.2878 17.9212 17.2722 17.9421 17.2549C17.9575 17.2407 17.9714 17.225 17.9836 17.208C17.9874 17.2033 17.9902 17.1978 17.9919 17.192L17.9739 17.1826C17.9607 17.1765 17.9467 17.1721 17.9324 17.1692L15.0617 16.4361L16.2681 19.061C16.2741 19.074 16.281 19.0865 16.2888 19.0985L16.2999 19.1119L16.3151 19.0998C16.3305 19.086 16.344 19.0702 16.3552 19.053C16.3701 19.0307 16.3827 19.0069 16.3926 18.9821L16.6817 18.2971C16.6832 18.2923 16.6855 18.2877 16.6886 18.2837L16.6997 18.2703C16.7232 18.246 16.7552 18.2311 16.7895 18.2283C16.8237 18.2256 16.8578 18.2353 16.8851 18.2556L17.5492 18.7734ZM14.1029 19.7327C13.6755 19.3957 13.2963 19.0052 12.9754 18.5714H12.054C12.1422 18.6879 12.2398 18.7975 12.3459 18.8991C12.4824 19.0313 12.6321 19.1501 12.7928 19.2537C12.9571 19.3594 13.1318 19.449 13.3144 19.5213C13.4981 19.5989 13.6895 19.658 13.8857 19.6979C13.9577 19.7113 14.0324 19.7233 14.1057 19.7327H14.1029ZM11.8617 18.2904H12.7887C12.5404 17.8869 12.3979 17.4308 12.3736 16.9619H11.4605C11.4681 17.1128 11.487 17.2631 11.5173 17.4114C11.5554 17.6034 11.6147 17.7909 11.6943 17.9706C11.7437 18.0824 11.7996 18.1914 11.8617 18.2971V18.2904ZM11.4605 16.6849H12.3819C12.4257 16.214 12.5814 15.7593 12.8371 15.3564H11.8617C11.7996 15.462 11.7437 15.571 11.6943 15.6828C11.6159 15.8594 11.5561 16.0432 11.5159 16.2314C11.4853 16.3796 11.4668 16.5299 11.4605 16.6809V16.6849ZM12.0527 15.0794H13.0211C13.3377 14.6503 13.7065 14.2595 14.1195 13.9154C14.0365 13.9248 13.9577 13.9369 13.8788 13.9516C13.683 13.9894 13.492 14.0472 13.3088 14.1242C13.1269 14.1978 12.9524 14.2874 12.7873 14.3917C12.6266 14.4953 12.4769 14.6141 12.3404 14.7463C12.234 14.8471 12.1363 14.9563 12.0485 15.0727L12.0527 15.0794ZM14.8652 13.9154C15.2773 14.2556 15.6452 14.6429 15.9609 15.0687H16.9294C16.7257 14.8017 16.4757 14.5709 16.1906 14.3864C16.026 14.2812 15.8514 14.1916 15.669 14.1188C15.4872 14.0444 15.2981 13.9879 15.1046 13.9502C15.0243 13.9355 14.9441 13.9235 14.8652 13.9141V13.9154ZM14.6397 14.0907V15.0714H15.6082C15.3209 14.7133 14.9964 14.3847 14.6397 14.0907ZM14.3478 19.5641V18.5714H13.3324C13.6294 18.9397 13.9702 19.2729 14.3478 19.5641ZM14.3478 18.2904V16.9619H12.6669C12.6961 17.4363 12.8551 17.8948 13.1276 18.2904H14.3478ZM14.3478 16.6849V15.351H13.1788C12.8994 15.7468 12.7255 16.2031 12.6724 16.6796L14.3478 16.6849ZM14.3478 15.0794V14.0907C13.9912 14.3847 13.6667 14.7133 13.3794 15.0714L14.3478 15.0794Z" fill="#7D2FCA"/>
</g>
<defs>
<clipPath id="clip0_3706_5014">
<rect width="17" height="16" fill="white" transform="translate(6 7)"/>
</clipPath>
</defs>
</svg>
