<svg width="29" height="179" viewBox="0 0 29 179" fill="none" xmlns="http://www.w3.org/2000/svg">
<path d="M15.2951 152.389H15.2904C15.158 152.365 15.054 151.807 15.0587 151.127C15.2573 110.01 15.3897 66.1031 15.4984 8.82991L15.47 1.23716C15.4653 0.557934 15.574 0 15.7016 0C15.834 0 15.9427 0.533676 15.9427 1.18864L15.9711 8.82991C15.8624 66.1758 15.7253 110.059 15.5315 151.2C15.5315 151.855 15.4227 152.389 15.2951 152.389Z" fill="#157B6C"/>
<path d="M13.3672 151.594C13.3977 150.349 13.4342 149.111 13.4647 147.867C13.4769 147.464 13.4891 147.044 13.6964 146.696C14.0499 146.086 14.8485 145.927 15.5434 145.964C15.897 145.982 16.2688 146.043 16.5614 146.251C16.8175 146.427 16.9942 146.702 17.1162 146.995C17.3417 147.544 17.3661 148.148 17.3905 148.733C17.421 149.618 17.4514 150.502 17.4697 151.393C17.4697 151.527 17.4636 151.679 17.36 151.758C17.2868 151.813 17.1954 151.807 17.104 151.807C15.8726 151.765 14.6473 151.722 13.3672 151.594Z" fill="white" fill-opacity="0.1"/>
<path d="M17.1392 152.112C17.1148 152.112 17.0965 152.112 17.0782 152.112C15.8712 152.076 14.6277 152.033 13.3292 151.905C13.1707 151.887 13.0488 151.752 13.0549 151.594L13.1524 147.867C13.1646 147.471 13.1768 146.97 13.4207 146.549C13.7803 145.933 14.5545 145.61 15.5481 145.665C15.8712 145.683 16.3406 145.738 16.7246 146.007C17.0051 146.202 17.2245 146.495 17.383 146.885C17.6329 147.495 17.6573 148.184 17.6817 148.733C17.7122 149.611 17.7426 150.508 17.7609 151.393C17.7609 151.527 17.767 151.832 17.5232 152.015C17.3952 152.1 17.2428 152.112 17.1392 152.112ZM13.6767 151.313C14.8532 151.417 15.9931 151.454 17.0965 151.49C17.1087 151.49 17.127 151.49 17.1453 151.49C17.1453 151.472 17.1514 151.435 17.1453 151.386C17.127 150.502 17.1026 149.611 17.0721 148.733C17.0538 148.209 17.0294 147.611 16.8222 147.098C16.7125 146.824 16.56 146.617 16.3772 146.495C16.1821 146.354 15.9139 146.287 15.5176 146.263C15.158 146.245 14.2924 146.263 13.951 146.842C13.7803 147.129 13.7742 147.519 13.762 147.867L13.6767 151.313Z" fill="#157B6C"/>
<path d="M9.68497 171.814C9.45333 172.71 9.66059 173.668 9.97148 174.546C10.3433 175.602 10.892 176.651 11.8002 177.291C13.2694 178.322 15.4212 177.944 16.6526 176.657C17.8839 175.37 18.2375 173.375 17.8169 171.612C15.1713 171.582 12.5257 171.545 9.68497 171.814Z" fill="#157B6C"/>
<path d="M13.7674 178.194C12.9993 178.194 12.2495 177.98 11.6216 177.541C10.7926 176.962 10.1525 176.01 9.67706 174.65C9.26863 173.479 9.17719 172.558 9.38445 171.74C9.41493 171.612 9.52466 171.521 9.65267 171.509C12.5116 171.24 15.206 171.277 17.815 171.307C17.9553 171.307 18.0772 171.405 18.1077 171.545C18.5831 173.534 18.1077 175.577 16.8702 176.87C16.0412 177.736 14.889 178.194 13.7674 178.194ZM9.93308 172.1C9.82335 172.747 9.92698 173.503 10.2562 174.449C10.689 175.687 11.2498 176.535 11.9691 177.041C13.2553 177.938 15.2548 177.675 16.4252 176.443C17.4737 175.345 17.9004 173.631 17.5651 171.917C15.1146 171.887 12.5848 171.862 9.93308 172.1Z" fill="#157B6C"/>
<path d="M27.6913 173.717C18.4621 173.625 9.22687 173.528 0.308594 173.07C0.869415 168.526 2.3934 164.189 6.30086 161.902C7.66633 161.103 6.86778 161.658 9.65969 159.749C12.0127 158.139 9.54995 153.448 11.5128 151.362C12.6771 150.124 14.4876 150.051 16.164 150.209C18.1878 150.404 20.2787 151.594 20.4616 153.296C20.7542 155.998 19.4801 157.852 21.0529 160.054C21.5954 160.816 23.5766 162.622 24.302 163.201C27.161 165.47 27.9778 170.325 27.6913 173.717Z" fill="white" fill-opacity="0.1"/>
<path d="M27.6906 174.028C18.6077 173.936 9.22615 173.839 0.289583 173.381C0.204241 173.375 0.125003 173.339 0.0701404 173.271C0.0152775 173.204 -0.00911573 173.119 0.00307603 173.034C0.698007 167.379 2.70356 163.653 6.14163 161.64C6.46472 161.451 6.67198 161.335 6.83047 161.243C7.32424 160.969 7.3669 160.944 9.48827 159.493C10.5733 158.755 10.5002 157.193 10.421 155.54C10.3417 153.918 10.2625 152.24 11.2927 151.149C12.6033 149.752 14.6027 149.752 16.1937 149.904C18.2542 150.099 20.5584 151.344 20.7657 153.265C20.8754 154.29 20.7718 155.211 20.6742 156.022C20.5157 157.394 20.3755 158.578 21.3021 159.877C21.802 160.578 23.7283 162.353 24.4963 162.963C27.3553 165.226 28.3185 170.008 28.0076 173.741C27.9832 173.906 27.8491 174.028 27.6906 174.028ZM0.65534 172.784C9.38464 173.223 18.5407 173.32 27.4102 173.406C27.6296 169.984 26.7092 165.501 24.1123 163.445C23.4357 162.908 21.3814 161.048 20.8022 160.237C19.7355 158.749 19.8939 157.388 20.0646 155.949C20.1622 155.132 20.2597 154.29 20.1561 153.332C19.9915 151.795 17.9798 150.691 16.1328 150.52C14.6759 150.38 12.8593 150.374 11.7377 151.575C10.8903 152.478 10.9635 154.027 11.0366 155.522C11.122 157.266 11.2073 159.078 9.83574 160.011C7.69608 161.475 7.65342 161.499 7.13527 161.786C6.97677 161.871 6.78171 161.987 6.45863 162.176C3.25829 164.043 1.35637 167.52 0.65534 172.784Z" fill="#157B6C"/>
<path d="M26.837 172.417L1.80118 171.503C1.74632 171.503 1.69755 171.454 1.70364 171.399C1.70364 171.344 1.75851 171.301 1.80728 171.301L26.837 172.216C26.8918 172.216 26.9406 172.265 26.9345 172.32C26.9345 172.375 26.8918 172.417 26.837 172.417Z" fill="#157B6C"/>
<path d="M26.6933 171.185H26.6873C18.5675 170.618 10.3198 170.24 2.1879 170.063C2.13303 170.063 2.08426 170.014 2.09036 169.959C2.09036 169.905 2.13914 169.868 2.194 169.862C10.332 170.039 18.5797 170.417 26.7055 170.984C26.7604 170.99 26.8031 171.039 26.8031 171.094C26.7909 171.149 26.7482 171.185 26.6933 171.185Z" fill="#157B6C"/>
<g opacity="0.1294">
<path d="M17.5501 173.741C17.1782 173.558 16.7393 173.68 16.3431 173.613C15.3007 173.613 14.2644 173.558 13.222 173.54C12.0272 173.528 11.8931 173.509 10.8568 173.345C10.4911 173.296 10.1009 173.119 9.75955 173.339C9.14996 173.674 9.27798 174.68 9.95462 174.845C11.7224 175.156 13.5268 175.132 15.3129 175.04C15.892 175.04 16.4711 175.083 17.0502 175.016C17.2758 175.059 17.5196 175.004 17.6842 174.827C18.0012 174.522 17.9219 173.961 17.5501 173.741Z" fill="#157B6C"/>
</g>
</svg>
