<svg width="50" height="253" viewBox="0 0 50 253" fill="none" xmlns="http://www.w3.org/2000/svg">
<path d="M27.2592 206H27.254C27.109 205.967 26.995 205.213 27.0002 204.295C27.2178 148.712 27.3628 89.3585 27.482 11.9363L27.4509 1.6724C27.4457 0.754219 27.5648 0 27.7047 0C27.8498 0 27.9689 0.721426 27.9689 1.60681L28 11.9363C27.8808 89.4569 27.7306 148.778 27.5182 204.393C27.5182 205.279 27.3991 206 27.2592 206Z" fill="white" fill-opacity="0.16"/>
<path d="M23.8047 205.055C23.859 202.839 23.9241 200.633 23.9784 198.416C24.0002 197.699 24.0219 196.949 24.3911 196.33C25.021 195.243 26.4435 194.961 27.6815 195.026C28.3114 195.059 28.9738 195.167 29.495 195.537C29.9511 195.852 30.2661 196.341 30.4832 196.862C30.885 197.84 30.9285 198.916 30.9719 199.959C31.0262 201.535 31.0805 203.11 31.1131 204.697C31.1131 204.936 31.1022 205.207 30.9176 205.349C30.7873 205.447 30.6244 205.436 30.4615 205.436C28.2679 205.36 26.0852 205.284 23.8047 205.055Z" fill="white" fill-opacity="0.1"/>
<path d="M30.5262 205.979C30.4828 205.979 30.4502 205.979 30.4176 205.979C28.2675 205.914 26.0521 205.838 23.7391 205.61C23.4567 205.577 23.2395 205.338 23.2504 205.055L23.4241 198.416C23.4459 197.71 23.4676 196.819 23.902 196.069C24.5427 194.972 25.9218 194.396 27.6919 194.494C28.2675 194.526 29.1037 194.624 29.7878 195.102C30.2873 195.45 30.6783 195.971 30.9606 196.667C31.4058 197.753 31.4493 198.981 31.4927 199.959C31.547 201.524 31.6013 203.121 31.6339 204.697C31.6339 204.936 31.6448 205.479 31.2104 205.805C30.9823 205.957 30.7108 205.979 30.5262 205.979ZM24.3581 204.556C26.454 204.74 28.4847 204.805 30.4502 204.871C30.4719 204.871 30.5045 204.871 30.5371 204.871C30.5371 204.838 30.548 204.773 30.5371 204.686C30.5045 203.11 30.4611 201.524 30.4068 199.959C30.3742 199.025 30.3308 197.96 29.9616 197.047C29.7661 196.558 29.4946 196.189 29.1688 195.971C28.8213 195.722 28.3435 195.602 27.6376 195.559C26.9969 195.526 25.4549 195.559 24.8467 196.591C24.5427 197.101 24.5318 197.797 24.5101 198.416L24.3581 204.556Z" fill="white" fill-opacity="0.16"/>
<path d="M17.2467 241.076C16.8341 242.673 17.2033 244.379 17.7571 245.944C18.4196 247.824 19.3969 249.693 21.015 250.834C23.6321 252.67 27.4655 251.996 29.6591 249.703C31.8527 247.411 32.4825 243.858 31.7332 240.717C27.0202 240.663 22.3072 240.598 17.2467 241.076Z" fill="white" fill-opacity="0.16"/>
<path d="M24.5222 252.442C23.1539 252.442 21.8182 252.061 20.6996 251.279C19.2228 250.247 18.0825 248.552 17.2355 246.129C16.5079 244.042 16.345 242.402 16.7142 240.946C16.7685 240.717 16.964 240.554 17.1921 240.533C22.2851 240.055 27.085 240.12 31.7329 240.174C31.9826 240.174 32.1998 240.348 32.2541 240.598C33.1012 244.14 32.2541 247.78 30.0497 250.084C28.5728 251.627 26.5203 252.442 24.5222 252.442ZM17.6916 241.587C17.4961 242.738 17.6807 244.086 18.2671 245.77C19.0382 247.976 20.0372 249.486 21.3186 250.388C23.61 251.985 27.1719 251.518 29.2569 249.323C31.1247 247.367 31.8849 244.314 31.2876 241.261C26.9221 241.206 22.4154 241.163 17.6916 241.587Z" fill="white" fill-opacity="0.16"/>
<path d="M49.3276 244.466C32.8863 244.303 16.4343 244.129 0.546875 243.314C1.54594 235.219 4.26083 227.493 11.2217 223.419C13.6543 221.995 12.2317 222.984 17.2053 219.583C21.3971 216.714 17.0098 208.359 20.5066 204.642C22.5807 202.437 25.806 202.306 28.7923 202.589C32.3977 202.936 36.1225 205.055 36.4482 208.087C36.9695 212.901 34.6999 216.204 37.5016 220.126C38.4681 221.485 41.9974 224.701 43.2897 225.733C48.3828 229.775 49.838 238.425 49.3276 244.466Z" fill="white" fill-opacity="0.1"/>
<path d="M49.3291 245.02C33.1486 244.857 16.4358 244.683 0.515876 243.868C0.363843 243.858 0.222686 243.792 0.124951 243.673C0.0272159 243.553 -0.0162391 243.401 0.00547977 243.249C1.24346 233.176 4.81623 226.537 10.941 222.952C11.5165 222.615 11.8857 222.408 12.1681 222.245C13.0477 221.756 13.1237 221.713 16.9028 219.127C18.8358 217.812 18.7055 215.03 18.5643 212.086C18.4231 209.195 18.282 206.207 20.1172 204.262C22.452 201.774 26.0139 201.774 28.8482 202.045C32.5187 202.393 36.6236 204.61 36.9928 208.033C37.1883 209.858 37.0037 211.499 36.8299 212.944C36.5476 215.389 36.2978 217.497 37.9484 219.811C38.8389 221.061 42.2705 224.223 43.6388 225.309C48.7319 229.341 50.4477 237.86 49.8938 244.51C49.8504 244.803 49.6115 245.02 49.3291 245.02ZM1.16745 242.804C16.7182 243.586 33.0291 243.76 48.8296 243.912C49.2206 237.816 47.5808 229.83 42.9546 226.168C41.7492 225.212 38.0896 221.898 37.058 220.452C35.1576 217.801 35.4399 215.378 35.744 212.814C35.9177 211.358 36.0915 209.858 35.9068 208.152C35.6136 205.414 32.03 203.447 28.7396 203.143C26.1442 202.893 22.9081 202.882 20.9099 205.023C19.4005 206.631 19.5308 209.391 19.6611 212.053C19.8131 215.161 19.9652 218.388 17.5218 220.05C13.7101 222.658 13.6341 222.702 12.7111 223.212C12.4287 223.364 12.0812 223.571 11.5057 223.908C5.80446 227.233 2.41629 233.426 1.16745 242.804Z" fill="white" fill-opacity="0.16"/>
<path d="M47.8057 242.152L3.20593 240.522C3.10819 240.522 3.02131 240.435 3.03217 240.337C3.03217 240.239 3.12992 240.163 3.2168 240.163L47.8057 241.793C47.9035 241.793 47.9903 241.88 47.9795 241.978C47.9795 242.076 47.9035 242.152 47.8057 242.152Z" fill="white" fill-opacity="0.16"/>
<path d="M47.5484 239.957H47.5376C33.0728 238.946 18.3799 238.272 3.89343 237.957C3.79569 237.957 3.70881 237.87 3.71967 237.773C3.71967 237.675 3.80656 237.61 3.9043 237.599C18.4017 237.914 33.0945 238.588 47.5702 239.598C47.6679 239.609 47.7439 239.696 47.7439 239.794C47.7222 239.892 47.6462 239.957 47.5484 239.957Z" fill="white" fill-opacity="0.16"/>
<g opacity="0.1294">
<path d="M31.2649 244.51C30.6024 244.184 29.8206 244.401 29.1147 244.281C27.2577 244.281 25.4116 244.184 23.5547 244.151C21.4262 244.129 21.1873 244.097 19.3412 243.803C18.6896 243.716 17.9946 243.401 17.3865 243.792C16.3005 244.39 16.5286 246.183 17.734 246.476C20.8832 247.03 24.0976 246.987 27.2795 246.824C28.3111 246.824 29.3428 246.9 30.3744 246.781C30.7762 246.857 31.2106 246.759 31.5038 246.444C32.0685 245.9 31.9273 244.901 31.2649 244.51Z" fill="white" fill-opacity="0.16"/>
</g>
</svg>
