<svg width="30" height="30" viewBox="0 0 30 30" fill="none" xmlns="http://www.w3.org/2000/svg">
<path d="M0 15C0 6.71573 6.71573 0 15 0C23.2843 0 30 6.71573 30 15C30 23.2843 23.2843 30 15 30C6.71573 30 0 23.2843 0 15Z" fill="#0077B5"/>
<path fill-rule="evenodd" clip-rule="evenodd" d="M10.8242 9.26419C10.8242 10.2449 10.086 11.0296 8.90074 11.0296H8.87902C7.73779 11.0296 7 10.2449 7 9.26419C7 8.26275 7.76026 7.5 8.92315 7.5C10.086 7.5 10.8022 8.26275 10.8242 9.26419ZM10.6003 12.4237V22.6372H7.20101V12.4237H10.6003ZM22.86 22.637L22.8601 16.7808C22.8601 13.6437 21.1831 12.1836 18.9462 12.1836C17.1414 12.1836 16.3333 13.1749 15.8822 13.8704V12.4237H12.4824C12.5272 13.3821 12.4824 22.6373 12.4824 22.6373H15.8822V16.9332C15.8822 16.6279 15.9042 16.3234 15.9941 16.1049C16.2398 15.495 16.7992 14.8637 17.7383 14.8637C18.9689 14.8637 19.4608 15.8002 19.4608 17.1727V22.637H22.86Z" fill="white"/>
</svg>
