<svg width="364" height="76" viewBox="0 0 364 76" fill="none" xmlns="http://www.w3.org/2000/svg">
<path d="M76.8474 49V28H81.7074V45.04H92.2374V49H76.8474ZM94.6229 49V32.86H99.3029V49H94.6229ZM96.9629 30.61C96.1029 30.61 95.4029 30.36 94.8629 29.86C94.3229 29.36 94.0529 28.74 94.0529 28C94.0529 27.26 94.3229 26.64 94.8629 26.14C95.4029 25.64 96.1029 25.39 96.9629 25.39C97.8229 25.39 98.5229 25.63 99.0629 26.11C99.6029 26.57 99.8729 27.17 99.8729 27.91C99.8729 28.69 99.6029 29.34 99.0629 29.86C98.5429 30.36 97.8429 30.61 96.9629 30.61ZM113.456 32.62C114.736 32.62 115.876 32.88 116.876 33.4C117.896 33.9 118.696 34.68 119.276 35.74C119.856 36.78 120.146 38.12 120.146 39.76V49H115.466V40.48C115.466 39.18 115.176 38.22 114.596 37.6C114.036 36.98 113.236 36.67 112.196 36.67C111.456 36.67 110.786 36.83 110.186 37.15C109.606 37.45 109.146 37.92 108.806 38.56C108.486 39.2 108.326 40.02 108.326 41.02V49H103.646V32.86H108.116V37.33L107.276 35.98C107.856 34.9 108.686 34.07 109.766 33.49C110.846 32.91 112.076 32.62 113.456 32.62ZM128.259 45.7L128.379 40L135.909 32.86H141.489L134.259 40.21L131.829 42.19L128.259 45.7ZM124.389 49V26.74H129.069V49H124.389ZM136.419 49L130.959 42.22L133.899 38.59L142.089 49H136.419ZM151.529 49.24C149.689 49.24 148.069 48.88 146.669 48.16C145.289 47.44 144.219 46.46 143.459 45.22C142.699 43.96 142.319 42.53 142.319 40.93C142.319 39.31 142.689 37.88 143.429 36.64C144.189 35.38 145.219 34.4 146.519 33.7C147.819 32.98 149.289 32.62 150.929 32.62C152.509 32.62 153.929 32.96 155.189 33.64C156.469 34.3 157.479 35.26 158.219 36.52C158.959 37.76 159.329 39.25 159.329 40.99C159.329 41.17 159.319 41.38 159.299 41.62C159.279 41.84 159.259 42.05 159.239 42.25H146.129V39.52H156.779L154.979 40.33C154.979 39.49 154.809 38.76 154.469 38.14C154.129 37.52 153.659 37.04 153.059 36.7C152.459 36.34 151.759 36.16 150.959 36.16C150.159 36.16 149.449 36.34 148.829 36.7C148.229 37.04 147.759 37.53 147.419 38.17C147.079 38.79 146.909 39.53 146.909 40.39V41.11C146.909 41.99 147.099 42.77 147.479 43.45C147.879 44.11 148.429 44.62 149.129 44.98C149.849 45.32 150.689 45.49 151.649 45.49C152.509 45.49 153.259 45.36 153.899 45.1C154.559 44.84 155.159 44.45 155.699 43.93L158.189 46.63C157.449 47.47 156.519 48.12 155.399 48.58C154.279 49.02 152.989 49.24 151.529 49.24ZM169.375 49.24C167.855 49.24 166.485 48.9 165.265 48.22C164.045 47.52 163.075 46.55 162.355 45.31C161.655 44.07 161.305 42.61 161.305 40.93C161.305 39.23 161.655 37.76 162.355 36.52C163.075 35.28 164.045 34.32 165.265 33.64C166.485 32.96 167.855 32.62 169.375 32.62C170.735 32.62 171.925 32.92 172.945 33.52C173.965 34.12 174.755 35.03 175.315 36.25C175.875 37.47 176.155 39.03 176.155 40.93C176.155 42.81 175.885 44.37 175.345 45.61C174.805 46.83 174.025 47.74 173.005 48.34C172.005 48.94 170.795 49.24 169.375 49.24ZM170.185 45.4C170.945 45.4 171.635 45.22 172.255 44.86C172.875 44.5 173.365 43.99 173.725 43.33C174.105 42.65 174.295 41.85 174.295 40.93C174.295 39.99 174.105 39.19 173.725 38.53C173.365 37.87 172.875 37.36 172.255 37C171.635 36.64 170.945 36.46 170.185 36.46C169.405 36.46 168.705 36.64 168.085 37C167.465 37.36 166.965 37.87 166.585 38.53C166.225 39.19 166.045 39.99 166.045 40.93C166.045 41.85 166.225 42.65 166.585 43.33C166.965 43.99 167.465 44.5 168.085 44.86C168.705 45.22 169.405 45.4 170.185 45.4ZM174.415 49V45.7L174.505 40.9L174.205 36.13V26.74H178.885V49H174.415ZM183.547 49V28H188.407V49H183.547ZM202.87 32.62C204.15 32.62 205.29 32.88 206.29 33.4C207.31 33.9 208.11 34.68 208.69 35.74C209.27 36.78 209.56 38.12 209.56 39.76V49H204.88V40.48C204.88 39.18 204.59 38.22 204.01 37.6C203.45 36.98 202.65 36.67 201.61 36.67C200.87 36.67 200.2 36.83 199.6 37.15C199.02 37.45 198.56 37.92 198.22 38.56C197.9 39.2 197.74 40.02 197.74 41.02V49H193.06V32.86H197.53V37.33L196.69 35.98C197.27 34.9 198.1 34.07 199.18 33.49C200.26 32.91 201.49 32.62 202.87 32.62Z" fill="white"/>
<path d="M58 53.1667C58 56.389 55.389 59 52.1667 59H21.8333C18.6122 59 16 56.389 16 53.1667V22.8333C16 19.611 18.6122 17 21.8333 17H52.1667C55.389 17 58 19.611 58 22.8333V53.1667Z" fill="white"/>
<path d="M23 32.1667H28.8333V52H23V32.1667ZM25.8992 29.8333H25.8665C24.1258 29.8333 23 28.536 23 26.9155C23 25.26 24.1608 24 25.933 24C27.7075 24 28.8007 25.26 28.8333 26.9155C28.8333 28.5348 27.7075 29.8333 25.8992 29.8333ZM51 52H45.1667V41.3845C45.1667 38.8202 43.7375 37.0702 41.4427 37.0702C39.6915 37.0702 38.7442 38.2508 38.2845 39.3918C38.1165 39.8002 38.1667 40.9295 38.1667 41.5V52H32.3333V32.1667H38.1667V35.2187C39.0078 33.9167 40.325 32.1667 43.6943 32.1667C47.8687 32.1667 50.9988 34.7917 50.9988 40.653L51 52Z" fill="#0077B5"/>
<circle cx="325" cy="38" r="22.5" stroke="white"/>
<path d="M332.163 33.3491C332.219 32.7996 331.818 32.3092 331.269 32.2536L322.315 31.3488C321.765 31.2933 321.275 31.6938 321.219 32.2432C321.164 32.7927 321.564 33.2832 322.113 33.3387L330.073 34.143L329.269 42.1024C329.213 42.6519 329.614 43.1424 330.163 43.1979C330.713 43.2534 331.203 42.853 331.259 42.3035L332.163 33.3491ZM318 44L318.632 44.7746L331.801 34.0232L331.168 33.2486L330.536 32.474L317.368 43.2254L318 44Z" fill="white"/>
</svg>
