<svg width="27" height="27" viewBox="0 0 27 27" fill="none" xmlns="http://www.w3.org/2000/svg">
<path d="M26.5091 3.92727H25.7384C25.6364 3.92509 25.5374 3.89234 25.4543 3.83326C25.3711 3.77418 25.3076 3.69149 25.272 3.59591V3.58977C25.2304 3.49699 25.2175 3.39386 25.235 3.29369C25.2525 3.19351 25.2996 3.10087 25.3702 3.02768L25.9151 2.48277C25.9617 2.43707 25.9987 2.38255 26.0239 2.32239C26.0492 2.26223 26.0622 2.19763 26.0622 2.13239C26.0622 2.06714 26.0492 2.00255 26.0239 1.94238C25.9987 1.88222 25.9617 1.8277 25.9151 1.782L25.2266 1.0935C25.1809 1.04693 25.1264 1.00994 25.0662 0.984684C25.006 0.959431 24.9415 0.946424 24.8762 0.946424C24.811 0.946424 24.7464 0.959431 24.6862 0.984684C24.626 1.00994 24.5715 1.04693 24.5258 1.0935L23.9809 1.63841C23.9078 1.70911 23.815 1.75616 23.7148 1.77346C23.6146 1.79075 23.5114 1.77747 23.4188 1.73536H23.4115C23.3162 1.69941 23.2339 1.63579 23.175 1.55269C23.1162 1.46959 23.0836 1.37079 23.0813 1.269V0.490909C23.0813 0.360712 23.0296 0.235847 22.9375 0.143784C22.8455 0.0517207 22.7206 0 22.5904 0H21.6C21.4698 0 21.3449 0.0517207 21.2529 0.143784C21.1608 0.235847 21.1091 0.360712 21.1091 0.490909V1.26164C21.1068 1.36343 21.0742 1.46222 21.0154 1.54533C20.9565 1.62843 20.8742 1.69205 20.779 1.728H20.7716C20.679 1.77011 20.5759 1.78338 20.4756 1.76609C20.3754 1.7488 20.2826 1.70175 20.2095 1.63105L19.6646 1.08614C19.6189 1.03957 19.5644 1.00257 19.5042 0.97732C19.444 0.952067 19.3795 0.93906 19.3142 0.93906C19.249 0.93906 19.1844 0.952067 19.1242 0.97732C19.064 1.00257 19.0095 1.03957 18.9638 1.08614L18.2753 1.77464C18.2287 1.82034 18.1918 1.87486 18.1665 1.93502C18.1412 1.99518 18.1282 2.05978 18.1282 2.12502C18.1282 2.19027 18.1412 2.25486 18.1665 2.31502C18.1918 2.37519 18.2287 2.42971 18.2753 2.47541L18.8202 3.02032C18.8908 3.0935 18.9379 3.18615 18.9554 3.28632C18.9729 3.3865 18.96 3.48962 18.9184 3.58241V3.58855C18.8828 3.68413 18.8193 3.76681 18.7361 3.82589C18.653 3.88497 18.554 3.91773 18.452 3.91991H17.6727C17.5425 3.91991 17.4177 3.97163 17.3256 4.06369C17.2335 4.15576 17.1818 4.28062 17.1818 4.41082V5.4C17.1818 5.5302 17.2335 5.65506 17.3256 5.74713C17.4177 5.83919 17.5425 5.89091 17.6727 5.89091H18.4435C18.5452 5.89316 18.644 5.9258 18.7271 5.98463C18.8102 6.04345 18.8739 6.12579 18.9098 6.22105V6.22841C18.9514 6.3212 18.9643 6.42432 18.9468 6.52449C18.9293 6.62467 18.8822 6.71732 18.8116 6.7905L18.2667 7.33541C18.2202 7.38111 18.1832 7.43563 18.1579 7.49579C18.1327 7.55596 18.1197 7.62055 18.1197 7.6858C18.1197 7.75104 18.1327 7.81564 18.1579 7.8758C18.1832 7.93596 18.2202 7.99048 18.2667 8.03618L18.9552 8.72468C19.0009 8.77125 19.0555 8.80825 19.1156 8.8335C19.1758 8.85875 19.2404 8.87176 19.3056 8.87176C19.3709 8.87176 19.4355 8.85875 19.4956 8.8335C19.5558 8.80825 19.6103 8.77125 19.656 8.72468L20.2009 8.17977C20.2741 8.10916 20.3667 8.06208 20.4669 8.04458C20.5671 8.02708 20.6702 8.03997 20.763 8.08159H20.7704C20.8658 8.11726 20.9483 8.1808 21.0072 8.26397C21.0661 8.34713 21.0986 8.44608 21.1005 8.54795V9.32727C21.1005 9.45747 21.1522 9.58234 21.2443 9.6744C21.3363 9.76646 21.4612 9.81818 21.5914 9.81818H22.5818C22.712 9.81818 22.8369 9.76646 22.9289 9.6744C23.021 9.58234 23.0727 9.45747 23.0727 9.32727V8.55164C23.0746 8.44976 23.1072 8.35082 23.166 8.26765C23.2249 8.18449 23.3074 8.12094 23.4029 8.08527H23.4102C23.503 8.04365 23.6061 8.03076 23.7063 8.04826C23.8065 8.06576 23.8991 8.11284 23.9723 8.18345L24.5172 8.72836C24.5629 8.77493 24.6174 8.81193 24.6776 8.83718C24.7378 8.86243 24.8024 8.87544 24.8676 8.87544C24.9329 8.87544 24.9975 8.86243 25.0576 8.83718C25.1178 8.81193 25.1723 8.77493 25.218 8.72836L25.9065 8.03986C25.9531 7.99416 25.9901 7.93964 26.0153 7.87948C26.0406 7.81932 26.0536 7.75472 26.0536 7.68948C26.0536 7.62423 26.0406 7.55964 26.0153 7.49948C25.9901 7.43931 25.9531 7.38479 25.9065 7.33909L25.3616 6.79418C25.291 6.721 25.2439 6.62835 25.2264 6.52818C25.2089 6.428 25.2218 6.32488 25.2634 6.23209V6.22473C25.2994 6.12947 25.363 6.04714 25.4461 5.98831C25.5292 5.92948 25.628 5.89684 25.7298 5.89459H26.5091C26.5736 5.89459 26.6374 5.88189 26.697 5.85722C26.7565 5.83255 26.8106 5.79639 26.8562 5.75081C26.9018 5.70522 26.938 5.6511 26.9626 5.59154C26.9873 5.53198 27 5.46815 27 5.40368V4.41818C27 4.28798 26.9483 4.16312 26.8562 4.07106C26.7642 3.97899 26.6393 3.92727 26.5091 3.92727ZM22.0909 6.38182C21.7996 6.38182 21.5149 6.29544 21.2727 6.13362C21.0305 5.97179 20.8418 5.74179 20.7303 5.47268C20.6188 5.20357 20.5897 4.90746 20.6465 4.62178C20.7033 4.33609 20.8436 4.07368 21.0495 3.86772C21.2555 3.66175 21.5179 3.52149 21.8036 3.46466C22.0893 3.40784 22.3854 3.437 22.6545 3.54847C22.9236 3.65994 23.1536 3.8487 23.3154 4.09089C23.4773 4.33308 23.5636 4.61781 23.5636 4.90909C23.5636 5.29968 23.4085 5.67428 23.1323 5.95047C22.8561 6.22666 22.4815 6.38182 22.0909 6.38182ZM20.8636 12.2727C20.577 12.2728 20.2993 12.3733 20.079 12.5566C19.8586 12.74 19.7094 12.9947 19.6572 13.2766C19.0669 13.8007 16.0454 14.7273 11.0455 14.7273C8.98855 14.7273 3.7125 14.3591 2.45455 13.2901V6.18545C5.24158 7.01289 8.13856 7.41019 11.0455 7.36364C11.9144 7.36364 12.7636 7.33664 13.5798 7.28386C13.9053 7.26271 14.209 7.11311 14.4242 6.868C14.6394 6.62288 14.7484 6.30231 14.7273 5.97682C14.7061 5.65133 14.5565 5.34757 14.3114 5.13237C14.0663 4.91717 13.7457 4.80816 13.4202 4.82932C12.6605 4.88332 11.8653 4.90909 11.0455 4.90909C8.23927 5.04478 5.43377 4.62779 2.78836 3.68182C5.43377 2.73585 8.23927 2.31886 11.0455 2.45455C11.8653 2.45455 12.6605 2.48032 13.4202 2.53064C13.7457 2.55179 14.0663 2.44278 14.3114 2.22758C14.5565 2.01239 14.7061 1.70863 14.7273 1.38314C14.7484 1.05764 14.6394 0.737077 14.4242 0.491959C14.209 0.24684 13.9053 0.097248 13.5798 0.076091C12.7636 0.027 11.9144 0 11.0455 0C9.20455 0 0 0.177955 0 3.68182V23.3182C0 26.822 9.20455 27 11.0455 27C12.8864 27 22.0909 26.822 22.0909 23.3182V13.5C22.0909 13.1745 21.9616 12.8623 21.7315 12.6322C21.5013 12.402 21.1891 12.2727 20.8636 12.2727ZM19.6364 23.112C19.0006 23.6397 15.9901 24.5455 11.0455 24.5455C6.10077 24.5455 3.09027 23.6397 2.45455 23.112V16.0122C5.23739 16.8582 8.13775 17.253 11.0455 17.1818C13.9528 17.2457 16.8519 16.851 19.6364 16.0122V23.112Z" fill="black"/>
</svg>
