<svg width="59" height="45" viewBox="0 0 59 45" fill="none" xmlns="http://www.w3.org/2000/svg">
<path d="M43.7825 22.0796C45.6495 22.5454 47.5025 23.0505 49.3525 23.5724C49.8036 23.6995 50.2549 23.826 50.7062 23.9523C51.573 24.1956 52.4377 24.4448 53.3026 24.694C53.5714 24.7685 53.8402 24.8429 54.1172 24.9196C54.3659 24.9915 54.6146 25.0634 54.8708 25.1374C55.1993 25.2301 55.1993 25.2301 55.5343 25.3247C56.1798 25.6049 56.4349 25.8613 56.7855 26.437C56.7543 27.0368 56.6289 27.4053 56.3066 27.9212C55.4361 28.4218 54.3727 28.2558 53.4112 28.0605C52.7466 27.8897 52.0887 27.7043 51.4305 27.5127C51.1909 27.445 50.9513 27.3773 50.7044 27.3075C49.9444 27.0922 49.1854 26.8736 48.4265 26.6548C47.9092 26.5077 47.3919 26.3607 46.8745 26.214C45.6108 25.8551 44.3481 25.4935 43.0859 25.1298C43.2427 24.0697 43.4497 23.0997 43.7825 22.0796Z" fill="#F8F8F8"/>
<path d="M24.2801 24.6123C23.7452 23.3677 23.0188 22.6527 21.726 22.0796C21.2371 22.4913 20.764 22.9137 20.2974 23.3477C19.7732 23.928 19.6362 24.3713 19.6362 25.1298C20.7806 25.62 21.9247 25.9876 23.1327 26.317L23.5835 26.437L23.3513 27.5263H22.1904C21.9582 27.962 21.9582 27.962 21.8684 28.4182L21.7985 28.9425C21.7232 29.4667 21.7232 29.4667 21.726 29.9229C22.1904 30.3586 22.1904 30.3586 22.7436 30.4965L23.3804 30.6037L24.0207 30.7143L24.5123 30.7943V31.6658C23.6189 31.7 22.83 31.6811 21.9727 31.4479L21.2616 31.2301C21.1248 32.0747 21.0051 32.8863 20.5078 33.6147L20.4873 33.6391C19.9772 34.2436 19.6583 34.6217 19.4766 35.3968C19.6362 36.0232 19.6362 36.0232 20.1877 36.6087C21.9023 37.7702 23.9047 37.8458 25.9522 37.8449C26.4168 37.8395 26.8814 37.8342 27.346 37.8349L27.3616 37.835C28.3499 37.838 29.3319 37.841 30.3172 37.7661C31.5909 37.4719 32.402 37.199 33.2523 36.253C34.0949 35.1822 34.9607 34.1308 35.9054 33.1373C36.4901 32.6396 36.9626 32.5189 37.7475 32.5373V33.1909C36.9651 33.6803 36.4695 34.2531 35.8899 34.9338C34.3353 36.7971 33.2608 37.9696 30.8106 38.6921L29.3884 39.0734L29.1562 44.5201L28.6919 44.7379H43.4563L43.3202 44.3022C43.2503 43.9378 43.1706 43.575 43.088 43.2129C42.0026 39.8752 42.0613 36.6526 42.1592 33.1909H43.088V36.4589C45.8795 36.4589 49.0406 34.4033 50.9682 32.6462C52.0413 31.5706 53.3047 30.5786 53.3047 29.0514C52.3209 28.7739 51.337 28.4969 50.3528 28.2208L49.1396 27.8803C48.5484 27.7135 47.9572 27.5468 47.3657 27.381L46.7968 27.2216C45.416 26.8305 44.0357 26.4964 42.6236 26.2191C42.0189 27.0729 41.4143 27.8961 40.523 28.5042C38.5118 29.4511 36.4787 29.1906 34.4087 28.5799C34.017 28.4627 33.6245 28.3478 33.2311 28.2357L32.6718 28.0786L32.1095 27.9198L31.5363 27.7578C30.5745 27.4854 29.6136 27.2107 28.6462 26.9565L28.1739 26.8353L27.3132 26.614L26.5667 26.4276C25.6745 26.1462 24.9484 25.9016 24.4688 25.111L24.2801 24.6123Z" fill="white"/>
<path d="M49.5894 9.44333C52.6082 11.8185 54.9003 15.7994 55.3943 19.4653C55.4211 20.2553 55.4162 21.0443 55.4088 21.8346C55.4077 22.0469 55.4067 22.2593 55.4056 22.478C55.4029 22.9989 55.3991 23.5197 55.3943 24.0405C53.2869 23.5752 51.2189 23.012 49.1495 22.4188C48.6246 22.2683 48.0993 22.1191 47.574 21.9699C47.239 21.8744 46.904 21.7788 46.569 21.6831C46.4125 21.6386 46.2561 21.5942 46.0949 21.5483C44.9992 21.2335 44.9992 21.2335 44.4811 20.9904C44.4918 20.8118 44.5026 20.6331 44.5137 20.4491C44.5221 20.2143 44.5305 19.9795 44.5391 19.7376C44.5499 19.5051 44.5607 19.2725 44.5718 19.033C44.4568 18.2005 44.2388 18.0292 43.5523 17.5045C42.8259 17.2208 42.8259 17.2208 41.9916 17.0167C41.8367 16.9751 41.6818 16.9335 41.5221 16.8906C41.1868 16.8008 40.851 16.7123 40.5149 16.625C39.9806 16.4856 39.4478 16.3422 38.9151 16.1976C37.4009 15.787 35.885 15.3824 34.367 14.984C33.4369 14.7396 32.5088 14.4892 31.5816 14.2351C31.2303 14.1402 30.8784 14.0475 30.5258 13.9572C28.2504 13.3743 26.6051 12.6489 24.9766 10.9684C31.4301 4.60538 42.4038 4.2215 49.5894 9.44333Z" fill="white"/>
<path d="M24.2812 13.3647C25.5976 13.4925 26.853 13.8864 28.116 14.2405C28.3508 14.3058 28.5855 14.3711 28.8274 14.4384C29.3232 14.5767 29.819 14.7153 30.3145 14.8543C31.0667 15.0651 31.8194 15.2739 32.5722 15.4826C33.0557 15.6176 33.5391 15.7528 34.0225 15.8881C34.2449 15.9496 34.4673 16.0112 34.6963 16.0746C35.7718 16.3779 36.839 16.7003 37.8944 17.0606C38.084 17.1246 38.2737 17.1887 38.4691 17.2547C38.9095 17.5043 38.9095 17.5043 39.0974 17.9318C39.1593 18.5521 38.9887 19.0077 38.7826 19.5987C38.7011 19.8347 38.6197 20.0708 38.5358 20.314C38.4484 20.5596 38.361 20.8052 38.271 21.0582C38.1872 21.3013 38.1034 21.5444 38.017 21.7948C36.6757 25.6413 36.6757 25.6413 34.7424 26.6796C32.9383 27.4098 30.8307 26.575 29.0847 26.0556C28.814 25.9798 28.5433 25.9039 28.2643 25.8258C28.0044 25.75 27.7444 25.6742 27.4766 25.596C27.2418 25.5276 27.0071 25.4591 26.7652 25.3886C25.9131 25.0364 25.3759 24.5925 24.9814 23.7978C24.9227 23.6397 24.8641 23.4815 24.8036 23.3186C24.3586 22.3024 23.7312 21.7505 22.82 21.0795C22.4236 20.7723 22.4236 20.7723 22.1914 20.3365C22.2856 18.7585 22.7087 17.3652 23.2363 15.8702C23.3108 15.6523 23.3853 15.4344 23.4621 15.2098C24.0139 13.6155 24.0139 13.6155 24.2812 13.3647Z" fill="#FBFBFB"/>
<path d="M0.363281 0.728516C1.43427 0.929496 1.83931 1.09347 2.71427 1.62722C8.24326 4.72719 14.6862 5.33966 20.9852 5.34461C21.2281 5.34497 21.2281 5.34497 21.4759 5.34533C23.6586 5.34497 25.8197 5.25953 27.9946 5.08589C26.8986 6.11431 25.6249 6.49161 24.1001 6.50302C23.9124 6.49988 23.7246 6.49675 23.5312 6.49353C23.3308 6.49333 23.1304 6.49313 22.9239 6.49292C22.5014 6.49161 22.0789 6.4882 21.6565 6.48278C21.0216 6.4749 20.387 6.47385 19.7521 6.47395C17.3532 6.46481 15.0373 6.3277 12.6697 5.95737C12.2099 5.88547 11.7502 5.81357 11.2765 5.7395C11.3531 14.0795 11.4298 22.4195 11.5087 31.0123C12.6581 30.7966 12.6581 30.7966 13.8307 30.5765C14.5463 30.5486 15.2364 30.5339 15.9495 30.5493C16.1273 30.5513 16.305 30.5532 16.4882 30.5553C16.9182 30.5603 17.3481 30.5681 17.778 30.5765C17.7014 30.8641 17.6248 31.1517 17.5458 31.448C17.2537 31.4668 16.9615 31.4856 16.6606 31.505C10.9612 31.9216 5.61185 33.7237 1.73197 37.8505C1.5868 37.9665 1.44163 38.0824 1.29207 38.2019C0.985567 38.1301 0.679068 38.0582 0.363281 37.9841C0.363281 25.6897 0.363281 13.3954 0.363281 0.728516ZM1.52426 2.2536C1.52426 13.5414 1.52426 24.8292 1.52426 36.459C2.87895 35.507 2.87895 35.507 4.20903 34.5254C5.09364 33.9017 6.03705 33.4085 7.0099 32.9186C7.15703 32.8442 7.30417 32.7699 7.45576 32.6932C8.34084 32.2573 9.15477 31.9664 10.1155 31.6659C10.1155 22.9664 10.1155 14.2669 10.1155 5.30376C8.16159 4.76453 8.16159 4.76453 6.16819 4.21442C4.63569 3.56735 3.1032 2.92028 1.52426 2.2536Z" fill="white"/>
<path d="M3.61488 7.26465C5.16106 7.79604 6.46668 8.50795 7.56221 9.66121C7.96937 10.8241 7.96165 11.9438 7.94044 13.1522C7.94291 13.4905 7.94618 13.8288 7.95019 14.167C7.95532 14.8738 7.95036 15.5797 7.93823 16.2864C7.92367 17.1864 7.93519 18.0842 7.9545 18.9841C7.96639 19.6822 7.96382 20.3798 7.9571 21.0779C7.95569 21.4092 7.95872 21.7405 7.96653 22.0717C7.99361 23.4889 7.98496 24.7918 6.89657 25.875C4.85379 27.636 4.85379 27.636 3.61488 27.7443C3.18451 27.3405 3.3533 26.7671 3.35121 26.2297C3.35168 26.0434 3.35215 25.8571 3.35264 25.6652C3.35223 25.47 3.35182 25.2748 3.3514 25.0737C3.35038 24.4252 3.35106 23.7767 3.35184 23.1282C3.35169 22.6797 3.35146 22.2311 3.35117 21.7826C3.35083 20.8411 3.35133 19.8997 3.35241 18.9583C3.35373 17.7486 3.35297 16.539 3.35158 15.3293C3.35074 14.4027 3.35101 13.4761 3.35161 12.5494C3.35176 12.1033 3.35157 11.6571 3.35103 11.2109C3.35045 10.5885 3.35134 9.96616 3.35264 9.34376C3.35217 9.15746 3.3517 8.97116 3.35121 8.77922C3.35615 7.50741 3.35615 7.50741 3.61488 7.26465Z" fill="white"/>
<path d="M16.3982 12.4683C16.6012 12.4694 16.8043 12.4705 17.0135 12.4717C17.2328 12.4724 17.452 12.4731 17.6779 12.4738C17.9085 12.4757 18.1391 12.4775 18.3768 12.4794C18.6083 12.4804 18.8398 12.4813 19.0783 12.4824C19.6523 12.4849 20.2263 12.4885 20.8003 12.493C20.7382 12.6819 20.6761 12.8707 20.6122 13.0653C20.3803 13.7731 20.1498 14.4813 19.9202 15.1898C19.821 15.495 19.7212 15.8001 19.6209 16.1051C19.4759 16.546 19.333 16.9875 19.1903 17.4291C19.104 17.6938 19.0177 17.9585 18.9287 18.2312C18.7652 18.8292 18.6575 19.3587 18.5855 19.9661C18.4726 20.8154 18.3277 21.1315 17.7237 21.7524C17.5884 21.8985 17.4531 22.0445 17.3137 22.195C16.7337 22.5978 16.3969 22.5405 15.692 22.515C15.6861 21.1227 15.682 19.7304 15.6792 18.3382C15.6781 17.8641 15.6765 17.3901 15.6745 16.9161C15.6717 16.2363 15.6703 15.5566 15.6693 14.8768C15.6681 14.6635 15.6669 14.4501 15.6657 14.2303C15.6657 14.0341 15.6656 13.8378 15.6656 13.6356C15.6651 13.4619 15.6646 13.2882 15.6641 13.1093C15.7042 12.5367 15.7889 12.5001 16.3982 12.4683Z" fill="white"/>
<path d="M40.3002 17.9399C41.3607 18.0713 42.3125 18.2481 43.3187 18.5935C43.2278 20.3438 42.7798 21.9036 42.2013 23.5637C42.1215 23.8045 42.0417 24.0453 41.9596 24.2935C41.8798 24.5259 41.8 24.7583 41.7178 24.9977C41.6464 25.2063 41.5749 25.4149 41.5012 25.6299C41.0906 26.5182 40.5528 27.1364 39.7197 27.7032C38.5391 28.079 37.357 28.0956 36.1206 27.9619C35.9674 27.8181 35.8141 27.6743 35.6562 27.5262C35.7936 27.4383 35.931 27.3504 36.0726 27.2598C37.7009 26.0858 38.2459 24.8318 38.7607 23.0245C38.9278 22.4428 39.1064 21.8647 39.2861 21.2863C39.6311 20.1726 39.968 19.057 40.3002 17.9399Z" fill="#F8F8F8"/>
<path d="M14.1025 10.0474C14.4145 10.0474 14.7265 10.0499 15.0385 10.0543C15.2027 10.0549 15.367 10.0555 15.5362 10.0561C16.0615 10.0586 16.5867 10.0641 17.1119 10.0696C17.4677 10.0718 17.8236 10.0738 18.1794 10.0756C19.0523 10.0804 19.9252 10.0879 20.798 10.0968C20.798 10.3125 20.798 10.5282 20.798 10.7504C18.4993 10.7504 16.2005 10.7504 13.8321 10.7504C13.8321 15.2799 13.8321 19.8094 13.8321 24.4762C14.5984 24.4762 15.3646 24.4762 16.1541 24.4762C16.1541 24.7638 16.1541 25.0513 16.1541 25.3476C15.7431 25.3653 15.3318 25.378 14.9205 25.3885C14.6916 25.3961 14.4626 25.4037 14.2267 25.4115C13.5999 25.3476 13.5999 25.3476 13.2179 25.1023C12.7607 24.5088 12.8165 24.0542 12.8169 23.3268C12.8147 22.9037 12.8147 22.9037 12.8125 22.472C12.8145 22.1639 12.8167 21.8558 12.819 21.5477C12.8191 21.2322 12.819 20.9167 12.8186 20.6011C12.8187 19.9401 12.8211 19.2792 12.8253 18.6182C12.8305 17.7701 12.8307 16.922 12.8291 16.0738C12.8283 15.4224 12.8299 14.7711 12.8321 14.1197C12.833 13.8069 12.8333 13.4941 12.8329 13.1813C12.8329 12.7447 12.8361 12.3082 12.8396 11.8716C12.8406 11.623 12.8417 11.3744 12.8428 11.1182C12.9341 10.2347 13.1726 10.11 14.1025 10.0474Z" fill="white"/>
</svg>
