<svg width="44" height="44" viewBox="0 0 44 44" fill="none" xmlns="http://www.w3.org/2000/svg">
<g clip-path="url(#clip0_2973_1807)">
<path fill-rule="evenodd" clip-rule="evenodd" d="M10.2767 44H14.2262V39.2018H10.2767V44ZM8.11751 6.986H34.887C35.8037 6.986 36.5557 7.73438 36.5557 8.65462V35.5137C36.5557 36.4303 35.8037 37.1823 34.887 37.1823H8.11751C7.20085 37.1823 6.44889 36.4303 6.44889 35.5137V8.65104C6.44889 7.73438 7.19727 6.986 8.11751 6.986ZM15.1644 14.7848H27.833C28.388 14.7848 28.8392 15.2396 28.8392 15.791V28.3665C28.8392 28.9216 28.3844 29.3727 27.833 29.3727H15.1644C14.6094 29.3727 14.1582 28.918 14.1582 28.3665V15.791C14.1582 15.2396 14.6094 14.7848 15.1644 14.7848ZM44 23.4967V26.7767H39.2018V23.4967H44ZM44 17.2233V20.5033H39.2018V17.2233H44ZM44 29.7738V33.7233H39.2018V29.7738H44ZM44 10.2767V14.2262H39.2018V10.2767H44ZM0 23.4967V26.7767H4.79818V23.4967H0ZM0 17.2233V20.5033H4.79818V17.2233H0ZM0 29.7738V33.7233H4.79818V29.7738H0ZM0 10.2767V14.2262H4.79818V10.2767H0ZM23.4967 0H26.7767V4.79818H23.4967V0ZM17.2233 0H20.5033V4.79818H17.2233V0ZM29.7738 0H33.7233V4.79818H29.7738V0ZM10.2767 0H14.2262V4.79818H10.2767V0ZM23.4967 44H26.7767V39.2018H23.4967V44ZM17.2233 44H20.5033V39.2018H17.2233V44ZM29.7738 44H33.7233V39.2018H29.7738V44Z" fill="black"/>
</g>
<defs>
<clipPath id="clip0_2973_1807">
<rect width="44" height="44" fill="white"/>
</clipPath>
</defs>
</svg>
