<svg width="223" height="220" viewBox="0 0 223 220" fill="none" xmlns="http://www.w3.org/2000/svg">
<g clip-path="url(#clip0_259_410)">
<path d="M134.05 87.9555C133.98 87.9555 133.911 87.9291 133.858 87.875C133.754 87.7692 133.756 87.5997 133.862 87.4963L134.737 86.6391C134.842 86.5358 135.014 86.537 135.118 86.6428C135.222 86.7486 135.22 86.9181 135.114 87.0214L134.239 87.8786C134.187 87.9303 134.118 87.9555 134.05 87.9555Z" fill="black"/>
<path d="M129.855 92.061C129.785 92.061 129.716 92.0346 129.663 91.9805C129.559 91.8747 129.56 91.7052 129.667 91.6018L130.542 90.7446C130.647 90.6412 130.819 90.6424 130.922 90.7482C131.026 90.854 131.025 91.0235 130.919 91.1269L130.043 91.9841C129.991 92.0358 129.924 92.061 129.855 92.061Z" fill="black"/>
<path d="M130.76 87.9134C130.69 87.9134 130.62 87.8869 130.567 87.8328L129.707 86.954C129.603 86.8483 129.606 86.6787 129.712 86.5754C129.82 86.4732 129.989 86.4744 130.092 86.5802L130.952 87.459C131.056 87.5648 131.054 87.7343 130.947 87.8377C130.895 87.8881 130.828 87.9134 130.76 87.9134Z" fill="black"/>
<path d="M134.88 92.1245C134.81 92.1245 134.74 92.0981 134.687 92.044L133.827 91.1652C133.724 91.0594 133.726 90.8899 133.832 90.7865C133.938 90.6831 134.109 90.6855 134.213 90.7913L135.072 91.6701C135.176 91.7759 135.174 91.9454 135.068 92.0488C135.016 92.0993 134.948 92.1245 134.88 92.1245Z" fill="black"/>
<path d="M158.164 196.762C158.017 196.762 157.896 196.643 157.895 196.496C157.893 196.348 158.013 196.228 158.161 196.227L159.389 196.22H159.391C159.538 196.22 159.659 196.339 159.66 196.485C159.661 196.633 159.542 196.754 159.393 196.755L158.165 196.762H158.164Z" fill="black"/>
<path d="M152.282 196.797C152.135 196.797 152.014 196.678 152.013 196.531C152.011 196.383 152.131 196.263 152.28 196.262L153.508 196.254H153.509C153.656 196.254 153.777 196.373 153.778 196.52C153.779 196.668 153.66 196.788 153.511 196.789L152.283 196.797H152.282Z" fill="black"/>
<path d="M155.833 194.45C155.684 194.45 155.564 194.33 155.564 194.182L155.562 192.955C155.562 192.807 155.682 192.687 155.832 192.687C155.98 192.687 156.101 192.807 156.101 192.955L156.102 194.182C156.102 194.33 155.982 194.45 155.833 194.45Z" fill="black"/>
<path d="M155.842 200.329C155.693 200.329 155.572 200.209 155.572 200.061L155.571 198.834C155.571 198.686 155.691 198.565 155.841 198.565C155.989 198.565 156.11 198.686 156.11 198.834L156.111 200.061C156.111 200.209 155.99 200.329 155.842 200.329Z" fill="black"/>
<path d="M175.045 85.5006C175.045 85.5006 177.803 85.1267 178.665 78.9523C179.527 72.7779 179.7 67.3524 185.389 65.6681C191.079 63.9839 198.097 66.696 197.925 72.6829C197.753 78.6698 198.644 83.7899 202.245 86.4419C206.9 89.8717 208.722 87.9326 217.342 96.2902C228.195 106.811 225.043 138.825 193.665 130.031L175.045 85.5006Z" fill="#157B6C"/>
<path d="M182.792 80.2097C182.792 80.2097 183.728 81.2352 185.683 80.8757L182.792 80.2097Z" fill="white"/>
<path d="M184.871 81.2195C183.37 81.2195 182.629 80.4284 182.593 80.3888C182.492 80.2794 182.501 80.1098 182.611 80.0101C182.721 79.9115 182.89 79.9187 182.99 80.0269C183.027 80.0666 183.866 80.9345 185.634 80.61C185.779 80.5823 185.92 80.6797 185.948 80.8251C185.976 80.9706 185.878 81.1101 185.732 81.1377C185.421 81.1954 185.134 81.2195 184.871 81.2195Z" fill="black"/>
<path d="M183.505 201.746C183.505 201.746 181.875 206.719 180.244 208.238C178.614 209.756 172.132 212.741 172.042 215.986C171.937 219.755 174.136 220.452 180.025 219.091C184.279 218.108 187.79 215.517 189.045 214.039C190.153 212.734 189.534 211.623 189.264 210.093C188.931 208.215 188.867 206.3 188.867 204.394V201.276L183.505 201.746Z" fill="white"/>
<path d="M175.594 220C174.357 220 173.483 219.751 172.869 219.251C172.075 218.606 171.728 217.565 171.771 215.977C171.841 213.486 175.33 211.227 177.876 209.578C178.816 208.97 179.627 208.444 180.06 208.042C181.621 206.588 183.232 201.711 183.248 201.663C183.281 201.561 183.372 201.488 183.479 201.479L188.843 201.008C188.918 201 188.993 201.026 189.049 201.077C189.104 201.128 189.136 201.2 189.136 201.274V204.393C189.136 206.093 189.183 208.093 189.528 210.046C189.581 210.347 189.649 210.633 189.714 210.91C189.975 212.018 190.222 213.067 189.249 214.212C188.016 215.666 184.437 218.347 180.084 219.352C178.218 219.783 176.749 220 175.594 220ZM183.704 201.997C183.397 202.899 181.937 207.028 180.428 208.433C179.961 208.869 179.131 209.406 178.17 210.028C175.722 211.613 172.371 213.783 172.31 215.993C172.27 217.402 172.556 218.305 173.209 218.837C174.238 219.674 176.321 219.673 179.963 218.83C184.189 217.854 187.65 215.267 188.84 213.866C189.638 212.926 189.451 212.131 189.191 211.033C189.125 210.749 189.055 210.454 188.999 210.138C188.646 208.146 188.599 206.116 188.599 204.393V201.568L183.704 201.997Z" fill="black"/>
<path d="M172.273 217.815C172.133 217.815 172.016 217.708 172.005 217.566C171.994 217.418 172.105 217.291 172.253 217.28L174.347 217.129C179.641 216.748 184.591 214.478 188.286 210.74C188.781 210.24 189.057 209.919 189.061 209.917C189.158 209.805 189.328 209.792 189.44 209.889C189.552 209.985 189.566 210.155 189.468 210.267C189.456 210.28 189.177 210.602 188.669 211.117C184.882 214.948 179.809 217.273 174.385 217.664L172.291 217.815C172.286 217.814 172.28 217.815 172.273 217.815Z" fill="black"/>
<path d="M184.912 209.816C184.897 209.816 184.883 209.815 184.867 209.812C184.748 209.792 181.93 209.31 180.798 207.84C180.707 207.722 180.73 207.555 180.847 207.464C180.966 207.374 181.135 207.397 181.224 207.514C182.229 208.818 184.927 209.28 184.954 209.283C185.1 209.307 185.199 209.446 185.175 209.591C185.154 209.723 185.041 209.816 184.912 209.816Z" fill="black"/>
<path d="M182.421 211.5C182.403 211.5 182.384 211.498 182.366 211.494C182.252 211.47 179.562 210.892 178.697 209.435C178.622 209.307 178.665 209.143 178.793 209.068C178.921 208.994 179.085 209.036 179.161 209.163C179.905 210.417 182.451 210.965 182.477 210.971C182.622 211.001 182.715 211.144 182.684 211.289C182.658 211.414 182.546 211.5 182.421 211.5Z" fill="black"/>
<path d="M179.743 213.091C179.712 213.091 179.68 213.086 179.649 213.074C179.556 213.039 177.346 212.208 176.649 210.755C176.585 210.621 176.642 210.462 176.776 210.398C176.91 210.333 177.071 210.391 177.135 210.524C177.737 211.78 179.816 212.564 179.836 212.571C179.975 212.623 180.046 212.777 179.994 212.916C179.954 213.023 179.852 213.091 179.743 213.091Z" fill="black"/>
<path d="M196.073 189.513C196.271 189.513 199.105 189.232 200.744 189.069C201.38 189.005 201.948 189.464 202.017 190.098L202.339 193.054C202.452 194.099 202.664 195.13 202.96 196.139C203.497 197.97 204.289 201.126 203.856 202.566C203.392 204.106 201.94 206.251 200.983 207.472C200.541 208.036 199.795 208.259 199.114 208.031C197.896 207.625 195.952 206.843 194.81 205.707C193.057 203.962 194.95 200.611 194.95 200.611L196.073 189.513Z" fill="white"/>
<path d="M199.65 208.387C199.442 208.387 199.233 208.354 199.029 208.286C197.65 207.826 195.767 207.037 194.622 205.897C192.847 204.13 194.444 200.985 194.69 200.532L195.805 189.487C195.819 189.352 195.936 189.248 196.072 189.247C196.218 189.246 197.955 189.081 200.716 188.805C201.492 188.726 202.199 189.295 202.284 190.072L202.606 193.028C202.716 194.036 202.921 195.06 203.217 196.067C203.864 198.274 204.547 201.206 204.113 202.645C203.653 204.172 202.254 206.29 201.195 207.639C200.818 208.119 200.242 208.386 199.65 208.387ZM196.319 189.765L195.22 200.639C195.216 200.675 195.205 200.711 195.187 200.743C195.169 200.775 193.416 203.938 195.002 205.519C196.13 206.641 198.117 207.417 199.201 207.779C199.771 207.969 200.402 207.78 200.772 207.309C201.883 205.892 203.188 203.854 203.599 202.49C204.015 201.108 203.216 197.965 202.702 196.216C202.397 195.179 202.185 194.124 202.072 193.084L201.75 190.128C201.697 189.642 201.255 189.288 200.772 189.337C198.376 189.575 196.884 189.718 196.319 189.765Z" fill="black"/>
<path d="M198.349 207.899C198.295 207.899 198.24 207.883 198.193 207.849C198.073 207.764 198.044 207.597 198.129 207.475C201.472 202.795 201.248 201.59 200.761 198.95C200.654 198.371 200.532 197.716 200.433 196.946C200.173 194.933 199.39 189.396 199.383 189.34C199.362 189.194 199.465 189.058 199.611 189.038C199.761 189.016 199.895 189.119 199.915 189.265C199.924 189.32 200.706 194.861 200.967 196.876C201.065 197.632 201.184 198.28 201.291 198.851C201.791 201.56 202.042 202.919 198.569 207.784C198.516 207.859 198.432 207.899 198.349 207.899Z" fill="black"/>
<path d="M198.819 199.432C198.806 199.432 198.793 199.431 198.78 199.43L195.584 198.962C195.437 198.94 195.336 198.804 195.357 198.658C195.379 198.511 195.512 198.408 195.663 198.432L198.858 198.899C199.005 198.921 199.107 199.057 199.085 199.204C199.066 199.337 198.951 199.432 198.819 199.432Z" fill="black"/>
<path d="M198.491 201.724C198.478 201.724 198.465 201.723 198.451 201.722L195.256 201.254C195.109 201.232 195.008 201.097 195.029 200.95C195.051 200.803 195.184 200.699 195.335 200.724L198.53 201.192C198.677 201.213 198.779 201.349 198.757 201.496C198.738 201.628 198.622 201.724 198.491 201.724Z" fill="black"/>
<path d="M195.016 202.754C193.153 204.034 189.212 205.68 182.586 203.702L185.626 136.812L198.106 134.439C198.106 134.439 199.735 151.069 197.966 167.804C196.351 183.081 196.285 196.101 196.312 200.238C196.318 201.237 195.843 202.187 195.016 202.754Z" fill="#157B6C"/>
<path d="M197.545 132.484L167.677 134.16L168.694 166.677C168.812 170.473 169.989 174.161 172.096 177.327C175.474 182.404 180.868 189.874 185.135 192.794C191.866 197.4 197.545 132.484 197.545 132.484Z" fill="#157B6C"/>
<path d="M182.703 191.691C182.7 191.691 182.695 191.691 182.69 191.691C182.541 191.683 182.427 191.558 182.434 191.411L183.42 170.339C183.428 170.191 183.548 170.077 183.702 170.084C183.85 170.091 183.965 170.216 183.958 170.364L182.971 191.436C182.965 191.579 182.847 191.691 182.703 191.691Z" fill="white"/>
<path d="M148.526 79.218C148.723 79.1796 148.864 79.0089 148.86 78.8093C148.837 77.773 148.62 74.6642 146.868 73.2372C144.748 71.5096 142.949 67.5448 141.664 67.9283C140.379 68.3118 143.206 71.7657 142.885 72.1504C142.563 72.5339 141.886 71.2211 141.178 69.9408C140.472 68.6616 141.101 68.3743 140.075 68.4597C138.667 68.5763 137.732 68.7927 139.595 72.951C141.368 76.9074 144.901 76.7836 145.364 79.4128C145.404 79.6364 145.621 79.7819 145.846 79.7386L148.526 79.218Z" fill="white"/>
<path d="M145.766 80.0127C145.63 80.0127 145.497 79.9718 145.381 79.8924C145.231 79.789 145.131 79.6352 145.1 79.4572C144.898 78.3104 144.048 77.7333 142.969 77.0012C141.782 76.1945 140.306 75.1919 139.349 73.0592C138.329 70.7823 138.064 69.5236 138.464 68.8504C138.793 68.2962 139.491 68.2384 140.052 68.1928C140.742 68.1339 140.937 68.2541 141.045 68.7951C141.09 69.0247 141.153 69.3396 141.414 69.8109L141.576 70.1054C141.839 70.5851 142.195 71.2319 142.467 71.6202C142.351 71.3894 142.197 71.1117 142.067 70.8808C141.36 69.6149 140.877 68.6724 141.118 68.0798C141.2 67.879 141.362 67.7371 141.586 67.671C142.509 67.3945 143.426 68.6279 144.585 70.1896C145.328 71.1886 146.168 72.3211 147.038 73.0292C148.843 74.4994 149.1 77.5566 149.127 78.8033C149.134 79.1327 148.902 79.4176 148.576 79.4813L145.895 80.0006C145.853 80.009 145.81 80.0127 145.766 80.0127ZM140.353 68.7133C140.295 68.7133 140.213 68.7169 140.098 68.7265C139.541 68.7734 139.102 68.8311 138.928 69.1233C138.639 69.6101 138.937 70.8255 139.841 72.8416C140.734 74.836 142.083 75.7521 143.273 76.56C144.408 77.3306 145.388 77.9966 145.628 79.3659C145.637 79.414 145.667 79.4404 145.685 79.4524C145.718 79.4741 145.756 79.4825 145.794 79.4753L148.475 78.9559C148.543 78.9427 148.592 78.8838 148.59 78.8153C148.571 77.9016 148.376 74.8108 146.698 73.4451C145.777 72.6949 144.915 71.5336 144.154 70.5094C143.244 69.2843 142.303 68.016 141.741 68.1855C141.658 68.2108 141.634 68.2469 141.618 68.2829C141.455 68.6833 142.107 69.8494 142.538 70.6212C143.101 71.6286 143.321 72.0482 143.091 72.3211C142.992 72.4401 142.857 72.499 142.711 72.4834C142.265 72.4401 141.854 71.7272 141.105 70.3627L140.943 70.0694C140.642 69.526 140.568 69.1485 140.518 68.8996C140.506 68.8359 140.49 68.759 140.477 68.7229C140.459 68.7181 140.423 68.7133 140.353 68.7133Z" fill="black"/>
<path d="M211.67 140.781C211.859 140.749 212.043 140.849 212.118 141.025C212.464 141.826 213.438 143.816 214.951 144.559C216.027 145.087 216.994 145.422 218.304 146.659C219.615 147.896 221.863 151.1 221.372 151.889C220.788 152.826 218.921 151.871 217.486 150.999C216.05 150.128 214.625 148.036 213.228 147.825C211.831 147.615 214.786 150.961 214.363 151.488C213.94 152.016 212.436 151.232 211.47 149.649C211.088 149.024 208.811 143.516 208.124 141.848C208.023 141.603 208.177 141.33 208.439 141.287L211.67 140.781Z" fill="white"/>
<path d="M220.582 152.549C219.674 152.549 218.435 151.889 217.347 151.228C216.75 150.865 216.16 150.306 215.59 149.765C214.781 148.998 213.944 148.204 213.188 148.09C213.158 148.085 213.135 148.084 213.118 148.084C213.131 148.35 213.593 149.128 213.875 149.604C214.512 150.676 214.858 151.3 214.574 151.655C214.468 151.788 214.259 151.939 213.899 151.917C213.081 151.865 211.963 150.969 211.242 149.788C210.863 149.166 208.761 144.099 207.876 141.949C207.798 141.757 207.81 141.543 207.911 141.361C208.013 141.18 208.19 141.056 208.397 141.021L211.628 140.515C211.941 140.462 212.243 140.629 212.367 140.918C212.708 141.708 213.652 143.62 215.072 144.318C215.242 144.402 215.411 144.48 215.578 144.559C216.453 144.97 217.359 145.396 218.491 146.464C219.521 147.436 222.266 150.96 221.601 152.028C221.371 152.399 221.014 152.549 220.582 152.549ZM213.116 147.548C213.163 147.548 213.214 147.551 213.269 147.56C214.193 147.699 215.091 148.552 215.961 149.376C216.51 149.898 217.079 150.437 217.626 150.77C219.612 151.976 220.796 152.306 221.142 151.747C221.463 151.23 219.655 148.303 218.119 146.853C217.05 145.844 216.223 145.455 215.346 145.044C215.176 144.964 215.006 144.884 214.832 144.798C213.251 144.022 212.234 141.973 211.871 141.128C211.844 141.067 211.779 141.033 211.714 141.044C211.713 141.044 211.713 141.044 211.711 141.044L208.481 141.55C208.423 141.56 208.393 141.599 208.38 141.622C208.368 141.645 208.35 141.691 208.373 141.746C209.789 145.184 211.407 149.029 211.701 149.51C212.389 150.637 213.375 151.348 213.933 151.383C214.027 151.39 214.096 151.373 214.137 151.338C214.146 151.114 213.688 150.343 213.412 149.877C212.761 148.78 212.405 148.142 212.665 147.757C212.734 147.657 212.866 147.548 213.116 147.548Z" fill="black"/>
<path d="M182.178 85.0628C179.515 84.4641 177.547 83.887 174.821 84.0349C171.705 84.2032 170.108 83.8966 167.527 85.1818C162.689 87.5897 160.768 94.1693 157.929 93.0176C155.089 91.8659 149.29 76.7737 149.29 76.7737L144.203 78.9003C144.203 78.9003 150.663 106.824 155.817 108.498C160.971 110.174 167.239 102.191 167.239 102.191C167.239 102.191 167.467 122.434 164.102 135.836C164.102 135.836 169.413 135.808 172.866 137.232C191.276 144.825 199.049 135.836 199.049 135.836C198.933 130.633 197.785 127.065 194.019 121.261C191.96 118.088 191.369 112.961 195.442 108.333C195.442 108.333 205.365 138.847 207.213 142.442C207.34 142.688 213.449 141.337 213.462 141.194C214.451 130.252 206.913 109.839 205.816 104.889C205.484 103.388 205.042 101.914 204.446 100.496C202.587 96.0724 198.431 88.8196 190.675 86.9742L182.178 85.0628Z" fill="white"/>
<path d="M207.362 142.739C207.064 142.739 207.024 142.662 206.973 142.563C205.238 139.189 196.626 112.837 195.335 108.872C191.615 113.396 192.396 118.266 194.244 121.114C197.963 126.846 199.196 130.421 199.316 135.829C199.318 135.895 199.295 135.96 199.251 136.009C199.17 136.103 197.208 138.329 192.939 139.636C189.025 140.833 182.346 141.431 172.763 137.478C169.4 136.092 164.163 136.104 164.102 136.103H164.101C164.019 136.103 163.94 136.066 163.89 136.001C163.838 135.936 163.82 135.85 163.84 135.771C166.798 123.992 166.971 106.696 166.971 102.932C165.572 104.559 161.378 108.998 157.32 108.998C156.786 108.998 156.255 108.921 155.733 108.752C150.496 107.05 144.206 80.105 143.941 78.9593C143.912 78.8319 143.979 78.7033 144.1 78.6528L149.187 76.5261C149.253 76.4985 149.329 76.4985 149.397 76.5261C149.463 76.555 149.517 76.6091 149.542 76.6764C151.143 80.8444 155.79 91.86 158.03 92.7688C159.353 93.305 160.538 91.8131 162.041 89.9245C163.468 88.1308 165.085 86.0967 167.406 84.9426C169.476 83.9123 170.937 83.8787 172.961 83.8318C173.536 83.8186 174.128 83.8053 174.807 83.7681C177.205 83.637 179.06 84.0674 181.206 84.5651C181.54 84.6421 181.882 84.7226 182.238 84.802L190.734 86.7122C198.674 88.6021 202.888 96.0941 204.695 100.393C205.266 101.754 205.719 103.206 206.08 104.832C206.336 105.987 206.948 108.002 207.724 110.553C210.255 118.874 214.491 132.8 213.731 141.218C213.711 141.431 213.708 141.474 212.148 141.844C211.298 142.046 210.274 142.266 209.41 142.434C208.253 142.657 207.67 142.739 207.362 142.739ZM195.441 108.064C195.46 108.064 195.478 108.067 195.496 108.07C195.591 108.089 195.667 108.158 195.697 108.251C195.795 108.552 205.439 138.184 207.395 142.206C208.17 142.194 212.389 141.295 213.207 141.019C213.894 132.687 209.712 118.942 207.208 110.709C206.429 108.147 205.813 106.123 205.552 104.948C205.198 103.353 204.755 101.931 204.196 100.6C202.429 96.3958 198.315 89.0673 190.61 87.234L182.116 85.3237C181.76 85.2432 181.416 85.1638 181.08 85.0857C178.887 84.5771 177.156 84.1744 174.832 84.3018C174.147 84.3391 173.521 84.3535 172.969 84.3656C170.944 84.4124 169.605 84.4437 167.643 85.4199C165.429 86.5223 163.851 88.5059 162.459 90.2563C160.882 92.2399 159.519 93.9542 157.823 93.2641C155.084 92.1533 149.942 79.1962 149.135 77.1248L144.512 79.0567C145.134 81.6787 151.18 106.708 155.896 108.241C160.809 109.839 166.961 102.103 167.022 102.023C167.092 101.933 167.213 101.898 167.32 101.934C167.429 101.97 167.502 102.071 167.503 102.184C167.505 102.385 167.69 122.284 164.439 135.568C165.684 135.587 169.967 135.746 172.963 136.982C182.377 140.863 188.913 140.295 192.739 139.134C196.447 138.008 198.395 136.124 198.772 135.731C198.639 130.499 197.419 127.001 193.787 121.404C191.787 118.322 190.966 113.003 195.235 108.154C195.29 108.097 195.365 108.064 195.441 108.064Z" fill="black"/>
<path d="M178.895 135.544C178.796 135.544 178.701 135.489 178.654 135.394L171.362 120.596C171.296 120.462 171.351 120.303 171.485 120.238C171.619 120.172 171.779 120.227 171.845 120.36L179.137 135.158C179.202 135.291 179.148 135.451 179.014 135.516C178.975 135.535 178.935 135.544 178.895 135.544Z" fill="black"/>
<path d="M172.515 130.658C172.41 130.658 172.309 130.596 172.266 130.492L170.268 125.676C170.211 125.539 170.276 125.383 170.414 125.327C170.551 125.27 170.708 125.335 170.765 125.472L172.764 130.288C172.82 130.425 172.755 130.581 172.617 130.638C172.584 130.651 172.549 130.658 172.515 130.658Z" fill="black"/>
<path d="M146.789 76.4385H140.607C140.174 76.4385 139.815 76.1007 139.792 75.6691L139.204 64.4382C139.18 63.9742 139.552 63.5835 140.019 63.5835H147.318C147.783 63.5835 148.154 63.9706 148.133 64.4334L147.604 75.6643C147.583 76.0982 147.225 76.4385 146.789 76.4385Z" fill="#157B6C"/>
<path d="M146.694 74.8997C146.611 74.8997 146.528 74.8612 146.475 74.7891C146.388 74.6689 146.415 74.5017 146.534 74.4152C150.566 71.4999 151.772 67.5748 150.828 66.1538C150.211 65.2245 148.755 65.3471 146.83 66.4928C146.703 66.5685 146.538 66.5277 146.462 66.4002C146.386 66.2728 146.427 66.1093 146.555 66.0336C149.686 64.169 150.901 65.2918 151.278 65.8592C152.502 67.7058 150.869 71.9435 146.851 74.8492C146.804 74.8828 146.748 74.8997 146.694 74.8997Z" fill="#157B6C"/>
<path d="M139.838 74.2913C137.06 70.2159 137.566 68.3008 139.15 67.0939C139.243 67.0229 139.375 67.0229 139.471 67.089C142.529 69.2145 143.291 71.6081 141.083 74.3478C140.758 74.753 140.131 74.7205 139.838 74.2913Z" fill="white"/>
<path d="M140.487 74.901C140.472 74.901 140.458 74.901 140.444 74.8998C140.108 74.8865 139.806 74.7194 139.616 74.4417C137.12 70.7823 136.927 68.45 138.987 66.88C139.171 66.7393 139.434 66.7345 139.626 66.8691C141.39 68.0954 142.385 69.4118 142.583 70.7811C142.757 71.9821 142.322 73.2383 141.295 74.5151C141.095 74.7627 140.803 74.901 140.487 74.901ZM139.317 67.3092C138.114 68.2204 137.115 69.8229 140.06 74.1412C140.153 74.277 140.301 74.3588 140.465 74.3648C140.633 74.3732 140.774 74.3047 140.873 74.1808C141.804 73.0243 142.2 71.9063 142.049 70.858C141.874 69.6414 140.955 68.4476 139.317 67.3092Z" fill="black"/>
<path d="M182.927 80.3422C181.025 79.0378 183.19 71.2332 185.345 70.0815C187.501 68.9299 192.024 70.1861 192.024 70.1861C190.341 75.6825 193.365 77.0446 193.786 77.0446C194.206 77.0446 195.548 77.1227 194.706 78.9032C193.865 80.6836 191.971 79.7147 191.971 79.7147C191.592 80.0489 190.877 80.4276 190.002 80.7497C188.957 83.8394 190.103 86.2702 191.088 87.6395C191.588 88.3343 191.239 89.3189 190.405 89.5173C189.068 89.8347 187.026 90.0222 184.452 89.3466C182.485 88.8296 181.17 88.1203 180.304 87.4628C179.591 86.9218 179.704 85.8001 180.519 85.4274C182.713 84.426 184.185 81.2054 182.927 80.3422Z" fill="white"/>
<path d="M187.867 90.0702C186.858 90.0702 185.688 89.9475 184.383 89.6049C182.659 89.1517 181.231 88.5025 180.14 87.6754C179.725 87.3616 179.513 86.8627 179.571 86.3434C179.628 85.83 179.94 85.3973 180.405 85.1845C181.895 84.5052 183.008 82.7609 183.113 81.5587C183.142 81.2305 183.105 80.7905 182.773 80.5621C182.145 80.1317 181.857 79.1195 181.94 77.6348C182.097 74.8156 183.594 70.7126 185.219 69.8446C187.444 68.6556 191.907 69.8746 192.097 69.9275C192.167 69.9468 192.226 69.9937 192.261 70.0562C192.296 70.1187 192.303 70.1944 192.283 70.263C191.367 73.254 191.895 74.9106 192.499 75.775C193.012 76.5083 193.653 76.7668 193.788 76.7752C194.572 76.7752 194.926 77.0709 195.084 77.3198C195.338 77.7189 195.293 78.2887 194.949 79.0161C194.68 79.5871 194.282 79.9646 193.769 80.1389C193.059 80.3793 192.332 80.1533 192.015 80.0259C191.609 80.3373 190.97 80.6679 190.218 80.954C189.299 83.814 190.299 86.0789 191.308 87.4831C191.599 87.8882 191.669 88.4075 191.494 88.8728C191.324 89.3272 190.94 89.665 190.468 89.778C189.801 89.9355 188.923 90.0702 187.867 90.0702ZM183.08 80.1209C183.505 80.413 183.708 80.9396 183.65 81.6044C183.533 82.9508 182.345 84.8875 180.631 85.6702C180.339 85.8036 180.143 86.0765 180.107 86.4011C180.07 86.7329 180.205 87.0491 180.467 87.2486C181.502 88.0337 182.865 88.6516 184.521 89.0868C187.087 89.76 189.102 89.5508 190.342 89.2563C190.644 89.1842 190.881 88.9762 190.989 88.6852C191.102 88.3871 191.056 88.0541 190.87 87.7944C189.773 86.2688 188.688 83.7935 189.747 80.6631C189.772 80.5861 189.833 80.526 189.909 80.4972C190.733 80.193 191.439 79.8251 191.794 79.5126C191.877 79.4392 191.996 79.4248 192.094 79.4753C192.102 79.4789 192.892 79.872 193.599 79.6304C193.967 79.5042 194.258 79.2216 194.462 78.7876C194.718 78.2455 194.776 77.8367 194.63 77.6071C194.507 77.4135 194.215 77.3114 193.786 77.3114C193.53 77.3114 192.756 77.024 192.121 76.1705C191.426 75.2376 190.801 73.48 191.687 70.376C190.703 70.1355 187.218 69.3854 185.473 70.317C184.178 71.0095 182.638 74.7856 182.477 77.6648C182.407 78.9343 182.621 79.8071 183.08 80.1209Z" fill="black"/>
<path d="M130.355 27.8164C130.002 23.2805 130.351 16.8164 134.262 11.421C145.079 -3.50057 176.65 -1.31259 182.786 10.8655C185.9 17.046 182.531 25.9386 177.499 30.8339C170.059 38.0722 157.51 38.0037 149.849 33.653C142.555 29.5103 140.289 21.8223 135.658 22.5376C133.084 22.9343 131.369 25.6837 130.355 27.8164Z" fill="white"/>
<path d="M161.945 36.918C157.539 36.918 153.165 35.8445 149.715 33.8849C146.347 31.9722 144.09 29.3719 142.099 27.0781C139.848 24.485 138.071 22.4341 135.699 22.8019C133.793 23.0965 132.077 24.8228 130.598 27.9317C130.546 28.0411 130.427 28.1012 130.305 28.0807C130.186 28.0591 130.095 27.9593 130.086 27.8379C129.567 21.179 130.898 15.6033 134.044 11.2646C136.822 7.4308 141.189 4.45178 146.671 2.6485C151.564 1.03998 157.329 0.399214 162.905 0.844023C172.631 1.62184 180.341 5.41593 183.025 10.7452C186.218 17.0819 182.817 26.0334 177.686 31.0249C174.208 34.409 169.268 36.4804 163.774 36.8555C163.166 36.8976 162.556 36.918 161.945 36.918ZM136.266 22.2201C138.596 22.2201 140.342 24.2325 142.507 26.7259C144.471 28.9872 146.695 31.5503 149.983 33.4184C157.414 37.6393 169.976 37.7776 177.312 30.6414C182.198 25.8892 185.587 17.0218 182.547 10.9845C179.946 5.82107 172.404 2.13998 162.865 1.37659C153.712 0.64446 140.789 2.87692 134.482 11.5759C131.57 15.5948 130.252 20.7174 130.561 26.8124C132.024 24.0895 133.721 22.5627 135.618 22.2694C135.838 22.2369 136.054 22.2201 136.266 22.2201Z" fill="black"/>
<path d="M172.059 15.5059H145.476C145.328 15.5059 145.207 15.3857 145.207 15.2378C145.207 15.0899 145.328 14.9697 145.476 14.9697H172.059C172.207 14.9697 172.328 15.0899 172.328 15.2378C172.328 15.3869 172.207 15.5059 172.059 15.5059Z" fill="black"/>
<path d="M164.988 20.1582H151.613C151.465 20.1582 151.344 20.038 151.344 19.8902C151.344 19.7423 151.465 19.6221 151.613 19.6221H164.988C165.136 19.6221 165.257 19.7423 165.257 19.8902C165.257 20.038 165.136 20.1582 164.988 20.1582Z" fill="black"/>
<path d="M200.059 56.7625C200.735 55.8164 208.356 44.7623 203.57 32.155C200.21 23.3045 191.664 16.1335 181.742 15.7476C180.069 15.6826 169.512 15.2727 163.847 23.6676C160.031 29.3214 159.614 37.221 163.322 42.9675C167.73 49.7971 176.146 50.7708 177.395 50.8959C186.138 51.7711 190.956 46.1881 195.723 48.8834C198.64 50.5328 199.647 54.2127 200.059 56.7625Z" fill="white"/>
<path d="M200.058 57.0306C200.038 57.0306 200.017 57.0282 199.997 57.0234C199.89 56.9981 199.81 56.9128 199.793 56.8046C199.168 52.9263 197.754 50.3392 195.59 49.1154C193.235 47.7834 190.861 48.5636 187.855 49.553C184.95 50.5088 181.657 51.5907 177.369 51.1615C175.091 50.9331 167.334 49.678 163.097 43.1117C159.443 37.4494 159.66 29.3924 163.625 23.5173C168.812 15.8293 178.028 15.3328 181.753 15.4795C186.559 15.6658 191.238 17.4246 195.284 20.5659C199.102 23.5293 202.134 27.6119 203.822 32.06C208.62 44.6962 201.146 55.7034 200.279 56.9176C200.226 56.9897 200.144 57.0306 200.058 57.0306ZM192.866 47.876C193.883 47.876 194.872 48.0924 195.856 48.6502C198.042 49.886 199.505 52.3781 200.209 56.064C201.902 53.4769 207.597 43.5204 203.317 32.2488C199.77 22.9018 191.095 16.3775 181.732 16.0144C178.098 15.875 169.107 16.3522 164.07 23.8166C160.222 29.5186 160.008 37.334 163.549 42.822C167.762 49.3498 175.844 50.4703 177.422 50.6278C181.598 51.0461 184.831 49.9822 187.686 49.0433C189.539 48.435 191.236 47.876 192.866 47.876Z" fill="black"/>
<path d="M195.118 31.7608H170.127C169.978 31.7608 169.857 31.6406 169.857 31.4927C169.857 31.3448 169.978 31.2246 170.127 31.2246H195.118C195.266 31.2246 195.387 31.3448 195.387 31.4927C195.387 31.6406 195.266 31.7608 195.118 31.7608Z" fill="black"/>
<path d="M187.046 35.003H178.104C177.956 35.003 177.835 34.8828 177.835 34.7349C177.835 34.587 177.956 34.4668 178.104 34.4668H187.046C187.195 34.4668 187.315 34.587 187.315 34.7349C187.314 34.884 187.195 35.003 187.046 35.003Z" fill="black"/>
<path d="M16.5988 209.124H111.703C115.749 209.124 119.029 205.811 119.029 201.723L109.756 7.4656C109.756 3.37817 106.477 0.0649414 102.43 0.0649414H7.32611C3.27966 0.0649414 0 3.37937 0 7.4656L9.27144 201.723C9.27144 205.811 12.5523 209.124 16.5988 209.124Z" fill="#157B6C"/>
<path d="M23.045 209.166H118.149C122.196 209.166 125.475 205.867 125.475 201.798L116.204 7.8887C116.204 3.81931 112.924 0.520508 108.878 0.520508H13.7724C9.72595 0.520508 6.44629 3.81931 6.44629 7.8887L15.7177 201.798C15.7189 205.867 18.9986 209.166 23.045 209.166Z" fill="white"/>
<path d="M108.659 209.182H89.0681C88.9196 209.182 88.7988 209.061 88.7988 208.914C88.7988 208.766 88.9196 208.646 89.0681 208.646H108.66C108.809 208.646 108.93 208.766 108.93 208.914C108.928 209.061 108.808 209.182 108.659 209.182Z" fill="black"/>
<path d="M78.8049 209.182H23.0446C18.8569 209.182 15.4492 205.757 15.4492 201.545L11.9184 135.91C11.91 135.762 12.0247 135.636 12.172 135.627C12.3217 135.622 12.4473 135.733 12.4546 135.881L15.9854 201.53C15.9854 205.46 19.1515 208.644 23.0434 208.644H78.8037C78.9522 208.644 79.073 208.764 79.073 208.912C79.0742 209.061 78.9534 209.182 78.8049 209.182Z" fill="black"/>
<path d="M9.49604 74.0282C9.35355 74.0282 9.234 73.9164 9.22796 73.7721L6.17773 7.64831C6.17773 3.42503 9.58419 0 13.7719 0H108.876C113.064 0 116.471 3.42503 116.471 7.63628L117.191 25.2748C117.197 25.4226 117.081 25.5477 116.934 25.5537C116.774 25.5633 116.66 25.4455 116.654 25.2976L115.934 7.64831C115.934 3.72197 112.768 0.537377 108.876 0.537377H13.7719C9.88003 0.537377 6.71509 3.72317 6.71509 7.63749L9.76532 73.7505C9.77256 73.8984 9.65785 74.0234 9.50932 74.0306C9.50449 74.0282 9.50087 74.0282 9.49604 74.0282Z" fill="black"/>
<path d="M27.4566 203.623H114.307C118.002 203.623 120.998 200.61 120.998 196.894L111.844 13.2638C111.844 9.54783 108.848 6.53516 105.153 6.53516H18.3023C14.6072 6.53516 11.6113 9.54783 11.6113 13.2638L20.7656 196.894C20.7656 200.61 23.7615 203.623 27.4566 203.623Z" fill="white"/>
<path d="M114.307 203.891H27.4561C23.6186 203.891 20.4971 200.752 20.4971 196.894L11.3428 13.277C11.3428 9.406 14.4642 6.26709 18.3018 6.26709H105.152C108.99 6.26709 112.111 9.406 112.111 13.2638L121.266 196.881C121.266 200.752 118.144 203.891 114.307 203.891ZM18.3018 6.80206C14.7613 6.80206 11.8801 9.70053 11.8801 13.2638L21.0332 196.881C21.0332 200.457 23.9144 203.356 27.4549 203.356H114.306C117.846 203.356 120.727 200.457 120.727 196.894L111.574 13.277C111.574 9.70053 108.693 6.80206 105.152 6.80206H18.3018Z" fill="black"/>
<path d="M17.9522 65.2066C17.8097 65.2066 17.6902 65.0948 17.6842 64.9517L16.8558 47.5368C16.8485 47.389 16.9633 47.2639 17.1118 47.2567C17.2579 47.2411 17.3859 47.3637 17.3931 47.5116L18.2215 64.9264C18.2288 65.0743 18.114 65.1993 17.9655 65.2066C17.9607 65.2066 17.9559 65.2066 17.9522 65.2066Z" fill="black"/>
<path d="M109.655 49.1513C109.513 49.1513 109.393 49.0395 109.387 48.8964L107.845 16.4939C107.845 13.0436 105.197 10.2474 101.941 10.2474H21.8179C18.5624 10.2474 15.9143 13.0436 15.9143 16.4807L17.0856 41.0834C17.0929 41.2313 16.9781 41.3563 16.8296 41.3635C16.6823 41.3683 16.5555 41.2565 16.5483 41.1087L15.377 16.4927C15.377 12.7479 18.2666 9.71118 21.8179 9.71118H101.94C105.492 9.71118 108.381 12.7479 108.381 16.4807L109.923 48.8712C109.93 49.019 109.816 49.1441 109.667 49.1513C109.664 49.1513 109.66 49.1513 109.655 49.1513Z" fill="black"/>
<path d="M116.516 166.187C116.373 166.187 116.254 166.075 116.248 165.932L114.949 138.619C114.941 138.472 115.056 138.347 115.205 138.339C115.342 138.331 115.479 138.446 115.486 138.594L116.785 165.907C116.792 166.054 116.678 166.18 116.529 166.187C116.524 166.187 116.52 166.187 116.516 166.187Z" fill="white"/>
<path d="M102.601 200.676H50.9519C50.8034 200.676 50.6826 200.556 50.6826 200.408C50.6826 200.26 50.8034 200.14 50.9519 200.14H102.599C102.748 200.14 102.869 200.26 102.869 200.408C102.869 200.557 102.749 200.676 102.601 200.676Z" fill="black"/>
<path d="M44.4967 200.676H30.2635C26.7121 200.676 23.8225 197.64 23.8225 193.907L22.6947 170.209C22.6874 170.061 22.8021 169.936 22.9507 169.929C23.098 169.921 23.2248 170.036 23.232 170.184L24.3611 193.894C24.3611 197.344 27.0092 200.14 30.2647 200.14H44.4979C44.6464 200.14 44.7672 200.26 44.7672 200.408C44.766 200.557 44.6452 200.676 44.4967 200.676Z" fill="black"/>
<path d="M77.4214 0.530273L75.5895 3.56699C74.4762 5.41115 72.6117 6.51836 70.6157 6.51836H52.1175C50.1649 6.51836 48.3343 5.45924 47.2125 3.6788L45.2285 0.530273H77.4214Z" fill="#157B6C"/>
<path d="M121.137 116.077C120.995 116.077 120.876 115.967 120.869 115.824L119.524 89.3093C119.517 89.1614 119.631 89.0352 119.779 89.028C119.928 89.0232 120.054 89.1338 120.061 89.2816L121.406 115.796C121.414 115.944 121.299 116.07 121.152 116.077C121.145 116.077 121.142 116.077 121.137 116.077Z" fill="black"/>
<path d="M63.9715 141.52C90.4115 141.52 111.845 120.181 111.845 93.8581C111.845 67.5352 90.4115 46.1963 63.9715 46.1963C37.5315 46.1963 16.0977 67.5352 16.0977 93.8581C16.0977 120.181 37.5315 141.52 63.9715 141.52Z" fill="white"/>
<path d="M63.9713 141.787C37.4249 141.787 15.8281 120.286 15.8281 93.8569C15.8281 67.4281 37.4249 45.927 63.9713 45.927C90.5177 45.927 112.114 67.4281 112.114 93.8569C112.114 120.286 90.5177 141.787 63.9713 141.787ZM63.9713 46.4632C37.7219 46.4632 16.3667 67.7238 16.3667 93.8569C16.3667 119.99 37.7219 141.251 63.9713 141.251C90.2206 141.251 111.576 119.99 111.576 93.8581C111.576 67.7262 90.2206 46.4632 63.9713 46.4632Z" fill="black"/>
<path d="M90.5832 127.013L46.1122 129.507C46.1122 129.507 46.0905 133.393 45.9902 137.823C52.3201 140.896 59.383 141.519 66.8987 141.519C75.9528 141.519 84.3451 137.146 91.565 132.799L90.5832 127.013Z" fill="#157B6C"/>
<path d="M128.331 41.3648C128.224 40.4644 128.74 39.4678 128.922 38.5625C129.317 36.5981 129.654 34.6049 129.596 32.6021C129.545 30.8301 129.468 29.2323 128.736 27.6286C128.235 26.531 127.439 25.1545 125.913 25.2988C124.807 25.4034 123.777 26.1019 123.165 27.0083C122.323 28.2538 122.126 29.825 122.17 31.3266C122.208 32.6754 122.703 34.3212 122.414 35.6472C122.107 37.0538 121.288 36.9311 120.579 35.8384C118.793 33.089 115.822 32.5672 116.869 33.5398C117.916 34.5123 119.799 38.4038 120.497 39.4726C120.751 39.8609 121.531 40.3333 122.422 40.7793C122.429 43.3232 122.109 47.2327 120.297 51.4932C118.137 56.5701 114.742 60.0624 111.939 62.3009C114.234 66.2981 119.231 72.8296 127.798 73.9188C129.013 71.518 129.963 68.985 130.627 66.3799C131.806 61.7539 132.08 56.9091 131.436 52.1797C131.111 49.7909 130.554 47.4334 129.774 45.1505C129.377 43.9916 128.821 42.8928 128.419 41.7423C128.374 41.6209 128.346 41.4934 128.331 41.3648Z" fill="white"/>
<path d="M127.8 74.1892C127.789 74.1892 127.777 74.188 127.766 74.1868C119.024 73.076 113.953 66.3485 111.708 62.4366C111.643 62.3224 111.671 62.177 111.773 62.0952C115.517 59.1054 118.301 55.5036 120.051 51.3921C121.437 48.1342 122.145 44.6202 122.156 40.9463C121.129 40.4222 120.513 39.9882 120.273 39.6203C120.045 39.2693 119.698 38.6357 119.296 37.9012C118.482 36.4105 117.366 34.3704 116.685 33.738C116.592 33.6515 116.309 33.387 116.4 33.1021C116.423 33.0312 116.504 32.8641 116.77 32.828C117.465 32.7318 119.471 33.6383 120.807 35.694C121.181 36.271 121.513 36.4418 121.679 36.4093C121.871 36.3744 122.048 36.0691 122.152 35.5918C122.327 34.7888 122.194 33.8306 122.065 32.9037C121.991 32.3784 121.916 31.8338 121.902 31.3361C121.848 29.4414 122.188 27.9772 122.943 26.8603C123.632 25.8409 124.761 25.1412 125.889 25.0342C127.558 24.8743 128.417 26.2797 128.983 27.5191C129.711 29.1156 129.811 30.6953 129.867 32.5948C129.922 34.5123 129.635 36.3877 129.187 38.6153C129.122 38.9375 129.018 39.2693 128.917 39.5915C128.729 40.1842 128.536 40.7973 128.6 41.3347C128.613 41.4501 128.638 41.5559 128.674 41.6592C128.867 42.2098 129.101 42.7629 129.328 43.2978C129.572 43.8713 129.823 44.4651 130.03 45.0698C130.815 47.3636 131.377 49.7451 131.706 52.1483C132.351 56.8849 132.068 61.8307 130.891 66.4507C130.222 69.0763 129.263 71.6321 128.041 74.0449C127.993 74.1327 127.9 74.1892 127.8 74.1892ZM112.289 62.3681C114.522 66.1886 119.394 72.4965 127.644 73.6302C128.807 71.3015 129.722 68.8419 130.367 66.3161C131.527 61.7622 131.805 56.8873 131.17 52.218C130.847 49.8485 130.291 47.5007 129.518 45.2394C129.317 44.6527 129.07 44.0684 128.83 43.5034C128.599 42.9612 128.362 42.401 128.163 41.8336C128.115 41.6953 128.081 41.5486 128.063 41.396C127.986 40.7456 128.197 40.0772 128.401 39.4304C128.502 39.1082 128.599 38.8041 128.658 38.5095C129.099 36.3179 129.381 34.4762 129.327 32.6092C129.273 30.7085 129.18 29.2479 128.491 27.7391C128 26.6608 127.265 25.4394 125.939 25.5656C124.967 25.6582 123.99 26.2677 123.387 27.1585C122.697 28.1791 122.386 29.54 122.438 31.3192C122.451 31.7893 122.521 32.2942 122.596 32.8292C122.732 33.8018 122.872 34.808 122.676 35.7036C122.476 36.6221 122.075 36.8806 121.773 36.9347C121.31 37.0188 120.806 36.681 120.353 35.9837C119.237 34.2658 117.721 33.5253 117.088 33.3798C117.83 34.1023 118.902 36.0631 119.766 37.6439C120.162 38.3689 120.505 38.9952 120.721 39.3282C120.831 39.4965 121.212 39.8776 122.542 40.5424C122.633 40.5881 122.689 40.6795 122.69 40.7804C122.701 44.5866 121.979 48.2268 120.543 51.6001C118.789 55.7284 116.012 59.3506 112.289 62.3681Z" fill="black"/>
<path d="M111.941 62.3032C110.138 63.7434 108.581 64.6667 107.755 65.1548C94.1193 73.2167 85.8187 63.9707 63.4794 64.5657C55.3104 64.7833 49.7099 63.6268 35.1434 69.9227C35.1434 69.9227 8.60059 78.3945 8.60059 105.453C8.60059 113.041 13.6227 119.47 19.5408 121.523C24.831 114.939 26.5264 111.177 30.6598 109.56C30.6296 109.25 27.7569 107.294 27.7907 106.97C28.508 100.096 30.8397 98.132 33.5168 96.8649C34.7425 96.2854 36.1831 96.9875 36.3243 98.3315C36.9474 104.237 36.0768 108.929 37.4015 122.962C38.1707 131.108 38.9906 132.308 39.7791 133.107C44.9739 138.37 53.8336 131.326 74.5331 131.012C84.3588 130.863 90.8397 132.321 92.6811 128.939C94.0082 126.501 91.7972 123.616 90.1827 119.376C88.1879 114.138 86.8065 106.052 90.2745 94.0626C104.056 95.5833 117.584 89.4221 125.344 78.0783C126.26 76.7379 127.079 75.3481 127.801 73.9211C119.234 72.8332 114.236 66.3017 111.941 62.3032Z" fill="white"/>
<path d="M44.9312 135.329C42.7709 135.329 41.0538 134.783 39.5854 133.296C38.6894 132.388 37.8864 130.986 37.1317 122.988C36.3456 114.657 36.3323 109.667 36.3214 105.656C36.3142 102.917 36.3082 100.751 36.0558 98.3603C36.0014 97.8409 35.7104 97.3973 35.2576 97.1449C34.7674 96.872 34.16 96.8563 33.6311 97.1076C31.2208 98.2485 28.8058 99.9484 28.0631 106.938C28.2129 107.147 28.9676 107.743 29.4747 108.145C30.6122 109.044 30.9032 109.298 30.9262 109.533C30.9383 109.652 30.8682 109.765 30.7571 109.809C27.818 110.958 26.1516 113.205 23.3924 116.927C22.3599 118.319 21.1898 119.896 19.7505 121.689C19.6792 121.778 19.5597 121.811 19.4522 121.774C13.0088 119.539 8.33203 112.675 8.33203 105.452C8.33203 91.3708 15.6014 82.388 21.7006 77.3341C28.2998 71.8641 34.9956 69.6882 35.062 69.6665C47.3885 64.3384 53.4225 64.3348 59.8104 64.3324C60.9877 64.3324 62.2049 64.3312 63.4728 64.2976C72.6428 64.0535 79.3277 65.436 85.2265 66.655C93.5996 68.3862 99.6493 69.6365 107.618 64.9251C108.443 64.437 109.977 63.5294 111.774 62.0951C111.836 62.0459 111.917 62.0266 111.993 62.041C112.07 62.0555 112.138 62.1036 112.176 62.1709C114.372 65.9962 119.325 72.5746 127.836 73.6554C127.923 73.6662 127.997 73.7191 128.038 73.7948C128.079 73.8718 128.081 73.9631 128.041 74.0413C127.307 75.4923 126.473 76.9013 125.565 78.2285C117.764 89.636 104.331 95.7996 90.4709 94.3534C87.7612 103.845 87.7491 112.23 90.4346 119.281C90.8633 120.406 91.3246 121.415 91.7714 122.391C92.991 125.056 93.9546 127.162 92.9185 129.067C91.49 131.69 87.5812 131.567 81.6643 131.382C79.5523 131.316 77.159 131.24 74.5387 131.28C65.3312 131.419 58.3384 132.924 53.2329 134.022C49.8543 134.748 47.1578 135.329 44.9312 135.329ZM34.4184 96.3935C34.8036 96.3935 35.184 96.4885 35.5221 96.6772C36.1282 97.0162 36.5183 97.6089 36.5919 98.3038C36.8467 100.723 36.8528 102.899 36.86 105.654C36.8709 109.652 36.8842 114.631 37.6678 122.937C38.4044 130.75 39.1773 132.116 39.9694 132.92C42.7431 135.73 46.6471 134.89 53.1158 133.499C58.2442 132.395 65.2672 130.885 74.5278 130.744C77.1602 130.705 79.5608 130.778 81.6788 130.846C87.3965 131.025 91.1736 131.144 92.444 128.81C93.352 127.141 92.4379 125.143 91.2811 122.613C90.8524 121.675 90.3658 120.612 89.9311 119.471C87.184 112.255 87.2117 103.682 90.0156 93.9879C90.0518 93.8629 90.1726 93.7824 90.3042 93.7956C104.046 95.3127 117.388 89.2321 125.121 77.9267C125.947 76.7197 126.708 75.4454 127.389 74.1338C119.074 72.91 114.151 66.5901 111.866 62.7047C110.146 64.0511 108.691 64.9119 107.893 65.3831C99.7447 70.2003 93.6092 68.9332 85.1167 67.178C79.2468 65.965 72.5921 64.5885 63.4873 64.8325C62.2134 64.8662 60.9914 64.8674 59.8104 64.8674C53.4793 64.8698 47.4996 64.8734 35.2504 70.1666C35.1598 70.1967 28.5498 72.3474 22.0291 77.7572C16.0252 82.7391 8.86938 91.5872 8.86938 105.453C8.86938 112.389 13.3083 118.979 19.4498 121.205C20.8288 119.483 21.959 117.958 22.9601 116.608C25.6722 112.951 27.3495 110.689 30.221 109.449C29.9638 109.215 29.5037 108.851 29.1415 108.564C27.7371 107.454 27.4944 107.211 27.5222 106.943C28.2853 99.6262 30.9564 97.7796 33.4004 96.6231C33.7253 96.4704 34.073 96.3935 34.4184 96.3935Z" fill="black"/>
<path d="M54.9536 107.889C54.9053 107.889 54.857 107.876 54.8123 107.849C49.3748 104.519 46.8547 99.2656 48.2337 96.7939C48.6527 96.0426 50.0764 94.5206 54.24 96.5847C54.3728 96.6509 54.4271 96.812 54.3607 96.9442C54.2943 97.0764 54.1325 97.1305 53.9997 97.0644C51.36 95.7552 49.4304 95.7516 48.7034 97.0548C47.6142 99.0071 49.562 104.006 55.0937 107.394C55.2205 107.471 55.2603 107.636 55.1819 107.763C55.1323 107.843 55.0442 107.889 54.9536 107.889Z" fill="black"/>
<path d="M55.0108 109.963L62.9853 109.353C63.5456 109.31 63.9731 108.839 63.9598 108.28L63.6 93.732C63.5855 93.1309 63.0662 92.6644 62.4637 92.7101L53.0485 93.4302C52.4484 93.4759 52.0076 94.0121 52.0825 94.6072L53.8829 109.044C53.9518 109.602 54.4481 110.006 55.0108 109.963Z" fill="#157B6C"/>
<path d="M61.0851 101.479C61.0356 101.372 60.9765 101.27 60.9028 101.173C59.4731 99.2968 56.3516 101.241 54.7214 101.759C53.4415 102.166 52.1615 102.573 50.8815 102.98L46.0018 108.723C43.3586 109.419 35.32 112.116 29.4393 108.3C27.5495 107.074 25.0197 107.592 23.677 109.396C21.6701 112.093 19.7851 115.601 18.5703 121.089C28.0132 123.908 41.5062 120.458 47.5692 115.079C50.3296 115.185 52.496 112.521 54.1539 110.678C55.0885 109.639 55.964 108.402 57.1498 107.638C58.2366 106.937 59.554 106.508 60.3715 105.454C60.8968 104.779 61.1347 103.923 61.2373 103.074C61.3013 102.539 61.3049 101.96 61.0851 101.479Z" fill="white"/>
<path d="M26.1466 122.38C23.49 122.38 20.8866 122.06 18.4921 121.346C18.3568 121.306 18.2759 121.169 18.3061 121.032C19.3542 116.302 20.9917 112.554 23.4599 109.238C24.9053 107.296 27.5957 106.785 29.5845 108.076C34.9049 111.528 42.1307 109.519 45.216 108.661C45.4503 108.596 45.6616 108.537 45.8487 108.486L50.674 102.808C50.7066 102.77 50.7501 102.741 50.7972 102.727L54.6372 101.505C54.9596 101.403 55.3568 101.236 55.7771 101.06C57.4966 100.341 59.8525 99.3556 61.1156 101.012C61.1989 101.12 61.2701 101.241 61.3281 101.368C61.5358 101.821 61.5913 102.374 61.502 103.108C61.374 104.166 61.0733 104.987 60.5818 105.619C59.9805 106.393 59.1364 106.843 58.3201 107.278C57.9748 107.462 57.6174 107.653 57.2937 107.862C56.4279 108.421 55.7167 109.26 55.0296 110.073C54.8038 110.34 54.5792 110.604 54.3522 110.857L54.008 111.242C52.373 113.076 50.3456 115.351 47.7301 115.351C47.7083 115.351 47.6866 115.351 47.6649 115.351C43.1692 119.284 34.4061 122.38 26.1466 122.38ZM18.8869 120.902C28.5786 123.671 41.6405 119.98 47.3895 114.879C47.4415 114.834 47.5091 114.805 47.5791 114.812C50.0244 114.9 52.012 112.677 53.6083 110.886L53.9537 110.5C54.1783 110.251 54.3981 109.99 54.6203 109.728C55.3327 108.887 56.0705 108.015 57.0027 107.414C57.3457 107.193 57.7127 106.997 58.0678 106.807C58.8696 106.379 59.6267 105.975 60.158 105.291C60.5879 104.738 60.8535 104.002 60.9695 103.043C61.0443 102.42 61.0021 101.944 60.8391 101.589C60.7968 101.498 60.7461 101.413 60.6869 101.336C59.6762 100.01 57.6294 100.866 55.986 101.553C55.5549 101.734 55.1467 101.904 54.8014 102.014L51.0351 103.211L46.2062 108.895C46.1711 108.937 46.1228 108.967 46.0697 108.982C45.8656 109.036 45.6278 109.102 45.3621 109.175C42.2068 110.053 34.8167 112.108 29.2922 108.524C27.5413 107.387 25.1697 107.841 23.8934 109.555C21.5133 112.753 19.9206 116.363 18.8869 120.902Z" fill="black"/>
<path d="M59.5651 52.0352C57.941 52.8491 56.7177 52.9669 55.8362 52.9164C52.6496 52.7337 50.6064 50.1779 50.1971 49.6657C48.0851 47.0221 47.0671 42.681 48.8567 40.1324C50.1463 38.2966 51.7693 38.9891 53.2533 36.9358C54.939 34.6059 53.2111 32.7041 54.7652 30.6652C56.5547 28.3173 60.4997 28.4964 61.2086 28.5289C63.6429 28.6395 63.9327 29.8417 66.2331 29.7792C68.5817 29.7154 68.8921 28.5409 71.0487 28.5289C72.761 28.5193 75.2582 29.2454 76.3764 31.217C77.7795 33.6923 76.345 36.9526 74.6786 38.6729C72.6777 40.7383 71.2697 39.6311 68.467 41.3129C63.6115 44.2282 64.772 49.4229 59.5651 52.0352Z" fill="#157B6C"/>
<path d="M68.6072 63.0387L67.2922 54.8963C67.582 54.8638 70.0031 54.4442 70.2796 54.3072C72.522 53.1952 71.8989 47.593 71.8989 47.593L73.1451 46.1107L69.4271 37.8276C65.4785 41.1036 64.0705 37.8865 60.1629 39.4987C56.2554 41.1108 58.3758 45.4423 58.3758 45.4423C58.3758 45.4423 55.1819 44.0417 55.8653 47.1169C56.3809 49.4395 58.0799 49.585 59.1993 49.4912L57.1163 63.451C57.1163 63.451 53.0361 64.6051 50.6258 65.2747C50.2648 65.3745 50.2732 65.8854 50.6355 65.9756C54.3825 66.9061 63.7686 69.5605 74.3623 65.6654C74.8055 65.5019 74.7813 64.8684 74.3285 64.7338L68.6072 63.0387Z" fill="white"/>
<path d="M62.6033 67.9857C57.5172 67.9857 53.3862 66.9446 51.075 66.3628L50.5715 66.2365C50.2877 66.1656 50.0957 65.924 50.0909 65.633C50.0872 65.3433 50.2732 65.0957 50.5534 65.0175C52.6726 64.4284 56.0851 63.4643 56.8748 63.2407L58.8841 49.7738C57.0994 49.8159 55.9957 48.9443 55.6021 47.1723C55.3883 46.2105 55.5127 45.5325 55.9716 45.1574C56.5101 44.7186 57.3433 44.8364 57.9048 44.9915C57.6331 44.2149 57.2805 42.7651 57.7889 41.427C58.1608 40.4484 58.9252 39.7163 60.0591 39.2475C61.816 38.5225 63.1202 38.7389 64.2721 38.9313C65.7912 39.1837 67.1038 39.4025 69.2544 37.6173C69.3196 37.5632 69.4042 37.544 69.4875 37.562C69.5696 37.5812 69.6384 37.6377 69.6722 37.7135L73.3902 45.9965C73.4325 46.0903 73.4168 46.1997 73.3504 46.2778L72.1767 47.6736C72.2563 48.5151 72.6234 53.4393 70.398 54.5417C70.1081 54.6847 68.3101 54.9997 67.5989 55.1151L68.8439 62.8259L74.4033 64.4741C74.7233 64.5691 74.9383 64.8468 74.9479 65.1798C74.9588 65.5116 74.7644 65.7989 74.4529 65.9131C70.2337 67.47 66.1825 67.9857 62.6033 67.9857ZM59.1993 49.2208C59.273 49.2208 59.3442 49.2509 59.3949 49.3049C59.4517 49.3651 59.477 49.4468 59.465 49.5274L57.382 63.4907C57.3663 63.5953 57.2914 63.6807 57.19 63.7095C57.19 63.7095 53.1085 64.8636 50.6983 65.5333C50.6403 65.5489 50.6282 65.5922 50.6282 65.6258C50.6282 65.6595 50.6415 65.7016 50.7007 65.716L51.2066 65.8434C55.0949 66.8232 64.2021 69.117 74.2693 65.4154C74.407 65.365 74.4142 65.2387 74.413 65.2014C74.4118 65.163 74.3961 65.0343 74.2524 64.9911L68.5311 63.2948C68.4321 63.2659 68.3584 63.1818 68.3427 63.0808L67.0277 54.9384C67.0157 54.8663 67.035 54.7917 67.0797 54.734C67.1243 54.6751 67.1907 54.6378 67.2644 54.6294C67.6122 54.591 69.9125 54.181 70.1637 54.0656C71.8639 53.2229 71.8023 49.1282 71.6345 47.6207C71.626 47.5486 71.649 47.4752 71.6961 47.4187L72.8348 46.0651L69.3281 38.2521C67.1437 39.9531 65.7067 39.7139 64.1876 39.4615C63.0549 39.2739 61.8836 39.078 60.2692 39.744C59.2778 40.1527 58.6136 40.7839 58.2961 41.6182C57.6524 43.3096 58.6112 45.3029 58.6209 45.3221C58.6704 45.4231 58.6511 45.5433 58.5726 45.6251C58.4941 45.7056 58.3745 45.7308 58.2707 45.6852C57.8915 45.5193 56.7999 45.1754 56.3157 45.5734C55.9559 45.8679 56.0162 46.5423 56.131 47.0569C56.4908 48.6786 57.4617 49.3651 59.18 49.222C59.1836 49.2208 59.1908 49.2208 59.1993 49.2208Z" fill="black"/>
<path d="M66.4043 55.2246C63.0824 55.2246 61.5283 52.6604 61.5126 52.6327C61.4377 52.5053 61.48 52.3418 61.608 52.2661C61.736 52.1915 61.9002 52.2336 61.9763 52.361C62.0439 52.474 63.662 55.1189 67.2568 54.6296C67.4029 54.6115 67.5394 54.7125 67.5599 54.8592C67.5804 55.0059 67.4766 55.1405 67.3293 55.1609C67.0069 55.2042 66.6989 55.2246 66.4043 55.2246Z" fill="black"/>
<path d="M53.3937 161.888C50.2071 161.888 47.6133 159.307 47.6133 156.133C47.6133 152.959 50.2059 150.378 53.3937 150.378C56.5804 150.378 59.1742 152.959 59.1742 156.133C59.1742 159.307 56.5804 161.888 53.3937 161.888ZM53.3937 150.914C50.5029 150.914 48.1518 153.255 48.1518 156.133C48.1518 159.011 50.5029 161.351 53.3937 161.351C56.2846 161.351 58.6356 159.011 58.6356 156.133C58.6356 153.255 56.2834 150.914 53.3937 150.914Z" fill="black"/>
<path d="M68.9367 161.888C65.75 161.888 63.1562 159.307 63.1562 156.133C63.1562 152.959 65.7488 150.378 68.9367 150.378C72.1234 150.378 74.7172 152.959 74.7172 156.133C74.7172 159.307 72.1234 161.888 68.9367 161.888ZM68.9367 150.914C66.0459 150.914 63.6948 153.255 63.6948 156.133C63.6948 159.011 66.0459 161.351 68.9367 161.351C71.8275 161.351 74.1786 159.011 74.1786 156.133C74.1786 153.255 71.8275 150.914 68.9367 150.914Z" fill="black"/>
<path d="M84.7639 161.325C81.5772 161.325 78.9834 158.744 78.9834 155.57C78.9834 152.398 81.576 149.815 84.7639 149.815C87.9517 149.815 90.5443 152.397 90.5443 155.57C90.5431 158.743 87.9505 161.325 84.7639 161.325ZM84.7639 150.352C81.873 150.352 79.522 152.692 79.522 155.57C79.522 158.448 81.873 160.789 84.7639 160.789C87.6547 160.789 90.0058 158.448 90.0058 155.57C90.0058 152.692 87.6535 150.352 84.7639 150.352Z" fill="black"/>
<path d="M123.411 202.726C123.411 202.726 129.566 200.81 139.649 181.333C148.16 164.892 140.573 149.003 139.041 138.375C138.886 137.29 137.394 137.133 137.026 138.165C134.475 145.306 130.37 158.291 131.033 166.285C131.989 177.808 123.411 202.726 123.411 202.726Z" fill="white"/>
<path d="M123.411 202.994C123.34 202.994 123.27 202.965 123.218 202.913C123.146 202.841 123.124 202.735 123.156 202.639C123.242 202.39 131.705 177.642 130.764 166.308C130.095 158.247 134.24 145.159 136.771 138.076C136.978 137.498 137.525 137.15 138.133 137.209C138.747 137.27 139.218 137.724 139.307 138.337C139.652 140.735 140.316 143.439 141.02 146.302C143.468 156.261 146.513 168.656 139.887 181.456C129.868 200.81 123.747 202.901 123.491 202.981C123.464 202.99 123.437 202.994 123.411 202.994ZM137.998 137.739C137.725 137.739 137.415 137.873 137.278 138.256C134.762 145.3 130.639 158.304 131.3 166.265C132.167 176.707 125.168 198.31 123.869 202.206C125.571 201.238 131.202 197.065 139.408 181.212C145.942 168.59 142.923 156.303 140.498 146.431C139.791 143.555 139.123 140.839 138.774 138.414C138.709 137.963 138.36 137.771 138.08 137.743C138.053 137.74 138.026 137.739 137.998 137.739Z" fill="black"/>
<path d="M130.083 192.077L132.275 174.818C133.227 167.326 131.995 159.718 128.73 152.916C123.972 143.004 123.599 131.535 127.701 121.332L131.222 112.573C131.668 111.466 130.25 110.566 129.447 111.446L124.503 116.862C113.283 129.15 109.495 146.545 114.583 162.419L123.695 190.853L130.083 192.077Z" fill="white"/>
<path d="M130.083 192.345C130.066 192.345 130.049 192.344 130.032 192.34L123.643 191.117C123.546 191.099 123.467 191.028 123.438 190.936L114.326 162.502C109.221 146.572 113.044 129.015 124.303 116.684L129.248 111.268C129.765 110.702 130.469 110.743 130.938 111.035C131.413 111.331 131.762 111.952 131.473 112.675L127.951 121.434C123.886 131.546 124.259 142.98 128.973 152.803C132.268 159.668 133.502 167.294 132.542 174.855L130.349 192.114C130.34 192.187 130.301 192.254 130.241 192.298C130.195 192.328 130.139 192.345 130.083 192.345ZM123.901 190.621L129.851 191.759L132.007 174.785C132.955 167.326 131.738 159.804 128.486 153.03C123.707 143.072 123.329 131.482 127.45 121.231L130.971 112.472C131.159 112.008 130.916 111.651 130.651 111.486C130.393 111.325 129.975 111.265 129.646 111.625L124.701 117.041C113.571 129.231 109.791 146.587 114.838 162.336L123.901 190.621Z" fill="black"/>
<path d="M127.256 192.643L119.651 173.303C117.487 167.801 112.935 163.598 107.296 161.898L102.11 160.334C100.851 159.954 100.005 161.611 101.047 162.416L104.235 164.884C107.688 167.558 109.75 171.661 109.84 176.042C109.893 178.616 110.63 181.13 111.973 183.322L117.126 191.738L127.256 192.643Z" fill="white"/>
<path d="M127.256 192.911C127.248 192.911 127.24 192.911 127.232 192.91L117.102 192.005C117.017 191.997 116.941 191.949 116.897 191.877L111.743 183.462C110.377 181.231 109.626 178.668 109.572 176.048C109.482 171.726 107.477 167.735 104.07 165.096L100.882 162.628C100.217 162.112 100.201 161.338 100.481 160.8C100.758 160.267 101.392 159.838 102.188 160.078L107.374 161.642C113.128 163.377 117.695 167.592 119.902 173.206L127.507 192.546C127.541 192.632 127.528 192.73 127.472 192.804C127.42 192.871 127.341 192.911 127.256 192.911ZM117.284 191.483L126.847 192.338L119.4 173.401C117.253 167.941 112.813 163.841 107.217 162.154L102.031 160.59C101.497 160.429 101.119 160.735 100.958 161.046C100.793 161.363 100.76 161.857 101.211 162.206L104.399 164.674C107.934 167.412 110.015 171.553 110.108 176.037C110.16 178.562 110.884 181.034 112.201 183.183L117.284 191.483Z" fill="black"/>
<path d="M126.131 183.824C126.123 183.824 126.114 183.824 126.106 183.823C125.958 183.808 125.848 183.678 125.863 183.53C127.023 171.177 124.531 163.224 122.332 156.208C121.317 152.966 120.357 149.904 119.787 146.613C117.097 131.074 126.266 117.592 126.359 117.457C126.444 117.336 126.61 117.304 126.734 117.389C126.856 117.473 126.887 117.639 126.802 117.761C126.711 117.894 117.666 131.204 120.317 146.521C120.881 149.778 121.835 152.824 122.845 156.049C125.059 163.113 127.568 171.12 126.398 183.58C126.386 183.719 126.269 183.824 126.131 183.824Z" fill="black"/>
<path d="M136.261 175.566C136.246 175.566 136.23 175.565 136.216 175.563C136.07 175.537 135.971 175.399 135.995 175.254C138.067 163.056 137.35 144.277 137.342 144.089C137.336 143.941 137.452 143.816 137.601 143.812C137.752 143.802 137.874 143.921 137.88 144.069C137.887 144.258 138.607 163.091 136.525 175.344C136.503 175.474 136.39 175.566 136.261 175.566Z" fill="black"/>
<path d="M118.101 185.671C117.954 185.671 117.833 185.554 117.832 185.406C117.684 170.205 105.491 163.534 105.368 163.468C105.236 163.399 105.188 163.236 105.258 163.105C105.328 162.974 105.491 162.926 105.622 162.996C105.748 163.063 118.222 169.887 118.371 185.4C118.373 185.548 118.253 185.669 118.105 185.67C118.103 185.671 118.102 185.671 118.101 185.671Z" fill="black"/>
<path d="M119.752 157.241C119.673 157.241 119.593 157.205 119.54 157.138C116.241 152.919 114.779 147.217 114.764 147.16C114.728 147.016 114.815 146.871 114.96 146.835C115.102 146.8 115.249 146.885 115.286 147.03C115.3 147.086 116.737 152.681 119.965 156.809C120.055 156.926 120.035 157.094 119.918 157.186C119.868 157.223 119.81 157.241 119.752 157.241Z" fill="black"/>
<path d="M126.149 215.115H124.762C117.188 215.115 111.048 209.002 111.048 201.462V187.967H139.863V201.462C139.863 209.002 133.723 215.115 126.149 215.115Z" fill="white"/>
<path d="M126.149 215.382H124.762C117.051 215.382 110.778 209.137 110.778 201.461V187.966C110.778 187.818 110.899 187.698 111.048 187.698H139.863C140.011 187.698 140.132 187.818 140.132 187.966V201.461C140.132 209.138 133.859 215.382 126.149 215.382ZM111.317 188.236V201.462C111.317 208.842 117.349 214.847 124.762 214.847H126.149C133.562 214.847 139.594 208.842 139.594 201.462V188.236H111.317Z" fill="black"/>
<path d="M137.037 193.028H113.871C113.722 193.028 113.602 192.908 113.602 192.76C113.602 192.612 113.722 192.492 113.871 192.492H137.037C137.186 192.492 137.307 192.612 137.307 192.76C137.307 192.908 137.186 193.028 137.037 193.028Z" fill="black"/>
</g>
<defs>
<clipPath id="clip0_259_410">
<rect width="223" height="220" fill="white"/>
</clipPath>
</defs>
</svg>
