<svg width="111" height="58" viewBox="0 0 111 58" fill="none" xmlns="http://www.w3.org/2000/svg">
<path d="M54.7328 35.5114H64.9018V37.9252H54.5588C54.454 37.9252 54.315 37.9483 54.2103 37.9483C52.922 38.0646 52.5389 38.274 52.365 39.0166C52.3298 39.1328 52.3298 39.2259 52.3298 39.3189V40.9668C52.3298 41.0832 52.3298 41.1763 52.365 41.2925C52.5391 42.2677 53.2355 42.7079 54.6977 42.7079H59.0856C60.1654 42.7079 61.2791 42.894 62.1855 43.2427C63.8915 43.8924 64.7628 44.8674 64.7628 45.9123V48.5587C64.7628 49.8361 63.9963 50.8115 62.4294 51.5305C61.4882 51.9718 60.3048 52.2265 59.0854 52.2265H48.6731V49.8127H58.6685C58.8079 49.8127 58.9118 49.7897 59.0514 49.7897C59.7474 49.743 60.2699 49.5571 60.5829 49.2779C60.9319 49.0005 61.1055 48.6748 61.1055 48.419V46.3069C61.1055 46.0752 61.0358 45.8658 60.8273 45.6565C60.4793 45.2389 59.9907 45.0302 58.8419 44.9373C58.7373 44.9141 58.5986 44.9141 58.4591 44.9141H54.6975C54.3494 44.9141 54.0016 44.8908 53.6526 44.8674C50.5536 44.5428 48.708 43.1498 48.708 41.5242V39.412C48.708 37.5548 49.6483 36.4864 51.8074 35.8131C52.5038 35.6044 53.2701 35.5114 54.7328 35.5114ZM82.9261 51.4942L86.4939 54.7141H82.288L79.402 52.1088L76.4962 52.2932H72.6223C71.9594 52.2932 71.2615 52.2 70.4939 51.9907C68.1912 51.3627 67.0738 50.1532 67.0738 48.1518V39.5443C67.0738 37.3571 68.61 36.0303 71.6453 35.6117C71.9594 35.565 72.3084 35.542 72.6223 35.542H79.4977C79.8465 35.542 80.1606 35.565 80.5095 35.6117C83.5448 36.0303 85.0802 37.3571 85.0802 39.5443V48.1518C85.0805 49.9258 84.4292 50.8759 82.9261 51.4942ZM81.696 39.7539C81.696 39.6607 81.696 39.5443 81.6611 39.4271C81.4518 38.4968 80.5097 37.9616 79.1142 37.9616H73.6353C72.0294 37.9616 70.9836 38.6595 70.9836 39.7537V47.9423C70.9836 48.0587 71.0184 48.1749 71.0524 48.3145C71.2618 49.3155 72.2047 49.8738 73.6353 49.8738H76.9249L73.9027 47.145H78.1086L80.7451 49.5248C81.23 49.2654 81.5501 48.87 81.6611 48.361C81.696 48.2456 81.696 48.1284 81.696 48.012V39.7539ZM23.9179 35.5345C21.1668 34.6756 19.3207 35.4183 18.4853 37.2755L12.9829 49.5803L7.65484 37.2755C6.85369 35.4183 4.9732 34.6756 2.22228 35.5345C1.07304 35.8825 0.515625 36.5561 0.515625 37.9483V52.2267H4.13697V37.925L9.74422 50.3927C10.4058 51.9021 11.3113 52.436 13.087 52.436C14.8633 52.436 15.7338 51.9021 16.3957 50.3927L22.0026 37.925V52.2267H25.6245V37.9483C25.6243 36.5561 25.0671 35.8825 23.9179 35.5345ZM42.2531 40.5482V49.9293C42.1896 49.9293 35.3899 49.9454 34.3777 49.9293C32.3937 49.8987 32.2225 48.8934 32.2565 48.4655V40.5856H28.6358C28.7149 40.6643 28.6349 48.5479 28.6375 48.7142C28.6657 50.5123 30.9465 52.0746 34.5279 52.1084H42.2258V53.0575C42.2262 53.4476 42.5014 54.6063 40.1704 54.8533C40.1418 54.855 28.7343 54.8533 28.7145 54.8533V57.2903H40.1504C41.9642 57.2365 45.8994 56.5511 45.8792 53.3957C45.8788 53.3411 45.8994 40.5477 45.8824 40.5477H42.2531V40.5482ZM108.221 49.9293L109.096 51.2678H108.499L107.702 49.9508H107.225V51.2678H106.713V48.2207H107.901C108.655 48.2207 109.047 48.4773 109.047 49.0965C109.047 49.652 108.691 49.8794 108.221 49.9293ZM107.772 49.5233C108.157 49.5233 108.492 49.4874 108.492 49.0616C108.492 48.7058 108.121 48.6484 107.815 48.6484H107.225V49.5233H107.772ZM110.449 49.7443C110.449 51.3384 109.189 52.4128 107.779 52.4128C106.371 52.4128 105.111 51.3384 105.111 49.7443C105.111 48.1499 106.371 47.0755 107.779 47.0755C109.189 47.0755 110.449 48.1499 110.449 49.7443ZM109.851 49.7443C109.851 48.5337 108.926 47.6301 107.779 47.6301C106.62 47.6301 105.708 48.5337 105.708 49.7443C105.708 50.9537 106.62 51.8582 107.779 51.8582C108.926 51.8582 109.851 50.9537 109.851 49.7443ZM78.2999 7.38655C77.8356 7.37794 77.5071 7.43689 77.1601 7.51305C77.1601 7.53413 77.1601 7.555 77.1601 7.57608C77.1816 7.57608 77.202 7.57608 77.2236 7.57608C77.4454 8.03109 77.8365 8.3241 78.1101 8.71607C78.3205 9.15947 78.5316 9.60221 78.7426 10.045C78.7641 10.0239 78.7854 10.003 78.8061 9.98192C79.1987 9.70591 79.3777 9.26402 79.376 8.58936C79.2185 8.42371 79.195 8.21675 79.0591 8.01947C78.8788 7.75636 78.5281 7.60771 78.2999 7.38655ZM108.939 39.8621C109.237 40.0813 109.438 40.4212 109.825 40.5589C109.825 40.5374 109.825 40.5161 109.825 40.4954C109.621 40.2368 109.569 39.8799 109.382 39.6089C109.109 39.3352 108.833 39.0605 108.559 38.7858C107.754 37.7176 106.733 36.7801 105.647 36.0009C104.782 35.3789 102.843 34.5399 102.482 33.5324C102.461 33.5109 102.44 33.4896 102.418 33.4681C103.032 33.3993 103.751 33.1772 104.318 33.0251C105.269 32.77 106.12 32.8362 107.103 32.5822C107.546 32.455 107.989 32.3281 108.432 32.2027C108.432 32.1177 108.432 32.0338 108.432 31.9486C107.935 31.4387 107.581 30.7641 107.04 30.3026C105.622 29.0961 104.075 27.8897 102.482 26.8846C101.599 26.3265 100.506 25.9644 99.5697 25.4916C99.2548 25.3328 98.7019 25.25 98.4934 24.9851C98.0023 24.3578 97.734 23.5629 97.3545 22.8325C96.5602 21.3023 95.7791 19.6311 95.0749 18.021C94.5954 16.9234 94.2815 15.8409 93.6828 14.8558C90.8084 10.1299 87.7137 7.27726 82.9212 4.47342C81.9006 3.87728 80.673 3.64193 79.376 3.33429C78.68 3.29234 77.9828 3.24952 77.2868 3.20757C76.8619 3.03009 76.42 2.51032 76.021 2.25797C74.4328 1.25502 70.3597 -0.927087 69.1842 1.94172C68.4416 3.75208 70.2934 5.51876 70.9563 6.43652C71.4216 7.07998 72.0164 7.80176 72.3495 8.52525C72.5678 9.00091 72.6051 9.47829 72.7933 9.98149C73.2533 11.2215 73.653 12.5704 74.248 13.7166C74.5494 14.2962 74.8814 14.9074 75.2617 15.4257C75.4952 15.7439 75.894 15.8839 75.9566 16.3753C75.5666 16.9224 75.5442 17.7713 75.325 18.4642C74.3354 21.5841 74.7086 25.4612 76.1481 27.7705C76.5891 28.4789 77.6295 29.9997 79.0591 29.416C80.3097 28.9066 80.0308 27.3275 80.3886 25.9345C80.4691 25.6181 80.42 25.3859 80.5783 25.1749C80.5783 25.1955 80.5783 25.2168 80.5783 25.2379C80.9587 25.9976 81.3386 26.7572 81.7181 27.5166C82.5619 28.8748 84.0586 30.2951 85.327 31.2522C85.9838 31.7487 86.5016 32.6076 87.3525 32.8982C87.3525 32.8767 87.3525 32.8554 87.3525 32.8339C87.331 32.8339 87.3095 32.8339 87.289 32.8339C87.1234 32.5781 86.8656 32.4707 86.6565 32.2648C86.1609 31.7789 85.6099 31.1752 85.1999 30.6186C84.0459 29.0527 83.0268 27.3385 82.0983 25.5546C81.6544 24.7025 81.2689 23.7625 80.8948 22.8958C80.7509 22.5612 80.7526 22.0559 80.4519 21.8827C80.0422 22.5178 79.4392 23.0319 79.1223 23.7819C78.6159 24.9811 78.5507 26.4433 78.3629 27.9598C78.2519 27.9998 78.3012 27.9725 78.2358 28.0228C77.3537 27.8107 77.0441 26.9029 76.7167 26.1241C75.8882 24.1552 75.7344 20.9843 76.4635 18.7174C76.6522 18.1312 77.5058 16.2838 77.1594 15.7421C76.9947 15.2013 76.4517 14.8891 76.1477 14.4759C75.7699 13.9651 75.3943 13.2933 75.1331 12.7032C74.4559 11.168 74.1392 9.44452 73.4251 7.89233C73.0835 7.15076 72.5063 6.39951 72.0322 5.7397C71.5072 5.0091 70.9193 4.47127 70.5129 3.58707C70.3681 3.27319 70.1712 2.77085 70.386 2.44793C70.4537 2.23 70.5505 2.13922 70.7663 2.06801C71.134 1.78489 72.1556 2.16224 72.5384 2.32122C73.5529 2.74267 74.401 3.14432 75.2609 3.71378C75.6733 3.98743 76.0909 4.51709 76.5893 4.6636C76.7799 4.6636 76.9697 4.6636 77.1592 4.6636C78.0512 4.86819 79.0496 4.72749 79.8815 4.98028C81.3533 5.42754 82.672 6.12328 83.8697 6.87969C87.5181 9.18313 90.5016 12.4631 92.5424 16.3753C92.8707 17.0052 93.0131 17.6063 93.3018 18.2747C93.885 19.6221 94.6206 21.0082 95.201 22.3261C95.7799 23.6401 96.3444 24.9669 97.163 26.061C97.5933 26.6359 99.2563 26.9444 100.012 27.2641C100.542 27.4876 101.41 27.7212 101.911 28.0228C102.87 28.6013 103.798 29.2893 104.697 29.9227C105.146 30.2396 106.527 30.9336 106.595 31.5046C104.369 31.4456 102.669 31.6524 101.215 32.2651C100.801 32.4387 100.143 32.4438 100.075 32.9608C100.302 33.1987 100.338 33.555 100.519 33.8474C100.865 34.4093 101.451 35.1616 101.974 35.557C102.546 35.9884 103.135 36.4499 103.747 36.8231C104.836 37.4879 106.053 37.8671 107.102 38.5326C107.722 38.9254 108.336 39.4191 108.939 39.8621ZM90.9779 48.0023V35.5112H87.3564V48.0253C87.3564 50.5088 89.202 51.9021 92.9281 52.1809C93.276 52.2032 93.6241 52.2265 93.973 52.2265H103.411V49.8127H93.9031C91.7795 49.8129 90.9779 49.2781 90.9779 48.0023Z" fill="black"/>
</svg>
