<svg width="107" height="55" viewBox="0 0 107 55" fill="none" xmlns="http://www.w3.org/2000/svg">
<path d="M52.5229 33.9017H62.3741V36.2401H52.3543C52.2528 36.2401 52.1182 36.2624 52.0167 36.2624C50.7687 36.3751 50.3975 36.5779 50.2291 37.2974C50.195 37.4099 50.195 37.5001 50.195 37.5902V39.1866C50.195 39.2994 50.195 39.3896 50.2291 39.5021C50.3977 40.4469 51.0724 40.8733 52.4889 40.8733H56.7397C57.7857 40.8733 58.8646 41.0536 59.7427 41.3914C61.3954 42.0208 62.2394 42.9653 62.2394 43.9776V46.5412C62.2394 47.7788 61.4969 48.7237 59.979 49.4202C59.0672 49.8477 57.9207 50.0944 56.7395 50.0944H46.6526V47.7561H56.3356C56.4706 47.7561 56.5713 47.7337 56.7065 47.7337C57.3808 47.6885 57.887 47.5084 58.1902 47.2379C58.5283 46.9693 58.6965 46.6538 58.6965 46.406V44.3598C58.6965 44.1353 58.6289 43.9325 58.427 43.7298C58.0898 43.3252 57.6165 43.1231 56.5036 43.033C56.4023 43.0105 56.2678 43.0105 56.1328 43.0105H52.4887C52.1515 43.0105 51.8145 42.988 51.4765 42.9653C48.4743 42.6508 46.6863 41.3013 46.6863 39.7266V37.6804C46.6863 35.8812 47.5973 34.8462 49.6889 34.1939C50.3636 33.9918 51.1059 33.9017 52.5229 33.9017ZM79.8352 49.385L83.2914 52.5043H79.217L76.4212 49.9804L73.6062 50.159H69.8533C69.2112 50.159 68.5351 50.0688 67.7915 49.866C65.5607 49.2576 64.4782 48.086 64.4782 46.1471V37.8086C64.4782 35.6897 65.9665 34.4044 68.9069 33.9988C69.2112 33.9536 69.5492 33.9313 69.8533 33.9313H76.5139C76.8518 33.9313 77.156 33.9536 77.4941 33.9988C80.4346 34.4044 81.922 35.6897 81.922 37.8086V46.1471C81.9222 47.8657 81.2913 48.786 79.8352 49.385ZM78.6435 38.0116C78.6435 37.9213 78.6435 37.8086 78.6097 37.695C78.4069 36.7938 77.4943 36.2753 76.1423 36.2753H70.8347C69.2789 36.2753 68.2658 36.9514 68.2658 38.0114V45.9441C68.2658 46.0569 68.2996 46.1694 68.3325 46.3047C68.5353 47.2744 69.4488 47.8152 70.8347 47.8152H74.0215L71.0938 45.1717H75.1682L77.7223 47.4772C78.192 47.2258 78.5022 46.8428 78.6097 46.3497C78.6435 46.238 78.6435 46.1244 78.6435 46.0117V38.0116ZM22.6709 33.924C20.0058 33.092 18.2174 33.8115 17.4082 35.6107L12.0776 47.531L6.91612 35.6107C6.14 33.8115 4.31828 33.092 1.65332 33.924C0.539993 34.2612 0 34.9138 0 36.2624V50.0946H3.50818V36.2399L8.94021 48.3179C9.58107 49.7801 10.4583 50.2974 12.1785 50.2974C13.8993 50.2974 14.7426 49.7801 15.3839 48.3179L20.8155 36.2399V50.0946H24.3243V36.2624C24.3241 34.9138 23.7843 34.2612 22.6709 33.924ZM40.4332 38.781V47.869C40.3717 47.869 33.7845 47.8846 32.8039 47.869C30.8819 47.8394 30.716 46.8655 30.749 46.451V38.8173H27.2414C27.3181 38.8936 27.2406 46.5308 27.2431 46.6919C27.2704 48.4338 29.4799 49.9473 32.9494 49.98H40.4067V50.8995C40.4071 51.2774 40.6737 52.3999 38.4156 52.6391C38.3878 52.6408 27.3368 52.6391 27.3177 52.6391V55H38.3962C40.1533 54.9479 43.9655 54.2839 43.946 51.2271C43.9455 51.1742 43.9655 38.7806 43.9491 38.7806H40.4332V38.781ZM104.34 47.869L105.187 49.1657H104.609L103.836 47.8898H103.374V49.1657H102.879V46.2138H104.029C104.76 46.2138 105.14 46.4624 105.14 47.0622C105.14 47.6004 104.795 47.8207 104.34 47.869ZM103.905 47.4757C104.277 47.4757 104.602 47.4409 104.602 47.0285C104.602 46.6838 104.243 46.6281 103.946 46.6281H103.374V47.4757H103.905ZM106.498 47.6898C106.498 49.2341 105.278 50.2749 103.912 50.2749C102.547 50.2749 101.326 49.2341 101.326 47.6898C101.326 46.1452 102.547 45.1044 103.912 45.1044C105.278 45.1044 106.498 46.1452 106.498 47.6898ZM105.919 47.6898C105.919 46.517 105.023 45.6417 103.912 45.6417C102.788 45.6417 101.905 46.517 101.905 47.6898C101.905 48.8615 102.788 49.7376 103.912 49.7376C105.023 49.7376 105.919 48.8615 105.919 47.6898ZM75.3535 6.65574C74.9037 6.6474 74.5855 6.7045 74.2493 6.77828C74.2493 6.7987 74.2493 6.81892 74.2493 6.83934C74.2702 6.83934 74.29 6.83934 74.3108 6.83934C74.5257 7.28013 74.9046 7.56399 75.1697 7.94371C75.3735 8.37325 75.5779 8.80216 75.7824 9.23107C75.8032 9.21064 75.8239 9.19043 75.8439 9.17C76.2242 8.90261 76.3976 8.47454 76.396 7.82096C76.2434 7.66048 76.2207 7.45999 76.089 7.26888C75.9143 7.01399 75.5746 6.86998 75.3535 6.65574ZM105.035 38.1164C105.324 38.3288 105.518 38.6581 105.894 38.7915C105.894 38.7706 105.894 38.75 105.894 38.73C105.696 38.4795 105.646 38.1337 105.465 37.8711C105.199 37.606 104.932 37.3399 104.667 37.0737C103.887 36.039 102.898 35.1307 101.846 34.3759C101.008 33.7733 99.1301 32.9605 98.7799 31.9845C98.7599 31.9637 98.7391 31.9431 98.7182 31.9222C99.3128 31.8555 100.01 31.6405 100.558 31.4931C101.48 31.2459 102.305 31.3101 103.256 31.064C103.686 30.9408 104.115 30.8179 104.544 30.6964C104.544 30.614 104.544 30.5328 104.544 30.4502C104.063 29.9563 103.72 29.3027 103.196 28.8557C101.822 27.6869 100.323 26.5181 98.7797 25.5444C97.9244 25.0038 96.8659 24.6531 95.9587 24.195C95.6535 24.0412 95.1179 23.9609 94.916 23.7044C94.4402 23.0966 94.1803 22.3266 93.8127 21.619C93.0432 20.1366 92.2865 18.5177 91.6043 16.9579C91.1398 15.8946 90.8357 14.8459 90.2557 13.8916C87.4711 9.31339 84.4731 6.54986 79.8304 3.83364C78.8417 3.25613 77.6525 3.02813 76.396 2.73011C75.7217 2.68947 75.0463 2.64799 74.3721 2.60735C73.9605 2.43541 73.5324 1.93189 73.1458 1.68742C71.6073 0.715812 67.6615 -1.3981 66.5227 1.38106C65.8033 3.13484 67.5973 4.84631 68.2394 5.73539C68.6902 6.35875 69.2664 7.05797 69.5891 7.75885C69.8006 8.21965 69.8366 8.68211 70.019 9.16959C70.4646 10.3709 70.8518 11.6776 71.4283 12.788C71.7203 13.3495 72.0418 13.9416 72.4103 14.4436C72.6364 14.7519 73.0228 14.8876 73.0835 15.3636C72.7056 15.8936 72.684 16.7159 72.4716 17.3872C71.5129 20.4096 71.8745 24.1656 73.269 26.4027C73.6962 27.089 74.7041 28.5622 76.089 27.9968C77.3005 27.5033 77.0304 25.9736 77.377 24.6241C77.4549 24.3175 77.4074 24.0926 77.5608 23.8882C77.5608 23.9082 77.5608 23.9288 77.5608 23.9493C77.9292 24.6852 78.2973 25.4211 78.6649 26.1567C79.4823 27.4724 80.9322 28.8484 82.161 29.7756C82.7973 30.2566 83.299 31.0886 84.1232 31.3701C84.1232 31.3493 84.1232 31.3287 84.1232 31.3078C84.1024 31.3078 84.0815 31.3078 84.0617 31.3078C83.9013 31.06 83.6516 30.956 83.449 30.7566C82.9688 30.2858 82.4351 29.701 82.0378 29.1618C80.9199 27.6448 79.9327 25.9842 79.0332 24.256C78.6032 23.4305 78.2298 22.52 77.8673 21.6803C77.7279 21.3562 77.7296 20.8667 77.4382 20.6989C77.0414 21.3141 76.4572 21.8122 76.1502 22.5387C75.6596 23.7004 75.5965 25.117 75.4146 26.5861C75.307 26.6248 75.3547 26.5984 75.2914 26.6471C74.4369 26.4416 74.137 25.5622 73.8198 24.8077C73.0172 22.9003 72.8682 19.8286 73.5745 17.6325C73.7573 17.0646 74.5842 15.275 74.2487 14.7502C74.0891 14.2263 73.563 13.9239 73.2685 13.5235C72.9026 13.0287 72.5387 12.3779 72.2857 11.8062C71.6296 10.319 71.3228 8.64939 70.6311 7.14571C70.3001 6.42732 69.741 5.69955 69.2816 5.06035C68.7731 4.35259 68.2035 3.83156 67.8098 2.97499C67.6696 2.67092 67.4789 2.18428 67.6869 1.87145C67.7525 1.66033 67.8463 1.57238 68.0554 1.5034C68.4115 1.22913 69.4013 1.59468 69.772 1.7487C70.7549 2.15698 71.5765 2.54608 72.4095 3.09774C72.809 3.36284 73.2135 3.87595 73.6964 4.01788C73.8811 4.01788 74.0649 4.01788 74.2485 4.01788C75.1126 4.21608 76.0798 4.07978 76.8857 4.32466C78.3115 4.75795 79.589 5.43194 80.7493 6.16472C84.2837 8.39617 87.1739 11.5736 89.1509 15.3636C89.469 15.9738 89.6069 16.5561 89.8866 17.2036C90.4516 18.5089 91.1642 19.8517 91.7265 21.1284C92.2873 22.4014 92.8342 23.6867 93.6272 24.7466C94.044 25.3035 95.655 25.6024 96.3876 25.9121C96.9007 26.1286 97.7412 26.3549 98.2266 26.6471C99.1557 27.2076 100.055 27.8741 100.925 28.4876C101.36 28.7946 102.699 29.4669 102.765 30.0201C100.608 29.963 98.9606 30.1632 97.5522 30.7568C97.1518 30.925 96.5139 30.93 96.448 31.4308C96.6681 31.6613 96.7029 32.0064 96.878 32.2897C97.2133 32.834 97.781 33.5628 98.2881 33.9459C98.8418 34.3638 99.4122 34.8108 100.005 35.1724C101.061 35.8164 102.239 36.1838 103.255 36.8284C103.856 37.209 104.451 37.6873 105.035 38.1164ZM87.6354 46.0023V33.9015H84.127V46.0246C84.127 48.4305 85.9149 49.7801 89.5246 50.0502C89.8616 50.0719 90.1988 50.0944 90.5368 50.0944H99.6794V47.7561H90.4691C88.4119 47.7563 87.6354 47.2381 87.6354 46.0023Z" fill="black"/>
</svg>
