<svg width="61" height="61" viewBox="0 0 61 61" fill="none" xmlns="http://www.w3.org/2000/svg">
<path d="M46.7031 0H14.2969C6.40093 0 0 6.40093 0 14.2969V46.7031C0 54.5991 6.40093 61 14.2969 61H46.7031C54.5991 61 61 54.5991 61 46.7031V14.2969C61 6.40093 54.5991 0 46.7031 0Z" fill="#F4F2ED"/>
<path d="M28.9393 6.68475C28.8368 6.69404 28.5106 6.72669 28.217 6.7498C21.4484 7.36004 15.1082 11.0124 11.0925 16.6258C8.85668 19.7471 7.42627 23.2875 6.88609 27.0378C6.69523 28.3469 6.67188 28.7336 6.67188 30.5083C6.67188 32.2833 6.69523 32.67 6.88633 33.9789C8.18115 42.9278 14.5495 50.4468 23.1862 53.2325C24.7329 53.731 26.3632 54.071 28.2173 54.2759C28.9395 54.3551 32.0605 54.3551 32.7827 54.2759C35.9831 53.9219 38.6943 53.1301 41.3682 51.7649C41.7781 51.5555 41.8574 51.4995 41.8014 51.453C41.7643 51.4249 40.0172 49.0816 37.921 46.2494L34.1104 41.1019L29.3353 34.0349C26.708 30.1497 24.5465 26.9725 24.5277 26.9725C24.5091 26.968 24.4905 30.1078 24.4813 33.9417C24.4672 40.6546 24.4627 40.9248 24.3788 41.083C24.2577 41.3113 24.1646 41.4045 23.9687 41.5072C23.8198 41.5815 23.6892 41.5956 22.9858 41.5956H22.1799L21.9655 41.4605C21.8327 41.3773 21.7249 41.2598 21.6533 41.1204L21.5556 40.9108L21.5652 31.5706L21.579 22.2257L21.7234 22.0439C21.798 21.9462 21.9564 21.8204 22.0682 21.7598C22.259 21.6667 22.3336 21.6574 23.1395 21.6574C24.09 21.6574 24.2482 21.6946 24.4953 21.9648C24.5651 22.0394 27.1505 25.9338 30.2438 30.6249C33.3755 35.3731 36.5091 40.12 39.6445 44.8657L43.4179 50.5819L43.609 50.4561C45.2999 49.3566 47.0889 47.7914 48.505 46.1608C51.519 42.6995 53.4617 38.4791 54.1139 33.9789C54.3048 32.67 54.3281 32.2833 54.3281 30.5083C54.3281 28.7334 54.3048 28.3469 54.1139 27.0378C52.8189 18.0889 46.4505 10.5702 37.8138 7.78442C36.2905 7.29046 34.6694 6.95043 32.8525 6.74551C32.4053 6.69881 29.326 6.64782 28.9395 6.68499M38.6943 21.0984C38.9178 21.2101 39.0996 21.4243 39.1649 21.6479C39.202 21.7691 39.2113 24.3593 39.202 30.1962L39.188 38.5723L37.7113 36.3081L36.2299 34.0442V27.9556C36.2299 24.0192 36.2485 21.8063 36.2764 21.6991C36.351 21.4384 36.514 21.2335 36.7377 21.1122C36.9286 21.0145 36.9986 21.005 37.7299 21.005C38.4195 21.005 38.5406 21.0145 38.6943 21.0984Z" fill="black"/>
</svg>
