<svg width="61" height="61" viewBox="0 0 61 61" fill="none" xmlns="http://www.w3.org/2000/svg">
<path d="M30.75 37.9379V41.6876H38.2495C39.244 41.6876 40.1978 41.2926 40.901 40.5893C41.6042 39.8861 41.9993 38.9324 41.9993 37.9379V34.1881C41.9993 33.1936 41.6042 32.2398 40.901 31.5366C40.1978 30.8334 39.244 30.4384 38.2495 30.4384H34.4998V26.6886H41.9993V22.9388H34.4998C33.5053 22.9388 32.5515 23.3339 31.8483 24.0371C31.1451 24.7403 30.75 25.6941 30.75 26.6886V30.4384C30.75 31.4329 31.1451 32.3866 31.8483 33.0898C32.5515 33.793 33.5053 34.1881 34.4998 34.1881H38.2495V37.9379H30.75Z" fill="#8BC34A"/>
<path d="M30.7505 6.06494L8.25195 19.1891V45.4374L15.7515 49.1871H27.0007V23.8763C27.0007 23.6277 26.902 23.3892 26.7262 23.2134C26.5504 23.0376 26.3119 22.9388 26.0633 22.9388H24.1884C23.9398 22.9388 23.7013 23.0376 23.5255 23.2134C23.3497 23.3892 23.251 23.6277 23.251 23.8763V45.4374H15.7515L12.0017 43.4988V21.3396L30.7505 10.4034L49.4993 21.3396V43.2813L30.7505 54.2174L27.4788 52.3013L25.1259 55.2805L30.7505 58.5615L53.249 45.4374V19.1891L30.7505 6.06494Z" fill="#8BC34A"/>
</svg>
