<svg width="262" height="201" viewBox="0 0 262 201" fill="none" xmlns="http://www.w3.org/2000/svg">
<path d="M175.783 130.389C175.773 133.33 175.192 150.85 166.576 154.832C157.412 159.064 118.91 161.958 113.771 154.227C113.037 153.12 112.366 151.895 112.187 150.59C112.082 149.862 112.106 149.124 112.291 148.425C112.371 148.103 112.489 147.787 112.641 147.484C113.165 146.443 114.05 145.63 114.934 144.868C119.143 141.237 123.744 138.508 128.487 135.676C131.877 133.656 135.513 130.89 136.1 126.7C137.253 118.491 130.827 108.727 134.643 100.603C135.338 99.1181 136.615 97.9925 137.934 97.0233C145.623 91.4057 165.247 94.4885 166.694 95.0749C177.731 99.5392 175.816 118.662 175.783 130.389Z" fill="#FFD386"/>
<path d="M149.514 151.318H145.73V188.16H149.514V151.318Z" fill="#56AECE"/>
<path d="M153.465 187.448L147.623 184.858L141.704 187.436C139.981 188.187 138.189 188.778 136.347 189.154C132.32 189.976 129.742 191.235 129.742 192.647C129.742 195.125 137.677 197.134 147.465 197.134C157.254 197.134 165.189 195.125 165.189 192.647C165.189 191.266 162.724 190.032 158.848 189.208C156.997 188.816 155.194 188.216 153.465 187.448Z" fill="#56AECE"/>
<path d="M175.783 130.389C175.773 133.33 175.192 150.85 166.576 154.832C157.412 159.064 118.91 161.958 113.771 154.226C113.037 153.12 112.366 151.895 112.187 150.59C112.082 149.862 112.106 149.124 112.291 148.425C113.203 148.548 114.144 148.798 115.104 149.191C129.077 154.865 160.235 150.373 165.399 144.698C170.562 139.024 172.53 117.272 166.695 107.342C160.859 97.4113 166.695 95.0752 166.695 95.0752C177.731 99.5391 175.816 118.662 175.783 130.389Z" fill="#EDBE72"/>
<path d="M53.4201 188.16H57.2031L57.2031 151.318H53.4201L53.4201 188.16Z" fill="#56AECE"/>
<path d="M27.1548 130.389C27.1645 133.33 27.746 150.85 36.3617 154.832C45.5259 159.064 84.0271 161.958 89.1669 154.227C89.9001 153.12 90.5712 151.895 90.751 150.59C90.8552 149.862 90.8314 149.124 90.6468 148.425C90.5663 148.103 90.4481 147.787 90.2969 147.484C89.7721 146.443 88.8878 145.63 88.0035 144.868C83.7949 141.237 79.1939 138.508 74.451 135.676C71.0604 133.656 67.4242 130.89 66.8378 126.7C65.6841 118.491 72.1105 108.727 68.2945 100.603C67.5991 99.1181 66.3227 97.9925 65.0033 97.0233C57.3146 91.4057 37.6904 94.4885 36.2434 95.0749C25.2063 99.5392 27.1214 118.662 27.1548 130.389Z" fill="#FFD386"/>
<path d="M27.1548 130.389C27.1645 133.33 27.746 150.85 36.3617 154.832C45.5259 159.064 84.0271 161.958 89.1669 154.226C89.9001 153.12 90.5712 151.895 90.751 150.59C90.8552 149.862 90.8314 149.124 90.6468 148.425C89.7343 148.548 88.7933 148.798 87.8334 149.191C73.8603 154.865 42.7028 150.373 37.5387 144.698C32.3751 139.024 30.4077 117.272 36.2429 107.342C42.0782 97.4113 36.2429 95.0752 36.2429 95.0752C25.2063 99.5391 27.1214 118.662 27.1548 130.389Z" fill="#EDBE72"/>
<path d="M49.4737 187.448L55.3157 184.858L61.2348 187.436C62.9579 188.187 64.7499 188.778 66.5917 189.154C70.619 189.976 73.1964 191.235 73.1964 192.647C73.1964 195.125 65.2616 197.134 55.4732 197.134C45.6849 197.134 37.75 195.125 37.75 192.647C37.75 191.266 40.215 190.032 44.0906 189.208C45.9412 188.816 47.7443 188.216 49.4737 187.448Z" fill="#56AECE"/>
<path d="M75.7056 195.531C81.0252 196.276 97.2477 195.973 98.167 194.822C100.134 192.359 96.0392 190.212 85.8724 187.783C85.5943 187.717 84.173 185.63 84.0087 184.489C82.2134 184.401 78.9018 186.985 77.106 186.896C77.0319 188.099 75.0669 195.5 75.7056 195.531Z" fill="#BDBEC0"/>
<path d="M54.4181 197.667C54.3812 201.916 64.9972 201.68 68.7008 199.315C69.9423 198.522 70.0344 197.281 68.852 195.722C67.1289 193.45 65.6718 191.912 63.7931 189.806C62.664 188.539 61.3513 187.028 61.7399 185.377C61.677 185.644 57.1859 185.251 56.6699 185.369C54.3042 185.91 55.4904 185.151 55.1013 187.053C54.4743 190.116 54.42 197.478 54.4181 197.667Z" fill="#BDBEC0"/>
<path d="M95.445 146.59C97.2481 156.299 87.4859 169.996 85.2114 187.022C82.6271 188.48 79.2356 188.231 77.1074 186.897C76.6553 171.444 79.2724 158.298 81.8436 152.731C82.0708 152.238 73.9625 148.899 70.6926 147.428C68.1074 146.265 65.4529 145.055 63.4929 143.008C60.065 139.428 59.4263 134.003 59.8023 129.061C59.8377 128.594 59.8988 128.086 60.2288 127.752C60.5656 127.412 61.085 127.351 61.5618 127.308C67.0549 126.821 72.1667 127.065 77.9108 131.479C80.5449 133.503 94.9769 144.067 95.445 146.59Z" fill="#684048"/>
<path d="M54.6183 150.548C57.0257 152.02 59.7218 153.225 59.7088 154.865C59.6768 158.715 57.6983 165.981 56.8144 169.729C55.4804 175.386 54.8301 181.204 54.8824 187.015C55.4702 189.351 61.286 189.973 62.5866 187.1C66.5466 178.352 70.6005 168.897 74.8812 160.302C76.536 156.979 77.6883 154.628 77.1272 152.027C76.4473 148.873 64.6999 138.65 64.2322 136.582C63.7651 134.515 63.9434 132.362 64.1242 130.25C57.4744 129.672 50.8246 129.095 44.1753 128.518C42.6455 128.385 40.6791 129.669 40.3283 130.977C39.7963 132.96 40.2106 139.023 42.253 142.333C46.401 149.056 50.6807 148.139 54.6183 150.548Z" fill="#684048"/>
<path d="M93.7125 67.712C94.0963 67.4605 94.5368 67.2798 94.8484 66.943C95.2229 66.5384 95.4027 65.921 95.9091 65.703C96.6335 65.3909 98.2869 65.137 97.4132 66.7336C96.9916 67.5041 94.8295 68.9229 95.2927 68.7184C96.5182 68.2707 97.654 68.4103 98.8374 67.8608C99.4755 67.5642 99.5666 65.4403 99.6282 64.5831C99.6902 63.7259 99.9107 62.7291 100.733 62.9787C101.254 63.1367 101.723 69.8746 101.44 70.1678C100.326 71.3196 98.3445 72.4186 97.5784 73.1726C96.9848 73.7561 97.8997 74.9719 96.869 75.6784C95.9231 76.3219 92.9605 78.5732 92.0078 75.6784C91.3909 73.804 92.0029 68.8328 93.7125 67.712Z" fill="#FFAF66"/>
<path d="M86.7381 96.8964C91.5194 91.7405 89.9319 81.6009 91.1143 73.9664C92.3751 73.0346 96.0773 73.4431 97.892 73.9664C97.892 82.1315 99.5424 95.6801 96.3452 101.737C95.4686 103.397 94.5009 105.092 92.9678 106.175C90.6922 107.782 87.5832 107.712 84.9447 106.817C82.3067 105.923 79.9832 104.312 77.5516 102.953C75.0895 101.576 72.4694 100.43 70.2748 98.6578C66.3313 95.4732 64.1071 85.6621 71.7009 85.4382C77.1562 85.2773 83.8442 92.9651 86.7381 96.8964Z" fill="#553568"/>
<path d="M37.9211 91.3428C36.808 94.1955 37.6594 96.5369 37.532 99.5965C37.3299 104.451 37.1351 109.383 38.3 114.1C38.8864 116.473 39.8104 118.761 40.2577 121.165C40.7147 123.619 40.6633 126.15 40.3086 128.621C40.1957 129.408 40.0561 130.233 40.3309 130.978C40.8343 132.344 42.4581 132.865 43.877 133.189C49.0721 134.377 54.3801 135.307 59.7031 135.057C65.8353 134.771 71.7752 132.933 77.8188 131.856C78.9028 131.103 72.1716 126.539 74.2218 116.17C75.2927 110.754 76.4189 105.303 76.5221 99.7831C76.5996 95.641 75.8311 91.5347 75.066 87.4629C74.9046 86.6032 74.7224 85.7005 74.1501 85.039C73.3598 84.1261 72.0495 83.9129 70.8516 83.7578C64.5013 82.9365 58.4505 80.6212 51.492 81.8297C47.772 82.4756 43.5698 83.5645 42.0976 84.4866C39.9161 85.8526 39.1044 88.3089 37.9211 91.3428Z" fill="#553568"/>
<path d="M50.4256 84.7291C51.0633 86.5714 51.8904 88.2083 53.0393 89.787C54.0114 91.122 55.0794 92.5302 56.7589 92.9431C57.0424 93.0128 57.1364 92.6189 56.8767 92.5157C53.8292 91.3028 51.9079 87.5372 50.7812 84.6307C50.6974 84.4131 50.3466 84.5008 50.4256 84.7291Z" fill="#442B56"/>
<path d="M50.8363 102.554C52.055 104.347 53.7762 106.213 55.8758 106.936C55.9955 106.977 56.042 106.812 55.9558 106.747C54.1561 105.398 52.4431 104.254 51.1042 102.398C50.9894 102.238 50.7224 102.387 50.8363 102.554Z" fill="#442B56"/>
<path d="M50.8932 106.815C52.0852 107.783 53.4309 108.868 54.8875 109.395C55.0464 109.453 55.1177 109.224 54.9956 109.138C53.725 108.245 52.3435 107.564 51.1122 106.595C50.9581 106.474 50.7371 106.688 50.8932 106.815Z" fill="#442B56"/>
<path d="M49.6975 125.773C52.7169 126.812 55.7876 127.63 58.9378 128.164C61.3432 128.572 63.957 129.088 66.3697 128.58C66.578 128.536 66.5354 128.175 66.3188 128.202C60.9623 128.886 54.848 127.116 49.7687 125.517C49.6035 125.465 49.5366 125.718 49.6975 125.773Z" fill="#442B56"/>
<path d="M51.4922 81.8291C51.7098 82.5976 53.2473 85.8607 53.6757 86.5353C56.6853 91.2724 60.1777 91.9726 62.9891 92.008C67.5538 92.0652 70.6614 83.6966 70.6168 83.2596C70.5504 82.6093 68.3693 82.963 68.0267 82.4067C67.0266 80.7815 68.1561 75.0795 67.7767 75.1304C64.2151 75.6082 56.0869 68.5087 55.4967 72.8199C55.1241 75.5413 55.1241 78.4017 53.6762 80.4456C52.7414 81.7646 51.4922 81.8291 51.4922 81.8291Z" fill="#E89B5B"/>
<path d="M57.4981 76.4283C58.8486 77.9847 62.8085 81.4804 66.0294 80.1488C67.2312 79.6522 68.2434 78.779 69.104 77.804C72.1496 74.3534 72.0943 69.2843 72.1685 62.2488C72.2034 58.912 69.6376 58.5311 66.5227 57.3338C62.9887 55.975 57.2606 55.9997 55.6121 59.463C53.5827 63.7277 54.4457 72.9103 57.4981 76.4283Z" fill="#FFAF66"/>
<path d="M63.2734 73.967C63.2734 73.967 63.3219 78.4954 64.466 78.4014C65.5306 78.3141 66.5758 75.7255 66.5995 74.6997C66.5995 74.6997 64.4665 74.8344 63.2734 73.967Z" fill="white"/>
<path d="M56.1268 67.0832C56.6889 63.0123 56.8609 58.672 58.4096 59.424C62.4654 61.3929 68.1538 62.8519 72.168 62.2491C73.4667 60.2885 74.2677 57.8317 72.7553 55.326C70.8732 52.2073 58.271 50.1552 56.2557 55.1206C51.9997 54.7659 51.4138 58.72 51.2922 60.2221C50.9709 64.1922 51.9861 66.0966 52.4455 69.4765C53.5498 69.6679 54.7259 70.0604 55.6868 70.482C55.6843 69.9431 56.2683 68.6047 56.1268 67.0832Z" fill="#0C2D41"/>
<path d="M56.7646 68.5502C56.328 66.893 54.8573 64.976 53.3648 65.8182C51.4731 66.8847 52.3681 69.9516 53.3285 71.4751C53.8121 72.2422 54.5884 72.875 55.4936 72.8198C57.4963 72.6981 56.7646 68.5502 56.7646 68.5502Z" fill="#FFAF66"/>
<path d="M62.5176 68.4205C62.9027 68.4205 63.2149 68.1083 63.2149 67.7232C63.2149 67.3381 62.9027 67.0259 62.5176 67.0259C62.1325 67.0259 61.8203 67.3381 61.8203 67.7232C61.8203 68.1083 62.1325 68.4205 62.5176 68.4205Z" fill="#0C2D41"/>
<path d="M65.9512 66.9492C65.6847 68.0725 65.7303 69.2141 66.0714 70.3204C66.2241 70.8156 66.6321 71.4 66.4988 71.8381C66.2294 72.7239 65.1415 72.5586 64.4675 72.5179C64.3376 72.5102 64.2557 72.6463 64.2824 72.7612C64.6201 74.2285 66.6703 72.9768 67.1709 72.2732C67.5527 71.7363 67.3371 71.4819 67.0725 70.93C66.4789 69.6909 66.3801 68.3768 66.5172 67.0258C66.5502 66.7011 66.0254 66.6372 65.9512 66.9492Z" fill="#E89B5B"/>
<path d="M61.1641 65.1846C61.9734 64.7233 63.2047 64.5615 63.9601 65.2055C64.6681 65.8092 65.6958 64.7611 64.9787 64.1869C63.6664 63.1354 61.8532 63.4353 60.5865 64.4364C60.1533 64.779 60.7072 65.4448 61.1641 65.1846Z" fill="#0C2D41"/>
<path d="M69.4864 68.4205C69.8715 68.4205 70.1837 68.1083 70.1837 67.7232C70.1837 67.3381 69.8715 67.0259 69.4864 67.0259C69.1013 67.0259 68.7891 67.3381 68.7891 67.7232C68.7891 68.1083 69.1013 68.4205 69.4864 68.4205Z" fill="#0C2D41"/>
<path d="M71.5582 65.0503C70.9282 63.5195 69.3224 63.5011 67.9782 64.0811C67.1399 64.4431 67.8619 65.7267 68.7055 65.325C69.3558 65.0154 70.2091 64.6757 70.6869 65.4176C70.9626 65.8455 71.7738 65.5741 71.5582 65.0503Z" fill="#0C2D41"/>
<path d="M55.2518 67.5111C54.8161 67.2581 54.2284 67.0672 53.7767 67.4001C53.3944 67.6821 53.4298 68.1953 53.4225 68.6183C53.4065 69.5458 53.6847 70.967 54.8602 71.0068C55.0536 71.0131 55.1481 70.7146 54.963 70.6283C54.3103 70.3245 53.9967 69.8889 53.9396 69.1659C53.9236 68.9638 53.911 68.7099 53.9391 68.5088C53.8998 68.1405 54.1198 67.9137 54.5976 67.8285C54.7493 67.8803 54.9019 67.9297 55.055 67.9772C55.3332 68.0654 55.4994 67.655 55.2518 67.5111Z" fill="#E89B5B"/>
<path d="M60.3332 57.2608C63.054 59.1085 66.7668 60.5879 70.1133 60.0583C70.2979 60.0292 70.2252 59.7806 70.0731 59.7607C66.5207 59.2989 63.622 58.9331 60.4824 57.0054C60.3186 56.9051 60.1771 57.1552 60.3332 57.2608Z" fill="#113F56"/>
<path d="M60.7752 55.59C62.6985 55.7809 64.6149 56.1356 66.4466 56.7646C68.0656 57.3209 69.5198 58.2071 71.113 58.8017C71.223 58.8429 71.3146 58.6801 71.2279 58.604C68.5303 56.2466 64.2472 55.4335 60.7752 55.3017C60.5872 55.2944 60.594 55.572 60.7752 55.59Z" fill="#113F56"/>
<path d="M53.2412 62.8954C53.2082 61.8788 53.1607 60.7972 53.4932 59.8208C53.8682 58.7194 54.583 58.3487 55.4799 57.7459C55.5884 57.6727 55.5443 57.5143 55.4145 57.5051C54.486 57.4391 53.7039 58.3608 53.3202 59.1206C52.7285 60.2913 52.8022 61.6297 52.9088 62.8954C52.9262 63.1057 53.2484 63.112 53.2412 62.8954Z" fill="#113F56"/>
<path d="M54.7744 62.7322C54.7904 61.9564 54.9546 61.2058 55.3055 60.5105C55.6379 59.8519 56.1433 59.4202 56.6327 58.8939C56.7965 58.7176 56.5906 58.451 56.3774 58.563C54.9639 59.3068 54.3271 61.2383 54.5229 62.7318C54.5437 62.8878 54.771 62.8994 54.7744 62.7322Z" fill="#113F56"/>
<path d="M60.7773 53.6843C64.5216 53.4071 67.2608 54.6772 70.5617 56.19C70.7304 56.2676 70.9407 56.0539 70.7769 55.9114C68.1398 53.6262 64.1135 53.1799 60.7773 53.5287C60.6799 53.5389 60.677 53.6916 60.7773 53.6843Z" fill="#113F56"/>
<path d="M67.0512 113.883C67.4917 113.867 72.258 117.733 72.1698 118.533C72.0351 119.758 68.1483 117.628 67.6628 117.587C67.1753 117.545 64.8072 118.34 64.357 118.533C62.6877 119.246 61.468 118.375 59.71 117.92C57.1786 117.266 55.8639 115.496 56.897 113.094C60.3569 114.181 62.6024 114.041 67.0512 113.883Z" fill="#FFAF66"/>
<path d="M35.9713 94.0175C33.5606 100.176 32.3661 107.23 32.3206 113.843C32.2973 117.232 33.8005 118.485 34.5666 118.532C43.8398 119.112 52.6711 119.341 61.9269 118.532C62.2947 115.972 61.5819 115.655 61.9502 113.095C55.6256 112.985 46.8219 109.233 42.1719 110.016C43.082 107.699 48.4767 99.1448 49.8165 94.0219C50.4915 91.4406 50.6752 88.0282 48.7132 86.2193C46.3499 84.0407 44.2498 83.8066 42.0929 84.4855C37.3349 85.9833 36.9802 91.4401 35.9713 94.0175Z" fill="#5E3C77"/>
<path d="M36.67 113.184C37.3968 112.443 38.2288 111.857 39.1912 111.462C39.9849 111.137 40.862 111.126 41.6296 110.785C41.7677 110.724 41.7202 110.51 41.5889 110.475C39.8003 109.998 37.5063 111.661 36.3773 112.891C36.198 113.086 36.4824 113.374 36.67 113.184Z" fill="#553568"/>
<path d="M36.3694 110.927C37.0115 110.683 37.6569 110.504 38.3416 110.429C38.9483 110.363 39.5642 110.475 40.1598 110.348C40.2824 110.322 40.3051 110.135 40.1951 110.078C39.0457 109.477 37.3037 110.068 36.259 110.664C36.1209 110.743 36.2129 110.987 36.3694 110.927Z" fill="#553568"/>
<path d="M59.1961 114.56C59.545 114.571 59.8818 114.623 60.2166 114.724C60.5117 114.812 60.7758 114.979 61.0869 114.995C61.2575 115.004 61.4106 114.775 61.2977 114.628C60.863 114.063 59.8595 113.979 59.1966 113.984C58.8244 113.987 58.8259 114.549 59.1961 114.56Z" fill="#553568"/>
<path d="M59.2016 115.969C59.6774 115.922 60.1324 115.963 60.5908 116.1C60.6848 116.128 60.8205 116.102 60.885 116.022C60.9407 115.953 60.9804 115.901 60.9736 115.808C60.964 115.678 60.8864 115.55 60.7517 115.517C60.2114 115.384 59.6803 115.365 59.1308 115.447C58.8377 115.491 58.9031 115.999 59.2016 115.969Z" fill="#553568"/>
<path d="M59.1962 117.56C59.5194 117.567 59.8426 117.573 60.1663 117.579C60.4517 117.585 60.6882 117.607 60.9159 117.416C60.9949 117.349 60.9949 117.194 60.9159 117.129C60.6882 116.938 60.4517 116.959 60.1663 116.965C59.8431 116.972 59.5194 116.978 59.1962 116.984C58.8255 116.991 58.825 117.553 59.1962 117.56Z" fill="#553568"/>
<path d="M204.013 183.294C203.044 184.846 198.683 187 197.349 187.375C190.374 189.332 190.449 190.97 192.069 192.166C192.975 192.835 196.758 192.694 203.969 192.576C204.837 192.562 211.706 191.952 211.677 191.61C211.376 188.065 209.49 182.7 209.015 178.372C208.985 178.097 208.8 177.836 208.558 177.703C208.368 177.596 208.137 177.602 207.92 177.61C206.301 177.672 204.681 177.733 203.062 177.795C204.14 177.753 204.319 182.805 204.013 183.294Z" fill="#0C2D41"/>
<path d="M181.827 183.386C180.679 184.027 175.44 185.992 174.182 186.372C171.909 187.058 168.328 188.516 168.981 190.567C170.73 192.127 174.321 191.477 176.665 191.47C179.622 191.463 191.442 191.201 191.442 190.999C191.454 186.019 189.945 182.528 188.953 178.299C186.978 178.2 185.208 178.007 183.246 178.114C182.805 180.335 184.611 181.832 181.827 183.386Z" fill="#0C2D41"/>
<path d="M182.615 181.849C182.703 183.171 190.01 183.541 190.099 181.383C190.799 164.402 192.073 120.503 194.122 112.859C194.718 112.474 194.971 112.596 195.404 113.158C195.836 113.72 199.055 159.973 203.106 182.95C203.281 183.942 208.547 183.009 210.318 182.48C210.155 149.04 212.46 119.624 211.402 93.818C208.623 90.6343 196.63 90.2224 190.267 90.7918C186.137 91.1615 179.779 91.2648 177.379 95.2925C177.379 99.3314 177.857 106.27 177.849 107.637C177.822 112.442 178.301 116.886 178.517 121.686C179.073 133.994 181.99 172.449 182.615 181.849Z" fill="#5E3C77"/>
<path d="M185.614 107.492C187.268 109.46 189.881 111.547 192.55 111.758C192.724 111.772 192.804 111.494 192.641 111.421C191.465 110.892 190.242 110.577 189.115 109.916C187.889 109.197 186.82 108.288 185.88 107.225C185.718 107.042 185.46 107.308 185.614 107.492Z" fill="#4C3363"/>
<path d="M192.017 106.14C192.321 107.229 192.52 108.473 193.004 109.496C193.092 109.681 193.429 109.598 193.403 109.388C193.262 108.264 192.766 107.108 192.437 106.024C192.356 105.756 191.941 105.868 192.017 106.14Z" fill="#4C3363"/>
<path d="M202.037 104.269C202.439 105.319 203.157 106.177 204.147 106.723C204.938 107.159 206.287 107.626 207.122 107.127C207.245 107.053 207.225 106.853 207.081 106.816C206.211 106.596 205.388 106.763 204.525 106.333C203.599 105.87 202.891 105.1 202.514 104.138C202.4 103.845 201.923 103.97 202.037 104.269Z" fill="#4C3363"/>
<path d="M204.456 109.003C204.938 109.105 205.42 109.208 205.902 109.31C206.291 109.393 206.689 109.542 207.08 109.428C207.188 109.396 207.257 109.23 207.154 109.15C206.827 108.898 206.438 108.885 206.038 108.817C205.551 108.734 205.063 108.651 204.576 108.569C204.295 108.52 204.169 108.942 204.456 109.003Z" fill="#4C3363"/>
<path d="M175.559 44.6853C175.623 59.9217 176.837 81.1183 176.117 96.4681C175.929 100.485 179.603 102.328 180.422 102.612C186.413 104.695 192.184 106.073 197.5 102.612C202.541 99.3309 203.197 98.2241 207.253 94.5375C209.729 92.2881 212.547 94.6214 212.535 94.3786C211.698 78.4197 209.697 58.7049 208.86 42.7465C208.815 41.8873 201.099 41.0374 200.232 40.9608C197.122 40.6856 193.977 40.7869 190.892 41.2671C184.913 42.198 179.724 42.7945 175.559 44.6853Z" fill="#E6335A"/>
<path d="M225.524 71.1669C226.278 75.8954 219.724 90.8352 214.299 96.5445C213.109 97.7971 212.376 99.7329 211.634 101.293C211.228 102.146 210.897 103.172 210.026 103.535C209.12 103.912 208.08 103.343 207.438 102.603C206.072 101.027 205.793 98.7265 206.239 96.6903C207.048 92.9984 209.809 93.795 210.842 91.9837C213.427 87.4486 216.487 73.7923 215.818 73.0587C213.539 70.5593 209.489 61.5908 206.13 56.7887C205.252 55.5337 213.887 50.6303 215.087 52.0162C218.184 55.5913 224.6 65.3719 225.524 71.1669Z" fill="#FFAF66"/>
<path d="M221.829 61.1786C219.507 62.0784 211.484 66.191 210.285 64.9166C208.032 62.5213 207.876 59.5771 206.134 56.7884C204.391 53.9997 203.139 50.8243 203.068 47.5364C203.008 44.7526 204.414 41.8078 207.667 42.1659C210.078 42.431 212.061 45.0118 213.554 46.7335C214.591 47.9285 222.454 60.9368 221.829 61.1786Z" fill="#E6335A"/>
<path d="M197.429 42.1357C198.375 46.6558 188.87 47.8619 184.842 46.7338C184.434 46.6195 183.991 46.4489 183.805 46.068C183.55 45.5457 183.903 44.9501 184.171 44.4345C185.586 41.7098 184.666 38.4104 183.722 35.4889C183.437 34.6079 192.006 30.3098 192.779 32.391C194.227 36.2923 195.85 39.4522 197.429 42.1357Z" fill="#E89B5B"/>
<path d="M178.304 35.704C179.475 37.8061 180.92 39.8514 182.981 41.0915C185.043 42.3315 187.841 42.5927 189.797 41.1922C191.744 39.7976 192.387 37.2236 192.722 34.8521C193.082 32.3086 193.246 29.7011 192.736 27.1833C192.227 24.6654 190.984 22.2261 188.944 20.6648C186.798 19.0231 183.845 18.4963 181.265 19.2954C172.479 22.0139 174.879 29.5548 178.304 35.704Z" fill="#F9A86B"/>
<path d="M171.853 23.8278C172.094 24.4534 171.525 25.0678 171.297 25.6978C170.812 27.0347 172.356 28.5989 173.699 28.1318C174.926 27.7054 175.684 26.0627 176.975 26.2066C177.815 26.3001 178.402 27.1568 179.235 27.2998C181.29 27.6516 182.152 23.7275 184.206 24.0871C184.879 24.2048 185.409 24.797 186.089 24.859C187.358 24.9748 188.04 24.5503 188.964 25.4274C189.64 26.069 189.928 29.6897 190.328 30.5314C191.018 32.3127 192.371 30.23 192.76 30.5314C195.06 32.3127 196.046 28.5858 195.621 27.6734C195.197 26.7609 194.208 25.6682 194.769 24.3589C194.979 23.87 195.301 23.2473 195.033 22.7884C193.059 19.4124 197.065 17.8884 193.059 16.7657C191.437 15.2407 191.354 14.3254 189.426 15.4384C189.128 15.6104 188.832 15.8174 188.489 15.8474C187.869 15.9022 187.371 15.3778 186.934 14.9349C185.815 13.802 184.022 12.9128 182.683 13.7739C182.1 14.1485 182.058 15.4515 179.782 15.0464C176.371 14.4392 177.75 16.5723 175.581 16.6847C174.24 16.754 173.473 16.3044 172.327 17.0986C171.44 17.714 170.247 19.2157 170.019 20.2662C169.499 22.6677 171.211 22.1599 171.853 23.8278Z" fill="#5E3C77"/>
<path d="M193.05 26.3106C190.291 26.345 191.139 30.1358 191.139 30.1358C192.142 35.1332 194.528 31.905 194.498 30.4857C194.476 29.4429 194.498 26.2927 193.05 26.3106Z" fill="#FFAF66"/>
<path d="M180.857 32.3134C180.857 32.7054 180.539 33.0228 180.147 33.0228C179.755 33.0228 179.438 32.7049 179.438 32.3134C179.438 31.9219 179.755 31.6035 180.147 31.6035C180.539 31.6035 180.857 31.9214 180.857 32.3134Z" fill="#5E3C77"/>
<path d="M187.103 30.5317C187.103 30.9237 186.785 31.2411 186.393 31.2411C186.001 31.2411 185.684 30.9232 185.684 30.5317C185.684 30.1401 186.001 29.8223 186.393 29.8223C186.785 29.8223 187.103 30.1397 187.103 30.5317Z" fill="#5E3C77"/>
<path d="M182.543 31.7494C182.982 32.4564 183.121 33.2099 183.113 34.0312C183.106 34.6321 182.919 35.2664 182.958 35.8571C183.02 36.7962 184.146 36.8495 184.881 36.6591C185.287 36.5539 185.147 36.032 184.789 35.9841C184.522 35.9487 184.116 35.9991 183.876 35.8552C183.583 35.6788 183.695 35.5213 183.712 35.1966C183.738 34.7125 183.753 34.226 183.714 33.7424C183.649 32.9259 183.433 32.1792 182.964 31.5032C182.788 31.2488 182.376 31.479 182.543 31.7494Z" fill="#E99C5B"/>
<path d="M187.835 36.8171C185.789 38.1003 183.613 38.187 183.613 38.187C184.186 39.9131 186.611 40.9481 187.982 39.9669C188.798 39.3834 187.835 36.8171 187.835 36.8171Z" fill="white"/>
<path d="M177.661 30.3303C177.93 30.0439 178.243 29.808 178.609 29.6606C178.948 29.5245 179.4 29.5148 179.584 29.1514C179.657 29.0074 179.653 28.8102 179.525 28.6949C179.115 28.3257 178.548 28.6043 178.144 28.8563C177.717 29.1237 177.37 29.4726 177.086 29.8869C176.851 30.2305 177.379 30.6308 177.661 30.3303Z" fill="#5E3C77"/>
<path d="M184.414 27.6605C185.003 27.5146 185.594 27.4347 186.202 27.4361C186.67 27.4371 187.137 27.5481 187.493 27.1813C187.584 27.0877 187.619 26.9191 187.542 26.8052C187.208 26.3129 186.632 26.3769 186.095 26.435C185.442 26.5058 184.814 26.6497 184.196 26.8697C183.703 27.0446 183.895 27.7889 184.414 27.6605Z" fill="#5E3C77"/>
<path d="M192.177 29.4711C192.181 29.2753 192.205 29.082 192.25 28.8911C192.902 28.3939 193.257 28.3813 193.318 28.8533C193.401 29.1295 193.383 29.4668 193.397 29.7531C193.427 30.3496 193.566 31.2427 192.939 31.5877C192.671 31.735 192.907 32.1334 193.177 31.9962C193.74 31.7098 193.898 31.1351 193.94 30.5406C193.986 29.8854 194.04 28.9211 193.726 28.3149C193.496 27.8744 193.036 27.6462 192.556 27.8241C191.867 28.0789 191.742 28.8266 191.734 29.4716C191.731 29.758 192.161 29.7541 192.177 29.4711Z" fill="#E99C5B"/>
<path d="M173.395 20.2416C172.328 20.356 172.2 21.7583 173.163 22.1557C173.573 22.3248 173.977 22.3263 174.22 22.7648C174.393 23.0783 174.436 23.4224 174.718 23.6709C174.994 23.9147 175.553 24.0848 175.679 23.6186C175.692 23.5692 175.662 23.4999 175.607 23.4912C175.465 23.4689 175.26 23.4684 175.138 23.401C174.871 23.2542 174.833 22.9693 174.739 22.7207C174.642 22.4644 174.551 22.2201 174.339 22.0331C174.108 21.8286 173.839 21.7797 173.553 21.691C173.295 21.6105 173.034 21.5238 173.05 21.1919C173.061 20.9501 173.23 20.7722 173.459 20.7209C173.723 20.6613 173.671 20.2121 173.395 20.2416Z" fill="#744E96"/>
<path d="M176.961 19.8979C176.472 21.0129 177.176 22.3619 178.448 22.4225C178.569 22.4283 178.695 22.3992 178.816 22.3891C179.48 22.3324 179.632 22.4012 180.08 22.8232C180.276 23.0074 180.401 23.1566 180.666 23.2506C181.326 23.4857 182.045 23.1145 182.523 22.6822C182.731 22.4952 182.467 22.2233 182.246 22.3227C182.081 22.3968 181.903 22.5325 181.735 22.5853C179.478 23.2913 180.83 22.4816 180.296 22.0944C180.054 21.919 180.001 21.8284 179.694 21.7664C179.456 21.7184 179.205 21.778 178.969 21.8027C178.043 21.8997 176.927 21.3109 177.415 20.1629C177.544 19.8567 177.097 19.5878 176.961 19.8979Z" fill="#744E96"/>
<path d="M182.218 18.6687C182.227 18.6639 182.236 18.6595 182.244 18.6546C182.357 18.5946 182.362 18.4095 182.244 18.3508C182.128 18.2927 182.071 18.282 181.946 18.3208C181.839 18.3542 181.784 18.44 181.774 18.5471C181.729 19.0253 182.004 19.3582 182.426 19.5593C182.724 19.7013 183.028 19.7188 183.352 19.726C183.583 19.7314 184.015 19.6732 184.216 19.7822C184.636 20.009 184.77 20.5435 184.824 20.9578C184.897 21.5136 184.973 22.1334 185.526 22.4164C185.953 22.6349 186.426 22.5622 186.63 22.113C186.707 21.9439 186.542 21.7268 186.357 21.8402C185.358 22.4556 185.395 20.6249 185.295 20.2721C185.213 19.9795 185.088 19.7076 184.853 19.5041C184.63 19.3098 184.353 19.2347 184.066 19.193C183.829 19.1586 183.589 19.1882 183.351 19.178C183.272 19.178 183.193 19.178 183.114 19.178C182.74 19.1668 182.436 18.9987 182.202 18.6726C182.135 18.5863 182.069 18.5001 182.003 18.4143C181.999 18.4235 181.994 18.4322 181.99 18.4414C181.921 18.5897 182.065 18.7506 182.218 18.6687Z" fill="#744E96"/>
<path d="M187.903 18.6628C187.737 19.4091 187.975 20.2139 188.599 20.684C188.999 20.9849 190.255 21.4031 190.514 20.7523C190.537 20.6946 190.499 20.6239 190.45 20.5938C190.236 20.463 190.094 20.5682 189.854 20.5837C189.535 20.604 189.218 20.5236 188.941 20.3661C188.346 20.0283 188.092 19.3567 188.178 18.7006C188.199 18.5431 187.936 18.5097 187.903 18.6628Z" fill="#744E96"/>
<path d="M189.455 23.1116C189.677 23.508 189.988 23.8423 190.375 24.0846C190.671 24.2702 191.181 24.5653 191.494 24.3153C191.554 24.2673 191.562 24.1578 191.522 24.0958C191.352 23.8292 190.93 23.8418 190.66 23.6984C190.308 23.5109 190.024 23.2405 189.812 22.9032C189.671 22.6774 189.324 22.878 189.455 23.1116Z" fill="#744E96"/>
<path d="M190.938 18.231C191.527 18.1467 192.152 18.4273 192.388 18.9928C192.632 19.5791 192.33 19.9581 192.199 20.5027C192.15 20.7077 192.369 20.887 192.557 20.7779C193.254 20.3753 193.175 19.2196 192.781 18.6318C192.357 17.9975 191.572 17.731 190.843 17.8894C190.615 17.9384 190.718 18.2625 190.938 18.231Z" fill="#744E96"/>
<path d="M170.016 75.0471C170.551 77.3449 172.609 78.9721 174.58 80.3784C176.5 81.7492 182.106 80.3784 184.508 73.731C187.386 65.7617 188.209 59.6353 187.82 49.8876C187.78 48.8855 189.127 47.8791 189.081 46.5775C188.964 43.2413 188.247 43.4671 188.444 43.3464C189.889 42.4592 190.332 42.9524 190.263 41.3761C189.081 39.8793 184.427 39.9355 182.251 43.3726C181.746 44.1707 181.549 45.0821 181.594 46.0261C181.635 46.909 182.317 48.5478 182.428 49.4244C183.044 54.2895 181.969 57.068 180.423 61.0003C178.788 65.1594 178.107 66.365 177.208 70.1364C177.381 68.0145 177.239 64.4776 176.944 62.1827C175.121 62.362 168.371 60.352 168.274 62.4192C168.139 65.3266 169.619 73.339 170.016 75.0471Z" fill="#FFAF66"/>
<path d="M169.295 51.6862C167.632 56.6706 167.394 62.0697 167.755 67.3113C171.401 67.1984 173.857 67.1223 177.503 67.0094C177.631 65.0144 178.503 55.8012 178.046 52.1732C177.742 49.7543 178.161 43.417 175.559 44.6856C172.523 46.166 170.369 48.4692 169.295 51.6862Z" fill="#E6335A"/>
<path d="M189.573 48.7552C191.847 49.1361 194.665 48.6636 196.618 47.3916C197.693 46.6919 199.728 45.1321 199.64 43.6619C199.624 43.3939 199.263 43.343 199.176 43.5989C197.923 47.2826 193.129 48.7184 189.631 48.3268C189.389 48.2997 189.331 48.7145 189.573 48.7552Z" fill="#D32F5A"/>
<path d="M208.93 60.4368C207.733 56.6203 205.993 52.263 206.834 48.2353C206.887 47.9809 206.54 47.8907 206.449 48.1292C205.008 51.9175 207.359 56.9425 208.588 60.5308C208.662 60.745 208.999 60.6563 208.93 60.4368Z" fill="#D32F5A"/>
<path d="M203.888 51.0054C204.755 54.3974 206.283 58.5477 208.516 61.2749C208.633 61.4184 208.896 61.2643 208.831 61.0917C208.257 59.5673 207.353 58.1746 206.663 56.6962C205.777 54.7972 205.088 52.8308 204.308 50.8896C204.206 50.6357 203.816 50.7263 203.888 51.0054Z" fill="#D32F5A"/>
<path d="M178.267 63.2125C178.647 59.7953 179.019 56.002 178.291 52.611C178.253 52.4351 177.992 52.4821 177.986 52.6522C177.876 56.1828 178.237 59.6678 177.934 63.2125C177.916 63.4276 178.244 63.4218 178.267 63.2125Z" fill="#D32F5A"/>
<path d="M179.07 61.2154C179.23 60.2021 179.395 59.1898 179.541 58.1747C179.669 57.2932 179.914 56.3721 179.811 55.4858C179.789 55.2968 179.556 55.2634 179.485 55.4417C179.155 56.264 179.146 57.2293 179.038 58.1068C178.912 59.1249 178.805 60.1449 178.692 61.1645C178.67 61.3777 179.036 61.4295 179.07 61.2154Z" fill="#D32F5A"/>
<path d="M183.319 98.0235C186.942 99.1312 191.033 100.033 194.684 98.5241C196.608 97.7289 197.973 96.2209 199.59 94.9707C201.963 93.1351 204.477 92.669 207.277 91.8883C207.581 91.804 207.495 91.3926 207.206 91.366C203.584 91.0306 200.182 93.3125 197.588 95.5774C193.376 99.2553 188.57 98.9054 183.456 97.5244C183.133 97.4376 183.001 97.9266 183.319 98.0235Z" fill="#D32F5A"/>
<path d="M186.95 88.7106C191.396 91.7678 198.268 89.9719 200.157 84.6848C200.248 84.4294 199.89 84.3281 199.752 84.5142C198.214 86.5853 196.866 88.4484 194.289 89.3047C191.838 90.1192 189.321 89.6982 187.196 88.29C186.932 88.1151 186.693 88.5342 186.95 88.7106Z" fill="#D32F5A"/>
<path d="M190.549 79.4617C194.165 78.3443 196.014 73.4438 196.606 70.06C196.667 69.7106 196.208 69.5876 196.079 69.9146C194.831 73.0741 194.087 77.7599 190.441 79.0701C190.198 79.1574 190.295 79.5402 190.549 79.4617Z" fill="#D32F5A"/>
<path d="M185.614 107.492C187.268 109.46 189.881 111.547 192.55 111.758C192.724 111.772 192.804 111.494 192.641 111.421C191.465 110.892 190.242 110.577 189.115 109.916C187.889 109.197 186.82 108.288 185.88 107.225C185.718 107.042 185.46 107.308 185.614 107.492Z" fill="#4C3363"/>
<path d="M192.017 106.14C192.321 107.229 192.52 108.473 193.004 109.496C193.092 109.681 193.429 109.598 193.403 109.388C193.262 108.264 192.766 107.108 192.437 106.024C192.356 105.756 191.941 105.868 192.017 106.14Z" fill="#4C3363"/>
<path d="M202.037 104.269C202.439 105.319 203.157 106.177 204.147 106.723C204.938 107.159 206.287 107.626 207.122 107.127C207.245 107.053 207.225 106.853 207.081 106.816C206.211 106.596 205.388 106.763 204.525 106.333C203.599 105.87 202.891 105.1 202.514 104.138C202.4 103.845 201.923 103.97 202.037 104.269Z" fill="#4C3363"/>
<path d="M204.456 109.003C204.938 109.105 205.42 109.208 205.902 109.31C206.291 109.393 206.689 109.542 207.08 109.428C207.188 109.396 207.257 109.23 207.154 109.15C206.827 108.898 206.438 108.885 206.038 108.817C205.551 108.734 205.063 108.651 204.576 108.569C204.295 108.52 204.169 108.942 204.456 109.003Z" fill="#4C3363"/>
<path d="M148.017 75.5411C147.619 76.879 147.111 78.3782 149.569 79.8814C150.613 80.5196 151.74 81.0889 152.246 82.2485C152.987 83.9479 151.337 85.6236 150.29 87.1063C148.812 89.2016 148.407 92.19 149.264 94.6841C149.494 95.3533 149.809 95.9948 149.918 96.7014C150.027 97.4088 149.922 98.1371 149.75 98.8286C148.95 102.04 146.614 104.713 143.771 105.672C140.928 106.631 137.668 105.845 135.425 103.661C132.557 103.587 129.751 101.963 128.034 99.382C126.317 96.8012 129.159 88.469 126.474 90.2091C122.658 92.6818 127.058 86.4827 127.042 83.9581C127.026 81.4068 124.199 79.8717 124.341 77.3141C124.409 76.0988 125.647 74.6834 125.642 73.4657C125.633 71.6534 124.443 69.654 124.414 67.8567C124.336 63.0556 127.426 60.0173 129.024 58.9905C132.634 56.6714 139.735 54.9007 142.737 60.2218C142.737 60.2218 144.336 59.7881 146.525 61.8674C148.856 64.0814 150.224 68.1329 148.017 75.5411Z" fill="#E6335A"/>
<path d="M110.771 188.426C110.027 190.373 108.283 191.76 106.475 192.795C105.801 193.181 105.092 193.545 104.579 194.128C104.067 194.711 103.795 195.585 104.148 196.276C108.668 195.228 113.213 194.286 117.778 193.453C118.042 193.405 118.342 193.332 118.465 193.093C118.58 192.869 118.486 192.598 118.391 192.364C116.875 188.644 117.181 184.263 115.665 180.543C115.587 180.351 113.68 180.81 113.513 180.687C113.354 180.568 111.002 180.494 110.803 180.496C110.803 180.496 111.613 186.22 110.771 188.426Z" fill="#E89B5B"/>
<path d="M117.67 190.069C112.966 192.82 111.25 189.444 110.768 188.426C109.6 187.725 104.479 191.887 100.465 193.187C99.0195 193.655 98.1662 196.773 99.8312 197.142C104.345 197.291 112.352 197.476 119.209 196.773C120.036 196.276 118.94 189.326 117.67 190.069Z" fill="#E6335A"/>
<path d="M121.884 189.43C121.14 191.377 119.396 192.764 117.588 193.8C116.914 194.185 116.205 194.549 115.693 195.132C115.18 195.715 114.908 196.589 115.261 197.281C119.781 196.232 124.326 195.291 128.891 194.458C129.156 194.41 129.455 194.336 129.578 194.098C129.693 193.873 129.599 193.603 129.504 193.369C127.988 189.649 128.294 185.268 126.778 181.548C126.7 181.356 124.793 181.814 124.627 181.691C124.467 181.573 122.116 181.499 121.917 181.5C121.917 181.5 122.727 187.225 121.884 189.43Z" fill="#E89B5B"/>
<path d="M128.784 191.073C124.079 193.825 122.363 190.449 121.881 189.43C120.712 188.73 115.592 192.892 111.578 194.192C110.133 194.66 109.279 197.778 110.944 198.147C115.457 198.295 123.465 198.48 130.322 197.778C131.149 197.281 130.054 190.33 128.784 191.073Z" fill="#EF4572"/>
<path d="M106.087 148.008C105.598 156.2 108.688 173.827 110.194 183.95C112.052 184.18 115.55 184.592 117.385 184.224C116.556 177.593 116.833 169.407 116.845 163.021C116.849 160.246 116.017 154.954 117.385 152.539C118.513 150.55 121.146 149.426 125.4 147.648C129.654 145.87 134.142 145.185 138.595 143.988C147.783 141.519 147.179 132.732 145.274 130.205C140.045 131.196 128.515 131.752 123.228 131.93C111.773 140.161 106.28 144.787 106.087 148.008Z" fill="#335A6D"/>
<path d="M118.15 149.663C117.737 151.385 120.621 174.613 121.413 184.347C122.878 184.842 126.317 184.468 127.843 184.225C128.414 174.496 129.744 170.238 129.744 163.613C129.744 159.065 128.284 153.324 130.187 152.489C136.357 149.782 150.487 147.512 155.151 142.807C157.868 140.067 158.638 136.781 156.925 132.049C156.407 130.618 153.013 130.194 151.602 129.623C150.401 129.137 149.043 129.443 147.785 129.754C143.62 130.783 141.126 129.918 137.403 132.049C131.39 135.489 120.274 140.801 118.15 149.663Z" fill="#335A6D"/>
<path d="M123.743 110.016C120.929 111.164 112.728 113.154 109.704 112.854C106.562 112.543 105.321 112.589 103.961 113.41C103.32 113.797 102.621 117.333 103.526 116.994C103.875 116.863 104.826 114.886 104.954 115.207C105.111 117.869 106.275 119.433 106.037 115.853C105.988 115.127 107.536 115.348 108.152 115.357C108.674 115.365 107.379 117.333 107.901 117.333C109.556 117.333 109.414 115.956 110.161 115.911C113.584 115.702 116.147 115.952 118.147 115.92C122.813 115.846 127.244 115.301 127.841 114.119C130.585 108.686 127.403 100.889 127.179 94.8071C126.995 89.814 121.914 88.6864 122.251 94.5401C122.717 102.648 123.881 104.483 123.743 110.016Z" fill="#E89B5B"/>
<path d="M155.549 92.0484C155.399 95.1133 154.876 97.0022 153.85 99.8936C152.431 103.89 150.701 106.872 150.54 110.547C149.944 124.141 155.387 125.547 156.924 132.049C145.668 136.024 134.824 134.779 123.232 131.931C123.767 129.283 124.834 126.447 125.833 123.938C126.315 122.726 128.757 119.965 128.788 118.661C128.887 114.561 128.791 111.715 128.079 109.115C127.179 105.831 120.671 105.415 125.36 97.697C125.743 97.0666 125.725 96.645 125.863 95.075C125.863 95.075 124.09 94.8565 122.252 94.5396C122.252 94.5396 121.695 89.7661 124.336 88.3472C126.277 87.3049 128.754 86.3188 132.125 85.8919C136.913 85.2852 136.863 85.3657 141.674 85.8255C142.511 85.9055 147.924 86.4375 150.291 87.1058C154.295 88.2367 155.65 89.9623 155.549 92.0484Z" fill="#7C71CD"/>
<path d="M147.256 95.8699C146.304 99.2091 143.406 110.457 142.736 110.467C133.859 110.592 129.124 112.816 123.586 112.622C122.084 112.569 119.138 111.803 117.675 112.149C116.213 112.494 115.436 115.15 115.626 116.641C116.414 117.942 117.006 114.421 117.36 114.198C117.567 114.067 117.159 116.705 117.36 116.957C118.148 117.942 118.148 115.921 118.435 114.041C118.499 113.62 119.187 117.73 119.488 117.334C119.792 116.933 119.666 114.779 119.961 114.75C121.319 114.615 120.591 116.24 124.336 116.004C131.888 115.527 139.036 119.385 145.732 117.361C147.86 116.717 149.228 113.733 149.515 113.095C150.523 110.853 154.553 101.361 155.497 99.0919C156.441 96.8221 156.717 92.3796 155.032 90.59C151.379 86.7091 148.463 91.6401 147.256 95.8699Z" fill="#FFAF66"/>
<path d="M155.355 99.3991C156.673 96.7771 157.578 93.2688 156.528 91.4216C155.477 89.5744 154.768 87.8774 150.29 87.1065C146.382 86.4339 146.592 95.161 146.523 96.8938C152.621 94.4564 154.214 98.9959 155.355 99.3991Z" fill="#7C71CD"/>
<path d="M126.543 94.4698C126.928 93.1062 127.222 91.1437 126.674 89.8004C126.611 89.6473 126.398 89.6667 126.384 89.8397C126.324 90.5404 126.485 91.2667 126.479 91.9757C126.472 92.7873 126.36 93.5845 126.237 94.3854C126.206 94.5822 126.486 94.6718 126.543 94.4698Z" fill="#6962BC"/>
<path d="M126.106 93.6232C126.015 92.9244 126.013 92.1476 125.698 91.508C125.651 91.4116 125.471 91.4266 125.455 91.54C125.353 92.2484 125.584 92.9806 125.714 93.6765C125.754 93.894 126.134 93.847 126.106 93.6232Z" fill="#6962BC"/>
<path d="M146.319 95.6543C146.847 95.0893 146.696 94.3091 146.736 93.5818C146.804 92.3413 147.212 91.1953 147.359 89.979C147.377 89.8361 147.161 89.7944 147.097 89.9083C146.684 90.6433 146.55 91.5035 146.439 92.333C146.311 93.2867 146.585 94.6493 146.128 95.507C146.065 95.6247 146.221 95.759 146.319 95.6543Z" fill="#6962BC"/>
<path d="M145.05 92.2097C145.037 92.8798 145.068 93.5442 145.159 94.2085C145.231 94.7319 145.269 95.3327 145.575 95.7737C145.686 95.9326 145.93 95.8755 145.94 95.6748C145.966 95.1627 145.741 94.6471 145.648 94.1426C145.53 93.503 145.473 92.8595 145.456 92.2097C145.449 91.9485 145.055 91.9475 145.05 92.2097Z" fill="#6962BC"/>
<path d="M128.801 89.9795C128.869 92.618 130.505 94.6604 133.086 95.3069C135.804 95.9872 140.157 95.288 141.554 92.5763C141.646 92.398 141.42 92.207 141.269 92.3568C137.858 95.7609 129.622 96.3933 129.141 89.9795C129.125 89.7643 128.795 89.7585 128.801 89.9795Z" fill="#6962BC"/>
<path d="M131.758 101.589C130.902 106.29 138.516 108.984 141.363 105.505C141.5 105.339 141.326 105.054 141.117 105.186C139.723 106.069 138.444 106.702 136.721 106.433C134.56 106.096 131.795 104.297 132.221 101.716C132.271 101.416 131.813 101.283 131.758 101.589Z" fill="#6962BC"/>
<path d="M128.002 107.004C128.96 107.59 130.819 107.686 131.443 106.539C131.536 106.368 131.353 106.198 131.186 106.281C130.734 106.506 130.383 106.813 129.866 106.909C129.292 107.015 128.731 106.905 128.23 106.615C127.978 106.469 127.755 106.853 128.002 107.004Z" fill="#6962BC"/>
<path d="M129.275 127.57C134.453 129.489 140.711 130.133 145.981 128.152C146.238 128.056 146.141 127.684 145.867 127.739C140.147 128.887 134.978 129.193 129.356 127.278C129.17 127.214 129.094 127.503 129.275 127.57Z" fill="#6962BC"/>
<path d="M132.929 126.228C134.904 126.939 137.361 127.625 139.471 127.21C139.625 127.18 139.635 126.911 139.471 126.889C137.267 126.592 135.167 126.631 133.004 125.958C132.829 125.904 132.76 126.168 132.929 126.228Z" fill="#6962BC"/>
<path d="M137.308 93.1007C135.499 93.6449 133.426 93.7122 131.83 92.7024C130.233 91.6925 129.415 89.3695 130.481 87.8101C130.958 87.1128 131.732 86.6409 132.124 85.8927C132.413 85.3422 132.463 84.7016 132.49 84.0809C132.617 81.1982 130.903 76.2439 133.175 74.938C135.407 73.6553 140.051 74.4112 140.49 76.6035C140.883 78.5655 140.017 83.9588 141.673 85.8263C144.183 88.6596 141.913 91.7158 137.308 93.1007Z" fill="#E89B5B"/>
<path d="M134.544 82.474C137.854 82.5418 141.265 78.8697 142.158 76.2555C142.543 75.1288 142.912 73.993 143.144 72.8252C143.766 69.6919 143.317 66.2612 141.469 63.6556C137.55 58.1315 127.751 59.3594 127.072 66.7075C126.639 71.401 128.645 82.3533 134.544 82.474Z" fill="#FFAF66"/>
<path d="M127.371 71.3073C129.443 71.2463 131.277 69.9796 132.825 68.6024C134.373 67.2248 135.816 65.6596 137.685 64.7651C137.943 64.6416 138.223 64.5296 138.507 64.565C138.81 64.6023 139.069 64.8034 139.276 65.0287C140.579 66.449 141.306 68.1542 141.909 69.9854C142.249 71.0166 141.846 72.4664 142.714 73.1182C142.858 73.2257 143.021 73.3304 143.199 73.3222C143.407 73.313 143.575 73.1555 143.714 73.0019C145.125 71.4459 145.697 69.3225 146.149 67.2718C146.435 65.9717 146.691 64.6159 146.385 63.3201C146.079 62.0244 145.058 60.8037 143.732 60.6899C142.793 60.6094 141.768 61.0649 140.946 60.6031C140.514 60.3604 140.246 59.9126 139.913 59.5453C137.688 57.0939 131.136 58.7007 128.668 60.904C125.89 63.3841 126.865 71.3219 127.371 71.3073Z" fill="#E6335A"/>
<path d="M145.272 73.4759C145.265 72.4525 145.095 71.2067 143.994 70.7953C143.016 70.4299 141.84 71.0317 141.375 71.8502C140.909 72.6686 141.173 76.0131 141.955 76.2806C144.506 77.1548 145.275 73.8796 145.272 73.4759Z" fill="#FFAF66"/>
<path d="M136.162 72.7276C136.547 72.7276 136.859 72.4154 136.859 72.0303C136.859 71.6452 136.547 71.333 136.162 71.333C135.777 71.333 135.465 71.6452 135.465 72.0303C135.465 72.4154 135.777 72.7276 136.162 72.7276Z" fill="#0C2D41"/>
<path d="M130.695 72.0005C130.695 72.3858 130.383 72.6978 129.998 72.6978C129.613 72.6978 129.301 72.3858 129.301 72.0005C129.301 71.6153 129.613 71.3032 129.998 71.3032C130.383 71.3032 130.695 71.6153 130.695 72.0005Z" fill="#0C2D41"/>
<path d="M132.234 71.8663C131.953 72.3659 132 72.8297 131.998 73.384C131.996 73.935 131.915 74.1579 131.603 74.6158C131.515 74.7437 131.392 74.8469 131.357 75.0088C131.224 75.6174 132.132 76.4339 132.534 76.7872C132.938 77.1428 133.438 76.4829 132.981 76.2071C132.884 76.1485 132.791 76.1408 132.68 76.1277C132.476 76.1039 132.375 76.3297 132.403 76.4925C132.417 76.5769 132.433 76.6399 132.476 76.7125C132.669 76.5633 132.863 76.414 133.056 76.2648C132.896 76.1194 132.75 75.9547 132.608 75.7914C132.438 75.5956 132.126 75.3402 132.185 75.0514C132.203 74.9666 132.393 74.8203 132.445 74.7365C132.92 73.9767 132.602 72.914 132.72 72.0713C132.759 71.7946 132.395 71.58 132.234 71.8663Z" fill="#E89B5B"/>
<path d="M135 68.7948C135.751 68.6552 136.5 68.7836 137.253 68.7914C137.253 68.6256 137.253 68.4599 137.253 68.2947C137.245 68.2952 137.236 68.2952 137.228 68.2952C136.956 68.2981 136.889 68.709 137.163 68.7768C137.171 68.7793 137.179 68.7812 137.188 68.7826C137.498 68.851 137.63 68.3877 137.32 68.3034C136.575 68.1013 135.623 68.189 134.883 68.3674C134.601 68.4347 134.723 68.8461 135 68.7948Z" fill="#E6335A"/>
<path d="M131.451 78.3174C132.112 78.7327 132.853 78.8989 133.625 78.77C134.278 78.661 135.176 78.3475 135.372 77.6458C135.439 77.405 135.211 77.1923 134.976 77.2504C134.469 77.3754 134.106 77.781 133.581 77.9075C132.985 78.0509 132.343 78.0034 131.787 77.7437C131.404 77.5649 131.084 78.0863 131.451 78.3174Z" fill="#E89B5B"/>
<path d="M142.855 76.0344C143.49 76.0344 143.491 75.0479 142.855 75.0479C142.221 75.0479 142.22 76.0344 142.855 76.0344Z" fill="white"/>
<path d="M142.703 72.1712C143.339 71.4259 143.968 72.5879 144.091 73.1204C144.22 73.6762 144.221 74.2853 143.771 74.6934C143.606 74.8431 143.826 75.1387 144.013 75.0069C144.825 74.4317 144.668 73.1723 144.329 72.3621C143.993 71.5591 142.945 71.0746 142.343 71.894C142.19 72.1019 142.534 72.3684 142.703 72.1712Z" fill="#E89B5B"/>
<path d="M126.032 69.5549C127.76 69.2307 129.347 68.5285 130.639 67.3108C131.384 66.6087 131.929 65.7379 132.737 65.1026C133.901 64.1878 135.227 64.0453 136.624 63.756C136.877 63.7037 136.825 63.2695 136.562 63.299C134.989 63.4745 133.389 63.8403 132.191 64.935C131.35 65.703 130.75 66.6615 129.863 67.3922C128.704 68.3473 127.405 68.9007 125.934 69.1987C125.7 69.2462 125.8 69.5985 126.032 69.5549Z" fill="#F7527E"/>
<path d="M126.357 65.0141C127.801 64.4181 128.904 63.4446 130.168 62.5569C132.414 60.9791 134.675 60.9258 137.306 61.28C137.686 61.3314 137.762 60.8076 137.377 60.7576C135.468 60.51 133.435 60.4388 131.637 61.2427C129.656 62.1275 128.246 63.8909 126.261 64.7844C126.132 64.8426 126.225 65.0689 126.357 65.0141Z" fill="#F7527E"/>
<path d="M131.267 59.5258C133.735 59.0388 136.048 58.7389 138.472 59.5689C138.71 59.6503 138.88 59.2622 138.645 59.157C136.264 58.0861 133.63 58.7151 131.21 59.3194C131.075 59.3528 131.132 59.552 131.267 59.5258Z" fill="#F7527E"/>
<path d="M140.351 64.5549C141.139 64.884 141.793 65.4306 142.267 66.1414C142.663 66.7346 142.731 67.3912 143.016 68.0153C143.066 68.1248 143.258 68.0991 143.279 67.9809C143.415 67.2308 142.923 66.3256 142.485 65.7475C141.958 65.0536 141.245 64.5613 140.431 64.2632C140.246 64.1944 140.176 64.4818 140.351 64.5549Z" fill="#F7527E"/>
<path d="M141.698 63.0575C142.741 63.5343 143.634 64.2433 144.294 65.1882C144.871 66.0148 145.044 66.9632 145.487 67.8412C145.553 67.972 145.72 67.8911 145.735 67.7738C145.997 65.5928 143.621 63.4927 141.832 62.7396C141.652 62.6645 141.519 62.9756 141.698 63.0575Z" fill="#F7527E"/>
<path d="M142.67 61.8525C144.257 62.1176 145.557 63.1042 146.465 64.4101C147.249 65.5372 147.559 66.8858 148.277 68.0279C148.376 68.1844 148.587 68.0768 148.561 67.9082C148.107 65.0269 145.711 61.9136 142.71 61.555C142.543 61.5346 142.502 61.8244 142.67 61.8525Z" fill="#F7527E"/>
<path d="M145.229 76.8716C144.992 77.9546 144.761 79.1956 145.55 80.1158C145.938 80.5694 146.519 80.7589 146.997 81.0903C148.175 81.9083 148.43 82.9869 148.568 84.3108C148.577 84.4057 148.713 84.4363 148.742 84.3345C149.015 83.3847 148.706 82.3289 148.133 81.538C147.777 81.0462 147.364 80.8034 146.877 80.4676C146.076 79.9162 145.553 79.6371 145.436 78.5439C145.381 78.021 145.495 77.4817 145.584 76.97C145.625 76.7393 145.28 76.6366 145.229 76.8716Z" fill="#F7527E"/>
<path d="M142.893 79.1751C142.469 79.9194 142.507 80.7276 142.865 81.4971C143.233 82.2865 144.056 83.3894 144.852 83.7547C144.945 83.7969 145.051 83.7276 145.026 83.6215C144.884 83.0332 144.358 82.6373 143.979 82.1857C143.334 81.4177 142.8 80.4059 143.308 79.4178C143.448 79.144 143.047 78.9047 142.893 79.1751Z" fill="#F7527E"/>
<path d="M126.602 77.1954C126.296 78.1631 126.482 78.9971 126.973 79.8843C127.795 81.3719 129.85 83.3267 128.024 84.9447C127.86 85.0896 128.081 85.3852 128.262 85.2524C129.046 84.6758 129.322 83.7866 129.118 82.8198C128.687 80.7706 126.349 79.6265 126.916 77.2822C126.965 77.0777 126.665 76.9958 126.602 77.1954Z" fill="#F7527E"/>
<path d="M130.48 84.9157C130.642 84.626 130.762 84.3158 130.817 83.9868C130.856 83.7455 130.917 83.4044 130.671 83.2614C130.632 83.2386 130.568 83.2318 130.529 83.2614C130.342 83.4048 130.372 83.603 130.351 83.825C130.322 84.1307 130.239 84.4205 130.103 84.6957C129.98 84.9448 130.342 85.1629 130.48 84.9157Z" fill="#F7527E"/>
<path d="M199.006 118.533H10.0078V123.938H199.006V118.533Z" fill="#24283F"/>
<path d="M199.011 118.533H179.723V123.938H199.011V118.533Z" fill="#373E5B"/>
<path d="M16.4769 123.938H12.3789V198.921H16.4769V123.938Z" fill="#56AECE"/>
<path d="M25.9379 123.938H21.8398V193.404H25.9379V123.938Z" fill="#4198AF"/>
<path d="M186.711 123.938H182.613V198.921H186.711V123.938Z" fill="#56AECE"/>
<path d="M196.172 123.938H192.074V193.404H196.172V123.938Z" fill="#4198AF"/>
<path d="M115.451 76.5247H60.002C58.9481 76.5247 58.0938 77.379 58.0938 78.4329V108.55C58.0938 109.604 58.9481 110.458 60.002 110.458H115.451C116.505 110.458 117.359 109.604 117.359 108.55V78.4329C117.359 77.379 116.505 76.5247 115.451 76.5247Z" fill="#AEAEAF"/>
<path d="M115.45 76.5247H70.4512C69.3973 76.5247 68.543 77.379 68.543 78.4329V94.229C68.543 99.6455 72.9337 104.036 78.3502 104.036H115.449C116.503 104.036 117.357 103.182 117.357 102.128V78.4324C117.358 77.379 116.503 76.5247 115.45 76.5247Z" fill="#BDBEC0"/>
<path d="M87.7251 98.3572C86.0713 98.3572 84.7305 99.698 84.7305 101.352V118.533H90.7203V101.352C90.7198 99.698 89.379 98.3572 87.7251 98.3572Z" fill="#80878E"/>
<path d="M121.143 116.641H86.7812V118.533H121.143V116.641Z" fill="#BDBEC0"/>
<path d="M98.9175 116.641H76.5352V118.533H98.9175V116.641Z" fill="#64676C"/>
<path d="M130.473 28.8558C130.473 15.7564 119.853 5.13696 106.754 5.13696C93.6545 5.13696 83.0352 15.7564 83.0352 28.8558C83.0352 41.9552 93.6545 52.5746 106.754 52.5746C108.763 52.5746 110.714 52.3221 112.578 51.8516C114.56 55.5484 118.392 57.8303 123.229 56.1851C123.229 56.1851 119.281 53.4701 118.886 49.2369C125.824 45.0981 130.473 37.5214 130.473 28.8558Z" fill="#92D8FE"/>
<path d="M112.584 30.2038C112.584 31.5965 112.018 32.8602 111.105 33.7707C110.192 34.6842 108.931 35.2497 107.538 35.2497C104.752 35.2497 102.492 32.9896 102.492 30.2038C102.492 27.4151 104.752 25.158 107.538 25.158L108.055 25.1836H108.064C109.146 25.2956 110.129 25.7525 110.899 26.4387C111.932 27.3608 112.584 28.7045 112.584 30.2038Z" fill="#E6335A"/>
<path d="M110.903 26.4387L107.543 30.2038V25.158L108.06 25.1836H108.069C109.151 25.2956 110.133 25.7525 110.903 26.4387Z" fill="#FFF252"/>
<path d="M112.589 30.2038C112.589 31.5965 112.023 32.8603 111.11 33.7708L107.543 30.2038L110.903 26.4387C111.937 27.3609 112.589 28.7046 112.589 30.2038Z" fill="#7C71CD"/>
<path d="M99.7714 30.2038C99.7714 31.5965 99.2054 32.8602 98.2925 33.7707C97.6204 34.4428 96.7588 34.9279 95.794 35.1348C95.4495 35.2094 95.0904 35.2497 94.7255 35.2497C91.9397 35.2497 89.6797 32.9896 89.6797 30.2038C89.6797 27.4151 91.9397 25.158 94.7255 25.158L95.2426 25.1836H95.2513C96.3338 25.2956 97.3161 25.7525 98.086 26.4387C99.1196 27.3608 99.7714 28.7045 99.7714 30.2038Z" fill="#E6335A"/>
<path d="M99.7685 30.2036C99.7685 31.5963 99.2025 32.86 98.2896 33.7705L94.7227 30.2036L98.0827 26.4385C99.1163 27.3606 99.7685 28.7043 99.7685 30.2036Z" fill="#7C71CD"/>
<path d="M98.0855 26.4387L94.7255 30.2038H89.6797C89.6797 27.4151 91.9397 25.158 94.7255 25.158L95.2426 25.1836H95.2513C96.3338 25.2956 97.316 25.7525 98.0855 26.4387Z" fill="#FFF252"/>
<path d="M98.2896 33.771C97.6175 34.4431 96.7559 34.9282 95.7911 35.1351C95.3778 33.2395 94.7227 30.2041 94.7227 30.2041L98.2896 33.771Z" fill="#5E3C77"/>
<path d="M120.284 25.158C121.677 25.158 122.941 25.7239 123.851 26.6369C124.523 27.309 125.009 28.1705 125.215 29.1353C125.29 29.4799 125.33 29.8389 125.33 30.2038C125.33 32.9896 123.07 35.2497 120.284 35.2497C117.495 35.2497 115.238 32.9896 115.238 30.2038L115.264 29.6868V29.678C115.376 28.5955 115.832 27.6133 116.519 26.8433C117.441 25.8097 118.785 25.158 120.284 25.158Z" fill="#7C71CD"/>
<path d="M120.289 25.158C121.681 25.158 122.945 25.7235 123.855 26.6369L120.289 30.2038L116.523 26.8438C117.446 25.8097 118.79 25.158 120.289 25.158Z" fill="#E6335A"/>
<path d="M116.519 26.844L120.284 30.204V35.2499C117.495 35.2499 115.238 32.9898 115.238 30.204L115.264 29.687V29.6783C115.376 28.5957 115.833 27.6135 116.519 26.844Z" fill="#5E3C77"/>
<path d="M123.856 26.6372C124.528 27.3093 125.014 28.1709 125.22 29.1357C123.324 29.549 120.289 30.2041 120.289 30.2041L123.856 26.6372Z" fill="#FFF252"/>
<path d="M118.929 44.3345C112.343 44.2701 105.727 44.32 99.1305 44.4474C99.1324 41.8889 98.9715 39.3265 98.6464 36.7931C98.6183 36.5741 98.2849 36.5581 98.2917 36.7931C98.3639 39.3468 98.485 41.9039 98.6289 44.4581C97.2368 44.4857 95.8436 44.5124 94.4539 44.5472C94.245 44.5526 94.2441 44.8719 94.4539 44.8724C95.8538 44.8763 97.2537 44.8816 98.6532 44.8864C98.7007 45.7029 98.7389 46.5209 98.7937 47.3359C98.8053 47.506 99.051 47.508 99.0597 47.3359C99.0999 46.5214 99.1218 45.7049 99.1285 44.8884C105.729 44.9112 112.328 44.9373 118.929 44.9407C119.319 44.9407 119.319 44.3384 118.929 44.3345Z" fill="white"/>
<path d="M99.8899 42.4985C100.606 41.8133 101.456 40.7293 102.442 40.4502C104.542 39.8561 104.324 41.7348 105.536 42.3841C106.917 43.1246 107.585 41.3137 108.355 40.4415C109.191 39.4942 110.242 39.0726 111.314 40.112C111.544 40.3344 111.572 40.6964 111.867 40.8825C112.175 41.0768 112.459 41.0564 112.814 41.0327C114.415 40.927 116.231 39.6628 117.709 38.6326C117.655 38.714 117.598 38.793 117.544 38.8744C117.289 39.265 116.91 39.7306 116.841 40.2021C116.809 40.425 117.081 40.6654 117.267 40.4502C117.587 40.0815 117.77 39.5717 118.019 39.1516C118.296 38.6835 118.593 38.2304 118.924 37.7991C119.045 37.6412 118.882 37.3795 118.693 37.3955C117.619 37.4861 116.551 37.6213 115.481 37.7502C115.163 37.7885 115.151 38.2905 115.481 38.26C116.193 38.1945 116.904 38.1267 117.614 38.0521C116.439 38.7988 115.245 39.546 113.979 40.1037C112.449 40.7778 112.335 40.2729 111.388 39.2388C110.323 38.0758 109.098 38.6951 108.235 39.7423C106.911 41.3467 106.469 42.6812 104.693 40.629C104.321 40.1992 104.142 39.8004 103.519 39.6928C102.069 39.4418 100.345 41.2459 99.6025 42.2775C99.478 42.45 99.7445 42.6371 99.8899 42.4985Z" fill="white"/>
<path d="M100.535 17.5779C99.2191 17.5779 97.8381 17.4616 96.5316 17.5818C96.2937 17.6036 96.2622 17.888 96.4357 17.9816C96.3756 18.3479 96.3359 18.7162 96.3112 19.0864C96.301 19.1062 96.3005 19.1261 96.3073 19.1489C96.2419 20.198 96.2816 21.2573 96.254 22.3049C96.2506 22.428 96.3557 22.5118 96.4696 22.5205C97.8565 22.6252 99.2554 22.5821 100.647 22.5932C100.76 22.5942 100.855 22.4968 100.855 22.3844C100.867 20.8531 100.927 19.3214 100.753 17.796C100.74 17.6787 100.664 17.5779 100.535 17.5779ZM96.5975 18.0135C96.6615 18.0189 96.7274 18.0189 96.7919 18.0237C97.5594 18.8053 98.2756 19.6305 98.9928 20.4577C98.6735 20.4558 98.3536 20.4567 98.0353 20.4669C97.8715 20.2198 97.6316 20.0129 97.4165 19.82C97.1533 19.5845 96.8776 19.3626 96.6005 19.1431C96.5927 18.7666 96.5917 18.39 96.5975 18.0135ZM97.2081 20.0284C97.3549 20.1752 97.5022 20.3385 97.6617 20.4839C97.3186 20.5018 96.9779 20.5328 96.6421 20.5798C96.629 20.2067 96.6189 19.8336 96.6092 19.4605C96.8103 19.6475 97.0133 19.8336 97.2081 20.0284ZM96.6518 20.8822C97.9015 20.9786 99.1856 20.8841 100.441 20.8861C100.44 21.3154 100.438 21.7443 100.438 22.1736C99.1823 22.1736 97.9359 22.146 96.6809 22.0965C96.6756 21.6914 96.6654 21.2868 96.6518 20.8822ZM99.5844 18.0295C99.7473 18.2863 99.9115 18.5422 100.092 18.7864C100.193 18.9221 100.295 19.0844 100.416 19.2196C100.432 19.6383 100.44 20.057 100.441 20.4761C100.424 20.4761 100.408 20.4756 100.391 20.4756C100.085 20.1481 99.8413 19.6732 99.583 19.3199C99.2637 18.8829 98.9211 18.4642 98.5669 18.0557C98.9065 18.0489 99.2462 18.0382 99.5844 18.0295ZM100.249 18.5606C100.117 18.3871 99.9973 18.2045 99.8742 18.0247C100.028 18.0213 100.182 18.0184 100.335 18.0169C100.358 18.2534 100.377 18.4904 100.391 18.7268C100.34 18.6706 100.29 18.6144 100.249 18.5606ZM98.4423 18.0576C99.0698 18.8179 99.6281 19.617 100.116 20.4732C99.881 20.4698 99.6445 20.4659 99.4076 20.4626C98.6347 19.6141 97.8206 18.8087 96.975 18.0334C97.4591 18.0596 97.949 18.0668 98.4423 18.0576Z" fill="white"/>
<path d="M106.548 12.0609C105.213 12.0846 103.878 11.9984 102.544 12.0478C102.3 12.057 102.273 12.3773 102.462 12.4573C102.16 15.8352 102.19 19.2873 102.283 22.674C102.286 22.7912 102.372 22.8596 102.481 22.8726C103.878 23.0422 105.254 23.0568 106.658 23.0655C106.772 23.0665 106.867 22.9691 106.867 22.8566C106.882 19.329 106.985 15.7838 106.748 12.2615C106.741 12.1549 106.662 12.0589 106.548 12.0609ZM102.67 18.3332C102.804 18.5566 102.942 18.7775 103.074 18.9965C103.184 19.1787 103.316 19.3798 103.471 19.5494C103.207 19.5674 102.945 19.5945 102.685 19.6304C102.686 19.5674 102.686 19.5068 102.686 19.4491C102.68 19.077 102.676 18.7048 102.67 18.3332ZM103.806 19.5315C103.692 19.235 103.501 18.9476 103.342 18.6864C103.146 18.3632 102.943 18.0134 102.662 17.7551C102.655 17.269 102.648 16.783 102.642 16.297C102.927 16.8378 103.218 17.3752 103.536 17.8975C103.859 18.4252 104.171 19.0232 104.574 19.5112C104.318 19.5131 104.062 19.5204 103.806 19.5315ZM105.027 19.5121C104.737 18.8681 104.259 18.2881 103.879 17.6979C103.467 17.0583 103.049 16.423 102.635 15.7843C102.629 15.2809 102.628 14.7774 102.624 14.2739C103.706 16.0135 104.792 17.7449 105.81 19.5213C105.551 19.5179 105.29 19.5136 105.027 19.5121ZM106.214 19.5276C105.214 17.5642 103.867 15.7746 102.623 13.9623C102.62 13.4676 102.614 12.9724 102.613 12.4771C102.75 12.4815 102.887 12.4829 103.024 12.4849C103.794 13.6057 104.46 14.8031 105.149 15.9738C105.462 16.5073 105.918 17.8215 106.473 18.1902C106.494 18.621 106.527 19.0755 106.549 19.5315C106.438 19.5305 106.326 19.5296 106.214 19.5276ZM106.389 13.5698C106.375 14.0137 106.38 14.46 106.39 14.9068C106.198 14.5695 105.962 14.2463 105.767 13.9391C105.448 13.4371 105.102 12.9525 104.753 12.4713C105.014 12.4665 105.276 12.4621 105.537 12.4606C106.617 12.4543 106.42 12.4946 106.389 13.5698ZM104.433 12.4771C104.777 13.0232 105.114 13.5737 105.447 14.1261C105.752 14.632 106.003 15.2421 106.408 15.6753C106.427 16.266 106.447 16.8567 106.451 17.4445C106.449 17.4416 106.447 17.4387 106.445 17.4357C106.093 16.8494 105.739 16.2636 105.381 15.6811C104.711 14.5918 104.02 13.5078 103.245 12.4897C103.641 12.4907 104.037 12.4844 104.433 12.4771ZM106.448 21.6287C106.247 22.5136 106.063 22.5373 105.267 22.6512C104.924 22.7001 103.565 22.7258 103.264 22.5712C102.477 22.1666 102.617 20.8936 102.671 19.9361C103.955 20.0345 105.276 19.9298 106.564 19.9386C106.58 20.5385 106.564 21.1233 106.448 21.6287Z" fill="white"/>
<path d="M112.559 13.4721C111.225 13.4983 109.888 13.412 108.556 13.4663C108.312 13.4765 108.284 13.7944 108.472 13.8753C108.2 16.7798 108.202 19.7614 108.281 22.6737C108.284 22.7977 108.376 22.8752 108.494 22.8869C109.893 23.0284 111.265 23.055 112.671 23.0657C112.784 23.0666 112.879 22.9692 112.88 22.8568C112.893 19.8001 112.978 16.7323 112.768 13.6805C112.759 13.57 112.678 13.4697 112.559 13.4721ZM112.25 16.2182C112.047 15.832 111.673 15.4656 111.416 15.157C111.055 14.7238 110.68 14.3032 110.29 13.8952C110.584 13.8889 110.877 13.883 111.171 13.8806C111.171 13.9 111.176 13.9199 111.191 13.9402C111.597 14.5018 111.975 15.0896 112.431 15.613C112.438 15.8155 112.443 16.0181 112.448 16.2206C112.382 16.2196 112.316 16.2192 112.25 16.2182ZM112.322 13.8845C112.542 14.0483 112.355 14.0812 112.38 14.4684C112.394 14.6991 112.401 14.9307 112.411 15.1618C112.059 14.7553 111.758 14.3027 111.44 13.87C111.722 13.8448 112.18 13.7793 112.322 13.8845ZM110.003 13.901C110.418 14.3356 110.814 14.7882 111.196 15.252C111.438 15.5456 111.657 15.9129 111.921 16.2133C111.576 16.208 111.228 16.2027 110.879 16.2017C110.647 15.7666 110.294 15.3464 110.024 14.9486C109.772 14.5789 109.497 14.2339 109.194 13.9078C109.463 13.9092 109.733 13.9063 110.003 13.901ZM108.634 15.0741C108.836 15.3532 109.029 15.6391 109.229 15.9197C109.302 16.0234 109.38 16.1348 109.463 16.24C109.188 16.2589 108.916 16.2875 108.645 16.3258C108.642 15.909 108.638 15.4918 108.634 15.0741ZM109.879 16.2187C109.709 16.0021 109.512 15.801 109.35 15.5781C109.118 15.2587 108.891 14.9379 108.64 14.6341C108.637 14.6307 108.633 14.6298 108.63 14.6269C108.628 14.3836 108.626 14.1399 108.624 13.8961C108.703 13.899 108.783 13.8995 108.862 13.901C109.297 14.3521 109.647 14.858 109.986 15.3838C110.158 15.6508 110.322 15.9473 110.526 16.2022C110.309 16.2041 110.094 16.21 109.879 16.2187ZM111.755 22.6499C111.379 22.7541 110.757 22.6945 110.355 22.6412C109.746 22.693 109.203 22.4987 108.728 22.0583C108.725 21.8489 108.723 21.6396 108.72 21.4302C108.486 20.2043 108.674 18.7675 108.657 17.5164C108.652 17.2193 108.652 16.9218 108.648 16.6247C109.903 16.7246 111.193 16.6286 112.455 16.6301C112.471 17.7024 112.464 18.7753 112.461 19.8452C112.458 20.8207 112.853 22.3456 111.755 22.6499Z" fill="white"/>
<path d="M118.788 14.6263C118.781 14.5125 118.695 14.4093 118.573 14.4117C117.24 14.4398 115.901 14.3521 114.569 14.4122C114.326 14.4233 114.298 14.7393 114.486 14.8211C114.233 17.4252 114.28 20.0603 114.283 22.6741C114.283 22.8035 114.386 22.8878 114.507 22.8985C115.904 23.024 117.283 23.054 118.684 23.0656C118.797 23.0666 118.892 22.9692 118.893 22.8568C118.906 20.1107 118.951 17.3695 118.788 14.6263ZM114.678 18.6483C114.677 18.5805 114.677 18.5131 114.676 18.4453C114.852 18.6338 115.028 18.8227 115.204 19.0112C115.364 19.1823 115.521 19.3703 115.692 19.538C115.357 19.5559 115.025 19.5859 114.697 19.631C114.69 19.3039 114.683 18.9763 114.678 18.6483ZM116.128 19.52C115.936 19.2463 115.666 19.018 115.432 18.784C115.178 18.5305 114.925 18.2771 114.671 18.0237C114.665 17.5774 114.662 17.1311 114.657 16.6848C115.1 17.2537 115.538 17.8274 115.959 18.4123C116.205 18.7539 116.428 19.1634 116.698 19.5118C116.508 19.5123 116.318 19.5147 116.128 19.52ZM117.133 19.5128C116.877 19.0117 116.446 18.5402 116.119 18.1094C115.661 17.5071 115.162 16.9426 114.654 16.3829C114.65 15.8765 114.644 15.3697 114.639 14.8633C115.768 16.3747 116.72 18.0954 117.951 19.5244C117.68 19.5196 117.407 19.5152 117.133 19.5128ZM117.09 14.8245C117.109 14.8245 117.136 14.8211 117.158 14.8202C117.368 15.2103 117.584 15.5931 117.834 15.9613C118.011 16.223 118.209 16.5734 118.482 16.7628C118.472 16.9954 118.462 17.2154 118.465 17.3976C118.469 17.5939 118.466 17.7906 118.468 17.9873C118.146 17.4722 117.714 16.9852 117.371 16.5171C116.96 15.9555 116.544 15.3983 116.126 14.842C116.448 14.8347 116.769 14.827 117.09 14.8245ZM118.142 14.8318C118.263 14.8817 118.33 14.9011 118.374 14.9103C118.348 14.9282 118.333 14.9762 118.38 15.1012C118.476 15.3581 118.501 15.7065 118.501 16.0699C118.376 15.924 118.244 15.784 118.14 15.6464C117.925 15.3619 117.707 15.0794 117.489 14.7974C117.726 14.7775 117.98 14.7649 118.142 14.8318ZM115.939 14.8463C116.39 15.4705 116.836 16.097 117.277 16.7274C117.661 17.2755 118.014 17.9234 118.47 18.4254C118.472 18.7937 118.477 19.1624 118.476 19.5307C118.448 19.5302 118.419 19.5302 118.391 19.5297C117.335 17.9113 116.097 16.3388 114.861 14.8473C115.22 14.8555 115.58 14.8541 115.939 14.8463ZM118.304 22.4493C117.831 22.945 115.702 22.7114 115.193 22.3155C114.533 21.8019 114.728 21.2941 114.712 20.465C114.709 20.2891 114.706 20.1132 114.702 19.9373C115.95 20.0322 117.232 19.9377 118.486 19.9402C118.529 20.7063 118.677 22.0592 118.304 22.4493Z" fill="white"/>
<path d="M99.6617 13.3752C99.5207 13.0297 99.1592 12.7869 98.8292 12.6484C98.7676 12.6227 98.7046 12.6043 98.6412 12.5873C98.553 12.0107 98.4614 11.4345 98.3713 10.8593C98.6542 10.8928 98.9334 10.9732 99.1485 11.1481C99.275 11.2509 99.4528 11.0842 99.3312 10.9654C99.0656 10.7052 98.6969 10.554 98.3151 10.4891C98.2651 10.1664 98.2143 9.84366 98.1687 9.5219C98.1542 9.41965 97.9797 9.44291 97.9875 9.54661C98.0098 9.84899 98.0316 10.1528 98.0534 10.4576C97.8736 10.4455 97.6958 10.4503 97.5286 10.4736C97.5184 10.4751 97.5073 10.478 97.4971 10.4799C97.4351 10.0782 97.3701 9.67842 97.2989 9.28204C97.2761 9.15653 97.0605 9.18367 97.0741 9.31256C97.1167 9.72494 97.1516 10.1378 97.1865 10.5506C96.6496 10.7047 96.0458 11.0541 96.007 11.6085C95.9499 12.4347 96.6869 12.7617 97.3633 12.8679C97.3968 13.352 97.4302 13.836 97.4646 14.3201C97.1613 14.2222 96.8701 14.0745 96.5909 13.899C96.4272 13.7958 96.2038 14.0056 96.3181 14.1719C96.6001 14.5823 97.0333 14.7703 97.5034 14.8328C97.5276 15.158 97.5504 15.4826 97.577 15.8078C97.5935 16.0045 97.8814 16.0103 97.8872 15.8078C97.8964 15.4918 97.8964 15.1744 97.892 14.8561C98.1004 14.8561 98.3087 14.8381 98.5098 14.8081C98.5641 15.1376 98.6227 15.4652 98.6916 15.7903C98.7308 15.9754 99.04 15.9371 99.0254 15.7453C98.9998 15.407 98.959 15.0688 98.9217 14.7306C99.494 14.5891 99.9064 13.9761 99.6617 13.3752ZM97.8581 10.8438C97.9298 10.839 98.0054 10.8404 98.0805 10.8404C98.1217 11.4011 98.1663 11.9637 98.2196 12.5253C98.065 12.5156 97.9099 12.5132 97.7558 12.5073C97.7021 11.9637 97.6352 11.4214 97.5577 10.8826C97.657 10.8651 97.7573 10.8506 97.8581 10.8438ZM97.0358 12.3785C96.3196 12.0688 96.384 11.3909 96.9834 11.0725C97.0605 11.0318 97.1409 10.9984 97.2223 10.9698C97.2621 11.4679 97.2984 11.9656 97.3333 12.4637C97.232 12.4448 97.1317 12.4201 97.0358 12.3785ZM97.8804 14.419C97.8649 13.9165 97.8339 13.413 97.7907 12.91C97.9511 12.9192 98.1086 12.927 98.2622 12.9464C98.3136 13.4401 98.3742 13.932 98.4473 14.4204C98.254 14.4466 98.065 14.4447 97.8804 14.419ZM98.8781 14.3061C98.8277 13.8937 98.7696 13.4818 98.709 13.0694C98.7526 13.0879 98.7967 13.0995 98.8394 13.1237C99.386 13.4295 99.4048 14.0725 98.8781 14.3061Z" fill="white"/>
<path d="M123.094 21.2285C122.893 21.3933 122.788 21.6491 122.635 21.8575C122.621 21.8759 122.605 21.8919 122.59 21.9098C122.638 19.9013 122.555 17.8894 122.476 15.8813C122.6 16.0683 122.717 16.2597 122.841 16.4468C122.978 16.6537 123.376 16.5253 123.269 16.266C123.156 15.9913 122.958 15.7325 122.758 15.514C122.683 15.4316 122.561 15.2916 122.433 15.1966C122.35 14.9582 121.945 14.9795 121.95 15.2683C121.89 15.3424 121.838 15.4243 121.795 15.482C121.585 15.7621 121.396 16.0586 121.204 16.3518C121.134 16.4589 121.302 16.5926 121.384 16.4904C121.543 16.2946 121.703 16.1003 121.865 15.907C121.877 15.8929 121.917 15.8517 121.966 15.8009C122.042 17.8821 122.091 19.9628 122.135 22.045C121.949 21.8386 121.754 21.6341 121.558 21.4495C121.372 21.2736 121.097 21.5469 121.276 21.7315C121.488 21.9491 121.667 22.1943 121.866 22.4235C121.984 22.5606 122.118 22.738 122.317 22.7264C122.542 22.7133 122.738 22.4724 122.869 22.3164C123.1 22.0412 123.37 21.7252 123.416 21.3613C123.438 21.1811 123.204 21.1384 123.094 21.2285Z" fill="white"/>
<path d="M113.991 9.85043C113.752 9.46471 113.264 9.12067 112.891 8.87499C112.626 8.70103 112.389 9.11922 112.645 9.29608C112.818 9.41626 113.039 9.58101 113.23 9.75643C109.792 9.63141 106.338 9.77533 102.898 9.76176C102.953 9.7133 103.008 9.66387 103.064 9.61687C103.22 9.48555 103.381 9.35811 103.542 9.23163C103.725 9.0882 103.482 8.76984 103.291 8.90649C103.019 9.10129 102.743 9.2956 102.49 9.51414C102.318 9.66242 102.178 9.83105 102.343 10.0418C102.504 10.2488 102.76 10.4159 102.966 10.5729C103.186 10.7396 103.428 10.9688 103.722 10.9C103.816 10.8782 103.863 10.7585 103.813 10.6776C103.671 10.4489 103.411 10.3316 103.201 10.1707C103.134 10.1184 103.02 10.0399 102.917 9.95946C106.36 10.0806 109.817 10.1804 113.262 10.1848C113.223 10.2323 113.183 10.2783 113.144 10.3263C112.957 10.5598 112.691 10.7861 112.755 11.1035C112.768 11.1714 112.854 11.2426 112.926 11.2339C113.231 11.1961 113.353 10.9296 113.53 10.6994C113.669 10.5196 113.808 10.3413 113.952 10.1654C114.023 10.0772 114.056 9.95559 113.991 9.85043Z" fill="white"/>
<path d="M90.2141 18.2887C90.2272 18.6754 90.2771 19.0543 90.4109 19.3959C90.4622 19.5268 90.672 19.5587 90.7098 19.3959C90.7922 19.0427 90.8058 18.6691 90.7961 18.2916C91.1406 18.2979 91.5186 18.3333 91.8185 18.1806C91.9247 18.1268 91.9247 17.9538 91.8185 17.9001C91.5089 17.7416 91.1256 17.7959 90.7753 17.8172C90.7549 17.4765 90.7292 17.1383 90.7287 16.8136C90.7287 16.5127 90.2766 16.5152 90.2631 16.8136C90.2485 17.1354 90.2214 17.4809 90.2117 17.8293C89.8783 17.8346 89.5445 17.8409 89.2111 17.84C88.9421 17.839 88.9484 18.2344 89.2111 18.2538C89.5469 18.278 89.8802 18.2867 90.2141 18.2887Z" fill="white"/>
<path d="M91.8531 21.4203C91.025 21.4586 90.1983 21.5119 89.3711 21.5647C89.1032 21.5816 89.0973 21.9838 89.3711 21.9858C90.1988 21.9916 91.0259 21.9974 91.8531 21.9892C92.2199 21.9853 92.2185 21.4033 91.8531 21.4203Z" fill="white"/>
<path d="M92.6722 39.7158C92.9334 39.4202 93.2896 39.0553 93.3085 38.6647C93.3133 38.564 93.1994 38.516 93.1195 38.5562C92.7764 38.7292 92.5525 39.1852 92.32 39.5137C91.9439 39.2942 91.5674 39.0757 91.1875 38.862C90.9423 38.7239 90.7286 39.0912 90.9675 39.2385C91.3159 39.4531 91.6609 39.6731 92.0059 39.8931C91.7588 40.1805 91.5015 40.4581 91.2268 40.7198C91.0804 40.8594 91.2965 41.0682 91.4463 40.9393C91.7549 40.6738 92.0447 40.3888 92.3229 40.0928C92.3427 40.1054 92.3631 40.118 92.383 40.1306C92.7585 40.3729 93.134 40.7072 93.5924 40.7344C93.7034 40.7411 93.7611 40.6118 93.7136 40.5231C93.5062 40.1354 93.0444 39.9309 92.6722 39.7158Z" fill="white"/>
<path d="M96.544 38.5309C96.292 38.9384 96.0589 39.3556 95.8384 39.7792C95.726 39.6023 95.585 39.4327 95.4779 39.2728C95.2952 39 95.0985 38.7436 94.861 38.5159C94.6551 38.3177 94.3517 38.6215 94.5475 38.8294C94.7811 39.077 94.9579 39.3547 95.1305 39.6464C95.2603 39.8659 95.3858 40.1329 95.5913 40.2928C95.505 40.4731 95.411 40.649 95.332 40.8331C95.0355 41.5202 94.6444 42.3106 94.6779 43.0694C94.6856 43.2487 94.9182 43.3156 95.0151 43.1605C95.3887 42.5635 95.5007 41.8066 95.742 41.1452C96.0487 40.3039 96.4301 39.5 96.8628 38.717C96.9781 38.5091 96.669 38.3288 96.544 38.5309Z" fill="white"/>
<path d="M47.4376 39.117C47.4376 26.0176 36.8183 15.3982 23.7188 15.3982C10.6194 15.3982 0 26.0176 0 39.117C0 52.2164 10.6194 62.8358 23.7188 62.8358C25.7283 62.8358 27.6787 62.5839 29.5424 62.1133C31.5248 65.8101 35.3568 68.092 40.1943 66.4469C40.1943 66.4469 36.2465 63.7318 35.851 59.4986C42.7887 55.3594 47.4376 47.7821 47.4376 39.117Z" fill="#92D8FE"/>
<path d="M31.668 30.6876L35.6424 27.471C35.7447 27.3882 35.9918 27.6353 35.9089 27.7376L32.6914 31.7111L31.668 30.6876Z" fill="#7C71CD"/>
<path d="M29.0725 40.1163L21.7681 46.452L16.9258 41.6097L23.2616 34.3053C24.4018 33.1651 24.6891 33.2019 26.091 32.4295C27.3838 31.7128 28.7736 31.1657 30.2215 30.8028L31.6863 30.4374C32.4466 30.2436 33.1342 30.9312 32.9428 31.6939L32.5775 33.1588C32.2169 34.6091 31.6669 35.9964 30.9507 37.2893C30.1779 38.6911 30.2127 38.9761 29.0725 40.1163Z" fill="white"/>
<path d="M30.9447 37.289C30.9447 37.289 29.3641 35.2238 28.7564 34.6161C28.1492 34.009 26.0859 32.4297 26.0859 32.4297C27.3788 31.7131 28.7685 31.166 30.2164 30.803L31.6813 30.4377C32.4416 30.2438 33.1292 30.9314 32.9378 31.6942L32.5724 33.159C32.2109 34.6089 31.6614 35.9962 30.9447 37.289Z" fill="#E6335A"/>
<path d="M16.9268 41.6102L20.3532 37.6599C20.3532 37.6599 14.8305 34.956 11.5059 38.945C10.2973 40.3948 10.5658 41.2826 11.1575 41.2472C12.1469 41.1881 14.627 39.619 16.9268 41.6102Z" fill="#E6335A"/>
<path d="M21.7695 46.452L25.7198 43.0256C25.7198 43.0256 28.4237 48.5483 24.4347 51.8725C22.9848 53.081 22.0971 52.8125 22.1325 52.2209C22.1916 51.2319 23.7602 48.7523 21.7695 46.452Z" fill="#E6335A"/>
<path d="M27.0029 40.4072C25.8888 41.5212 24.0824 41.5212 22.9683 40.4072C21.8543 39.2931 21.8543 37.4871 22.9683 36.3726C24.0824 35.2586 25.8888 35.2586 27.0029 36.3726C28.1169 37.4871 28.1169 39.2931 27.0029 40.4072Z" fill="#E6335A"/>
<path d="M26.4163 39.8164C25.6283 40.6043 24.3515 40.6043 23.5636 39.8164C22.7757 39.0285 22.7757 37.7517 23.5636 36.9637C24.3515 36.1758 25.6283 36.1758 26.4163 36.9637C27.2037 37.7512 27.2037 39.0285 26.4163 39.8164Z" fill="#73CDE5"/>
<path d="M19.2018 48.0491L15.3281 44.1754L16.9248 41.6101L21.7671 46.452L19.2018 48.0491Z" fill="#7C71CD"/>
<path d="M16.329 48.329L15.0473 47.0474C14.7551 46.7552 14.7551 46.2808 15.0473 45.9886L16.0944 44.9414L18.4344 47.2814L17.3873 48.3286C17.0951 48.6217 16.6212 48.6217 16.329 48.329Z" fill="#E6335A"/>
<path d="M25.5141 37.3927C25.6503 37.5909 25.7288 37.8104 25.7196 38.0532C25.7104 38.2954 25.5383 38.4762 25.5311 38.7098C25.5272 38.8304 25.6542 38.9273 25.7695 38.8934C26.0937 38.7994 26.1872 38.3497 26.1925 38.0532C26.1983 37.7178 26.0719 37.3845 25.8223 37.1582C25.6677 37.0186 25.3828 37.2023 25.5141 37.3927Z" fill="white"/>
<path d="M25.0003 39.3355C24.9228 39.2851 24.8433 39.2827 24.7537 39.2793C24.3335 39.2643 24.4891 39.9824 24.8826 39.7682C24.964 39.7236 25.0255 39.6829 25.0735 39.602C25.1292 39.507 25.088 39.3922 25.0003 39.3355Z" fill="white"/>
<path d="M14.7642 46.6838C14.7642 46.6838 12.3603 47.4015 12.1781 49.27C11.9959 51.1385 10.3702 52.205 9.99412 52.3131C9.6181 52.4212 11.3344 52.4943 12.5779 51.6798C12.5779 51.6798 12.3002 52.1285 11.4832 52.9455C12.809 53.0608 16.4748 51.4607 16.6914 48.6105L14.7642 46.6838Z" fill="#FF9750"/>
<path d="M15.282 47.2041C15.282 47.2041 13.5971 47.7992 13.6882 48.7979C13.7788 49.7966 12.8906 50.4817 12.8906 50.4817C12.8906 50.4817 15.4986 50.7289 16.2526 48.1742L15.282 47.2041Z" fill="#FFF252"/>
<path d="M30.031 48.6721C34.2875 44.4181 38.6002 40.2139 42.7307 35.8368C42.8581 35.7016 42.6619 35.5054 42.5272 35.6328C38.15 39.7633 33.9459 44.076 29.6918 48.3325C29.4728 48.5515 29.8125 48.8912 30.031 48.6721Z" fill="white"/>
<path d="M5.4304 39.6667C10.1782 34.9712 15.0768 30.3785 19.6216 25.4857C19.719 25.3811 19.5697 25.2318 19.465 25.3292C14.5723 29.8745 9.97956 34.773 5.28405 39.5204C5.19053 39.6154 5.3359 39.7607 5.4304 39.6667Z" fill="white"/>
<path d="M18.664 33.6293C22.1452 30.199 25.7853 26.8462 29.0435 23.2027C29.1962 23.0322 28.9636 22.7996 28.7925 22.9522C25.149 26.2105 21.7963 29.8506 18.366 33.3317C18.176 33.5246 18.4707 33.8197 18.664 33.6293Z" fill="white"/>
<path d="M20.755 59.4535C22.4912 58.2184 23.9144 56.4206 25.3696 54.8767C25.5101 54.728 25.294 54.5114 25.1448 54.6519C23.6009 56.1066 21.8036 57.5298 20.568 59.2665C20.49 59.376 20.6455 59.5315 20.755 59.4535Z" fill="white"/>
<path d="M8.46772 30.0864C10.9899 28.0652 13.1603 25.5149 15.3961 23.1895C15.5381 23.0417 15.3191 22.8227 15.1713 22.9646C12.8458 25.2005 10.295 27.3709 8.27438 29.893C8.1639 30.0312 8.32962 30.1969 8.46772 30.0864Z" fill="white"/>
<path d="M30.8518 55.3678C34.1062 51.4442 37.8767 47.9824 41.4126 44.3161C41.5216 44.2032 41.3535 44.0346 41.2401 44.1436C37.5738 47.6795 34.112 51.45 30.1884 54.7044C29.7213 55.0916 30.4642 55.8349 30.8518 55.3678Z" fill="white"/>
<path d="M29.6563 27.693C31.2505 26.1021 32.8321 24.502 34.3978 22.8831C34.5102 22.7668 34.3367 22.5928 34.22 22.7053C32.601 24.2709 31.0014 25.853 29.4101 27.4468C29.2526 27.6062 29.4978 27.8514 29.6563 27.693Z" fill="white"/>
<path d="M20.9633 23.0918C22.0652 21.988 23.1914 20.9035 24.2472 19.7556C24.4115 19.5767 24.1595 19.3248 23.9807 19.489C22.8328 20.5449 21.7483 21.6711 20.6445 22.773C20.439 22.9784 20.7578 23.2973 20.9633 23.0918Z" fill="white"/>
<path d="M6.3734 48.1345C7.58725 46.9313 8.80062 45.7281 10.0145 44.5249C10.2311 44.3102 9.89479 43.9739 9.68012 44.1905C8.47693 45.4044 7.27373 46.6178 6.07054 47.8316C5.87623 48.0279 6.17763 48.3293 6.3734 48.1345Z" fill="white"/>
<path d="M15.4678 57.4295C16.7252 55.9545 18.0326 54.5356 19.3308 53.096C19.449 52.9652 19.2682 52.7844 19.1374 52.9026C17.6978 54.2013 16.2789 55.5087 14.8039 56.7656C14.3426 57.1591 15.0743 57.8908 15.4678 57.4295Z" fill="white"/>
<path d="M35.6878 36.5147C37.3373 34.3986 39.3633 32.6125 41.1451 30.6136C41.2783 30.4644 41.0753 30.2608 40.9256 30.3941C38.9262 32.1759 37.1401 34.2019 35.024 35.8513C34.5442 36.2249 35.3133 36.9949 35.6878 36.5147Z" fill="white"/>
<path d="M213.855 24.5916C213.855 11.4922 224.475 0.872803 237.574 0.872803C250.674 0.872803 261.293 11.4922 261.293 24.5916C261.293 37.6911 250.674 48.3104 237.574 48.3104C235.565 48.3104 233.614 48.0585 231.751 47.5875C229.768 51.2843 225.936 53.5661 221.099 51.921C221.099 51.921 225.047 49.2059 225.443 44.9727C218.504 40.834 213.855 33.2572 213.855 24.5916Z" fill="#92D8FE"/>
<path d="M230.999 16.7095C230.999 15.5484 230.624 14.4213 229.942 13.491L229.956 13.4817L229.691 13.1702C228.657 11.9544 227.147 11.2571 225.55 11.2571C225.549 11.2571 225.549 11.2571 225.549 11.2571C225.548 11.2571 225.547 11.2571 225.547 11.2571C225.348 11.2571 225.151 11.2677 224.956 11.2891C223.583 11.4393 222.314 12.1061 221.406 13.1692C221.405 13.1697 221.405 13.1702 221.405 13.1707L221.14 13.4813L221.155 13.491C220.472 14.4218 220.098 15.5484 220.098 16.709C220.098 17.8531 220.463 18.9661 221.127 19.8868L221.113 19.8955L221.371 20.2037C222.407 21.4447 223.929 22.157 225.547 22.158C225.547 22.158 225.548 22.158 225.549 22.158H225.549C225.549 22.158 225.55 22.158 225.55 22.158C225.786 22.158 226.019 22.1386 226.249 22.1086C227.402 21.9598 228.475 21.451 229.315 20.6442C229.459 20.5061 229.597 20.3588 229.726 20.2037L229.983 19.8955L229.97 19.8868C230.635 18.9661 230.999 17.8536 230.999 16.7095ZM228.856 20.0986C228.81 20.1436 228.761 20.1853 228.713 20.2284C228.638 20.2958 228.563 20.3632 228.484 20.4252C228.431 20.4673 228.376 20.5071 228.32 20.5468C228.242 20.6035 228.164 20.6583 228.083 20.7096C228.024 20.7469 227.965 20.7818 227.905 20.8162C227.823 20.8637 227.739 20.9083 227.655 20.9505C227.593 20.9815 227.531 21.011 227.467 21.0391C227.386 21.075 227.304 21.107 227.221 21.1385C227.507 20.746 227.752 20.2546 227.943 19.6862C228.284 19.7899 228.604 19.914 228.891 20.0613C228.879 20.0734 228.868 20.0869 228.856 20.0986ZM223.446 20.9524C223.359 20.9093 223.273 20.8632 223.189 20.8148C223.131 20.7813 223.073 20.7474 223.017 20.7116C222.933 20.6587 222.852 20.602 222.772 20.5434C222.719 20.5051 222.666 20.4673 222.615 20.4266C222.534 20.3627 222.456 20.2934 222.379 20.2241C222.332 20.1824 222.285 20.1427 222.241 20.0995C222.229 20.0874 222.218 20.0739 222.206 20.0618C222.492 19.9149 222.813 19.7909 223.153 19.6867C223.344 20.2551 223.589 20.7455 223.875 21.138C223.792 21.1065 223.709 21.0745 223.628 21.0386C223.567 21.0115 223.506 20.9824 223.446 20.9524ZM222.275 13.284C222.32 13.2409 222.368 13.2017 222.414 13.1605C222.49 13.0936 222.566 13.0272 222.646 12.9652C222.698 12.9245 222.753 12.8867 222.807 12.8479C222.885 12.7922 222.964 12.7379 223.045 12.6871C223.102 12.6512 223.161 12.6173 223.22 12.5838C223.303 12.5373 223.386 12.4932 223.47 12.4515C223.531 12.422 223.592 12.3929 223.654 12.3658C223.727 12.3343 223.8 12.3062 223.874 12.2786C223.598 12.6585 223.358 13.129 223.171 13.6736C222.839 13.5733 222.527 13.4546 222.246 13.3141C222.256 13.3049 222.265 13.2937 222.275 13.284ZM227.628 12.4511C227.714 12.4932 227.799 12.5383 227.882 12.5858C227.939 12.6182 227.997 12.6512 228.052 12.6861C228.136 12.7384 228.217 12.7941 228.297 12.8518C228.348 12.8886 228.401 12.9245 228.451 12.9637C228.534 13.0282 228.613 13.0975 228.692 13.1677C228.735 13.206 228.779 13.2424 228.821 13.2826C228.832 13.2928 228.841 13.3044 228.851 13.3146C228.57 13.4556 228.258 13.5748 227.926 13.6746C227.738 13.129 227.499 12.658 227.221 12.2776C227.297 12.3062 227.373 12.3348 227.446 12.3672C227.508 12.3934 227.568 12.422 227.628 12.4511ZM228.386 16.3533C228.363 15.6371 228.271 14.9636 228.122 14.3535C228.562 14.2212 228.968 14.0555 229.33 13.8587C229.877 14.5832 230.205 15.4491 230.274 16.3533H228.386ZM225.903 12.0426C226.41 12.25 226.901 12.8896 227.239 13.8461C226.813 13.9309 226.364 13.9833 225.903 14.0012V12.0426ZM225.194 14.0007C224.732 13.9828 224.283 13.93 223.857 13.8452C224.196 12.8886 224.687 12.249 225.194 12.0421V14.0007ZM225.194 14.7082V16.3528H223.419C223.442 15.6807 223.526 15.0673 223.657 14.525C224.148 14.6268 224.664 14.6888 225.194 14.7082ZM225.194 17.0623V18.6478C224.658 18.6672 224.138 18.7301 223.644 18.8334C223.521 18.3052 223.441 17.7111 223.419 17.0623H225.194ZM225.194 19.3552V21.373C224.676 21.1617 224.176 20.5022 223.837 19.5142C224.268 19.4274 224.724 19.3737 225.194 19.3552ZM225.903 19.3552C226.372 19.3732 226.828 19.4274 227.26 19.5142C226.921 20.5022 226.42 21.1617 225.903 21.373V19.3552ZM225.903 18.6478V17.0623H227.677C227.656 17.7111 227.576 18.3047 227.453 18.8329C226.959 18.7297 226.438 18.6672 225.903 18.6478ZM225.903 16.3533V14.7087C226.433 14.6893 226.949 14.6273 227.439 14.526C227.57 15.0682 227.655 15.6812 227.677 16.3533H225.903ZM222.975 14.3535C222.826 14.9631 222.734 15.6366 222.711 16.3533H220.823C220.891 15.4491 221.22 14.5837 221.767 13.8587C222.129 14.0555 222.535 14.2212 222.975 14.3535ZM222.711 17.0623C222.733 17.7571 222.82 18.4118 222.961 19.0068C222.514 19.142 222.101 19.3126 221.735 19.5152C221.206 18.8009 220.889 17.9495 220.823 17.0623H222.711ZM228.136 19.0068C228.277 18.4118 228.364 17.7571 228.386 17.0623H230.274C230.208 17.9495 229.89 18.7999 229.362 19.5147C228.996 19.3121 228.583 19.142 228.136 19.0068Z" fill="#7C71CD"/>
<path d="M231.148 32.102H230.566C230.504 31.9159 230.428 31.7366 230.342 31.5631L230.754 31.1513C230.881 31.0233 230.881 30.8155 230.754 30.687L229.375 29.3089C229.248 29.181 229.04 29.181 228.911 29.3089L228.499 29.7208C228.326 29.6341 228.147 29.558 227.96 29.496V28.9145C227.96 28.7332 227.814 28.5864 227.632 28.5864H225.683C225.502 28.5864 225.355 28.7332 225.355 28.9145V29.496C225.169 29.558 224.99 29.6341 224.817 29.7208L224.405 29.3089C224.277 29.181 224.069 29.181 223.94 29.3089L222.562 30.687C222.434 30.8155 222.434 31.0229 222.562 31.1513L222.974 31.5631C222.887 31.7366 222.811 31.9159 222.749 32.102H222.168C221.987 32.102 221.84 32.2488 221.84 32.43V34.379C221.84 34.5602 221.987 34.7071 222.168 34.7071H222.749C222.811 34.8931 222.887 35.0729 222.974 35.2459L222.562 35.6578C222.434 35.7857 222.434 35.9936 222.562 36.122L223.94 37.5001C224.069 37.6285 224.276 37.6285 224.405 37.5001L224.817 37.0882C224.99 37.175 225.169 37.2511 225.355 37.3131V37.8946C225.355 38.0758 225.502 38.2226 225.683 38.2226H227.632C227.814 38.2226 227.96 38.0758 227.96 37.8946V37.3131C228.147 37.2511 228.326 37.175 228.499 37.0882L228.911 37.5001C229.039 37.6285 229.247 37.6285 229.375 37.5001L230.754 36.122C230.881 35.9936 230.881 35.7862 230.754 35.6578L230.342 35.2459C230.428 35.0724 230.504 34.8931 230.566 34.7071H231.148C231.329 34.7071 231.476 34.5602 231.476 34.379V32.43C231.476 32.2488 231.329 32.102 231.148 32.102ZM228.191 33.4045C228.191 34.2511 227.504 34.9377 226.658 34.9377C225.811 34.9377 225.125 34.2511 225.125 33.4045C225.125 32.558 225.811 31.8713 226.658 31.8713C227.505 31.8713 228.191 32.5575 228.191 33.4045Z" fill="#FFF252"/>
<path d="M237.315 37.339C237.104 37.339 236.998 37.0837 237.148 36.9339C237.317 36.7643 237.317 36.4891 237.148 36.319L236.653 35.8247C236.484 35.6551 236.209 35.6551 236.039 35.8247C235.889 35.974 235.634 35.8683 235.634 35.6571C235.634 35.4172 235.439 35.2224 235.199 35.2224H234.5C234.26 35.2224 234.065 35.4172 234.065 35.6571C234.065 35.8683 233.81 35.974 233.661 35.8247C233.491 35.6551 233.216 35.6551 233.046 35.8247L232.552 36.319C232.382 36.4886 232.382 36.7638 232.552 36.9339C232.701 37.0832 232.595 37.339 232.384 37.339C232.144 37.339 231.949 37.5338 231.949 37.7737V38.4729C231.949 38.7128 232.144 38.9076 232.384 38.9076C232.595 38.9076 232.701 39.1629 232.552 39.3127C232.382 39.4823 232.382 39.7575 232.552 39.9276L233.046 40.4219C233.215 40.5915 233.491 40.5915 233.661 40.4219C233.81 40.2726 234.065 40.3783 234.065 40.5895C234.065 40.8294 234.26 41.0242 234.5 41.0242H235.199C235.439 41.0242 235.634 40.8294 235.634 40.5895C235.634 40.3783 235.889 40.2726 236.039 40.4219C236.208 40.5915 236.483 40.5915 236.653 40.4219L237.148 39.9276C237.317 39.758 237.317 39.4828 237.148 39.3127C236.998 39.1634 237.104 38.9076 237.315 38.9076C237.555 38.9076 237.75 38.7128 237.75 38.4729V37.7737C237.75 37.5333 237.556 37.339 237.315 37.339ZM234.849 39.7721C233.939 39.7721 233.201 39.0341 233.201 38.1235C233.201 37.213 233.939 36.475 234.849 36.475C235.76 36.475 236.498 37.213 236.498 38.1235C236.498 39.0341 235.76 39.7721 234.849 39.7721Z" fill="#E6335A"/>
<path d="M243.745 36.7387V34.6522C242.944 34.4661 242.356 34.185 241.983 33.808C241.609 33.431 241.422 32.9741 241.422 32.4362C241.422 31.892 241.633 31.4346 242.057 31.0644C242.479 30.6942 243.042 30.481 243.745 30.4248V29.8093C243.745 29.5641 243.943 29.365 244.189 29.365C244.434 29.365 244.633 29.5637 244.633 29.8093V30.4248C245.283 30.4877 245.8 30.668 246.184 30.965C246.312 31.0639 246.424 31.1744 246.521 31.296C246.83 31.6808 246.551 32.1968 245.99 32.2559L245.965 32.2589C245.639 32.2933 245.352 32.1411 245.183 31.9124C245.054 31.7379 244.871 31.609 244.633 31.5252V33.4722C245.613 33.6879 246.281 33.9675 246.637 34.311C246.992 34.6546 247.17 35.0951 247.17 35.6329C247.17 36.2338 246.946 36.7402 246.499 37.1516C246.052 37.5635 245.43 37.8154 244.633 37.9085V38.3955C244.633 38.6407 244.434 38.8398 244.189 38.8398C243.943 38.8398 243.744 38.6411 243.744 38.3955V37.9337C243.038 37.8639 242.464 37.6497 242.022 37.2911C241.788 37.1002 241.598 36.8681 241.453 36.5938C241.241 36.1912 241.594 35.7361 242.13 35.6896C242.485 35.6586 242.804 35.8272 242.965 36.0865C243.016 36.1698 243.076 36.2474 243.144 36.3201C243.324 36.5129 243.524 36.6525 243.745 36.7387ZM243.745 31.5102C243.504 31.5766 243.312 31.6895 243.169 31.8489C243.026 32.0083 242.954 32.1842 242.954 32.3766C242.954 32.5525 243.019 32.7158 243.15 32.867C243.281 33.0182 243.479 33.1398 243.745 33.2328V31.5102ZM244.633 36.8085C244.94 36.762 245.189 36.6467 245.381 36.4625C245.573 36.2784 245.669 36.0618 245.669 35.8127C245.669 35.5903 245.588 35.3984 245.427 35.2375C245.265 35.0766 245.001 34.9531 244.633 34.8663V36.8085Z" fill="#FFF252"/>
<path d="M237.904 8.29798C235.677 9.07475 234.195 10.6612 232.745 12.3926C232.455 11.5863 232.087 10.8396 231.612 10.1001C231.414 9.79289 230.945 10.0638 231.12 10.3875C231.611 11.2941 231.979 12.2385 232.248 13.2333C232.316 13.4868 232.679 13.6099 232.864 13.3962C233.429 12.742 233.933 12.0398 234.537 11.4191C235.591 10.3351 236.849 9.61602 238.138 8.85233C238.424 8.68225 238.237 8.18217 237.904 8.29798Z" fill="white"/>
<path d="M255.788 27.0195C253.44 27.1954 251.349 28.9771 250.055 30.8975C249.788 30.299 249.447 29.7573 249.013 29.2407C248.783 28.9655 248.4 29.359 248.621 29.6328C249.119 30.2467 249.458 30.8742 249.706 31.6248C249.787 31.8686 250.113 31.9199 250.252 31.6961C251.656 29.4322 253.571 28.4606 255.872 27.3291C256.018 27.2579 255.95 27.0074 255.788 27.0195Z" fill="white"/>
<path d="M253.526 10.1208C251.178 10.2967 249.087 12.0785 247.793 13.9988C247.526 13.4009 247.186 12.8586 246.752 12.3421C246.52 12.0673 246.138 12.4603 246.36 12.7341C246.857 13.348 247.196 13.9756 247.445 14.7266C247.525 14.9704 247.851 15.0217 247.99 14.7979C249.394 12.534 251.309 11.5624 253.61 10.4309C253.756 10.3592 253.689 10.1087 253.526 10.1208Z" fill="white"/>
<path d="M239.778 25.2201C237.568 25.2889 235.324 27.0886 233.792 28.694C233.626 28.2017 233.468 27.7074 233.324 27.2073C233.208 26.8061 232.586 26.9752 232.697 27.3803C232.885 28.0723 233.094 28.755 233.325 29.4334C233.404 29.6646 233.71 29.7818 233.894 29.5837C234.762 28.647 235.72 27.8218 236.809 27.1482C237.79 26.542 238.923 26.2101 239.873 25.5714C240.02 25.4725 239.976 25.2138 239.778 25.2201Z" fill="white"/>
<path d="M243.676 16.3792L242.617 17.438L245.372 20.1932L246.431 19.1344L243.676 16.3792Z" fill="#5E3C77"/>
<path d="M245.121 20.2919L247.678 22.849C248.068 23.2386 248.699 23.2386 249.089 22.849C249.478 22.4594 249.478 21.828 249.089 21.4384L246.532 18.8813L245.121 20.2919Z" fill="#E6335A"/>
<path d="M244.678 12.5359C246.306 14.1646 246.306 16.805 244.678 18.4337C243.049 20.0623 240.409 20.0623 238.78 18.4337C237.151 16.805 237.151 14.1646 238.78 12.5359C240.409 10.9073 243.049 10.9073 244.678 12.5359Z" fill="#5E3C77"/>
<path d="M243.915 13.297C245.123 14.5055 245.123 16.4642 243.915 17.6727C242.706 18.8807 240.747 18.8807 239.539 17.6727C238.331 16.4642 238.331 14.5055 239.539 13.297C240.747 12.0885 242.706 12.0885 243.915 13.297Z" fill="#73CDE5"/>
<path d="M240.315 14.5264C240.729 14.1998 241.208 13.9973 241.74 13.9944C241.978 13.9929 242.208 14.0385 242.43 14.1228C242.626 14.1974 242.771 14.3374 242.985 14.3302C243.067 14.3273 243.116 14.2565 243.102 14.179C243.005 13.6479 242.054 13.5263 241.622 13.5505C241.023 13.5839 240.449 13.8679 240.139 14.3912C240.069 14.509 240.222 14.6001 240.315 14.5264Z" fill="white"/>
<path d="M243.546 15.3249C243.651 15.4485 243.636 15.5929 243.686 15.7364C243.735 15.8788 243.852 15.9699 243.995 15.8749C244.337 15.6472 244.07 15.1432 243.803 14.9882C243.585 14.8622 243.396 15.1476 243.546 15.3249Z" fill="white"/>
<path d="M218.921 24.3868C218.895 24.3878 218.867 24.3931 218.839 24.4057C218.088 24.7342 217.597 25.5057 218.019 26.3004C218.398 27.0161 219.419 27.4919 220.174 27.0815C220.88 26.6977 220.981 25.6079 220.652 24.9489C220.37 24.3863 219.449 23.8785 218.921 24.3868ZM219.874 26.5834C219.387 26.8256 218.725 26.4826 218.491 26.0237C218.228 25.5076 218.601 25.0008 219.033 24.7371C219.064 24.7187 219.084 24.6964 219.1 24.6732C219.581 24.5651 220.011 24.632 220.234 25.1568C220.424 25.6002 220.35 26.3469 219.874 26.5834Z" fill="white"/>
<path d="M224.154 27.027C223.993 26.7396 223.67 26.523 223.428 26.3025C223.155 26.054 222.882 25.8049 222.609 25.5563C222.596 25.5447 222.582 25.5379 222.569 25.5321C222.641 25.4754 222.714 25.4187 222.786 25.362C223.08 25.1313 223.43 24.9162 223.663 24.6216C223.735 24.53 223.648 24.4059 223.537 24.4592C223.208 24.6177 222.932 24.9012 222.651 25.1323C222.423 25.3198 222.195 25.5069 221.967 25.6944C221.964 25.6619 221.96 25.6285 221.958 25.5965C221.916 25.0543 221.887 24.5101 221.807 23.9722C221.773 23.7445 221.418 23.8075 221.415 24.025C221.407 24.5891 221.458 25.1541 221.49 25.7172C221.519 26.2124 221.48 26.7483 221.655 27.215C221.712 27.3667 221.955 27.3996 221.997 27.215C222.089 26.8172 222.042 26.3941 221.996 25.9808C222.126 25.8795 222.256 25.7777 222.386 25.6765C222.39 25.7002 222.399 25.7235 222.421 25.7453C222.682 26.006 222.943 26.2662 223.205 26.5269C223.435 26.7571 223.669 27.0735 223.962 27.2198C224.085 27.2804 224.226 27.1544 224.154 27.027Z" fill="white"/>
<path d="M251.801 17.2837C251.626 17.6239 251.473 17.9703 251.329 18.3212C251.215 18.2272 251.085 18.1477 250.984 18.0813C250.68 17.8812 250.35 17.7295 250.005 17.6137C249.788 17.5405 249.714 17.8647 249.913 17.9485C250.225 18.0794 250.522 18.2509 250.787 18.4622C250.903 18.5547 251.017 18.6851 251.145 18.7801C251.133 18.814 251.117 18.8469 251.104 18.8813C250.91 19.4105 250.646 19.991 250.655 20.5604C250.658 20.7683 250.932 20.8385 251.04 20.6646C251.322 20.2125 251.415 19.6421 251.579 19.1367C251.765 18.5669 251.967 18.0023 252.158 17.4344C252.23 17.2256 251.903 17.086 251.801 17.2837Z" fill="white"/>
<path d="M254.774 20.4711C254.485 20.3465 254.223 20.3698 253.91 20.3708C253.756 20.3712 253.014 20.4478 252.951 20.3872C252.887 20.3252 252.955 19.7195 252.97 19.5155C253.158 19.5291 253.345 19.5387 253.532 19.563C253.765 19.593 253.974 19.6778 254.189 19.5693C254.258 19.5344 254.269 19.4292 254.214 19.3779C254.033 19.2088 253.793 19.2369 253.555 19.2238C253.367 19.2131 253.18 19.2175 252.992 19.2175C253.013 18.9267 253.044 18.6365 253.085 18.3482C253.486 18.3835 253.887 18.4184 254.288 18.4538C254.433 18.4664 254.437 18.2299 254.288 18.2246C253.891 18.2105 253.493 18.1965 253.096 18.1819C253.068 17.9765 252.756 17.9004 252.707 18.1374C252.626 18.5202 252.566 18.9064 252.52 19.2945C252.509 19.3212 252.505 19.3464 252.51 19.375C252.503 19.4394 252.492 19.5034 252.486 19.5678C252.457 19.8779 252.327 20.425 252.528 20.7046C252.704 20.9503 253.072 20.8859 253.33 20.8859C253.802 20.8859 254.334 20.975 254.773 20.7831C254.892 20.7322 254.892 20.5224 254.774 20.4711Z" fill="white"/>
<path d="M257.859 19.9958C257.688 19.5514 257.131 19.1904 256.714 19.0121C256.528 18.9326 256.261 18.9055 256.101 18.778C255.916 18.6307 255.889 18.6297 256.054 18.3933C256.235 18.134 256.642 17.9455 256.949 18.0017C257.235 18.0546 257.361 17.6306 257.071 17.5598C256.399 17.3965 254.731 18.2629 255.549 19.0508C255.846 19.3372 256.289 19.3513 256.645 19.5121C257.102 19.7186 257.671 20.1416 257.182 20.6039C256.88 20.8903 256.404 20.8627 256.045 21.0124C255.897 21.0744 255.82 21.3007 255.996 21.3903C256.694 21.7465 258.186 20.8471 257.859 19.9958Z" fill="white"/>
</svg>
