<svg width="151" height="117" viewBox="0 0 151 117" fill="none" xmlns="http://www.w3.org/2000/svg">
<path d="M0.148377 64.7912C0.148377 62.7633 0.0989181 61.0817 0 59.5485H2.62133L2.76971 62.2687H2.81917C4.00618 60.2904 5.88563 59.1528 8.50696 59.1528C12.3648 59.1528 15.3323 62.4171 15.3323 67.2641C15.3323 73.0508 11.8207 75.87 8.06182 75.87C5.93509 75.87 4.05564 74.9303 3.11592 73.3476H3.06646V82.0524H0.148377V64.7912ZM3.06646 69.0941C3.06646 69.4898 3.11592 69.8854 3.21484 70.2811C3.75889 72.3089 5.48995 73.6938 7.56723 73.6938C10.6337 73.6938 12.4637 71.1714 12.4637 67.4619C12.4637 64.2471 10.7821 61.5269 7.71561 61.5269C5.73725 61.5269 3.85781 62.9117 3.31376 65.1374C3.21484 65.533 3.11592 65.9287 3.11592 66.3244V69.0941H3.06646Z" fill="#63BCBA"/>
<path d="M23.3947 68.1547C23.4442 72.1115 25.9666 73.6941 28.8847 73.6941C30.9619 73.6941 32.2479 73.2985 33.336 72.8533L33.8306 74.9306C32.7919 75.3757 31.0114 75.9693 28.489 75.9693C23.5431 75.9693 20.625 72.705 20.625 67.858C20.625 63.011 23.4936 59.2026 28.1428 59.2026C33.3854 59.2026 34.7208 63.8023 34.7208 66.7204C34.7208 67.3139 34.6714 67.7591 34.6219 68.1053H23.3947V68.1547ZM31.9017 66.028C31.9511 64.198 31.1598 61.3294 27.8955 61.3294C24.9279 61.3294 23.642 64.0002 23.4442 66.028H31.9017Z" fill="#63BCBA"/>
<path d="M2.9155 87.5425H0.046875V86.5039H7.0206V87.5425H4.15198V96.1484H2.9155V87.5425Z" fill="#6A7178"/>
<path d="M10.6349 86.4541V90.5097H15.1851V86.4541H16.4216V96.1481H15.1851V91.5978H10.6349V96.1481H9.39844V86.4541H10.6349Z" fill="#6A7178"/>
<path d="M24.7298 91.5978H21.0698V95.1094H25.1749V96.1481H19.8828V86.4541H24.9771V87.4927H21.1193V90.5592H24.7793V91.5978H24.7298Z" fill="#6A7178"/>
<path d="M28.0938 86.6031C28.7367 86.4547 29.627 86.4053 30.4678 86.4053C31.7537 86.4053 32.5945 86.6526 33.188 87.1966C33.6332 87.6418 33.9299 88.2847 33.9299 89.0266C33.9299 90.3125 33.1386 91.1533 32.1494 91.4996V91.549C32.8913 91.8458 33.2869 92.5382 33.5342 93.5274C33.831 94.9122 34.0783 95.8025 34.2761 96.1982H33.0397C32.8913 95.9014 32.6934 95.1101 32.3967 93.8736C32.0999 92.5382 31.6053 92.0436 30.5172 91.9941H29.3797V96.1982H28.1432V86.6031H28.0938ZM29.3302 91.005H30.5667C31.8526 91.005 32.6934 90.2631 32.6934 89.175C32.6934 87.889 31.8032 87.3945 30.5172 87.345C29.9237 87.345 29.5281 87.3945 29.3302 87.4439V91.005Z" fill="#6A7178"/>
<path d="M38.5798 93.0822L37.5906 96.0992H36.3047L39.5195 86.4053H40.9538L44.1687 96.0992H42.8827L41.8936 93.0822H38.5798ZM41.6463 92.1425L40.7065 89.3728C40.5087 88.7298 40.3603 88.1858 40.212 87.5923H40.1625C40.0141 88.1858 39.8657 88.7299 39.7174 89.3234L38.7776 92.1425H41.6463Z" fill="#6A7178"/>
<path d="M46.9375 86.6031C47.531 86.5042 48.3224 86.4053 49.3115 86.4053C50.4985 86.4053 51.3888 86.702 51.9329 87.1966C52.4275 87.6418 52.7737 88.3342 52.7737 89.2244C52.7737 90.1147 52.5264 90.8071 52.0318 91.3017C51.3888 91.9942 50.3502 92.3404 49.1632 92.3404C48.7675 92.3404 48.4213 92.2909 48.174 92.2909V96.0992H46.9375V86.6031ZM48.174 91.3017C48.3718 91.3512 48.7675 91.4006 49.1632 91.4006C50.6469 91.4006 51.5372 90.6588 51.5372 89.3234C51.5372 88.0374 50.6469 87.3945 49.3115 87.3945C48.7675 87.3945 48.3718 87.4439 48.174 87.4934V91.3017Z" fill="#6A7178"/>
<path d="M57.7175 96.1481V92.043L54.75 86.4541H56.1349L57.4702 89.1249C57.8165 89.8668 58.1132 90.4603 58.41 91.1032H58.4594C58.7067 90.4603 59.0529 89.8173 59.3992 89.1249L60.7345 86.4541H62.1194L58.954 91.9935V96.0986H57.7175V96.1481Z" fill="#6A7178"/>
<path d="M70.3845 93.0822L69.3953 96.0992H68.1094L71.3242 86.4053H72.7585L75.9734 96.0992H74.6874L73.6982 93.0822H70.3845ZM73.451 92.1425L72.5112 89.3728C72.3134 88.7298 72.165 88.1858 72.0166 87.5923H71.9672C71.8188 88.1858 71.6704 88.7299 71.5221 89.3234L70.5823 92.1425H73.451Z" fill="#6A7178"/>
<path d="M78.5936 94.6151C79.1377 94.9613 79.929 95.2581 80.7698 95.2581C82.0063 95.2581 82.7482 94.5657 82.7482 93.6259C82.7482 92.7357 82.2536 92.1916 80.9677 91.697C79.4344 91.153 78.4947 90.3122 78.4947 88.9768C78.4947 87.493 79.7312 86.3555 81.5612 86.3555C82.5009 86.3555 83.2428 86.6028 83.6385 86.8006L83.2922 87.8392C82.9955 87.6909 82.3525 87.3941 81.5117 87.3941C80.2258 87.3941 79.7312 88.1855 79.7312 88.8284C79.7312 89.7187 80.3247 90.1638 81.6106 90.7079C83.1933 91.3508 84.0341 92.1422 84.0341 93.527C84.0341 95.0108 82.946 96.3462 80.7204 96.3462C79.7806 96.3462 78.7915 96.0494 78.2969 95.7032L78.5936 94.6151Z" fill="#6A7178"/>
<path d="M86.8514 94.6151C87.3955 94.9613 88.1868 95.2581 89.0276 95.2581C90.2641 95.2581 91.006 94.5657 91.006 93.6259C91.006 92.7357 90.5114 92.1916 89.2255 91.697C87.6922 91.153 86.7525 90.3122 86.7525 88.9768C86.7525 87.493 87.989 86.3555 89.819 86.3555C90.7587 86.3555 91.5006 86.6028 91.8963 86.8006L91.5501 87.8392C91.2533 87.6909 90.6103 87.3941 89.7695 87.3941C88.4836 87.3941 87.989 88.1855 87.989 88.8284C87.989 89.7187 88.5825 90.1638 89.8684 90.7079C91.4511 91.3508 92.2919 92.1422 92.2919 93.527C92.2919 95.0108 91.2038 96.3462 88.9782 96.3462C88.0385 96.3462 87.0493 96.0494 86.5547 95.7032L86.8514 94.6151Z" fill="#6A7178"/>
<path d="M103.319 91.3015C103.319 94.5164 101.341 96.2969 98.9175 96.2969C96.3457 96.2969 94.6641 94.2691 94.6641 91.351C94.6641 88.3834 96.4941 86.3062 99.0659 86.3062C101.786 86.3062 103.319 88.4824 103.319 91.3015ZM95.9995 91.3015C95.9995 93.4777 97.0876 95.2582 99.0165 95.2582C100.995 95.2582 102.033 93.4283 102.033 91.3015C102.033 89.3232 101.094 87.2953 99.0165 87.2953C97.0381 87.3448 95.9995 89.1253 95.9995 91.3015Z" fill="#6A7178"/>
<path d="M112.82 95.8516C112.375 96.0494 111.485 96.2967 110.298 96.2967C107.676 96.2967 105.648 94.5657 105.648 91.4003C105.648 88.3833 107.627 86.3555 110.594 86.3555C111.732 86.3555 112.523 86.6028 112.82 86.7511L112.523 87.7898C112.078 87.5425 111.386 87.3941 110.644 87.3941C108.418 87.3941 106.984 88.8284 106.984 91.4003C106.984 93.7743 108.319 95.3076 110.594 95.3076C111.336 95.3076 112.078 95.1592 112.573 94.9119L112.82 95.8516Z" fill="#6A7178"/>
<path d="M116.924 86.4541V96.1481H115.688V86.4541H116.924Z" fill="#6A7178"/>
<path d="M121.916 93.0822L120.927 96.0992H119.641L122.855 86.4053H124.29L127.505 96.0992H126.219L125.23 93.0822H121.916ZM124.982 92.1425L124.042 89.3728C123.845 88.7298 123.696 88.1858 123.548 87.5923H123.498C123.35 88.1858 123.202 88.7299 123.053 89.3234L122.114 92.1425H124.982Z" fill="#6A7178"/>
<path d="M131.017 87.5425H128.148V86.5039H135.122V87.5425H132.254V96.1484H131.017V87.5425Z" fill="#6A7178"/>
<path d="M142.396 91.5978H138.736V95.1094H142.842V96.1481H137.5V86.4541H142.594V87.4927H138.736V90.5592H142.396V91.5978Z" fill="#6A7178"/>
<path d="M145.562 94.6151C146.106 94.9613 146.898 95.2581 147.739 95.2581C148.975 95.2581 149.717 94.5657 149.717 93.6259C149.717 92.7357 149.222 92.1916 147.936 91.697C146.403 91.153 145.463 90.3122 145.463 88.9768C145.463 87.493 146.7 86.3555 148.53 86.3555C149.47 86.3555 150.212 86.6028 150.607 86.8006L150.261 87.8392C149.964 87.6909 149.321 87.3941 148.48 87.3941C147.195 87.3941 146.7 88.1855 146.7 88.8284C146.7 89.7187 147.293 90.1638 148.579 90.7079C150.162 91.3508 151.003 92.1422 151.003 93.527C151.003 95.0108 149.915 96.3462 147.689 96.3462C146.749 96.3462 145.76 96.0494 145.266 95.7032L145.562 94.6151Z" fill="#6A7178"/>
<path d="M26.8065 110.788C26.6582 110.788 26.5098 110.788 26.4109 110.739C26.312 110.689 26.213 110.64 26.1636 110.59V115.091C26.1636 115.24 26.1636 115.338 26.0647 115.388C26.0152 115.487 25.9657 115.536 25.8668 115.586C25.7679 115.635 25.7184 115.685 25.6195 115.685C25.5206 115.685 25.4712 115.685 25.3722 115.685C25.2239 115.685 25.1249 115.635 25.1249 115.586C25.0755 115.536 25.0755 115.437 25.0755 115.338V105.645C25.0755 105.546 25.0755 105.447 25.0755 105.397C25.0755 105.348 25.026 105.298 25.026 105.249C25.026 105.199 24.9766 105.199 24.9766 105.15V105.1C24.9766 105.1 24.9766 105.051 25.026 105.051C25.0755 105.051 25.0755 105.002 25.1249 105.002C25.1744 105.002 25.2239 105.002 25.2733 104.952C25.3228 104.952 25.3722 104.952 25.4217 104.952C25.6195 104.952 25.8174 105.002 25.9657 105.15C26.1141 105.249 26.1636 105.397 26.1636 105.546C26.312 105.348 26.4603 105.15 26.7076 105.002C26.9055 104.853 27.1528 104.804 27.4495 104.804C27.6968 104.804 27.9441 104.853 28.1419 105.002C28.3398 105.15 28.4882 105.298 28.6365 105.496C28.7849 105.694 28.8838 105.991 28.9333 106.287C28.9827 106.584 29.0322 106.881 29.0322 107.227C29.0322 107.623 28.9827 107.969 28.9333 108.315C28.8838 108.662 28.7849 108.958 28.686 109.206C28.9333 109.206 29.0817 109.156 29.23 109.107C29.3784 109.057 29.5268 109.008 29.6257 108.909C29.7246 108.81 29.8235 108.711 29.873 108.612C29.9719 108.464 30.0214 108.365 30.1203 108.167C30.1698 108.019 30.2192 107.92 30.2687 107.87C30.3181 107.821 30.3676 107.771 30.4171 107.771C30.4665 107.771 30.516 107.771 30.6149 107.821C30.6644 107.87 30.7138 107.92 30.7633 107.969C30.8127 108.019 30.8622 108.068 30.8622 108.117C30.9116 108.167 30.9116 108.216 30.9116 108.266C30.9116 108.414 30.8622 108.612 30.7633 108.81C30.6644 109.008 30.4665 109.206 30.2687 109.403C30.0214 109.601 29.7741 109.75 29.4279 109.849C29.0817 109.997 28.686 110.046 28.2409 110.046C28.043 110.244 27.8452 110.393 27.5979 110.541C27.3011 110.739 27.0538 110.788 26.8065 110.788ZM27.0538 105.743C26.9549 105.743 26.856 105.793 26.7571 105.842C26.6582 105.892 26.5593 105.991 26.5098 106.09C26.4603 106.189 26.3614 106.337 26.312 106.436C26.2625 106.584 26.213 106.733 26.1636 106.881V109.898C26.2625 109.75 26.4109 109.651 26.6582 109.552C26.9055 109.453 27.1528 109.403 27.499 109.403C27.5979 109.304 27.6474 109.156 27.6968 108.958C27.7463 108.76 27.7957 108.612 27.8452 108.414C27.8946 108.216 27.8946 108.068 27.9441 107.87C27.9441 107.722 27.9936 107.524 27.9936 107.425C27.9936 107.128 27.9936 106.832 27.9441 106.634C27.8946 106.436 27.8452 106.238 27.7463 106.09C27.6474 105.941 27.5484 105.842 27.4495 105.793C27.3011 105.793 27.1528 105.743 27.0538 105.743Z" fill="#313E96"/>
<path d="M35.1698 107.969C35.1698 107.92 35.2192 107.87 35.2687 107.821C35.3181 107.771 35.3676 107.771 35.4665 107.722C35.5654 107.672 35.6149 107.722 35.6644 107.722C35.7138 107.722 35.8127 107.771 35.8622 107.821C35.9116 107.87 35.9611 107.92 35.9611 108.019C35.9611 108.118 35.9611 108.217 35.9611 108.315C35.9116 108.513 35.8622 108.662 35.7633 108.859C35.6644 109.008 35.5654 109.156 35.4171 109.305C35.2687 109.453 35.1203 109.552 34.9225 109.601C34.7246 109.651 34.5268 109.7 34.2795 109.7C34.1311 109.7 34.0322 109.7 33.9333 109.7C33.8344 109.7 33.7355 109.651 33.5871 109.601C33.4387 109.898 33.1914 110.145 32.9441 110.343C32.6968 110.541 32.3506 110.64 31.9549 110.64C31.6087 110.64 31.312 110.591 31.0647 110.442C30.8174 110.294 30.6195 110.096 30.4217 109.898C30.2733 109.651 30.1249 109.404 30.0755 109.057C29.9766 108.761 29.9766 108.414 29.9766 108.068C29.9766 107.574 30.026 107.079 30.1744 106.683C30.2733 106.288 30.4217 105.941 30.5701 105.645C30.7185 105.348 30.8668 105.15 31.0647 105.002C31.2625 104.853 31.312 104.754 31.4109 104.754C31.5098 104.754 31.5593 104.804 31.6582 104.853C31.7571 104.952 31.8065 105.002 31.8065 105.15C31.856 105.249 31.856 105.348 31.856 105.447C31.856 105.546 31.8065 105.645 31.7076 105.694C31.6582 105.793 31.6087 105.892 31.5098 105.991C31.4109 106.09 31.3614 106.238 31.312 106.436C31.2625 106.584 31.213 106.832 31.1636 107.079C31.1141 107.326 31.1141 107.623 31.1141 107.969C31.1141 108.266 31.1636 108.513 31.213 108.711C31.2625 108.909 31.312 109.107 31.4109 109.255C31.5098 109.404 31.6087 109.502 31.7076 109.601C31.8065 109.651 31.9549 109.7 32.1033 109.7C32.3011 109.7 32.4495 109.651 32.5979 109.552C32.7463 109.453 32.8452 109.305 32.9441 109.156C32.5979 108.859 32.3506 108.513 32.2022 108.068C32.0538 107.623 31.9549 107.178 31.9549 106.683C31.9549 106.485 31.9549 106.238 32.0044 106.04C32.0538 105.842 32.1033 105.694 32.2022 105.546C32.3011 105.397 32.4001 105.298 32.5484 105.2C32.6968 105.101 32.8452 105.051 33.043 105.051C33.1914 105.051 33.3398 105.101 33.4882 105.249C33.6365 105.348 33.7355 105.546 33.8838 105.744C33.9827 105.941 34.0817 106.189 34.1311 106.485C34.1806 106.782 34.23 107.079 34.23 107.425C34.23 107.672 34.23 107.92 34.1806 108.167C34.1311 108.414 34.0817 108.662 34.0322 108.909C34.0817 108.909 34.1311 108.958 34.1806 108.958C34.23 108.958 34.2795 108.958 34.329 108.958C34.4773 108.958 34.6257 108.909 34.7246 108.859C34.8235 108.81 34.9225 108.711 35.0214 108.662C35.1203 108.563 35.1698 108.464 35.2192 108.365C35.1203 108.266 35.1203 108.118 35.1698 107.969ZM32.499 106.683C32.499 106.98 32.5484 107.277 32.6474 107.574C32.7463 107.87 32.8946 108.118 33.043 108.315C33.0925 108.118 33.0925 107.87 33.0925 107.672C33.0925 107.425 33.0925 107.227 33.0925 107.03C33.0925 106.832 33.0925 106.634 33.043 106.535C32.9936 106.387 32.9936 106.288 32.9441 106.189C32.8946 106.09 32.8452 106.04 32.7957 106.04C32.5979 106.04 32.499 106.238 32.499 106.683Z" fill="#313E96"/>
<path d="M35.9552 108.365C35.9058 108.513 35.8563 108.612 35.7574 108.612C35.6585 108.662 35.5596 108.662 35.4606 108.612C35.3617 108.563 35.2628 108.513 35.2133 108.414C35.1639 108.315 35.1144 108.216 35.1639 108.068C35.2133 107.771 35.3123 107.425 35.4606 107.029C35.609 106.634 35.7079 106.288 35.8563 105.941C35.8069 105.842 35.7574 105.744 35.7079 105.645C35.6585 105.546 35.6585 105.447 35.6585 105.298C35.6585 105.199 35.7079 105.051 35.8069 104.952C35.9058 104.853 36.0047 104.705 36.1036 104.606C36.2025 104.507 36.3509 104.408 36.4993 104.359C36.6477 104.309 36.7466 104.26 36.8455 104.26C36.9939 104.26 37.1422 104.309 37.2412 104.408C37.3401 104.507 37.3895 104.655 37.3895 104.853C37.3895 104.952 37.3895 105.051 37.3401 105.15C37.2906 105.249 37.2906 105.348 37.2412 105.447C37.1917 105.546 37.1422 105.595 37.1422 105.694C37.0928 105.744 37.0928 105.793 37.0928 105.793C37.2412 106.09 37.439 106.337 37.5874 106.535C37.7852 106.733 37.9336 106.98 38.082 107.178C38.2303 107.376 38.3293 107.623 38.4282 107.87C38.5271 108.118 38.5766 108.414 38.5766 108.711C38.5766 108.81 38.5766 108.859 38.5766 108.958C38.5766 109.057 38.5271 109.107 38.5271 109.206C38.6755 109.156 38.8239 109.107 38.9722 109.057C39.0711 109.008 39.2195 108.909 39.3184 108.81C39.4174 108.711 39.4668 108.612 39.5657 108.513C39.6152 108.414 39.6647 108.315 39.7141 108.167C39.7636 108.019 39.813 107.92 39.8625 107.87C39.912 107.821 39.9614 107.771 40.0109 107.771C40.0603 107.771 40.1098 107.771 40.2087 107.821C40.2582 107.87 40.3076 107.92 40.3571 107.969C40.4065 108.019 40.456 108.068 40.456 108.167C40.5055 108.216 40.5055 108.266 40.5055 108.315C40.5055 108.365 40.5055 108.464 40.456 108.563C40.4065 108.662 40.3571 108.761 40.3076 108.859C40.2582 108.958 40.1592 109.057 40.1098 109.156C40.0109 109.255 39.9614 109.305 39.8625 109.404C39.6647 109.601 39.3679 109.75 39.1206 109.849C38.8239 109.948 38.4776 110.046 38.0325 110.096C37.8841 110.244 37.6863 110.343 37.439 110.442C37.1917 110.541 36.9444 110.591 36.6477 110.591C36.4993 110.591 36.3509 110.591 36.2025 110.541C36.0541 110.492 35.9058 110.442 35.7574 110.393C35.609 110.343 35.5101 110.294 35.3617 110.195C35.2628 110.145 35.1639 110.046 35.1144 109.997C34.966 109.849 34.8177 109.651 34.7682 109.502C34.7188 109.354 34.7188 109.206 34.7188 109.057C34.7188 108.909 34.7682 108.81 34.8671 108.761C34.9166 108.662 35.0155 108.612 35.1144 108.612C35.1639 108.612 35.2133 108.612 35.3123 108.662C35.4112 108.711 35.5101 108.761 35.6585 108.81C35.8068 108.859 35.9058 108.958 36.0541 109.008C36.2025 109.057 36.3509 109.156 36.4993 109.206C36.6477 109.255 36.796 109.305 36.9444 109.354C37.0928 109.404 37.1917 109.404 37.3401 109.404C37.439 109.305 37.4885 109.206 37.5379 109.057C37.5874 108.909 37.6368 108.761 37.6368 108.563C37.6368 108.365 37.5874 108.167 37.5379 107.969C37.4885 107.771 37.3895 107.623 37.2906 107.475C37.1917 107.326 37.0928 107.178 36.9939 107.029C36.895 106.881 36.7466 106.782 36.6477 106.634C36.5487 106.881 36.4498 107.178 36.3509 107.425C36.1036 107.722 36.0541 108.019 35.9552 108.365Z" fill="#313E96"/>
<path d="M40.3121 103.617C40.2132 103.617 40.1143 103.617 40.0154 103.567C39.9165 103.518 39.8175 103.468 39.7681 103.369C39.6692 103.27 39.6197 103.221 39.5703 103.122C39.5208 103.023 39.5208 102.924 39.5208 102.776C39.5208 102.677 39.5208 102.529 39.5703 102.43C39.6197 102.331 39.6692 102.232 39.7681 102.182C39.867 102.133 39.9165 102.034 40.0154 101.985C40.1143 101.935 40.2132 101.935 40.3121 101.935C40.4111 101.935 40.5594 101.935 40.6584 101.985C40.7573 102.034 40.8562 102.083 40.9056 102.182C40.9551 102.281 41.054 102.331 41.1035 102.43C41.1529 102.529 41.1529 102.627 41.1529 102.776C41.1529 102.875 41.1529 103.023 41.1035 103.122C41.054 103.221 41.0046 103.32 40.9056 103.369C40.8067 103.468 40.7573 103.518 40.6584 103.567C40.5594 103.567 40.4111 103.617 40.3121 103.617ZM40.6089 109.107C40.6089 109.156 40.6089 109.206 40.6089 109.255C40.6089 109.304 40.6089 109.403 40.6584 109.453C40.6584 109.502 40.7078 109.601 40.7573 109.651C40.8067 109.7 40.8562 109.75 40.9551 109.75C41.1035 109.75 41.2024 109.7 41.3013 109.601C41.4002 109.502 41.4992 109.354 41.5486 109.206C41.5981 109.057 41.697 108.909 41.7465 108.711C41.7959 108.513 41.8454 108.365 41.8454 108.216C41.8948 108.068 41.8948 107.969 41.9937 107.92C42.0432 107.87 42.0927 107.821 42.1916 107.821C42.241 107.821 42.34 107.821 42.3894 107.87C42.4389 107.92 42.4883 107.969 42.5873 108.019C42.6367 108.068 42.6862 108.167 42.6862 108.216C42.6862 108.315 42.7356 108.365 42.6862 108.464C42.6367 108.711 42.5378 108.958 42.4389 109.206C42.34 109.453 42.1916 109.7 42.0432 109.898C41.8948 110.096 41.697 110.294 41.4992 110.442C41.3013 110.59 41.0046 110.64 40.7078 110.64C40.51 110.64 40.3616 110.59 40.2132 110.541C40.0648 110.491 39.9659 110.393 39.867 110.244C39.7681 110.145 39.6692 109.997 39.6197 109.849C39.5703 109.7 39.5208 109.502 39.5208 109.354V105.644C39.5208 105.496 39.5208 105.397 39.4713 105.348C39.4713 105.298 39.4219 105.249 39.4219 105.199C39.4219 105.15 39.4713 105.1 39.5208 105.051C39.5703 105.002 39.6692 105.002 39.7681 105.002C40.0154 105.002 40.1638 105.051 40.3121 105.199C40.4605 105.298 40.51 105.447 40.51 105.644V109.107H40.6089Z" fill="#313E96"/>
<path d="M40.7011 103.765C40.8 103.765 40.8989 103.765 41.0473 103.765C41.1462 103.765 41.2946 103.765 41.443 103.765C41.5914 103.765 41.7892 103.765 41.9376 103.765V101.44C41.9376 101.342 41.9376 101.243 41.9376 101.193C41.9376 101.144 41.8881 101.094 41.8881 101.045C41.8881 100.995 41.8387 100.995 41.8387 100.946V100.896C41.8387 100.847 41.8387 100.847 41.8881 100.847C41.9376 100.847 41.9376 100.798 41.987 100.798C42.0365 100.798 42.0859 100.798 42.1354 100.748C42.1849 100.748 42.2343 100.748 42.2838 100.748C42.5311 100.748 42.6795 100.798 42.8278 100.946C42.9762 101.045 43.0257 101.193 43.0257 101.391V103.815C43.4708 103.815 43.9159 103.815 44.3611 103.815C44.8557 103.815 45.3008 103.815 45.7954 103.765C45.8448 103.716 45.8943 103.666 45.9438 103.666C45.9932 103.666 45.9932 103.716 46.0427 103.815C46.0427 103.864 46.0427 103.963 46.0427 104.062C46.0427 104.161 45.9932 104.26 45.9932 104.359C45.9438 104.457 45.9438 104.507 45.8943 104.606C45.8448 104.705 45.7954 104.705 45.7459 104.705C45.2019 104.705 44.7073 104.705 44.2621 104.705C43.817 104.705 43.4213 104.705 43.0751 104.705V109.107C43.0751 109.354 43.1246 109.502 43.2235 109.601C43.3224 109.7 43.4213 109.75 43.5697 109.75C43.7181 109.75 43.817 109.7 43.9159 109.601C44.0149 109.502 44.1138 109.354 44.1632 109.206C44.2127 109.057 44.3116 108.909 44.3611 108.711C44.4105 108.513 44.46 108.365 44.46 108.216C44.5094 108.068 44.5094 107.969 44.6084 107.92C44.6578 107.87 44.7567 107.821 44.8062 107.821C44.8557 107.821 44.9051 107.821 44.9546 107.87C45.004 107.92 45.0535 107.969 45.103 108.019C45.1524 108.068 45.2019 108.117 45.2019 108.216C45.2513 108.266 45.2513 108.365 45.2513 108.414C45.2513 108.414 45.2513 108.414 45.2513 108.464C45.2513 108.513 45.2513 108.513 45.2513 108.513C45.2019 108.76 45.103 109.008 45.004 109.255C44.9051 109.502 44.7567 109.75 44.6084 109.947C44.46 110.145 44.2621 110.343 44.0149 110.491C43.817 110.64 43.5203 110.689 43.2235 110.689C43.0257 110.689 42.8773 110.64 42.7289 110.59C42.5805 110.541 42.4322 110.442 42.3332 110.343C42.2343 110.195 42.1354 110.046 42.0859 109.849C42.0365 109.651 41.987 109.403 41.987 109.156V104.754C41.8387 104.754 41.6903 104.754 41.5914 104.754C41.4924 104.754 41.3935 104.754 41.2946 104.754C41.1957 104.754 41.0968 104.754 41.0473 104.754C40.9484 104.754 40.8495 104.705 40.7506 104.606C40.6516 104.507 40.6022 104.408 40.5527 104.309C40.5033 104.21 40.5033 104.062 40.5527 104.012C40.5527 103.815 40.6022 103.765 40.7011 103.765Z" fill="#313E96"/>
<path d="M45.208 103.617C45.1091 103.617 45.0102 103.617 44.9112 103.567C44.8123 103.518 44.7134 103.468 44.6639 103.369C44.565 103.27 44.5156 103.221 44.4661 103.122C44.4166 103.023 44.4166 102.924 44.4166 102.776C44.4166 102.677 44.4166 102.529 44.4661 102.43C44.5156 102.331 44.565 102.232 44.6639 102.182C44.7629 102.133 44.8123 102.034 44.9112 101.985C45.0102 101.935 45.1091 101.935 45.208 101.935C45.3069 101.935 45.4553 101.935 45.5542 101.985C45.6531 102.034 45.752 102.083 45.8015 102.182C45.851 102.281 45.9499 102.331 45.9993 102.43C46.0488 102.529 46.0488 102.627 46.0488 102.776C46.0488 102.875 46.0488 103.023 45.9993 103.122C45.9499 103.221 45.9004 103.32 45.8015 103.369C45.7026 103.468 45.6531 103.518 45.5542 103.567C45.4553 103.567 45.3564 103.617 45.208 103.617ZM45.5542 109.107C45.5542 109.156 45.5542 109.206 45.5542 109.255C45.5542 109.304 45.5542 109.403 45.6037 109.453C45.6037 109.502 45.6531 109.601 45.7026 109.651C45.752 109.7 45.8015 109.75 45.9004 109.75C46.0488 109.75 46.1477 109.7 46.2466 109.601C46.3456 109.502 46.4445 109.354 46.4939 109.206C46.5434 109.057 46.6423 108.909 46.6918 108.711C46.7412 108.513 46.7907 108.365 46.7907 108.216C46.8401 108.068 46.8401 107.969 46.9391 107.92C46.9885 107.87 47.038 107.821 47.1369 107.821C47.1864 107.821 47.2853 107.821 47.3347 107.87C47.3842 107.92 47.4336 107.969 47.5326 108.019C47.582 108.068 47.6315 108.167 47.6315 108.216C47.6315 108.315 47.6809 108.365 47.6315 108.464C47.582 108.711 47.4831 108.958 47.3842 109.206C47.2853 109.453 47.1369 109.7 46.9885 109.898C46.8401 110.096 46.6423 110.294 46.4445 110.442C46.2466 110.59 45.9499 110.64 45.6531 110.64C45.4553 110.64 45.3069 110.59 45.1585 110.541C45.0102 110.491 44.9112 110.393 44.8123 110.244C44.7134 110.145 44.6145 109.997 44.565 109.849C44.5156 109.7 44.4661 109.502 44.4661 109.354V105.644C44.4661 105.496 44.4661 105.397 44.4166 105.348C44.4166 105.298 44.3672 105.249 44.3672 105.199C44.3672 105.15 44.4166 105.1 44.4661 105.051C44.5156 105.002 44.6145 105.002 44.7134 105.002C44.9607 105.002 45.1091 105.051 45.2575 105.199C45.4058 105.298 45.4553 105.447 45.4553 105.644V109.107H45.5542Z" fill="#313E96"/>
<path d="M46.888 105.645C46.888 105.496 46.888 105.397 46.8385 105.348C46.8385 105.299 46.7891 105.249 46.7891 105.2C46.7891 105.15 46.8385 105.101 46.888 105.051C46.9374 105.002 47.0364 105.002 47.1353 105.002C47.3826 105.002 47.5309 105.051 47.6793 105.2C47.8277 105.298 47.8772 105.447 47.8772 105.645V109.354C47.8772 109.503 47.8772 109.601 47.9266 109.651C47.9761 109.75 48.0255 109.75 48.1739 109.75C48.3223 109.75 48.5201 109.7 48.6685 109.601C48.8169 109.503 49.0147 109.305 49.1136 109.107C49.262 108.909 49.3609 108.612 49.4599 108.316C49.5588 108.019 49.6082 107.623 49.6082 107.227C49.6082 106.931 49.6082 106.733 49.5588 106.535C49.5093 106.337 49.4599 106.189 49.4104 106.09C49.3609 105.991 49.3115 105.892 49.2126 105.843C49.1631 105.793 49.1136 105.744 49.0642 105.694C49.0147 105.645 48.9653 105.645 48.9653 105.645C48.9158 105.645 48.9158 105.595 48.9158 105.595C48.9158 105.546 48.9158 105.447 48.9653 105.397C49.0147 105.299 49.0642 105.249 49.1136 105.15C49.1631 105.101 49.2126 105.002 49.3115 104.952C49.4104 104.903 49.4599 104.903 49.5093 104.903C49.6577 104.903 49.8061 104.952 49.9544 105.101C50.1028 105.249 50.2512 105.397 50.3501 105.645C50.449 105.892 50.548 106.139 50.6469 106.436C50.7458 106.733 50.7458 107.03 50.7458 107.326C50.7458 107.771 50.6963 108.217 50.5479 108.662C50.3996 109.057 50.2512 109.453 50.0039 109.75C49.7566 110.047 49.5093 110.294 49.1631 110.492C48.8169 110.69 48.4707 110.739 48.075 110.739C47.8772 110.739 47.6793 110.69 47.5309 110.64C47.3826 110.591 47.2837 110.492 47.1847 110.343C47.0858 110.244 47.0364 110.096 46.9869 109.898C46.9374 109.75 46.9374 109.552 46.9374 109.354V105.645H46.888Z" fill="#313E96"/>
<path d="M54.5481 106.238C54.5481 106.486 54.4986 106.782 54.3997 107.03C54.3008 107.277 54.2019 107.574 54.004 107.821C53.8062 108.068 53.6083 108.266 53.3611 108.464C53.1138 108.662 52.817 108.81 52.4708 108.909C52.5202 109.008 52.5697 109.156 52.6686 109.255C52.7675 109.354 52.817 109.453 52.9159 109.552C53.0148 109.651 53.1632 109.7 53.2621 109.75C53.4105 109.799 53.5589 109.799 53.7567 109.799C54.004 109.799 54.2513 109.75 54.4492 109.651C54.647 109.552 54.7954 109.404 54.9437 109.255C55.0921 109.107 55.191 108.909 55.2405 108.711C55.3394 108.513 55.3889 108.316 55.4383 108.068C55.4878 107.92 55.5373 107.821 55.6362 107.771C55.7351 107.722 55.834 107.722 55.9329 107.722C56.0318 107.722 56.1308 107.821 56.1802 107.87C56.2297 107.92 56.2791 108.068 56.2791 108.167C56.2791 108.316 56.2297 108.464 56.1802 108.662C56.1308 108.86 56.0813 109.008 55.9824 109.206C55.8835 109.404 55.7845 109.552 55.6362 109.75C55.4878 109.948 55.3394 110.096 55.1416 110.244C54.9437 110.393 54.6964 110.492 54.4492 110.591C54.2019 110.69 53.9051 110.739 53.5589 110.739C53.2621 110.739 52.9159 110.69 52.6192 110.541C52.3224 110.393 52.0751 110.244 51.8278 109.997C51.5805 109.75 51.4321 109.503 51.2838 109.156C51.1354 108.81 51.0859 108.414 51.0859 108.019C51.0859 107.574 51.1354 107.178 51.2838 106.782C51.3827 106.387 51.5805 106.09 51.7784 105.793C51.9762 105.496 52.2235 105.299 52.4708 105.15C52.7181 105.002 52.9654 104.903 53.2621 104.903C53.46 104.903 53.6083 104.952 53.8062 105.002C54.004 105.051 54.1029 105.15 54.2019 105.298C54.3008 105.447 54.3997 105.546 54.4492 105.744C54.5481 105.843 54.5481 106.04 54.5481 106.238ZM52.3224 107.87C52.3224 107.92 52.3224 107.969 52.3224 107.969C52.3224 108.019 52.3224 108.068 52.3224 108.118C52.4708 108.019 52.6686 107.92 52.7675 107.821C52.9159 107.673 53.0148 107.574 53.1138 107.376C53.2127 107.227 53.3116 107.03 53.3611 106.832C53.4105 106.634 53.46 106.436 53.46 106.238C53.46 106.09 53.4105 105.941 53.3611 105.892C53.3116 105.793 53.2621 105.744 53.1632 105.744C53.0643 105.744 52.9654 105.793 52.8665 105.843C52.7675 105.941 52.7181 106.04 52.6192 106.139C52.5697 106.288 52.5202 106.387 52.4708 106.535C52.4213 106.683 52.3719 106.832 52.3719 107.03C52.3224 107.178 52.3224 107.326 52.3224 107.475C52.3224 107.673 52.3224 107.771 52.3224 107.87Z" fill="#313E96"/>
<path d="M61.5793 110.64C61.4309 110.64 61.2331 110.59 61.0847 110.541C60.9364 110.492 60.7385 110.393 60.6396 110.294C60.4912 110.195 60.3923 109.997 60.2934 109.799C60.1945 109.601 60.145 109.354 60.145 109.057C60.145 108.612 60.1945 108.118 60.3428 107.623C60.4418 107.128 60.6396 106.584 60.8374 105.991H59.7988H59.601C59.601 106.139 59.601 106.288 59.601 106.485C59.601 106.683 59.5515 106.93 59.5515 107.128C59.502 107.376 59.502 107.623 59.4526 107.821C59.4031 108.068 59.3537 108.266 59.3042 108.464C59.2547 108.612 59.2053 108.711 59.1064 108.711C59.0075 108.711 58.9085 108.711 58.8096 108.662C58.7107 108.612 58.6612 108.513 58.5623 108.414C58.5129 108.315 58.5129 108.216 58.5129 108.068C58.5623 107.92 58.5623 107.771 58.6118 107.573C58.6612 107.376 58.6612 107.178 58.6612 106.93C58.6612 106.683 58.7107 106.485 58.7107 106.238C58.7107 105.991 58.7107 105.793 58.7107 105.645C58.5623 105.546 58.4139 105.447 58.2656 105.298C58.1666 105.15 58.1172 105.002 58.1172 104.754C58.1172 104.655 58.1172 104.556 58.1666 104.507C58.2161 104.408 58.2656 104.359 58.315 104.309C58.3645 104.26 58.4634 104.21 58.5623 104.161C58.6612 104.111 58.7602 104.111 58.8096 104.111C58.9085 104.111 58.958 104.111 59.0569 104.161C59.1558 104.161 59.2053 104.21 59.3042 104.26C59.4031 104.309 59.4526 104.408 59.502 104.507C59.5515 104.606 59.601 104.705 59.6504 104.853C59.7493 104.853 59.8483 104.853 59.9472 104.903C60.0461 104.903 60.0956 104.903 60.145 104.903C60.1945 104.903 60.2439 104.903 60.2934 104.903C60.3428 104.903 60.3428 104.903 60.3923 104.903H61.1342C61.1837 104.903 61.2331 104.952 61.332 105.002C61.4309 105.051 61.4804 105.101 61.5793 105.199C61.6782 105.298 61.7277 105.348 61.7772 105.447C61.8266 105.546 61.8266 105.645 61.8266 105.694C61.8266 105.743 61.8266 105.793 61.7772 105.892C61.7277 105.991 61.7277 106.139 61.6782 106.288C61.6288 106.436 61.5793 106.634 61.5299 106.832C61.4804 107.029 61.4309 107.277 61.3815 107.475C61.332 107.722 61.2826 107.92 61.2826 108.167C61.2331 108.414 61.2331 108.662 61.2331 108.859C61.2331 108.958 61.2331 109.057 61.2826 109.156C61.2826 109.255 61.332 109.305 61.3815 109.403C61.4309 109.453 61.4804 109.552 61.5299 109.552C61.5793 109.601 61.6782 109.601 61.7772 109.601C61.9255 109.601 62.0739 109.552 62.1728 109.453C62.2717 109.354 62.3707 109.206 62.4696 109.057C62.5685 108.909 62.618 108.76 62.6674 108.563C62.7169 108.365 62.7663 108.216 62.7663 108.068C62.8158 107.92 62.8158 107.821 62.9147 107.771C62.9642 107.722 63.0631 107.672 63.1126 107.672C63.162 107.672 63.2115 107.672 63.2609 107.722C63.3104 107.771 63.3598 107.821 63.4093 107.87C63.4588 107.92 63.5082 107.969 63.5082 108.068C63.5577 108.118 63.5577 108.216 63.5577 108.266V108.315V108.365C63.5082 108.612 63.4093 108.859 63.3104 109.107C63.2115 109.354 63.0631 109.601 62.9147 109.799C62.7663 109.997 62.5685 110.195 62.3707 110.343C62.1234 110.59 61.8761 110.64 61.5793 110.64Z" fill="#313E96"/>
<path d="M65.9778 106.238C65.9778 106.486 65.9283 106.782 65.8294 107.03C65.7305 107.277 65.6315 107.574 65.4337 107.821C65.2359 108.068 65.038 108.266 64.7907 108.464C64.5434 108.662 64.2467 108.81 63.9005 108.909C63.9499 109.008 63.9994 109.156 64.0983 109.255C64.1972 109.354 64.2467 109.453 64.3456 109.552C64.4445 109.651 64.5929 109.7 64.6918 109.75C64.8402 109.799 64.9886 109.799 65.1864 109.799C65.4337 109.799 65.681 109.75 65.8788 109.651C66.0767 109.552 66.2251 109.404 66.3734 109.255C66.5218 109.107 66.6207 108.909 66.6702 108.711C66.7691 108.513 66.8186 108.316 66.868 108.068C66.9175 107.92 66.9669 107.821 67.0659 107.771C67.1648 107.722 67.2637 107.722 67.3626 107.722C67.4615 107.722 67.5604 107.821 67.6099 107.87C67.6594 107.92 67.7088 108.068 67.7088 108.167C67.7088 108.316 67.6594 108.464 67.6099 108.662C67.5604 108.86 67.511 109.008 67.4121 109.206C67.3132 109.404 67.2142 109.552 67.0659 109.75C66.9175 109.948 66.7691 110.096 66.5713 110.244C66.3734 110.393 66.1261 110.492 65.8788 110.591C65.6315 110.69 65.3348 110.739 64.9886 110.739C64.6918 110.739 64.3456 110.69 64.0489 110.541C63.7521 110.393 63.5048 110.244 63.2575 109.997C63.0102 109.75 62.8618 109.503 62.7135 109.156C62.5651 108.81 62.5156 108.414 62.5156 108.019C62.5156 107.574 62.5651 107.178 62.7135 106.782C62.8124 106.387 63.0102 106.09 63.2081 105.793C63.4059 105.496 63.6532 105.299 63.9005 105.15C64.1478 105.002 64.3951 104.903 64.6918 104.903C64.8897 104.903 65.038 104.952 65.2359 105.002C65.4337 105.051 65.5326 105.15 65.6315 105.298C65.7305 105.447 65.8294 105.546 65.8788 105.744C65.9283 105.843 65.9778 106.04 65.9778 106.238ZM63.7521 107.87C63.7521 107.92 63.7521 107.969 63.7521 107.969C63.7521 108.019 63.7521 108.068 63.7521 108.118C63.9005 108.019 64.0983 107.92 64.1972 107.821C64.3456 107.673 64.4445 107.574 64.5434 107.376C64.6424 107.227 64.7413 107.03 64.7907 106.832C64.8402 106.634 64.8897 106.436 64.8897 106.238C64.8897 106.09 64.8402 105.941 64.7907 105.892C64.7413 105.793 64.6918 105.744 64.5929 105.744C64.494 105.744 64.3951 105.793 64.2962 105.843C64.1972 105.941 64.1478 106.04 64.0489 106.139C63.9994 106.288 63.9499 106.387 63.9005 106.535C63.851 106.683 63.8016 106.832 63.8016 107.03C63.7521 107.178 63.7521 107.326 63.7521 107.475C63.7521 107.673 63.7521 107.771 63.7521 107.87Z" fill="#313E96"/>
<path d="M67.7052 108.365C67.6558 108.513 67.6063 108.612 67.5074 108.612C67.4085 108.662 67.3096 108.662 67.2106 108.612C67.1117 108.563 67.0128 108.513 66.9633 108.414C66.9139 108.315 66.8644 108.216 66.9139 108.068C66.9633 107.771 67.0623 107.425 67.2106 107.029C67.359 106.634 67.4579 106.288 67.6063 105.941C67.5569 105.842 67.5074 105.744 67.4579 105.645C67.4085 105.546 67.4085 105.447 67.4085 105.298C67.4085 105.199 67.4579 105.051 67.5569 104.952C67.6558 104.853 67.7547 104.705 67.8536 104.606C67.9525 104.507 68.1009 104.408 68.2493 104.359C68.3977 104.309 68.4966 104.26 68.5955 104.26C68.7439 104.26 68.8922 104.309 68.9912 104.408C69.0901 104.507 69.1395 104.655 69.1395 104.853C69.1395 104.952 69.1395 105.051 69.0901 105.15C69.0406 105.249 69.0406 105.348 68.9912 105.447C68.9417 105.546 68.8922 105.595 68.8922 105.694C68.8428 105.744 68.8428 105.793 68.8428 105.793C68.9912 106.09 69.189 106.337 69.3374 106.535C69.5352 106.733 69.6836 106.98 69.832 107.178C69.9803 107.376 70.0793 107.623 70.1782 107.87C70.2771 108.118 70.3266 108.414 70.3266 108.711C70.3266 108.81 70.3266 108.859 70.3266 108.958C70.3266 109.057 70.2771 109.107 70.2771 109.206C70.4255 109.156 70.5739 109.107 70.7222 109.057C70.8211 109.008 70.9695 108.909 71.0684 108.81C71.1674 108.711 71.2168 108.612 71.3157 108.513C71.3652 108.414 71.4147 108.315 71.4641 108.167C71.5136 108.019 71.563 107.92 71.6125 107.87C71.662 107.821 71.7114 107.771 71.7609 107.771C71.8103 107.771 71.8598 107.771 71.9587 107.821C72.0082 107.87 72.0576 107.92 72.1071 107.969C72.1565 108.019 72.206 108.068 72.206 108.167C72.2555 108.216 72.2555 108.266 72.2555 108.315C72.2555 108.365 72.2555 108.464 72.206 108.563C72.1565 108.662 72.1071 108.761 72.0576 108.859C72.0082 108.958 71.9092 109.057 71.8598 109.156C71.7609 109.255 71.7114 109.305 71.6125 109.404C71.4147 109.601 71.1179 109.75 70.8706 109.849C70.5739 109.948 70.2276 110.046 69.7825 110.096C69.6341 110.244 69.4363 110.343 69.189 110.442C68.9417 110.541 68.6944 110.591 68.3977 110.591C68.2493 110.591 68.1009 110.591 67.9525 110.541C67.8041 110.492 67.6558 110.442 67.5074 110.393C67.359 110.343 67.2601 110.294 67.1117 110.195C67.0128 110.145 66.9139 110.046 66.8644 109.997C66.716 109.849 66.5677 109.651 66.5182 109.502C66.4688 109.354 66.4688 109.206 66.4688 109.057C66.4688 108.909 66.5182 108.81 66.6171 108.761C66.6666 108.662 66.7655 108.612 66.8644 108.612C66.9139 108.612 66.9633 108.612 67.0623 108.662C67.1612 108.711 67.2601 108.761 67.4085 108.81C67.5569 108.859 67.6558 108.958 67.8042 109.008C67.9525 109.057 68.1009 109.156 68.2493 109.206C68.3977 109.255 68.546 109.305 68.6944 109.354C68.8428 109.404 68.9417 109.404 69.0901 109.404C69.189 109.305 69.2385 109.206 69.2879 109.057C69.3374 108.909 69.3868 108.761 69.3868 108.563C69.3868 108.365 69.3374 108.167 69.2879 107.969C69.2385 107.771 69.1395 107.623 69.0406 107.475C68.9417 107.326 68.8428 107.178 68.7439 107.029C68.645 106.881 68.4966 106.782 68.3977 106.634C68.2987 106.881 68.1998 107.178 68.1009 107.425C67.8536 107.722 67.7547 108.019 67.7052 108.365Z" fill="#313E96"/>
<path d="M75.1234 110.64C74.975 110.64 74.8266 110.59 74.6782 110.541C74.5299 110.491 74.4309 110.442 74.332 110.343C74.2331 110.244 74.1342 110.145 74.0847 110.046C74.0353 109.947 73.9858 109.799 73.9364 109.651C73.788 109.947 73.5901 110.195 73.3428 110.343C73.0955 110.541 72.8483 110.64 72.5515 110.64C72.3042 110.64 72.1064 110.59 71.958 110.491C71.8096 110.392 71.6118 110.244 71.5129 110.096C71.3645 109.898 71.315 109.7 71.2161 109.453C71.1666 109.205 71.1172 108.909 71.1172 108.612C71.1172 108.266 71.1666 107.87 71.2161 107.524C71.2656 107.178 71.315 106.831 71.3645 106.535C71.4139 106.188 71.5129 105.842 71.6118 105.546C71.6118 105.496 71.6612 105.447 71.6612 105.348C71.6612 105.298 71.7107 105.249 71.7602 105.199C71.8096 105.15 71.8591 105.1 71.958 105.1C72.0569 105.051 72.2053 105.051 72.3537 105.051C72.502 105.051 72.6504 105.1 72.6999 105.15C72.7493 105.199 72.7493 105.298 72.7493 105.348C72.7493 105.447 72.6999 105.496 72.6504 105.595C72.601 105.694 72.601 105.743 72.5515 105.793C72.502 106.04 72.4526 106.287 72.4031 106.485C72.3537 106.683 72.3042 106.93 72.2547 107.128C72.2053 107.326 72.2053 107.573 72.1558 107.821C72.1558 108.068 72.1064 108.315 72.1064 108.612C72.1064 109.008 72.1558 109.255 72.2547 109.453C72.3537 109.651 72.502 109.75 72.6999 109.75C72.8483 109.75 72.9472 109.7 73.0955 109.601C73.1945 109.502 73.3428 109.354 73.4418 109.205C73.5407 109.008 73.6396 108.81 73.6891 108.612C73.7385 108.365 73.8374 108.167 73.8374 107.92V105.694C73.8374 105.595 73.8374 105.496 73.8374 105.447C73.8374 105.397 73.788 105.348 73.788 105.298C73.788 105.249 73.7385 105.249 73.7385 105.199V105.15C73.7385 105.15 73.7385 105.1 73.788 105.1C73.8374 105.1 73.8374 105.051 73.8869 105.051C73.9363 105.051 73.9858 105.051 74.0353 105.001C74.0847 105.001 74.1342 105.001 74.1836 105.001C74.4309 105.001 74.5793 105.051 74.7277 105.199C74.8761 105.298 74.9255 105.447 74.9255 105.644V109.156C74.9255 109.205 74.9255 109.255 74.9255 109.304C74.9255 109.354 74.9255 109.453 74.975 109.502C74.975 109.552 75.0245 109.651 75.0739 109.7C75.1234 109.75 75.1728 109.799 75.2717 109.799C75.4201 109.799 75.519 109.75 75.618 109.651C75.7169 109.552 75.8158 109.403 75.8653 109.255C75.9147 109.107 76.0136 108.958 76.0631 108.76C76.1126 108.563 76.162 108.414 76.162 108.266C76.2115 108.117 76.2115 108.018 76.3104 107.969C76.3598 107.92 76.4588 107.87 76.5082 107.87C76.5577 107.87 76.6071 107.87 76.6566 107.92C76.7061 107.969 76.7555 108.018 76.805 108.068C76.8544 108.117 76.9039 108.167 76.9039 108.266C76.9534 108.315 76.9534 108.414 76.9534 108.464C76.9534 108.464 76.9534 108.464 76.9534 108.513C76.9534 108.563 76.9534 108.563 76.9534 108.563C76.9039 108.81 76.805 109.057 76.7061 109.304C76.6071 109.552 76.4588 109.799 76.3104 109.997C76.162 110.195 75.9642 110.392 75.7663 110.541C75.6674 110.59 75.4201 110.64 75.1234 110.64Z" fill="#313E96"/>
<path d="M79.379 108.266C79.4285 108.117 79.4285 108.019 79.5274 107.969C79.5769 107.92 79.6263 107.87 79.7252 107.87C79.7747 107.87 79.8736 107.87 79.9231 107.92C79.9725 107.969 80.0714 108.019 80.1209 108.068C80.1704 108.117 80.2198 108.216 80.2198 108.266C80.2198 108.365 80.2693 108.414 80.2198 108.513C80.1704 108.711 80.0714 108.909 79.9725 109.156C79.8736 109.403 79.7252 109.651 79.5274 109.849C79.3296 110.046 79.1317 110.244 78.8844 110.393C78.6371 110.541 78.3404 110.64 78.0436 110.64C77.7963 110.64 77.549 110.59 77.3512 110.491C77.1534 110.393 76.9555 110.294 76.8566 110.096C76.7082 109.947 76.6093 109.75 76.5599 109.502C76.5104 109.255 76.4609 109.008 76.4609 108.76V102.479C76.4609 102.232 76.5104 101.985 76.5599 101.787C76.6093 101.589 76.7082 101.391 76.8071 101.243C76.9061 101.094 77.0544 100.946 77.2028 100.896C77.3512 100.798 77.4996 100.748 77.6974 100.748C77.8952 100.748 78.0931 100.798 78.192 100.847C78.3404 100.946 78.4393 100.995 78.5382 101.144C78.6371 101.243 78.6866 101.391 78.736 101.539C78.7855 101.688 78.835 101.836 78.835 102.034C78.835 102.182 78.8844 102.38 78.8844 102.529C78.8844 102.677 78.8844 102.825 78.8844 102.974C78.8844 103.32 78.835 103.666 78.7855 104.062C78.7361 104.457 78.6371 104.804 78.5382 105.15C78.4393 105.496 78.3404 105.842 78.2415 106.189C78.1425 106.535 77.9942 106.832 77.8952 107.079C77.7963 107.326 77.6974 107.524 77.5985 107.722C77.4996 107.87 77.4501 107.969 77.4501 108.019V108.81C77.4501 109.107 77.4996 109.304 77.648 109.502C77.7469 109.7 77.9447 109.75 78.192 109.75C78.3404 109.75 78.4888 109.7 78.6371 109.601C78.7855 109.502 78.8844 109.403 78.9833 109.255C79.0823 109.107 79.1812 108.958 79.2306 108.76C79.2801 108.563 79.3296 108.414 79.379 108.266ZM77.4007 106.189C77.4501 106.09 77.4996 105.991 77.549 105.793C77.5985 105.644 77.648 105.447 77.6974 105.249C77.7469 105.051 77.7963 104.853 77.7963 104.655C77.8458 104.457 77.8458 104.26 77.8952 104.012C77.9447 103.765 77.9447 103.617 77.9447 103.419C77.9447 103.221 77.9447 103.073 77.9447 102.974C77.9447 102.529 77.8952 102.182 77.8458 101.985C77.7963 101.787 77.6974 101.688 77.5985 101.688C77.549 101.688 77.549 101.688 77.4996 101.737C77.4501 101.787 77.4501 101.836 77.4501 101.886C77.4501 101.935 77.4007 101.985 77.4007 102.083C77.4007 102.133 77.4007 102.232 77.4007 102.281V106.189Z" fill="#313E96"/>
<path d="M78.1464 103.765C78.2453 103.765 78.3442 103.765 78.4926 103.765C78.5915 103.765 78.7399 103.765 78.8883 103.765C79.0367 103.765 79.2345 103.765 79.3829 103.765V101.44C79.3829 101.342 79.3829 101.243 79.3829 101.193C79.3829 101.144 79.3334 101.094 79.3334 101.045C79.3334 100.995 79.284 100.995 79.284 100.946V100.896C79.284 100.847 79.284 100.847 79.3334 100.847C79.3829 100.847 79.3829 100.798 79.4323 100.798C79.4818 100.798 79.5313 100.798 79.5807 100.748C79.6302 100.748 79.6796 100.748 79.7291 100.748C79.9764 100.748 80.1248 100.798 80.2732 100.946C80.4215 101.045 80.471 101.193 80.471 101.391V103.815C80.9161 103.815 81.3612 103.815 81.8064 103.815C82.301 103.815 82.7461 103.815 83.2407 103.765C83.2902 103.716 83.3396 103.666 83.3891 103.666C83.4385 103.666 83.4385 103.716 83.488 103.815C83.488 103.864 83.488 103.963 83.488 104.062C83.488 104.161 83.4385 104.26 83.4385 104.359C83.3891 104.457 83.3891 104.507 83.3396 104.606C83.2902 104.705 83.2407 104.705 83.1912 104.705C82.6472 104.705 82.1526 104.705 81.7075 104.705C81.2623 104.705 80.8667 104.705 80.5204 104.705V109.107C80.5204 109.354 80.5699 109.502 80.6688 109.601C80.7677 109.7 80.8667 109.75 81.015 109.75C81.1634 109.75 81.2623 109.7 81.3612 109.601C81.4602 109.502 81.5591 109.354 81.6085 109.206C81.658 109.057 81.7569 108.909 81.8064 108.711C81.8558 108.513 81.9053 108.365 81.9053 108.216C81.9548 108.068 81.9548 107.969 82.0537 107.92C82.1031 107.87 82.2021 107.821 82.2515 107.821C82.301 107.821 82.3504 107.821 82.3999 107.87C82.4494 107.92 82.4988 107.969 82.5483 108.019C82.5977 108.068 82.6472 108.117 82.6472 108.216C82.6966 108.266 82.6966 108.365 82.6966 108.414C82.6966 108.414 82.6966 108.414 82.6966 108.464C82.6966 108.513 82.6966 108.513 82.6966 108.513C82.6472 108.76 82.5483 109.008 82.4493 109.255C82.3504 109.502 82.202 109.75 82.0537 109.947C81.9053 110.145 81.7075 110.343 81.4602 110.491C81.2623 110.64 80.9656 110.689 80.6688 110.689C80.471 110.689 80.3226 110.64 80.1742 110.59C80.0259 110.541 79.8775 110.442 79.7786 110.343C79.6796 110.195 79.5807 110.046 79.5313 109.849C79.4818 109.651 79.4323 109.403 79.4323 109.156V104.754C79.284 104.754 79.1356 104.754 79.0367 104.754C78.9378 104.754 78.8388 104.754 78.7399 104.754C78.641 104.754 78.5421 104.754 78.4926 104.754C78.3937 104.754 78.2948 104.705 78.1959 104.606C78.097 104.507 78.0475 104.408 77.998 104.309C77.9486 104.21 77.9486 104.062 77.998 104.012C77.998 103.815 78.0475 103.765 78.1464 103.765Z" fill="#313E96"/>
<path d="M82.6974 108.365C82.648 108.513 82.5985 108.612 82.4996 108.612C82.4007 108.662 82.3017 108.662 82.2028 108.612C82.1039 108.563 82.005 108.513 81.9555 108.414C81.9061 108.315 81.8566 108.216 81.9061 108.068C81.9555 107.771 82.0544 107.425 82.2028 107.029C82.3512 106.634 82.4501 106.288 82.5985 105.941C82.549 105.842 82.4996 105.744 82.4501 105.645C82.4007 105.546 82.4007 105.447 82.4007 105.298C82.4007 105.199 82.4501 105.051 82.549 104.952C82.648 104.853 82.7469 104.705 82.8458 104.606C82.9447 104.507 83.0931 104.408 83.2415 104.359C83.3898 104.309 83.4888 104.26 83.5877 104.26C83.7361 104.26 83.8844 104.309 83.9834 104.408C84.0823 104.507 84.1317 104.655 84.1317 104.853C84.1317 104.952 84.1317 105.051 84.0823 105.15C84.0328 105.249 84.0328 105.348 83.9834 105.447C83.9339 105.546 83.8844 105.595 83.8844 105.694C83.835 105.744 83.835 105.793 83.835 105.793C83.9834 106.09 84.1812 106.337 84.3296 106.535C84.5274 106.733 84.6758 106.98 84.8242 107.178C84.9725 107.376 85.0714 107.623 85.1704 107.87C85.2693 108.118 85.3187 108.414 85.3187 108.711C85.3187 108.81 85.3187 108.859 85.3187 108.958C85.3187 109.057 85.2693 109.107 85.2693 109.206C85.4177 109.156 85.566 109.107 85.7144 109.057C85.8133 109.008 85.9617 108.909 86.0606 108.81C86.1595 108.711 86.209 108.612 86.3079 108.513C86.3574 108.414 86.4068 108.315 86.4563 108.167C86.5058 108.019 86.5552 107.92 86.6047 107.87C86.6541 107.821 86.7036 107.771 86.7531 107.771C86.8025 107.771 86.852 107.771 86.9509 107.821C87.0004 107.87 87.0498 107.92 87.0993 107.969C87.1487 108.019 87.1982 108.068 87.1982 108.167C87.2476 108.216 87.2476 108.266 87.2476 108.315C87.2476 108.365 87.2476 108.464 87.1982 108.563C87.1487 108.662 87.0993 108.761 87.0498 108.859C87.0004 108.958 86.9014 109.057 86.852 109.156C86.7531 109.255 86.7036 109.305 86.6047 109.404C86.4068 109.601 86.1101 109.75 85.8628 109.849C85.566 109.948 85.2198 110.046 84.7747 110.096C84.6263 110.244 84.4285 110.343 84.1812 110.442C83.9339 110.541 83.6866 110.591 83.3898 110.591C83.2415 110.591 83.0931 110.591 82.9447 110.541C82.7963 110.492 82.648 110.442 82.4996 110.393C82.3512 110.343 82.2523 110.294 82.1039 110.195C82.005 110.145 81.9061 110.046 81.8566 109.997C81.7082 109.849 81.5599 109.651 81.5104 109.502C81.4609 109.354 81.4609 109.206 81.4609 109.057C81.4609 108.909 81.5104 108.81 81.6093 108.761C81.6588 108.662 81.7577 108.612 81.8566 108.612C81.9061 108.612 81.9555 108.612 82.0544 108.662C82.1534 108.711 82.2523 108.761 82.4007 108.81C82.549 108.859 82.648 108.958 82.7963 109.008C82.9447 109.057 83.0931 109.156 83.2415 109.206C83.3898 109.255 83.5382 109.305 83.6866 109.354C83.835 109.404 83.9339 109.404 84.0823 109.404C84.1812 109.305 84.2306 109.206 84.2801 109.057C84.3296 108.909 84.379 108.761 84.379 108.563C84.379 108.365 84.3296 108.167 84.2801 107.969C84.2306 107.771 84.1317 107.623 84.0328 107.475C83.9339 107.326 83.835 107.178 83.7361 107.029C83.6371 106.881 83.4888 106.782 83.3898 106.634C83.2909 106.881 83.192 107.178 83.0931 107.425C82.8953 107.722 82.7963 108.019 82.6974 108.365Z" fill="#313E96"/>
<path d="M92.5871 106.238C92.5871 106.486 92.5377 106.782 92.4388 107.03C92.3398 107.277 92.2409 107.574 92.0431 107.821C91.8453 108.068 91.6474 108.266 91.4001 108.464C91.1528 108.662 90.8561 108.81 90.5099 108.909C90.5593 109.008 90.6088 109.156 90.7077 109.255C90.8066 109.354 90.8561 109.453 90.955 109.552C91.0539 109.651 91.2023 109.7 91.3012 109.75C91.4496 109.799 91.598 109.799 91.7958 109.799C92.0431 109.799 92.2904 109.75 92.4882 109.651C92.6861 109.552 92.8344 109.404 92.9828 109.255C93.1312 109.107 93.2301 108.909 93.2796 108.711C93.3785 108.513 93.4279 108.316 93.4774 108.068C93.5269 107.92 93.5763 107.821 93.6752 107.771C93.7741 107.722 93.8731 107.722 93.972 107.722C94.0709 107.722 94.1698 107.821 94.2193 107.87C94.2687 107.92 94.3182 108.068 94.3182 108.167C94.3182 108.316 94.2687 108.464 94.2193 108.662C94.1698 108.86 94.1204 109.008 94.0214 109.206C93.9225 109.404 93.8236 109.552 93.6752 109.75C93.5269 109.948 93.3785 110.096 93.1806 110.244C92.9828 110.393 92.7355 110.492 92.4882 110.591C92.2409 110.69 91.9442 110.739 91.598 110.739C91.3012 110.739 90.955 110.69 90.6582 110.541C90.3615 110.393 90.1142 110.244 89.8669 109.997C89.6196 109.75 89.4712 109.503 89.3228 109.156C89.1745 108.81 89.125 108.414 89.125 108.019C89.125 107.574 89.1745 107.178 89.3228 106.782C89.4218 106.387 89.6196 106.09 89.8174 105.793C90.0153 105.496 90.2626 105.299 90.5099 105.15C90.7571 105.002 91.0044 104.903 91.3012 104.903C91.499 104.903 91.6474 104.952 91.8452 105.002C92.0431 105.051 92.142 105.15 92.2409 105.298C92.3398 105.447 92.4388 105.546 92.4882 105.744C92.5377 105.843 92.5871 106.04 92.5871 106.238ZM90.312 107.87C90.312 107.92 90.312 107.969 90.312 107.969C90.312 108.019 90.312 108.068 90.312 108.118C90.4604 108.019 90.6582 107.92 90.7571 107.821C90.9055 107.673 91.0044 107.574 91.1034 107.376C91.2023 107.227 91.3012 107.03 91.3507 106.832C91.4001 106.634 91.4496 106.436 91.4496 106.238C91.4496 106.09 91.4001 105.941 91.3507 105.892C91.3012 105.793 91.2517 105.744 91.1528 105.744C91.0539 105.744 90.955 105.793 90.8561 105.843C90.7571 105.941 90.7077 106.04 90.6088 106.139C90.5593 106.288 90.5099 106.387 90.4604 106.535C90.4109 106.683 90.3615 106.832 90.3615 107.03C90.312 107.178 90.312 107.326 90.312 107.475C90.312 107.673 90.312 107.771 90.312 107.87Z" fill="#313E96"/>
<path d="M93.4739 105.645C93.4739 105.496 93.4739 105.397 93.4245 105.348C93.4245 105.299 93.375 105.249 93.375 105.2C93.375 105.15 93.4245 105.101 93.4739 105.051C93.5234 105.002 93.6223 105.002 93.7212 105.002C93.9685 105.002 94.1169 105.051 94.2653 105.2C94.4136 105.298 94.4631 105.447 94.4631 105.645V109.354C94.4631 109.503 94.4631 109.601 94.5126 109.651C94.562 109.75 94.6115 109.75 94.7599 109.75C94.9082 109.75 95.1061 109.7 95.2544 109.601C95.4028 109.503 95.6007 109.305 95.6996 109.107C95.848 108.909 95.9469 108.612 96.0458 108.316C96.1447 108.019 96.1942 107.623 96.1942 107.227C96.1942 106.931 96.1942 106.733 96.1447 106.535C96.0952 106.337 96.0458 106.189 95.9963 106.09C95.9469 105.991 95.8974 105.892 95.7985 105.843C95.749 105.793 95.6996 105.744 95.6501 105.694C95.6007 105.645 95.5512 105.645 95.5512 105.645C95.5017 105.645 95.5017 105.595 95.5017 105.595C95.5017 105.546 95.5017 105.447 95.5512 105.397C95.6007 105.299 95.6501 105.249 95.6996 105.15C95.749 105.101 95.7985 105.002 95.8974 104.952C95.9963 104.903 96.0458 104.903 96.0952 104.903C96.2436 104.903 96.392 104.952 96.5404 105.101C96.6888 105.249 96.8371 105.397 96.936 105.645C97.035 105.892 97.1339 106.139 97.2328 106.436C97.3317 106.733 97.3317 107.03 97.3317 107.326C97.3317 107.771 97.2823 108.217 97.1339 108.662C96.9855 109.057 96.8371 109.453 96.5898 109.75C96.3425 110.047 96.0952 110.294 95.749 110.492C95.4028 110.69 95.0566 110.739 94.6609 110.739C94.4631 110.739 94.2653 110.69 94.1169 110.64C93.9685 110.591 93.8696 110.492 93.7707 110.343C93.6718 110.244 93.6223 110.096 93.5728 109.898C93.5234 109.75 93.5234 109.552 93.5234 109.354V105.645H93.4739Z" fill="#313E96"/>
<path d="M101.197 106.238C101.197 106.486 101.147 106.782 101.048 107.03C100.949 107.277 100.85 107.574 100.652 107.821C100.455 108.068 100.257 108.266 100.009 108.464C99.7622 108.662 99.4654 108.81 99.1192 108.909C99.1687 109.008 99.2181 109.156 99.3171 109.255C99.416 109.354 99.4654 109.453 99.5644 109.552C99.6633 109.651 99.8117 109.7 99.9106 109.75C100.059 109.799 100.207 109.799 100.405 109.799C100.652 109.799 100.9 109.75 101.098 109.651C101.295 109.552 101.444 109.404 101.592 109.255C101.741 109.107 101.839 108.909 101.889 108.711C101.988 108.513 102.037 108.316 102.087 108.068C102.136 107.92 102.186 107.821 102.285 107.771C102.384 107.722 102.482 107.722 102.581 107.722C102.68 107.722 102.779 107.821 102.829 107.87C102.878 107.92 102.928 108.068 102.928 108.167C102.928 108.316 102.878 108.464 102.829 108.662C102.779 108.86 102.73 109.008 102.631 109.206C102.532 109.404 102.433 109.552 102.285 109.75C102.136 109.948 101.988 110.096 101.79 110.244C101.592 110.393 101.345 110.492 101.098 110.591C100.85 110.69 100.554 110.739 100.207 110.739C99.9106 110.739 99.5644 110.69 99.2676 110.541C98.9708 110.393 98.7236 110.244 98.4763 109.997C98.229 109.75 98.0806 109.503 97.9322 109.156C97.7838 108.81 97.7344 108.414 97.7344 108.019C97.7344 107.574 97.7838 107.178 97.9322 106.782C98.0311 106.387 98.229 106.09 98.4268 105.793C98.6246 105.496 98.8719 105.299 99.1192 105.15C99.3665 105.002 99.6138 104.903 99.9106 104.903C100.108 104.903 100.257 104.952 100.455 105.002C100.652 105.051 100.751 105.15 100.85 105.298C100.949 105.447 101.048 105.546 101.098 105.744C101.147 105.843 101.197 106.04 101.197 106.238ZM98.9709 107.87C98.9709 107.92 98.9709 107.969 98.9709 107.969C98.9709 108.019 98.9709 108.068 98.9709 108.118C99.1192 108.019 99.3171 107.92 99.416 107.821C99.5644 107.673 99.6633 107.574 99.7622 107.376C99.8611 107.227 99.96 107.03 100.009 106.832C100.059 106.634 100.108 106.436 100.108 106.238C100.108 106.09 100.059 105.941 100.009 105.892C99.96 105.793 99.9106 105.744 99.8117 105.744C99.7127 105.744 99.6138 105.793 99.5149 105.843C99.416 105.941 99.3665 106.04 99.2676 106.139C99.2181 106.288 99.1687 106.387 99.1192 106.535C99.0698 106.683 99.0203 106.832 99.0203 107.03C98.9708 107.178 98.9709 107.326 98.9709 107.475C98.9709 107.673 98.9214 107.771 98.9709 107.87Z" fill="#313E96"/>
<path d="M105.1 110.64C104.952 110.64 104.754 110.59 104.606 110.541C104.457 110.492 104.259 110.393 104.16 110.294C104.012 110.195 103.913 109.997 103.814 109.799C103.715 109.601 103.666 109.354 103.666 109.057C103.666 108.612 103.715 108.118 103.864 107.623C103.963 107.128 104.16 106.584 104.358 105.991H103.32H103.171C103.171 106.139 103.171 106.288 103.171 106.485C103.171 106.683 103.122 106.93 103.122 107.128C103.072 107.376 103.072 107.623 103.023 107.821C102.973 108.068 102.924 108.266 102.875 108.464C102.825 108.612 102.776 108.711 102.677 108.711C102.578 108.711 102.479 108.711 102.38 108.662C102.281 108.612 102.232 108.513 102.133 108.414C102.083 108.315 102.083 108.216 102.083 108.068C102.133 107.92 102.133 107.771 102.182 107.573C102.232 107.376 102.232 107.178 102.232 106.93C102.232 106.683 102.281 106.485 102.281 106.238C102.281 105.991 102.281 105.793 102.281 105.645C102.133 105.546 101.984 105.447 101.836 105.298C101.737 105.15 101.688 105.002 101.688 104.754C101.688 104.655 101.687 104.556 101.737 104.507C101.786 104.408 101.836 104.359 101.885 104.309C101.935 104.26 102.034 104.21 102.133 104.161C102.232 104.111 102.33 104.111 102.38 104.111C102.479 104.111 102.528 104.111 102.627 104.161C102.726 104.161 102.776 104.21 102.875 104.26C102.973 104.309 103.023 104.408 103.072 104.507C103.122 104.606 103.171 104.705 103.221 104.853C103.32 104.853 103.419 104.853 103.517 104.903C103.616 104.903 103.666 104.903 103.715 104.903C103.765 104.903 103.814 104.903 103.864 104.903C103.913 104.903 103.913 104.903 103.963 104.903H104.704C104.754 104.903 104.803 104.952 104.902 105.002C105.001 105.051 105.051 105.101 105.15 105.199C105.249 105.298 105.298 105.348 105.347 105.447C105.397 105.546 105.397 105.645 105.397 105.694C105.397 105.743 105.397 105.793 105.347 105.892C105.298 105.991 105.298 106.139 105.249 106.288C105.199 106.436 105.15 106.634 105.1 106.832C105.051 107.029 105.001 107.277 104.952 107.475C104.902 107.722 104.853 107.92 104.853 108.167C104.803 108.414 104.803 108.662 104.803 108.859C104.803 108.958 104.803 109.057 104.853 109.156C104.853 109.255 104.902 109.305 104.952 109.403C105.001 109.453 105.051 109.552 105.1 109.552C105.15 109.601 105.249 109.601 105.347 109.601C105.496 109.601 105.644 109.552 105.743 109.453C105.842 109.354 105.941 109.206 106.04 109.057C106.139 108.909 106.188 108.76 106.238 108.563C106.287 108.365 106.337 108.216 106.337 108.068C106.386 107.92 106.386 107.821 106.485 107.771C106.534 107.722 106.633 107.672 106.683 107.672C106.732 107.672 106.782 107.672 106.831 107.722C106.881 107.771 106.93 107.821 106.98 107.87C107.029 107.92 107.079 107.969 107.079 108.068C107.128 108.118 107.128 108.216 107.128 108.266V108.315V108.365C107.079 108.612 106.98 108.859 106.881 109.107C106.782 109.354 106.633 109.601 106.485 109.799C106.337 109.997 106.139 110.195 105.941 110.343C105.694 110.59 105.397 110.64 105.1 110.64Z" fill="#313E96"/>
<path d="M111.284 108.266C111.334 108.118 111.383 108.019 111.433 107.969C111.482 107.92 111.532 107.87 111.631 107.87C111.68 107.87 111.729 107.87 111.779 107.92C111.828 107.969 111.878 108.019 111.927 108.068C111.977 108.118 112.026 108.167 112.026 108.266C112.076 108.315 112.076 108.414 112.076 108.464V108.513C112.076 108.513 112.076 108.563 112.076 108.612C111.977 109.008 111.828 109.354 111.68 109.7C111.532 109.997 111.334 110.294 111.185 110.541C110.988 110.788 110.839 110.986 110.641 111.184C110.444 111.382 110.246 111.53 110.097 111.728V114.102C110.097 114.448 110.048 114.795 109.949 115.042C109.85 115.289 109.751 115.487 109.603 115.635C109.454 115.784 109.306 115.883 109.158 115.982C109.009 116.031 108.811 116.08 108.614 116.08C108.416 116.08 108.218 116.031 108.07 115.932C107.921 115.833 107.773 115.734 107.624 115.586C107.525 115.438 107.427 115.289 107.328 115.091C107.278 114.893 107.229 114.696 107.229 114.448C107.229 114.102 107.278 113.805 107.377 113.509C107.476 113.261 107.575 113.014 107.773 112.767C107.921 112.519 108.119 112.322 108.317 112.124C108.515 111.926 108.762 111.728 108.96 111.53V109.75C108.811 110.046 108.614 110.244 108.366 110.442C108.168 110.64 107.872 110.689 107.575 110.689C107.328 110.689 107.13 110.64 106.981 110.541C106.833 110.442 106.635 110.294 106.536 110.145C106.388 109.948 106.338 109.75 106.24 109.502C106.19 109.255 106.141 108.958 106.141 108.662C106.141 108.315 106.19 107.92 106.24 107.574C106.289 107.227 106.338 106.881 106.388 106.584C106.437 106.238 106.536 105.892 106.635 105.595C106.635 105.546 106.685 105.496 106.685 105.397C106.685 105.348 106.734 105.298 106.784 105.249C106.833 105.2 106.883 105.15 106.981 105.15C107.08 105.101 107.229 105.101 107.377 105.101C107.525 105.101 107.674 105.15 107.723 105.2C107.773 105.249 107.773 105.348 107.773 105.397C107.773 105.496 107.723 105.546 107.674 105.645C107.624 105.744 107.624 105.793 107.575 105.842C107.525 106.09 107.476 106.337 107.427 106.535C107.377 106.733 107.328 106.98 107.278 107.178C107.229 107.376 107.229 107.623 107.179 107.87C107.179 108.118 107.13 108.365 107.13 108.662C107.13 109.057 107.179 109.305 107.278 109.502C107.377 109.7 107.525 109.799 107.723 109.799C107.872 109.799 107.971 109.75 108.119 109.651C108.218 109.552 108.366 109.404 108.465 109.255C108.564 109.057 108.663 108.859 108.712 108.662C108.762 108.414 108.861 108.217 108.861 107.969V105.744C108.861 105.595 108.861 105.496 108.811 105.447C108.811 105.397 108.762 105.348 108.762 105.298C108.762 105.249 108.811 105.2 108.861 105.15C108.91 105.101 109.009 105.101 109.108 105.101C109.355 105.101 109.504 105.15 109.652 105.298C109.801 105.397 109.85 105.546 109.85 105.744V110.591C110.097 110.294 110.345 109.997 110.542 109.651C110.938 109.156 111.136 108.711 111.284 108.266ZM108.614 115.091C108.712 115.091 108.811 115.042 108.861 114.943C108.91 114.844 108.96 114.745 108.96 114.646C108.96 114.547 109.009 114.399 109.009 114.3C109.009 114.201 109.009 114.102 109.009 114.003V112.519C108.762 112.767 108.614 113.014 108.465 113.261C108.317 113.558 108.267 113.904 108.267 114.3C108.267 114.498 108.317 114.696 108.366 114.844C108.416 115.042 108.515 115.091 108.614 115.091Z" fill="#313E96"/>
<path d="M112.866 110.64C112.619 110.64 112.372 110.591 112.125 110.492C111.927 110.393 111.729 110.244 111.581 110.046C111.432 109.849 111.284 109.651 111.234 109.354C111.135 109.057 111.086 108.761 111.086 108.414C111.086 107.87 111.185 107.425 111.333 106.98C111.482 106.584 111.679 106.189 111.927 105.892C112.174 105.595 112.471 105.348 112.817 105.199C113.163 105.002 113.509 104.903 113.905 104.853V101.737C113.905 101.638 113.905 101.54 113.905 101.49C113.905 101.441 113.856 101.391 113.856 101.342C113.856 101.292 113.806 101.292 113.806 101.243V101.193C113.806 101.144 113.806 101.144 113.856 101.144C113.905 101.144 113.905 101.094 113.955 101.094C114.004 101.094 114.053 101.094 114.103 101.045C114.152 101.045 114.202 101.045 114.251 101.045C114.499 101.045 114.647 101.094 114.795 101.243C114.944 101.342 114.993 101.49 114.993 101.688V109.107C114.993 109.206 114.993 109.255 115.043 109.354C115.043 109.453 115.092 109.502 115.142 109.552C115.191 109.601 115.24 109.651 115.29 109.7C115.339 109.75 115.438 109.75 115.488 109.75C115.636 109.75 115.735 109.7 115.834 109.601C115.933 109.502 116.032 109.354 116.081 109.206C116.131 109.057 116.23 108.909 116.279 108.711C116.329 108.513 116.378 108.365 116.378 108.216C116.428 108.068 116.428 107.969 116.526 107.92C116.576 107.87 116.675 107.821 116.724 107.821C116.774 107.821 116.823 107.821 116.873 107.87C116.922 107.92 116.972 107.969 117.021 108.019C117.07 108.068 117.12 108.118 117.12 108.216C117.169 108.266 117.169 108.365 117.169 108.414C117.169 108.414 117.169 108.414 117.169 108.464C117.169 108.513 117.169 108.513 117.169 108.513C117.12 108.761 117.021 109.008 116.922 109.255C116.823 109.502 116.675 109.75 116.526 109.948C116.378 110.145 116.18 110.343 115.933 110.492C115.735 110.64 115.438 110.689 115.142 110.689C114.894 110.689 114.696 110.64 114.499 110.541C114.301 110.442 114.152 110.294 114.053 110.145C113.905 110.294 113.707 110.442 113.509 110.541C113.361 110.591 113.163 110.64 112.866 110.64ZM113.064 109.75C113.262 109.75 113.411 109.7 113.559 109.601C113.707 109.502 113.806 109.354 113.905 109.206V105.793C113.658 105.842 113.46 105.892 113.262 106.04C113.064 106.139 112.866 106.288 112.718 106.485C112.57 106.683 112.421 106.931 112.322 107.227C112.223 107.524 112.174 107.92 112.174 108.315C112.174 108.563 112.223 108.761 112.273 108.958C112.322 109.156 112.372 109.305 112.471 109.403C112.57 109.502 112.669 109.601 112.768 109.651C112.866 109.7 112.965 109.75 113.064 109.75Z" fill="#313E96"/>
<path d="M120.329 109.75C120.477 109.75 120.576 109.7 120.675 109.601C120.774 109.503 120.873 109.354 120.923 109.206C120.972 109.057 121.071 108.909 121.12 108.711C121.17 108.513 121.219 108.365 121.219 108.217C121.269 108.068 121.318 107.969 121.368 107.92C121.417 107.87 121.516 107.821 121.565 107.821C121.615 107.821 121.664 107.821 121.714 107.87C121.763 107.92 121.813 107.969 121.862 108.019C121.912 108.068 121.961 108.118 121.961 108.217C122.011 108.266 122.011 108.365 122.011 108.414C122.011 108.414 122.011 108.414 122.011 108.464C122.011 108.513 122.011 108.513 122.011 108.513C121.961 108.761 121.862 109.008 121.763 109.255C121.664 109.503 121.516 109.75 121.368 109.948C121.219 110.145 121.021 110.343 120.774 110.492C120.527 110.64 120.28 110.69 119.983 110.69C119.736 110.69 119.538 110.64 119.34 110.541C119.142 110.442 118.994 110.294 118.895 110.145C118.746 110.294 118.598 110.442 118.4 110.541C118.202 110.64 117.955 110.69 117.708 110.69C117.46 110.69 117.213 110.64 117.015 110.541C116.817 110.442 116.62 110.294 116.521 110.096C116.372 109.898 116.273 109.7 116.224 109.453C116.174 109.206 116.125 108.909 116.125 108.612C116.125 108.019 116.224 107.524 116.422 107.079C116.62 106.634 116.867 106.238 117.164 105.892C117.46 105.546 117.807 105.299 118.202 105.15C118.598 105.002 118.994 104.903 119.439 104.903C119.637 104.903 119.785 104.952 119.884 105.051C119.983 105.15 120.082 105.299 120.082 105.496C120.082 105.595 120.082 105.694 120.032 105.744C119.983 105.793 119.983 105.793 119.884 105.793C119.834 105.793 119.736 105.793 119.686 105.793C119.637 105.793 119.538 105.793 119.488 105.793C119.241 105.793 118.944 105.843 118.697 105.941C118.45 106.04 118.202 106.238 117.955 106.486C117.757 106.733 117.559 107.03 117.411 107.376C117.263 107.722 117.213 108.167 117.213 108.662C117.213 109.008 117.263 109.305 117.411 109.503C117.559 109.7 117.757 109.799 118.004 109.799C118.202 109.799 118.351 109.75 118.499 109.601C118.647 109.453 118.746 109.305 118.796 109.107V106.98C118.796 106.931 118.796 106.832 118.796 106.832C118.796 106.782 118.796 106.733 118.796 106.733C118.796 106.683 118.796 106.683 118.796 106.634V106.584C118.796 106.535 118.845 106.436 118.895 106.436C118.944 106.387 119.043 106.387 119.142 106.387C119.389 106.387 119.538 106.436 119.686 106.584C119.834 106.683 119.884 106.832 119.884 107.03V109.305C119.884 109.404 119.884 109.453 119.933 109.552C119.933 109.651 119.983 109.7 120.032 109.75C120.082 109.799 120.131 109.849 120.181 109.898C120.181 109.7 120.23 109.75 120.329 109.75Z" fill="#313E96"/>
<path d="M126.214 108.266C126.264 108.118 126.313 108.019 126.362 107.969C126.412 107.92 126.461 107.87 126.56 107.87C126.61 107.87 126.659 107.87 126.709 107.92C126.758 107.969 126.808 108.019 126.857 108.068C126.906 108.118 126.956 108.167 126.956 108.266C127.005 108.315 127.005 108.414 127.005 108.464V108.513C127.005 108.513 127.005 108.563 127.005 108.612C126.906 109.008 126.758 109.354 126.61 109.7C126.461 109.997 126.264 110.294 126.115 110.541C125.917 110.788 125.769 110.986 125.571 111.184C125.373 111.382 125.175 111.53 125.027 111.728V114.102C125.027 114.448 124.978 114.795 124.879 115.042C124.78 115.289 124.681 115.487 124.532 115.635C124.384 115.784 124.236 115.883 124.087 115.982C123.939 116.031 123.741 116.08 123.543 116.08C123.345 116.08 123.148 116.031 122.999 115.932C122.851 115.833 122.702 115.734 122.554 115.586C122.455 115.438 122.356 115.289 122.257 115.091C122.208 114.893 122.158 114.696 122.158 114.448C122.158 114.102 122.208 113.805 122.307 113.509C122.406 113.261 122.505 113.014 122.702 112.767C122.851 112.519 123.049 112.322 123.247 112.124C123.444 111.926 123.692 111.728 123.889 111.53V109.75C123.741 110.046 123.543 110.244 123.296 110.442C123.098 110.64 122.801 110.689 122.505 110.689C122.257 110.689 122.059 110.64 121.911 110.541C121.763 110.442 121.565 110.294 121.466 110.145C121.318 109.948 121.268 109.75 121.169 109.502C121.12 109.255 121.07 108.958 121.07 108.662C121.07 108.315 121.12 107.92 121.169 107.574C121.219 107.227 121.268 106.881 121.318 106.584C121.367 106.238 121.466 105.892 121.565 105.595C121.565 105.546 121.614 105.496 121.614 105.397C121.614 105.348 121.664 105.298 121.713 105.249C121.763 105.2 121.812 105.15 121.911 105.15C122.01 105.101 122.158 105.101 122.307 105.101C122.455 105.101 122.604 105.15 122.653 105.2C122.702 105.249 122.702 105.348 122.702 105.397C122.702 105.496 122.653 105.546 122.604 105.645C122.554 105.744 122.554 105.793 122.505 105.842C122.455 106.09 122.406 106.337 122.356 106.535C122.307 106.733 122.257 106.98 122.208 107.178C122.158 107.376 122.158 107.623 122.109 107.87C122.109 108.118 122.059 108.365 122.059 108.662C122.059 109.057 122.109 109.305 122.208 109.502C122.307 109.7 122.455 109.799 122.653 109.799C122.801 109.799 122.9 109.75 123.049 109.651C123.148 109.552 123.296 109.404 123.395 109.255C123.494 109.057 123.593 108.859 123.642 108.662C123.692 108.414 123.791 108.217 123.791 107.969V105.744C123.791 105.595 123.791 105.496 123.741 105.447C123.741 105.397 123.692 105.348 123.692 105.298C123.692 105.249 123.741 105.2 123.791 105.15C123.84 105.101 123.939 105.101 124.038 105.101C124.285 105.101 124.434 105.15 124.582 105.298C124.73 105.397 124.78 105.546 124.78 105.744V110.591C125.027 110.294 125.274 109.997 125.472 109.651C125.917 109.156 126.066 108.711 126.214 108.266ZM123.543 115.091C123.642 115.091 123.741 115.042 123.791 114.943C123.84 114.844 123.889 114.745 123.889 114.646C123.889 114.547 123.939 114.399 123.939 114.3C123.939 114.201 123.939 114.102 123.939 114.003V112.519C123.692 112.767 123.543 113.014 123.395 113.261C123.247 113.558 123.197 113.904 123.197 114.3C123.197 114.498 123.247 114.696 123.296 114.844C123.345 115.042 123.444 115.091 123.543 115.091Z" fill="#313E96"/>
<path d="M54.8533 52.0801V71.468C54.8533 72.9023 54.9027 74.485 55.0017 75.6226H52.4298L52.2814 72.8529H52.1825C51.2922 74.6334 49.3633 75.9688 46.742 75.9688C42.8347 75.9688 39.8672 72.7045 39.8672 67.8081C39.8672 62.4665 43.1809 59.2022 47.0882 59.2022C49.5612 59.2022 51.1933 60.3397 51.9352 61.6257H51.9847V52.0801H54.8533ZM51.9847 66.077C51.9847 65.6813 51.9352 65.2362 51.8857 64.8405C51.4406 63.0105 49.8579 61.4773 47.6817 61.4773C44.6647 61.4773 42.8347 64.1481 42.8347 67.6597C42.8347 70.924 44.4669 73.5948 47.5828 73.5948C49.5117 73.5948 51.2922 72.2594 51.8363 70.0832C51.9352 69.6875 51.9847 69.2918 51.9847 68.8467V66.077Z" fill="#63BCBA"/>
<path d="M92.0922 75.623L91.8449 73.5952H91.746C90.8558 74.8317 89.1247 75.9693 86.8496 75.9693C83.6347 75.9693 81.9531 73.6941 81.9531 71.3696C81.9531 67.5118 85.4153 65.3356 91.5976 65.385V65.0388C91.5976 63.7529 91.2514 61.3294 87.9377 61.3294C86.4539 61.3294 84.8712 61.7745 83.7831 62.5164L83.1401 60.5875C84.4755 59.7467 86.4044 59.2026 88.4323 59.2026C93.3287 59.2026 94.5157 62.5659 94.5157 65.7807V71.7652C94.5157 73.1501 94.5652 74.4855 94.763 75.623H92.0922ZM91.6471 67.4128C88.4817 67.3634 84.8712 67.9074 84.8712 71.0234C84.8712 72.9523 86.1077 73.7931 87.5915 73.7931C89.7182 73.7931 91.0536 72.4577 91.4987 71.1223C91.5976 70.8255 91.6471 70.4793 91.6471 70.1825V67.4128Z" fill="#63BCBA"/>
<path d="M105.201 54.9985V59.5982H109.405V61.8239H105.201V70.4792C105.201 72.4576 105.794 73.5951 107.427 73.5951C108.168 73.5951 108.713 73.4962 109.108 73.3973L109.257 75.623C108.713 75.8703 107.773 76.0186 106.635 76.0186C105.3 76.0186 104.162 75.5735 103.47 74.7822C102.679 73.8919 102.332 72.507 102.332 70.5781V61.8239H99.8594V59.5982H102.332V55.7404L105.201 54.9985Z" fill="#63BCBA"/>
<path d="M115.391 64.9397C115.391 63.0603 115.341 61.4281 115.242 59.9444H117.814L117.913 63.1097H118.012C118.754 60.983 120.534 59.5981 122.463 59.5981C122.76 59.5981 123.007 59.5981 123.255 59.6971V62.4173C122.958 62.3678 122.661 62.3184 122.265 62.3184C120.188 62.3184 118.754 63.8516 118.358 66.0278C118.259 66.4235 118.259 66.9181 118.259 67.4127V75.9691H115.341V64.9397H115.391Z" fill="#63BCBA"/>
<path d="M132.306 55.3939C132.306 56.3831 131.613 57.2239 130.476 57.2239C129.437 57.2239 128.695 56.3831 128.695 55.3939C128.695 54.4048 129.437 53.564 130.525 53.564C131.564 53.6134 132.306 54.4048 132.306 55.3939ZM129.042 75.9689V59.9442H131.96V75.9689H129.042Z" fill="#63BCBA"/>
<path d="M150.901 75.0295C150.159 75.4252 148.478 75.9693 146.301 75.9693C141.454 75.9693 138.289 72.6555 138.289 67.7591C138.289 62.8131 141.652 59.2026 146.895 59.2026C148.626 59.2026 150.159 59.6478 150.951 60.0434L150.308 62.2691C149.615 61.8734 148.527 61.4778 146.895 61.4778C143.235 61.4778 141.257 64.198 141.257 67.5612C141.257 71.2706 143.631 73.5458 146.845 73.5458C148.478 73.5458 149.566 73.1501 150.407 72.7544L150.901 75.0295Z" fill="#63BCBA"/>
<path d="M70.3284 28.5871C73.5516 28.5871 76.1645 26.107 76.1645 23.0477C76.1645 19.9884 73.5516 17.5083 70.3284 17.5083C67.1051 17.5083 64.4922 19.9884 64.4922 23.0477C64.4922 26.107 67.1051 28.5871 70.3284 28.5871Z" fill="#48545E"/>
<path d="M50.3993 16.0247C52.803 16.0247 54.7517 14.1867 54.7517 11.9196C54.7517 9.65237 52.803 7.81445 50.3993 7.81445C47.9955 7.81445 46.0469 9.65237 46.0469 11.9196C46.0469 14.1867 47.9955 16.0247 50.3993 16.0247Z" fill="#48545E"/>
<path d="M91.2984 16.8658C92.7188 16.8658 93.8703 15.7586 93.8703 14.3929C93.8703 13.0271 92.7188 11.9199 91.2984 11.9199C89.878 11.9199 88.7266 13.0271 88.7266 14.3929C88.7266 15.7586 89.878 16.8658 91.2984 16.8658Z" fill="#48545E"/>
<path d="M50.9391 35.5611C52.3595 35.5611 53.5109 34.454 53.5109 33.0882C53.5109 31.7224 52.3595 30.6152 50.9391 30.6152C49.5187 30.6152 48.3672 31.7224 48.3672 33.0882C48.3672 34.454 49.5187 35.5611 50.9391 35.5611Z" fill="#48545E"/>
<path d="M71.3652 9.2983C74.0694 9.2983 76.2616 7.2168 76.2616 4.64915C76.2616 2.0815 74.0694 0 71.3652 0C68.661 0 66.4688 2.0815 66.4688 4.64915C66.4688 7.2168 68.661 9.2983 71.3652 9.2983Z" fill="#263B77"/>
<path d="M87.5927 35.6103C89.0677 35.6103 90.2635 34.4809 90.2635 33.0878C90.2635 31.6948 89.0677 30.5654 87.5927 30.5654C86.1176 30.5654 84.9219 31.6948 84.9219 33.0878C84.9219 34.4809 86.1176 35.6103 87.5927 35.6103Z" fill="#263B77"/>
<path d="M58.3087 25.966C60.0022 25.966 61.3751 24.6596 61.3751 23.048C61.3751 21.4364 60.0022 20.1299 58.3087 20.1299C56.6151 20.1299 55.2422 21.4364 55.2422 23.048C55.2422 24.6596 56.6151 25.966 58.3087 25.966Z" fill="#263B77"/>
<path d="M81.3106 16.2717C83.851 16.2717 85.9103 14.3231 85.9103 11.9193C85.9103 9.51553 83.851 7.56689 81.3106 7.56689C78.7703 7.56689 76.7109 9.51553 76.7109 11.9193C76.7109 14.3231 78.7703 16.2717 81.3106 16.2717Z" fill="#72BFC0"/>
<path d="M62.3184 17.6076C64.8588 17.6076 66.9181 15.659 66.9181 13.2552C66.9181 10.8515 64.8588 8.90283 62.3184 8.90283C59.7781 8.90283 57.7188 10.8515 57.7188 13.2552C57.7188 15.659 59.7781 17.6076 62.3184 17.6076Z" fill="#72BFC0"/>
<path d="M94.2169 28.6862C96.7572 28.6862 98.8166 26.7376 98.8166 24.3338C98.8166 21.9301 96.7572 19.9814 94.2169 19.9814C91.6765 19.9814 89.6172 21.9301 89.6172 24.3338C89.6172 26.7376 91.6765 28.6862 94.2169 28.6862Z" fill="#72BFC0"/>
<path d="M82.8942 26.7572C85.0795 26.7572 86.8509 25.0965 86.8509 23.0478C86.8509 20.9991 85.0795 19.3384 82.8942 19.3384C80.709 19.3384 78.9375 20.9991 78.9375 23.0478C78.9375 25.0965 80.709 26.7572 82.8942 26.7572Z" fill="#72BFC0"/>
<path d="M47.433 26.6585C50.028 26.6585 52.1316 24.6656 52.1316 22.2072C52.1316 19.7488 50.028 17.7559 47.433 17.7559C44.838 17.7559 42.7344 19.7488 42.7344 22.2072C42.7344 24.6656 44.838 26.6585 47.433 26.6585Z" fill="#72BFC0"/>
<path d="M63.8028 40.1114V38.8255C63.8028 38.8255 62.7641 36.6493 63.8028 34.9677C64.8414 33.2861 64.0995 33.6323 64.4458 33.0388C64.7425 32.4453 65.6822 31.555 66.8198 31.8518C67.9574 32.1485 69.8368 32.198 70.3314 33.0388C70.9249 34.028 71.2216 34.8193 71.37 36.3525C71.4689 37.4406 71.5679 38.3803 70.9744 39.1222C70.6776 39.5179 70.3808 39.5674 69.9357 40.1114C69.4906 40.6555 69.2927 41.249 69.1938 41.6941C69.1938 41.9909 69.1938 42.3865 69.4411 42.5349C69.9357 42.7822 70.9249 42.0898 71.37 41.5952C73.1506 39.8147 79.3824 33.6323 79.3824 33.6323L81.9543 31.1593C81.9543 31.1593 82.3499 31.011 82.4488 31.1593C82.4488 31.2088 82.4983 31.2582 82.3994 31.6045C82.251 32.0001 82.0532 32.3463 82.0532 32.3463H83.3886V35.215L81.3113 34.9182C81.3113 34.9182 80.3716 34.8193 80.2727 35.1161C80.1737 35.4128 72.0624 44.9584 72.0624 44.9584C72.0624 44.9584 69.1444 50.3494 71.3206 56.5813L72.2603 57.9661L74.3376 63.4561L75.3762 64.1485L78.8878 72.2103L78.591 72.7049L79.8275 73.6941L81.2618 74.1887C81.3113 74.2382 81.707 74.6338 81.707 75.1779C81.6575 75.623 81.3608 75.9198 81.2618 76.0187C81.2124 76.0681 80.8167 76.4143 80.3221 76.3649C79.877 76.3649 79.6297 76.0681 79.1846 75.7219C78.7889 75.4252 78.2448 74.98 77.5524 74.5844C77.3051 74.3371 77.0578 74.0403 76.8105 73.793L74.0903 74.3865L68.996 62.5658C68.996 62.5658 67.8584 61.8734 67.2649 63.0604L65.8306 65.7312L64.6931 69.4901V71.6663L63.8523 72.7544L63.7533 75.1284C63.6544 75.4252 63.4566 75.8208 63.1104 75.9692C62.5169 76.2165 61.9728 75.5241 61.132 75.623C60.7363 75.6725 60.2417 75.8703 59.6977 76.6122C59.4009 76.7111 58.7085 76.8595 57.8677 76.6122C57.3731 76.4638 56.9774 76.2165 56.7796 76.0187C56.7301 75.6725 56.6312 75.3263 56.5818 74.98L58.2634 74.3865C58.2634 74.3865 58.9558 72.5071 59.5988 72.2103C60.2417 71.9136 60.1428 65.2366 60.1428 65.2366L61.2309 63.3572L62.2696 61.181V59.1037V57.8178C62.5169 57.1253 62.7147 56.4824 62.962 55.7899C62.8136 54.3062 62.6652 52.7729 62.5663 51.1902C62.4179 48.8657 62.319 46.5906 62.319 44.4638C62.319 44.0681 62.319 43.4746 62.1212 42.7822C61.7255 41.1501 60.7858 40.1114 60.4396 39.7157C59.4504 38.5287 58.0655 36.5009 56.0377 32.742C55.741 31.9012 55.5926 31.7528 55.4937 31.7528C55.3947 31.7528 55.2958 31.7528 55.1969 31.7528C54.455 31.9507 55.1969 28.1918 55.1969 28.1918C55.2464 28.1423 55.4442 27.994 55.741 27.9445C56.1366 27.895 56.3839 28.1423 56.4334 28.1918C56.5323 28.9337 56.6312 29.6261 56.7301 30.368L63.8028 40.1114Z" fill="#63BCBA"/>
</svg>
