<svg width="50" height="48" viewBox="0 0 50 48" fill="none" xmlns="http://www.w3.org/2000/svg">
<path d="M41.4551 0.0458984H8.72461C4.2319 0.0458984 0.589844 3.68796 0.589844 8.18066V39.6861C0.589844 44.1788 4.2319 47.8209 8.72461 47.8209H41.4551C45.9478 47.8209 49.5898 44.1788 49.5898 39.6861V8.18066C49.5898 3.68796 45.9478 0.0458984 41.4551 0.0458984Z" fill="#001E36"/>
<path d="M11.623 33.5485V12.544C11.623 12.3907 11.6888 12.314 11.8204 12.3139L12.0284 12.3133L12.3841 12.3095L12.8783 12.2997L14.534 12.2647L16.3092 12.2318C16.9336 12.2209 17.5526 12.2155 18.1663 12.2153C19.8315 12.2153 21.234 12.4235 22.3738 12.8399C23.402 13.1874 24.3398 13.7601 25.1185 14.5162C25.7788 15.1715 26.2891 15.9622 26.6142 16.8338C26.9216 17.682 27.0774 18.5776 27.0745 19.4798C27.0745 21.2332 26.669 22.6795 25.8581 23.8188C25.0651 24.9302 23.9589 25.7802 22.6808 26.2603L22.5711 26.3005C21.2364 26.7984 19.7584 26.9783 18.1374 26.9896L17.8855 26.9904L17.5117 26.9884L17.3231 26.9858L17.113 26.9808L16.9862 26.9758L16.9093 26.9718L16.72 26.9649L16.4886 26.9601L16.1402 26.9576L16.0627 26.9574V33.5156C16.0685 33.5558 16.0648 33.5968 16.052 33.6353C16.0391 33.6738 16.0175 33.7089 15.9888 33.7376C15.9601 33.7663 15.9251 33.7879 15.8865 33.8008C15.848 33.8136 15.807 33.8173 15.7668 33.8115H11.8533C11.6997 33.8116 11.6229 33.724 11.623 33.5485ZM16.0629 16.2584V23.1092C16.3475 23.1313 16.6103 23.1423 16.8515 23.1421H17.9364C18.6844 23.1396 19.428 23.0282 20.1439 22.8116L20.2867 22.767C20.938 22.5737 21.52 22.1971 21.9632 21.6821C22.3751 21.1963 22.5885 20.5269 22.6033 19.6739L22.6042 19.5783C22.6214 18.9425 22.4561 18.3151 22.1274 17.7705C21.7822 17.2437 21.2829 16.8362 20.6976 16.6035C19.9336 16.3064 19.1173 16.1667 18.298 16.1928L17.8811 16.1939L17.6181 16.1962L17.3671 16.1995L17.013 16.2063L16.7546 16.2136L16.6205 16.2186L16.4411 16.227L16.2884 16.2364L16.2013 16.2433L16.1261 16.2506L16.093 16.2544L16.0629 16.2584ZM39.7839 21.8635C39.2104 21.569 38.6022 21.3476 37.9736 21.2047L37.8281 21.1733C37.1364 21.0147 36.4304 20.9272 35.7209 20.9124L35.5437 20.9103C35.1277 20.899 34.7124 20.9489 34.311 21.0583C34.0555 21.1153 33.8284 21.2608 33.6698 21.4691C33.5626 21.6358 33.5056 21.8298 33.5056 22.028C33.5116 22.2202 33.5809 22.405 33.7027 22.5538C33.8772 22.7578 34.0869 22.9287 34.3219 23.0585L34.3931 23.0962C34.8618 23.3485 35.3447 23.5735 35.8394 23.77C36.9425 24.1395 37.9966 24.6417 38.9784 25.2656C39.6474 25.6878 40.2009 26.2695 40.5893 26.9586C40.9157 27.611 41.0792 28.3328 41.0659 29.0621C41.0854 30.0254 40.8101 30.9717 40.2769 31.7742C39.706 32.5887 38.913 33.2219 37.9923 33.5983C37.0281 34.0219 35.8442 34.2409 34.4404 34.2552L34.2945 34.256C33.4243 34.2646 32.5553 34.1884 31.6998 34.0286L31.5169 33.993C30.7966 33.8609 30.0955 33.64 29.4296 33.3355C29.3626 33.301 29.306 33.2493 29.2656 33.1857C29.2251 33.1222 29.2023 33.049 29.1995 32.9737V29.391C29.1956 29.3562 29.2011 29.321 29.2156 29.2892C29.2301 29.2573 29.253 29.23 29.2818 29.2101C29.31 29.1941 29.3424 29.1871 29.3747 29.19C29.407 29.1929 29.4377 29.2057 29.4625 29.2266C30.2489 29.6902 31.1028 30.0285 31.9935 30.2291C32.7785 30.426 33.5838 30.5308 34.3931 30.5415C35.1599 30.5415 35.7242 30.4429 36.0859 30.2456C36.2492 30.1707 36.3873 30.0502 36.4836 29.8985C36.5798 29.7469 36.6301 29.5706 36.6284 29.391C36.6284 29.1064 36.464 28.8325 36.1353 28.5693C35.9975 28.459 35.7999 28.3391 35.5425 28.2094L35.4194 28.1489L35.2881 28.0871L35.2192 28.0557L35.0749 27.9918L34.9997 27.9593L34.8427 27.8934L34.761 27.8599L34.5914 27.792L34.5034 27.7575L34.321 27.6873L34.1301 27.6159C33.0978 27.2569 32.1192 26.7593 31.2209 26.1367C30.5784 25.6899 30.0493 25.0989 29.6761 24.411C29.353 23.7632 29.1896 23.0475 29.1995 22.3237C29.1975 21.4539 29.4364 20.6006 29.8897 19.8584C30.4065 19.0411 31.1484 18.3903 32.0264 17.9849C32.9904 17.5031 34.1957 17.2619 35.642 17.2616C36.4892 17.2548 37.3356 17.3152 38.1732 17.4424C38.7797 17.5195 39.3727 17.6798 39.9353 17.919C40.0258 17.9451 40.0987 18.0119 40.1324 18.0999C40.1548 18.1801 40.1657 18.263 40.1654 18.3465V21.6664C40.1701 21.7449 40.1324 21.8201 40.0668 21.8635C40.0228 21.8854 39.9744 21.8968 39.9253 21.8968C39.8762 21.8968 39.8278 21.8854 39.7839 21.8635Z" fill="#31A8FF"/>
</svg>
