<svg width="61" height="61" viewBox="0 0 61 61" fill="none" xmlns="http://www.w3.org/2000/svg">
<path d="M0 30.4344C0 39.1878 13.4902 46.2846 30.1309 46.2846C46.7716 46.2846 60.2617 39.1878 60.2617 30.4344C60.2617 21.6809 46.7711 14.5841 30.1309 14.5841C13.4906 14.5841 0 21.6809 0 30.4344Z" fill="url(#paint0_radial_1131_9078)"/>
<path d="M30.1316 45.1076C46.1221 45.1076 59.0855 38.5377 59.0855 30.4344C59.0855 22.3301 46.1221 15.7611 30.1316 15.7611C14.1411 15.7611 1.17773 22.3301 1.17773 30.4344C1.17773 38.5377 14.1411 45.1076 30.1316 45.1076Z" fill="#777BB3"/>
<path d="M16.3635 32.254C17.6784 32.254 18.6595 32.0115 19.2805 31.5337C19.8954 31.0601 20.3196 30.2404 20.5423 29.0973C20.7494 28.0286 20.6703 27.2829 20.3069 26.8799C19.9359 26.4684 19.1332 26.2598 17.9213 26.2598H15.8197L14.6554 32.254H16.3635ZM9.49035 39.6375C9.44213 39.6374 9.39453 39.6267 9.35095 39.606C9.30737 39.5854 9.2689 39.5554 9.2383 39.5181C9.2077 39.4808 9.18572 39.4373 9.17395 39.3905C9.16218 39.3437 9.1609 39.295 9.17021 39.2476L12.2572 23.364C12.2718 23.2897 12.3117 23.2228 12.37 23.1747C12.4284 23.1265 12.5017 23.1001 12.5774 23.0999H19.2316C21.3228 23.0999 22.8793 23.6676 23.8581 24.7877C24.8411 25.9129 25.1452 27.4872 24.7606 29.465C24.6038 30.2705 24.3345 31.0186 23.9602 31.689C23.5707 32.3787 23.0736 33.0017 22.4876 33.5345C21.7668 34.2087 20.9509 34.6984 20.0644 34.986C19.1925 35.2704 18.072 35.4144 16.7359 35.4144H14.0411L13.2718 39.3729C13.2572 39.4474 13.2173 39.5145 13.1587 39.5628C13.1001 39.611 13.0266 39.6374 12.9507 39.6375H9.49035Z" fill="black"/>
<path d="M16.0964 26.5862H17.9283C19.391 26.5862 19.899 26.9073 20.0718 27.0989C20.3576 27.4163 20.4122 28.0862 20.2276 29.0349C20.0209 30.0974 19.6377 30.8512 19.0883 31.2739C18.5262 31.7071 17.6109 31.9265 16.3704 31.9265H15.0588L16.0964 26.5862ZM19.2385 22.7728H12.5847C12.433 22.7728 12.286 22.8256 12.1688 22.922C12.0517 23.0185 11.9717 23.1526 11.9426 23.3015L8.85557 39.1857C8.83734 39.2803 8.84023 39.3777 8.86403 39.4711C8.88783 39.5645 8.93196 39.6514 8.99326 39.7258C9.05456 39.8001 9.13152 39.86 9.21864 39.9012C9.30577 39.9423 9.40091 39.9637 9.49726 39.9639H12.9576C13.1093 39.9637 13.2563 39.9109 13.3733 39.8144C13.4904 39.7178 13.5703 39.5836 13.5993 39.4347L14.3173 35.7409H16.7423C18.1133 35.7409 19.2677 35.5911 20.173 35.2964C21.1038 34.9942 21.9601 34.4815 22.7181 33.7725C23.3286 33.2167 23.8465 32.5672 24.2524 31.8483C24.6437 31.1482 24.9252 30.3667 25.0881 29.5268C25.493 27.4445 25.1639 25.7774 24.1107 24.5722C23.0674 23.3778 21.4281 22.7723 19.2385 22.7723V22.7728ZM14.2655 32.5799H16.3704C17.7655 32.5802 18.8044 32.3174 19.4871 31.7914C20.1697 31.2659 20.6308 30.3885 20.8703 29.1591C21.0987 27.9784 20.9944 27.1454 20.5572 26.6602C20.1193 26.1749 19.243 25.9323 17.9283 25.9323H15.5573L14.2655 32.5799ZM19.2389 23.4253C21.2408 23.4253 22.7007 23.9507 23.6188 25.0016C24.5368 26.0524 24.813 27.519 24.4473 29.4016C24.2961 30.1775 24.0411 30.8865 23.6823 31.5286C23.3229 32.1714 22.8536 32.7595 22.2742 33.2927C21.5837 33.9393 20.816 34.3999 19.971 34.6745C19.1264 34.9494 18.0503 35.0868 16.7428 35.0864H13.7787L12.9581 39.3095H9.49773L12.5852 23.4253H19.2389Z" fill="white"/>
<path d="M32.7066 35.4141C32.6583 35.4141 32.6106 35.4035 32.567 35.383C32.5233 35.3624 32.4848 35.3324 32.4541 35.2952C32.4234 35.258 32.4013 35.2144 32.3894 35.1677C32.3776 35.1209 32.3762 35.0721 32.3855 35.0247L33.7508 27.9967C33.8812 27.3282 33.8492 26.8489 33.6613 26.6455C33.546 26.5217 33.2004 26.3141 32.1783 26.3141H29.7038L27.9873 35.15C27.9726 35.2244 27.9325 35.2913 27.8738 35.3394C27.8151 35.3875 27.7416 35.4137 27.6658 35.4136H24.2337C24.1855 35.4136 24.1378 35.403 24.0942 35.3825C24.0506 35.362 24.012 35.3321 23.9813 35.2949C23.9506 35.2577 23.9284 35.2143 23.9165 35.1676C23.9045 35.1208 23.903 35.0721 23.9121 35.0247L26.9996 19.1406C27.0142 19.0662 27.0542 18.9991 27.1128 18.951C27.1714 18.9028 27.2448 18.8765 27.3207 18.8765H30.7528C30.801 18.8764 30.8486 18.8871 30.8922 18.9076C30.9359 18.9281 30.9744 18.958 31.0051 18.9952C31.0359 19.0323 31.058 19.0758 31.07 19.1225C31.0819 19.1692 31.0834 19.218 31.0743 19.2653L30.3295 23.0995H32.9909C35.0186 23.0995 36.3934 23.4564 37.1942 24.1922C38.0101 24.9422 38.2652 26.1413 37.9512 27.7575L36.5148 35.15C36.5001 35.2243 36.46 35.2912 36.4015 35.3393C36.3429 35.3874 36.2695 35.4136 36.1937 35.4136L32.7066 35.4141Z" fill="black"/>
<path d="M30.742 18.55H27.3094C27.1576 18.5501 27.0106 18.6029 26.8934 18.6994C26.7763 18.796 26.6963 18.9302 26.6673 19.0792L23.5803 34.9629C23.562 35.0575 23.5648 35.1551 23.5886 35.2485C23.6123 35.3419 23.6564 35.429 23.7177 35.5034C23.7791 35.5778 23.856 35.6377 23.9432 35.6789C24.0304 35.7201 24.1256 35.7415 24.222 35.7416H27.6545C27.8063 35.7416 27.9534 35.6887 28.0705 35.5922C28.1877 35.4957 28.2676 35.3614 28.2967 35.2124L29.9619 26.6416H32.1662C33.1868 26.6416 33.4015 26.8596 33.4095 26.8695C33.4717 26.9354 33.5531 27.2437 33.4185 27.9353L32.0532 34.9629C32.0348 35.0576 32.0377 35.1551 32.0615 35.2486C32.0853 35.3421 32.1294 35.4291 32.1908 35.5035C32.2521 35.5779 32.3292 35.6379 32.4164 35.679C32.5036 35.7202 32.5989 35.7415 32.6953 35.7416H36.183C36.3347 35.7414 36.4817 35.6886 36.5987 35.5921C36.7158 35.4955 36.7956 35.3613 36.8247 35.2124L38.2611 27.8209C38.5977 26.0856 38.3096 24.7843 37.4042 23.9524C36.5398 23.1587 35.0926 22.7731 32.9797 22.7731H30.7152L31.3842 19.3292C31.4026 19.2345 31.3998 19.1369 31.376 19.0433C31.3523 18.9498 31.3081 18.8627 31.2468 18.7883C31.1854 18.7138 31.1083 18.6538 31.021 18.6126C30.9338 18.5715 30.8385 18.5501 30.742 18.55ZM30.742 19.2045L29.9214 23.4265H32.9797C34.904 23.4265 36.2312 23.7624 36.9612 24.434C37.6919 25.1051 37.9113 26.1926 37.6194 27.6966L36.1825 35.0877H32.6953L34.0611 28.0596C34.2165 27.2602 34.1592 26.715 33.8893 26.4241C33.6193 26.1335 33.0453 25.9881 32.1671 25.9881H29.4228L27.6545 35.0872H24.2215L27.309 19.203H30.742V19.2045Z" fill="white"/>
<path d="M43.3767 32.254C44.6916 32.254 45.6732 32.0115 46.2947 31.5337C46.9086 31.0601 47.3332 30.2404 47.5559 29.0973C47.7631 28.0286 47.6845 27.2829 47.3205 26.8799C46.9495 26.4684 46.1468 26.2598 44.935 26.2598H42.8339L41.6686 32.254H43.3767ZM36.505 39.6375C36.4567 39.6375 36.409 39.6269 36.3653 39.6063C36.3216 39.5857 36.283 39.5557 36.2523 39.5185C36.2216 39.4812 36.1995 39.4376 36.1877 39.3907C36.1759 39.3439 36.1746 39.295 36.1839 39.2476L39.2709 23.364C39.2855 23.2896 39.3255 23.2225 39.3841 23.1744C39.4427 23.1262 39.5161 23.0998 39.592 23.0999H46.2457C48.337 23.0999 49.8934 23.6676 50.8717 24.7877C51.8552 25.9129 52.1589 27.4872 51.7742 29.465C51.6271 30.244 51.3571 30.9947 50.9744 31.689C50.5849 32.3787 50.0877 33.0017 49.5017 33.5345C48.7814 34.2087 47.9646 34.6984 47.0785 34.986C46.2066 35.2704 45.0861 35.4144 43.7496 35.4144H41.0552L40.2864 39.3729C40.2718 39.4474 40.2318 39.5146 40.1731 39.5629C40.1145 39.6112 40.0408 39.6375 39.9648 39.6375H36.505Z" fill="black"/>
<path d="M43.1062 26.5862H44.938C46.4008 26.5862 46.9088 26.9073 47.0811 27.0989C47.3683 27.4163 47.4219 28.0862 47.2379 29.0349C47.0307 30.0974 46.6475 30.8512 46.0981 31.2739C45.5355 31.7071 44.6202 31.9265 43.3802 31.9265H42.0685L43.1062 26.5862ZM46.2482 22.7728H39.5945C39.4428 22.7729 39.2959 22.8257 39.1789 22.9222C39.0619 23.0186 38.9819 23.1527 38.9528 23.3015L35.8653 39.1857C35.8471 39.2803 35.85 39.3778 35.8738 39.4712C35.8976 39.5646 35.9418 39.6516 36.0032 39.726C36.0645 39.8003 36.1415 39.8602 36.2287 39.9013C36.3159 39.9425 36.4111 39.9638 36.5075 39.9639H39.9678C40.1196 39.9637 40.2665 39.9109 40.3836 39.8144C40.5006 39.7178 40.5805 39.5836 40.6095 39.4347L41.3275 35.7409H43.7521C45.1226 35.7409 46.2774 35.5911 47.1823 35.2964C48.1135 34.9942 48.9699 34.4815 49.7284 33.772C50.3386 33.2163 50.8564 32.567 51.2622 31.8483C51.6539 31.1482 51.9345 30.3667 52.0979 29.5268C52.5027 27.4445 52.1741 25.7774 51.1205 24.5722C50.0772 23.3778 48.4384 22.7723 46.2478 22.7723L46.2482 22.7728ZM41.2752 32.5799H43.3797C44.7748 32.5802 45.814 32.3174 46.4973 31.7914C47.1799 31.2659 47.6407 30.3885 47.8795 29.1591C48.109 27.9784 48.0046 27.1454 47.5665 26.6602C47.1283 26.1749 46.2522 25.9323 44.938 25.9323H42.5676L41.2752 32.5799ZM46.2482 23.4253C48.2501 23.4253 49.71 23.9507 50.628 25.0016C51.5461 26.0524 51.8221 27.519 51.4562 29.4016C51.3055 30.1775 51.0507 30.8865 50.6916 31.5286C50.3325 32.1714 49.863 32.7595 49.283 33.2927C48.5925 33.9393 47.8248 34.3999 46.9799 34.6745C46.1356 34.9494 45.0596 35.0868 43.7521 35.0864H40.7884L39.9669 39.3095H36.5066L39.594 23.4253H46.2482Z" fill="white"/>
<defs>
<radialGradient id="paint0_radial_1131_9078" cx="0" cy="0" r="1" gradientUnits="userSpaceOnUse" gradientTransform="translate(18.0908 20.1564) scale(39.5662)">
<stop stop-color="#AEB2D5"/>
<stop offset="0.3" stop-color="#AEB2D5"/>
<stop offset="0.75" stop-color="#484C89"/>
<stop offset="1" stop-color="#484C89"/>
</radialGradient>
</defs>
</svg>
