<svg width="70" height="73" viewBox="0 0 70 73" fill="none" xmlns="http://www.w3.org/2000/svg">
<path d="M69.8142 43.2368C69.5966 42.6033 69.2042 42.0443 68.6825 41.6243C68.1608 41.2042 67.5309 40.9403 66.8656 40.8629C66.0796 40.7684 65.283 40.8129 64.5124 40.9944C63.3205 41.2577 62.108 41.4172 60.8885 41.4712C64.1496 35.9694 66.6403 30.0461 68.2909 23.8672C70.7473 14.3589 69.4353 10.0288 67.9017 8.06737C65.8652 5.49082 63.2588 3.42175 60.2874 2.02281C57.316 0.623875 54.0606 -0.066797 50.7771 0.00508807C47.765 -0.0231323 44.7655 0.397307 41.8772 1.25258C40.1569 0.957638 38.416 0.799061 36.6707 0.778325C33.4984 0.657882 30.3563 1.43226 27.6032 3.01298C25.5154 2.30706 23.3744 1.76923 21.2008 1.40465C18.667 0.796789 16.0382 0.694253 13.4647 1.1029C10.8912 1.51154 8.42351 2.42335 6.2026 3.78622C1.7333 6.94102 -0.338979 12.4258 0.0450615 20.0886C0.732675 25.8052 1.94577 31.4462 3.66896 36.94C4.66138 40.3717 5.96765 43.7046 7.57123 46.8967C8.75551 49.8087 11.0068 52.1587 13.8654 53.4667C14.9132 53.8119 16.0343 53.8707 17.1124 53.6368C18.1905 53.403 19.1865 52.885 19.9971 52.1367C20.3651 52.5723 20.8001 52.9465 21.2859 53.245C22.0388 53.7123 22.8596 54.0601 23.719 54.276C26.5321 55.0596 29.5267 54.8781 32.2246 53.7605C32.2401 54.2013 32.2529 54.624 32.2607 54.99C32.2761 55.5802 32.2942 56.1601 32.3148 56.704C32.2842 59.579 32.667 62.4435 33.4515 65.2096C33.4927 65.3204 33.5468 65.4854 33.6035 65.6632C34.0563 67.3562 34.9357 68.9048 36.1578 70.1609C37.623 71.5063 39.5564 72.2251 41.5447 72.1635C42.3916 72.1582 43.2356 72.064 44.0629 71.8826C45.6311 71.6857 47.144 71.1767 48.5123 70.3857C49.8806 69.5946 51.0766 68.5375 52.0298 67.2767C54.1201 64.2997 55.1382 59.8175 55.3212 52.7527C55.3444 52.5517 55.3676 52.3609 55.3882 52.1805L55.432 51.8068L55.9243 51.8506H56.0506C58.8379 51.9687 61.618 51.487 64.2031 50.4382C65.8295 49.683 71.0437 46.9302 69.8142 43.2213" fill="black"/>
<path d="M65.1279 43.9585C56.9754 45.639 56.4161 42.8812 56.4161 42.8812C65.0222 30.1099 68.6203 13.8977 65.5145 9.93096C57.045 -0.894354 42.3818 4.22705 42.137 4.3585L42.0571 4.37397C40.2661 4.01453 38.4452 3.82467 36.6186 3.80693C33.5383 3.65237 30.4985 4.56247 28.0099 6.38438C28.0099 6.38438 1.8539 -4.39196 3.07046 19.9366C3.3282 25.1122 10.4884 59.0985 19.0275 48.8325C22.1488 45.0797 25.1644 41.9043 25.1644 41.9043C26.6832 42.9294 28.5105 43.3958 30.3348 43.224L30.4817 43.1002C30.4386 43.5879 30.4585 44.0791 30.541 44.5617C28.3398 47.0206 28.9945 47.451 24.5896 48.3557C20.1409 49.2733 22.7545 50.9048 24.4608 51.3326C26.2736 51.9191 28.2254 51.9178 30.0376 51.3291C31.8497 50.7403 33.4295 49.5941 34.5515 48.0541L34.4226 48.5696C35.2835 49.2604 35.8892 53.0595 35.7887 56.5056C35.5076 59.0686 35.6821 61.661 36.3042 64.1632C36.9846 66.0112 37.6599 70.1661 43.4411 68.9289C45.4969 68.7258 47.409 67.7831 48.8218 66.2759C50.2346 64.7688 51.052 62.7998 51.122 60.7352C51.3797 57.5546 51.9287 58.0237 51.9622 55.1808L52.4107 53.8354C52.9262 49.5233 52.4932 48.1314 55.4676 48.7784L56.1918 48.8428C58.493 48.9395 60.789 48.5532 62.9319 47.7087C66.5558 46.0282 68.7028 43.2188 65.1304 43.9585" fill="#336791"/>
<path d="M29.5418 22.2508C28.9506 22.1264 28.3343 22.2178 27.8046 22.5085C27.7356 22.5582 27.6772 22.6212 27.633 22.6938C27.5887 22.7664 27.5594 22.8471 27.5469 22.9312C27.5469 23.2285 27.654 23.5157 27.8484 23.7405C28.1943 24.2155 28.7107 24.5379 29.2892 24.6401C29.3661 24.6507 29.4436 24.6559 29.5212 24.6555C29.9041 24.6605 30.2793 24.5477 30.596 24.3324C30.9128 24.1172 31.1557 23.8098 31.2919 23.4519C31.3821 22.8126 30.4517 22.3848 29.5496 22.2585M53.8859 22.2791C53.8163 21.7765 52.9219 21.6348 52.0817 21.7636C51.2414 21.8925 50.4141 22.2637 50.4837 22.7663C50.6147 23.0816 50.8367 23.3507 51.1213 23.5394C51.4059 23.728 51.7402 23.8277 52.0817 23.8256C52.1533 23.8255 52.2247 23.8203 52.2956 23.8101C52.7426 23.7316 53.1512 23.5078 53.458 23.1735C53.7146 22.9482 53.8713 22.6302 53.8936 22.2894" fill="white"/>
<path d="M67.8407 43.7679C67.5288 42.8272 66.5288 42.5256 64.8663 42.8684C59.9305 43.8994 58.1649 43.1803 57.5824 42.755C61.491 36.7549 64.4252 30.174 66.2762 23.2565C67.0253 20.5203 67.4577 17.707 67.5649 14.8721C67.7635 12.8891 67.3024 10.8959 66.253 9.20166C64.3953 6.86376 62.0202 4.98919 59.3146 3.72564C56.609 2.46209 53.647 1.8441 50.6619 1.92035C47.5957 1.87237 44.544 2.35278 41.6408 3.34053C39.9804 2.93081 38.2785 2.71203 36.5684 2.68843C33.4917 2.55324 30.4506 3.39107 27.8772 5.08289C25.5866 4.24539 23.222 3.62577 20.815 3.23228C16.2138 2.11879 11.3591 2.86432 7.30398 5.30713C3.43779 8.04954 1.63357 12.9519 1.99184 19.8775C2.66887 25.4281 3.85345 30.9049 5.53069 36.2392C8.28856 45.2732 11.2861 50.3894 14.4409 51.4462C14.8488 51.5835 15.2761 51.654 15.7065 51.6549C16.5073 51.6053 17.2864 51.3739 17.9844 50.9782C18.6824 50.5825 19.2811 50.033 19.735 49.3713C21.5255 47.2234 23.377 45.1288 25.2895 43.0875C26.5189 43.7529 27.8872 44.121 29.2845 44.1623V44.2705C29.044 44.5558 28.8094 44.8462 28.5809 45.1417C27.6143 46.366 27.4159 46.6212 24.3074 47.263C23.4234 47.4459 21.0753 47.9305 21.0418 49.5827C21.0057 51.3869 23.8177 52.1369 24.1348 52.2168C25.1867 52.4873 26.2679 52.6276 27.354 52.6344C29.7295 52.6782 32.0328 51.8177 33.7976 50.227C33.5341 55.1322 33.8638 60.0512 34.7797 64.8773C35.2028 66.4223 36.1188 67.787 37.3883 68.7639C38.6579 69.7409 40.2116 70.2767 41.8135 70.2899C42.6082 70.2875 43.4005 70.2011 44.1771 70.0322C46.2974 69.8491 48.2826 68.9141 49.7742 67.396C51.2658 65.8779 52.1657 63.8767 52.3115 61.7534C52.7677 59.1089 53.5513 52.7967 53.9198 49.41C54.8513 49.666 55.8151 49.7849 56.7808 49.7631C59.0051 49.7791 61.2109 49.3588 63.2734 48.5259C65.1086 47.6728 68.4283 45.585 67.8175 43.7679H67.8407ZM55.7524 20.8827C55.7194 21.8396 55.6195 22.793 55.4534 23.7359C55.2618 24.844 55.1413 25.9632 55.0926 27.0866C55.0839 28.3542 55.17 29.6207 55.3503 30.8755C55.9071 33.4437 55.7019 36.1185 54.7601 38.5718C54.5601 38.217 54.3819 37.8503 54.2266 37.4738C54.0771 37.1104 53.7497 36.5253 53.3013 35.7185C51.5486 32.574 47.4401 25.2077 49.5433 22.2024C50.1696 21.308 51.7599 20.3981 55.7498 20.8827H55.7524ZM50.9145 3.95139C53.5528 3.89745 56.1676 4.45645 58.5532 5.5844C60.9388 6.71236 63.0302 8.37849 64.6627 10.4517C67.1757 13.6607 64.4049 28.2671 56.4019 40.8657L56.1596 40.559L56.0591 40.4327C57.6491 37.4283 58.1117 33.9542 57.3633 30.6384C57.191 29.4848 57.1049 28.32 57.1056 27.1536C57.1523 26.1114 57.2651 25.0732 57.4432 24.0452C57.6751 22.7761 57.7813 21.4871 57.7602 20.1971C57.8022 20.0199 57.8136 19.8368 57.7938 19.6558C56.9397 16.2044 55.2469 13.0172 52.8657 10.377C50.7259 7.85558 48.0497 5.84425 45.0328 4.49008C46.9649 4.0872 48.9361 3.90219 50.9094 3.9385L50.9145 3.95139ZM18.1937 48.0852C16.5777 50.0286 15.459 49.6574 15.1008 49.5337C12.7089 48.7347 9.9304 43.6777 7.4844 35.6567C5.86029 30.4792 4.70439 25.1664 4.03061 19.7821C3.72131 13.5962 5.22139 9.28157 8.48961 6.96186C13.8069 3.19104 22.5522 5.44889 26.0653 6.59328C26.0137 6.64225 25.9622 6.68865 25.9132 6.74019C20.1474 12.5627 20.284 22.5116 20.2995 23.1199C20.2995 23.3545 20.3176 23.687 20.3459 24.1509C20.5573 26.9225 20.4873 29.7083 20.1371 32.4658C19.8975 34.0446 20.0206 35.6574 20.4971 37.1815C20.9736 38.7057 21.791 40.1014 22.8873 41.2626C23.1158 41.4998 23.3547 41.7249 23.6038 41.9379C22.6166 42.9947 20.4696 45.335 18.1911 48.0852H18.1937ZM24.3538 39.8631C23.465 38.9233 22.8021 37.7932 22.4158 36.5587C22.0295 35.3242 21.9298 34.0178 22.1243 32.739C22.4938 29.8493 22.5689 26.9295 22.3486 24.0246C22.3331 23.7798 22.3202 23.5658 22.3125 23.3983C24.4716 21.7711 27.151 20.9891 29.8464 21.1997C30.4666 21.3403 31.0276 21.6704 31.4516 22.1443C31.8756 22.6182 32.1415 23.2123 32.2125 23.8442C33.8775 31.5482 32.4316 34.7571 31.2717 37.3372C31.032 37.8681 30.8052 38.3682 30.6145 38.8836L30.465 39.2857C30.0946 40.2197 29.7779 41.174 29.5165 42.1441C28.5475 42.1303 27.5913 41.9207 26.7054 41.5278C25.8195 41.1349 25.0223 40.5669 24.3616 39.8579L24.3538 39.8631ZM24.6451 50.2502C24.1669 50.1325 23.7114 49.9366 23.2971 49.6703C23.7578 49.4735 24.2395 49.3299 24.7327 49.2424C28.3876 48.4898 28.952 47.9537 30.1866 46.3943C30.4701 46.0361 30.7898 45.6211 31.2331 45.134C31.8929 44.3942 32.197 44.5205 32.7435 44.7474C33.0026 44.8881 33.2299 45.081 33.4109 45.3139C33.5919 45.5468 33.7227 45.8146 33.7951 46.1005C33.8671 46.3081 33.8929 46.5289 33.8706 46.7475C33.8484 46.9661 33.7786 47.1772 33.6662 47.3661C32.667 48.7458 31.2531 49.77 29.6306 50.2893C28.0082 50.8087 26.2623 50.7959 24.6477 50.2528L24.6451 50.2502ZM43.7801 68.0501C43.0568 68.3016 42.2885 68.3977 41.5255 68.3322C40.7625 68.2666 40.0219 68.0409 39.352 67.6697C38.6822 67.2986 38.0981 66.7903 37.638 66.1781C37.1779 65.5659 36.8521 64.8636 36.6818 64.1169C35.7742 58.2756 35.5148 52.3519 35.9086 46.4536C35.9112 46.3454 35.8964 46.2375 35.8648 46.134C35.8377 45.9337 35.7964 45.7356 35.741 45.5412C35.5884 44.9614 35.3102 44.4223 34.9263 43.9618C34.5424 43.5013 34.0621 43.1307 33.5193 42.8761C32.8865 42.5624 32.1662 42.4715 31.4754 42.6184C31.7196 41.7245 32.0138 40.845 32.3568 39.9842L32.5063 39.5796C32.6764 39.1233 32.8878 38.6517 33.112 38.1516C34.326 35.453 35.9911 31.7544 34.1843 23.4034C34.0699 22.6931 33.8113 22.0137 33.4243 21.4071C33.0373 20.8006 32.5302 20.2797 31.9342 19.8766C31.3381 19.4736 30.6659 19.1969 29.9588 19.0636C29.2518 18.9303 28.5249 18.9433 27.8231 19.1017C26.1254 19.3219 24.4794 19.8374 22.9594 20.6249C22.7584 20.728 22.5728 20.826 22.4027 20.9214C22.5977 16.238 24.3357 11.7506 27.3463 8.15779C28.5555 6.97444 29.9986 6.05684 31.5832 5.46385C33.1678 4.87086 34.8588 4.61555 36.5478 4.71431C39.4012 4.73909 42.2143 5.38966 44.7889 6.62015C47.3634 7.85064 49.6366 9.63106 51.4481 11.8358C53.2159 13.9002 54.5972 16.2663 55.5256 18.8207C51.7548 18.4367 49.1902 19.1816 47.8912 21.0399C45.056 25.0814 49.4376 32.9271 51.5408 36.698C51.9275 37.3887 52.26 37.9867 52.3631 38.2444C52.9185 39.5411 53.6667 40.7463 54.5822 41.8194C54.7807 42.0771 54.974 42.3065 55.1184 42.5179C53.9765 42.8478 51.9249 43.6081 52.113 47.415C51.9636 49.3223 50.8913 58.2532 50.3449 61.4106C49.6258 65.5784 48.0922 67.1326 43.7776 68.0579L43.7801 68.0501ZM62.4461 46.6882C60.8593 47.3177 59.1752 47.6665 57.469 47.7192C56.3338 47.8864 55.1744 47.7374 54.1183 47.2887C54.0023 44.92 54.8915 44.6726 55.8194 44.4097C55.9663 44.3685 56.1081 44.3272 56.2473 44.2808C56.3383 44.3543 56.4329 44.4231 56.5308 44.487C58.1778 45.5747 61.1187 45.6907 65.2684 44.835H65.3148C64.457 45.5977 63.4868 46.2236 62.4383 46.6908L62.4461 46.6882Z" fill="white"/>
</svg>
