<svg width="55" height="46" viewBox="0 0 55 46" fill="none" xmlns="http://www.w3.org/2000/svg">
<g clip-path="url(#clip0_2973_1817)">
<path fill-rule="evenodd" clip-rule="evenodd" d="M1.49495 0H53.505C54.3286 0 55 0.677068 55 1.5076V36.2547C55 37.0853 54.3286 37.7623 53.505 37.7623H1.49495C0.671387 37.7623 0 37.0853 0 36.2547V1.5076C0 0.677068 0.671387 0 1.49495 0ZM5.62622 5.2721H10.0216V6.42763H5.62622V5.2721ZM12.1163 17.5135H5.62622V16.3534H12.1163V17.5135ZM20.9473 17.518H13.4367V16.3534H20.9473V17.518ZM33.8647 17.518H22.2184V16.358H33.8692V17.518H33.8647ZM16.6728 12.6702H39.5671V13.8122H16.6728V12.6702ZM11.2882 12.6612H15.4329V13.8167H11.2882V12.6612ZM5.62622 12.6612H10.0216V13.8167H5.62622V12.6612ZM15.5627 10.1154H5.62622V8.96889H15.5672V10.1154H15.5627ZM20.9473 10.1199H16.8026V8.96438H20.9473V10.1199ZM33.8647 10.1244H22.2184V8.96438H33.8692V10.1244H33.8647ZM16.6728 5.2721H26.6138V6.4186H16.6728V5.2721ZM11.2882 5.2721H15.4329V6.42763H11.2882V5.2721ZM40.8203 28.0216L36.7472 25.7196V24.4015L40.8203 22.0995V23.6161L37.9826 25.0425L40.8203 26.514V28.0216ZM41.5767 29.0462L43.0493 20.962H43.9042L42.4227 29.0462H41.5767ZM44.5264 28.0306V26.523L47.3686 25.0786L44.5264 23.6161V22.1176L48.5994 24.4376V25.7376L44.5264 28.0306ZM20.719 39.8432H34.281C34.3168 42.2084 35.2836 44.3254 37.902 45.9955H17.098C19.1927 44.4653 20.7279 42.6056 20.719 39.8432ZM27.5 32.6843C28.5608 32.6843 29.4202 33.551 29.4202 34.6207C29.4202 35.6905 28.5608 36.5572 27.5 36.5572C26.4392 36.5572 25.5798 35.6905 25.5798 34.6207C25.5798 33.551 26.4392 32.6843 27.5 32.6843ZM4.49829 2.83917H50.5062C51.2358 2.83917 51.8266 3.43951 51.8266 4.17074V30.134C51.8266 30.8653 51.2313 31.4656 50.5062 31.4656H4.49829C3.77319 31.4656 3.1779 30.8653 3.1779 30.134V4.17074C3.17342 3.43951 3.76872 2.83917 4.49829 2.83917Z" fill="black"/>
</g>
<defs>
<clipPath id="clip0_2973_1817">
<rect width="55" height="46" fill="white"/>
</clipPath>
</defs>
</svg>
