<svg width="86" height="34" viewBox="0 0 86 34" fill="none" xmlns="http://www.w3.org/2000/svg">
<path d="M63.3926 27.2606L65.8662 21.0054H73.0086L69.6191 11.5163L73.8583 0.795898L86.0004 33.0346H77.0461L74.9711 27.2606H63.3926Z" fill="white"/>
<path d="M55.752 33.0348L68.7504 0.795898L60.1329 0.796066L51.2412 21.6293L44.9184 0.796066H38.2945L31.5054 21.6293L26.7175 12.1361L22.3848 25.4847L26.7839 33.0348H35.2646L41.3995 14.3517L47.2489 33.0348H55.752Z" fill="#5A0FC8"/>
<path d="M8.5531 21.9677H13.861C15.4688 21.9677 16.9006 21.7882 18.1562 21.4291L19.5289 17.2001L23.3654 5.38062C23.0707 4.91417 22.7357 4.47444 22.3643 4.06645C20.3944 1.88608 17.5123 0.795898 13.718 0.795898H0.373047V33.0348H8.5531V21.9677ZM15.5789 8.21266C16.3483 8.98699 16.733 10.0233 16.733 11.3217C16.733 12.6298 16.3947 13.6673 15.718 14.4342C14.9762 15.2862 13.6104 15.7122 11.6206 15.7122H8.5531V7.05135H11.643C13.4977 7.05135 14.8097 7.43834 15.5789 8.21266Z" fill="white"/>
</svg>
