<svg width="77" height="77" viewBox="0 0 77 77" fill="none" xmlns="http://www.w3.org/2000/svg">
<path d="M38.2224 0C18.675 1.39423e-06 19.8957 8.47692 19.8957 8.47692L19.9175 17.2589H38.5711V19.8957H12.5084C12.5084 19.8957 0 18.4771 0 38.2006C-1.39417e-06 57.9241 10.9176 57.2247 10.9176 57.2247H17.4333V48.0722C17.4333 48.0722 17.0821 37.1546 28.1765 37.1546H46.6776C46.6776 37.1546 57.0721 37.3227 57.0721 27.1087V10.2202C57.0721 10.2202 58.6503 0 38.2224 0ZM27.9368 5.90552C29.7927 5.90552 31.2927 7.40553 31.2927 9.26142C31.2927 11.1173 29.7927 12.6173 27.9368 12.6173C26.0809 12.6173 24.5809 11.1173 24.5809 9.26142C24.5809 7.40553 26.0809 5.90552 27.9368 5.90552Z" fill="url(#paint0_linear_1136_60420)"/>
<path d="M38.7784 76.5989C58.3258 76.5989 57.1051 68.1219 57.1051 68.1219L57.0833 59.3399H38.4297V56.7031H64.4924C64.4924 56.7031 77.0008 58.1217 77.0008 38.3982C77.0008 18.6747 66.0832 19.3742 66.0832 19.3742H59.5675V28.5266C59.5675 28.5266 59.9188 39.4442 48.8243 39.4442H30.3232C30.3232 39.4442 19.9287 39.2762 19.9287 49.4901V66.3786C19.9287 66.3786 18.3505 76.5989 38.7784 76.5989ZM49.064 70.6933C47.2081 70.6933 45.7081 69.1933 45.7081 67.3374C45.7081 65.4815 47.2081 63.9815 49.064 63.9815C50.9199 63.9815 52.4199 65.4815 52.4199 67.3374C52.4199 69.1933 50.9199 70.6933 49.064 70.6933Z" fill="url(#paint1_linear_1136_60420)"/>
<defs>
<linearGradient id="paint0_linear_1136_60420" x1="739.985" y1="688.988" x2="4555.83" y2="4466.76" gradientUnits="userSpaceOnUse">
<stop stop-color="#387EB8"/>
<stop offset="1" stop-color="#366994"/>
</linearGradient>
<linearGradient id="paint1_linear_1136_60420" x1="1112.09" y1="1197.07" x2="5209.9" y2="5070.85" gradientUnits="userSpaceOnUse">
<stop stop-color="#FFE052"/>
<stop offset="1" stop-color="#FFC331"/>
</linearGradient>
</defs>
</svg>
