<svg width="59" height="59" viewBox="0 0 59 59" fill="none" xmlns="http://www.w3.org/2000/svg">
<path d="M24.238 5.24707C22.413 5.24707 20.6626 5.97207 19.3721 7.26259C18.0816 8.5531 17.3566 10.3034 17.3566 12.1285V16.1707H27.6787C28.6171 16.1707 29.387 17.5422 29.387 18.4805H12.2076C10.3825 18.4805 8.6322 19.2056 7.34169 20.4961C6.05118 21.7866 5.32617 23.5369 5.32617 25.362V34.4594C5.32617 36.2844 6.05118 38.0348 7.34169 39.3253C8.6322 40.6158 10.3825 41.3408 12.2076 41.3408H15.0468V34.8925C15.0436 33.9899 15.2186 33.0956 15.5618 32.2609C15.905 31.4261 16.4096 30.6673 17.0467 30.028C17.6838 29.3887 18.4408 28.8815 19.2743 28.5353C20.1079 28.1892 21.0016 28.0111 21.9041 28.0111H34.5361C38.3377 28.0111 41.4175 24.9529 41.4175 21.1513V12.1285C41.4175 10.3034 40.6925 8.5531 39.402 7.26259C38.1114 5.97207 36.3611 5.24707 34.5361 5.24707H24.238ZM22.5056 9.12087C23.4681 9.12087 24.238 9.4096 24.238 10.8292C24.238 12.2488 23.4681 12.973 22.5056 12.973C21.5673 12.973 20.7973 12.2512 20.7973 10.8316C20.7973 9.41201 21.5673 9.12087 22.5056 9.12087Z" fill="#0288D1"/>
<path d="M43.7277 17.2773V23.7257C43.7305 24.628 43.5553 25.522 43.2119 26.3565C42.8686 27.191 42.3639 27.9495 41.7269 28.5885C41.0898 29.2276 40.3329 29.7346 39.4995 30.0806C38.6662 30.4266 37.7727 30.6047 36.8703 30.6047H24.2408C23.3382 30.6015 22.444 30.7765 21.6092 31.1197C20.7745 31.4629 20.0157 31.9675 19.3763 32.6046C18.737 33.2417 18.2298 33.9987 17.8837 34.8322C17.5375 35.6658 17.3594 36.5595 17.3594 37.462V46.4848C17.3594 48.3099 18.0844 50.0602 19.3749 51.3507C20.6654 52.6412 22.4157 53.3662 24.2408 53.3662H34.5388C36.3635 53.3662 38.1134 52.6416 39.4039 51.3516C40.6943 50.0616 41.4196 48.3119 41.4202 46.4872V42.445H31.0957C30.1574 42.445 29.3898 41.0735 29.3898 40.1352H46.5693C48.3943 40.1352 50.1446 39.4102 51.4352 38.1197C52.7257 36.8291 53.4507 35.0788 53.4507 33.2538V24.1588C53.4507 22.3337 52.7257 20.5834 51.4352 19.2929C50.1446 18.0023 48.3943 17.2773 46.5693 17.2773H43.7277ZM20.5354 28.136L20.5258 28.1456L20.6172 28.136H20.5354ZM36.2712 45.6427C37.2096 45.6427 37.9795 46.3645 37.9795 47.7841C37.9795 48.0085 37.9354 48.2306 37.8495 48.4379C37.7637 48.6451 37.6378 48.8335 37.4792 48.9921C37.3206 49.1507 37.1322 49.2766 36.925 49.3624C36.7177 49.4483 36.4956 49.4924 36.2712 49.4924C35.3088 49.4924 34.5388 49.2037 34.5388 47.7841C34.5388 46.3645 35.3088 45.6427 36.2712 45.6427Z" fill="#FDD835"/>
</svg>
