<svg width="120" height="116" viewBox="0 0 120 116" fill="none" xmlns="http://www.w3.org/2000/svg">
<g opacity="0.3">
<path d="M101.515 37.7727C98.6742 31.8917 89.4722 30.2287 77.1435 32.3666C74.696 20.1875 69.7304 12.2788 63.2827 11.5758C61.7456 11.5549 60.3579 11.8434 58.8103 12.591C54.1674 14.8338 49.6216 21.2291 46.2719 30.1005C37.2404 27.2099 29.7147 26.646 24.7622 29.0383C23.2146 29.7859 22.126 30.6935 21.1869 31.9107C18.0392 37.2488 21.1477 46.0546 28.8572 55.6919C19.8284 63.8709 15.2511 72.5719 17.9425 78.1434C20.7834 84.0244 29.9854 85.6874 42.314 83.5494C45.0711 95.5791 50.1862 103.797 56.4844 104.191C58.0215 104.212 59.4091 103.923 60.9568 103.176C65.5997 100.933 70.1455 94.5375 73.4952 85.666C82.5266 88.5566 90.0524 89.1205 95.0049 86.7282C96.5525 85.9806 97.6411 85.073 98.5802 83.8559C102.187 78.6778 98.9289 69.5624 91.2195 59.9251C99.9387 51.8956 104.206 43.3442 101.515 37.7727ZM60.7541 16.6149C61.6827 16.1663 62.3017 15.8673 62.9103 16.3368C65.9846 16.3788 69.3055 20.8826 71.5169 27.8313C71.955 29.5285 72.5425 31.5351 72.9806 33.2323C69.1272 33.9485 65.5729 35.2837 61.25 36.6084C57.5881 34.5597 54.0757 32.8206 50.4033 31.5406C53.433 23.5872 57.3493 18.2596 60.7541 16.6149ZM74.3213 58.9258C74.1298 61.6906 73.9383 64.4554 73.2878 67.0602C70.9611 68.5659 68.4849 69.762 66.0087 70.9582C63.5324 72.1544 61.0562 73.3505 58.4305 74.2372C56.2952 72.9781 54.0105 71.4095 51.4162 69.9904C49.1314 68.4218 46.8467 66.8532 44.8714 65.135C44.7534 62.5198 44.9448 59.755 45.1363 56.9902C45.3278 54.2254 45.8288 51.3111 46.0202 48.5464C48.3469 47.0407 50.8232 45.8445 53.2994 44.6483C55.7756 43.4522 58.2518 42.256 60.8776 41.3693C63.0128 42.6284 65.6071 44.0475 68.0414 45.9257C70.3261 47.4943 72.6109 49.0629 74.5861 50.781C74.7042 53.3963 74.5127 56.1611 74.3213 58.9258ZM78.9956 54.3773C80.9709 56.0954 82.6366 57.9631 84.1527 59.5212C82.2851 61.1869 80.2679 62.5431 78.2507 63.8993C78.2717 62.3621 78.6022 60.6754 78.6232 59.1383C79.1032 57.7611 78.9747 55.9144 78.9956 54.3773ZM70.4943 80.244C68.1991 79.444 65.7543 78.3344 63.619 77.0754C65.1667 76.3278 66.7143 75.5801 67.9524 74.9821C69.5001 74.2345 71.0477 73.4869 72.2858 72.8888C71.9448 75.344 71.2943 77.9488 70.4943 80.244ZM53.019 76.4695C50.7028 77.2066 48.3865 77.9437 45.9208 78.3713C45.4932 75.9056 45.3752 73.2903 45.0971 71.1341C46.3142 72.0732 47.5314 73.0123 49.058 73.8018C50.5847 74.5914 51.8018 75.5304 53.019 76.4695ZM40.4619 61.5388C38.4867 59.8206 36.821 57.953 34.8458 56.2348C36.7134 54.5691 38.7306 53.213 41.0573 51.7073C40.7268 53.3939 40.7058 54.9311 40.3753 56.6178C40.8134 58.3149 40.7924 59.8521 40.4619 61.5388ZM48.9633 35.672C51.2585 36.472 53.3938 37.7311 55.689 38.5312C54.1414 39.2788 52.9033 39.8769 51.3556 40.6245C49.808 41.3721 48.5699 41.9701 47.0222 42.7178C47.8223 40.4225 48.4728 37.8177 48.9633 35.672ZM70.3995 42.1142C68.8729 41.3247 67.6557 40.3856 66.1291 39.5961C68.7548 38.7094 71.071 37.9723 73.5368 37.5447C73.9643 40.0105 74.0824 42.6257 74.2005 45.241C73.2929 44.1524 72.0757 43.2133 70.3995 42.1142ZM28.962 48.0061C24.8935 41.9546 23.5793 36.8631 25.3079 34.1193C25.7774 33.5108 26.247 32.9022 26.866 32.6031C30.2708 30.9584 36.569 31.3518 44.6823 33.9224C43.7118 37.4453 42.5813 41.4272 41.9098 45.5691C38.345 47.6729 34.9297 50.0862 31.9734 52.6595C30.9163 51.2614 29.7096 49.5538 28.962 48.0061ZM35.9083 79.7722C28.8311 80.1368 23.1625 78.6758 21.9664 76.1996C20.6207 73.4138 22.8398 68.5243 27.5247 63.2072C28.7733 61.8405 30.0219 60.4739 31.7295 59.2672C34.3028 62.2234 37.1857 65.0302 40.6876 67.5379C40.7847 71.6903 41.1913 75.6932 41.7579 79.237C39.6017 79.5151 37.755 79.6436 35.9083 79.7722ZM56.6968 99.8888C53.6225 99.8468 50.3016 95.3429 48.0902 88.3943C47.6521 86.6971 47.0645 84.6904 46.4769 82.6837C50.1808 81.6581 53.8846 80.6324 57.7485 79.1477C61.4104 81.1963 65.2323 82.7859 68.5952 84.2155C65.5655 92.1688 61.9588 97.3469 58.554 98.9916C58.0844 99.6002 57.3159 99.5897 56.6968 99.8888ZM90.8051 67.7604C94.8736 73.8119 96.1878 78.9034 94.4592 81.6472C93.9897 82.2558 93.5201 82.8644 92.9011 83.1634C89.4963 84.8081 83.1981 84.4147 75.0848 81.8441C76.3648 78.1717 77.1858 74.3393 77.8573 70.1974C81.4221 68.0936 84.8374 65.6803 87.6337 63.566C88.5413 64.6546 89.5984 66.0528 90.8051 67.7604ZM91.9329 52.7089C90.6843 54.0755 89.4357 55.4422 87.7281 56.6489C85.3043 54.0021 82.4214 51.1954 79.229 48.5382C79.132 44.3858 78.7253 40.3829 78.3187 36.38C80.1654 36.2515 82.1721 35.6639 84.0188 35.5353C91.096 35.1706 96.3055 36.4717 97.6512 39.2574C98.6874 42.1927 96.6178 47.3918 91.9329 52.7089Z" fill="black"/>
<path d="M63.7767 65.5465C68.1101 63.4532 69.8702 58.4037 67.7769 54.0703C65.6836 49.7369 60.6341 47.9768 56.3007 50.0701C51.9673 52.1634 50.2072 57.2129 52.3005 61.5463C54.3938 65.8797 59.4434 67.6398 63.7767 65.5465Z" fill="black"/>
</g>
</svg>
