<svg width="75" height="75" viewBox="0 0 75 75" fill="none" xmlns="http://www.w3.org/2000/svg">
<path d="M45.5194 25.2206C49.8386 22.6627 51.9984 21.3837 53.5846 22.2912C55.1708 23.1986 55.1326 25.6915 55.0568 30.6775L55.0373 31.9673C55.0159 33.3841 55.005 34.0925 55.2691 34.7151C55.5332 35.3374 56.0421 35.8038 57.06 36.7361L57.9866 37.5849C61.5687 40.8662 63.3597 42.5067 62.9398 44.3492C62.52 46.1914 60.1672 47.0154 55.4622 48.6632L54.2448 49.0897C52.9076 49.5579 52.2391 49.7919 51.7262 50.2613C51.2134 50.731 50.9142 51.3826 50.3158 52.6855L49.7712 53.8719C47.6655 58.4577 46.6128 60.7506 44.7672 60.9819C42.9217 61.2131 41.5054 59.2294 38.6732 55.262L37.9406 54.2354C37.1358 53.108 36.7332 52.5445 36.1521 52.2119C35.5713 51.8796 34.8774 51.816 33.4895 51.689L32.2263 51.5734C27.343 51.1266 24.9013 50.9029 24.1806 49.2036C23.4598 47.504 24.9372 45.454 27.8921 41.3543L28.6565 40.2935C29.4962 39.1285 29.9161 38.546 30.0699 37.871C30.2237 37.1963 30.094 36.5055 29.8347 35.1238L29.5986 33.866C28.6861 29.0039 28.2299 26.5729 29.63 25.2914C31.0301 24.0099 33.3594 24.7267 38.0177 26.1602L39.2231 26.531C40.5469 26.9384 41.2088 27.1421 41.8849 27.0574C42.5609 26.9727 43.1746 26.6093 44.402 25.8824L45.5194 25.2206Z" fill="white"/>
<path opacity="0.5" fill-rule="evenodd" clip-rule="evenodd" d="M29.3776 7.61906C30.1887 6.79365 31.5037 6.79365 32.3147 7.61906L37.8532 13.2554C38.6643 14.0809 38.6643 15.4192 37.8532 16.2446C37.0421 17.07 35.7272 17.07 34.9161 16.2446L29.3776 10.6082C28.5665 9.78279 28.5665 8.44448 29.3776 7.61906ZM14.1468 11.8463C14.9579 11.0209 16.2729 11.0209 17.084 11.8463L24.0071 18.8918C24.8182 19.7172 24.8182 21.0555 24.0071 21.881C23.196 22.7064 21.881 22.7064 21.0699 21.881L14.1468 14.8355C13.3357 14.0101 13.3357 12.6718 14.1468 11.8463ZM39.07 17.4827C39.8811 16.6573 41.1959 16.6573 42.007 17.4827L43.3917 18.8918C44.2028 19.7172 44.2028 21.0555 43.3917 21.881C42.5806 22.7064 41.2657 22.7064 40.4546 21.881L39.07 20.4719C38.2589 19.6464 38.2589 18.3081 39.07 17.4827ZM8.60831 23.1191C9.41939 22.2937 10.7344 22.2937 11.5455 23.1191L12.9301 24.5282C13.7412 25.3536 13.7412 26.6919 12.9301 27.5173C12.1191 28.3428 10.804 28.3428 9.99293 27.5173L8.60831 26.1082C7.79723 25.2828 7.79723 23.9445 8.60831 23.1191ZM15.5314 30.1646C16.3425 29.3392 17.6575 29.3392 18.4686 30.1646L22.6225 34.3919C23.4336 35.2174 23.4336 36.5555 22.6225 37.3809C21.8114 38.2064 20.4963 38.2064 19.6853 37.3809L15.5314 33.1536C14.7203 32.3282 14.7203 30.9901 15.5314 30.1646Z" fill="white"/>
</svg>
