<svg width="46" height="46" viewBox="0 0 46 46" fill="none" xmlns="http://www.w3.org/2000/svg">
<g clip-path="url(#clip0_2973_1811)">
<path fill-rule="evenodd" clip-rule="evenodd" d="M38.0297 5.50302L41.3307 8.80446C42.1996 9.67333 42.1996 11.0948 41.3307 11.9636L38.6725 14.6219C39.4058 15.9913 39.9655 17.4674 40.3215 19.0214H43.7651C44.9941 19.0214 45.9996 20.0269 45.9996 21.2555V25.9241C45.9996 27.1531 44.9941 28.1586 43.7651 28.1586H40.007C39.5462 29.6796 38.887 31.1145 38.0589 32.433L40.4967 34.8701C41.3656 35.7397 41.3656 37.1611 40.4967 38.0296L37.1957 41.331C36.3268 42.1995 34.905 42.1995 34.0366 41.331L31.3779 38.6724C30.0089 39.4061 28.5325 39.9661 26.9782 40.3218V43.7655C26.9782 44.9941 25.9731 45.9996 24.7441 45.9996H20.076C18.847 45.9996 17.8415 44.9941 17.8415 43.7655V40.0073C16.3205 39.5461 14.8856 38.8869 13.5675 38.0588L11.1301 40.4966C10.2605 41.3655 8.83913 41.3655 7.97026 40.4966L4.66925 37.1955C3.80039 36.3267 3.80039 34.9052 4.66925 34.0364L7.32788 31.3777C6.59416 30.0087 6.03413 28.5326 5.67887 26.9786H2.23411C1.0055 26.9786 0 25.9735 0 24.7445V20.0759C0 18.8469 1.0055 17.8418 2.23411 17.8418H5.9922C6.4534 16.3208 7.11263 14.8859 7.94032 13.5674L5.50293 11.1303C4.63407 10.2611 4.63407 8.83927 5.50293 7.97077L8.80431 4.66933C9.67318 3.80045 11.0946 3.80045 11.9634 4.66933L14.6217 7.32763C15.9911 6.59389 17.4671 6.03385 19.0214 5.67822V2.23453C19.0214 1.00552 20.0269 0 21.2555 0H25.924C27.1527 0 28.1582 1.00552 28.1582 2.23453V5.99155C29.6795 6.45238 31.1148 7.11162 32.434 7.9397L34.8699 5.50302C35.7395 4.63414 37.1609 4.63414 38.0297 5.50302ZM23 13.8212C28.0687 13.8212 32.1787 17.9316 32.1787 23C32.1787 28.068 28.0687 32.1788 23 32.1788C17.9317 32.1788 13.8213 28.0684 13.8213 23C13.8213 17.9316 17.9317 13.8212 23 13.8212Z" fill="black"/>
</g>
<defs>
<clipPath id="clip0_2973_1811">
<rect width="46" height="46" fill="white"/>
</clipPath>
</defs>
</svg>
