<svg width="47" height="47" viewBox="0 0 47 47" fill="none" xmlns="http://www.w3.org/2000/svg">
<path d="M10.0689 4.08789L23.0723 2.72266L36.0756 4.08825L46.1445 17.4925L23.0723 44.1467L0 17.4925L10.0689 4.08789Z" fill="#FDB300"/>
<path d="M9.34607 17.4917L23.0723 44.1459L0 17.4917H9.34607ZM36.7985 17.4917L23.0723 44.1459L46.1445 17.4917H36.7985Z" fill="#EA6C00"/>
<path d="M9.34961 17.4917H36.802L23.0758 44.1459L9.34961 17.4917Z" fill="#FDAD00"/>
<path d="M23.0758 2.72266L10.0724 4.08789L9.34961 17.4925L23.0758 2.72266ZM23.0758 2.72266L36.0792 4.08789L36.802 17.4925L23.0758 2.72266Z" fill="#FDD231"/>
<path d="M46.1411 17.493L36.0723 4.08838L36.7951 17.493H46.1411Z" fill="#FDAD00"/>
<path d="M23.0758 2.72266L9.34961 17.4925H36.802L23.0758 2.72266Z" fill="#FEEEB7"/>
<path d="M0 17.493L10.0689 4.08838L9.34607 17.493H0Z" fill="#FDAD00"/>
</svg>
