<svg width="69" height="72" viewBox="0 0 69 72" fill="none" xmlns="http://www.w3.org/2000/svg">
<path d="M30.3156 71.873C26.9863 71.2137 24.1119 68.9469 22.7144 65.8785C22.0997 64.5287 21.8381 63.2534 21.8427 61.6273C21.8551 56.9536 24.807 53.0511 29.3928 51.6442C30.2376 51.385 30.7951 51.3166 32.0904 51.3132C32.9884 51.3111 33.9787 51.3581 34.2911 51.4183L34.859 51.5279L35.5579 50.1767C36.9852 47.4176 39.2096 45.25 42.0852 43.8162C44.4574 42.6334 45.9481 42.2894 48.7018 42.2894C50.6305 42.2894 51.0779 42.3357 52.3223 42.6639C57.6958 44.0814 61.8841 48.2799 63.2023 53.5704C63.5324 54.8951 63.697 57.8653 63.505 59.0305L63.3739 59.8262L64.1264 59.9939C66.0125 60.4141 67.6403 61.726 68.4725 63.4965C69.2955 65.2474 69.1448 67.513 68.0953 69.1681C67.5596 70.013 66.5094 70.9519 65.6331 71.3696C65.1838 71.5837 64.7054 71.8168 64.5697 71.8876C64.2653 72.0467 31.1214 72.0326 30.3156 71.873ZM64.7722 69.9199C65.7048 69.4583 66.627 68.4263 67.0102 67.4154C67.8055 65.3183 66.7446 62.8816 64.6283 61.9441C64.0939 61.7073 63.6947 61.6526 62.5802 61.6631C61.8188 61.6703 61.1959 61.6224 61.1959 61.5568C61.1959 61.4912 61.3373 60.876 61.5102 60.1896C61.9524 58.4337 61.9479 55.6338 61.4998 53.9238C60.5126 50.1532 57.9528 47.0081 54.4516 45.264C52.913 44.4976 51.4497 44.1471 49.4501 44.0658C46.4913 43.9456 44.4256 44.4098 42.1492 45.7064C39.4948 47.2185 37.2066 49.9584 36.3197 52.687C36.1491 53.2117 35.9423 53.6402 35.86 53.6392C35.7774 53.6383 35.2952 53.5014 34.7876 53.335C33.3755 52.8723 30.9672 52.9004 29.5579 53.3961C28.1393 53.8951 27.118 54.5347 26.0547 55.59C24.4609 57.1718 23.5756 59.3277 23.5756 61.6273C23.5756 65.0422 25.465 68.0359 28.5389 69.4915C30.3056 70.328 29.6943 70.3029 47.6366 70.2751L64.1061 70.2496L64.7722 69.9199ZM17.2537 63.3106C11.2954 62.5067 6.70927 61.0173 3.31692 58.7843C1.91721 57.8629 0.950807 56.8324 0.405923 55.6802L0 54.8217L0.0371888 31.5802L0.0743854 8.33881L0.413364 7.70559C1.27026 6.10494 2.94096 4.7391 5.60091 3.4649C8.96423 1.85368 12.8428 0.846393 18.2475 0.180393C20.4732 -0.0938658 28.0314 -0.0453719 30.3156 0.25783C38.727 1.3743 45.2544 4.11038 47.3351 7.39179C48.155 8.68488 48.1339 8.21616 48.1339 25.1119V40.6241L47.6725 40.6953C47.4187 40.7344 46.8438 40.8055 46.3949 40.8532C41.7628 41.3456 36.9592 44.5337 34.4969 48.7496L33.9927 49.6127L32.0123 49.7058C29.6722 49.8158 28.4798 50.1142 26.7007 51.0351C23.646 52.6163 21.4628 55.3575 20.5725 58.7296C20.3266 59.661 20.2539 60.3362 20.2489 61.7333L20.2386 63.5355L19.454 63.5188C19.0226 63.5095 18.0306 63.416 17.2498 63.3106H17.2537ZM29.3663 41.8885C28.2486 40.9442 27.282 40.1258 27.2182 40.0698C27.1542 40.0139 27.3868 39.8022 27.7342 39.5994C28.5047 39.1498 29.4969 38.0739 29.9182 37.2309C30.9477 35.1708 30.9248 32.6084 29.8583 30.5695C28.6856 28.327 26.2316 27.1506 23.4513 27.4982C21.9289 27.6885 20.9752 28.1136 19.9695 29.0503C18.3819 30.5288 17.8321 31.9794 17.9156 34.4692C17.9631 35.8847 18.0137 36.1393 18.4204 36.9984C19.2955 38.8477 21.1253 40.2298 22.9895 40.4496C23.6908 40.5323 23.7516 40.5781 25.1451 42.07L26.5792 43.6053H28.9886H31.3982L29.3663 41.8885ZM23.2862 37.0679C22.3097 36.5747 21.939 35.7297 21.939 33.9974C21.939 32.8702 21.9937 32.5411 22.272 31.9774C22.7172 31.0774 23.6048 30.5363 24.4755 30.634C25.332 30.7301 25.7772 31.075 26.2302 31.9933C26.574 32.6902 26.6237 32.9544 26.6196 34.0643C26.6196 35.4334 26.3714 36.1353 25.6797 36.7758C24.9571 37.445 24.2126 37.5359 23.2862 37.0679ZM13.4616 40.3488C16.029 39.7592 17.4236 37.6186 16.6842 35.4025C16.312 34.2866 15.5252 33.5896 13.6035 32.6734C12.716 32.2503 11.9224 31.8177 11.8398 31.712C11.5166 31.2987 11.5174 31.0251 11.8398 30.649C12.3398 30.0702 13.4782 30.0426 15.0194 30.5717L16.1952 30.9753L16.1549 29.4132L16.1146 27.851L15.3337 27.6662C14.1528 27.3867 11.6003 27.4004 10.5961 27.6916C8.58248 28.2755 7.52144 29.5857 7.52805 31.4801C7.53838 33.4296 8.41708 34.3538 11.5239 35.6662C12.8382 36.2214 12.9888 37.2591 11.8139 37.6653C11.2701 37.8533 11.1154 37.8497 10.2549 37.6285C9.72948 37.4934 8.93231 37.1933 8.4833 36.9615L7.66691 36.54V38.2312V39.9223L8.4833 40.1486C8.93231 40.273 9.36354 40.397 9.44165 40.4241C9.76616 40.5366 12.896 40.478 13.4584 40.3488H13.4616ZM40.893 38.8701V37.3859H38.6213H36.3497V32.5094V27.6329H34.504H32.6583V33.9936V40.3543H36.7757H40.893V38.8701ZM29.9607 13.4217C33.663 12.9945 36.7011 12.2219 38.6213 11.2192C39.8829 10.5605 40.1854 10.3232 40.6704 9.61172C42.17 7.41166 38.8121 5.19957 32.3033 4.09984C26.1884 3.06664 18.1299 3.30035 12.9722 4.66049C2.33027 7.46695 6.52548 12.6222 20.2784 13.6386C22.5355 13.8054 27.623 13.6915 29.9607 13.4217Z" fill="#00BCF2"/>
</svg>
