<svg width="228" height="76" viewBox="0 0 228 76" fill="none" xmlns="http://www.w3.org/2000/svg">
<circle cx="33" cy="38" r="21" fill="white"/>
<g clip-path="url(#clip0_4373_2432)">
<path d="M48.6003 34.465H36.6884L33.0089 23L29.3182 34.465L17.4062 34.4536L27.0532 41.5464L23.362 53L33.0089 45.9187L42.6442 53L38.9647 41.5464L48.6003 34.465Z" fill="#00B67A"/>
<path d="M39.7915 44.1396L38.9636 41.5464L33.0078 45.9187L39.7915 44.1396Z" fill="#005128"/>
</g>
<path d="M71.2707 49V31.96H64.5507V28H82.8507V31.96H76.1307V49H71.2707ZM84.784 49V32.86H89.254V37.42L88.624 36.1C89.104 34.96 89.874 34.1 90.934 33.52C91.994 32.92 93.284 32.62 94.804 32.62V36.94C94.604 36.92 94.424 36.91 94.264 36.91C94.104 36.89 93.934 36.88 93.754 36.88C92.474 36.88 91.434 37.25 90.634 37.99C89.854 38.71 89.464 39.84 89.464 41.38V49H84.784ZM104.514 49.24C103.174 49.24 101.974 48.98 100.914 48.46C99.8739 47.94 99.0639 47.15 98.4839 46.09C97.9039 45.01 97.6139 43.64 97.6139 41.98V32.86H102.294V41.29C102.294 42.63 102.574 43.62 103.134 44.26C103.714 44.88 104.524 45.19 105.564 45.19C106.284 45.19 106.924 45.04 107.484 44.74C108.044 44.42 108.484 43.94 108.804 43.3C109.124 42.64 109.284 41.82 109.284 40.84V32.86H113.964V49H109.524V44.56L110.334 45.85C109.794 46.97 108.994 47.82 107.934 48.4C106.894 48.96 105.754 49.24 104.514 49.24ZM123.73 49.24C122.35 49.24 121.02 49.08 119.74 48.76C118.48 48.42 117.48 48 116.74 47.5L118.3 44.14C119.04 44.6 119.91 44.98 120.91 45.28C121.93 45.56 122.93 45.7 123.91 45.7C124.99 45.7 125.75 45.57 126.19 45.31C126.65 45.05 126.88 44.69 126.88 44.23C126.88 43.85 126.7 43.57 126.34 43.39C126 43.19 125.54 43.04 124.96 42.94C124.38 42.84 123.74 42.74 123.04 42.64C122.36 42.54 121.67 42.41 120.97 42.25C120.27 42.07 119.63 41.81 119.05 41.47C118.47 41.13 118 40.67 117.64 40.09C117.3 39.51 117.13 38.76 117.13 37.84C117.13 36.82 117.42 35.92 118 35.14C118.6 34.36 119.46 33.75 120.58 33.31C121.7 32.85 123.04 32.62 124.6 32.62C125.7 32.62 126.82 32.74 127.96 32.98C129.1 33.22 130.05 33.57 130.81 34.03L129.25 37.36C128.47 36.9 127.68 36.59 126.88 36.43C126.1 36.25 125.34 36.16 124.6 36.16C123.56 36.16 122.8 36.3 122.32 36.58C121.84 36.86 121.6 37.22 121.6 37.66C121.6 38.06 121.77 38.36 122.11 38.56C122.47 38.76 122.94 38.92 123.52 39.04C124.1 39.16 124.73 39.27 125.41 39.37C126.11 39.45 126.81 39.58 127.51 39.76C128.21 39.94 128.84 40.2 129.4 40.54C129.98 40.86 130.45 41.31 130.81 41.89C131.17 42.45 131.35 43.19 131.35 44.11C131.35 45.11 131.05 46 130.45 46.78C129.85 47.54 128.98 48.14 127.84 48.58C126.72 49.02 125.35 49.24 123.73 49.24ZM140.837 49.24C138.937 49.24 137.457 48.76 136.397 47.8C135.337 46.82 134.807 45.37 134.807 43.45V29.29H139.487V43.39C139.487 44.07 139.667 44.6 140.027 44.98C140.387 45.34 140.877 45.52 141.497 45.52C142.237 45.52 142.867 45.32 143.387 44.92L144.647 48.22C144.167 48.56 143.587 48.82 142.907 49C142.247 49.16 141.557 49.24 140.837 49.24ZM132.317 36.82V33.22H143.507V36.82H132.317ZM156.814 49.24C155.454 49.24 154.264 48.94 153.244 48.34C152.224 47.74 151.424 46.83 150.844 45.61C150.284 44.37 150.004 42.81 150.004 40.93C150.004 39.03 150.274 37.47 150.814 36.25C151.354 35.03 152.134 34.12 153.154 33.52C154.174 32.92 155.394 32.62 156.814 32.62C158.334 32.62 159.694 32.97 160.894 33.67C162.114 34.35 163.074 35.31 163.774 36.55C164.494 37.79 164.854 39.25 164.854 40.93C164.854 42.63 164.494 44.1 163.774 45.34C163.074 46.58 162.114 47.54 160.894 48.22C159.694 48.9 158.334 49.24 156.814 49.24ZM147.274 54.82V32.86H151.744V36.16L151.654 40.96L151.954 45.73V54.82H147.274ZM156.004 45.4C156.784 45.4 157.474 45.22 158.074 44.86C158.694 44.5 159.184 43.99 159.544 43.33C159.924 42.65 160.114 41.85 160.114 40.93C160.114 39.99 159.924 39.19 159.544 38.53C159.184 37.87 158.694 37.36 158.074 37C157.474 36.64 156.784 36.46 156.004 36.46C155.224 36.46 154.524 36.64 153.904 37C153.284 37.36 152.794 37.87 152.434 38.53C152.074 39.19 151.894 39.99 151.894 40.93C151.894 41.85 152.074 42.65 152.434 43.33C152.794 43.99 153.284 44.5 153.904 44.86C154.524 45.22 155.224 45.4 156.004 45.4ZM167.987 49V32.86H172.667V49H167.987ZM170.327 30.61C169.467 30.61 168.767 30.36 168.227 29.86C167.687 29.36 167.417 28.74 167.417 28C167.417 27.26 167.687 26.64 168.227 26.14C168.767 25.64 169.467 25.39 170.327 25.39C171.187 25.39 171.887 25.63 172.427 26.11C172.967 26.57 173.237 27.17 173.237 27.91C173.237 28.69 172.967 29.34 172.427 29.86C171.907 30.36 171.207 30.61 170.327 30.61ZM177.011 49V26.74H181.691V49H177.011ZM193.714 49.24C191.994 49.24 190.464 48.88 189.124 48.16C187.804 47.44 186.754 46.46 185.974 45.22C185.214 43.96 184.834 42.53 184.834 40.93C184.834 39.31 185.214 37.88 185.974 36.64C186.754 35.38 187.804 34.4 189.124 33.7C190.464 32.98 191.994 32.62 193.714 32.62C195.414 32.62 196.934 32.98 198.274 33.7C199.614 34.4 200.664 35.37 201.424 36.61C202.184 37.85 202.564 39.29 202.564 40.93C202.564 42.53 202.184 43.96 201.424 45.22C200.664 46.46 199.614 47.44 198.274 48.16C196.934 48.88 195.414 49.24 193.714 49.24ZM193.714 45.4C194.494 45.4 195.194 45.22 195.814 44.86C196.434 44.5 196.924 43.99 197.284 43.33C197.644 42.65 197.824 41.85 197.824 40.93C197.824 39.99 197.644 39.19 197.284 38.53C196.924 37.87 196.434 37.36 195.814 37C195.194 36.64 194.494 36.46 193.714 36.46C192.934 36.46 192.234 36.64 191.614 37C190.994 37.36 190.494 37.87 190.114 38.53C189.754 39.19 189.574 39.99 189.574 40.93C189.574 41.85 189.754 42.65 190.114 43.33C190.494 43.99 190.994 44.5 191.614 44.86C192.234 45.22 192.934 45.4 193.714 45.4ZM212.292 49.24C210.392 49.24 208.912 48.76 207.852 47.8C206.792 46.82 206.262 45.37 206.262 43.45V29.29H210.942V43.39C210.942 44.07 211.122 44.6 211.482 44.98C211.842 45.34 212.332 45.52 212.952 45.52C213.692 45.52 214.322 45.32 214.842 44.92L216.102 48.22C215.622 48.56 215.042 48.82 214.362 49C213.702 49.16 213.012 49.24 212.292 49.24ZM203.772 36.82V33.22H214.962V36.82H203.772Z" fill="white"/>
<defs>
<clipPath id="clip0_4373_2432">
<rect width="31.2" height="30" fill="white" transform="translate(17.4062 23)"/>
</clipPath>
</defs>
</svg>
