<svg width="28" height="28" viewBox="0 0 28 28" fill="none" xmlns="http://www.w3.org/2000/svg">
<path d="M20.5509 11.7716C20.9208 12.1438 21.4174 12.3459 21.9421 12.3459C22.4669 12.3459 22.9635 12.1403 23.3333 11.7716L27.4224 7.68084C27.7922 7.30863 27.9965 6.81589 27.9965 6.2877C27.9965 5.75952 27.7922 5.26678 27.4224 4.89457L23.0833 0.555658C22.3401 -0.185219 21.044 -0.185219 20.3009 0.555658L16.2153 4.64643C15.8455 5.01864 15.6413 5.51138 15.6413 6.03956C15.6413 6.56775 15.8455 7.06048 16.2153 7.4327L20.5509 11.7716ZM17.4058 5.83751L21.4948 1.74673C21.5653 1.67584 21.6498 1.6652 21.6921 1.6652C21.7343 1.6652 21.8189 1.67584 21.8893 1.74673L26.2284 6.08919C26.2989 6.16009 26.3094 6.24517 26.3094 6.2877C26.3094 6.33024 26.2989 6.41532 26.2284 6.48622L22.1429 10.577C22.0725 10.6479 21.9879 10.6585 21.9457 10.6585C21.9034 10.6585 21.8189 10.6479 21.7484 10.577L17.4058 6.23808C17.3353 6.16718 17.3248 6.0821 17.3248 6.03956C17.3248 5.99703 17.3353 5.9084 17.4058 5.83751ZM7.41384 16.2417C6.67069 15.5008 5.37107 15.5008 4.63145 16.2417L4.09258 16.7805C3.55371 17.3229 2.98314 18.2835 2.77182 19.0173L0.972075 25.2102C0.820629 25.7277 0.887547 26.2098 1.15874 26.5714C1.40528 26.9011 1.79975 27.089 2.24 27.089C2.4161 27.089 2.60277 27.0606 2.78943 27.0004L9.21359 25.0117C9.93912 24.7884 10.8936 24.2105 11.4289 23.6753L11.7459 23.3598C12.1157 22.9876 12.32 22.4948 12.32 21.9666C12.32 21.4385 12.1157 20.9457 11.7459 20.5735L7.41384 16.2417ZM10.5555 22.1687L10.2385 22.4842C9.90038 22.8245 9.17484 23.2605 8.71698 23.4023L4.87447 24.5898L3.41987 22.8351L4.39195 19.4923C4.52579 19.035 4.95195 18.3119 5.28654 17.9787L5.82541 17.4398C5.89585 17.369 5.98038 17.3583 6.02264 17.3583C6.06491 17.3583 6.14943 17.369 6.21987 17.4398L10.552 21.7752C10.6224 21.8461 10.633 21.9312 10.633 21.9737C10.6365 22.0163 10.6259 22.1013 10.5555 22.1687ZM7.69208 0.555658C6.94893 -0.185219 5.65283 -0.185219 4.90969 0.555658L0.574088 4.89457C0.204277 5.26678 0 5.75952 0 6.2877C0 6.81589 0.204277 7.30863 0.574088 7.68084L20.3044 27.4257C20.6742 27.7979 21.1708 28 21.6956 28C22.2204 28 22.717 27.7944 23.0868 27.4257L27.4259 23.0833C27.7957 22.7111 28 22.2183 28 21.6901C28 21.162 27.7957 20.6692 27.4259 20.297L7.69208 0.555658ZM26.2284 21.8887L21.8928 26.2311C21.8224 26.302 21.7379 26.3126 21.6956 26.3126C21.6533 26.3126 21.5688 26.302 21.4984 26.2311L1.76805 6.48622C1.69761 6.41532 1.68704 6.33024 1.68704 6.2877C1.68704 6.24517 1.69761 6.16009 1.76805 6.08919L6.10365 1.74673C6.17409 1.67584 6.25862 1.6652 6.30088 1.6652C6.34314 1.6652 6.42767 1.67584 6.49811 1.74673L7.08629 2.33518L5.07522 4.35221C4.74415 4.68188 4.74415 5.21716 5.07522 5.54683C5.24076 5.70989 5.4556 5.79497 5.67044 5.79497C5.88528 5.79497 6.10365 5.71344 6.26566 5.54683L8.28025 3.5298L9.25937 4.51173L8.38943 5.38376C8.06189 5.71344 8.06189 6.24871 8.38943 6.57838C8.55497 6.74145 8.76981 6.82652 8.98465 6.82652C9.1995 6.82652 9.41786 6.74499 9.57987 6.57838L10.4498 5.70635L11.4289 6.68827L9.41434 8.7053C9.08327 9.03497 9.08327 9.57025 9.41434 9.89992C9.57987 10.063 9.79472 10.1481 10.0096 10.1481C10.2244 10.1481 10.4392 10.0665 10.6048 9.89992L12.6194 7.88289L13.602 8.86482L12.7321 9.73686C12.4045 10.0665 12.4045 10.6018 12.7321 10.9315C12.8976 11.0981 13.1125 11.1796 13.3273 11.1796C13.5421 11.1796 13.7605 11.0981 13.9225 10.9315L14.7925 10.0594L15.7751 11.0414L13.7605 13.0584C13.433 13.3881 13.433 13.9233 13.7605 14.253C13.926 14.4161 14.1409 14.5012 14.3557 14.5012C14.5706 14.5012 14.7889 14.4196 14.9509 14.253L16.9655 12.236L17.9482 13.2179L17.0782 14.09C16.7507 14.4196 16.7507 14.9549 17.0782 15.2846C17.2438 15.4512 17.4586 15.5327 17.6735 15.5327C17.8883 15.5327 18.1067 15.4512 18.2687 15.2846L19.1386 14.4125L20.1177 15.3945L18.1031 17.4115C17.7721 17.7412 17.7721 18.2764 18.1031 18.6061C18.2687 18.7727 18.4835 18.8542 18.6984 18.8542C18.9132 18.8542 19.1281 18.7727 19.2936 18.6061L21.3082 16.5891L22.2873 17.571L21.4174 18.443C21.0898 18.7727 21.0898 19.308 21.4174 19.6377C21.5829 19.8007 21.7977 19.8858 22.0126 19.8858C22.2274 19.8858 22.4458 19.8043 22.6078 19.6377L23.4777 18.7656L24.4604 19.7476L22.4458 21.7646C22.1147 22.0943 22.1147 22.6295 22.4458 22.9592C22.6113 23.1223 22.8262 23.2073 23.041 23.2073C23.2558 23.2073 23.4742 23.1258 23.6362 22.9592L25.6508 20.9422L26.2108 21.5058C26.2813 21.5767 26.2918 21.6618 26.2918 21.7043C26.2918 21.7469 26.2989 21.8178 26.2284 21.8887Z" fill="black"/>
</svg>
