<svg width="228" height="76" viewBox="0 0 228 76" fill="none" xmlns="http://www.w3.org/2000/svg">
<path d="M77.2213 44.4917C74.5915 44.4917 72.1275 43.3782 69.8886 41.5657L70.4335 39.007L70.4572 38.9122C70.9429 36.1876 72.4829 31.6151 77.2213 31.6151C80.7751 31.6151 83.6655 34.5055 83.6655 38.0593C83.6537 41.6013 80.7633 44.4917 77.2213 44.4917ZM77.2213 25.0879C71.168 25.0879 66.477 29.0208 64.5697 35.4887C61.6556 31.1175 59.4523 25.8697 58.161 21.4512H51.6457V38.4028C51.6457 41.7434 48.9211 44.468 45.5806 44.468C42.24 44.468 39.5154 41.7434 39.5154 38.4028V21.4512H33.0001V38.4028C32.9764 45.3446 38.6269 51.0426 45.5687 51.0426C52.5105 51.0426 58.161 45.3446 58.161 38.4028V35.5598C59.4286 38.2015 60.9804 40.8668 62.8639 43.236L58.8718 62.0001H65.5411L68.4316 48.389C70.9666 50.012 73.8807 51.0307 77.2213 51.0307C84.3645 51.0307 90.1809 45.1788 90.1809 38.0356C90.1809 30.9043 84.3645 25.0879 77.2213 25.0879Z" fill="white"/>
<path d="M110.074 25.8223L114.28 42.774L118.912 25.8223H124.432L117.312 50.3199H111.792L107.421 33.2616L103.062 50.3081H97.5413L90.4219 25.8105H95.9421L100.574 42.7622L104.779 25.8105H110.074V25.8223ZM137.64 25.0879C130.473 25.0879 124.669 30.9043 124.669 38.0593C124.669 45.2261 130.485 51.0307 137.64 51.0307C144.807 51.0307 150.623 45.2261 150.623 38.0593C150.623 30.8924 144.807 25.0879 137.64 25.0879ZM137.64 45.7C133.423 45.7 130.011 42.2883 130.011 38.0711C130.011 33.8539 133.435 30.4423 137.64 30.4423C141.857 30.4423 145.269 33.8539 145.269 38.0711C145.269 42.2765 141.857 45.7 137.64 45.7ZM166.39 31.307C162.683 31.307 159.686 34.3159 159.686 38.0119V50.3081H154.13V25.8223H159.686V29.5894C159.686 29.5894 162.055 25.8105 166.924 25.8105H168.629V31.307H166.39ZM185.036 37.1116C188.981 34.8845 191.658 30.6555 191.658 25.8105H186.102C186.102 29.8974 182.785 33.2143 178.698 33.2143H177.952V14H172.396V50.3081H177.952V38.77H178.616C179.16 38.77 179.871 39.1254 180.191 39.5637L188.081 50.3081H194.738L185.036 37.1116Z" fill="black"/>
</svg>
