<svg width="49" height="42" viewBox="0 0 49 42" fill="none" xmlns="http://www.w3.org/2000/svg">
<path fill-rule="evenodd" clip-rule="evenodd" d="M0 5.59033C-4.70532e-09 5.27057 0.0621953 4.95394 0.183035 4.65852C0.303874 4.36309 0.480991 4.09467 0.704274 3.86856C0.927556 3.64245 1.19263 3.4631 1.48436 3.34073C1.7761 3.21836 2.08877 3.15538 2.40454 3.15538C2.72031 3.15538 3.03299 3.21836 3.32472 3.34073C3.61645 3.4631 3.88153 3.64245 4.10481 3.86856C4.32809 4.09467 4.50521 4.36309 4.62605 4.65852C4.74689 4.95394 4.80908 5.27057 4.80908 5.59033V37.1196H46.5955C47.2337 37.1196 47.8458 37.3764 48.2971 37.8334C48.7484 38.2904 49.002 38.9103 49.002 39.5566C49.002 40.2029 48.7484 40.8228 48.2971 41.2798C47.8458 41.7368 47.2337 41.9936 46.5955 41.9936H0V5.59033ZM40.634 2.88079L39.4377 1.31402C39.3475 1.21195 39.2845 1.08836 39.2545 0.954858C39.2245 0.821354 39.2285 0.68232 39.2662 0.55082C39.4775 -0.0831577 40.1953 -0.00643427 40.7097 0.0137561C42.1652 0.118746 45.3832 0.352954 46.1329 0.381221C46.2563 0.377396 46.3789 0.402636 46.491 0.454953C46.6032 0.507271 46.7018 0.585237 46.7791 0.682712C46.8564 0.780186 46.9103 0.894507 46.9366 1.01667C46.9628 1.13883 46.9607 1.2655 46.9304 1.3867C46.7789 2.15393 46.2964 5.64687 46.0452 7.04C45.9574 7.52457 45.8139 8.15855 45.2038 8.20297C45.0695 8.20766 44.9362 8.17792 44.8163 8.1165C44.6964 8.05509 44.5937 7.96398 44.5179 7.85166L43.3216 6.28488L42.8311 5.65494L36.8417 10.2543V10.3593C36.8417 11.3296 36.4611 12.2601 35.7836 12.9462C35.106 13.6323 34.1871 14.0178 33.2289 14.0178C32.2708 14.0178 31.3518 13.6323 30.6743 12.9462C29.9968 12.2601 29.6161 11.3296 29.6161 10.3593C29.6161 10.2785 29.6161 10.1978 29.6161 10.117L25.4331 7.05212C24.7853 7.50593 24.0086 7.73264 23.2217 7.69765C22.4347 7.66265 21.6807 7.36787 21.0746 6.85829L17.0072 9.78993C17.0937 10.0975 17.1406 10.4151 17.1468 10.7348C17.1429 11.5168 16.89 12.2767 16.4257 12.9015C15.9614 13.5264 15.3104 13.9829 14.5695 14.2033C13.8286 14.4237 13.0372 14.3962 12.3129 14.1249C11.5887 13.8536 10.9701 13.353 10.5492 12.6974C10.1282 12.0418 9.92735 11.2662 9.97636 10.4858C10.0254 9.70534 10.3216 8.96174 10.8212 8.36541C11.3207 7.76907 11.9969 7.35181 12.7493 7.1756C13.5017 6.99938 14.2901 7.07362 14.9975 7.38728L19.7826 3.93876C19.8671 3.02332 20.2888 2.17363 20.9639 1.55881C21.639 0.943984 22.5179 0.609102 23.4258 0.62081C24.3336 0.632518 25.2039 0.989959 25.8633 1.62199C26.5227 2.25403 26.9229 3.11431 26.9843 4.03164C26.9843 4.1124 26.9843 4.19316 26.9843 4.26989L31.1753 7.33882C31.7949 6.90275 32.5339 6.67411 33.2884 6.68497C34.0429 6.69584 34.7751 6.94566 35.3822 7.39939L40.8652 3.17961L40.634 2.88079ZM40.5981 12.3218H45.5786C45.7165 12.3218 45.8487 12.377 45.9466 12.4753C46.0444 12.5736 46.0999 12.7072 46.101 12.8468V32.4476C46.1 32.5875 46.0446 32.7215 45.9468 32.8204C45.8491 32.9194 45.7168 32.9755 45.5786 32.9765H40.5981C40.5295 32.9765 40.4615 32.9629 40.3982 32.9363C40.3348 32.9097 40.2772 32.8707 40.2287 32.8216C40.1802 32.7725 40.1417 32.7142 40.1154 32.65C40.0892 32.5858 40.0757 32.517 40.0757 32.4476V12.8468C40.0767 12.7072 40.1322 12.5736 40.2301 12.4753C40.3279 12.377 40.4602 12.3218 40.5981 12.3218ZM30.7406 19.0371H35.7212C35.7898 19.0371 35.8577 19.0508 35.9211 19.0774C35.9845 19.104 36.0421 19.1429 36.0906 19.1921C36.1391 19.2412 36.1776 19.2995 36.2038 19.3637C36.2301 19.4279 36.2436 19.4966 36.2436 19.5661V32.4476C36.2425 32.5875 36.1872 32.7215 36.0894 32.8204C35.9917 32.9194 35.8594 32.9755 35.7212 32.9765H30.7406C30.672 32.9765 30.6041 32.9629 30.5407 32.9363C30.4774 32.9097 30.4198 32.8707 30.3713 32.8216C30.3228 32.7725 30.2843 32.7142 30.258 32.65C30.2318 32.5858 30.2183 32.517 30.2183 32.4476V19.5661C30.2183 19.4258 30.2733 19.2913 30.3713 19.1921C30.4692 19.0929 30.6021 19.0371 30.7406 19.0371ZM20.8792 12.3218H25.8638C26.0013 12.3218 26.1331 12.3771 26.2303 12.4756C26.3275 12.574 26.3822 12.7075 26.3822 12.8468V32.4476C26.3811 32.5868 26.3263 32.7202 26.2294 32.819C26.1325 32.9179 26.0013 32.9744 25.8638 32.9765H20.8792C20.741 32.9755 20.6087 32.9194 20.511 32.8204C20.4133 32.7215 20.3579 32.5875 20.3569 32.4476V12.8468C20.3579 12.7072 20.4134 12.5736 20.5113 12.4753C20.6091 12.377 20.7414 12.3218 20.8792 12.3218ZM11.0218 20.1193H16.0024C16.071 20.1193 16.1389 20.133 16.2023 20.1596C16.2656 20.1862 16.3232 20.2251 16.3717 20.2743C16.4202 20.3234 16.4587 20.3817 16.485 20.4459C16.5112 20.5101 16.5247 20.5788 16.5247 20.6483V32.4476C16.5237 32.5875 16.4683 32.7215 16.3706 32.8204C16.2728 32.9194 16.1406 32.9755 16.0024 32.9765H11.0218C10.9532 32.9765 10.8853 32.9629 10.8219 32.9363C10.7585 32.9097 10.7009 32.8707 10.6524 32.8216C10.6039 32.7725 10.5654 32.7142 10.5392 32.65C10.5129 32.5858 10.4994 32.517 10.4994 32.4476V20.6483C10.4994 20.508 10.5545 20.3735 10.6524 20.2743C10.7504 20.1751 10.8833 20.1193 11.0218 20.1193Z" fill="#BB6BC0"/>
</svg>
