<svg width="86" height="65" viewBox="0 0 86 65" fill="none" xmlns="http://www.w3.org/2000/svg">
<path d="M37.9102 0L24.7469 45.3083L20.0082 26.4879C25.8585 26.4879 30.6558 28.1725 34.4 31.5416C38.1442 34.9106 40.0163 39.5577 40.0163 45.4826C40.0163 51.4075 38.0857 56.1707 34.2245 59.7721C30.4803 63.2574 25.7415 65 20.0082 65C14.2748 65 9.47755 63.2574 5.61633 59.7721C1.87211 56.1707 0 51.4075 0 45.4826C0 43.8561 0.117007 42.2297 0.351021 40.6032C0.702041 38.9768 1.28707 37.0018 2.10612 34.6783C2.92517 32.3548 4.15374 29.3342 5.79184 25.6166L17.0245 0H37.9102ZM83.8939 0L70.7306 45.3083L65.9918 26.4879C71.8422 26.4879 76.6395 28.1725 80.3837 31.5416C84.1279 34.9106 86 39.5577 86 45.4826C86 51.4075 84.0694 56.1707 80.2082 59.7721C76.4639 63.2574 71.7252 65 65.9918 65C60.2585 65 55.4612 63.2574 51.6 59.7721C47.8558 56.1707 45.9837 51.4075 45.9837 45.4826C45.9837 43.8561 46.1007 42.2297 46.3347 40.6032C46.6857 38.9768 47.2707 37.0018 48.0898 34.6783C48.9088 32.3548 50.1374 29.3342 51.7755 25.6166L63.0082 0H83.8939Z" fill="white" fill-opacity="0.05"/>
</svg>
