<svg width="114" height="38" viewBox="0 0 114 38" fill="none" xmlns="http://www.w3.org/2000/svg">
<path d="M16.0825 9.22128C18.3113 9.22128 20.1179 11.0298 20.1179 13.2607V29.3602H4.0352C1.80641 29.3602 0 27.5517 0 25.3207V20.8128C0 18.5818 1.80663 16.7733 4.0352 16.7733H8.38234V23.1714C8.38246 23.4775 8.50396 23.7709 8.72015 23.9874C8.93634 24.2038 9.22952 24.3254 9.53525 24.3255H11.7353V15.4099C11.7351 15.1038 11.6136 14.8104 11.3974 14.594C11.1812 14.3777 10.8881 14.2561 10.5824 14.256H0.288117V9.22128H16.0825ZM35.2055 24.3255L35.2057 0.830078H43.5883V29.3602H27.5058C25.2773 29.3602 23.4706 27.5517 23.4706 25.3207V13.2607C23.4706 11.0298 25.2773 9.22128 27.5058 9.22128H31.8525V23.1714C31.8527 23.4775 31.9742 23.7709 32.1903 23.9874C32.4065 24.2038 32.6997 24.3254 33.0054 24.3255H35.2055ZM58.6762 24.3255V9.22128H67.0589V33.711C67.0589 35.9422 65.2523 37.7505 63.0237 37.7505H47.2294V31.8778H58.6764V29.3602H50.9763C48.7477 29.3602 46.9411 27.5517 46.9411 25.3207V9.22128H55.3232V23.1714C55.3233 23.4775 55.4448 23.7709 55.661 23.9874C55.8772 24.2038 56.1704 24.3254 56.4761 24.3255H58.6762ZM86.4942 9.22128C88.7227 9.22128 90.5294 11.0298 90.5294 13.2607V17.7687C90.5294 19.9999 88.7227 21.8082 86.4942 21.8082H82.1468V15.4103C82.1468 15.2587 82.117 15.1086 82.0591 14.9686C82.0012 14.8286 81.9162 14.7013 81.8092 14.5941C81.7021 14.487 81.575 14.402 81.4351 14.344C81.2952 14.286 81.1453 14.2561 80.9939 14.2562H78.794V23.1714C78.7942 23.4775 78.9157 23.7709 79.1319 23.9874C79.348 24.2038 79.6412 24.3254 79.947 24.3255H90.241V29.3602H74.4469C72.2183 29.3602 70.4117 27.5517 70.4117 25.3207V9.22128H86.4942ZM109.965 9.22128C112.194 9.22128 114 11.0298 114 13.2607V29.3602H105.618V15.4101C105.618 14.7753 105.099 14.256 104.465 14.256H102.265V29.3602H93.8821V9.22128H109.965Z" fill="#32AA52"/>
</svg>
