<svg width="114" height="114" viewBox="0 0 114 114" fill="none" xmlns="http://www.w3.org/2000/svg">
<path d="M66.5 47.5059H47.5V66.5059H66.5V47.5059Z" fill="black"/>
<path fill-rule="evenodd" clip-rule="evenodd" d="M23.75 42.7559C23.75 37.7167 25.7518 32.884 29.315 29.3208C32.8782 25.7576 37.7109 23.7559 42.75 23.7559H71.25C76.2891 23.7559 81.1218 25.7576 84.685 29.3208C88.2482 32.884 90.25 37.7167 90.25 42.7559V71.2559C90.25 76.295 88.2482 81.1277 84.685 84.6909C81.1218 88.2541 76.2891 90.2559 71.25 90.2559H42.75C37.7109 90.2559 32.8782 88.2541 29.315 84.6909C25.7518 81.1277 23.75 76.295 23.75 71.2559V42.7559ZM42.75 38.0059H71.25C72.5098 38.0059 73.718 38.5063 74.6088 39.3971C75.4996 40.2879 76 41.4961 76 42.7559V71.2559C76 72.5156 75.4996 73.7238 74.6088 74.6146C73.718 75.5054 72.5098 76.0059 71.25 76.0059H42.75C41.4902 76.0059 40.282 75.5054 39.3912 74.6146C38.5004 73.7238 38 72.5156 38 71.2559V42.7559C38 41.4961 38.5004 40.2879 39.3912 39.3971C40.282 38.5063 41.4902 38.0059 42.75 38.0059Z" fill="black"/>
</svg>
