<svg width="67" height="68" viewBox="0 0 67 68" fill="none" xmlns="http://www.w3.org/2000/svg">
<path d="M8.375 0.830078C6.15381 0.830078 4.0236 1.71244 2.45298 3.28306C0.882364 4.85368 0 6.98389 0 9.20508L0 59.4551C0 61.6763 0.882364 63.8065 2.45298 65.3771C4.0236 66.9477 6.15381 67.8301 8.375 67.8301H58.625C60.8462 67.8301 62.9764 66.9477 64.547 65.3771C66.1176 63.8065 67 61.6763 67 59.4551V9.20508C67 6.98389 66.1176 4.85368 64.547 3.28306C62.9764 1.71244 60.8462 0.830078 58.625 0.830078L8.375 0.830078ZM34.4464 23.3798C32.0009 23.3798 30.5227 24.0665 30.5227 25.863C30.5227 27.8227 33.0645 28.6853 36.2177 29.7573C41.3599 31.4951 48.1269 33.7899 48.1562 42.2905C48.1562 50.5273 41.5568 55.2676 31.9506 55.2676C27.6171 55.2494 23.3317 54.3579 19.3504 52.6462V41.6917C23.2281 43.8106 28.1233 45.3767 31.9548 45.3767C34.5385 45.3767 36.3852 44.6858 36.3852 42.5669C36.3852 40.3978 33.6298 39.4053 30.3008 38.2077C25.2339 36.382 18.8438 34.0788 18.8438 26.4157C18.8438 18.271 25.0747 13.3926 34.4464 13.3926C38.3628 13.3575 42.2495 14.0755 45.895 15.5073V26.3236C42.3859 24.4392 37.9555 23.3798 34.4464 23.3798Z" fill="#6772E5"/>
</svg>
