<svg width="74" height="75" viewBox="0 0 74 75" fill="none" xmlns="http://www.w3.org/2000/svg">
<path fill-rule="evenodd" clip-rule="evenodd" d="M46.3295 52.9563C33.2697 52.9563 30.5318 47.4754 30.5318 42.8736C30.5318 42.437 30.9163 42.0854 31.3936 42.0854H35.2519C35.6762 42.0854 36.0341 42.3704 36.1004 42.7523C36.6838 46.3477 38.4141 48.1605 46.3163 48.1605C52.6075 48.1605 55.2792 46.863 55.2792 43.8073C55.2792 42.049 54.5168 40.7455 44.7451 39.8724C36.5711 39.1327 31.5196 37.4897 31.5196 31.5056C31.5196 26.0004 36.5976 22.7203 45.1097 22.7203C54.6693 22.7203 59.4026 25.7518 59.9993 32.2755C60.0192 32.4999 59.933 32.7181 59.7672 32.8818C59.6015 33.0395 59.3695 33.1365 59.1308 33.1365H55.2593C54.8549 33.1365 54.5035 32.8758 54.424 32.5241C53.4892 28.7469 51.2353 27.5343 45.0965 27.5343C38.2285 27.5343 37.4329 29.723 37.4329 31.36C37.4329 33.3487 38.3743 33.9307 47.6422 35.0524C56.8172 36.168 61.1727 37.7383 61.1727 43.6375C61.1727 49.5853 55.7499 52.9926 46.2898 52.9926L46.3295 52.9563ZM37.1081 74.6616C36.0143 74.6616 34.9337 74.4009 33.979 73.8977L24.0151 68.5017C22.5235 67.7377 23.2527 67.471 23.7433 67.3133C25.7255 66.6767 26.1299 66.5373 28.2513 65.4338C28.4767 65.3186 28.7684 65.3611 28.9938 65.4823L36.6507 69.6354C36.9291 69.7749 37.3202 69.7749 37.5788 69.6354L67.4308 53.8778C67.7092 53.7323 67.8882 53.4413 67.8882 53.1382V21.6411C67.8882 21.3259 67.7092 21.047 67.4242 20.8893L37.5788 5.14385C37.3004 4.99228 36.9357 4.99228 36.6573 5.14385L6.8252 20.8893C6.5335 21.0409 6.35451 21.3319 6.35451 21.6351V53.1382C6.35451 53.4413 6.5335 53.7263 6.81857 53.8718L14.9926 58.1886C19.4276 60.2197 22.1456 57.8248 22.1456 55.4239V24.327C22.1456 23.8844 22.5235 23.5388 23.0141 23.5388H26.7928C27.2635 23.5388 27.6546 23.8784 27.6546 24.327V55.436C27.6546 60.8502 24.4261 63.9545 18.8177 63.9545C17.0941 63.9545 15.7284 63.9545 11.9364 62.2447L4.0939 58.1158C2.15813 57.0912 0.964844 55.1814 0.964844 53.1382V21.6351C0.964844 19.5858 2.15813 17.6699 4.0939 16.6574L33.9724 0.893722C35.8618 -0.0824126 38.3743 -0.0824126 40.2504 0.893722L70.0958 16.6635C72.0249 17.682 73.2248 19.5858 73.2248 21.6411V53.1442C73.2248 55.1874 72.0249 57.0912 70.0958 58.1219L40.2504 73.8856C39.2958 74.3888 38.2086 74.6495 37.1081 74.6495V74.6616Z" fill="#689F63"/>
</svg>
