<svg width="83" height="72" viewBox="0 0 83 72" fill="none" xmlns="http://www.w3.org/2000/svg">
<path d="M81.7973 67.1398L43.9396 1.56953C43.4388 0.699093 42.5068 0.161621 41.502 0.161621C40.4971 0.161621 39.5703 0.698437 39.0669 1.56953L1.20665 67.1398C0.70195 68.0102 0.70195 68.9816 1.20665 69.854C1.71069 70.7245 2.63882 71.1564 3.64363 71.1564H79.3623C80.3677 71.1564 81.2926 70.7245 81.7973 69.854C82.302 68.9816 82.302 68.0102 81.7973 67.1398ZM57.7107 61.847L57.8123 59.0049L46.8885 60.9346L46.3916 60.4764L46.5326 56.7364H46.2474C46.2474 56.7364 43.254 61.6871 36.6241 61.6871C31.7062 61.6871 27.0728 59.7207 27.0728 51.7399C27.0728 43.6818 33.1305 41.0055 39.4753 41.0055H46.0901V37.6942C46.0901 34.4857 43.9586 32.6334 39.9662 32.6334C35.4751 32.6334 30.1305 33.3459 30.1305 33.3459L29.7038 32.8465V27.4291C29.7038 27.4291 35.4397 26.7173 41.3604 26.7173C46.7777 26.7173 53.3001 28.1429 53.3001 36.1263V54.4967L56.987 53.8046L55.9678 51.1454L65.0832 55.1397L57.7107 61.847ZM33.9865 51.2044C33.9865 54.911 36.5448 55.7133 39.0388 55.7133C41.3918 55.7133 44.1238 55.088 46.0901 52.1653V46.2492H41.3302C36.4799 46.2492 33.9865 47.3543 33.9865 51.2044Z" fill="#AC162C"/>
</svg>
