<svg width="73" height="73" viewBox="0 0 73 73" fill="none" xmlns="http://www.w3.org/2000/svg">
<path fill-rule="evenodd" clip-rule="evenodd" d="M36.5011 20.0337C27.4157 20.0337 20.0356 27.4079 20.0356 36.4992C20.0356 45.5964 27.4098 52.9706 36.5011 52.9706C45.5983 52.9706 52.9725 45.5964 52.9725 36.4992C52.9666 27.4079 45.5924 20.0396 36.5011 20.0337ZM69.3909 21.5274L69.0734 20.8393L68.5794 21.4156C67.3504 22.8093 65.792 23.8855 64.0514 24.5323L63.5574 24.7087L63.7515 25.2027C65.2451 28.7957 66.0155 32.6592 66.0155 36.5404C66.0155 52.8471 52.7902 66.0842 36.4776 66.0842C20.165 66.0842 6.94553 52.8471 6.94553 36.5345C6.94553 20.2219 20.1709 6.99657 36.4835 6.99657C40.8703 6.99657 45.1925 7.97273 49.156 9.85451L49.6147 10.0721L49.8087 9.57812C50.5438 7.87865 51.6964 6.37323 53.1489 5.21476L53.7311 4.7208L53.0666 4.37385C47.9858 1.73349 42.3228 0.351562 36.5834 0.351562C36.5658 0.351562 36.5246 0.351562 36.4893 0.351562C16.5484 0.351562 0.371094 16.5289 0.371094 36.4816C0.371094 56.4342 16.5602 72.6116 36.5011 72.6116C56.4596 72.6116 72.6311 56.4342 72.6311 36.4816C72.6311 31.3067 71.5256 26.1847 69.3733 21.4862L69.3909 21.5274ZM67.6444 13.9885C67.6444 9.84863 64.2925 6.49084 60.1467 6.49084C56.0068 6.49084 52.649 9.84863 52.649 13.9885C52.649 18.1402 56.0068 21.498 60.1467 21.498C64.2984 21.498 67.6444 18.1343 67.6444 13.9885Z" fill="#478AFF"/>
</svg>
