<svg width="75" height="82" viewBox="0 0 75 82" fill="none" xmlns="http://www.w3.org/2000/svg">
<g clip-path="url(#clip0_3308_2266)">
<path d="M71.0612 12.2358C70.8198 5.99213 65.282 4.68248 65.282 4.68248C65.282 4.68248 46.0881 1.81613 37.6796 0.77561C29.2685 -0.270422 29.792 7.80722 29.792 7.80722C29.792 7.80722 31.7021 66.6803 31.9004 73.9726C32.1257 82.6605 40.3089 81.2623 40.3089 81.2623L69.227 76.3065C74.4855 75.2634 74.746 68.7561 74.746 68.7561C74.746 68.7561 71.3301 19.052 71.0612 12.2358C71.3298 19.052 70.8198 5.99213 71.0612 12.2358ZM64.5927 62.2465L43.0899 64.4538C43.0899 64.4538 36.8277 65.4003 36.6868 57.8606C36.5837 52.3055 35.3436 20.4853 35.3436 20.4853C35.3436 20.4853 34.912 14.6504 41.3562 15.1289C47.9331 15.6128 63.6921 16.8014 63.6921 16.8014C63.6921 16.8014 67.9113 17.7964 68.0956 22.5611C68.2936 27.7399 70.1143 56.5001 70.1143 56.5001C70.1143 56.5001 70.5889 61.2272 64.5927 62.2465ZM11.9524 53.6686L7.97993 53.9485C7.97993 53.9485 3.97228 54.4862 3.88029 50.1409C3.81526 46.9386 3.41361 28.7615 3.41361 28.7615C3.41361 28.7615 3.13677 25.3979 7.25838 25.6722C8.30306 25.7393 9.78425 25.8334 11.4204 25.9303C11.3636 22.9159 11.315 20.2806 11.2769 18.2751C9.0085 18.1055 6.88662 17.9226 5.36998 17.7641C-0.0757953 17.1698 0.257883 21.7006 0.257883 21.7006C0.257883 21.7006 0.914985 55.0375 1.03715 59.1246C1.18656 63.9968 6.47999 63.2063 6.47999 63.2063L12.1317 62.6068C12.0828 60.1893 12.0175 57.1081 11.9527 53.6689L11.9524 53.6686ZM27.7519 23.3676C27.7362 22.9745 27.6697 22.585 27.5538 22.2087C25.8146 22.069 21.4486 20.9423 20.0489 22.4078C19.1615 23.3302 19.5277 25.2742 19.5494 26.3794L22.716 26.5565C22.716 26.5565 25.4156 27.1294 25.5324 29.872C25.6572 32.8624 25.6408 49.6111 25.6408 49.6111C25.6408 49.6111 25.9446 52.343 22.1136 52.9213L20.1031 53.0694C20.1139 53.6634 20.1247 54.1421 20.13 54.4969C20.2144 59.2727 25.3397 57.7427 28.5549 57.4332C28.8317 52.3674 28.3404 47.1483 28.2268 42.0798C28.0882 35.8443 28.0366 29.598 27.7519 23.3676C27.9253 27.1804 27.7328 22.9429 27.7519 23.3676Z" fill="#012F69"/>
<path d="M29.4127 59.3906L23.6198 59.9446C23.6198 59.9446 18.2177 60.7133 18.1011 54.5451C18.017 49.9929 17.4742 24.1902 17.4742 24.1902C17.4742 24.1902 17.0998 19.4202 22.6431 19.8019C24.0675 19.8989 26.0267 20.0574 28.1595 20.227C27.9992 15.2767 27.8715 11.3721 27.8065 9.36108C24.8871 9.07859 22.1357 8.79379 20.1008 8.56269C12.7746 7.73934 13.2363 14.1578 13.2363 14.1578C13.2363 14.1578 14.1072 61.4876 14.278 67.2714C14.476 74.1846 21.604 73.0741 21.604 73.0741L29.8062 72.0333C29.7247 69.342 29.5865 64.8217 29.4127 59.3903V59.3906ZM41.1993 17.14C40.1739 17.0593 38.9283 17.1266 38.1686 17.9198C37.3654 18.7533 37.3519 19.9364 37.3982 21.0065C40.304 21.2568 42.4121 21.442 42.4121 21.442C42.4121 21.442 46.0424 22.2517 46.208 26.1504C46.3761 30.3909 47.4155 53.432 47.4155 53.432C47.4155 53.432 47.8224 57.3067 42.6617 58.1428L38.7546 58.5139C39.2731 64.5665 47.1712 62.0122 51.2111 61.5982C50.7962 52.4963 49.5102 24.3464 49.2198 17.7369C46.547 17.5292 43.8735 17.3302 41.1993 17.14C43.2315 17.2822 40.9986 17.124 41.1993 17.14Z" fill="#012F69"/>
</g>
<defs>
<clipPath id="clip0_3308_2266">
<rect width="75" height="81" fill="white" transform="translate(0 0.432129)"/>
</clipPath>
</defs>
</svg>
