<svg width="84" height="76" viewBox="0 0 84 76" fill="none" xmlns="http://www.w3.org/2000/svg">
<path fill-rule="evenodd" clip-rule="evenodd" d="M24.3207 0.633301C22.0624 0.639372 19.8526 1.92638 18.7174 3.88118L1.03308 34.6845C-0.0839448 36.6514 -0.0839448 39.2194 1.03308 41.1863L18.7174 71.9835C19.8526 73.9444 22.0624 75.2314 24.3207 75.2314H59.6832C61.9415 75.2253 64.1513 73.9383 65.2865 71.9835L82.9708 41.1863C84.0878 39.2194 84.0878 36.6514 82.9708 34.6845L65.2926 3.88118C64.1574 1.92031 61.9476 0.633301 59.6893 0.633301H24.3207ZM24.6425 18.6515C24.691 18.6454 24.7396 18.6454 24.7882 18.6515H30.8893C31.1625 18.6575 31.4236 18.8154 31.5571 19.0461L41.9018 37.5378C41.9564 37.6288 41.9868 37.732 41.9989 37.8352C42.0111 37.732 42.0475 37.6288 42.096 37.5378L52.4164 19.0461C52.5561 18.8032 52.8292 18.6454 53.1085 18.6515H59.2097C59.75 18.6575 60.1567 19.3375 59.9017 19.8171L49.806 37.9324L59.9078 56.0234C60.1871 56.503 59.7682 57.2193 59.2157 57.2133H53.1146C52.8292 57.2133 52.5561 57.0433 52.4225 56.7944L42.1021 38.3027C42.0475 38.2116 42.0171 38.1084 42.005 38.0052C41.9928 38.1084 41.9564 38.2116 41.9079 38.3027L31.5571 56.7944C31.4296 57.0372 31.1625 57.2072 30.8893 57.2133H24.7942C24.2418 57.2193 23.8229 56.503 24.1022 56.0234L34.204 37.9324L24.1022 19.8171C23.8593 19.38 24.1507 18.7425 24.6425 18.6515Z" fill="#3498DB"/>
</svg>
