<svg width="50" height="49" viewBox="0 0 50 49" fill="none" xmlns="http://www.w3.org/2000/svg">
<path d="M41.0195 0.43457H8.28906C3.79636 0.43457 0.154297 4.08793 0.154297 8.59457V40.1978C0.154297 44.7044 3.79636 48.3578 8.28906 48.3578H41.0195C45.5122 48.3578 49.1543 44.7044 49.1543 40.1978V8.59457C49.1543 4.08793 45.5122 0.43457 41.0195 0.43457Z" fill="#470137"/>
<path d="M25.9142 13.0376L19.8001 23.1604L26.3414 33.9096C26.3835 33.9848 26.3952 34.0732 26.3744 34.1569C26.3642 34.1926 26.3424 34.2014 26.3089 34.2028L26.2718 34.2022L26.2266 34.201C26.2021 34.201 26.1747 34.2022 26.1443 34.2072H21.428L21.3354 34.2056C21.0812 34.1989 20.898 34.1624 20.7864 33.9754C20.3501 33.1226 19.9117 32.2709 19.4715 31.4201C19.0777 30.6613 18.6731 29.9081 18.258 29.1608L18.0746 28.8317C17.578 27.9465 17.0904 27.0562 16.6119 26.161H16.5789C16.137 27.0468 15.6822 27.9262 15.2148 28.7987C14.7433 29.6781 14.2776 30.5519 13.8177 31.4201C13.3575 32.2888 12.8863 33.1517 12.4044 34.0084C12.3269 34.1832 12.198 34.2196 12.0187 34.2256L11.944 34.2268H7.44083L7.42131 34.2273L7.35699 34.2331C7.3212 34.2352 7.29976 34.2275 7.29287 34.1734C7.28061 34.093 7.29818 34.0109 7.34225 33.9426L13.6862 23.4901L7.50648 13.005C7.44089 12.9174 7.42992 12.846 7.47356 12.7907C7.49782 12.7625 7.52827 12.7404 7.56252 12.7261C7.59677 12.7118 7.63388 12.7056 7.6709 12.7082H12.3056C12.4067 12.7027 12.5077 12.7196 12.6015 12.7577C12.68 12.8024 12.7476 12.8644 12.7987 12.9391C13.1931 13.8185 13.6314 14.6977 14.1136 15.5768C14.5921 16.4503 15.0797 17.3186 15.5764 18.1817C16.0655 19.0314 16.5205 19.9004 16.9405 20.7866H16.9734C17.4038 19.9006 17.8476 19.0213 18.3047 18.1489C18.7536 17.2915 19.2137 16.4287 19.6851 15.5603C20.1503 14.7032 20.6051 13.8404 21.0492 12.9722C21.0745 12.8908 21.1197 12.817 21.1807 12.7577C21.2619 12.7164 21.3532 12.6992 21.4437 12.7082H25.7498C25.7894 12.6983 25.8311 12.7015 25.8687 12.7175C25.9063 12.7334 25.9377 12.7611 25.9582 12.7965C25.9787 12.8319 25.9872 12.873 25.9824 12.9136C25.9776 12.9543 25.9598 12.9923 25.9316 13.0219L25.9142 13.0376ZM35.5745 34.6325L35.3479 34.6349C33.8349 34.6581 32.3357 34.3428 30.9595 33.7118C29.6774 33.1166 28.6057 32.145 27.8861 30.9255C27.1604 29.7165 26.7881 28.2103 26.7692 26.4068L26.7685 26.2599C26.7561 24.7466 27.1417 23.2567 27.8863 21.9405C28.6315 20.6377 29.7178 19.5644 31.0276 18.8366L31.1404 18.7752C32.5644 17.9837 34.2847 17.588 36.3011 17.588L36.3891 17.589L36.4898 17.5923L36.6027 17.5972L36.7283 17.6045L36.9392 17.6195L37.1781 17.6387L37.3528 17.6541V11.1583C37.3528 11.0046 37.4186 10.9277 37.55 10.9276H41.6918C41.7186 10.9237 41.7459 10.9262 41.7716 10.9347C41.7973 10.9433 41.8206 10.9578 41.8397 10.977C41.8589 10.9961 41.8733 11.0195 41.8818 11.0453C41.8904 11.071 41.8928 11.0984 41.889 11.1253V30.6124C41.889 30.9396 41.9016 31.2919 41.9269 31.6691L41.9881 32.5245L42.0207 33.0193C42.0247 33.0878 42.008 33.1559 41.9728 33.2148C41.9376 33.2737 41.8855 33.3205 41.8233 33.3491C40.7548 33.7961 39.6419 34.1276 38.5034 34.3381C37.5369 34.5172 36.5572 34.6156 35.5745 34.6325ZM37.3528 30.5463V21.5448C37.1752 21.4965 36.9938 21.4634 36.8106 21.4459C36.5867 21.4232 36.3617 21.4122 36.1366 21.4129C35.339 21.4048 34.5507 21.5856 33.8358 21.9405C33.1395 22.2879 32.5449 22.8105 32.11 23.4573C31.676 24.094 31.4517 24.9253 31.4369 25.9514L31.4361 26.0621C31.4202 26.7809 31.5372 27.4963 31.7812 28.1722C31.9799 28.7169 32.294 29.212 32.7019 29.6232C33.0921 30.0015 33.5647 30.2837 34.0823 30.4474C34.629 30.6249 35.2004 30.7141 35.7751 30.7114C36.0817 30.7114 36.3666 30.7004 36.6297 30.6782C36.8396 30.6624 37.0477 30.6277 37.2514 30.5745L37.3528 30.5463Z" fill="#FF61F6"/>
</svg>
