<svg width="54" height="52" viewBox="0 0 54 52" fill="none" xmlns="http://www.w3.org/2000/svg">
<path d="M44.3429 0.0458984H8.92715C4.06586 0.0458984 0.125 3.98675 0.125 8.84805V42.9383C0.125 47.7995 4.06586 51.7404 8.92715 51.7404H44.3429C49.2041 51.7404 53.145 47.7995 53.145 42.9383V8.84805C53.145 3.98675 49.2041 0.0458984 44.3429 0.0458984Z" fill="#330000"/>
<path d="M25.8181 31.0688H17.6021L15.9303 36.2616C15.9075 36.3564 15.8525 36.4402 15.7745 36.4986C15.6966 36.5571 15.6007 36.5865 15.5034 36.5818H11.342C11.1048 36.5818 11.0218 36.4514 11.093 36.1904L18.2066 15.7036C18.2777 15.4902 18.3488 15.2472 18.42 14.9745C18.5132 14.4998 18.5608 14.0177 18.5622 13.5341C18.5574 13.5003 18.5605 13.4658 18.5713 13.4333C18.5821 13.4009 18.6003 13.3715 18.6244 13.3473C18.6486 13.3231 18.678 13.3049 18.7104 13.2941C18.7429 13.2832 18.7773 13.2801 18.8112 13.2849H24.4665C24.6322 13.2849 24.7271 13.3443 24.7511 13.463L32.8248 36.226C32.8959 36.4635 32.8248 36.5821 32.6115 36.5818H27.9876C27.9082 36.5905 27.8284 36.57 27.7629 36.5242C27.6975 36.4785 27.651 36.4104 27.632 36.3329L25.8181 31.0688ZM18.8824 26.5874H24.5021L24.422 26.3229L24.2934 25.9041L24.2016 25.61L24.0552 25.1469L23.7439 24.172L23.4701 23.3078L22.7591 21.0565C22.5821 20.4969 22.4123 19.935 22.2496 19.371L22.1195 18.9133L21.9675 18.3722L21.7356 17.5334L21.6921 17.3753H21.6567C21.4786 18.2291 21.2619 19.0742 21.0072 19.9083L20.4794 21.6058L20.1891 22.5435L19.896 23.4929C19.8431 23.6644 19.7903 23.834 19.7376 24.0016L19.5802 24.4982L19.4236 24.9833L19.2679 25.4563L19.1129 25.9176C19.0616 26.0694 19.0103 26.2193 18.9591 26.367L18.8824 26.5874ZM37.626 17.0551C37.2633 17.0697 36.9015 17.0075 36.5645 16.8726C36.2274 16.7378 35.9226 16.5334 35.6699 16.2727C35.4181 16.0006 35.2224 15.6814 35.0942 15.3335C34.966 14.9856 34.9078 14.6158 34.9228 14.2453C34.9099 13.8785 34.9746 13.5132 35.1125 13.1731C35.2503 12.833 35.4584 12.5258 35.7231 12.2715C36.2336 11.7814 36.9136 11.5072 37.6213 11.5059L37.6971 11.5067C38.5508 11.5067 39.2207 11.7616 39.7069 12.2713C39.9522 12.5363 40.1428 12.847 40.2679 13.1857C40.393 13.5244 40.4501 13.8845 40.4359 14.2453C40.4509 14.6173 40.391 14.9885 40.2596 15.3368C40.1283 15.6851 39.9282 16.0035 39.6712 16.2729C39.4119 16.5284 39.1041 16.7295 38.7659 16.8643C38.4278 16.9991 38.066 17.0649 37.702 17.0578L37.626 17.0551ZM35.1718 36.226V19.2248C35.1716 19.0114 35.2665 18.9046 35.4564 18.9046H39.8313C40.0209 18.9046 40.1158 19.0114 40.1159 19.2248V36.226C40.1159 36.4635 40.021 36.5821 39.8313 36.5818H35.492C35.2898 36.5818 35.1835 36.4754 35.1728 36.2625L35.1718 36.226Z" fill="#FF9A00"/>
</svg>
