<svg width="294" height="439" viewBox="0 0 294 439" fill="none" xmlns="http://www.w3.org/2000/svg">
<path d="M259.206 290.989C218.149 302.236 208.449 299.087 201.132 310.093C200.292 311.356 196.002 317.813 196.86 326.101C197.545 332.704 201.223 337.801 203.537 340.041C217.602 353.656 256.304 337 278.469 318.782C283.301 314.81 296.268 304.155 293.656 296.587C292.586 293.486 289.263 291.945 286.878 290.879C276.334 286.162 265.398 289.293 259.206 290.989Z" fill="url(#paint0_linear_2099_2724)"/>
<path d="M132.441 15.0194H141.18V72.3639H132.441V15.0194Z" fill="url(#paint1_linear_2099_2724)"/>
<path d="M106.638 104.04H166.99C171.44 104.04 175.047 100.433 175.047 95.9826V74.4133C175.047 69.9629 171.44 66.3561 166.99 66.3561H106.638C102.187 66.3561 98.5804 69.9629 98.5804 74.4133V95.9826C98.5822 100.433 102.189 104.04 106.638 104.04Z" fill="url(#paint2_linear_2099_2724)"/>
<path d="M-0.000152588 229.38C-0.000152588 264.217 28.2422 292.459 63.0792 292.459H210.538C245.232 292.459 273.617 264.074 273.617 229.38V196.612C273.617 134.885 223.113 84.3792 161.384 84.3792H112.231C50.5036 84.3792 -0.00189209 134.883 -0.00189209 196.612L-0.000152588 229.38Z" fill="url(#paint3_linear_2099_2724)"/>
<path d="M43.0359 223.406C46.6159 225.176 50.6294 226.103 54.7071 226.103H218.906C222.984 226.103 226.998 225.176 230.578 223.406C239.372 219.059 244.334 210.281 243.092 201.277L243.001 200.622C238.794 170.122 211.17 146.672 177.304 144.91C162.975 144.164 147.937 143.779 132.253 143.87C119.966 143.941 108.09 144.301 96.6541 144.89C62.6591 146.642 34.8323 169.998 30.6084 200.615C30.5781 200.834 30.5477 201.056 30.5174 201.275C29.2777 210.281 34.2419 219.059 43.0359 223.406Z" fill="url(#paint4_linear_2099_2724)"/>
<path d="M180.088 219.382C162.988 219.382 149.126 205.519 149.126 188.419C149.126 171.319 162.988 157.457 180.088 157.457C197.188 157.457 211.051 171.319 211.051 188.419C211.051 205.519 197.188 219.382 180.088 219.382Z" fill="url(#paint5_radial_2099_2724)"/>
<path d="M180.092 210.643C167.819 210.643 157.869 200.693 157.869 188.419C157.869 176.145 167.819 166.195 180.092 166.195C192.366 166.195 202.316 176.145 202.316 188.419C202.316 200.693 192.366 210.643 180.092 210.643Z" fill="#EEFDFF"/>
<path d="M180.089 207.085C169.78 207.085 161.423 198.728 161.423 188.419C161.423 178.111 169.78 169.754 180.089 169.754C190.397 169.754 198.754 178.111 198.754 188.419C198.754 198.728 190.397 207.085 180.089 207.085Z" fill="url(#paint6_linear_2099_2724)"/>
<path d="M168.133 183.582C168.133 187.401 171.228 190.496 175.047 190.496C178.866 190.496 181.961 187.399 181.961 183.582C181.961 179.764 178.866 176.668 175.047 176.668C171.228 176.668 168.133 179.764 168.133 183.582Z" fill="#EEFDFF"/>
<path d="M182.846 205.494C181.322 205.494 180.087 204.258 180.087 202.734C180.087 201.21 181.322 199.975 182.846 199.975C184.37 199.975 185.605 201.21 185.605 202.734C185.605 204.258 184.37 205.494 182.846 205.494Z" fill="#EEFDFF"/>
<path d="M189.688 198.594C189.688 199.356 190.305 199.973 191.066 199.973C191.828 199.973 192.445 199.356 192.445 198.594C192.445 197.832 191.828 197.215 191.066 197.215C190.305 197.215 189.688 197.834 189.688 198.594Z" fill="#EEFDFF"/>
<path d="M96.4436 219.382C79.3434 219.382 65.481 205.519 65.481 188.419C65.481 171.319 79.3434 157.457 96.4436 157.457C113.544 157.457 127.406 171.319 127.406 188.419C127.406 205.519 113.544 219.382 96.4436 219.382Z" fill="url(#paint7_radial_2099_2724)"/>
<path d="M96.444 210.643C84.17 210.643 74.2201 200.693 74.2201 188.419C74.2201 176.145 84.17 166.195 96.444 166.195C108.718 166.195 118.668 176.145 118.668 188.419C118.668 200.693 108.718 210.643 96.444 210.643Z" fill="#EEFDFF"/>
<path d="M96.4401 207.085C86.1315 207.085 77.7748 198.728 77.7748 188.419C77.7748 178.111 86.1315 169.754 96.4401 169.754C106.749 169.754 115.105 178.111 115.105 188.419C115.105 198.728 106.749 207.085 96.4401 207.085Z" fill="url(#paint8_linear_2099_2724)"/>
<path d="M84.483 183.582C84.483 187.401 87.5796 190.496 91.3968 190.496C95.2141 190.496 98.3125 187.399 98.3125 183.582C98.3125 179.764 95.2159 176.668 91.3968 176.668C87.5778 176.668 84.483 179.764 84.483 183.582Z" fill="#EEFDFF"/>
<path d="M99.1975 205.494C97.6735 205.494 96.438 204.258 96.438 202.734C96.438 201.21 97.6735 199.975 99.1975 199.975C100.722 199.975 101.957 201.21 101.957 202.734C101.957 204.258 100.722 205.494 99.1975 205.494Z" fill="#EEFDFF"/>
<path d="M106.047 198.594C106.047 199.356 106.664 199.973 107.426 199.973C108.187 199.973 108.805 199.356 108.805 198.594C108.805 197.832 108.187 197.215 107.426 197.215C106.664 197.215 106.047 197.834 106.047 198.594Z" fill="#EEFDFF"/>
<path d="M125.612 11.1967C125.612 17.3792 130.625 22.3934 136.809 22.3934C142.992 22.3934 148.004 17.381 148.004 11.1967C148.004 5.01417 142.992 0 136.809 0C130.625 0 125.612 5.01238 125.612 11.1967Z" fill="url(#paint9_linear_2099_2724)"/>
<path d="M129.031 6.82636C129.031 8.7118 130.56 10.2387 132.445 10.2387C134.331 10.2387 135.859 8.71002 135.859 6.82636C135.859 4.94092 134.331 3.41223 132.445 3.41223C130.56 3.41402 129.031 4.94092 129.031 6.82636Z" fill="white"/>
<path d="M40.4088 120.278C40.2608 125.504 44.5276 131.756 49.4151 132.289C53.9958 132.791 57.6543 128.11 61.427 123.283C65.1461 118.526 73.2783 106.304 70.039 102.847C65.7704 98.289 40.7602 107.946 40.4088 120.278Z" fill="white"/>
<path d="M82.258 100.353C80.1094 100.353 78.3676 98.611 78.3676 96.4624C78.3676 94.3138 80.1094 92.572 82.258 92.572C84.4066 92.572 86.1484 94.3138 86.1484 96.4624C86.1484 98.611 84.4066 100.353 82.258 100.353Z" fill="white"/>
<path d="M40.9628 192.784C42.2114 193.665 50.9144 175.935 74.2782 160.562C82.4907 155.157 90.5979 151.306 90.1163 150.186C89.6275 149.05 80.4964 151.163 73.1866 154.554C49.8941 165.36 39.4787 191.737 40.9628 192.784Z" fill="white"/>
<path d="M100.788 77.5117C101.067 77.5509 101.245 75.9152 102.608 73.3876C102.608 73.3876 103.245 72.205 103.972 71.2025C106.318 67.9739 114.27 68.0452 114.894 68.0506C127.279 68.1576 135.242 67.3728 135.238 67.4477C135.236 67.5101 129.429 67.3924 125.172 67.3068C113.166 67.0624 106.013 66.4166 102.947 69.6328C101.675 70.967 101.035 72.7044 101.035 72.7044C100.168 75.0626 100.457 77.4635 100.788 77.5117Z" fill="white"/>
<path d="M103.364 239.391C103.667 242.357 106.136 244.642 109.104 244.927L150.12 248.882C153.087 249.167 155.948 247.4 156.813 244.546C157.198 243.277 157.494 241.97 157.696 240.625C157.751 240.254 157.653 239.876 157.421 239.578C157.189 239.282 156.847 239.094 156.472 239.057L104.727 234.066C104.358 234.03 103.992 234.148 103.712 234.391C103.432 234.633 103.266 234.981 103.25 235.35C103.188 236.718 103.229 238.067 103.364 239.391Z" fill="#EEFDFF"/>
<path d="M103.363 239.394C104.675 252.109 114.783 262.562 127.988 263.823C141.013 265.084 152.777 257.007 156.645 245.047C155.612 247.603 152.925 249.16 150.123 248.88L109.096 244.931C106.132 244.637 103.674 242.359 103.363 239.394Z" fill="url(#paint10_linear_2099_2724)"/>
<path d="M38.7376 331.513C38.7376 331.89 38.7376 332.25 38.7537 332.594C38.8839 336.035 39.6884 338.623 40.0808 339.786C51.3702 374.275 58.1361 392.463 67.6221 407.175C69.2596 409.715 70.981 412.155 72.8325 414.547C75.2567 417.742 77.9109 420.855 80.8613 424.067C87.4148 431.195 97.3272 434.422 100.522 435.537C112.204 439.666 122.526 438.912 129.39 438.978H130.587C137.469 438.912 147.774 439.666 159.456 435.537C162.651 434.422 172.579 431.195 179.116 424.067C197.14 404.455 204.07 388.153 219.897 339.786C220.273 338.673 221.028 336.263 221.208 333.036C221.256 332.102 221.274 331.169 221.224 330.234C220.88 324.451 218.538 318.781 214.374 313.604C207.246 304.725 196.237 299.858 184.85 299.808L129.979 299.578L76.1075 299.366C64.4738 299.316 53.2022 304.2 45.8138 313.194C42.241 317.552 39.9648 322.254 39.1283 327.104C39.0141 327.792 38.916 328.497 38.85 329.185C38.7876 329.956 38.7376 330.727 38.7376 331.513Z" fill="url(#paint11_linear_2099_2724)"/>
<path d="M129.989 299.587L184.86 299.817C196.247 299.867 207.257 304.733 214.385 313.613C218.546 318.791 220.888 324.46 221.234 330.243C220.956 324.312 218.514 318.495 214.172 313.203C206.8 304.207 195.511 299.325 183.879 299.375L129.989 299.587Z" fill="url(#paint12_linear_2099_2724)"/>
<path d="M75.459 380.426C76.2599 337.863 82.0197 329.446 73.5254 319.321C72.5497 318.158 67.5676 312.22 59.3748 310.704C52.8462 309.496 46.9205 311.587 44.1165 313.174C27.085 322.823 32.1384 364.654 43.3583 391.061C45.8039 396.819 52.3664 412.264 60.3648 411.895C63.6416 411.743 66.0586 408.989 67.7532 407.004C75.2539 398.219 75.3377 386.842 75.459 380.426Z" fill="url(#paint13_linear_2099_2724)"/>
<path d="M67.6302 407.175C69.2677 409.715 70.989 412.155 72.8406 414.547C73.431 413.941 73.9554 413.334 74.4299 412.778C81.9342 403.996 82.0163 392.625 82.1305 386.203C82.9331 343.637 88.7 335.232 80.1968 325.106C79.5743 324.353 77.2964 321.649 73.5933 319.405C81.9824 329.497 76.2636 337.985 75.4609 380.42C75.3468 386.842 75.2487 398.213 67.7604 407.013C67.7123 407.061 67.6623 407.109 67.6302 407.175Z" fill="url(#paint14_linear_2099_2724)"/>
<path d="M43.6087 344.982C43.8495 340.409 44.7075 337.046 46.4235 330.318C48.6674 321.517 51.4822 317.227 49.6538 315.527C48.4641 314.421 46.1202 315.168 45.5886 315.338C37.5438 317.905 35.0537 332.997 35.3998 342.442C35.612 348.225 37.023 354.691 39.1421 354.977C39.4757 355.021 40.3069 354.978 40.9009 354.452C43.2662 352.363 43.425 348.459 43.6087 344.982Z" fill="white"/>
<path d="M38.0826 361.123C38.0826 362.046 38.8301 362.793 39.7523 362.793C40.6745 362.793 41.4219 362.046 41.4219 361.123C41.4219 360.201 40.6745 359.454 39.7523 359.454C38.8301 359.454 38.0826 360.201 38.0826 361.123Z" fill="white"/>
<defs>
<linearGradient id="paint0_linear_2099_2724" x1="235.84" y1="316.865" x2="76.6501" y2="440.585" gradientUnits="userSpaceOnUse">
<stop offset="0.0397" stop-color="#06BED8"/>
<stop offset="1" stop-color="#DEFA8E"/>
</linearGradient>
<linearGradient id="paint1_linear_2099_2724" x1="154.619" y1="46.2887" x2="128.404" y2="42.4657" gradientUnits="userSpaceOnUse">
<stop offset="0.0397" stop-color="#06CFF1"/>
<stop offset="1" stop-color="#DEFA8E"/>
</linearGradient>
<linearGradient id="paint2_linear_2099_2724" x1="161.31" y1="112.854" x2="114.788" y2="60.3294" gradientUnits="userSpaceOnUse">
<stop offset="0.0397" stop-color="#06CFF1"/>
<stop offset="1" stop-color="#DEFA8E"/>
</linearGradient>
<linearGradient id="paint3_linear_2099_2724" x1="228.687" y1="294.79" x2="44.3374" y2="110.44" gradientUnits="userSpaceOnUse">
<stop offset="0.0397" stop-color="#06CFF1"/>
<stop offset="1" stop-color="#DEFA8E"/>
</linearGradient>
<linearGradient id="paint4_linear_2099_2724" x1="137.292" y1="225.837" x2="135.654" y2="152.108" gradientUnits="userSpaceOnUse">
<stop stop-color="#030D14"/>
<stop offset="1" stop-color="#0B2F45"/>
</linearGradient>
<radialGradient id="paint5_radial_2099_2724" cx="0" cy="0" r="1" gradientUnits="userSpaceOnUse" gradientTransform="translate(180.089 188.419) rotate(180) scale(30.6423 30.6423)">
<stop offset="0.1296" stop-color="#3280FC"/>
<stop offset="1"/>
</radialGradient>
<linearGradient id="paint6_linear_2099_2724" x1="198.755" y1="188.419" x2="161.423" y2="188.419" gradientUnits="userSpaceOnUse">
<stop stop-color="#030D14"/>
<stop offset="1" stop-color="#0B2F45"/>
</linearGradient>
<radialGradient id="paint7_radial_2099_2724" cx="0" cy="0" r="1" gradientUnits="userSpaceOnUse" gradientTransform="translate(96.444 188.419) rotate(180) scale(30.6423)">
<stop offset="0.1296" stop-color="#3280FC"/>
<stop offset="1"/>
</radialGradient>
<linearGradient id="paint8_linear_2099_2724" x1="115.107" y1="188.419" x2="77.7744" y2="188.419" gradientUnits="userSpaceOnUse">
<stop stop-color="#030D14"/>
<stop offset="1" stop-color="#0B2F45"/>
</linearGradient>
<linearGradient id="paint9_linear_2099_2724" x1="160.376" y1="14.633" x2="125.683" y2="9.57348" gradientUnits="userSpaceOnUse">
<stop offset="0.0397" stop-color="#06CFF1"/>
<stop offset="1" stop-color="#DEFA8E"/>
</linearGradient>
<linearGradient id="paint10_linear_2099_2724" x1="137.93" y1="254.474" x2="84.5545" y2="201.099" gradientUnits="userSpaceOnUse">
<stop offset="0.0714" stop-color="#0DA9AB"/>
<stop offset="1" stop-color="#DEFA8E"/>
</linearGradient>
<linearGradient id="paint11_linear_2099_2724" x1="188.337" y1="416.448" x2="46.9192" y2="251.308" gradientUnits="userSpaceOnUse">
<stop offset="0.0397" stop-color="#06CFF1"/>
<stop offset="0.0408" stop-color="#06CFF1"/>
<stop offset="0.1607" stop-color="#37D9DB"/>
<stop offset="0.2745" stop-color="#5DE0CA"/>
<stop offset="0.3793" stop-color="#78E6BD"/>
<stop offset="0.4719" stop-color="#88E9B6"/>
<stop offset="0.5423" stop-color="#8EEAB3"/>
<stop offset="0.8004" stop-color="#B9F39F"/>
<stop offset="1" stop-color="#DEFA8E"/>
</linearGradient>
<linearGradient id="paint12_linear_2099_2724" x1="195.828" y1="334.118" x2="110.785" y2="234.809" gradientUnits="userSpaceOnUse">
<stop offset="0.0397" stop-color="#06CFF1"/>
<stop offset="1" stop-color="#DEFA8E"/>
</linearGradient>
<linearGradient id="paint13_linear_2099_2724" x1="13.1049" y1="391.789" x2="118.988" y2="314.347" gradientUnits="userSpaceOnUse">
<stop offset="0.0397" stop-color="#06CFF1"/>
<stop offset="0.0734" stop-color="#0FD1ED"/>
<stop offset="0.4151" stop-color="#67E2C5"/>
<stop offset="0.6937" stop-color="#A7EFA7"/>
<stop offset="0.8955" stop-color="#CFF795"/>
<stop offset="1" stop-color="#DEFA8E"/>
</linearGradient>
<linearGradient id="paint14_linear_2099_2724" x1="106.418" y1="384.278" x2="31.378" y2="345.173" gradientUnits="userSpaceOnUse">
<stop offset="0.0397" stop-color="#06BED8"/>
<stop offset="1" stop-color="#DEFA8E"/>
</linearGradient>
</defs>
</svg>
