<svg width="68" height="68" viewBox="0 0 68 68" fill="none" xmlns="http://www.w3.org/2000/svg">
<path d="M55.7323 42.9006C65.2965 46.1334 67.4657 46.3065 67.4657 46.3065V11.567C67.4657 5.63747 62.7059 0.833008 56.8294 0.833008H11.677C5.79774 0.833008 1.03516 5.63747 1.03516 11.567V57.0991C1.03516 63.0258 5.79774 67.833 11.6798 67.833H56.8294C62.7059 67.833 67.4657 63.0258 67.4657 57.0991V56.6608C67.4657 56.6608 50.1852 49.3968 41.4613 45.1619C35.6099 52.4258 28.0613 56.8338 20.2251 56.8338C6.96466 56.8338 2.46728 45.1368 8.74574 37.4346C10.1137 35.754 12.4419 34.1543 16.0515 33.2554C21.7047 31.854 30.6994 34.1292 39.1274 36.932C40.6986 34.0008 41.9536 30.9107 42.8711 27.714H16.889V25.0563H30.2862V20.3021H14.0667V17.6416H30.2862V10.8551C30.2862 10.8551 30.2862 9.7133 31.4336 9.7133H37.9857V17.6416H54.021V20.2965H37.9857V25.0535H51.0786C49.8991 29.9979 48.0328 34.7527 45.5343 39.1793C49.5097 40.631 53.0746 42.0017 55.7323 42.9006ZM17.1822 37.228C15.5183 37.3955 12.4084 38.1353 10.7027 39.6539C5.59395 44.1429 8.65082 52.356 18.9884 52.356C24.9932 52.356 30.9953 48.4812 35.7104 42.2781C29.0021 38.9783 23.321 36.6166 17.1822 37.228Z" fill="#1677FC"/>
</svg>
