<svg width="91" height="92" viewBox="0 0 91 92" fill="none" xmlns="http://www.w3.org/2000/svg">
<path d="M88.8359 79.8187C88.7556 79.5868 88.7133 79.3436 88.7107 79.0983C88.7107 78.5181 88.2633 77.7522 87.5998 77.2024C87.2083 76.8541 86.8606 76.4594 86.5647 76.027C86.0376 75.2383 85.4651 74.9274 83.3607 74.2828C81.0516 73.5852 80.3425 72.9823 80.1378 71.5453L80.0316 70.8248L79.6107 71.4391C78.788 72.6297 78.2457 72.8193 77.1272 72.3074C76.4182 71.9813 75.9025 71.951 75.3148 72.2012C74.9356 72.3605 74.8674 72.3529 74.6247 72.133C74.3593 71.8979 74.3365 71.8941 73.965 72.114C73.673 72.2884 73.4341 72.3225 72.9905 72.2543C72.2815 72.1481 71.9023 72.3567 71.4283 73.1074C70.5297 74.5331 69.8889 73.8809 69.8927 71.5453C69.8965 68.9518 71.1174 67.4806 74.6361 65.835C76.4485 64.9895 77.2675 64.4397 77.7756 63.7382C78.1623 63.196 78.1964 63.177 78.3671 63.4083C78.7273 63.9013 79.9672 66.4417 80.5625 67.8977C81.2374 69.5584 81.4421 69.8693 81.6962 69.6115C81.9123 69.3954 81.389 67.8673 80.3729 65.744C77.8552 60.4736 74.1318 56.7047 69.487 54.7216C67.3523 53.8116 66.302 53.6145 63.5341 53.622C61.4335 53.622 60.9178 53.6713 59.4922 53.9709C57.4143 54.4145 55.09 55.1577 52.1249 56.3293C49.1371 57.5085 49.1371 57.5085 46.1265 56.4317C45.055 56.0443 43.9713 55.6915 42.8771 55.3738C41.7168 55.078 40.003 55.0288 39.0399 55.26C37.9327 55.5255 36.3706 56.3596 34.452 57.7133C32.1504 59.3361 30.9106 59.9769 29.2612 60.4053C27.8317 60.7769 27.2289 61.103 26.8724 61.6831C26.5881 62.1495 26.5615 62.5249 26.7777 62.995C26.9255 63.3211 28.3322 64.3487 29.9816 65.3345C30.429 65.5999 30.8272 65.8767 30.8689 65.9412C30.9637 66.0966 28.7304 67.2114 27.0999 67.818C24.2031 68.9025 21.0864 69.5888 16.3885 70.1765C13.2566 70.567 12.7257 70.677 10.3863 71.4088C9.39919 71.7174 8.39988 71.9856 7.39086 72.2126C4.22482 72.8685 1.35832 72.0912 0.922276 70.457C0.862075 70.1939 0.75551 69.9435 0.607567 69.7177C0.0274424 69.0541 -0.188683 67.4578 0.186692 66.5895C0.399291 65.8843 0.560231 65.1645 0.668234 64.4359C1.21044 61.2281 1.76023 59.4915 2.94323 57.2507C5.02486 53.3225 9.16157 48.3403 14.1704 43.7258C17.4805 40.6773 20.6276 38.334 27.9 33.4921C32.3969 30.5043 32.4386 30.4625 32.9581 29.0217C33.0718 28.7032 33.6292 26.6405 34.1942 24.4376C35.9611 17.5823 37.091 14.9963 39.1954 13.0095C40.3822 11.891 42.2704 11.1895 43.37 11.4701C43.9956 11.6255 44.0297 11.9365 43.5975 13.6768C42.8695 16.5813 42.6268 18.4164 42.6192 21.0061C42.6117 23.5617 42.7709 24.5513 43.3776 25.7457C44.2117 27.3913 44.7691 27.7098 48.0337 28.3771C59.568 30.7393 67.2651 34.2921 72.7327 39.7787C77.7983 44.8595 81.9237 52.8144 84.612 62.6614L85.12 64.5383L86.0983 65.2852C88.597 67.2 89.9923 69.1262 90.7393 71.6742C91.1336 73.0278 91.073 75.8943 90.6142 77.5892C90.1288 79.394 89.7117 80.1523 89.2075 80.1523C89.0634 80.1523 88.9079 80.012 88.8359 79.8187ZM89.0482 76.0308C89.0975 75.8412 89.1051 75.0374 89.0634 74.2373C88.942 71.6969 88.1572 69.8769 86.3599 67.9811C84.9797 66.5213 82.4772 64.762 81.7834 64.762C81.518 64.762 81.5028 64.8113 81.571 65.3914C81.6127 65.7326 81.8895 66.6578 82.1853 67.4389C82.481 68.22 82.7578 69.1337 82.7995 69.4712C82.864 70.0134 82.8299 70.131 82.5341 70.4267C82.1284 70.8324 81.7455 70.8514 81.1615 70.495C80.9189 70.3471 80.6952 70.2561 80.6572 70.2902C80.6231 70.3281 80.6345 70.5935 80.6838 70.8817C80.862 71.932 81.4725 72.3567 83.8157 73.0505C87.2472 74.0667 87.9486 74.5293 88.4946 76.1445C88.6084 76.4858 88.9534 76.4175 89.0482 76.0308ZM7.30744 71.204C7.91032 71.0978 9.11228 70.7869 9.98057 70.5063C11.8499 69.9148 13.2793 69.6191 17.234 68.9972C21.875 68.273 23.7405 67.8863 25.8108 67.2265C27.1227 66.8057 28.3247 66.2673 28.3171 66.0966C28.3171 66.0435 27.9265 65.7668 27.4564 65.4786C26.9862 65.1904 26.1027 64.4738 25.4961 63.8861C24.8894 63.2908 24.3358 62.8055 24.2676 62.8055C23.9377 62.8055 23.1111 63.268 22.0684 64.034C19.073 66.2331 18.0265 66.6654 13.2566 67.6815C10.8906 68.1858 10.0526 68.474 8.94544 69.1527C7.4174 70.0892 7.08753 70.2447 6.08273 70.5025C5.43651 70.6587 4.77565 70.7463 4.11107 70.7642C2.74986 70.7642 2.59819 71.1888 3.88357 71.4125C4.63811 71.549 5.80594 71.477 7.30744 71.204ZM72.2928 70.9386C72.5107 70.7437 72.7592 70.5861 73.0284 70.4722L73.5896 70.2258L74.7915 70.5897C76.2968 71.0447 78.2685 71.113 78.8031 70.7263L79.569 70.1689C79.8345 69.9755 80.1075 69.8769 80.2515 69.9224C80.3842 69.9603 80.4942 69.9793 80.4942 69.9528C80.4942 69.82 78.6515 65.6037 78.477 65.3383L78.2685 65.0236L77.6125 65.543C77.2523 65.8274 76.0276 66.6199 74.8939 67.3024C71.9781 69.0541 71.0643 69.9452 71.2842 70.8286C71.3487 71.0789 71.4511 71.1547 71.7392 71.1547C71.944 71.1547 72.1942 71.0561 72.2928 70.9386ZM17.3629 63.4273C17.6268 63.3055 17.8649 63.1344 18.0644 62.923C18.6104 62.013 16.4264 62.1116 15.8387 63.0216C15.6832 63.2605 15.687 63.3249 15.869 63.5107C16.161 63.8027 16.6842 63.7723 17.3629 63.4273ZM21.4731 60.576C22.876 60.1968 24.2789 59.738 24.7112 59.5105C25.6098 59.0365 26.3719 58.2138 26.9179 57.1331C27.1341 56.7047 27.5398 56.1397 27.8166 55.8819C28.0934 55.624 28.3209 55.3169 28.3209 55.1994C28.3209 54.187 24.8325 53.7244 22.5841 54.441C19.8541 55.3131 17.253 58.0886 17.1923 60.193C17.1544 61.4822 17.8597 61.5466 21.4731 60.5722M75.0115 56.5909C75.0115 56.3558 74.1432 55.1994 73.5327 54.6193C72.3345 53.4855 71.1174 52.7917 68.7666 51.9006C67.3712 51.3698 66.7949 51.0437 66.7949 50.7859C66.7949 50.7252 66.9125 50.5584 67.0603 50.4181C67.7921 49.6825 71.2994 50.5849 73.7716 52.1433C74.7498 52.7575 75.8646 53.6258 76.7935 54.4941C77.5064 55.1615 77.6239 55.2297 77.6239 54.9833C77.6239 54.5889 76.9793 53.4097 76.1907 52.3594C74.2228 49.7432 71.0264 47.6995 67.4471 46.7857C64.5553 46.0425 62.0402 45.9995 59.9017 46.6568C57.9224 47.2634 55.6247 48.6929 53.3193 50.7518C50.0699 53.6562 49.1106 54.4676 48.2764 54.9908C47.7797 55.3093 47.3892 55.624 47.4081 55.6961C47.4271 55.7681 47.8062 55.935 48.2423 56.0753L49.0385 56.3293L50.9723 55.4383C54.8019 53.6789 58.313 52.549 60.9292 52.2305C64.918 51.7452 69.3846 53.0078 73.3848 55.7492C74.602 56.5871 75.0115 56.7995 75.0115 56.5909ZM39.6693 67.6247C35.5629 67.1166 31.6841 65.6833 28.518 63.4993C27.7976 63.0064 27.5967 62.7903 27.5625 62.5021C27.4791 61.7817 28.1389 61.3533 29.9247 60.9741C31.4945 60.6442 32.5334 60.1172 34.907 58.4488C38.1185 56.1928 39.3887 55.6809 41.4817 55.7947C42.46 55.8478 43.0742 56.0146 46.3199 57.099C51.1884 58.7218 56.3489 60.5608 56.7356 60.811C57.6267 61.376 56.091 63.4652 53.6833 64.9667C51.8633 66.1004 49.4708 66.9877 47.01 67.4427C45.6488 67.6929 41.1329 67.8067 39.6693 67.6247ZM9.33598 47.3734C9.2829 47.2407 9.27532 46.5923 9.31703 45.9363C9.49523 43.0471 11.0688 39.7825 13.2073 37.8487C14.0263 37.1055 15.3306 36.332 15.7667 36.332C16.1951 36.332 16.4605 36.7795 16.7828 38.0383C16.9497 38.7018 17.2151 39.4147 17.3667 39.6232C17.5184 39.8318 17.6322 40.0213 17.6056 40.0403L16.2558 41.1171C14.504 42.5087 12.0774 44.7495 10.6214 46.3231C9.62415 47.3961 9.41182 47.5743 9.33598 47.3734Z" fill="black"/>
</svg>
