<svg width="45" height="49" viewBox="0 0 45 49" fill="none" xmlns="http://www.w3.org/2000/svg">
<path d="M21.678 11.7836C21.133 8.93675 22.5377 6.00705 24.2293 4.03268C26.0936 1.85421 29.2929 0.183591 32.027 0C32.4889 2.9847 31.2178 5.89274 29.5447 7.94971C27.7499 10.1595 24.664 11.8732 21.678 11.7836ZM37.7152 22.0991C38.5612 19.8371 40.2372 17.802 42.8373 16.4289C40.2098 13.2868 36.5207 11.4626 33.0394 11.4626C28.4334 11.4626 26.4859 13.5655 23.2867 13.5655C19.9911 13.5655 17.4909 11.4626 13.5012 11.4626C9.58894 11.4626 5.42451 13.7477 2.78341 17.6503C1.81232 19.0929 1.1545 20.885 0.795736 22.8812C-0.199751 28.4808 1.28728 35.7744 5.72308 42.2506C7.87984 45.3931 10.7546 48.9328 14.5102 48.9637C17.8557 48.995 18.8048 46.9139 23.3338 46.8924C27.8695 46.8677 28.7291 48.9852 32.07 48.9547C35.8267 48.9243 38.8598 45.007 41.0166 41.8648C42.5523 39.61 43.1331 38.4711 44.3272 35.9218C38.2552 33.7274 35.7579 27.3155 37.7152 22.0991Z" fill="black"/>
</svg>
