<svg width="126" height="205" viewBox="0 0 126 205" fill="none" xmlns="http://www.w3.org/2000/svg">
<path fill-rule="evenodd" clip-rule="evenodd" d="M47.0223 69.3806C43.9231 75.9394 40.1672 81.5301 34.6289 85.7094C29.6535 89.4643 24.0119 91.1777 17.7863 90.4512C11.837 89.7573 8.99487 85.1289 10.8414 79.4094C11.6374 76.9482 13.0396 74.8627 14.8527 73.0453C18.1427 69.7469 22.066 67.481 26.4327 65.9395C33.3741 63.4896 40.419 63.1396 47.5806 64.8211C48.4571 65.0275 48.6469 65.3706 48.3009 66.1741C47.7949 67.3505 47.3493 68.554 47.0223 69.3806ZM88.7842 174.958C88.3698 174.81 88.2615 174.4 88.0602 174.087C85.2366 169.701 81.9221 165.721 78.1818 162.094C76.4707 160.435 74.5798 159.033 72.3088 158.211C71.6234 157.963 70.9242 157.791 70.1951 157.776C67.9772 157.727 66.703 159.334 67.262 161.478C67.5312 162.509 68.0677 163.418 68.6122 164.317C70.5022 167.441 72.6117 170.416 74.7651 173.36C80.1722 180.757 84.6526 188.708 88.8209 196.846C89.2109 197.61 89.5114 198.408 89.7169 199.242C89.9147 200.041 90.1848 200.817 90.5882 201.538C92.1075 204.251 95.2322 205.174 97.9697 203.696C99.7593 202.732 101.019 201.215 102.107 199.552C103.677 197.152 104.953 194.586 106.214 192.021C109.152 186.05 112.67 180.423 116.144 174.759C119.237 169.715 121.815 164.375 124.262 158.983C124.656 158.115 124.987 157.214 125.089 156.256C125.234 154.884 124.858 153.697 123.702 152.875C122.516 152.033 121.247 152.054 119.969 152.688C118.98 153.178 118.184 153.927 117.452 154.725C111.136 161.622 104.964 168.626 100.897 177.183C100.787 177.413 100.711 177.68 100.437 177.814C100.121 177.716 100.233 177.443 100.246 177.25C101.157 165.087 99.8221 153.009 98.813 140.929C97.9284 130.348 96.6424 119.802 94.5747 109.376C92.7051 99.9359 89.7592 90.862 84.8298 82.5377C79.7936 74.0304 73.2967 66.9154 64.7131 61.8506C63.2984 61.0146 61.8558 60.2271 60.3439 59.5819C59.7807 59.3405 59.558 59.0126 59.6037 58.3785C60.4943 46.1419 56.8523 35.2132 49.9785 25.2486C44.2692 16.9729 37.2658 10.046 28.4968 5.01889C24.8677 2.9395 21.1043 1.15174 16.956 0.335871C15.5709 0.0630298 14.7862 0.274231 14.5319 1.02321C14.1455 2.16916 15.0036 2.70009 15.7474 3.23607C20.9154 6.96029 26.169 10.5795 30.8773 14.8912C38.0888 21.496 43.9674 29.0786 47.5442 38.277C49.6323 43.6431 50.5024 49.2366 50.3404 54.993C50.3064 56.2064 50.2963 56.203 49.1022 55.9625C36.0434 53.3256 23.9432 55.8405 12.8451 63.06C7.64316 66.4425 3.89952 71.1427 1.8805 77.1095C-2.06531 88.7662 4.8284 99.7866 17.0608 101.099C25.663 102.022 33.4284 99.486 40.2656 94.3474C48.4762 88.1769 53.8257 79.8815 57.2257 70.2691C57.7516 68.7822 57.7381 68.7445 59.089 69.6298C66.7314 74.6411 72.3491 81.417 76.2972 89.6096C80.1262 97.5593 82.2452 106.026 83.6645 114.686C85.9953 128.916 87.2425 143.249 87.7316 157.659C87.9199 163.21 88.1627 168.762 88.8438 174.283C88.8713 174.498 88.9609 174.731 88.7842 174.958Z" fill="#157B6C"/>
</svg>
