<svg width="274" height="134" viewBox="0 0 274 134" fill="none" xmlns="http://www.w3.org/2000/svg">
<mask id="path-1-inside-1_1148_69279" fill="white">
<path d="M2.27299e-06 110C1.01765e-06 117.18 5.8203 123 13 123L252 123L252 13C252 5.82034 246.18 4.30434e-05 239 4.17881e-05L13 2.27299e-06C5.82032 1.01765e-06 2.04883e-05 5.8203 1.9233e-05 13L2.27299e-06 110Z"/>
</mask>
<path fill-rule="evenodd" clip-rule="evenodd" d="M13 123C12.829 123 12.6585 122.997 12.4888 122.992L12.4891 122.983C12.6583 122.994 12.8287 123 13 123ZM11.4782 122.85L11.4691 122.928C11.1274 122.895 10.7889 122.852 10.4538 122.799L10.4953 122.589C10.8169 122.697 11.1448 122.784 11.4782 122.85ZM9.5561 122.209L9.44487 122.604C9.10791 122.527 8.77499 122.44 8.44648 122.343L8.67468 121.724C8.96118 121.903 9.25525 122.065 9.5561 122.209ZM7.85893 121.153L7.46067 122.015C7.1325 121.894 6.80939 121.762 6.49175 121.621L7.11455 120.511C7.35479 120.739 7.60314 120.953 7.85893 121.153ZM6.443 119.816L5.5431 121.16C5.22852 120.994 4.92014 120.818 4.6184 120.632L5.84338 119.08C6.03539 119.336 6.23544 119.581 6.443 119.816ZM5.31337 118.316L5.19405 118.445L3.72194 120.037C3.42629 119.826 3.13811 119.605 2.85787 119.375L4.55497 117.806L4.84939 117.534C4.99653 117.802 5.15133 118.063 5.31337 118.316ZM4.44746 116.74L3.96776 117.119L2.03081 118.648C1.75996 118.393 1.49801 118.128 1.24547 117.855L3.4361 116.389L4.10331 115.942C4.21097 116.214 4.3258 116.48 4.44746 116.74ZM3.81285 115.142L2.96357 115.619L0.507286 116.998C0.278543 116.712 0.0593819 116.419 -0.14971 116.118C-0.159239 116.104 -0.168746 116.09 -0.178232 116.076L-0.17048 116.073L2.55315 114.815L3.57208 114.345C3.64575 114.615 3.72609 114.881 3.81285 115.142ZM3.37734 113.55L2.20744 113.981L-0.607019 115.02L-0.805139 115.093C-1.00459 114.754 -1.19187 114.406 -1.36639 114.051L-0.95884 113.937L1.92892 113.124L3.22561 112.759C3.26996 113.025 3.32061 113.289 3.37734 113.55ZM3.11408 111.97L1.71893 112.246L-1.22404 112.828L-1.85582 112.953C-2.00662 112.577 -2.14355 112.194 -2.266 111.805L-1.40085 111.703L1.57877 111.354L3.04086 111.183C3.05922 111.448 3.08369 111.71 3.11408 111.97ZM3.00454 110.395L1.50875 110.453L-1.48901 110.569L-2.59068 110.612C-2.63739 110.409 -2.68026 110.205 -2.71921 110C-2.75033 109.836 -2.77896 109.671 -2.80503 109.505L-1.5 109.505L1.5 109.505L3 109.505L3 110C3 110.132 3.00152 110.264 3.00454 110.395ZM3 108.515L1.5 108.515L-1.5 108.515L-2.92918 108.515C-2.95991 108.188 -2.9808 107.858 -2.99153 107.526L-1.5 107.526L1.5 107.526L3 107.526L3 108.515ZM3 106.536L1.5 106.536L-1.5 106.536L-3 106.536L-3 105.546L-1.5 105.546L1.5 105.546L3 105.546L3 106.536ZM3 104.556L1.5 104.556L-1.5 104.556L-3 104.556L-3 103.566L-1.5 103.566L1.5 103.566L3 103.566L3 104.556ZM3 102.577L1.5 102.577L-1.5 102.577L-3 102.577L-3 101.587L-1.5 101.587L1.5 101.587L3 101.587L3 102.577ZM3 100.597L1.5 100.597L-1.5 100.597L-3 100.597L-3 99.6071L-1.5 99.6071L1.5 99.6071L3 99.6071L3 100.597ZM3 98.6173L1.5 98.6173L-1.5 98.6173L-3 98.6173L-3 97.6275L-1.5 97.6275L1.5 97.6276L3 97.6276L3 98.6173ZM3 96.6378L1.5 96.6378L-1.5 96.6378L-3 96.6378L-3 95.648L-1.5 95.648L1.5 95.648L3 95.648L3 96.6378ZM3 94.6582L1.5 94.6582L-1.5 94.6582L-3 94.6582L-2.99999 93.6684L-1.49999 93.6684L1.50001 93.6684L3.00001 93.6684L3 94.6582ZM3.00001 92.6786L1.50001 92.6786L-1.49999 92.6786L-2.99999 92.6786L-2.99999 91.6888L-1.49999 91.6888L1.50001 91.6888L3.00001 91.6888L3.00001 92.6786ZM3.00001 90.699L1.50001 90.699L-1.49999 90.699L-2.99999 90.699L-2.99999 89.7092L-1.49999 89.7092L1.50001 89.7092L3.00001 89.7092L3.00001 90.699ZM3.00001 88.7194L1.50001 88.7194L-1.49999 88.7194L-2.99999 88.7194L-2.99999 87.7296L-1.49999 87.7296L1.50001 87.7296L3.00001 87.7296L3.00001 88.7194ZM3.00001 86.7398L1.50001 86.7398L-1.49999 86.7398L-2.99999 86.7398L-2.99999 85.75L-1.49999 85.75L1.50001 85.75L3.00001 85.75L3.00001 86.7398ZM3.00001 84.7602L1.50001 84.7602L-1.49999 84.7602L-2.99999 84.7602L-2.99999 83.7704L-1.49999 83.7704L1.50001 83.7704L3.00001 83.7704L3.00001 84.7602ZM3.00001 82.7806L1.50001 82.7806L-1.49999 82.7806L-2.99999 82.7806L-2.99999 81.7908L-1.49999 81.7908L1.50001 81.7908L3.00001 81.7908L3.00001 82.7806ZM3.00001 80.801L1.50001 80.801L-1.49999 80.801L-2.99999 80.801L-2.99999 79.8112L-1.49999 79.8112L1.50001 79.8112L3.00001 79.8112L3.00001 80.801ZM3.00001 78.8214L1.50001 78.8214L-1.49999 78.8214L-2.99999 78.8214L-2.99999 77.8316L-1.49999 77.8316L1.50001 77.8316L3.00001 77.8316L3.00001 78.8214ZM3.00001 76.8418L1.50001 76.8418L-1.49999 76.8418L-2.99999 76.8418L-2.99999 75.852L-1.49999 75.852L1.50001 75.852L3.00001 75.852L3.00001 76.8418ZM3.00001 74.8622L1.50001 74.8622L-1.49999 74.8622L-2.99999 74.8622L-2.99999 73.8725L-1.49999 73.8725L1.50001 73.8725L3.00001 73.8725L3.00001 74.8622ZM3.00001 72.8827L1.50001 72.8827L-1.49999 72.8827L-2.99999 72.8827L-2.99999 71.8929L-1.49999 71.8929L1.50001 71.8929L3.00001 71.8929L3.00001 72.8827ZM3.00001 70.9031L1.50001 70.9031L-1.49999 70.9031L-2.99999 70.9031L-2.99999 69.9133L-1.49999 69.9133L1.50001 69.9133L3.00001 69.9133L3.00001 70.9031ZM3.00001 68.9235L1.50001 68.9235L-1.49999 68.9235L-2.99999 68.9235L-2.99999 67.9337L-1.49999 67.9337L1.50001 67.9337L3.00001 67.9337L3.00001 68.9235ZM3.00001 66.9439L1.50001 66.9439L-1.49999 66.9439L-2.99999 66.9439L-2.99999 65.9541L-1.49999 65.9541L1.50001 65.9541L3.00001 65.9541L3.00001 66.9439ZM3.00001 64.9643L1.50001 64.9643L-1.49999 64.9643L-2.99999 64.9643L-2.99999 63.9745L-1.49999 63.9745L1.50001 63.9745L3.00001 63.9745L3.00001 64.9643ZM3.00001 62.9847L1.50001 62.9847L-1.49999 62.9847L-2.99999 62.9847L-2.99999 61.9949L-1.49999 61.9949L1.50001 61.9949L3.00001 61.9949L3.00001 62.9847ZM3.00001 61.0051L1.50001 61.0051L-1.49999 61.0051L-2.99999 61.0051L-2.99999 60.0153L-1.49999 60.0153L1.50001 60.0153L3.00001 60.0153L3.00001 61.0051ZM3.00001 59.0255L1.50001 59.0255L-1.49999 59.0255L-2.99999 59.0255L-2.99999 58.0357L-1.49999 58.0357L1.50001 58.0357L3.00001 58.0357L3.00001 59.0255ZM3.00001 57.0459L1.50001 57.0459L-1.49999 57.0459L-2.99999 57.0459L-2.99999 56.0561L-1.49999 56.0561L1.50001 56.0561L3.00001 56.0561L3.00001 57.0459ZM3.00001 55.0663L1.50001 55.0663L-1.49999 55.0663L-2.99999 55.0663L-2.99999 54.0765L-1.49999 54.0765L1.50001 54.0765L3.00001 54.0765L3.00001 55.0663ZM3.00001 53.0867L1.50001 53.0867L-1.49999 53.0867L-2.99999 53.0867L-2.99999 52.0969L-1.49999 52.0969L1.50001 52.0969L3.00001 52.0969L3.00001 53.0867ZM3.00001 51.1072L1.50001 51.1072L-1.49999 51.1072L-2.99999 51.1072L-2.99999 50.1174L-1.49999 50.1174L1.50001 50.1174L3.00001 50.1174L3.00001 51.1072ZM3.00001 49.1276L1.50001 49.1276L-1.49999 49.1276L-2.99999 49.1276L-2.99999 48.1378L-1.49999 48.1378L1.50001 48.1378L3.00001 48.1378L3.00001 49.1276ZM3.00001 47.148L1.50001 47.148L-1.49999 47.148L-2.99999 47.148L-2.99999 46.1582L-1.49999 46.1582L1.50001 46.1582L3.00001 46.1582L3.00001 47.148ZM3.00001 45.1684L1.50001 45.1684L-1.49999 45.1684L-2.99999 45.1684L-2.99999 44.1786L-1.49999 44.1786L1.50001 44.1786L3.00001 44.1786L3.00001 45.1684ZM3.00001 43.1888L1.50001 43.1888L-1.49999 43.1888L-2.99999 43.1888L-2.99999 42.199L-1.49999 42.199L1.50001 42.199L3.00001 42.199L3.00001 43.1888ZM3.00001 41.2092L1.50001 41.2092L-1.49999 41.2092L-2.99999 41.2092L-2.99999 40.2194L-1.49999 40.2194L1.50001 40.2194L3.00001 40.2194L3.00001 41.2092ZM3.00001 39.2296L1.50001 39.2296L-1.49999 39.2296L-2.99999 39.2296L-2.99999 38.2398L-1.49999 38.2398L1.50001 38.2398L3.00001 38.2398L3.00001 39.2296ZM3.00001 37.25L1.50001 37.25L-1.49999 37.25L-2.99999 37.25L-2.99998 36.2602L-1.49998 36.2602L1.50002 36.2602L3.00002 36.2602L3.00001 37.25ZM3.00002 35.2704L1.50002 35.2704L-1.49998 35.2704L-2.99998 35.2704L-2.99998 34.2806L-1.49998 34.2806L1.50002 34.2806L3.00002 34.2806L3.00002 35.2704ZM3.00002 33.2908L1.50002 33.2908L-1.49998 33.2908L-2.99998 33.2908L-2.99998 32.301L-1.49998 32.301L1.50002 32.301L3.00002 32.301L3.00002 33.2908ZM3.00002 31.3112L1.50002 31.3112L-1.49998 31.3112L-2.99998 31.3112L-2.99998 30.3214L-1.49998 30.3214L1.50002 30.3214L3.00002 30.3214L3.00002 31.3112ZM3.00002 29.3316L1.50002 29.3316L-1.49998 29.3316L-2.99998 29.3316L-2.99998 28.3418L-1.49998 28.3418L1.50002 28.3418L3.00002 28.3418L3.00002 29.3316ZM3.00002 27.352L1.50002 27.352L-1.49998 27.352L-2.99998 27.352L-2.99998 26.3622L-1.49998 26.3622L1.50002 26.3622L3.00002 26.3622L3.00002 27.352ZM3.00002 25.3724L1.50002 25.3724L-1.49998 25.3724L-2.99998 25.3724L-2.99998 24.3826L-1.49998 24.3826L1.50002 24.3826L3.00002 24.3826L3.00002 25.3724ZM3.00002 23.3928L1.50002 23.3928L-1.49998 23.3928L-2.99998 23.3928L-2.99998 22.403L-1.49998 22.403L1.50002 22.403L3.00002 22.403L3.00002 23.3928ZM3.00002 21.4132L1.50002 21.4132L-1.49998 21.4132L-2.99998 21.4132L-2.99998 20.4234L-1.49998 20.4234L1.50002 20.4234L3.00002 20.4234L3.00002 21.4132ZM3.00002 19.4336L1.50002 19.4336L-1.49998 19.4336L-2.99998 19.4336L-2.99998 18.4438L-1.49998 18.4438L1.50002 18.4438L3.00002 18.4438L3.00002 19.4336ZM3.00002 17.454L1.50002 17.454L-1.49998 17.454L-2.99998 17.454L-2.99998 16.4642L-1.49998 16.4642L1.50002 16.4642L3.00002 16.4642L3.00002 17.454ZM3.00002 15.4744L1.50002 15.4744L-1.49998 15.4744L-2.99998 15.4744L-2.99998 14.4846L-1.49998 14.4846L1.50002 14.4846L3.00002 14.4846L3.00002 15.4744ZM3.00002 13.4948L1.50002 13.4948L-1.49998 13.4948L-2.99998 13.4948L-2.99998 13C-2.99998 12.8164 -2.99688 12.6334 -2.99071 12.4511C-2.98983 12.425 -2.98888 12.399 -2.98788 12.373L-1.489 12.4309L1.50876 12.5468L3.00764 12.6048C3.00258 12.7357 3.00002 12.8675 3.00002 13L3.00002 13.4948ZM-1.40083 11.2965L1.57879 11.6456L3.0686 11.8202C3.09928 11.5583 3.14003 11.2998 3.19043 11.0451L1.71894 10.754L-1.22402 10.1718L-2.6955 9.88069C-2.77635 10.2893 -2.84159 10.7033 -2.89064 11.122L-1.40083 11.2965ZM-0.958823 9.06337L1.92894 9.87629L3.37282 10.2828C3.44389 10.0303 3.52465 9.78186 3.61468 9.5379L2.20745 9.01857L-0.607002 7.9799L-2.01423 7.46056C-2.15882 7.85235 -2.28854 8.25137 -2.4027 8.65691L-0.958823 9.06337ZM-0.170462 6.92716L2.55316 8.18488L3.91498 8.81374C4.02487 8.57578 4.1439 8.34274 4.27166 8.1151L2.96358 7.38098L0.347429 5.91274L-0.960648 5.17861C-1.16523 5.54314 -1.35601 5.9166 -1.53227 6.2983L-0.170462 6.92716ZM0.943216 4.94252L3.43612 6.61147L4.68257 7.44595C4.82851 7.22797 4.98285 7.01595 5.14514 6.81036L3.96778 5.88094L1.61305 4.02211L0.435687 3.0927C0.176603 3.4209 -0.0699507 3.75958 -0.303237 4.10804L0.943216 4.94252ZM2.3525 3.15713L4.55498 5.19405L5.65622 6.21252C5.83434 6.01992 6.01994 5.83433 6.21253 5.65621L5.19407 4.55496L3.15714 2.35249L2.13868 1.25124C1.83145 1.53539 1.5354 1.83143 1.25126 2.13866L2.3525 3.15713ZM4.02213 1.61303L5.88096 3.96776L6.81038 5.14513C7.01597 4.98284 7.22799 4.82849 7.44597 4.68256L6.61149 3.4361L4.94253 0.9432L4.10806 -0.303252C3.7596 -0.0699685 3.42091 0.176583 3.09271 0.435669L4.02213 1.61303ZM5.91275 0.347413L7.381 2.96356L8.11512 4.27165C8.34276 4.14388 8.57579 4.02485 8.81376 3.91496L8.1849 2.55315L6.92718 -0.170478L6.29832 -1.53229C5.91662 -1.35603 5.54315 -1.16524 5.17863 -0.960662L5.91275 0.347413ZM7.97991 -0.607016L9.01858 2.20744L9.53792 3.61466C9.78188 3.52463 10.0303 3.44387 10.2828 3.3728L9.87631 1.92892L9.06338 -0.958838L8.65692 -2.40272C8.25138 -2.28856 7.85236 -2.15883 7.46058 -2.01425L7.97991 -0.607016ZM10.1718 -1.22404L10.754 1.71893L11.0451 3.19041C11.2999 3.14002 11.5583 3.09926 11.8202 3.06858L11.6456 1.57878L11.2966 -1.40085L11.122 -2.89066C10.7034 -2.84161 10.2894 -2.77637 9.8807 -2.69552L10.1718 -1.22404ZM12.4309 -1.48901L12.5468 1.50875L12.6048 3.00762C12.7357 3.00257 12.8675 3 13 3M13.5 1.5L13.5 -1.5L13.5 -3L13 -3C12.7902 -3 12.5812 -2.99594 12.373 -2.9879L12.4309 -1.48901M14.5 -3L15.5 -3L15.5 -1.5L15.5 1.5L15.5 3L14.5 3L14.5 1.5L14.5 -1.5L14.5 -3ZM13.5 1.5L13.5 3L13.5 1.5ZM13 3L13.5 3L13 3ZM16.5 3L16.5 1.5L16.5 -1.5L16.5 -3L17.5 -3L17.5 -1.5L17.5 1.5L17.5 3L16.5 3ZM18.5 3L18.5 1.5L18.5 -1.5L18.5 -3L19.5 -3L19.5 -1.5L19.5 1.5L19.5 3L18.5 3ZM20.5 3L20.5 1.5L20.5 -1.5L20.5 -3L21.5 -3L21.5 -1.5L21.5 1.5L21.5 3L20.5 3ZM22.5 3L22.5 1.5L22.5 -1.5L22.5 -3L23.5 -3L23.5 -1.5L23.5 1.5L23.5 3L22.5 3ZM24.5 3L24.5 1.5L24.5 -1.5L24.5 -3L25.5 -3L25.5 -1.5L25.5 1.5L25.5 3L24.5 3ZM26.5 3L26.5 1.5L26.5 -1.5L26.5 -3L27.5 -3L27.5 -1.5L27.5 1.5L27.5 3L26.5 3ZM28.5 3L28.5 1.5L28.5 -1.5L28.5 -3L29.5 -2.99999L29.5 -1.49999L29.5 1.50001L29.5 3.00001L28.5 3ZM30.5 3.00001L30.5 1.50001L30.5 -1.49999L30.5 -2.99999L31.5 -2.99999L31.5 -1.49999L31.5 1.50001L31.5 3.00001L30.5 3.00001ZM32.5 3.00001L32.5 1.50001L32.5 -1.49999L32.5 -2.99999L33.5 -2.99999L33.5 -1.49999L33.5 1.50001L33.5 3.00001L32.5 3.00001ZM34.5 3.00001L34.5 1.50001L34.5 -1.49999L34.5 -2.99999L35.5 -2.99999L35.5 -1.49999L35.5 1.50001L35.5 3.00001L34.5 3.00001ZM36.5 3.00001L36.5 1.50001L36.5 -1.49999L36.5 -2.99999L37.5 -2.99999L37.5 -1.49999L37.5 1.50001L37.5 3.00001L36.5 3.00001ZM38.5 3.00001L38.5 1.50001L38.5 -1.49999L38.5 -2.99999L39.5 -2.99999L39.5 -1.49999L39.5 1.50001L39.5 3.00001L38.5 3.00001ZM40.5 3.00001L40.5 1.50001L40.5 -1.49999L40.5 -2.99999L41.5 -2.99999L41.5 -1.49999L41.5 1.50001L41.5 3.00001L40.5 3.00001ZM42.5 3.00001L42.5 1.50001L42.5 -1.49999L42.5 -2.99999L43.5 -2.99999L43.5 -1.49999L43.5 1.50001L43.5 3.00001L42.5 3.00001ZM44.5 3.00001L44.5 1.50001L44.5 -1.49999L44.5 -2.99999L45.5 -2.99999L45.5 -1.49999L45.5 1.50001L45.5 3.00001L44.5 3.00001ZM46.5 3.00001L46.5 1.50001L46.5 -1.49999L46.5 -2.99999L47.5 -2.99999L47.5 -1.49999L47.5 1.50001L47.5 3.00001L46.5 3.00001ZM48.5 3.00001L48.5 1.50001L48.5 -1.49999L48.5 -2.99999L49.5 -2.99999L49.5 -1.49999L49.5 1.50001L49.5 3.00001L48.5 3.00001ZM50.5 3.00001L50.5 1.50001L50.5 -1.49999L50.5 -2.99999L51.5 -2.99999L51.5 -1.49999L51.5 1.50001L51.5 3.00001L50.5 3.00001ZM52.5 3.00001L52.5 1.50001L52.5 -1.49999L52.5 -2.99999L53.5 -2.99999L53.5 -1.49999L53.5 1.50001L53.5 3.00001L52.5 3.00001ZM54.5 3.00001L54.5 1.50001L54.5 -1.49999L54.5 -2.99999L55.5 -2.99999L55.5 -1.49999L55.5 1.50001L55.5 3.00001L54.5 3.00001ZM56.5 3.00001L56.5 1.50001L56.5 -1.49999L56.5 -2.99999L57.5 -2.99999L57.5 -1.49999L57.5 1.50001L57.5 3.00001L56.5 3.00001ZM58.5 3.00001L58.5 1.50001L58.5 -1.49999L58.5 -2.99999L59.5 -2.99999L59.5 -1.49999L59.5 1.50001L59.5 3.00001L58.5 3.00001ZM60.5 3.00001L60.5 1.50001L60.5 -1.49999L60.5 -2.99999L61.5 -2.99999L61.5 -1.49999L61.5 1.50001L61.5 3.00001L60.5 3.00001ZM62.5 3.00001L62.5 1.50001L62.5 -1.49999L62.5 -2.99999L63.5 -2.99999L63.5 -1.49999L63.5 1.50001L63.5 3.00001L62.5 3.00001ZM64.5 3.00001L64.5 1.50001L64.5 -1.49999L64.5 -2.99999L65.5 -2.99999L65.5 -1.49999L65.5 1.50001L65.5 3.00001L64.5 3.00001ZM66.5 3.00001L66.5 1.50001L66.5 -1.49999L66.5 -2.99999L67.5 -2.99999L67.5 -1.49999L67.5 1.50001L67.5 3.00001L66.5 3.00001ZM68.5 3.00001L68.5 1.50001L68.5 -1.49999L68.5 -2.99999L69.5 -2.99999L69.5 -1.49999L69.5 1.50001L69.5 3.00001L68.5 3.00001ZM70.5 3.00001L70.5 1.50001L70.5 -1.49999L70.5 -2.99999L71.5 -2.99999L71.5 -1.49999L71.5 1.50001L71.5 3.00001L70.5 3.00001ZM72.5 3.00001L72.5 1.50001L72.5 -1.49999L72.5 -2.99999L73.5 -2.99999L73.5 -1.49999L73.5 1.50001L73.5 3.00001L72.5 3.00001ZM74.5 3.00001L74.5 1.50001L74.5 -1.49999L74.5 -2.99999L75.5 -2.99999L75.5 -1.49999L75.5 1.50001L75.5 3.00001L74.5 3.00001ZM76.5 3.00001L76.5 1.50001L76.5 -1.49999L76.5 -2.99999L77.5 -2.99999L77.5 -1.49999L77.5 1.50001L77.5 3.00001L76.5 3.00001ZM78.5 3.00001L78.5 1.50001L78.5 -1.49999L78.5 -2.99999L79.5 -2.99999L79.5 -1.49999L79.5 1.50001L79.5 3.00001L78.5 3.00001ZM80.5 3.00001L80.5 1.50001L80.5 -1.49999L80.5 -2.99999L81.5 -2.99999L81.5 -1.49999L81.5 1.50001L81.5 3.00001L80.5 3.00001ZM82.5 3.00001L82.5 1.50001L82.5 -1.49999L82.5 -2.99999L83.5 -2.99999L83.5 -1.49999L83.5 1.50001L83.5 3.00001L82.5 3.00001ZM84.5 3.00001L84.5 1.50001L84.5 -1.49999L84.5 -2.99999L85.5 -2.99999L85.5 -1.49999L85.5 1.50001L85.5 3.00001L84.5 3.00001ZM86.5 3.00002L86.5 1.50002L86.5 -1.49998L86.5 -2.99998L87.5 -2.99998L87.5 -1.49998L87.5 1.50002L87.5 3.00002L86.5 3.00002ZM88.5 3.00002L88.5 1.50002L88.5 -1.49998L88.5 -2.99998L89.5 -2.99998L89.5 -1.49998L89.5 1.50002L89.5 3.00002L88.5 3.00002ZM90.5 3.00002L90.5 1.50002L90.5 -1.49998L90.5 -2.99998L91.5 -2.99998L91.5 -1.49998L91.5 1.50002L91.5 3.00002L90.5 3.00002ZM92.5 3.00002L92.5 1.50002L92.5 -1.49998L92.5 -2.99998L93.5 -2.99998L93.5 -1.49998L93.5 1.50002L93.5 3.00002L92.5 3.00002ZM94.5 3.00002L94.5 1.50002L94.5 -1.49998L94.5 -2.99998L95.5 -2.99998L95.5 -1.49998L95.5 1.50002L95.5 3.00002L94.5 3.00002ZM96.5 3.00002L96.5 1.50002L96.5 -1.49998L96.5 -2.99998L97.5 -2.99998L97.5 -1.49998L97.5 1.50002L97.5 3.00002L96.5 3.00002ZM98.5 3.00002L98.5 1.50002L98.5 -1.49998L98.5 -2.99998L99.5 -2.99998L99.5 -1.49998L99.5 1.50002L99.5 3.00002L98.5 3.00002ZM100.5 3.00002L100.5 1.50002L100.5 -1.49998L100.5 -2.99998L101.5 -2.99998L101.5 -1.49998L101.5 1.50002L101.5 3.00002L100.5 3.00002ZM102.5 3.00002L102.5 1.50002L102.5 -1.49998L102.5 -2.99998L103.5 -2.99998L103.5 -1.49998L103.5 1.50002L103.5 3.00002L102.5 3.00002ZM104.5 3.00002L104.5 1.50002L104.5 -1.49998L104.5 -2.99998L105.5 -2.99998L105.5 -1.49998L105.5 1.50002L105.5 3.00002L104.5 3.00002ZM106.5 3.00002L106.5 1.50002L106.5 -1.49998L106.5 -2.99998L107.5 -2.99998L107.5 -1.49998L107.5 1.50002L107.5 3.00002L106.5 3.00002ZM108.5 3.00002L108.5 1.50002L108.5 -1.49998L108.5 -2.99998L109.5 -2.99998L109.5 -1.49998L109.5 1.50002L109.5 3.00002L108.5 3.00002ZM110.5 3.00002L110.5 1.50002L110.5 -1.49998L110.5 -2.99998L111.5 -2.99998L111.5 -1.49998L111.5 1.50002L111.5 3.00002L110.5 3.00002ZM112.5 3.00002L112.5 1.50002L112.5 -1.49998L112.5 -2.99998L113.5 -2.99998L113.5 -1.49998L113.5 1.50002L113.5 3.00002L112.5 3.00002ZM114.5 3.00002L114.5 1.50002L114.5 -1.49998L114.5 -2.99998L115.5 -2.99998L115.5 -1.49998L115.5 1.50002L115.5 3.00002L114.5 3.00002ZM116.5 3.00002L116.5 1.50002L116.5 -1.49998L116.5 -2.99998L117.5 -2.99998L117.5 -1.49998L117.5 1.50002L117.5 3.00002L116.5 3.00002ZM118.5 3.00002L118.5 1.50002L118.5 -1.49998L118.5 -2.99998L119.5 -2.99998L119.5 -1.49998L119.5 1.50002L119.5 3.00002L118.5 3.00002ZM120.5 3.00002L120.5 1.50002L120.5 -1.49998L120.5 -2.99998L121.5 -2.99998L121.5 -1.49998L121.5 1.50002L121.5 3.00002L120.5 3.00002ZM122.5 3.00002L122.5 1.50002L122.5 -1.49998L122.5 -2.99998L123.5 -2.99998L123.5 -1.49998L123.5 1.50002L123.5 3.00002L122.5 3.00002ZM124.5 3.00002L124.5 1.50002L124.5 -1.49998L124.5 -2.99998L125.5 -2.99998L125.5 -1.49998L125.5 1.50002L125.5 3.00002L124.5 3.00002ZM126.5 3.00002L126.5 1.50002L126.5 -1.49998L126.5 -2.99998L127.5 -2.99998L127.5 -1.49998L127.5 1.50002L127.5 3.00002L126.5 3.00002ZM128.5 3.00002L128.5 1.50002L128.5 -1.49998L128.5 -2.99998L129.5 -2.99998L129.5 -1.49998L129.5 1.50002L129.5 3.00002L128.5 3.00002ZM130.5 3.00002L130.5 1.50002L130.5 -1.49998L130.5 -2.99998L131.5 -2.99998L131.5 -1.49998L131.5 1.50002L131.5 3.00002L130.5 3.00002ZM132.5 3.00002L132.5 1.50002L132.5 -1.49998L132.5 -2.99998L133.5 -2.99998L133.5 -1.49998L133.5 1.50002L133.5 3.00002L132.5 3.00002ZM134.5 3.00002L134.5 1.50002L134.5 -1.49998L134.5 -2.99998L135.5 -2.99998L135.5 -1.49998L135.5 1.50002L135.5 3.00002L134.5 3.00002ZM136.5 3.00002L136.5 1.50002L136.5 -1.49998L136.5 -2.99998L137.5 -2.99998L137.5 -1.49998L137.5 1.50002L137.5 3.00002L136.5 3.00002ZM138.5 3.00002L138.5 1.50002L138.5 -1.49998L138.5 -2.99998L139.5 -2.99998L139.5 -1.49998L139.5 1.50002L139.5 3.00002L138.5 3.00002ZM140.5 3.00002L140.5 1.50002L140.5 -1.49998L140.5 -2.99998L141.5 -2.99998L141.5 -1.49998L141.5 1.50002L141.5 3.00002L140.5 3.00002ZM142.5 3.00002L142.5 1.50002L142.5 -1.49998L142.5 -2.99998L143.5 -2.99997L143.5 -1.49997L143.5 1.50003L143.5 3.00003L142.5 3.00002ZM144.5 3.00003L144.5 1.50003L144.5 -1.49997L144.5 -2.99997L145.5 -2.99997L145.5 -1.49997L145.5 1.50003L145.5 3.00003L144.5 3.00003ZM146.5 3.00003L146.5 1.50003L146.5 -1.49997L146.5 -2.99997L147.5 -2.99997L147.5 -1.49997L147.5 1.50003L147.5 3.00003L146.5 3.00003ZM148.5 3.00003L148.5 1.50003L148.5 -1.49997L148.5 -2.99997L149.5 -2.99997L149.5 -1.49997L149.5 1.50003L149.5 3.00003L148.5 3.00003ZM150.5 3.00003L150.5 1.50003L150.5 -1.49997L150.5 -2.99997L151.5 -2.99997L151.5 -1.49997L151.5 1.50003L151.5 3.00003L150.5 3.00003ZM152.5 3.00003L152.5 1.50003L152.5 -1.49997L152.5 -2.99997L153.5 -2.99997L153.5 -1.49997L153.5 1.50003L153.5 3.00003L152.5 3.00003ZM154.5 3.00003L154.5 1.50003L154.5 -1.49997L154.5 -2.99997L155.5 -2.99997L155.5 -1.49997L155.5 1.50003L155.5 3.00003L154.5 3.00003ZM156.5 3.00003L156.5 1.50003L156.5 -1.49997L156.5 -2.99997L157.5 -2.99997L157.5 -1.49997L157.5 1.50003L157.5 3.00003L156.5 3.00003ZM158.5 3.00003L158.5 1.50003L158.5 -1.49997L158.5 -2.99997L159.5 -2.99997L159.5 -1.49997L159.5 1.50003L159.5 3.00003L158.5 3.00003ZM160.5 3.00003L160.5 1.50003L160.5 -1.49997L160.5 -2.99997L161.5 -2.99997L161.5 -1.49997L161.5 1.50003L161.5 3.00003L160.5 3.00003ZM162.5 3.00003L162.5 1.50003L162.5 -1.49997L162.5 -2.99997L163.5 -2.99997L163.5 -1.49997L163.5 1.50003L163.5 3.00003L162.5 3.00003ZM164.5 3.00003L164.5 1.50003L164.5 -1.49997L164.5 -2.99997L165.5 -2.99997L165.5 -1.49997L165.5 1.50003L165.5 3.00003L164.5 3.00003ZM166.5 3.00003L166.5 1.50003L166.5 -1.49997L166.5 -2.99997L167.5 -2.99997L167.5 -1.49997L167.5 1.50003L167.5 3.00003L166.5 3.00003ZM168.5 3.00003L168.5 1.50003L168.5 -1.49997L168.5 -2.99997L169.5 -2.99997L169.5 -1.49997L169.5 1.50003L169.5 3.00003L168.5 3.00003ZM170.5 3.00003L170.5 1.50003L170.5 -1.49997L170.5 -2.99997L171.5 -2.99997L171.5 -1.49997L171.5 1.50003L171.5 3.00003L170.5 3.00003ZM172.5 3.00003L172.5 1.50003L172.5 -1.49997L172.5 -2.99997L173.5 -2.99997L173.5 -1.49997L173.5 1.50003L173.5 3.00003L172.5 3.00003ZM174.5 3.00003L174.5 1.50003L174.5 -1.49997L174.5 -2.99997L175.5 -2.99997L175.5 -1.49997L175.5 1.50003L175.5 3.00003L174.5 3.00003ZM176.5 3.00003L176.5 1.50003L176.5 -1.49997L176.5 -2.99997L177.5 -2.99997L177.5 -1.49997L177.5 1.50003L177.5 3.00003L176.5 3.00003ZM178.5 3.00003L178.5 1.50003L178.5 -1.49997L178.5 -2.99997L179.5 -2.99997L179.5 -1.49997L179.5 1.50003L179.5 3.00003L178.5 3.00003ZM180.5 3.00003L180.5 1.50003L180.5 -1.49997L180.5 -2.99997L181.5 -2.99997L181.5 -1.49997L181.5 1.50003L181.5 3.00003L180.5 3.00003ZM182.5 3.00003L182.5 1.50003L182.5 -1.49997L182.5 -2.99997L183.5 -2.99997L183.5 -1.49997L183.5 1.50003L183.5 3.00003L182.5 3.00003ZM184.5 3.00003L184.5 1.50003L184.5 -1.49997L184.5 -2.99997L185.5 -2.99997L185.5 -1.49997L185.5 1.50003L185.5 3.00003L184.5 3.00003ZM186.5 3.00003L186.5 1.50003L186.5 -1.49997L186.5 -2.99997L187.5 -2.99997L187.5 -1.49997L187.5 1.50003L187.5 3.00003L186.5 3.00003ZM188.5 3.00003L188.5 1.50003L188.5 -1.49997L188.5 -2.99997L189.5 -2.99997L189.5 -1.49997L189.5 1.50003L189.5 3.00003L188.5 3.00003ZM190.5 3.00003L190.5 1.50003L190.5 -1.49997L190.5 -2.99997L191.5 -2.99997L191.5 -1.49997L191.5 1.50003L191.5 3.00003L190.5 3.00003ZM192.5 3.00003L192.5 1.50003L192.5 -1.49997L192.5 -2.99997L193.5 -2.99997L193.5 -1.49997L193.5 1.50003L193.5 3.00003L192.5 3.00003ZM194.5 3.00003L194.5 1.50003L194.5 -1.49997L194.5 -2.99997L195.5 -2.99997L195.5 -1.49997L195.5 1.50003L195.5 3.00003L194.5 3.00003ZM196.5 3.00003L196.5 1.50003L196.5 -1.49997L196.5 -2.99997L197.5 -2.99997L197.5 -1.49997L197.5 1.50003L197.5 3.00003L196.5 3.00003ZM198.5 3.00003L198.5 1.50003L198.5 -1.49997L198.5 -2.99997L199.5 -2.99997L199.5 -1.49997L199.5 1.50003L199.5 3.00003L198.5 3.00003ZM200.5 3.00004L200.5 1.50004L200.5 -1.49996L200.5 -2.99996L201.5 -2.99996L201.5 -1.49996L201.5 1.50004L201.5 3.00004L200.5 3.00004ZM202.5 3.00004L202.5 1.50004L202.5 -1.49996L202.5 -2.99996L203.5 -2.99996L203.5 -1.49996L203.5 1.50004L203.5 3.00004L202.5 3.00004ZM204.5 3.00004L204.5 1.50004L204.5 -1.49996L204.5 -2.99996L205.5 -2.99996L205.5 -1.49996L205.5 1.50004L205.5 3.00004L204.5 3.00004ZM206.5 3.00004L206.5 1.50004L206.5 -1.49996L206.5 -2.99996L207.5 -2.99996L207.5 -1.49996L207.5 1.50004L207.5 3.00004L206.5 3.00004ZM208.5 3.00004L208.5 1.50004L208.5 -1.49996L208.5 -2.99996L209.5 -2.99996L209.5 -1.49996L209.5 1.50004L209.5 3.00004L208.5 3.00004ZM210.5 3.00004L210.5 1.50004L210.5 -1.49996L210.5 -2.99996L211.5 -2.99996L211.5 -1.49996L211.5 1.50004L211.5 3.00004L210.5 3.00004ZM212.5 3.00004L212.5 1.50004L212.5 -1.49996L212.5 -2.99996L213.5 -2.99996L213.5 -1.49996L213.5 1.50004L213.5 3.00004L212.5 3.00004ZM214.5 3.00004L214.5 1.50004L214.5 -1.49996L214.5 -2.99996L215.5 -2.99996L215.5 -1.49996L215.5 1.50004L215.5 3.00004L214.5 3.00004ZM216.5 3.00004L216.5 1.50004L216.5 -1.49996L216.5 -2.99996L217.5 -2.99996L217.5 -1.49996L217.5 1.50004L217.5 3.00004L216.5 3.00004ZM218.5 3.00004L218.5 1.50004L218.5 -1.49996L218.5 -2.99996L219.5 -2.99996L219.5 -1.49996L219.5 1.50004L219.5 3.00004L218.5 3.00004ZM220.5 3.00004L220.5 1.50004L220.5 -1.49996L220.5 -2.99996L221.5 -2.99996L221.5 -1.49996L221.5 1.50004L221.5 3.00004L220.5 3.00004ZM222.5 3.00004L222.5 1.50004L222.5 -1.49996L222.5 -2.99996L223.5 -2.99996L223.5 -1.49996L223.5 1.50004L223.5 3.00004L222.5 3.00004ZM224.5 3.00004L224.5 1.50004L224.5 -1.49996L224.5 -2.99996L225.5 -2.99996L225.5 -1.49996L225.5 1.50004L225.5 3.00004L224.5 3.00004ZM226.5 3.00004L226.5 1.50004L226.5 -1.49996L226.5 -2.99996L227.5 -2.99996L227.5 -1.49996L227.5 1.50004L227.5 3.00004L226.5 3.00004ZM228.5 3.00004L228.5 1.50004L228.5 -1.49996L228.5 -2.99996L229.5 -2.99996L229.5 -1.49996L229.5 1.50004L229.5 3.00004L228.5 3.00004ZM230.5 3.00004L230.5 1.50004L230.5 -1.49996L230.5 -2.99996L231.5 -2.99996L231.5 -1.49996L231.5 1.50004L231.5 3.00004L230.5 3.00004ZM232.5 3.00004L232.5 1.50004L232.5 -1.49996L232.5 -2.99996L233.5 -2.99996L233.5 -1.49996L233.5 1.50004L233.5 3.00004L232.5 3.00004ZM234.5 3.00004L234.5 1.50004L234.5 -1.49996L234.5 -2.99996L235.5 -2.99996L235.5 -1.49996L235.5 1.50004L235.5 3.00004L234.5 3.00004ZM236.5 3.00004L236.5 1.50004L236.5 -1.49996L236.5 -2.99996L237.5 -2.99996L237.5 -1.49996L237.5 1.50004L237.5 3.00004L236.5 3.00004ZM238.5 3.00004L238.5 1.50004L238.5 -1.49996L238.5 -2.99996L239 -2.99996C239.21 -2.99996 239.419 -2.9959 239.627 -2.98786L239.569 -1.48897L239.453 1.50879L239.395 3.00766C239.264 3.00261 239.133 3.00004 239 3.00004L238.5 3.00004ZM240.703 -1.40081L240.354 1.57882L240.18 3.06862C240.442 3.0993 240.7 3.14006 240.955 3.19045L241.246 1.71897L241.828 -1.22399L242.119 -2.69548C241.711 -2.77632 241.297 -2.84157 240.878 -2.89062L240.703 -1.40081ZM242.937 -0.958797L242.124 1.92896L241.717 3.37284C241.97 3.44391 242.218 3.52467 242.462 3.6147L242.981 2.20748L244.02 -0.606975L244.539 -2.01421C244.148 -2.15879 243.749 -2.28852 243.343 -2.40268L242.937 -0.958797ZM245.073 -0.170436L243.815 2.55319L243.186 3.915C243.424 4.02489 243.657 4.14393 243.885 4.27169L244.619 2.9636L246.087 0.347455L246.821 -0.96062C246.457 -1.1652 246.083 -1.35599 245.702 -1.53225L245.073 -0.170436ZM247.058 0.943242L245.389 3.43615L244.554 4.6826C244.772 4.82853 244.984 4.98288 245.19 5.14517L246.119 3.9678L247.978 1.61307L248.907 0.435712C248.579 0.176626 248.24 -0.0699258 247.892 -0.30321L247.058 0.943242ZM247.445 5.1941L249.648 3.15717L250.749 2.13871C250.465 1.83147 250.169 1.53543 249.861 1.25129L248.843 2.35253L246.806 4.55501L245.788 5.65625C245.98 5.83437 246.166 6.01996 246.344 6.21256L247.445 5.1941ZM250.387 4.02215L248.032 5.88099L246.855 6.8104C247.017 7.01599 247.172 7.22802 247.317 7.446L248.564 6.61152L251.057 4.94256L252.303 4.10808C252.07 3.75963 251.823 3.42094 251.564 3.09274L250.387 4.02215ZM251.653 5.91278L249.036 7.38102L247.728 8.11514C247.856 8.34279 247.975 8.57582 248.085 8.81379L249.447 8.18493L252.171 6.92721L253.532 6.29835C253.356 5.91665 253.165 5.54318 252.961 5.17866L251.653 5.91278ZM252.607 7.97994L249.793 9.01861L248.385 9.53795C248.475 9.7819 248.556 10.0303 248.627 10.2828L250.071 9.87633L252.959 9.06341L254.403 8.65695C254.289 8.25141 254.159 7.85239 254.014 7.46061L252.607 7.97994ZM253.224 10.1718L250.281 10.754L248.81 11.0451C248.86 11.2999 248.901 11.5584 248.931 11.8202L250.421 11.6457L253.401 11.2966L254.891 11.122C254.842 10.7034 254.776 10.2894 254.696 9.88074L253.224 10.1718ZM253.489 12.431L250.491 12.5469L248.992 12.6048C248.997 12.7358 249 12.8675 249 13L249 13.5L250.5 13.5L253.5 13.5L255 13.5L255 13C255 12.7902 254.996 12.5812 254.988 12.373L253.489 12.431ZM255 14.5L255 15.5L253.5 15.5L250.5 15.5L249 15.5L249 14.5L250.5 14.5L253.5 14.5L255 14.5ZM249 16.5L250.5 16.5L253.5 16.5L255 16.5L255 17.5L253.5 17.5L250.5 17.5L249 17.5L249 16.5ZM249 18.5L250.5 18.5L253.5 18.5L255 18.5L255 19.5L253.5 19.5L250.5 19.5L249 19.5L249 18.5ZM249 20.5L250.5 20.5L253.5 20.5L255 20.5L255 21.5L253.5 21.5L250.5 21.5L249 21.5L249 20.5ZM249 22.5L250.5 22.5L253.5 22.5L255 22.5L255 23.5L253.5 23.5L250.5 23.5L249 23.5L249 22.5ZM249 24.5L250.5 24.5L253.5 24.5L255 24.5L255 25.5L253.5 25.5L250.5 25.5L249 25.5L249 24.5ZM249 26.5L250.5 26.5L253.5 26.5L255 26.5L255 27.5L253.5 27.5L250.5 27.5L249 27.5L249 26.5ZM249 28.5L250.5 28.5L253.5 28.5L255 28.5L255 29.5L253.5 29.5L250.5 29.5L249 29.5L249 28.5ZM249 30.5L250.5 30.5L253.5 30.5L255 30.5L255 31.5L253.5 31.5L250.5 31.5L249 31.5L249 30.5ZM249 32.5L250.5 32.5L253.5 32.5L255 32.5L255 33.5L253.5 33.5L250.5 33.5L249 33.5L249 32.5ZM249 34.5L250.5 34.5L253.5 34.5L255 34.5L255 35.5L253.5 35.5L250.5 35.5L249 35.5L249 34.5ZM249 36.5L250.5 36.5L253.5 36.5L255 36.5L255 37.5L253.5 37.5L250.5 37.5L249 37.5L249 36.5ZM249 38.5L250.5 38.5L253.5 38.5L255 38.5L255 39.5L253.5 39.5L250.5 39.5L249 39.5L249 38.5ZM249 40.5L250.5 40.5L253.5 40.5L255 40.5L255 41.5L253.5 41.5L250.5 41.5L249 41.5L249 40.5ZM249 42.5L250.5 42.5L253.5 42.5L255 42.5L255 43.5L253.5 43.5L250.5 43.5L249 43.5L249 42.5ZM249 44.5L250.5 44.5L253.5 44.5L255 44.5L255 45.5L253.5 45.5L250.5 45.5L249 45.5L249 44.5ZM249 46.5L250.5 46.5L253.5 46.5L255 46.5L255 47.5L253.5 47.5L250.5 47.5L249 47.5L249 46.5ZM249 48.5L250.5 48.5L253.5 48.5L255 48.5L255 49.5L253.5 49.5L250.5 49.5L249 49.5L249 48.5ZM249 50.5L250.5 50.5L253.5 50.5L255 50.5L255 51.5L253.5 51.5L250.5 51.5L249 51.5L249 50.5ZM249 52.5L250.5 52.5L253.5 52.5L255 52.5L255 53.5L253.5 53.5L250.5 53.5L249 53.5L249 52.5ZM249 54.5L250.5 54.5L253.5 54.5L255 54.5L255 55.5L253.5 55.5L250.5 55.5L249 55.5L249 54.5ZM249 56.5L250.5 56.5L253.5 56.5L255 56.5L255 57.5L253.5 57.5L250.5 57.5L249 57.5L249 56.5ZM249 58.5L250.5 58.5L253.5 58.5L255 58.5L255 59.5L253.5 59.5L250.5 59.5L249 59.5L249 58.5ZM249 60.5L250.5 60.5L253.5 60.5L255 60.5L255 61.5L253.5 61.5L250.5 61.5L249 61.5L249 60.5ZM249 62.5L250.5 62.5L253.5 62.5L255 62.5L255 63.5L253.5 63.5L250.5 63.5L249 63.5L249 62.5ZM249 64.5L250.5 64.5L253.5 64.5L255 64.5L255 65.5L253.5 65.5L250.5 65.5L249 65.5L249 64.5ZM249 66.5L250.5 66.5L253.5 66.5L255 66.5L255 67.5L253.5 67.5L250.5 67.5L249 67.5L249 66.5ZM249 68.5L250.5 68.5L253.5 68.5L255 68.5L255 69.5L253.5 69.5L250.5 69.5L249 69.5L249 68.5ZM249 70.5L250.5 70.5L253.5 70.5L255 70.5L255 71.5L253.5 71.5L250.5 71.5L249 71.5L249 70.5ZM249 72.5L250.5 72.5L253.5 72.5L255 72.5L255 73.5L253.5 73.5L250.5 73.5L249 73.5L249 72.5ZM249 74.5L250.5 74.5L253.5 74.5L255 74.5L255 75.5L253.5 75.5L250.5 75.5L249 75.5L249 74.5ZM249 76.5L250.5 76.5L253.5 76.5L255 76.5L255 77.5L253.5 77.5L250.5 77.5L249 77.5L249 76.5ZM249 78.5L250.5 78.5L253.5 78.5L255 78.5L255 79.5L253.5 79.5L250.5 79.5L249 79.5L249 78.5ZM249 80.5L250.5 80.5L253.5 80.5L255 80.5L255 81.5L253.5 81.5L250.5 81.5L249 81.5L249 80.5ZM249 82.5L250.5 82.5L253.5 82.5L255 82.5L255 83.5L253.5 83.5L250.5 83.5L249 83.5L249 82.5ZM249 84.5L250.5 84.5L253.5 84.5L255 84.5L255 85.5L253.5 85.5L250.5 85.5L249 85.5L249 84.5ZM249 86.5L250.5 86.5L253.5 86.5L255 86.5L255 87.5L253.5 87.5L250.5 87.5L249 87.5L249 86.5ZM249 88.5L250.5 88.5L253.5 88.5L255 88.5L255 89.5L253.5 89.5L250.5 89.5L249 89.5L249 88.5ZM249 90.5L250.5 90.5L253.5 90.5L255 90.5L255 91.5L253.5 91.5L250.5 91.5L249 91.5L249 90.5ZM249 92.5L250.5 92.5L253.5 92.5L255 92.5L255 93.5L253.5 93.5L250.5 93.5L249 93.5L249 92.5ZM249 94.5L250.5 94.5L253.5 94.5L255 94.5L255 95.5L253.5 95.5L250.5 95.5L249 95.5L249 94.5ZM249 96.5L250.5 96.5L253.5 96.5L255 96.5L255 97.5L253.5 97.5L250.5 97.5L249 97.5L249 96.5ZM249 98.5L250.5 98.5L253.5 98.5L255 98.5L255 99.5L253.5 99.5L250.5 99.5L249 99.5L249 98.5ZM249 100.5L250.5 100.5L253.5 100.5L255 100.5L255 101.5L253.5 101.5L250.5 101.5L249 101.5L249 100.5ZM249 102.5L250.5 102.5L253.5 102.5L255 102.5L255 103.5L253.5 103.5L250.5 103.5L249 103.5L249 102.5ZM249 104.5L250.5 104.5L253.5 104.5L255 104.5L255 105.5L253.5 105.5L250.5 105.5L249 105.5L249 104.5ZM249 106.5L250.5 106.5L253.5 106.5L255 106.5L255 107.5L253.5 107.5L250.5 107.5L249 107.5L249 106.5ZM249 108.5L250.5 108.5L253.5 108.5L255 108.5L255 109.5L253.5 109.5L250.5 109.5L249 109.5L249 108.5ZM249 110.5L250.5 110.5L253.5 110.5L255 110.5L255 111.5L253.5 111.5L250.5 111.5L249 111.5L249 110.5ZM249 112.5L250.5 112.5L253.5 112.5L255 112.5L255 113.5L253.5 113.5L250.5 113.5L249 113.5L249 112.5ZM249 114.5L250.5 114.5L253.5 114.5L255 114.5L255 115.5L253.5 115.5L250.5 115.5L249 115.5L249 114.5ZM249 116.5L250.5 116.5L253.5 116.5L255 116.5L255 117.5L253.5 117.5L250.5 117.5L249 117.5L249 116.5ZM249 118.5L250.5 118.5L253.5 118.5L255 118.5L255 119.5L253.5 119.5L250.5 119.5L249 119.5L249 118.5ZM249 120.5L250.5 120.5L253.5 120.5L255 120.5L255 121.5L253.5 121.5L250.5 121.5L249 121.5L249 120.5ZM249 122.5L250.5 122.5L253.5 122.5L255 122.5L255 123L253.5 123L252 123L250.5 123L249 123L249 122.5Z" fill="white" mask="url(#path-1-inside-1_1148_69279)"/>
<path d="M273.061 120.939C273.646 121.525 273.646 122.475 273.061 123.061L263.515 132.607C262.929 133.192 261.979 133.192 261.393 132.607C260.808 132.021 260.808 131.071 261.393 130.485L269.879 122L261.393 113.515C260.808 112.929 260.808 111.979 261.393 111.393C261.979 110.808 262.929 110.808 263.515 111.393L273.061 120.939ZM250 120.5L250.5 120.5L250.5 123.5L250 123.5L250 120.5ZM251.5 120.5L252.5 120.5L252.5 123.5L251.5 123.5L251.5 120.5ZM253.5 120.5L254.5 120.5L254.5 123.5L253.5 123.5L253.5 120.5ZM255.5 120.5L256.5 120.5L256.5 123.5L255.5 123.5L255.5 120.5ZM257.5 120.5L258.5 120.5L258.5 123.5L257.5 123.5L257.5 120.5ZM259.5 120.5L260.5 120.5L260.5 123.5L259.5 123.5L259.5 120.5ZM261.5 120.5L262.5 120.5L262.5 123.5L261.5 123.5L261.5 120.5ZM263.5 120.5L264.5 120.5L264.5 123.5L263.5 123.5L263.5 120.5ZM265.5 120.5L266.5 120.5L266.5 123.5L265.5 123.5L265.5 120.5ZM267.5 120.5L268.5 120.5L268.5 123.5L267.5 123.5L267.5 120.5ZM269.5 120.5L270.5 120.5L270.5 123.5L269.5 123.5L269.5 120.5ZM271.5 120.5L272 120.5L272 123.5L271.5 123.5L271.5 120.5ZM273.061 120.939C273.646 121.525 273.646 122.475 273.061 123.061L263.515 132.607C262.929 133.192 261.979 133.192 261.393 132.607C260.808 132.021 260.808 131.071 261.393 130.485L269.879 122L261.393 113.515C260.808 112.929 260.808 111.979 261.393 111.393C261.979 110.808 262.929 110.808 263.515 111.393L273.061 120.939ZM250 120.5L250.5 120.5L250.5 123.5L250 123.5L250 120.5ZM251.5 120.5L252.5 120.5L252.5 123.5L251.5 123.5L251.5 120.5ZM253.5 120.5L254.5 120.5L254.5 123.5L253.5 123.5L253.5 120.5ZM255.5 120.5L256.5 120.5L256.5 123.5L255.5 123.5L255.5 120.5ZM257.5 120.5L258.5 120.5L258.5 123.5L257.5 123.5L257.5 120.5ZM259.5 120.5L260.5 120.5L260.5 123.5L259.5 123.5L259.5 120.5ZM261.5 120.5L262.5 120.5L262.5 123.5L261.5 123.5L261.5 120.5ZM263.5 120.5L264.5 120.5L264.5 123.5L263.5 123.5L263.5 120.5ZM265.5 120.5L266.5 120.5L266.5 123.5L265.5 123.5L265.5 120.5ZM267.5 120.5L268.5 120.5L268.5 123.5L267.5 123.5L267.5 120.5ZM269.5 120.5L270.5 120.5L270.5 123.5L269.5 123.5L269.5 120.5ZM271.5 120.5L272 120.5L272 123.5L271.5 123.5L271.5 120.5Z" fill="white"/>
</svg>
