<svg width="104" height="62" viewBox="0 0 104 62" fill="none" xmlns="http://www.w3.org/2000/svg">
<path d="M29.6272 22.8813C29.6272 24.132 29.764 25.1459 30.0026 25.8895C30.3055 26.726 30.6702 27.5393 31.0937 28.3227C31.2643 28.593 31.3323 28.8633 31.3323 29.1002C31.3323 29.4378 31.1279 29.7759 30.6845 30.114L28.536 31.5334C28.229 31.7363 27.9221 31.8376 27.6489 31.8376C27.3081 31.8376 26.9669 31.6685 26.6257 31.3643C26.1658 30.8753 25.7547 30.3434 25.3982 29.7759C25.057 29.2018 24.7158 28.5591 24.3408 27.7821C21.6802 30.8911 18.3378 32.4457 14.3136 32.446C11.4489 32.446 9.16359 31.6346 7.49225 30.0128C5.82132 28.3901 4.96875 26.2272 4.96875 23.5236C4.96875 20.6511 5.99191 18.3191 8.07243 16.5617C10.1525 14.8042 12.9154 13.9255 16.4283 13.9255C17.5879 13.9255 18.7816 14.0268 20.0434 14.1958C21.3055 14.3649 22.6015 14.6352 23.9658 14.9394V12.4723C23.9658 9.90349 23.4198 8.11256 22.3625 7.0648C21.2713 6.01704 19.4294 5.5099 16.8033 5.5099C15.6095 5.5099 14.382 5.64545 13.1198 5.94966C11.8577 6.25386 10.6301 6.62544 9.43638 7.09869C8.8908 7.33511 8.48161 7.47027 8.24262 7.53805C8.00363 7.60583 7.83344 7.63932 7.69704 7.63932C7.21946 7.63932 6.98087 7.30123 6.98087 6.59155V4.93538C6.98087 4.39475 7.04927 3.98928 7.21946 3.75286C7.39005 3.51604 7.69704 3.27961 8.17463 3.04319C9.36824 2.43452 10.8006 1.92751 12.4717 1.52217C14.1434 1.08281 15.9169 0.880278 17.7927 0.880278C21.8515 0.880278 24.8188 1.79249 26.7287 3.6177C28.6044 5.44252 29.5596 8.21383 29.5596 11.9316V22.8813H29.6272ZM15.7801 28.0185C16.9059 28.0185 18.0654 27.816 19.293 27.4101C20.5209 27.0046 21.6125 26.2611 22.5331 25.2472C23.079 24.6053 23.4882 23.8956 23.6926 23.0843C23.8974 22.2733 24.0338 21.2929 24.0338 20.1439V18.7246C22.9995 18.4753 21.9519 18.2835 20.8959 18.1501C19.8326 18.0164 18.7619 17.9486 17.6901 17.9471C15.4047 17.9471 13.7338 18.3865 12.6085 19.2991C11.4831 20.2117 10.9371 21.4959 10.9371 23.1855C10.9371 24.7739 11.3463 25.9569 12.1989 26.7682C13.0176 27.613 14.2114 28.0185 15.7801 28.0185ZM43.1673 31.6685C42.5533 31.6685 42.1441 31.5673 41.8713 31.3304C41.5985 31.1279 41.3595 30.6547 41.1551 30.0128L33.1405 3.88802C32.9353 3.21183 32.8331 2.77247 32.8331 2.53605C32.8331 1.99542 33.1059 1.69082 33.6518 1.69082H36.9941C37.6419 1.69082 38.0857 1.79249 38.3243 2.02891C38.597 2.23185 38.8018 2.70509 39.0062 3.34699L44.736 25.7204L50.0566 3.34699C50.2272 2.67121 50.432 2.23185 50.7044 2.02891C50.9776 1.82638 51.4551 1.69122 52.0691 1.69122H54.7974C55.4452 1.69122 55.889 1.79249 56.1614 2.02891C56.4346 2.23185 56.6731 2.70509 56.8095 3.34699L62.1985 25.9907L68.0985 3.34699C68.3029 2.67121 68.5419 2.23185 68.7805 2.02891C69.0533 1.82638 69.4966 1.69122 70.1106 1.69122H73.2823C73.8283 1.69122 74.1353 1.96153 74.1353 2.53605C74.1353 2.70509 74.1011 2.87414 74.0669 3.07668C74.0327 3.27921 73.9647 3.54992 73.8283 3.9219L65.6084 30.0462C65.404 30.7224 65.1653 31.1618 64.8922 31.3643C64.6194 31.5673 64.176 31.7024 63.5967 31.7024H60.6636C60.0154 31.7024 59.572 31.6012 59.2988 31.3643C59.0261 31.1279 58.7875 30.6885 58.6511 30.0128L53.3643 8.21383L48.1121 29.9785C47.9419 30.6547 47.7371 31.094 47.4643 31.3304C47.1915 31.5673 46.7139 31.6685 46.1003 31.6685H43.1673ZM86.9934 32.5811C85.2198 32.5811 83.4463 32.3782 81.7412 31.9727C80.0356 31.5673 78.7059 31.1275 77.8191 30.6212C77.2731 30.3166 76.8978 29.9789 76.7618 29.6747C76.6291 29.3763 76.5594 29.0542 76.557 28.7282V27.0046C76.557 26.2949 76.8298 25.9569 77.3415 25.9569C77.5504 25.9576 77.7578 25.992 77.9555 26.0585C78.1599 26.1263 78.4669 26.2611 78.8081 26.3962C80.0126 26.9216 81.2702 27.3181 82.5595 27.5791C83.8955 27.8476 85.2552 27.9834 86.6184 27.9846C88.7669 27.9846 90.4382 27.613 91.5978 26.8695C92.7573 26.1259 93.3713 25.0446 93.3713 23.6588C93.3713 22.7127 93.0643 21.9352 92.4504 21.2929C91.8364 20.6507 90.6768 20.0765 89.0059 19.5355L84.0603 18.0149C81.5706 17.2374 79.729 16.0884 78.6033 14.5674C77.4779 13.0803 76.8982 11.4245 76.8982 9.66707C76.8982 8.24772 77.2051 6.99716 77.8191 5.91537C78.4327 4.83411 79.2515 3.88802 80.2746 3.14445C81.2978 2.367 82.4573 1.79249 83.8217 1.38702C85.1856 0.981546 86.618 0.8125 88.1187 0.8125C88.8691 0.8125 89.6537 0.846389 90.404 0.947657C91.1886 1.04892 91.9048 1.18408 92.6209 1.31924C93.3029 1.48828 93.9511 1.65733 94.5651 1.86026C95.1788 2.0628 95.6562 2.26547 95.9974 2.46827C96.475 2.73898 96.8158 3.0093 97.0206 3.3135C97.2252 3.58381 97.3276 3.95553 97.3276 4.42864V6.01704C97.3276 6.72671 97.0548 7.09869 96.543 7.09869C96.2702 7.09869 95.8268 6.96313 95.2474 6.69282C93.3028 5.8141 91.1199 5.37474 88.6989 5.37474C86.7548 5.37474 85.2198 5.67894 84.1625 6.32124C83.1055 6.96313 82.5595 7.94352 82.5595 9.32898C82.5595 10.2755 82.9007 11.0864 83.5827 11.7287C84.2647 12.371 85.5268 13.0129 87.3346 13.5874L92.1776 15.1084C94.6331 15.8859 96.4066 16.9671 97.464 18.3526C98.5213 19.738 99.0331 21.3268 99.0331 23.0843C99.0331 24.5375 98.7257 25.8556 98.1459 27.0046C97.5324 28.1537 96.7136 29.1675 95.6562 29.9789C94.5989 30.8237 93.3371 31.4321 91.8706 31.8715C90.3356 32.3447 88.7327 32.5811 86.9934 32.5811Z" fill="#252F3E"/>
<path d="M93.4372 49.0058C82.2166 57.2185 65.9136 61.5782 51.8964 61.5782C32.2511 61.5782 14.5504 54.3794 1.18096 42.4154C0.123599 41.4693 1.07836 40.1851 2.34011 40.9283C16.8011 49.2426 34.6387 54.2781 53.0901 54.2781C65.5386 54.2781 79.2151 51.7097 91.8004 46.4374C93.6762 45.5922 95.2791 47.6542 93.4372 49.0058ZM98.11 43.7335C96.6776 41.9087 88.6283 42.8548 84.9791 43.2941C83.8875 43.4297 83.7169 42.4832 84.7063 41.7735C91.1181 37.3121 101.657 38.5967 102.885 40.0834C104.113 41.6045 102.543 52.0474 96.5408 57.0494C95.6203 57.8269 94.7335 57.4214 95.1427 56.4075C96.5066 53.0613 99.5423 45.5248 98.11 43.7335Z" fill="#FF9900"/>
</svg>
