<svg width="91" height="92" viewBox="0 0 91 92" fill="none" xmlns="http://www.w3.org/2000/svg">
<path d="M34.1292 11.5566H54.3255L33.3614 77.4776C33.1671 78.1402 32.7663 78.7234 32.2175 79.1423C31.6687 79.5612 31.0004 79.794 30.3101 79.8066H14.5898C13.7118 79.7799 12.8803 79.4058 12.2778 78.7665C11.6753 78.1273 11.3511 77.2751 11.3764 76.397C11.3779 76.0255 11.4354 75.6564 11.547 75.3021L31.0836 13.88C31.2786 13.2194 31.6789 12.6381 32.2265 12.2204C32.7742 11.8026 33.4406 11.5701 34.1292 11.5566Z" fill="#01579B"/>
<path d="M63.4743 57.0566H31.4537C31.0496 57.0678 30.6665 57.2387 30.3882 57.5319C30.1099 57.8251 29.9593 58.2166 29.9692 58.6207C29.967 58.8357 30.0076 59.0491 30.0886 59.2483C30.1697 59.4475 30.2896 59.6285 30.4413 59.781L51.0187 78.8796C51.602 79.4672 52.3946 79.7996 53.2226 79.8038H71.3543L63.4743 57.0566Z" fill="#1976D2"/>
<path d="M59.9222 13.8771C59.7268 13.2175 59.3267 12.6372 58.7797 12.22C58.2327 11.8029 57.5672 11.5706 56.8794 11.5566H34.3711C35.0595 11.5692 35.726 11.8005 36.2741 12.2172C36.8222 12.6339 37.2234 13.2143 37.4196 13.8743L56.9505 75.2965C57.2306 76.1385 57.1774 77.0558 56.8018 77.8598C56.4263 78.6638 55.7569 79.2934 54.9314 79.619C54.6009 79.7369 54.2529 79.7985 53.902 79.801H76.4102C77.2883 79.7749 78.1201 79.4016 78.7231 78.7628C79.3261 78.1241 79.651 77.2722 79.6265 76.3941C79.625 76.0227 79.5675 75.6536 79.4559 75.2993L59.925 13.88L59.9222 13.8771Z" fill="#29B6F6"/>
</svg>
