<svg width="491" height="123" viewBox="0 0 491 123" fill="none" xmlns="http://www.w3.org/2000/svg">
<mask id="path-1-inside-1_1404_2558" fill="white">
<path d="M0 13C0 5.8203 5.8203 0 13 0H491V110C491 117.18 485.18 123 478 123H13C5.82029 123 0 117.18 0 110V13Z"/>
</mask>
<path d="M13 120V126C12.79 126 12.5811 125.994 12.373 125.986L12.4893 122.99L12.6045 119.992C12.7355 119.997 12.8675 120 13 120ZM478.511 122.99L478.569 124.489H478.568L478.626 125.986C478.418 125.994 478.21 126 478 126H477.502V120H478C478.133 120 478.265 119.997 478.396 119.992L478.511 122.99ZM13.499 120V126H13V120H13.499ZM15.4941 120V126H14.4971V120H15.4941ZM17.4902 120V126H16.4922V120H17.4902ZM19.4863 120V126H18.4883V120H19.4863ZM21.4814 120V126H20.4844V120H21.4814ZM23.4775 120V126H22.4795V120H23.4775ZM25.4736 120V126H24.4756V120H25.4736ZM27.4688 120V126H26.4707V120H27.4688ZM29.4648 120V126H28.4668V120H29.4648ZM31.46 120V126H30.4629V120H31.46ZM33.4561 120V126H32.458V120H33.4561ZM35.4521 120V126H34.4541V120H35.4521ZM37.4473 120V126H36.4492V120H37.4473ZM39.4434 120V126H38.4453V120H39.4434ZM41.4385 120V126H40.4414V120H41.4385ZM43.4346 120V126H42.4365V120H43.4346ZM45.4307 120V126H44.4326V120H45.4307ZM47.4258 120V126H46.4277V120H47.4258ZM49.4219 120V126H48.4238V120H49.4219ZM51.417 120V126H50.4199V120H51.417ZM53.4131 120V126H52.415V120H53.4131ZM55.4092 120V126H54.4111V120H55.4092ZM57.4043 120V126H56.4062V120H57.4043ZM59.4004 120V126H58.4023V120H59.4004ZM61.3955 120V126H60.3984V120H61.3955ZM63.3916 120V126H62.3936V120H63.3916ZM65.3877 120V126H64.3896V120H65.3877ZM67.3828 120V126H66.3848V120H67.3828ZM69.3789 120V126H68.3809V120H69.3789ZM71.374 120V126H70.377V120H71.374ZM73.3701 120V126H72.3721V120H73.3701ZM75.3662 120V126H74.3682V120H75.3662ZM77.3613 120V126H76.3633V120H77.3613ZM79.3574 120V126H78.3594V120H79.3574ZM81.3525 120V126H80.3555V120H81.3525ZM83.3486 120V126H82.3506V120H83.3486ZM85.3447 120V126H84.3467V120H85.3447ZM87.3398 120V126H86.3418V120H87.3398ZM89.3359 120V126H88.3379V120H89.3359ZM91.3311 120V126H90.334V120H91.3311ZM93.3271 120V126H92.3291V120H93.3271ZM95.3232 120V126H94.3252V120H95.3232ZM97.3184 120V126H96.3203V120H97.3184ZM99.3145 120V126H98.3164V120H99.3145ZM101.311 120V126H100.312V120H101.311ZM103.306 120V126H102.308V120H103.306ZM105.302 120V126H104.304V120H105.302ZM107.297 120V126H106.3V120H107.297ZM109.293 120V126H108.295V120H109.293ZM111.289 120V126H110.291V120H111.289ZM113.284 120V126H112.286V120H113.284ZM115.28 120V126H114.282V120H115.28ZM117.275 120V126H116.278V120H117.275ZM119.271 120V126H118.273V120H119.271ZM121.268 120V126H120.27V120H121.268ZM123.263 120V126H122.265V120H123.263ZM125.259 120V126H124.261V120H125.259ZM127.254 120V126H126.257V120H127.254ZM129.25 120V126H128.252V120H129.25ZM131.246 120V126H130.248V120H131.246ZM133.241 120V126H132.243V120H133.241ZM135.237 120V126H134.239V120H135.237ZM137.232 120V126H136.235V120H137.232ZM139.229 120V126H138.23V120H139.229ZM141.225 120V126H140.227V120H141.225ZM143.22 120V126H142.223V120H143.22ZM145.216 120V126H144.218V120H145.216ZM147.211 120V126H146.214V120H147.211ZM149.207 120V126H148.209V120H149.207ZM151.203 120V126H150.205V120H151.203ZM153.198 120V126H152.2V120H153.198ZM155.194 120V126H154.196V120H155.194ZM157.189 120V126H156.192V120H157.189ZM159.186 120V126H158.188V120H159.186ZM161.182 120V126H160.184V120H161.182ZM163.177 120V126H162.179V120H163.177ZM165.173 120V126H164.175V120H165.173ZM167.168 120V126H166.171V120H167.168ZM169.164 120V126H168.166V120H169.164ZM171.16 120V126H170.162V120H171.16ZM173.155 120V126H172.157V120H173.155ZM175.151 120V126H174.153V120H175.151ZM177.146 120V126H176.149V120H177.146ZM179.143 120V126H178.145V120H179.143ZM181.139 120V126H180.141V120H181.139ZM183.134 120V126H182.136V120H183.134ZM185.13 120V126H184.132V120H185.13ZM187.125 120V126H186.128V120H187.125ZM189.121 120V126H188.123V120H189.121ZM191.117 120V126H190.119V120H191.117ZM193.112 120V126H192.114V120H193.112ZM195.108 120V126H194.11V120H195.108ZM197.104 120V126H196.106V120H197.104ZM199.1 120V126H198.102V120H199.1ZM201.096 120V126H200.098V120H201.096ZM203.091 120V126H202.093V120H203.091ZM205.087 120V126H204.089V120H205.087ZM207.082 120V126H206.084V120H207.082ZM209.078 120V126H208.08V120H209.078ZM211.073 120V126H210.076V120H211.073ZM213.069 120V126H212.071V120H213.069ZM215.065 120V126H214.067V120H215.065ZM217.061 120V126H216.062V120H217.061ZM219.057 120V126H218.059V120H219.057ZM221.052 120V126H220.055V120H221.052ZM223.048 120V126H222.05V120H223.048ZM225.044 120V126H224.046V120H225.044ZM227.039 120V126H226.041V120H227.039ZM229.035 120V126H228.037V120H229.035ZM231.03 120V126H230.033V120H231.03ZM233.026 120V126H232.028V120H233.026ZM235.022 120V126H234.024V120H235.022ZM237.018 120V126H236.02V120H237.018ZM239.014 120V126H238.016V120H239.014ZM241.009 120V126H240.012V120H241.009ZM243.005 120V126H242.007V120H243.005ZM245.001 120V126H244.003V120H245.001ZM246.996 120V126H245.998V120H246.996ZM248.992 120V126H247.994V120H248.992ZM250.987 120V126H249.99V120H250.987ZM252.983 120V126H251.985V120H252.983ZM254.979 120V126H253.981V120H254.979ZM256.975 120V126H255.977V120H256.975ZM258.971 120V126H257.973V120H258.971ZM260.966 120V126H259.969V120H260.966ZM262.962 120V126H261.964V120H262.962ZM264.958 120V126H263.96V120H264.958ZM266.953 120V126H265.955V120H266.953ZM268.949 120V126H267.951V120H268.949ZM270.944 120V126H269.947V120H270.944ZM272.94 120V126H271.942V120H272.94ZM274.937 120V126H273.938V120H274.937ZM276.932 120V126H275.934V120H276.932ZM278.928 120V126H277.93V120H278.928ZM280.923 120V126H279.926V120H280.923ZM282.919 120V126H281.921V120H282.919ZM284.915 120V126H283.917V120H284.915ZM286.91 120V126H285.912V120H286.91ZM288.906 120V126H287.908V120H288.906ZM290.902 120V126H289.904V120H290.902ZM292.897 120V126H291.899V120H292.897ZM294.894 120V126H293.896V120H294.894ZM296.889 120V126H295.892V120H296.889ZM298.885 120V126H297.887V120H298.885ZM300.881 120V126H299.883V120H300.881ZM302.876 120V126H301.878V120H302.876ZM304.872 120V126H303.874V120H304.872ZM306.868 120V126H305.87V120H306.868ZM308.863 120V126H307.865V120H308.863ZM310.859 120V126H309.861V120H310.859ZM312.854 120V126H311.857V120H312.854ZM314.851 120V126H313.853V120H314.851ZM316.847 120V126H315.849V120H316.847ZM318.842 120V126H317.845V120H318.842ZM320.838 120V126H319.84V120H320.838ZM322.834 120V126H321.836V120H322.834ZM324.829 120V126H323.831V120H324.829ZM326.825 120V126H325.827V120H326.825ZM328.82 120V126H327.823V120H328.82ZM330.816 120V126H329.818V120H330.816ZM332.812 120V126H331.814V120H332.812ZM334.808 120V126H333.81V120H334.808ZM336.804 120V126H335.806V120H336.804ZM338.8 120V126H337.802V120H338.8ZM340.795 120V126H339.797V120H340.795ZM342.791 120V126H341.793V120H342.791ZM344.786 120V126H343.789V120H344.786ZM346.782 120V126H345.784V120H346.782ZM348.778 120V126H347.78V120H348.778ZM350.773 120V126H349.775V120H350.773ZM352.77 120V126H351.771V120H352.77ZM354.766 120V126H353.768V120H354.766ZM356.761 120V126H355.763V120H356.761ZM358.757 120V126H357.759V120H358.757ZM360.752 120V126H359.755V120H360.752ZM362.748 120V126H361.75V120H362.748ZM364.744 120V126H363.746V120H364.744ZM366.739 120V126H365.742V120H366.739ZM368.735 120V126H367.737V120H368.735ZM370.731 120V126H369.733V120H370.731ZM372.727 120V126H371.729V120H372.727ZM374.723 120V126H373.725V120H374.723ZM376.718 120V126H375.721V120H376.718ZM378.714 120V126H377.716V120H378.714ZM380.71 120V126H379.712V120H380.71ZM382.705 120V126H381.707V120H382.705ZM384.701 120V126H383.703V120H384.701ZM386.697 120V126H385.699V120H386.697ZM388.692 120V126H387.694V120H388.692ZM390.688 120V126H389.69V120H390.688ZM392.684 120V126H391.687V120H392.684ZM394.68 120V126H393.682V120H394.68ZM396.676 120V126H395.678V120H396.676ZM398.671 120V126H397.673V120H398.671ZM400.667 120V126H399.669V120H400.667ZM402.663 120V126H401.665V120H402.663ZM404.658 120V126H403.66V120H404.658ZM406.654 120V126H405.656V120H406.654ZM408.649 120V126H407.652V120H408.649ZM410.646 120V126H409.647V120H410.646ZM412.642 120V126H411.644V120H412.642ZM414.637 120V126H413.64V120H414.637ZM416.633 120V126H415.635V120H416.633ZM418.629 120V126H417.631V120H418.629ZM420.624 120V126H419.626V120H420.624ZM422.62 120V126H421.622V120H422.62ZM424.615 120V126H423.618V120H424.615ZM426.611 120V126H425.613V120H426.611ZM428.607 120V126H427.609V120H428.607ZM430.603 120V126H429.604V120H430.603ZM432.599 120V126H431.601V120H432.599ZM434.595 120V126H433.597V120H434.595ZM436.59 120V126H435.592V120H436.59ZM438.586 120V126H437.588V120H438.586ZM440.581 120V126H439.584V120H440.581ZM442.577 120V126H441.579V120H442.577ZM444.573 120V126H443.575V120H444.573ZM446.568 120V126H445.57V120H446.568ZM448.564 120V126H447.566V120H448.564ZM450.561 120V126H449.562V120H450.561ZM452.556 120V126H451.558V120H452.556ZM454.552 120V126H453.554V120H454.552ZM456.547 120V126H455.55V120H456.547ZM458.543 120V126H457.545V120H458.543ZM460.539 120V126H459.541V120H460.539ZM462.534 120V126H461.537V120H462.534ZM464.53 120V126H463.532V120H464.53ZM466.526 120V126H465.528V120H466.526ZM468.521 120V126H467.523V120H468.521ZM470.518 120V126H469.52V120H470.518ZM472.513 120V126H471.516V120H472.513ZM474.509 120V126H473.511V120H474.509ZM476.505 120V126H475.507V120H476.505ZM11.0449 119.81C11.1856 119.837 11.3278 119.861 11.4707 119.883C11.4808 119.884 11.4909 119.886 11.501 119.888C11.6068 119.904 11.7133 119.919 11.8203 119.932L11.4707 122.911L11.3359 124.069L11.1221 125.889C11.1042 125.887 11.0862 125.885 11.0684 125.883C10.675 125.835 10.2859 125.774 9.90137 125.698C9.89454 125.697 9.88769 125.696 9.88086 125.694L10.4629 122.753L11.0449 119.81ZM480.537 122.753L481.118 125.694C481.111 125.696 481.104 125.697 481.098 125.698C480.713 125.774 480.324 125.835 479.931 125.883C479.913 125.885 479.895 125.887 479.877 125.889L479.529 122.911L479.373 121.582L479.18 119.932C479.286 119.919 479.392 119.904 479.498 119.888C479.508 119.886 479.518 119.884 479.528 119.883C479.672 119.861 479.814 119.837 479.955 119.81L480.537 122.753ZM9.53809 119.386C9.68792 119.441 9.84006 119.491 9.99316 119.539C10.0272 119.55 10.0615 119.56 10.0957 119.57C10.158 119.589 10.2204 119.609 10.2832 119.627L9.46973 122.515L9.34961 122.943L8.65723 125.402C8.25185 125.288 7.85257 125.159 7.46094 125.015L7.97949 123.607L9.53809 119.386ZM483.021 123.607H483.02L483.539 125.015C483.147 125.159 482.748 125.288 482.343 125.402L481.53 122.515L481.401 122.057L480.717 119.627C480.779 119.609 480.841 119.589 480.903 119.57C480.938 119.56 480.972 119.55 481.006 119.539C481.159 119.491 481.312 119.441 481.462 119.386L483.021 123.607ZM8.19824 118.772C8.22965 118.79 8.26136 118.806 8.29297 118.823C8.4006 118.881 8.50925 118.937 8.61914 118.99C8.64452 119.003 8.66982 119.015 8.69531 119.027C8.73483 119.046 8.77368 119.067 8.81348 119.085L8.18359 120.446L8.18457 120.447L7.55566 121.809L7.03223 122.943L6.29785 124.531C6.29164 124.528 6.28551 124.525 6.2793 124.522C5.91517 124.354 5.55844 124.172 5.20996 123.978C5.19953 123.972 5.18913 123.966 5.17871 123.96L6.64648 121.345L7.15039 120.447L8.11523 118.729C8.14253 118.744 8.17079 118.757 8.19824 118.772ZM482.885 118.729L483.85 120.447L484.354 121.345L485.82 123.96C485.81 123.966 485.799 123.972 485.789 123.978C485.441 124.172 485.084 124.354 484.72 124.522C484.714 124.525 484.707 124.528 484.701 124.531L483.444 121.809L482.815 120.447V120.446L482.187 119.085C482.226 119.067 482.264 119.046 482.304 119.027C482.329 119.015 482.355 119.003 482.38 118.99C482.49 118.937 482.598 118.881 482.706 118.823C482.738 118.806 482.769 118.79 482.801 118.772C482.828 118.757 482.857 118.744 482.885 118.729ZM6.92676 117.942C6.96935 117.975 7.01156 118.008 7.05469 118.04C7.16178 118.119 7.2706 118.196 7.38086 118.271C7.3928 118.28 7.40403 118.289 7.41602 118.297C7.42605 118.304 7.43623 118.311 7.44629 118.317L5.77734 120.811L4.1084 123.303C4.10232 123.299 4.09591 123.295 4.08984 123.291C3.74783 123.061 3.41522 122.819 3.09277 122.564L4.95117 120.21L6.81055 117.854C6.84864 117.885 6.88822 117.913 6.92676 117.942ZM486.049 120.21L487.907 122.564C487.585 122.819 487.251 123.061 486.909 123.291C486.903 123.295 486.897 123.299 486.891 123.303L485.223 120.811L483.554 118.317C483.564 118.311 483.573 118.303 483.583 118.297C483.595 118.289 483.606 118.28 483.618 118.271C483.728 118.196 483.837 118.119 483.944 118.04C483.987 118.008 484.03 117.975 484.072 117.942C484.111 117.913 484.151 117.885 484.189 117.854L486.049 120.21ZM5.65625 116.787C5.83437 116.98 6.02029 117.166 6.21289 117.344L5.19336 118.444L5.19434 118.445L4.17578 119.546L2.13867 121.748C2.12193 121.733 2.10554 121.717 2.08887 121.701C1.8161 121.447 1.55227 121.183 1.29785 120.91C1.2823 120.893 1.26646 120.877 1.25098 120.86L3.4541 118.824L3.6709 118.624L5.65625 116.787ZM486.444 117.806H486.445L487.546 118.824L489.748 120.86C489.733 120.877 489.717 120.893 489.701 120.91C489.447 121.183 489.183 121.447 488.91 121.701C488.893 121.717 488.877 121.733 488.86 121.748L486.824 119.546L485.806 118.445V118.444L484.787 117.344C484.98 117.166 485.166 116.98 485.344 116.787L486.444 117.806ZM4.68262 115.554C4.77137 115.686 4.86412 115.816 4.95898 115.944C4.99092 115.987 5.02403 116.03 5.05664 116.072C5.08644 116.111 5.11515 116.151 5.14551 116.189L2.79004 118.049L0.435547 119.907C0.180843 119.585 -0.0612334 119.251 -0.291016 118.909C-0.295093 118.903 -0.298665 118.897 -0.302734 118.891L2.18945 117.223L4.68262 115.554ZM488.811 117.223L491.303 118.891C491.299 118.897 491.295 118.903 491.291 118.909C491.061 119.251 490.819 119.585 490.564 119.907L488.21 118.049L485.854 116.189C485.885 116.151 485.913 116.111 485.942 116.072C485.975 116.03 486.008 115.987 486.04 115.944C486.135 115.816 486.229 115.686 486.317 115.554L488.811 117.223ZM3.97168 114.304C3.98386 114.329 3.9964 114.355 4.00879 114.38C4.06245 114.49 4.11822 114.598 4.17578 114.706C4.19267 114.738 4.20934 114.769 4.22656 114.801C4.24184 114.829 4.25595 114.857 4.27148 114.885L2.96289 115.618L2.96387 115.619L1.65527 116.354L-0.959961 117.82C-0.965812 117.81 -0.971711 117.799 -0.977539 117.789C-1.17532 117.435 -1.36114 117.073 -1.53223 116.702L1.19141 115.444L2.55273 114.815L3.91504 114.187C3.93324 114.226 3.95298 114.265 3.97168 114.304ZM487.085 114.187L489.809 115.444L490.976 115.983L492.532 116.702C492.361 117.073 492.175 117.435 491.978 117.789C491.972 117.799 491.966 117.81 491.96 117.82L489.345 116.354L488.036 115.619V115.618L486.729 114.885C486.744 114.857 486.757 114.828 486.772 114.801C486.79 114.769 486.806 114.738 486.823 114.706C486.881 114.598 486.937 114.49 486.99 114.38C487.003 114.355 487.015 114.329 487.027 114.304C487.046 114.264 487.067 114.226 487.085 114.187ZM3.42871 112.903C3.43908 112.938 3.44924 112.972 3.45996 113.006C3.50826 113.159 3.55883 113.312 3.61426 113.462L-0.607422 115.021V115.02L-2.01465 115.539C-2.15917 115.147 -2.28823 114.748 -2.40234 114.343L0.485352 113.53L3.37305 112.717C3.39062 112.779 3.40996 112.841 3.42871 112.903ZM490.515 113.53L493.402 114.343C493.288 114.748 493.159 115.147 493.015 115.539L491.607 115.02V115.021L487.386 113.462C487.441 113.312 487.491 113.159 487.539 113.006C487.55 112.972 487.56 112.938 487.57 112.903C487.589 112.841 487.609 112.779 487.627 112.717L490.515 113.53ZM3.06836 111.18C3.09904 111.442 3.14003 111.7 3.19043 111.955L0.24707 112.537L-1.22363 112.828V112.827L-2.69531 113.119C-2.77274 112.728 -2.83453 112.331 -2.88281 111.931C-2.88496 111.913 -2.88658 111.895 -2.88867 111.877L-1.39941 111.703H-1.40039L0.0888672 111.529L1.5791 111.354L3.06836 111.18ZM487.932 111.18L490.911 111.529L492.4 111.703H492.399L493.889 111.877C493.887 111.895 493.885 111.913 493.883 111.931C493.835 112.331 493.773 112.728 493.695 113.119L492.224 112.827V112.828L490.753 112.537L487.81 111.955C487.86 111.7 487.901 111.442 487.932 111.18ZM3.00781 110.396L0.00976562 110.511L-1.48926 110.569V110.568L-2.98633 110.626C-2.98719 110.604 -2.98849 110.581 -2.98926 110.559C-2.99565 110.373 -3 110.187 -3 110V109.505H3V110C3 110.133 3.00275 110.265 3.00781 110.396ZM493.989 110.559C493.988 110.581 493.987 110.604 493.986 110.626L492.489 110.568V110.569L490.99 110.511L487.992 110.396C487.997 110.265 488 110.133 488 110V109.5H494V110C494 110.187 493.996 110.373 493.989 110.559ZM3 107.525V108.516H-3V107.525H3ZM494 107.5V108.5H488V107.5H494ZM3 105.546V106.536H-3V105.546H3ZM494 105.5V106.5H488V105.5H494ZM3 103.566V104.557H-3V103.566H3ZM494 103.5V104.5H488V103.5H494ZM3 101.587V102.576H-3V101.587H3ZM494 101.5V102.5H488V101.5H494ZM3 99.6074V100.597H-3V99.6074H3ZM494 99.5V100.5H488V99.5H494ZM3 97.6279V98.6172H-3V97.6279H3ZM494 97.5V98.5H488V97.5H494ZM3 95.6484V96.6377H-3V95.6484H3ZM494 95.5V96.5H488V95.5H494ZM3 93.668V94.6582H-3V93.668H3ZM494 93.5V94.5H488V93.5H494ZM3 91.6885V92.6787H-3V91.6885H3ZM494 91.5V92.5H488V91.5H494ZM3 89.709V90.6992H-3V89.709H3ZM494 89.5V90.5H488V89.5H494ZM3 87.7295V88.7197H-3V87.7295H3ZM494 87.5V88.5H488V87.5H494ZM3 85.75V86.7402H-3V85.75H3ZM494 85.5V86.5H488V85.5H494ZM3 83.7705V84.7598H-3V83.7705H3ZM494 83.5V84.5H488V83.5H494ZM3 81.791V82.7803H-3V81.791H3ZM494 81.5V82.5H488V81.5H494ZM3 79.8115V80.8008H-3V79.8115H3ZM494 79.5V80.5H488V79.5H494ZM3 77.832V78.8213H-3V77.832H3ZM494 77.5V78.5H488V77.5H494ZM3 75.8516V76.8418H-3V75.8516H3ZM494 75.5V76.5H488V75.5H494ZM3 73.8721V74.8623H-3V73.8721H3ZM494 73.5V74.5H488V73.5H494ZM3 71.8926V72.8828H-3V71.8926H3ZM494 71.5V72.5H488V71.5H494ZM3 69.9131V70.9033H-3V69.9131H3ZM494 69.5V70.5H488V69.5H494ZM3 67.9336V68.9238H-3V67.9336H3ZM494 67.5V68.5H488V67.5H494ZM3 65.9541V66.9443H-3V65.9541H3ZM494 65.5V66.5H488V65.5H494ZM3 63.9746V64.9639H-3V63.9746H3ZM494 63.5V64.5H488V63.5H494ZM3 61.9951V62.9844H-3V61.9951H3ZM494 61.5V62.5H488V61.5H494ZM3 60.0156V61.0049H-3V60.0156H3ZM494 59.5V60.5H488V59.5H494ZM3 58.0361V59.0254H-3V58.0361H3ZM494 57.5V58.5H488V57.5H494ZM3 56.0557V57.0459H-3V56.0557H3ZM494 55.5V56.5H488V55.5H494ZM3 54.0762V55.0664H-3V54.0762H3ZM494 53.5V54.5H488V53.5H494ZM3 52.0967V53.0869H-3V52.0967H3ZM494 51.5V52.5H488V51.5H494ZM3 50.1172V51.1074H-3V50.1172H3ZM494 49.5V50.5H488V49.5H494ZM3 48.1377V49.1279H-3V48.1377H3ZM494 47.5V48.5H488V47.5H494ZM3 46.1582V47.1484H-3V46.1582H3ZM494 45.5V46.5H488V45.5H494ZM3 44.1787V45.168H-3V44.1787H3ZM494 43.5V44.5H488V43.5H494ZM3 42.1992V43.1885H-3V42.1992H3ZM494 41.5V42.5H488V41.5H494ZM3 40.2197V41.209H-3V40.2197H3ZM494 39.5V40.5H488V39.5H494ZM3 38.2402V39.2295H-3V38.2402H3ZM494 37.5V38.5H488V37.5H494ZM3 36.2598V37.25H-3V36.2598H3ZM494 35.5V36.5H488V35.5H494ZM3 34.2803V35.2705H-3V34.2803H3ZM494 33.5V34.5H488V33.5H494ZM3 32.3008V33.291H-3V32.3008H3ZM494 31.5V32.5H488V31.5H494ZM3 30.3213V31.3115H-3V30.3213H3ZM494 29.5V30.5H488V29.5H494ZM3 28.3418V29.332H-3V28.3418H3ZM494 27.5V28.5H488V27.5H494ZM3 26.3623V27.3516H-3V26.3623H3ZM494 25.5V26.5H488V25.5H494ZM3 24.3828V25.3721H-3V24.3828H3ZM494 23.5V24.5H488V23.5H494ZM3 22.4033V23.3926H-3V22.4033H3ZM494 21.5V22.5H488V21.5H494ZM3 20.4238V21.4131H-3V20.4238H3ZM494 19.5V20.5H488V19.5H494ZM3 18.4443V19.4336H-3V18.4443H3ZM494 17.5V18.5H488V17.5H494ZM3 16.4639V17.4541H-3V16.4639H3ZM494 15.5V16.5H488V15.5H494ZM3 14.4844V15.4746H-2.99121C-2.98047 15.1418 -2.9585 14.8117 -2.92773 14.4844H3ZM494 13.5V14.5H488V13.5H494ZM3 13.4951H-2.80371C-2.74497 13.1215 -2.67397 12.7522 -2.58984 12.3877L0.00976562 12.4893L3.00684 12.6035C3.0038 12.7352 3 12.8673 3 13V13.4951ZM494 11.5V12.5H488V11.5H494ZM0.24707 10.4629L3.11426 11.0293C3.08386 11.2892 3.06135 11.5517 3.04297 11.8164L0.0888672 11.4707L-1.40039 11.2969L-1.39941 11.2959L-2.26465 11.1943C-2.14225 10.8052 -2.0052 10.4226 -1.85449 10.0469L0.24707 10.4629ZM494 9.5V10.5H488V9.5H494ZM-0.803711 7.90723L0.696289 8.46094L0.799805 8.49902L3.37891 9.45117C3.32217 9.71167 3.27091 9.97531 3.22656 10.2422L0.485352 9.46973L-0.958984 9.06348L-0.958008 9.0625L-1.36523 8.94824C-1.19077 8.59352 -1.00308 8.24655 -0.803711 7.90723ZM0.507812 6.00195L1.65527 6.64648L2.96387 7.38086H2.96289L3.81348 7.8584C3.72683 8.1197 3.64683 8.38545 3.57324 8.65527L2.55273 8.18359V8.18457L1.19141 7.55566L-0.170898 6.92676L-0.169922 6.92578L-0.175781 6.92383C0.041814 6.60855 0.268729 6.30029 0.507812 6.00195ZM494 7.5V8.5H488V7.5H494ZM2.79004 4.95117L4.44629 6.25879C4.32452 6.51934 4.21322 6.78743 4.10547 7.05957L2.18945 5.77734L1.24512 5.14551C1.49793 4.87186 1.76009 4.607 2.03125 4.35156L2.79004 4.95117ZM494 5.5V6.5H488V5.5H494ZM4.17578 3.4541L4.93164 4.27148L5.31348 4.68359C5.15132 4.9366 4.9988 5.19905 4.85156 5.46777L3.4541 4.17578L2.85742 3.62402C3.13765 3.39409 3.42602 3.17368 3.72168 2.96289L4.17578 3.4541ZM494 3.5V4.5H488V3.5H494ZM5.77734 2.18945L6.44434 3.18652C6.23681 3.42104 6.0367 3.66617 5.84473 3.92188L4.95117 2.79004L4.61816 2.36816C4.91995 2.18221 5.22834 2.00588 5.54297 1.83984L5.77734 2.18945ZM494 1.5V2.5H488V1.5H494ZM7.55566 1.19141L7.7627 1.64062L7.8584 1.84766C7.6025 2.04747 7.35557 2.26335 7.11523 2.49121L6.64648 1.65527L6.49121 1.37891C6.80882 1.2373 7.13183 1.10548 7.45996 0.984375L7.55566 1.19141ZM9.46973 0.485352L9.55566 0.791016C9.25479 0.934503 8.96133 1.09739 8.6748 1.27637L8.49902 0.799805L8.44629 0.658203C8.77477 0.560854 9.10741 0.472939 9.44434 0.396484L9.46973 0.485352ZM494 0V0.5H488V0H494ZM11.4707 0.0888672L11.4775 0.148438C11.1443 0.214601 10.8167 0.303312 10.4951 0.411133L10.4629 0.24707L10.4541 0.202148C10.789 0.148603 11.1273 0.105665 11.4688 0.0732422L11.4707 0.0888672ZM13 0C12.8287 0 12.6584 0.00456405 12.4893 0.015625V0.00976562L12.4883 0.0078125C12.6582 0.00247402 12.8288 0 13 0Z" fill="white" mask="url(#path-1-inside-1_1404_2558)"/>
</svg>
