<svg width="40" height="40" viewBox="0 0 40 40" fill="none" xmlns="http://www.w3.org/2000/svg">
<path d="M33.0492 11.0201L23.8492 1.79507C23.3622 1.29308 22.7793 0.893994 22.1351 0.62146C21.491 0.348926 20.7987 0.208496 20.0992 0.208496C19.3998 0.208496 18.7075 0.348926 18.0633 0.62146C17.4192 0.893994 16.8363 1.29308 16.3492 1.79507L7.1209 11.0201L20.0459 17.4701L33.0492 11.0201ZM36.5776 14.7451L38.4026 16.5701C38.9077 17.0553 39.3096 17.6376 39.5841 18.282C39.8586 18.9264 40.0001 19.6196 40.0001 20.3201C40.0001 21.0205 39.8586 21.7137 39.5841 22.3581C39.3096 23.0025 38.9077 23.5848 38.4026 24.0701L23.7009 38.9167C23.3521 39.2729 22.9466 39.5685 22.5009 39.7917V21.7951L36.5776 14.7451ZM3.42257 14.7451L1.59757 16.5701C1.09245 17.0553 0.690562 17.6376 0.416035 18.282C0.141509 18.9264 0 19.6196 0 20.3201C0 21.0205 0.141509 21.7137 0.416035 22.3581C0.690562 23.0025 1.09245 23.5848 1.59757 24.0701L16.3009 38.9167C16.6509 39.2734 17.0559 39.5701 17.5009 39.7917V21.7951L3.42257 14.7451Z" fill="#44ACAB"/>
</svg>
