<svg width="40" height="39" viewBox="0 0 40 39" fill="none" xmlns="http://www.w3.org/2000/svg">
<path d="M35.2708 25.9168V11.5418L23.0312 4.80371M16.1771 4.80371L3.9375 11.5418V25.9168M6.875 30.4094L19.6042 37.4168L27.4375 33.1043L32.3333 30.4094" fill="#44ACAB"/>
<path d="M35.2708 25.9168V11.5418L23.0313 4.80371M16.1771 4.80371L3.9375 11.5418V25.9168M6.875 30.4094L19.6042 37.4168L27.4375 33.1043L32.3333 30.4094" stroke="#44ACAB" stroke-width="2" stroke-linecap="round" stroke-linejoin="round"/>
<path d="M16.668 15.1353L13.7305 16.8124V23.5208L16.668 25.1978L19.6055 26.8749L22.543 25.1978L25.4805 23.5208V16.8124L22.543 15.1353L19.6055 13.4583L16.668 15.1353Z" fill="#44ACAB" stroke="#44ACAB" stroke-width="2" stroke-linecap="round" stroke-linejoin="round"/>
<path d="M19.6042 13.4583V6.75V13.4583ZM25.4792 23.0417L32.3333 26.875L25.4792 23.0417ZM13.7292 23.0417L6.875 26.875L13.7292 23.0417Z" fill="#44ACAB"/>
<path d="M19.6042 13.4583V6.75M25.4792 23.0417L32.3333 26.875M13.7292 23.0417L6.875 26.875" stroke="#44ACAB" stroke-width="2" stroke-linecap="round" stroke-linejoin="round"/>
<path d="M19.6055 6.75C21.2278 6.75 22.543 5.46282 22.543 3.875C22.543 2.28718 21.2278 1 19.6055 1C17.9831 1 16.668 2.28718 16.668 3.875C16.668 5.46282 17.9831 6.75 19.6055 6.75Z" fill="#44ACAB" stroke="#44ACAB" stroke-width="2" stroke-linecap="round" stroke-linejoin="round"/>
<path d="M3.9375 31.6667C5.55984 31.6667 6.875 30.3796 6.875 28.7917C6.875 27.2039 5.55984 25.9167 3.9375 25.9167C2.31516 25.9167 1 27.2039 1 28.7917C1 30.3796 2.31516 31.6667 3.9375 31.6667Z" fill="#44ACAB" stroke="#44ACAB" stroke-width="2" stroke-linecap="round" stroke-linejoin="round"/>
<path d="M35.2695 31.6667C36.8919 31.6667 38.207 30.3796 38.207 28.7917C38.207 27.2039 36.8919 25.9167 35.2695 25.9167C33.6472 25.9167 32.332 27.2039 32.332 28.7917C32.332 30.3796 33.6472 31.6667 35.2695 31.6667Z" fill="#44ACAB" stroke="#44ACAB" stroke-width="2" stroke-linecap="round" stroke-linejoin="round"/>
</svg>
