<svg width="47" height="47" viewBox="0 0 47 47" fill="none" xmlns="http://www.w3.org/2000/svg">
<path d="M42.0733 13.9531L24.4052 4.16141C24.1151 4.00093 23.789 3.91675 23.4574 3.91675C23.1258 3.91675 22.7997 4.00093 22.5096 4.16141L4.92764 13.8747C4.62221 14.0439 4.36754 14.2916 4.19002 14.5922C4.0125 14.8928 3.91857 15.2355 3.91797 15.5846C3.91737 15.9337 4.01012 16.2767 4.18661 16.5779C4.3631 16.8792 4.61691 17.1277 4.92177 17.2979L22.5898 27.1679C22.881 27.3304 23.2089 27.4159 23.5423 27.4163C23.8758 27.4166 24.2038 27.3318 24.4953 27.1699L42.0772 17.3782C42.3826 17.2083 42.6371 16.9599 42.814 16.6585C42.991 16.3572 43.0842 16.014 43.0838 15.6645C43.0834 15.315 42.9894 14.972 42.8118 14.6711C42.6341 14.3701 42.3791 14.1222 42.0733 13.9531Z" fill="#44ACAB"/>
<path d="M23.4986 31.0512L6.82342 21.7883L4.92188 25.2115L22.5469 35.0032C22.8377 35.1647 23.1649 35.2494 23.4976 35.2494C23.8303 35.2494 24.1576 35.1647 24.4484 35.0032L42.0734 25.2115L40.1719 21.7883L23.4986 31.0512Z" fill="#44ACAB"/>
<path d="M23.4986 38.8847L6.82342 29.6218L4.92188 33.045L22.5469 42.8367C22.8377 42.9982 23.1649 43.0829 23.4976 43.0829C23.8303 43.0829 24.1576 42.9982 24.4484 42.8367L42.0734 33.045L40.1719 29.6218L23.4986 38.8847Z" fill="#44ACAB"/>
</svg>
