<svg width="516" height="134" viewBox="0 0 516 134" fill="none" xmlns="http://www.w3.org/2000/svg">
<mask id="path-1-inside-1_1456_1511" fill="white">
<path d="M0 24C0 16.8203 5.8203 11 13 11H491V121C491 128.18 485.18 134 478 134H13C5.82029 134 0 128.18 0 121V24Z"/>
</mask>
<path fill-rule="evenodd" clip-rule="evenodd" d="M13 11C12.829 11 12.6585 11.0027 12.4888 11.008L12.4891 11.0167C12.6583 11.0056 12.8287 11 13 11ZM11.4782 11.1496L11.4691 11.0723C11.1274 11.1047 10.7889 11.1479 10.4538 11.2015L10.4953 11.4111C10.8169 11.3033 11.1448 11.2157 11.4782 11.1496ZM9.5561 11.7915L9.44487 11.3964C9.10791 11.4728 8.77499 11.5599 8.44648 11.6573L8.67468 12.2756C8.96118 12.0967 9.25525 11.935 9.5561 11.7915ZM7.85893 12.8473L7.46067 11.9848C7.1325 12.106 6.80939 12.2375 6.49175 12.3791L7.11455 13.4888C7.35479 13.2611 7.60314 13.047 7.85893 12.8473ZM6.443 14.1845L5.5431 12.8403C5.22852 13.0063 4.92014 13.1825 4.6184 13.3684L5.84338 14.9202C6.03539 14.6645 6.23544 14.419 6.443 14.1845ZM5.31337 15.684L5.19405 15.555L3.72194 13.9632C3.42629 14.174 3.1381 14.3946 2.85787 14.6245L4.55497 16.1941L4.84939 16.4663C4.99653 16.1978 5.15133 15.9368 5.31337 15.684ZM4.44746 17.2596L3.96776 16.8809L2.03081 15.3519C1.75996 15.6071 1.49801 15.8716 1.24547 16.1449L3.4361 17.6115L4.1033 18.0582C4.21097 17.7863 4.3258 17.5199 4.44746 17.2596ZM3.81285 18.8576L2.96357 18.381L0.507285 17.0025C0.278542 17.2879 0.0593808 17.5814 -0.149712 17.8824C-0.15924 17.8961 -0.168747 17.9098 -0.178234 17.9236L-0.170481 17.9272L2.55314 19.1849L3.57208 19.6554C3.64575 19.3853 3.72609 19.1192 3.81285 18.8576ZM3.37734 20.4503L2.20744 20.0186L-0.60702 18.9799L-0.80514 18.9068C-1.00459 19.2463 -1.19187 19.5937 -1.36639 19.9486L-0.958842 20.0634L1.92892 20.8763L3.22561 21.2413C3.26996 20.9745 3.32061 20.7108 3.37734 20.4503ZM3.11408 22.03L1.71892 21.754L-1.22404 21.1718L-1.85583 21.0468C-2.00662 21.4228 -2.14356 21.8058 -2.266 22.1952L-1.40085 22.2965L1.57877 22.6456L3.04085 22.8169C3.05922 22.5522 3.08369 22.2899 3.11408 22.03ZM3.00454 23.6047L1.50874 23.5468L-1.48902 23.4309L-2.59069 23.3883C-2.6374 23.5908 -2.68026 23.7947 -2.71921 24C-2.75034 24.1641 -2.77896 24.3291 -2.80503 24.4949H-1.5H1.5H3V24C3 23.8678 3.00152 23.736 3.00454 23.6047ZM3 25.4847H1.5H-1.5H-2.92918C-2.95992 25.8119 -2.9808 26.1419 -2.99153 26.4745H-1.5H1.5H3V25.4847ZM3 27.4643H1.5H-1.5H-3V28.4541H-1.5H1.5H3V27.4643ZM3 29.4439H1.5H-1.5H-3V30.4337H-1.5H1.5H3V29.4439ZM3 31.4235H1.5H-1.5H-3V32.4133H-1.5H1.5H3V31.4235ZM3 33.4031H1.5H-1.5H-3V34.3929H-1.5H1.5H3V33.4031ZM3 35.3827H1.5H-1.5H-3V36.3724H-1.5H1.5H3V35.3827ZM3 37.3622H1.5H-1.5H-3V38.352H-1.5H1.5H3V37.3622ZM3 39.3418H1.5H-1.5H-3V40.3316H-1.5H1.5H3V39.3418ZM3 41.3214H1.5H-1.5H-3V42.3112H-1.5H1.5H3V41.3214ZM3 43.301H1.5H-1.5H-3V44.2908H-1.5H1.5H3V43.301ZM3 45.2806H1.5H-1.5H-3V46.2704H-1.5H1.5H3V45.2806ZM3 47.2602H1.5H-1.5H-3V48.25H-1.5H1.5H3V47.2602ZM3 49.2398H1.5H-1.5H-3V50.2296H-1.5H1.5H3V49.2398ZM3 51.2194H1.5H-1.5H-3V52.2092H-1.5H1.5H3V51.2194ZM3 53.199H1.5H-1.5H-3V54.1888H-1.5H1.5H3V53.199ZM3 55.1786H1.5H-1.5H-3V56.1684H-1.5H1.5H3V55.1786ZM3 57.1582H1.5H-1.5H-3V58.148H-1.5H1.5H3V57.1582ZM3 59.1378H1.5H-1.5H-3V60.1275H-1.5H1.5H3V59.1378ZM3 61.1173H1.5H-1.5H-3V62.1071H-1.5H1.5H3V61.1173ZM3 63.0969H1.5H-1.5H-3V64.0867H-1.5H1.5H3V63.0969ZM3 65.0765H1.5H-1.5H-3V66.0663H-1.5H1.5H3V65.0765ZM3 67.0561H1.5H-1.5H-3V68.0459H-1.5H1.5H3V67.0561ZM3 69.0357H1.5H-1.5H-3V70.0255H-1.5H1.5H3V69.0357ZM3 71.0153H1.5H-1.5H-3V72.0051H-1.5H1.5H3V71.0153ZM3 72.9949H1.5H-1.5H-3V73.9847H-1.5H1.5H3V72.9949ZM3 74.9745H1.5H-1.5H-3V75.9643H-1.5H1.5H3V74.9745ZM3 76.9541H1.5H-1.5H-3V77.9439H-1.5H1.5H3V76.9541ZM3 78.9337H1.5H-1.5H-3V79.9235H-1.5H1.5H3V78.9337ZM3 80.9133H1.5H-1.5H-3V81.9031H-1.5H1.5H3V80.9133ZM3 82.8928H1.5H-1.5H-3V83.8826H-1.5H1.5H3V82.8928ZM3 84.8724H1.5H-1.5H-3V85.8622H-1.5H1.5H3V84.8724ZM3 86.852H1.5H-1.5H-3V87.8418H-1.5H1.5H3V86.852ZM3 88.8316H1.5H-1.5H-3V89.8214H-1.5H1.5H3V88.8316ZM3 90.8112H1.5H-1.5H-3V91.801H-1.5H1.5H3V90.8112ZM3 92.7908H1.5H-1.5H-3V93.7806H-1.5H1.5H3V92.7908ZM3 94.7704H1.5H-1.5H-3V95.7602H-1.5H1.5H3V94.7704ZM3 96.75H1.5H-1.5H-3V97.7398H-1.5H1.5H3V96.75ZM3 98.7296H1.5H-1.5H-3V99.7194H-1.5H1.5H3V98.7296ZM3 100.709H1.5H-1.5H-3V101.699H-1.5H1.5H3V100.709ZM3 102.689H1.5H-1.5H-3V103.679H-1.5H1.5H3V102.689ZM3 104.668H1.5H-1.5H-3V105.658H-1.5H1.5H3V104.668ZM3 106.648H1.5H-1.5H-3V107.638H-1.5H1.5H3V106.648ZM3 108.628H1.5H-1.5H-3V109.617H-1.5H1.5H3V108.628ZM3 110.607H1.5H-1.5H-3V111.597H-1.5H1.5H3V110.607ZM3 112.587H1.5H-1.5H-3V113.577H-1.5H1.5H3V112.587ZM3 114.566H1.5H-1.5H-3V115.556H-1.5H1.5H3V114.566ZM3 116.546H1.5H-1.5H-3V117.536H-1.5H1.5H3V116.546ZM3 118.526H1.5H-1.5H-3V119.515H-1.5H1.5H3V118.526ZM3 120.505H1.5H-1.5H-3V121C-3 121.184 -2.9969 121.367 -2.99073 121.549C-2.98985 121.575 -2.9889 121.601 -2.9879 121.627L-1.48902 121.569L1.50874 121.453L3.00762 121.395C3.00256 121.264 3 121.133 3 121V120.505ZM-1.40085 122.703L1.57877 122.354L3.06858 122.18C3.09926 122.442 3.14001 122.7 3.19041 122.955L1.71892 123.246L-1.22404 123.828L-2.69552 124.119C-2.77637 123.711 -2.84161 123.297 -2.89066 122.878L-1.40085 122.703ZM-0.958843 124.937L1.92892 124.124L3.3728 123.717C3.44387 123.97 3.52463 124.218 3.61466 124.462L2.20743 124.981L-0.607023 126.02L-2.01425 126.539C-2.15884 126.148 -2.28856 125.749 -2.40272 125.343L-0.958843 124.937ZM-0.170484 127.073L2.55314 125.815L3.91495 125.186C4.02485 125.424 4.14388 125.657 4.27164 125.885L2.96356 126.619L0.347407 128.087L-0.96067 128.821C-1.16525 128.457 -1.35603 128.083 -1.5323 127.702L-0.170484 127.073ZM0.943193 129.057L3.4361 127.389L4.68255 126.554C4.82849 126.772 4.98283 126.984 5.14512 127.19L3.96776 128.119L1.61303 129.978L0.435663 130.907C0.176579 130.579 -0.069974 130.24 -0.30326 129.892L0.943193 129.057ZM2.35248 130.843L4.55496 128.806L5.6562 127.787C5.83432 127.98 6.01992 128.166 6.21251 128.344L5.19405 129.445L3.15712 131.648L2.13866 132.749C1.83142 132.465 1.53537 132.169 1.25124 131.861L2.35248 130.843ZM4.0221 132.387L5.88094 130.032L6.81035 128.855C7.01594 129.017 7.22797 129.172 7.44595 129.317L6.61147 130.564L4.94251 133.057L4.10803 134.303C3.75957 134.07 3.42089 133.823 3.09269 133.564L4.0221 132.387ZM5.91273 133.653L7.38097 131.036L8.11509 129.728C8.34274 129.856 8.57577 129.975 8.81374 130.085L8.18488 131.447L6.92716 134.17L6.29829 135.532C5.91659 135.356 5.54313 135.165 5.17861 134.961L5.91273 133.653ZM7.97989 134.607L9.01856 131.793L9.5379 130.385C9.78185 130.475 10.0303 130.556 10.2827 130.627L9.87628 132.071L9.06336 134.959L8.65689 136.403C8.25136 136.289 7.85234 136.159 7.46055 136.014L7.97989 134.607ZM10.1718 135.224L10.754 132.281L11.0451 130.81C11.2998 130.86 11.5583 130.901 11.8201 130.931L11.6456 132.421L11.2965 135.401L11.122 136.891C10.7033 136.842 10.2893 136.776 9.88068 136.696L10.1718 135.224ZM12.4309 135.489L12.5468 132.491L12.6048 130.992C12.7357 130.997 12.8675 131 13 131M13.4989 132.5V135.5V137H13C12.7902 137 12.5811 136.996 12.373 136.988L12.4309 135.489M14.4968 137H15.4946V135.5V132.5V131H14.4968V132.5V135.5V137ZM13.4989 132.5V131V132.5ZM13 131H13.4989H13ZM16.4925 131V132.5V135.5V137H17.4903V135.5V132.5V131H16.4925ZM18.4882 131V132.5V135.5V137H19.486V135.5V132.5V131H18.4882ZM20.4839 131V132.5V135.5V137H21.4818V135.5V132.5V131H20.4839ZM22.4796 131V132.5V135.5V137H23.4775V135.5V132.5V131H22.4796ZM24.4753 131V132.5V135.5V137H25.4732V135.5V132.5V131H24.4753ZM26.471 131V132.5V135.5V137H27.4689V135.5V132.5V131H26.471ZM28.4667 131V132.5V135.5V137H29.4646V135.5V132.5V131H28.4667ZM30.4624 131V132.5V135.5V137H31.4603V135.5V132.5V131H30.4624ZM32.4581 131V132.5V135.5V137H33.456V135.5V132.5V131H32.4581ZM34.4539 131V132.5V135.5V137H35.4517V135.5V132.5V131H34.4539ZM36.4496 131V132.5V135.5V137H37.4474V135.5V132.5V131H36.4496ZM38.4453 131V132.5V135.5V137H39.4431V135.5V132.5V131H38.4453ZM40.441 131V132.5V135.5V137H41.4388V135.5V132.5V131H40.441ZM42.4367 131V132.5V135.5V137H43.4345V135.5V132.5V131H42.4367ZM44.4324 131V132.5V135.5V137H45.4303V135.5V132.5V131H44.4324ZM46.4281 131V132.5V135.5V137H47.426V135.5V132.5V131H46.4281ZM48.4238 131V132.5V135.5V137H49.4217V135.5V132.5V131H48.4238ZM50.4195 131V132.5V135.5V137H51.4174V135.5V132.5V131H50.4195ZM52.4152 131V132.5V135.5V137H53.4131V135.5V132.5V131H52.4152ZM54.4109 131V132.5V135.5V137H55.4088V135.5V132.5V131H54.4109ZM56.4066 131V132.5V135.5V137H57.4045V135.5V132.5V131H56.4066ZM58.4023 131V132.5V135.5V137H59.4002V135.5V132.5V131H58.4023ZM60.398 131V132.5V135.5V137H61.3959V135.5V132.5V131H60.398ZM62.3937 131V132.5V135.5V137H63.3916V135.5V132.5V131H62.3937ZM64.3895 131V132.5V135.5V137H65.3873V135.5V132.5V131H64.3895ZM66.3852 131V132.5V135.5V137H67.383V135.5V132.5V131H66.3852ZM68.3809 131V132.5V135.5V137H69.3787V135.5V132.5V131H68.3809ZM70.3766 131V132.5V135.5V137H71.3744V135.5V132.5V131H70.3766ZM72.3723 131V132.5V135.5V137H73.3701V135.5V132.5V131H72.3723ZM74.368 131V132.5V135.5V137H75.3658V135.5V132.5V131H74.368ZM76.3637 131V132.5V135.5V137H77.3615V135.5V132.5V131H76.3637ZM78.3594 131V132.5V135.5V137H79.3572V135.5V132.5V131H78.3594ZM80.3551 131V132.5V135.5V137H81.353V135.5V132.5V131H80.3551ZM82.3508 131V132.5V135.5V137H83.3487V135.5V132.5V131H82.3508ZM84.3465 131V132.5V135.5V137H85.3444V135.5V132.5V131H84.3465ZM86.3422 131V132.5V135.5V137H87.3401V135.5V132.5V131H86.3422ZM88.338 131V132.5V135.5V137H89.3358V135.5V132.5V131H88.338ZM90.3337 131V132.5V135.5V137H91.3315V135.5V132.5V131H90.3337ZM92.3294 131V132.5V135.5V137H93.3272V135.5V132.5V131H92.3294ZM94.3251 131V132.5V135.5V137H95.3229V135.5V132.5V131H94.3251ZM96.3208 131V132.5V135.5V137H97.3186V135.5V132.5V131H96.3208ZM98.3165 131V132.5V135.5V137H99.3144V135.5V132.5V131H98.3165ZM100.312 131V132.5V135.5V137H101.31V135.5V132.5V131H100.312ZM102.308 131V132.5V135.5V137H103.306V135.5V132.5V131H102.308ZM104.304 131V132.5V135.5V137H105.301V135.5V132.5V131H104.304ZM106.299 131V132.5V135.5V137H107.297V135.5V132.5V131H106.299ZM108.295 131V132.5V135.5V137H109.293V135.5V132.5V131H108.295ZM110.291 131V132.5V135.5V137H111.289V135.5V132.5V131H110.291ZM112.286 131V132.5V135.5V137H113.284V135.5V132.5V131H112.286ZM114.282 131V132.5V135.5V137H115.28V135.5V132.5V131H114.282ZM116.278 131V132.5V135.5V137H117.276V135.5V132.5V131H116.278ZM118.274 131V132.5V135.5V137H119.271V135.5V132.5V131H118.274ZM120.269 131V132.5V135.5V137H121.267V135.5V132.5V131H120.269ZM122.265 131V132.5V135.5V137H123.263V135.5V132.5V131H122.265ZM124.261 131V132.5V135.5V137H125.259V135.5V132.5V131H124.261ZM126.256 131V132.5V135.5V137H127.254V135.5V132.5V131H126.256ZM128.252 131V132.5V135.5V137H129.25V135.5V132.5V131H128.252ZM130.248 131V132.5V135.5V137H131.246V135.5V132.5V131H130.248ZM132.244 131V132.5V135.5V137H133.241V135.5V132.5V131H132.244ZM134.239 131V132.5V135.5V137H135.237V135.5V132.5V131H134.239ZM136.235 131V132.5V135.5V137H137.233V135.5V132.5V131H136.235ZM138.231 131V132.5V135.5V137H139.229V135.5V132.5V131H138.231ZM140.226 131V132.5V135.5V137H141.224V135.5V132.5V131H140.226ZM142.222 131V132.5V135.5V137H143.22V135.5V132.5V131H142.222ZM144.218 131V132.5V135.5V137H145.216V135.5V132.5V131H144.218ZM146.214 131V132.5V135.5V137H147.211V135.5V132.5V131H146.214ZM148.209 131V132.5V135.5V137H149.207V135.5V132.5V131H148.209ZM150.205 131V132.5V135.5V137H151.203V135.5V132.5V131H150.205ZM152.201 131V132.5V135.5V137H153.199V135.5V132.5V131H152.201ZM154.196 131V132.5V135.5V137H155.194V135.5V132.5V131H154.196ZM156.192 131V132.5V135.5V137H157.19V135.5V132.5V131H156.192ZM158.188 131V132.5V135.5V137H159.186V135.5V132.5V131H158.188ZM160.183 131V132.5V135.5V137H161.181V135.5V132.5V131H160.183ZM162.179 131V132.5V135.5V137H163.177V135.5V132.5V131H162.179ZM164.175 131V132.5V135.5V137H165.173V135.5V132.5V131H164.175ZM166.171 131V132.5V135.5V137H167.168V135.5V132.5V131H166.171ZM168.166 131V132.5V135.5V137H169.164V135.5V132.5V131H168.166ZM170.162 131V132.5V135.5V137H171.16V135.5V132.5V131H170.162ZM172.158 131V132.5V135.5V137H173.155V135.5V132.5V131H172.158ZM174.153 131V132.5V135.5V137H175.151V135.5V132.5V131H174.153ZM176.149 131V132.5V135.5V137H177.147V135.5V132.5V131H176.149ZM178.145 131V132.5V135.5V137H179.143V135.5V132.5V131H178.145ZM180.14 131V132.5V135.5V137H181.138V135.5V132.5V131H180.14ZM182.136 131V132.5V135.5V137H183.134V135.5V132.5V131H182.136ZM184.132 131V132.5V135.5V137H185.13V135.5V132.5V131H184.132ZM186.127 131V132.5V135.5V137H187.125V135.5V132.5V131H186.127ZM188.123 131V132.5V135.5V137H189.121V135.5V132.5V131H188.123ZM190.119 131V132.5V135.5V137H191.117V135.5V132.5V131H190.119ZM192.115 131V132.5V135.5V137H193.112V135.5V132.5V131H192.115ZM194.11 131V132.5V135.5V137H195.108V135.5V132.5V131H194.11ZM196.106 131V132.5V135.5V137H197.104V135.5V132.5V131H196.106ZM198.102 131V132.5V135.5V137H199.1V135.5V132.5V131H198.102ZM200.097 131V132.5V135.5V137H201.095V135.5V132.5V131H200.097ZM202.093 131V132.5V135.5V137H203.091V135.5V132.5V131H202.093ZM204.089 131V132.5V135.5V137H205.087V135.5V132.5V131H204.089ZM206.084 131V132.5V135.5V137H207.082V135.5V132.5V131H206.084ZM208.08 131V132.5V135.5V137H209.078V135.5V132.5V131H208.08ZM210.076 131V132.5V135.5V137H211.074V135.5V132.5V131H210.076ZM212.072 131V132.5V135.5V137H213.069V135.5V132.5V131H212.072ZM214.067 131V132.5V135.5V137H215.065V135.5V132.5V131H214.067ZM216.063 131V132.5V135.5V137H217.061V135.5V132.5V131H216.063ZM218.059 131V132.5V135.5V137H219.056V135.5V132.5V131H218.059ZM220.054 131V132.5V135.5V137H221.052V135.5V132.5V131H220.054ZM222.05 131V132.5V135.5V137H223.048V135.5V132.5V131H222.05ZM224.046 131V132.5V135.5V137H225.044V135.5V132.5V131H224.046ZM226.041 131V132.5V135.5V137H227.039V135.5V132.5V131H226.041ZM228.037 131V132.5V135.5V137H229.035V135.5V132.5V131H228.037ZM230.033 131V132.5V135.5V137H231.031V135.5V132.5V131H230.033ZM232.029 131V132.5V135.5V137H233.026V135.5V132.5V131H232.029ZM234.024 131V132.5V135.5V137H235.022V135.5V132.5V131H234.024ZM236.02 131V132.5V135.5V137H237.018V135.5V132.5V131H236.02ZM238.016 131V132.5V135.5V137H239.013V135.5V132.5V131H238.016ZM240.011 131V132.5V135.5V137H241.009V135.5V132.5V131H240.011ZM242.007 131V132.5V135.5V137H243.005V135.5V132.5V131H242.007ZM244.003 131V132.5V135.5V137H245.001V135.5V132.5V131H244.003ZM245.998 131V132.5V135.5V137H246.996V135.5V132.5V131H245.998ZM247.994 131V132.5V135.5V137H248.992V135.5V132.5V131H247.994ZM249.99 131V132.5V135.5V137H250.988V135.5V132.5V131H249.99ZM251.985 131V132.5V135.5V137H252.983V135.5V132.5V131H251.985ZM253.981 131V132.5V135.5V137H254.979V135.5V132.5V131H253.981ZM255.977 131V132.5V135.5V137H256.975V135.5V132.5V131H255.977ZM257.973 131V132.5V135.5V137H258.97V135.5V132.5V131H257.973ZM259.968 131V132.5V135.5V137H260.966V135.5V132.5V131H259.968ZM261.964 131V132.5V135.5V137H262.962V135.5V132.5V131H261.964ZM263.96 131V132.5V135.5V137H264.958V135.5V132.5V131H263.96ZM265.955 131V132.5V135.5V137H266.953V135.5V132.5V131H265.955ZM267.951 131V132.5V135.5V137H268.949V135.5V132.5V131H267.951ZM269.947 131V132.5V135.5V137H270.945V135.5V132.5V131H269.947ZM271.942 131V132.5V135.5V137H272.94V135.5V132.5V131H271.942ZM273.938 131V132.5V135.5V137H274.936V135.5V132.5V131H273.938ZM275.934 131V132.5V135.5V137H276.932V135.5V132.5V131H275.934ZM277.93 131V132.5V135.5V137H278.928V135.5V132.5V131H277.93ZM279.925 131V132.5V135.5V137H280.923V135.5V132.5V131H279.925ZM281.921 131V132.5V135.5V137H282.919V135.5V132.5V131H281.921ZM283.917 131V132.5V135.5V137H284.915V135.5V132.5V131H283.917ZM285.913 131V132.5V135.5V137H286.91V135.5V132.5V131H285.913ZM287.908 131V132.5V135.5V137H288.906V135.5V132.5V131H287.908ZM289.904 131V132.5V135.5V137H290.902V135.5V132.5V131H289.904ZM291.9 131V132.5V135.5V137H292.898V135.5V132.5V131H291.9ZM293.896 131V132.5V135.5V137H294.893V135.5V132.5V131H293.896ZM295.891 131V132.5V135.5V137H296.889V135.5V132.5V131H295.891ZM297.887 131V132.5V135.5V137H298.885V135.5V132.5V131H297.887ZM299.883 131V132.5V135.5V137H300.881V135.5V132.5V131H299.883ZM301.878 131V132.5V135.5V137H302.876V135.5V132.5V131H301.878ZM303.874 131V132.5V135.5V137H304.872V135.5V132.5V131H303.874ZM305.87 131V132.5V135.5V137H306.868V135.5V132.5V131H305.87ZM307.866 131V132.5V135.5V137H308.863V135.5V132.5V131H307.866ZM309.861 131V132.5V135.5V137H310.859V135.5V132.5V131H309.861ZM311.857 131V132.5V135.5V137H312.855V135.5V132.5V131H311.857ZM313.853 131V132.5V135.5V137H314.851V135.5V132.5V131H313.853ZM315.849 131V132.5V135.5V137H316.846V135.5V132.5V131H315.849ZM317.844 131V132.5V135.5V137H318.842V135.5V132.5V131H317.844ZM319.84 131V132.5V135.5V137H320.838V135.5V132.5V131H319.84ZM321.836 131V132.5V135.5V137H322.834V135.5V132.5V131H321.836ZM323.831 131V132.5V135.5V137H324.829V135.5V132.5V131H323.831ZM325.827 131V132.5V135.5V137H326.825V135.5V132.5V131H325.827ZM327.823 131V132.5V135.5V137H328.821V135.5V132.5V131H327.823ZM329.819 131V132.5V135.5V137H330.816V135.5V132.5V131H329.819ZM331.814 131V132.5V135.5V137H332.812V135.5V132.5V131H331.814ZM333.81 131V132.5V135.5V137H334.808V135.5V132.5V131H333.81ZM335.806 131V132.5V135.5V137H336.804V135.5V132.5V131H335.806ZM337.802 131V132.5V135.5V137H338.799V135.5V132.5V131H337.802ZM339.797 131V132.5V135.5V137H340.795V135.5V132.5V131H339.797ZM341.793 131V132.5V135.5V137H342.791V135.5V132.5V131H341.793ZM343.789 131V132.5V135.5V137H344.787V135.5V132.5V131H343.789ZM345.784 131V132.5V135.5V137H346.782V135.5V132.5V131H345.784ZM347.78 131V132.5V135.5V137H348.778V135.5V132.5V131H347.78ZM349.776 131V132.5V135.5V137H350.774V135.5V132.5V131H349.776ZM351.772 131V132.5V135.5V137H352.769V135.5V132.5V131H351.772ZM353.767 131V132.5V135.5V137H354.765V135.5V132.5V131H353.767ZM355.763 131V132.5V135.5V137H356.761V135.5V132.5V131H355.763ZM357.759 131V132.5V135.5V137H358.757V135.5V132.5V131H357.759ZM359.755 131V132.5V135.5V137H360.752V135.5V132.5V131H359.755ZM361.75 131V132.5V135.5V137H362.748V135.5V132.5V131H361.75ZM363.746 131V132.5V135.5V137H364.744V135.5V132.5V131H363.746ZM365.742 131V132.5V135.5V137H366.74V135.5V132.5V131H365.742ZM367.737 131V132.5V135.5V137H368.735V135.5V132.5V131H367.737ZM369.733 131V132.5V135.5V137H370.731V135.5V132.5V131H369.733ZM371.729 131V132.5V135.5V137H372.727V135.5V132.5V131H371.729ZM373.725 131V132.5V135.5V137H374.722V135.5V132.5V131H373.725ZM375.72 131V132.5V135.5V137H376.718V135.5V132.5V131H375.72ZM377.716 131V132.5V135.5V137H378.714V135.5V132.5V131H377.716ZM379.712 131V132.5V135.5V137H380.71V135.5V132.5V131H379.712ZM381.708 131V132.5V135.5V137H382.705V135.5V132.5V131H381.708ZM383.703 131V132.5V135.5V137H384.701V135.5V132.5V131H383.703ZM385.699 131V132.5V135.5V137H386.697V135.5V132.5V131H385.699ZM387.695 131V132.5V135.5V137H388.693V135.5V132.5V131H387.695ZM389.69 131V132.5V135.5V137H390.688V135.5V132.5V131H389.69ZM391.686 131V132.5V135.5V137H392.684V135.5V132.5V131H391.686ZM393.682 131V132.5V135.5V137H394.68V135.5V132.5V131H393.682ZM395.678 131V132.5V135.5V137H396.675V135.5V132.5V131H395.678ZM397.673 131V132.5V135.5V137H398.671V135.5V132.5V131H397.673ZM399.669 131V132.5V135.5V137H400.667V135.5V132.5V131H399.669ZM401.665 131V132.5V135.5V137H402.663V135.5V132.5V131H401.665ZM403.661 131V132.5V135.5V137H404.658V135.5V132.5V131H403.661ZM405.656 131V132.5V135.5V137H406.654V135.5V132.5V131H405.656ZM407.652 131V132.5V135.5V137H408.65V135.5V132.5V131H407.652ZM409.648 131V132.5V135.5V137H410.646V135.5V132.5V131H409.648ZM411.643 131V132.5V135.5V137H412.641V135.5V132.5V131H411.643ZM413.639 131V132.5V135.5V137H414.637V135.5V132.5V131H413.639ZM415.635 131V132.5V135.5V137H416.633V135.5V132.5V131H415.635ZM417.631 131V132.5V135.5V137H418.628V135.5V132.5V131H417.631ZM419.626 131V132.5V135.5V137H420.624V135.5V132.5V131H419.626ZM421.622 131V132.5V135.5V137H422.62V135.5V132.5V131H421.622ZM423.618 131V132.5V135.5V137H424.616V135.5V132.5V131H423.618ZM425.614 131V132.5V135.5V137H426.611V135.5V132.5V131H425.614ZM427.609 131V132.5V135.5V137H428.607V135.5V132.5V131H427.609ZM429.605 131V132.5V135.5V137H430.603V135.5V132.5V131H429.605ZM431.601 131V132.5V135.5V137H432.599V135.5V132.5V131H431.601ZM433.596 131V132.5V135.5V137H434.594V135.5V132.5V131H433.596ZM435.592 131V132.5V135.5V137H436.59V135.5V132.5V131H435.592ZM437.588 131V132.5V135.5V137H438.586V135.5V132.5V131H437.588ZM439.584 131V132.5V135.5V137H440.581V135.5V132.5V131H439.584ZM441.579 131V132.5V135.5V137H442.577V135.5V132.5V131H441.579ZM443.575 131V132.5V135.5V137H444.573V135.5V132.5V131H443.575ZM445.571 131V132.5V135.5V137H446.569V135.5V132.5V131H445.571ZM447.567 131V132.5V135.5V137H448.564V135.5V132.5V131H447.567ZM449.562 131V132.5V135.5V137H450.56V135.5V132.5V131H449.562ZM451.558 131V132.5V135.5V137H452.556V135.5V132.5V131H451.558ZM453.554 131V132.5V135.5V137H454.552V135.5V132.5V131H453.554ZM455.549 131V132.5V135.5V137H456.547V135.5V132.5V131H455.549ZM457.545 131V132.5V135.5V137H458.543V135.5V132.5V131H457.545ZM459.541 131V132.5V135.5V137H460.539V135.5V132.5V131H459.541ZM461.537 131V132.5V135.5V137H462.534V135.5V132.5V131H461.537ZM463.532 131V132.5V135.5V137H464.53V135.5V132.5V131H463.532ZM465.528 131V132.5V135.5V137H466.526V135.5V132.5V131H465.528ZM467.524 131V132.5V135.5V137H468.522V135.5V132.5V131H467.524ZM469.52 131V132.5V135.5V137H470.517V135.5V132.5V131H469.52ZM471.515 131V132.5V135.5V137H472.513V135.5V132.5V131H471.515ZM473.511 131V132.5V135.5V137H474.509V135.5V132.5V131H473.511ZM475.507 131V132.5V135.5V137H476.505V135.5V132.5V131H475.507ZM477.502 131V132.5V135.5V137H478C478.21 137 478.419 136.996 478.627 136.988L478.569 135.489L478.453 132.491L478.395 130.992C478.264 130.997 478.133 131 478 131H477.502ZM479.703 135.401L479.354 132.421L479.18 130.931C479.442 130.901 479.7 130.86 479.955 130.81L480.246 132.281L480.828 135.224L481.119 136.696C480.711 136.776 480.297 136.842 479.878 136.891L479.703 135.401ZM481.937 134.959L481.124 132.071L480.717 130.627C480.97 130.556 481.218 130.475 481.462 130.385L481.981 131.793L483.02 134.607L483.539 136.014C483.148 136.159 482.749 136.289 482.343 136.403L481.937 134.959ZM484.073 134.17L482.815 131.447L482.186 130.085C482.424 129.975 482.657 129.856 482.885 129.728L483.619 131.036L485.087 133.653L485.821 134.961C485.457 135.165 485.083 135.356 484.702 135.532L484.073 134.17ZM486.057 133.057L484.389 130.564L483.554 129.317C483.772 129.172 483.984 129.017 484.19 128.855L485.119 130.032L486.978 132.387L487.907 133.564C487.579 133.823 487.24 134.07 486.892 134.303L486.057 133.057ZM487.843 131.648L485.806 129.445L484.787 128.344C484.98 128.166 485.166 127.98 485.344 127.787L486.445 128.806L488.648 130.843L489.749 131.861C489.465 132.169 489.169 132.465 488.861 132.749L487.843 131.648ZM489.387 129.978L487.032 128.119L485.855 127.19C486.017 126.984 486.172 126.772 486.317 126.554L487.564 127.389L490.057 129.057L491.303 129.892C491.07 130.24 490.823 130.579 490.564 130.907L489.387 129.978ZM490.653 128.087L488.036 126.619L486.728 125.885C486.856 125.657 486.975 125.424 487.085 125.186L488.447 125.815L491.17 127.073L492.532 127.702C492.356 128.083 492.165 128.457 491.961 128.821L490.653 128.087ZM491.607 126.02L488.793 124.981L487.385 124.462C487.475 124.218 487.556 123.97 487.627 123.717L489.071 124.124L491.959 124.937L493.403 125.343C493.289 125.749 493.159 126.148 493.014 126.539L491.607 126.02ZM492.224 123.828L489.281 123.246L487.81 122.955C487.86 122.7 487.901 122.442 487.931 122.18L489.421 122.354L492.401 122.703L493.891 122.878C493.842 123.297 493.776 123.711 493.696 124.119L492.224 123.828ZM492.489 121.569L489.491 121.453L487.992 121.395C487.995 121.321 487.997 121.247 487.999 121.173C488 121.115 488 121.058 488 121V120.5H489.5H492.5H494V121C494 121.184 493.997 121.367 493.991 121.549C493.99 121.575 493.989 121.601 493.988 121.627L492.489 121.569ZM494 119.5V118.5H492.5H489.5H488V119.5H489.5H492.5H494ZM488 117.5H489.5H492.5H494V116.5H492.5H489.5H488V117.5ZM488 115.5H489.5H492.5H494V114.5H492.5H489.5H488V115.5ZM488 113.5H489.5H492.5H494V112.5H492.5H489.5H488V113.5ZM488 111.5H489.5H492.5H494V110.5H492.5H489.5H488V111.5ZM488 109.5H489.5H492.5H494V108.5H492.5H489.5H488V109.5ZM488 107.5H489.5H492.5H494V106.5H492.5H489.5H488V107.5ZM488 105.5H489.5H492.5H494V104.5H492.5H489.5H488V105.5ZM488 103.5H489.5H492.5H494V102.5H492.5H489.5H488V103.5ZM488 101.5H489.5H492.5H494V100.5H492.5H489.5H488V101.5ZM488 99.5H489.5H492.5H494V98.5H492.5H489.5H488V99.5ZM488 97.5H489.5H492.5H494V96.5H492.5H489.5H488V97.5ZM488 95.5H489.5H492.5H494V94.5H492.5H489.5H488V95.5ZM488 93.5H489.5H492.5H494V92.5H492.5H489.5H488V93.5ZM488 91.5H489.5H492.5H494V90.5H492.5H489.5H488V91.5ZM488 89.5H489.5H492.5H494V88.5H492.5H489.5H488V89.5ZM488 87.5H489.5H492.5H494V86.5H492.5H489.5H488V87.5ZM488 85.5H489.5H492.5H494V84.5H492.5H489.5H488V85.5ZM488 83.5H489.5H492.5H494V82.5H492.5H489.5H488V83.5ZM488 81.5H489.5H492.5H494V80.5H492.5H489.5H488V81.5ZM488 79.5H489.5H492.5H494V78.5H492.5H489.5H488V79.5ZM488 77.5H489.5H492.5H494V76.5H492.5H489.5H488V77.5ZM488 75.5H489.5H492.5H494V74.5H492.5H489.5H488V75.5ZM488 73.5H489.5H492.5H494V72.5H492.5H489.5H488V73.5ZM488 71.5H489.5H492.5H494V70.5H492.5H489.5H488V71.5ZM488 69.5H489.5H492.5H494V68.5H492.5H489.5H488V69.5ZM488 67.5H489.5H492.5H494V66.5H492.5H489.5H488V67.5ZM488 65.5H489.5H492.5H494V64.5H492.5H489.5H488V65.5ZM488 63.5H489.5H492.5H494V62.5H492.5H489.5H488V63.5ZM488 61.5H489.5H492.5H494V60.5H492.5H489.5H488V61.5ZM488 59.5H489.5H492.5H494V58.5H492.5H489.5H488V59.5ZM488 57.5H489.5H492.5H494V56.5H492.5H489.5H488V57.5ZM488 55.5H489.5H492.5H494V54.5H492.5H489.5H488V55.5ZM488 53.5H489.5H492.5H494V52.5H492.5H489.5H488V53.5ZM488 51.5H489.5H492.5H494V50.5H492.5H489.5H488V51.5ZM488 49.5H489.5H492.5H494V48.5H492.5H489.5H488V49.5ZM488 47.5H489.5H492.5H494V46.5H492.5H489.5H488V47.5ZM488 45.5H489.5H492.5H494V44.5H492.5H489.5H488V45.5ZM488 43.5H489.5H492.5H494V42.5H492.5H489.5H488V43.5ZM488 41.5H489.5H492.5H494V40.5H492.5H489.5H488V41.5ZM488 39.5H489.5H492.5H494V38.5H492.5H489.5H488V39.5ZM488 37.5H489.5H492.5H494V36.5H492.5H489.5H488V37.5ZM488 35.5H489.5H492.5H494V34.5H492.5H489.5H488V35.5ZM488 33.5H489.5H492.5H494V32.5H492.5H489.5H488V33.5ZM488 31.5H489.5H492.5H494V30.5H492.5H489.5H488V31.5ZM488 29.5H489.5H492.5H494V28.5H492.5H489.5H488V29.5ZM488 27.5H489.5H492.5H494V26.5H492.5H489.5H488V27.5ZM488 25.5H489.5H492.5H494V24.5H492.5H489.5H488V25.5ZM488 23.5H489.5H492.5H494V22.5H492.5H489.5H488V23.5ZM488 21.5H489.5H492.5H494V20.5H492.5H489.5H488V21.5ZM488 19.5H489.5H492.5H494V18.5H492.5H489.5H488V19.5ZM488 17.5H489.5H492.5H494V16.5H492.5H489.5H488V17.5ZM488 15.5H489.5H492.5H494V14.5H492.5H489.5H488V15.5ZM488 13.5H489.5H492.5H494V12.5H492.5H489.5H488V13.5ZM488 11.5V11H489.5H491H492.5H494V11.5H492.5H489.5H488Z" fill="white" mask="url(#path-1-inside-1_1456_1511)"/>
<path d="M515.061 13.0607C515.646 12.4749 515.646 11.5251 515.061 10.9393L505.515 1.3934C504.929 0.807613 503.979 0.807613 503.393 1.3934C502.808 1.97919 502.808 2.92893 503.393 3.51472L511.879 12L503.393 20.4853C502.808 21.0711 502.808 22.0208 503.393 22.6066C503.979 23.1924 504.929 23.1924 505.515 22.6066L515.061 13.0607ZM491 13.5L491.479 13.5L491.479 10.5L491 10.5L491 13.5ZM492.437 13.5L493.396 13.5L493.396 10.5L492.438 10.5L492.437 13.5ZM494.354 13.5L495.312 13.5L495.313 10.5L494.354 10.5L494.354 13.5ZM496.271 13.5L497.229 13.5L497.229 10.5L496.271 10.5L496.271 13.5ZM498.188 13.5L499.146 13.5L499.146 10.5L498.188 10.5L498.188 13.5ZM500.104 13.5L501.062 13.5L501.063 10.5L500.104 10.5L500.104 13.5ZM502.021 13.5L502.979 13.5L502.979 10.5L502.021 10.5L502.021 13.5ZM503.937 13.5L504.896 13.5L504.896 10.5L503.937 10.5L503.937 13.5ZM505.854 13.5L506.812 13.5L506.812 10.5L505.854 10.5L505.854 13.5ZM507.771 13.5L508.729 13.5L508.729 10.5L507.771 10.5L507.771 13.5ZM509.687 13.5L510.646 13.5L510.646 10.5L509.688 10.5L509.687 13.5ZM511.604 13.5L512.563 13.5L512.563 10.5L511.604 10.5L511.604 13.5ZM513.521 13.5L514 13.5L514 10.5L513.521 10.5L513.521 13.5ZM515.061 13.0607C515.646 12.4749 515.646 11.5251 515.061 10.9393L505.515 1.3934C504.929 0.807613 503.979 0.807613 503.393 1.3934C502.808 1.97919 502.808 2.92893 503.393 3.51472L511.879 12L503.393 20.4853C502.808 21.0711 502.808 22.0208 503.393 22.6066C503.979 23.1924 504.929 23.1924 505.515 22.6066L515.061 13.0607ZM491 13.5L491.479 13.5L491.479 10.5L491 10.5L491 13.5ZM492.437 13.5L493.396 13.5L493.396 10.5L492.438 10.5L492.437 13.5ZM494.354 13.5L495.312 13.5L495.313 10.5L494.354 10.5L494.354 13.5ZM496.271 13.5L497.229 13.5L497.229 10.5L496.271 10.5L496.271 13.5ZM498.188 13.5L499.146 13.5L499.146 10.5L498.188 10.5L498.188 13.5ZM500.104 13.5L501.062 13.5L501.063 10.5L500.104 10.5L500.104 13.5ZM502.021 13.5L502.979 13.5L502.979 10.5L502.021 10.5L502.021 13.5ZM503.937 13.5L504.896 13.5L504.896 10.5L503.937 10.5L503.937 13.5ZM505.854 13.5L506.812 13.5L506.812 10.5L505.854 10.5L505.854 13.5ZM507.771 13.5L508.729 13.5L508.729 10.5L507.771 10.5L507.771 13.5ZM509.687 13.5L510.646 13.5L510.646 10.5L509.688 10.5L509.687 13.5ZM511.604 13.5L512.563 13.5L512.563 10.5L511.604 10.5L511.604 13.5ZM513.521 13.5L514 13.5L514 10.5L513.521 10.5L513.521 13.5Z" fill="white"/>
</svg>
