<svg width="112" height="112" viewBox="0 0 112 112" fill="none" xmlns="http://www.w3.org/2000/svg">
<circle cx="56" cy="56" r="56" fill="#DF739F"/>
<path d="M35.1846 63.45H33.418V81.1166C33.418 81.6466 33.7713 82 34.3013 82H49.318V80.2333H35.1846V63.45Z" fill="white"/>
<path d="M35.1846 30.7667H66.9846V38.7167C66.9846 39.2467 67.338 39.6 67.868 39.6H75.818V64.3333H77.5846V38.7167C77.5846 38.6283 77.5846 38.54 77.4963 38.4517V38.3633C77.408 38.275 77.408 38.1867 77.3196 38.0983L68.4863 29.265C68.398 29.1767 68.3096 29.1767 68.2213 29.0883H68.133C68.0446 29.0883 67.9563 29 67.868 29H34.3013C33.7713 29 33.418 29.3533 33.418 29.8833V44.0167H35.1846V30.7667ZM68.7513 32.0033L74.5813 37.8333H68.7513V32.0033Z" fill="white"/>
<path d="M39.5987 33.4166H37.832V35.1833H39.5987V33.4166Z" fill="white"/>
<path d="M50.1987 36.95H37.832V38.7166H50.1987V36.95Z" fill="white"/>
<path d="M50.1987 40.4833H37.832V42.2499H50.1987V40.4833Z" fill="white"/>
<path d="M43.1339 33.4166H41.3672V35.1833H43.1339V33.4166Z" fill="white"/>
<path d="M46.6651 33.4166H44.8984V35.1833H46.6651V33.4166Z" fill="white"/>
<path d="M59.0333 59.9166V53.2033L64.0683 48.1683C64.3333 47.9033 64.4217 47.55 64.245 47.1966C64.1567 46.8433 63.8033 46.6666 63.45 46.6666H29.8833C29.3533 46.6666 29 47.02 29 47.55V59.9166C29 60.4466 29.3533 60.8 29.8833 60.8H58.15C58.68 60.8 59.0333 60.4466 59.0333 59.9166ZM57.2667 52.85V59.0333H30.7667V48.4333H61.33L57.5317 52.2316C57.355 52.4083 57.2667 52.585 57.2667 52.85Z" fill="white"/>
<path d="M81.1176 67.8667H48.4343C48.0809 67.8667 47.8159 68.0434 47.6393 68.3967C47.4626 68.75 47.5509 69.1034 47.7276 69.3684L51.9676 74.4034V81.1167C51.9676 81.6467 52.3209 82 52.8509 82H81.1176C81.6476 82 82.0009 81.6467 82.0009 81.1167V68.75C82.0009 68.22 81.6476 67.8667 81.1176 67.8667ZM80.2343 80.2334H53.7343H53.6459V74.05C53.6459 73.8734 53.5576 73.6967 53.4693 73.52L50.2893 69.6334H80.2343V80.2334Z" fill="white"/>
<path d="M34.3018 51.0834H32.5352V52.85H34.3018V51.0834Z" fill="white"/>
<path d="M37.8331 51.0834H36.0664V52.85H37.8331V51.0834Z" fill="white"/>
<path d="M55.5016 51.0834H39.6016V52.85H55.5016V51.0834Z" fill="white"/>
<path d="M34.3018 54.6167H32.5352V56.3834H34.3018V54.6167Z" fill="white"/>
<path d="M55.4997 54.6167H36.0664V56.3834H55.4997V54.6167Z" fill="white"/>
<path d="M57.2667 72.2833H55.5V74.05H57.2667V72.2833Z" fill="white"/>
<path d="M78.4685 72.2833H59.0352V74.05H78.4685V72.2833Z" fill="white"/>
<path d="M57.2667 75.8167H55.5V77.5833H57.2667V75.8167Z" fill="white"/>
<path d="M60.8018 75.8167H59.0352V77.5833H60.8018V75.8167Z" fill="white"/>
<path d="M78.4664 75.8167H62.5664V77.5833H78.4664V75.8167Z" fill="white"/>
<path d="M73.1682 48.4333H66.1016V50.2H73.1682V48.4333Z" fill="white"/>
<path d="M73.1654 51.9667H64.332V53.7333H73.1654V51.9667Z" fill="white"/>
<path d="M73.1674 55.5H60.8008V57.2667H73.1674V55.5Z" fill="white"/>
<path d="M73.1674 59.0333H60.8008V60.8H73.1674V59.0333Z" fill="white"/>
<path d="M38.7159 76.7H36.9492V78.4666H38.7159V76.7Z" fill="white"/>
<path d="M42.251 76.7H40.4844V78.4666H42.251V76.7Z" fill="white"/>
<path d="M45.7823 76.7H44.0156V78.4666H45.7823V76.7Z" fill="white"/>
<path d="M38.7159 73.1666H36.9492V74.9333H38.7159V73.1666Z" fill="white"/>
<path d="M42.251 73.1666H40.4844V74.9333H42.251V73.1666Z" fill="white"/>
<path d="M38.7159 69.6333H36.9492V71.4H38.7159V69.6333Z" fill="white"/>
<path d="M38.7159 66.1H36.9492V67.8666H38.7159V66.1Z" fill="white"/>
<path d="M42.251 69.6333H40.4844V71.4H42.251V69.6333Z" fill="white"/>
<path d="M45.7823 73.1666H44.0156V74.9333H45.7823V73.1666Z" fill="white"/>
<path d="M49.3174 76.7H47.5508V78.4666H49.3174V76.7Z" fill="white"/>
</svg>
