<svg width="55" height="55" viewBox="0 0 55 55" fill="none" xmlns="http://www.w3.org/2000/svg">
<path d="M28.0677 0.23291C28.4897 0.615971 29.2356 0.435978 29.8284 0.567511C35.8938 1.90822 40.583 7.34722 40.2966 13.1577C43.622 13.0885 47.191 13.0631 49.5267 15.5853C52.4402 18.7306 51.31 23.4796 51.5134 27.3241C53.4272 27.8179 54.3214 28.9694 54.7734 30.6955V39.9258C54.2134 41.3819 53.3996 42.9695 51.5561 43.1818C51.9052 48.1593 51.0287 52.9591 45.0385 54.2329H7.6008C5.01638 53.626 2.57261 52.0845 1.66592 49.68C1.41225 49.0062 1.47253 48.3324 1.11086 47.7716C1.90704 38.862 0.0484604 28.3371 1.11086 19.619C1.80155 13.9423 7.83438 12.5924 13.0936 13.1601C12.7621 8.53102 15.5123 4.21582 19.8272 1.96361C21.2739 1.20902 23.4313 0.408287 25.0739 0.237525H28.0677V0.23291ZM25.521 2.37897C17.4588 3.10125 12.6792 11.4524 16.7078 18.006C17.0846 18.6175 17.6899 19.7067 18.4659 19.8428L35.3086 19.7344C41.9292 12.5301 35.6527 1.46978 25.521 2.37897ZM48.7833 47.4232C48.9516 46.1725 48.6602 44.6679 48.7833 43.3849H39.6738C39.1664 43.3849 37.0266 42.4965 36.474 42.1896C30.7777 39.0213 31.3353 30.4278 37.456 27.9494C37.7625 27.8248 39.7667 27.2318 39.9249 27.2318H48.7858C48.3689 24.0404 46.6158 22.5935 43.1825 22.3743C32.8272 21.7166 21.6607 22.8889 11.22 22.3858C8.88423 22.1551 9.97425 19.8475 10.9739 19.8475H15.0929L13.1816 15.6822C8.8139 15.5138 4.31816 15.4123 3.85352 20.4151C4.46885 28.9971 3.06237 38.4974 3.85352 46.9686C4.09212 49.5393 5.55135 51.4592 8.46981 51.6992C19.8172 52.6361 32.6639 50.9815 44.167 51.6876C46.651 51.5769 48.492 49.6246 48.7883 47.4209L48.7833 47.4232ZM38.0513 19.8475H44.167C44.3629 19.8475 45.8573 20.2005 46.1788 20.2951C47.1257 20.5767 47.8641 21.1997 48.7833 21.4605C49.0169 18.4514 47.2563 16.0053 43.9158 15.6961C43.2327 15.6315 40.2414 15.5646 39.9224 15.9199C39.3749 16.5268 39.1036 19.1044 38.0538 19.8475H38.0513ZM45.1038 35.1745C45.1038 33.4553 43.5969 32.0639 41.7383 32.0639C39.8797 32.0639 38.3728 33.4576 38.3728 35.1745C38.3728 36.8913 39.8797 38.2851 41.7383 38.2851C43.5969 38.2851 45.1038 36.8913 45.1038 35.1745Z" fill="white"/>
<path d="M25.0727 5.53809V6.92495L26.2104 6.70804L26.3184 5.53809H27.5692L27.5667 6.92495C31.0201 6.33651 33.1474 9.35946 30.3144 11.5355C35.1617 12.7632 31.4797 17.7268 27.5667 16.8453V18.2322H26.3184V16.8453H25.0702V18.2322L23.7164 18.2345L23.5732 16.8453H21.0767L21.353 15.4884L22.6641 15.433L23.0383 15.0846C23.1739 14.7062 23.1588 9.36177 23.0232 8.93256C22.7796 8.16644 21.7624 8.28412 21.0742 8.30951V6.92264L23.5732 6.92495V5.53809H25.0702H25.0727ZM26.3234 8.53796H25.5674V11.0786H26.3234V8.53796ZM27.5692 10.8479C29.4252 10.8986 29.3172 8.56334 27.5667 8.88871V10.8479H27.5692ZM25.5725 15.23C26.7479 15.2254 26.5043 12.7978 25.9417 12.2324C25.3364 12.1217 25.5875 12.6801 25.57 13.0355C25.5373 13.7647 25.5926 14.5008 25.57 15.2277L25.5725 15.23ZM27.9384 12.2393C27.2552 12.2878 27.1221 16.8245 29.2118 14.5608C30.1687 13.527 28.8476 12.1747 27.9384 12.2393Z" fill="white"/>
</svg>
