<svg width="44" height="49" viewBox="0 0 44 49" fill="none" xmlns="http://www.w3.org/2000/svg">
<path d="M43.1697 0.434814L39.3139 43.6298L21.9818 48.4348L4.69744 43.6366L0.845703 0.434814H43.1697Z" fill="#264DE4"/>
<path d="M22.0078 44.762L36.013 40.8792L39.308 3.96716H22.0078V44.762Z" fill="#2965F1"/>
<path d="M22.0077 19.9901H9.67578L10.1507 25.2886H22.0077V19.9901Z" fill="#EBEBEB"/>
<path d="M22.0069 9.26581H21.9886H8.7207L9.20236 14.5644H22.0069V9.26581Z" fill="#EBEBEB"/>
<path d="M10.3867 27.9377L11.129 36.2572L21.9827 39.2702L22.0071 39.2634V33.7508L21.9838 33.7569L16.0828 32.1636L15.7056 27.9377H12.8382H10.3867Z" fill="#EBEBEB"/>
<path d="M28.5148 25.2886L27.8998 32.1604L21.9902 33.7554V39.2679L32.8525 36.2574L32.9322 35.3622L34.1773 21.4129L34.3066 19.9901L35.2631 9.26581H21.9902V14.5644H29.4564L28.9743 19.9901H21.9902V25.2886H28.5148Z" fill="white"/>
</svg>
