<svg width="55" height="55" viewBox="0 0 55 55" fill="none" xmlns="http://www.w3.org/2000/svg">
<path d="M27.6412 18.7511L27.6586 18.7512L27.6761 18.7511L28.1305 18.7471C29.9906 18.7552 31.6697 19.4238 33.0839 20.7114L33.0988 20.7249L33.1139 20.7382L33.4775 21.0561C34.9601 22.4511 35.7978 24.2112 35.9138 26.2358C36.0029 28.9316 35.3806 30.9189 33.7154 32.9329C32.2047 34.5289 30.1531 35.5199 28.0641 35.5915C25.6657 35.5927 23.6712 34.7823 21.8753 33.0814C20.6801 31.7823 20.0564 30.4874 19.5615 28.6404L19.552 28.605L19.5412 28.5699L19.4725 28.3466C19.1071 26.2365 19.717 24.147 20.9943 22.1064C22.6623 19.888 24.9648 18.7277 27.6412 18.7511Z" stroke="white" stroke-width="4"/>
<path d="M52.7743 15.3145C53.4301 15.4255 53.8001 15.6802 54.3172 16.098C54.7769 16.7984 54.7996 17.3644 54.6601 18.1876C54.3668 18.7225 54.007 19.1288 53.4601 19.4066C52.4924 19.4871 52.4924 19.4871 52.0886 19.4066C51.9737 19.2923 51.8588 19.178 51.7404 19.0603C51.0218 18.5658 50.4224 18.6051 49.5726 18.6039C49.414 18.601 49.2554 18.5982 49.092 18.5952C48.5872 18.5868 48.0825 18.583 47.5777 18.5794C47.2347 18.5745 46.8917 18.5693 46.5487 18.5638C45.7095 18.5509 44.8704 18.5423 44.0311 18.5359C44.0356 18.738 44.0401 18.9401 44.0447 19.1483C44.0602 19.8985 44.0701 20.6488 44.0782 21.3991C44.0825 21.7238 44.0883 22.0484 44.0958 22.373C44.1062 22.8399 44.111 23.3065 44.1148 23.7735C44.1192 23.9184 44.1237 24.0634 44.1282 24.2127C44.1286 24.9227 44.1249 25.218 43.6517 25.7682C43.1451 26.039 42.8692 26.1057 42.3027 26.0916C42.143 26.0894 41.9834 26.0871 41.8188 26.0848C41.6543 26.079 41.4898 26.0731 41.3203 26.0671C41.0685 26.0624 41.0685 26.0624 40.8117 26.0576C40.399 26.0494 39.9863 26.0369 39.5738 26.0236C39.5172 25.2766 39.4606 24.5295 39.4023 23.7599C40.1944 23.7599 40.9864 23.7599 41.8024 23.7599C41.7989 23.5578 41.7953 23.3557 41.7916 23.1475C41.7791 22.3972 41.7713 21.647 41.7648 20.8966C41.7613 20.572 41.7566 20.2474 41.7507 19.9227C41.7424 19.4559 41.7385 18.9892 41.7355 18.5223C41.7319 18.3773 41.7284 18.2324 41.7248 18.083C41.7247 17.9471 41.7246 17.8112 41.7246 17.6712C41.7231 17.5521 41.7215 17.433 41.72 17.3103C41.8434 16.7992 42.0843 16.5912 42.4882 16.2722C42.8957 16.1865 42.8957 16.1865 43.3523 16.1882C43.524 16.187 43.6957 16.1858 43.8725 16.1846C44.1493 16.1875 44.1493 16.1875 44.4316 16.1906C44.7176 16.1887 44.7176 16.1887 45.0093 16.1868C45.8249 16.1817 46.6404 16.1846 47.456 16.1867C48.0515 16.1871 48.6469 16.1835 49.2425 16.1797C49.5182 16.1826 49.5182 16.1826 49.7994 16.1856C51.0872 16.1768 51.6462 15.5054 52.7743 15.3145Z" fill="white"/>
<path d="M3.22762 15.4016C3.36827 15.5162 3.50892 15.6307 3.65383 15.7488C4.42836 16.2925 5.29364 16.1897 6.20163 16.1797C6.48179 16.1816 6.48179 16.1816 6.7676 16.1834C7.36272 16.1873 7.95771 16.1868 8.55284 16.1852C9.3371 16.1831 10.1212 16.1854 10.9054 16.1906C11.0852 16.1886 11.2651 16.1867 11.4504 16.1846C12.1806 16.1898 12.7038 16.2136 13.3715 16.5285C13.8369 17.1817 13.7929 17.7353 13.7689 18.5223C13.7677 18.6721 13.7665 18.8218 13.7652 18.9761C13.7604 19.4535 13.7497 19.9306 13.7388 20.4079C13.7345 20.7319 13.7306 21.0559 13.7271 21.3799C13.7176 22.1734 13.7028 22.9666 13.6852 23.7599C14.4772 23.7599 15.2693 23.7599 16.0853 23.7599C15.9721 24.5069 15.859 25.254 15.7424 26.0236C15.1887 26.0425 14.6355 26.0563 14.0816 26.0672C13.8471 26.0759 13.8471 26.0759 13.6078 26.0848C13.4559 26.0871 13.304 26.0893 13.1475 26.0916C13.0083 26.0953 12.8691 26.0989 12.7258 26.1027C12.1194 25.9863 11.8647 25.7988 11.4565 25.3271C11.3395 24.8077 11.3566 24.304 11.3728 23.7735C11.374 23.6238 11.3752 23.474 11.3765 23.3197C11.3813 22.8423 11.392 22.3653 11.403 21.888C11.4073 21.564 11.4112 21.24 11.4147 20.916C11.4241 20.1225 11.4389 19.3293 11.4565 18.5359C10.4404 18.5479 9.42448 18.5632 8.40849 18.5816C8.06278 18.5874 7.71706 18.5923 7.37133 18.5963C6.87466 18.6021 6.37814 18.6112 5.88153 18.621C5.72668 18.6221 5.57184 18.6232 5.41231 18.6243C5.19613 18.6295 5.19613 18.6295 4.97559 18.6348C4.78543 18.6377 4.78543 18.6377 4.59144 18.6406C4.16669 18.7286 4.03209 18.915 3.74193 19.2325C3.1157 19.4445 2.68631 19.4746 2.02757 19.4066C1.51746 19.0973 1.0971 18.7353 0.827525 18.1877C0.734265 17.3973 0.720738 16.8026 1.12754 16.109C1.80884 15.4746 2.29226 15.2876 3.22762 15.4016Z" fill="white"/>
<path d="M39.5738 28.2871C40.2204 28.2683 40.8664 28.2545 41.5131 28.2435C41.6969 28.2377 41.8807 28.2319 42.07 28.2259C42.2462 28.2236 42.4225 28.2214 42.604 28.2191C42.7665 28.2154 42.929 28.2118 43.0965 28.208C43.5168 28.2871 43.5168 28.2871 43.8279 28.5449C44.125 29.1863 44.0944 29.8052 44.0813 30.4991C44.0806 30.645 44.0799 30.7909 44.0791 30.9412C44.0763 31.4061 44.0698 31.8708 44.0632 32.3357C44.0607 32.6513 44.0583 32.9669 44.0562 33.2825C44.0506 34.0553 44.0417 34.8279 44.0311 35.6006C45.0378 35.5929 46.0443 35.5808 47.0509 35.5645C47.3931 35.5596 47.7353 35.5559 48.0775 35.5534C48.5704 35.5497 49.0631 35.5416 49.5559 35.5326C49.7081 35.5324 49.8603 35.5322 50.0171 35.532C50.9752 35.5091 51.4796 35.3391 52.26 34.73C52.8682 34.6177 53.2458 34.6212 53.8029 34.9041C54.3147 35.273 54.6084 35.5679 54.7653 36.1951C54.8055 36.969 54.7385 37.5237 54.253 38.1364C53.6322 38.7219 53.3018 38.7612 52.4602 38.8092C52.0886 38.735 52.0886 38.735 51.76 38.3872C50.9565 37.8571 50.1974 37.9468 49.2592 37.9569C49.068 37.9556 48.8768 37.9544 48.6798 37.9531C48.0695 37.9493 47.4594 37.9498 46.8491 37.9514C46.0452 37.9535 45.2415 37.9511 44.4376 37.946C44.2526 37.9479 44.0676 37.9499 43.8769 37.9519C43.6186 37.9502 43.6186 37.9502 43.355 37.9484C43.1282 37.9492 43.1282 37.9492 42.8968 37.95C42.346 37.8345 42.1422 37.6156 41.8024 37.1678C41.72 36.8262 41.72 36.8262 41.7246 36.4653C41.7246 36.3294 41.7247 36.1935 41.7248 36.0535C41.7283 35.9085 41.7318 35.7636 41.7355 35.6142C41.7364 35.4645 41.7374 35.3147 41.7384 35.1604C41.7422 34.6831 41.7509 34.206 41.7596 33.7287C41.763 33.4047 41.7662 33.0807 41.769 32.7567C41.7765 31.9633 41.7883 31.17 41.8024 30.3767C41.0104 30.3767 40.2184 30.3767 39.4023 30.3767C39.4589 29.6871 39.5155 28.9975 39.5738 28.2871Z" fill="white"/>
<path d="M12.8455 28.219C13.0982 28.2224 13.0982 28.2224 13.3561 28.2258C13.5317 28.2316 13.7072 28.2375 13.8881 28.2435C14.1545 28.2482 14.1545 28.2482 14.4262 28.253C14.8649 28.2612 15.3033 28.2727 15.7418 28.287C15.9368 29.0299 16.0847 29.6043 16.0847 30.3766C15.2926 30.3766 14.5006 30.3766 13.6846 30.3766C13.6899 30.6797 13.6899 30.6797 13.6954 30.989C13.7079 31.7392 13.7157 32.4895 13.7222 33.2398C13.7257 33.5645 13.7303 33.8891 13.7363 34.2137C13.7446 34.6806 13.7485 35.1473 13.7515 35.6142C13.7551 35.7591 13.7586 35.9041 13.7622 36.0534C13.7623 36.2573 13.7623 36.2573 13.7624 36.4653C13.7639 36.5844 13.7654 36.7035 13.767 36.8262C13.6436 37.3375 13.4031 37.5452 12.9988 37.8643C12.5879 37.9511 12.5879 37.9511 12.1265 37.9511C11.9532 37.9528 11.7799 37.9546 11.6013 37.9564C11.4152 37.9549 11.2291 37.9535 11.0373 37.952C10.7495 37.9545 10.7495 37.9545 10.4559 37.957C9.84274 37.962 9.22968 37.9625 8.61649 37.9622C8.0027 37.9629 7.389 37.9645 6.77523 37.9693C6.39327 37.9723 6.01128 37.9727 5.62932 37.9706C5.45652 37.9718 5.28373 37.973 5.1057 37.9742C4.87753 37.9739 4.87753 37.9739 4.64475 37.9737C4.17303 38.0522 4.05332 38.2066 3.74129 38.5608C3.11505 38.7728 2.68567 38.803 2.02693 38.735C1.51682 38.4257 1.09646 38.0637 0.826882 37.516C0.734279 36.7312 0.723468 36.1317 1.11618 35.4373C1.74797 34.865 2.1292 34.717 2.98054 34.7626C3.56985 34.904 3.56985 34.904 3.84693 35.1685C4.49346 35.5766 5.15087 35.5101 5.89763 35.5155C6.1359 35.5202 6.1359 35.5202 6.37898 35.525C6.88551 35.5344 7.39202 35.5403 7.8986 35.5462C8.24237 35.5519 8.58613 35.5579 8.92989 35.5642C9.77187 35.579 10.6138 35.5906 11.4559 35.6006C11.4532 35.4038 11.4505 35.207 11.4477 35.0042C11.4384 34.2734 11.4325 33.5426 11.4276 32.8117C11.4251 32.4955 11.4215 32.1794 11.4171 31.8632C11.4108 31.4085 11.4079 30.9538 11.4057 30.499C11.403 30.3579 11.4004 30.2168 11.3976 30.0713C11.3975 29.5044 11.4197 29.0608 11.6615 28.5448C12.0746 28.1999 12.3146 28.2065 12.8455 28.219Z" fill="white"/>
<path d="M31.0009 38.9092C31.0009 39.5987 31.0009 40.2883 31.0009 40.9988C31.1938 40.9951 31.3866 40.9915 31.5853 40.9877C32.3026 40.9751 33.0198 40.9671 33.7371 40.9605C34.0473 40.957 34.3574 40.9523 34.6675 40.9462C35.1139 40.9377 35.5602 40.9338 36.0067 40.9307C36.2138 40.9254 36.2138 40.9254 36.4251 40.9199C37.044 40.9196 37.4592 40.9738 38.0323 41.2279C38.5826 41.9836 38.4835 42.7544 38.4697 43.6692C38.4707 43.8629 38.4717 44.0566 38.4727 44.2561C38.4755 44.8754 38.4728 45.4946 38.4691 46.1139C38.4662 46.732 38.4647 47.3499 38.4673 47.968C38.4689 48.3525 38.4673 48.737 38.4622 49.1215C38.466 50.2002 38.5512 50.7842 39.2298 51.6208C39.3186 52.1815 39.2409 52.6525 39.0584 53.188C38.5381 53.792 38.1777 54.0165 37.419 54.2328C36.5447 54.2328 36.1941 53.9233 35.5761 53.3295C35.2481 52.7742 35.2058 52.4381 35.1957 51.8058C35.2868 51.4467 35.2868 51.4467 35.6288 51.0942C36.1136 50.3633 36.0758 49.7542 36.077 48.8912C36.0798 48.7301 36.0827 48.569 36.0856 48.403C36.0939 47.8903 36.0976 47.3776 36.1011 46.8648C36.1059 46.5165 36.1111 46.1681 36.1165 45.8197C36.1292 44.9673 36.1377 44.115 36.144 43.2625C35.8455 43.268 35.8455 43.268 35.5411 43.2735C34.8024 43.2862 34.0638 43.2941 33.3251 43.3007C33.0055 43.3042 32.6858 43.309 32.3663 43.315C31.9067 43.3235 31.4472 43.3274 30.9875 43.3305C30.8448 43.3341 30.7021 43.3377 30.5551 43.3414C29.9097 43.3417 29.566 43.3378 29.0237 42.9595C28.7398 42.5152 28.6913 42.2986 28.7053 41.7742C28.7075 41.6272 28.7097 41.4801 28.712 41.3287C28.7177 41.1767 28.7235 41.0247 28.7294 40.8682C28.7325 40.7135 28.7356 40.5589 28.7387 40.3995C28.7468 40.0186 28.7581 39.6381 28.7722 39.2574C29.0471 39.1988 29.3222 39.1409 29.5973 39.0833C29.7504 39.051 29.9036 39.0187 30.0613 38.9854C30.4866 38.9092 30.4866 38.9092 31.0009 38.9092Z" fill="white"/>
<path d="M24.4843 38.9092C25.5026 39.0816 25.5026 39.0816 26.5415 39.2574C26.56 39.8272 26.5736 40.3962 26.5843 40.9661C26.593 41.2087 26.593 41.2087 26.6018 41.4562C26.604 41.6116 26.6062 41.7671 26.6085 41.9272C26.612 42.0704 26.6156 42.2136 26.6193 42.3611C26.5415 42.7401 26.5415 42.7401 26.2877 43.0489C25.6572 43.3606 25.0493 43.3268 24.3637 43.3135C24.2201 43.3128 24.0765 43.312 23.9285 43.3113C23.4708 43.3083 23.0132 43.3018 22.5556 43.2951C22.2449 43.2925 21.9342 43.2901 21.6234 43.288C20.8626 43.2822 20.1019 43.2732 19.3412 43.2625C19.3488 44.285 19.3608 45.3073 19.3768 46.3298C19.3816 46.6773 19.3852 47.0249 19.3876 47.3725C19.3913 47.8732 19.3993 48.3736 19.4082 48.8742C19.4084 49.0287 19.4086 49.1833 19.4088 49.3426C19.4313 50.3164 19.5999 50.827 20.1984 51.6208C20.2916 52.2101 20.3298 52.6091 20.0289 53.137C19.6429 53.636 19.2659 54.0734 18.6554 54.2328C17.799 54.219 17.4511 54.1959 16.7804 53.6451C16.2231 52.9247 16.179 52.3462 16.2553 51.4467C16.3679 51.3313 16.4805 51.216 16.5965 51.0971C17.1272 50.2945 17.0312 49.5182 17.0214 48.5728C17.0227 48.3786 17.0239 48.1844 17.0251 47.9842C17.0289 47.3644 17.0284 46.7447 17.0268 46.1248C17.0247 45.3082 17.0271 44.4919 17.0322 43.6754C17.0302 43.4874 17.0283 43.2995 17.0263 43.1059C17.0275 42.9309 17.0286 42.756 17.0298 42.5758C17.0293 42.4222 17.0287 42.2686 17.0282 42.1103C17.1419 41.5508 17.3574 41.3439 17.7983 40.9988C18.1346 40.915 18.1346 40.915 18.4899 40.9197C18.6237 40.9197 18.7575 40.9198 18.8953 40.9199C19.1094 40.9252 19.1094 40.9252 19.3278 40.9307C19.5489 40.9322 19.5489 40.9322 19.7746 40.9337C20.2445 40.9376 20.7142 40.9464 21.1841 40.9552C21.5031 40.9587 21.8221 40.9619 22.1411 40.9648C22.9222 40.9724 23.7032 40.9844 24.4843 40.9988C24.4843 40.3092 24.4843 39.6196 24.4843 38.9092Z" fill="white"/>
<path d="M38.2022 0.425993C38.666 0.808777 38.9647 1.10434 39.2308 1.64492C39.2221 2.00339 39.2221 2.00339 39.1772 2.41763C39.1637 2.55388 39.1503 2.69013 39.1364 2.83051C39.0594 3.21211 39.0594 3.21211 38.7165 3.7345C38.6033 3.7345 38.4902 3.7345 38.3736 3.7345C38.3751 3.84421 38.3767 3.95393 38.3782 4.06696C38.3934 5.20813 38.4038 6.34926 38.4113 7.4905C38.4147 7.91649 38.4194 8.34247 38.4254 8.76843C38.4337 9.3805 38.4376 9.99245 38.4406 10.6046C38.4441 10.7952 38.4477 10.9859 38.4513 11.1823C38.4514 11.3601 38.4514 11.5378 38.4515 11.7209C38.453 11.8772 38.4545 12.0334 38.4561 12.1943C38.3454 12.7593 38.133 12.9647 37.6879 13.3118C37.3516 13.3955 37.3516 13.3955 36.9963 13.3908C36.8625 13.3908 36.7287 13.3907 36.5908 13.3907C36.3767 13.3853 36.3767 13.3853 36.1584 13.3798C36.0109 13.3788 35.8635 13.3778 35.7116 13.3768C35.2416 13.3729 34.7719 13.3642 34.302 13.3553C33.983 13.3518 33.6641 13.3486 33.3451 13.3458C32.5639 13.3381 31.7829 13.3261 31.0019 13.3118C31.0019 13.9439 31.0019 14.576 31.0019 15.2272C30.2664 15.1698 29.531 15.1123 28.7732 15.0531C28.7593 14.5451 28.7491 14.0375 28.7411 13.5294C28.7368 13.3858 28.7325 13.2421 28.728 13.0941C28.7264 12.9549 28.7247 12.8158 28.723 12.6724C28.7203 12.5447 28.7176 12.417 28.7148 12.2855C28.7975 11.7659 28.8892 11.5689 29.2875 11.2222C29.8044 11.1239 30.3136 11.1414 30.8378 11.1542C31.065 11.1556 31.065 11.1556 31.2969 11.1572C31.7808 11.161 32.2645 11.1698 32.7484 11.1787C33.0764 11.1821 33.4044 11.1853 33.7325 11.1882C34.5367 11.1959 35.3408 11.2079 36.145 11.2222C36.1374 10.1997 36.1254 9.17732 36.1094 8.15489C36.1046 7.80732 36.1009 7.45973 36.0985 7.11214C36.0948 6.61149 36.0868 6.11108 36.078 5.6105C36.0778 5.45592 36.0776 5.30134 36.0774 5.14207C36.0549 4.16802 35.8856 3.6584 35.2878 2.86384C35.1811 2.10495 35.2341 1.74809 35.5878 1.06811C36.3419 0.15319 37.1082 0.113024 38.2022 0.425993Z" fill="white"/>
<path d="M18.6551 0.251923C19.2459 0.471186 19.5927 0.672849 20.0159 1.14435C20.2718 1.84764 20.2358 2.49401 20.0266 3.21217C19.9411 3.29046 19.8556 3.36874 19.7675 3.4494C19.443 3.81204 19.4452 3.9968 19.4382 4.48122C19.4348 4.63109 19.4314 4.78096 19.4279 4.93537C19.4262 5.177 19.4262 5.177 19.4246 5.42351C19.4215 5.58897 19.4184 5.75443 19.4152 5.9249C19.406 6.45361 19.4002 6.98229 19.3944 7.51105C19.3888 7.86941 19.3828 8.22777 19.3767 8.58612C19.3621 9.46481 19.3507 10.3435 19.3409 11.2222C19.6406 11.2181 19.6406 11.2181 19.9465 11.214C20.6873 11.2045 21.4282 11.1985 22.1692 11.1935C22.49 11.1909 22.8107 11.1874 23.1315 11.1828C23.5924 11.1765 24.0532 11.1735 24.5141 11.1712C24.7295 11.1672 24.7295 11.1672 24.9492 11.1631C25.9543 11.1628 25.9543 11.1628 26.3224 11.4645C26.611 11.834 26.6007 12.0518 26.5914 12.5194C26.5889 12.7408 26.5889 12.7408 26.5864 12.9666C26.5821 13.1201 26.5777 13.2735 26.5733 13.4315C26.5698 13.6647 26.5698 13.6647 26.5663 13.9026C26.5602 14.2862 26.551 14.6697 26.5412 15.0532C25.5228 15.1393 25.5228 15.1393 24.4839 15.2273C24.4839 14.5952 24.4839 13.9631 24.4839 13.3118C24.1764 13.3173 24.1764 13.3173 23.8626 13.3229C23.1025 13.3355 22.3425 13.3435 21.5824 13.3501C21.2533 13.3536 20.9242 13.3584 20.5951 13.3644C20.1223 13.3728 19.6497 13.3768 19.1768 13.3799C19.0295 13.3834 18.8821 13.387 18.7303 13.3907C18.5244 13.3908 18.5244 13.3908 18.3144 13.3909C18.1937 13.3925 18.073 13.394 17.9487 13.3956C17.6265 13.3118 17.6265 13.3118 17.3303 13.0125C17.0772 12.5515 17.0484 12.2787 17.049 11.7536C17.0478 11.5827 17.0466 11.4118 17.0454 11.2357C17.047 10.9604 17.047 10.9604 17.0486 10.6794C17.0456 10.2897 17.0426 9.89993 17.0395 9.51017C17.0378 8.89648 17.0372 8.28281 17.0375 7.66912C17.0369 7.07629 17.0322 6.48361 17.0272 5.89081C17.0286 5.70794 17.03 5.52507 17.0314 5.33666C17.0207 4.27129 16.9265 3.68968 16.255 2.8639C16.1279 2.33872 16.1853 2.02839 16.255 1.47085C16.8922 0.444278 17.4706 0.149964 18.6551 0.251923Z" fill="white"/>
</svg>
