<svg width="112" height="112" viewBox="0 0 112 112" fill="none" xmlns="http://www.w3.org/2000/svg">
<circle cx="56" cy="56" r="56" fill="#B7CA4B"/>
<path d="M82.0001 53.3396V30H31V53.3396H47.0056V57.4137C47.0056 58.6151 46.0281 59.5924 44.8268 59.5924H41.7198C38.8477 59.5924 36.5112 61.9291 36.5112 64.801V69.696C36.5112 72.5681 38.8478 74.9046 41.7198 74.9046H48.5204V71.8748H41.7198C40.5184 71.8748 39.541 70.8973 39.541 69.696V64.801C39.541 63.5996 40.5185 62.6223 41.7198 62.6223H44.8268C47.6989 62.6223 50.0354 60.2856 50.0354 57.4137V53.3396H62.9647V57.4137C62.9647 60.2857 65.3014 62.6223 68.1733 62.6223H71.2803C72.4817 62.6223 73.4591 63.5997 73.4591 64.801V69.696C73.4591 70.8974 72.4816 71.8748 71.2803 71.8748H64.4797V74.9046H71.2803C74.1524 74.9046 76.4889 72.568 76.4889 69.696V64.801C76.4889 61.929 74.1523 59.5924 71.2803 59.5924H68.1733C66.9719 59.5924 65.9946 58.615 65.9946 57.4137V53.3396H82.0001ZM34.0298 50.3098V33.0299H78.9703V50.3099L34.0298 50.3098Z" fill="white"/>
<path d="M39.8708 45.0793H36.2148V48.1092H39.8708V45.0793Z" fill="white"/>
<path d="M46.0271 45.0793H42.3711V48.1092H46.0271V45.0793Z" fill="white"/>
<path d="M64.4826 45.0793H48.5234V48.1092H64.4826V45.0793Z" fill="white"/>
<path d="M70.6364 45.0793H66.9805V48.1092H70.6364V45.0793Z" fill="white"/>
<path d="M76.7849 45.0793H73.1289V48.1092H76.7849V45.0793Z" fill="white"/>
<path d="M39.8708 40.1549H36.2148V43.1847H39.8708V40.1549Z" fill="white"/>
<path d="M46.0271 40.1547H42.3711V43.1845H46.0271V40.1547Z" fill="white"/>
<path d="M52.1794 40.1549H48.5234V43.1847H52.1794V40.1549Z" fill="white"/>
<path d="M58.3278 40.1549H54.6719V43.1847H58.3278V40.1549Z" fill="white"/>
<path d="M64.4802 40.1549H60.8242V43.1847H64.4802V40.1549Z" fill="white"/>
<path d="M70.6364 40.1549H66.9805V43.1847H70.6364V40.1549Z" fill="white"/>
<path d="M76.7849 40.1549H73.1289V43.1847H76.7849V40.1549Z" fill="white"/>
<path d="M39.8708 35.2302H36.2148V38.2601H39.8708V35.2302Z" fill="white"/>
<path d="M46.0271 35.2303H42.3711V38.2602H46.0271V35.2303Z" fill="white"/>
<path d="M52.1794 35.2302H48.5234V38.2601H52.1794V35.2302Z" fill="white"/>
<path d="M58.3278 35.2302H54.6719V38.2601H58.3278V35.2302Z" fill="white"/>
<path d="M64.4802 35.2302H60.8242V38.2601H64.4802V35.2302Z" fill="white"/>
<path d="M70.6364 35.2302H66.9805V38.2601H70.6364V35.2302Z" fill="white"/>
<path d="M76.7849 35.2302H73.1289V38.2601H76.7849V35.2302Z" fill="white"/>
<path d="M56.4972 59.6547C52.3526 59.6547 48.9805 63.0266 48.9805 67.1714C48.9805 69.156 49.747 71.0282 51.1386 72.4427L51.2314 72.5371C51.6898 73.0221 52.0113 73.612 52.1686 74.2562V76.4591V76.6715C52.1686 79.0582 54.1104 80.9999 56.4971 80.9999C58.8839 80.9999 60.8257 79.0581 60.8257 76.6715V76.4591V74.2562C60.9828 73.6127 61.3037 73.0235 61.7613 72.5389L61.8557 72.4428C63.2475 71.0282 64.0139 69.1562 64.0139 67.1715C64.014 63.0267 60.6419 59.6547 56.4972 59.6547ZM57.7961 76.6714H57.796C57.796 77.3875 57.2134 77.97 56.4973 77.97C55.7812 77.97 55.1986 77.3874 55.1986 76.6714V76.459H57.7961V76.6714ZM59.7259 70.2871L59.7062 70.3067C58.8347 71.1752 58.2183 72.2485 57.9098 73.4292H55.0847C54.7763 72.2486 54.1599 71.1752 53.2883 70.3067L53.2691 70.2875C52.4571 69.4469 52.0105 68.3418 52.0105 67.1714C52.0105 64.6973 54.0233 62.6845 56.4974 62.6845C58.9715 62.6845 60.9843 64.6973 60.9843 67.1714C60.9841 68.3418 60.5376 69.4465 59.7259 70.2871Z" fill="white"/>
</svg>
