<svg width="33" height="51" viewBox="0 0 33 51" fill="none" xmlns="http://www.w3.org/2000/svg">
<path d="M27.3968 0H5.36842C3.94463 0 2.57915 0.5656 1.57237 1.57237C0.5656 2.57915 0 3.94463 0 5.36842V45.6316C0 47.0554 0.5656 48.4209 1.57237 49.4276C2.57915 50.4344 3.94463 51 5.36842 51H27.3968C28.8206 51 30.1861 50.4344 31.1929 49.4276C32.1997 48.4209 32.7653 47.0554 32.7653 45.6316V5.36842C32.7653 3.94463 32.1997 2.57915 31.1929 1.57237C30.1861 0.5656 28.8206 0 27.3968 0ZM22.5116 1.78947L21.7689 4.55421H10.9963L10.2537 1.78947H22.5116ZM30.9758 45.6316C30.9758 46.5808 30.5987 47.4911 29.9275 48.1623C29.2564 48.8335 28.346 49.2105 27.3968 49.2105H5.36842C4.41923 49.2105 3.50891 48.8335 2.83772 48.1623C2.16654 47.4911 1.78947 46.5808 1.78947 45.6316V43.7079H30.9758V45.6316ZM30.9758 41.9184H1.78947V5.36842C1.78947 4.41923 2.16654 3.50891 2.83772 2.83772C3.50891 2.16654 4.41923 1.78947 5.36842 1.78947H8.40158L9.26947 5.01947C9.37079 5.39984 9.59512 5.736 9.90749 5.97553C10.2198 6.21506 10.6027 6.3445 10.9963 6.34368H21.7689C22.1626 6.3445 22.5454 6.21506 22.8578 5.97553C23.1701 5.736 23.3945 5.39984 23.4958 5.01947L24.3637 1.78947H27.3968C28.346 1.78947 29.2564 2.16654 29.9275 2.83772C30.5987 3.50891 30.9758 4.41923 30.9758 5.36842V41.9184Z" fill="black"/>
<path d="M18.4563 45.5654H14.5588C14.3215 45.5654 14.0939 45.6597 13.9261 45.8275C13.7583 45.9953 13.6641 46.2229 13.6641 46.4602C13.6641 46.6975 13.7583 46.925 13.9261 47.0928C14.0939 47.2606 14.3215 47.3549 14.5588 47.3549H18.4563C18.6936 47.3549 18.9212 47.2606 19.0889 47.0928C19.2567 46.925 19.351 46.6975 19.351 46.4602C19.351 46.2229 19.2567 45.9953 19.0889 45.8275C18.9212 45.6597 18.6936 45.5654 18.4563 45.5654Z" fill="black"/>
<path d="M22.4955 20.0242C22.4808 19.7862 22.4189 19.5536 22.3134 19.3398C22.208 19.1259 22.0611 18.9352 21.8812 18.7787C21.7014 18.6222 21.4922 18.5029 21.2659 18.428C21.0396 18.353 20.8006 18.3238 20.5629 18.3421H19.0687V16.5526C19.0687 15.8407 18.7859 15.158 18.2825 14.6546C17.7791 14.1512 17.0964 13.8684 16.3845 13.8684C15.6726 13.8684 14.9898 14.1512 14.4864 14.6546C13.983 15.158 13.7002 15.8407 13.7002 16.5526V18.3421H12.206C11.7396 18.302 11.276 18.4463 10.9147 18.744C10.5534 19.0417 10.3232 19.4692 10.2734 19.9347L9.22656 30.9758C9.2416 31.2144 9.304 31.4477 9.41014 31.662C9.51627 31.8763 9.66401 32.0673 9.84475 32.2238C10.0255 32.3804 10.2356 32.4994 10.4628 32.5739C10.69 32.6485 10.9298 32.677 11.1681 32.6579H21.6008C21.8453 32.6755 22.0909 32.6433 22.3226 32.5633C22.5543 32.4832 22.7674 32.357 22.9489 32.1922C23.1304 32.0274 23.2766 31.8275 23.3786 31.6046C23.4806 31.3817 23.5363 31.1403 23.5424 30.8953L22.4955 20.0242ZM15.4897 16.5526C15.4897 16.3153 15.584 16.0877 15.7518 15.9199C15.9196 15.7521 16.1472 15.6579 16.3845 15.6579C16.6218 15.6579 16.8493 15.7521 17.0171 15.9199C17.1849 16.0877 17.2792 16.3153 17.2792 16.5526V18.3421H15.4897V16.5526ZM21.6008 30.8684H11.1681C11.1228 30.8681 11.0777 30.8621 11.0339 30.8505L12.045 20.1584C12.0972 20.1421 12.1514 20.133 12.206 20.1316H13.7002V22.8158C13.7002 23.0531 13.7945 23.2807 13.9623 23.4485C14.1301 23.6162 14.3577 23.7105 14.595 23.7105C14.8323 23.7105 15.0599 23.6162 15.2277 23.4485C15.3955 23.2807 15.4897 23.0531 15.4897 22.8158V20.1316H17.2792V22.8158C17.2792 23.0531 17.3735 23.2807 17.5413 23.4485C17.7091 23.6162 17.9366 23.7105 18.1739 23.7105C18.4112 23.7105 18.6388 23.6162 18.8066 23.4485C18.9744 23.2807 19.0687 23.0531 19.0687 22.8158V20.1316H20.5629C20.6147 20.1319 20.6661 20.141 20.715 20.1584L21.7439 30.8505C21.6972 30.8626 21.6491 30.8686 21.6008 30.8684Z" fill="black"/>
<path d="M20.5873 12.7142C20.4206 12.8795 20.1957 12.9727 19.9609 12.9737C19.8424 12.9744 19.7249 12.951 19.6157 12.9048C19.5065 12.8587 19.4078 12.7908 19.3257 12.7052L16.4267 9.76155L13.4294 12.7142C13.3485 12.8072 13.2492 12.8826 13.1379 12.9354C13.0265 12.9883 12.9054 13.0176 12.7822 13.0215C12.6589 13.0253 12.5362 13.0037 12.4218 12.9579C12.3073 12.9121 12.2035 12.8431 12.117 12.7553C12.0304 12.6676 11.9629 12.5628 11.9188 12.4477C11.8746 12.3326 11.8547 12.2096 11.8603 12.0864C11.8659 11.9633 11.8969 11.8426 11.9514 11.732C12.0058 11.6214 12.0826 11.5232 12.1767 11.4437L15.8004 7.86471C15.8842 7.78143 15.9836 7.71556 16.093 7.67091C16.2023 7.62625 16.3194 7.60368 16.4375 7.60451C16.5557 7.60535 16.6724 7.62956 16.7812 7.67575C16.8899 7.72195 16.9884 7.78921 17.0709 7.87366L20.5962 11.4526C20.6795 11.5354 20.7455 11.634 20.7903 11.7427C20.835 11.8513 20.8576 11.9678 20.8568 12.0853C20.856 12.2028 20.8317 12.3189 20.7854 12.4269C20.7391 12.5349 20.6718 12.6326 20.5873 12.7142Z" fill="black"/>
<path d="M20.5962 36.8632L17.0709 40.4422C16.9884 40.5266 16.8899 40.5939 16.7812 40.6401C16.6724 40.6863 16.5557 40.7105 16.4375 40.7113C16.3194 40.7121 16.2023 40.6896 16.093 40.6449C15.9836 40.6003 15.8842 40.5344 15.8004 40.4511L12.1767 36.8722C12.0826 36.7926 12.0058 36.6944 11.9514 36.5838C11.8969 36.4732 11.8659 36.3525 11.8603 36.2294C11.8547 36.1062 11.8746 35.9832 11.9188 35.8681C11.9629 35.753 12.0304 35.6483 12.117 35.5605C12.2035 35.4727 12.3073 35.4037 12.4218 35.3579C12.5362 35.3121 12.6589 35.2905 12.7822 35.2943C12.9054 35.2982 13.0265 35.3275 13.1379 35.3804C13.2492 35.4333 13.3485 35.5086 13.4294 35.6016L16.4267 38.5543L19.3257 35.6106C19.4052 35.5164 19.5034 35.4397 19.614 35.3852C19.7246 35.3308 19.8453 35.2998 19.9685 35.2941C20.0916 35.2885 20.2146 35.3084 20.3297 35.3526C20.4448 35.3968 20.5496 35.4642 20.6374 35.5508C20.7252 35.6374 20.7941 35.7411 20.8399 35.8556C20.8857 35.9701 20.9074 36.0928 20.9035 36.216C20.8996 36.3392 20.8703 36.4603 20.8175 36.5717C20.7646 36.6831 20.6893 36.7823 20.5962 36.8632Z" fill="black"/>
</svg>
