<svg width="58" height="58" viewBox="0 0 58 58" fill="none" xmlns="http://www.w3.org/2000/svg">
<path d="M30.5483 9.56176C34.8272 9.49005 38.1499 10.3984 40.3969 14.3187C46.0383 28.3745 25.8631 35.6414 25.0503 35.9282H25.0264C25.0264 35.9282 24.4288 39.7529 30.2136 39.6095C37.3371 39.6095 44.7953 34.0876 47.6638 31.7211C48.357 31.1713 49.361 31.2191 49.9825 31.8645L52.11 34.0876C52.7076 34.733 52.7315 35.737 52.1578 36.4063C50.3172 38.486 45.9666 42.741 39.4168 45.466C39.4168 45.466 28.4925 50.5577 21.13 45.7529C16.7555 42.8844 15.5364 39.4422 15.0344 35.8804C15.0344 35.8804 9.70374 35.5936 6.28542 34.2788C2.8432 32.9163 6.30933 28.8765 6.30933 28.8765C6.30933 28.8765 7.36112 27.1792 9.36908 28.8765C11.3531 30.5737 15.1061 29.8087 15.1061 29.8087C15.4408 27.1553 15.9906 23.6653 17.64 19.984C21.0583 12.2869 26.2933 9.65738 30.5483 9.56176ZM33.0583 17.3068C30.8113 15.1315 24.2854 19.4821 24.0224 29.4741C24.0224 29.4741 25.9587 30.0478 30.1897 27.1314C34.4686 24.1912 35.2814 19.506 33.0344 17.3068H33.0583Z" fill="#FF5722"/>
</svg>
