<svg width="47" height="47" viewBox="0 0 47 47" fill="none" xmlns="http://www.w3.org/2000/svg">
<path d="M31.0588 25.4871L45.0013 24.1072C45.175 25.9887 44.9745 27.8859 44.4114 29.6895C43.8483 31.4931 42.9337 33.1674 41.7204 34.6158C40.5072 36.0642 39.0192 37.2582 37.3423 38.1288C35.6654 38.9994 33.8327 39.5295 31.95 39.6884C29.5674 39.897 27.1705 39.5077 24.9764 38.5559C22.7823 37.6041 20.8603 36.1198 19.3848 34.2376C17.9092 32.3554 16.9266 30.1348 16.526 27.7769C16.1254 25.419 16.3195 22.9985 17.0907 20.7345C17.8619 18.4706 19.1858 16.4349 20.9425 14.8119C22.6991 13.1889 24.833 12.0299 27.1507 11.4399C29.4685 10.8498 31.8968 10.8475 34.2157 11.433C36.5346 12.0185 38.6707 13.1734 40.4305 14.793L35.5434 20.0826C34.476 19.104 33.1378 18.4706 31.7042 18.2656C30.2707 18.0605 28.8086 18.2933 27.5096 18.9335C26.2106 19.5737 25.1354 20.5913 24.4247 21.8531C23.714 23.1149 23.4011 24.5619 23.5269 26.0046C23.6707 27.6432 24.3893 29.1668 25.5105 30.3455C26.2292 31.1217 28.3853 32.7315 30.6276 32.7028C32.9274 32.6453 35.1697 31.9841 36.5783 30.3742C36.5783 30.3742 38.8781 27.6144 38.5331 24.9697M7.68701 25.3721L1.9375 25.4009M6.24963 31.1504H10.5618M4.81226 19.6801L10.5618 19.6226" stroke="#7DC4E4" stroke-width="2.87476" stroke-linecap="round" stroke-linejoin="round"/>
</svg>
