<svg width="64" height="64" viewBox="0 0 64 64" fill="none" xmlns="http://www.w3.org/2000/svg">
<path d="M52.2499 16.7993C52.6841 16.1526 52.9154 15.391 52.9143 14.612C52.9143 12.4405 51.1537 10.6806 48.9829 10.6806C48.2038 10.6794 47.4422 10.9108 46.7954 11.3451C42.5586 8.2253 37.3251 6.38062 31.6595 6.38062C17.5458 6.38062 6.10547 17.8216 6.10547 31.9347C6.10547 46.0484 17.5464 57.4888 31.6595 57.4888C45.772 57.4888 57.2136 46.048 57.2136 31.9347C57.2136 26.2697 55.3688 21.0361 52.2492 16.7988L52.2499 16.7993ZM48.3477 48.6227C46.1798 50.7906 43.6557 52.4926 40.8456 53.6812C37.9374 54.9112 34.847 55.535 31.6602 55.535C28.4733 55.535 25.3828 54.9112 22.4746 53.6812C19.6645 52.4926 17.1405 50.7908 14.9725 48.6227C12.8044 46.4547 11.1025 43.9307 9.91401 41.1206C8.68385 38.2124 8.06011 35.1218 8.06011 31.9349C8.06011 28.748 8.68385 25.6576 9.91389 22.7494C11.1024 19.9393 12.8043 17.4153 14.9724 15.2473C17.1404 13.0792 19.6644 11.3773 22.4745 10.1888C25.3828 8.95863 28.4733 8.33489 31.6602 8.33489C34.847 8.33489 37.9374 8.95863 40.8456 10.1887C42.4881 10.8829 44.0462 11.762 45.4898 12.8088C45.2012 13.3661 45.0509 13.9846 45.0515 14.6122C45.0515 16.7837 46.8116 18.5436 48.9829 18.5436C49.6332 18.5436 50.2458 18.3848 50.7862 18.1053C51.8332 19.5487 52.7122 21.1068 53.4063 22.7494C54.6365 25.6576 55.2602 28.748 55.2602 31.9349C55.2602 35.1218 54.6365 38.2124 53.4063 41.1206C52.2177 43.9307 50.5159 46.4548 48.3477 48.6227Z" fill="#448AFF"/>
<path d="M31.6594 43.729C38.1732 43.729 43.4536 38.4486 43.4536 31.9348C43.4536 25.4211 38.1732 20.1406 31.6594 20.1406C25.1457 20.1406 19.8652 25.4211 19.8652 31.9348C19.8652 38.4486 25.1457 43.729 31.6594 43.729Z" fill="#448AFF"/>
</svg>
