<svg width="338" height="287" viewBox="0 0 338 287" fill="none" xmlns="http://www.w3.org/2000/svg">
<path d="M311.597 238.031C311.525 238.031 312.646 233.142 312.75 232.839C313.974 229.365 318.394 223.363 322.521 223.474C323.207 223.511 323.877 223.692 324.488 224.005C325.1 224.319 325.638 224.758 326.068 225.293C326.498 225.829 326.81 226.45 326.984 227.114C327.157 227.779 327.189 228.473 327.076 229.151C326.702 232.036 324.039 234.445 321.646 235.813C318.832 237.419 311.605 238.031 311.597 238.031Z" fill="#263238"/>
<path d="M312.057 218.14C311.985 218.14 313.83 213.465 313.981 213.187C315.722 209.927 320.993 204.664 325.055 205.404C325.727 205.544 326.362 205.825 326.918 206.227C327.475 206.629 327.94 207.144 328.284 207.738C328.629 208.332 328.844 208.991 328.916 209.674C328.989 210.357 328.916 211.047 328.704 211.7C327.909 214.506 324.896 216.47 322.344 217.464C319.299 218.633 312.065 218.14 312.057 218.14Z" fill="#263238"/>
<path d="M317.241 196.03C317.161 196.03 319.006 191.356 319.157 191.077C320.898 187.826 326.177 182.563 330.239 183.294C330.911 183.436 331.546 183.717 332.102 184.12C332.659 184.523 333.124 185.039 333.467 185.634C333.811 186.228 334.025 186.889 334.096 187.572C334.167 188.255 334.094 188.946 333.88 189.599C333.085 192.397 330.072 194.369 327.52 195.363C324.483 196.523 317.241 196.03 317.241 196.03Z" fill="#263238"/>
<path d="M321.112 174.947C321.032 174.947 322.877 170.272 323.028 169.986C324.769 166.734 330.048 161.471 334.11 162.211C334.782 162.351 335.417 162.632 335.974 163.034C336.53 163.436 336.995 163.951 337.34 164.545C337.684 165.139 337.899 165.798 337.971 166.481C338.044 167.164 337.972 167.854 337.759 168.507C336.964 171.313 333.943 173.277 331.399 174.271C328.354 175.432 321.112 174.947 321.112 174.947Z" fill="#263238"/>
<path d="M319.469 156.622C319.389 156.622 319.938 151.645 320.009 151.335C320.804 147.733 324.525 141.262 328.643 140.904C329.328 140.863 330.014 140.967 330.656 141.209C331.298 141.45 331.883 141.824 332.371 142.306C332.859 142.788 333.24 143.368 333.49 144.007C333.739 144.646 333.851 145.331 333.819 146.016C333.819 148.934 331.434 151.629 329.192 153.259C326.584 155.151 319.469 156.622 319.469 156.622Z" fill="#263238"/>
<path d="M309.593 237.49C309.664 237.49 308.869 232.545 308.798 232.243C307.804 228.689 303.789 222.409 299.663 222.25C298.976 222.242 298.295 222.379 297.665 222.652C297.035 222.925 296.469 223.328 296.005 223.834C295.54 224.341 295.188 224.939 294.97 225.591C294.753 226.242 294.675 226.932 294.742 227.616C294.925 230.526 297.429 233.102 299.727 234.62C302.414 236.409 309.585 237.49 309.593 237.49Z" fill="#263238"/>
<path d="M311.772 215.373C311.852 215.373 310.309 210.603 310.182 210.301C308.656 206.938 303.734 201.341 299.632 201.81C298.952 201.907 298.301 202.146 297.72 202.512C297.138 202.878 296.641 203.361 296.259 203.932C295.877 204.503 295.62 205.148 295.504 205.825C295.388 206.501 295.416 207.195 295.586 207.86C296.206 210.706 299.076 212.877 301.572 214.03C304.514 215.389 311.764 215.373 311.772 215.373Z" fill="#263238"/>
<path d="M316.7 194.528C316.771 194.528 315.237 189.758 315.11 189.464C313.591 186.101 308.67 180.504 304.568 180.973C303.888 181.069 303.236 181.307 302.655 181.672C302.073 182.037 301.575 182.52 301.193 183.09C300.81 183.66 300.552 184.304 300.435 184.98C300.318 185.656 300.344 186.35 300.513 187.015C301.141 189.869 304.003 192.032 306.507 193.192C309.441 194.544 316.692 194.528 316.7 194.528Z" fill="#263238"/>
<path d="M320.303 175.13C320.383 175.13 318.84 170.359 318.713 170.057C317.187 166.702 312.274 161.106 308.163 161.575C307.484 161.671 306.832 161.909 306.251 162.273C305.67 162.638 305.172 163.122 304.79 163.692C304.409 164.262 304.151 164.906 304.035 165.582C303.919 166.259 303.947 166.952 304.117 167.617C304.737 170.471 307.607 172.633 310.111 173.786C313.045 175.145 320.303 175.13 320.303 175.13Z" fill="#263238"/>
<path d="M319.315 157.218C319.395 157.218 317.344 152.631 317.177 152.353C315.293 149.172 309.791 144.156 305.76 145.078C305.095 145.248 304.474 145.557 303.936 145.984C303.398 146.411 302.956 146.947 302.64 147.556C302.323 148.165 302.139 148.834 302.098 149.52C302.058 150.205 302.163 150.891 302.405 151.534C303.336 154.292 306.42 156.137 309.036 157.003C312.105 158.029 319.315 157.218 319.315 157.218Z" fill="#263238"/>
<path d="M314.976 141.365C315.039 141.365 315.333 136.381 315.317 136.063C315.103 132.374 312.535 125.378 308.536 124.336C307.867 124.182 307.173 124.17 306.5 124.301C305.826 124.433 305.188 124.704 304.626 125.099C304.064 125.493 303.592 126.002 303.24 126.591C302.887 127.18 302.663 127.836 302.581 128.518C302.136 131.404 304.028 134.457 305.944 136.468C308.194 138.758 314.968 141.357 314.976 141.365Z" fill="#263238"/>
<path d="M310.946 264.743C310.946 264.743 310.684 262.636 310.366 258.979C310.048 255.322 309.682 250.091 309.515 243.803C309.427 240.623 309.396 237.252 309.459 233.642C309.459 231.83 309.555 230.017 309.626 228.077C309.69 227.139 309.761 226.193 309.825 225.231C309.889 224.269 310.048 223.283 310.151 222.298C310.695 218.284 311.457 214.303 312.433 210.372C313.41 206.358 314.523 202.327 315.613 198.304C316.702 194.281 317.775 190.259 318.618 186.26C319.475 182.355 320.052 178.393 320.343 174.406C320.548 170.673 320.42 166.93 319.961 163.22C319.585 159.858 319.009 156.521 318.236 153.227C317.537 150.182 316.718 147.431 315.97 145.006C315.223 142.582 314.452 140.499 313.816 138.789C312.52 135.371 311.638 133.479 311.638 133.479C311.638 133.479 312.56 135.355 313.927 138.742C314.611 140.435 315.398 142.51 316.225 144.919C317.052 147.328 317.91 150.071 318.673 153.116C319.532 156.386 320.198 159.705 320.669 163.053C321.216 166.801 321.429 170.589 321.305 174.374C321.092 178.416 320.596 182.438 319.818 186.411C319.023 190.465 318.069 194.536 317.06 198.59C316.05 202.645 314.993 206.707 314.11 210.682C313.234 214.571 312.57 218.504 312.123 222.464C312.043 223.426 311.9 224.341 311.868 225.311C311.836 226.281 311.773 227.227 311.725 228.165C311.725 229.977 311.669 231.854 311.685 233.626C311.685 237.196 311.805 240.567 311.964 243.675C312.258 249.9 312.759 255.076 313.132 258.685C313.506 262.295 313.824 264.33 313.824 264.33C313.852 264.518 313.842 264.71 313.795 264.895C313.749 265.08 313.666 265.253 313.553 265.406C313.439 265.559 313.296 265.688 313.133 265.786C312.969 265.883 312.788 265.948 312.6 265.975C312.411 266.003 312.219 265.993 312.034 265.947C311.85 265.9 311.676 265.818 311.523 265.704C311.37 265.59 311.241 265.448 311.144 265.284C311.046 265.121 310.982 264.94 310.954 264.751V264.743H310.946Z" fill="#263238"/>
<path d="M302.105 256.531H321.925V260.633H320.2L316.622 283.021H307.416L303.831 260.633H302.105V256.531Z" fill="#263238" stroke="#263238" stroke-linecap="round" stroke-linejoin="round"/>
<path d="M171.511 271.501C171.511 271.501 170.827 275.532 171.328 276.438C171.829 277.344 172.632 278.537 172.632 278.537H178.944L179.286 276.589C180.156 277.555 181.225 278.323 182.418 278.839C184.096 279.435 185.718 278.839 187.681 278.99C189.343 279.117 193.246 278.99 193.246 278.99L193.135 276.883L181.743 271.779L177.664 268.599C177.664 268.599 174.087 271.827 171.511 271.501Z" fill="#263238" stroke="#263238" stroke-linecap="round" stroke-linejoin="round"/>
<path d="M124.493 271.501C124.493 271.501 125.574 274.784 125.177 275.683C124.779 276.581 124.127 278.537 124.127 278.537H117.823L117.266 276.589C116.499 277.56 115.509 278.331 114.381 278.839C112.79 279.435 111.073 278.839 109.133 278.99C107.488 279.117 103.568 278.99 103.568 278.99L103.457 276.883L114.293 271.779L118.594 269.394C118.594 269.394 121.949 271.827 124.493 271.501Z" fill="#263238" stroke="#263238" stroke-linecap="round" stroke-linejoin="round"/>
<path d="M174.916 116.505C174.916 116.505 177.524 150.262 178.43 166.4C179.336 182.539 179.758 189.861 179.861 201.222C179.964 212.583 180.465 235.034 180.465 243.469C180.474 252.08 179.913 260.682 178.788 269.219L171.163 273.282C171.163 273.282 168.699 251.626 167.705 243.866C166.807 236.846 163.523 208.282 162.037 199.449C160.55 190.616 153.777 159.905 153.777 159.905C153.777 159.905 144.737 192.127 142.4 204.998C140.063 217.869 131.27 246.895 129.386 253.955C127.501 261.015 124.496 271.485 124.496 271.485C123.437 271.796 122.324 271.883 121.229 271.739C120.737 271.701 120.263 271.542 119.847 271.277C119.431 271.013 119.087 270.65 118.844 270.221C118.844 270.221 121.062 249.09 121.976 238.818C123.113 226.098 123.471 209.212 124.854 202.144C126.237 195.076 126.19 181.537 127.796 172.45C128.71 167.291 133.361 117.928 133.361 117.928C133.361 117.928 159.151 128.367 174.916 116.505Z" fill="#263238" stroke="#263238" stroke-linecap="round" stroke-linejoin="round"/>
<path d="M178.782 269.219L172.844 274.037" stroke="white" stroke-width="0.5" stroke-linecap="round" stroke-linejoin="round"/>
<path d="M118.602 269.378L123.316 272.996" stroke="white" stroke-width="0.5" stroke-linecap="round" stroke-linejoin="round"/>
<path d="M157.668 127.866L157.191 147.551L160.53 144.22" stroke="white" stroke-width="0.5" stroke-linecap="round" stroke-linejoin="round"/>
<path d="M155.582 159.333L165.067 147.535" stroke="white" stroke-width="0.5" stroke-linecap="round" stroke-linejoin="round"/>
<path d="M167.703 148.393L159.793 156.153" stroke="white" stroke-width="0.5" stroke-linecap="round" stroke-linejoin="round"/>
<path d="M149.94 149.26C147.493 143.843 143.311 139.395 138.055 136.619" stroke="white" stroke-width="0.5" stroke-linecap="round" stroke-linejoin="round"/>
<path d="M162.001 122.54L161.548 124.845L157.859 125.704L158.281 122.834" stroke="white" stroke-width="0.5" stroke-linecap="round" stroke-linejoin="round"/>
<path d="M157.86 125.704C157.86 125.704 150.951 125.418 147.445 124.265L148.185 121.967" stroke="white" stroke-width="0.5" stroke-linecap="round" stroke-linejoin="round"/>
<path d="M144.989 121.395L144.29 124.265C144.29 124.265 138.812 123.979 137.93 123.12" stroke="white" stroke-width="0.5" stroke-linecap="round" stroke-linejoin="round"/>
<path d="M161.547 124.821C163.427 124.766 165.269 124.276 166.929 123.39L169.433 121.951L168.463 119.94" stroke="white" stroke-width="0.5" stroke-linecap="round" stroke-linejoin="round"/>
<path d="M178.315 50.4479C178.315 50.4479 183.308 54.7807 184.802 57.6427C186.297 60.5048 205.918 100.51 205.838 103.245C205.759 105.979 202.857 111.195 197.737 111.195C192.617 111.195 173.211 80.0144 173.211 80.0144L178.315 50.4479Z" fill="white"/>
<mask id="mask0_2106_6654" style="mask-type:luminance" maskUnits="userSpaceOnUse" x="173" y="50" width="33" height="62">
<path d="M178.315 50.448C178.315 50.448 183.308 54.7808 184.802 57.6429C186.297 60.5049 205.918 100.51 205.838 103.245C205.759 105.98 202.857 111.195 197.737 111.195C192.617 111.195 173.211 80.0145 173.211 80.0145L178.315 50.448Z" fill="white"/>
</mask>
<g mask="url(#mask0_2106_6654)">
<g style="mix-blend-mode:multiply" opacity="0.5">
<path d="M178.928 55.2498L179.262 55.4326C179.85 55.7745 181.17 56.5456 182.617 57.5076C184.252 58.7617 185.742 60.1936 187.061 61.7768C187.061 61.7768 185.264 57.0068 182.633 54.7251C181.17 53.4677 179.808 52.096 178.562 50.6228L178.928 55.2498Z" fill="#157B6C"/>
</g>
</g>
<path d="M178.315 50.4479C178.315 50.4479 183.308 54.7807 184.802 57.6427C186.297 60.5048 205.918 100.51 205.838 103.245C205.759 105.979 202.857 111.195 197.737 111.195C192.617 111.195 173.211 80.0144 173.211 80.0144L178.315 50.4479Z" stroke="#263238" stroke-linecap="round" stroke-linejoin="round"/>
<path opacity="0.5" d="M190.82 92.2815C190.16 91.4865 185.255 83.592 184.754 80.6425C184.254 77.693 185.549 73.9167 185.549 71.9451C185.549 69.9734 182.433 75.3875 182.266 74.7355C182.099 74.0836 180.135 67.0239 180.135 67.0239L174.117 74.8071L173.219 80.0303C173.219 80.0303 180.819 92.2338 187.767 101.368C192.712 99.7784 200.178 97.3536 201.784 96.3837C204.272 94.913 191.48 93.1083 190.82 92.2815Z" fill="#157B6C"/>
<path d="M154.344 45.0417L178.346 50.4478C178.346 50.4478 180.015 62.7467 179.824 69.393C179.634 76.0393 174.689 117.141 174.689 117.141C174.689 117.141 161.968 130.116 133.412 117.936C133.412 117.936 132.418 116.02 132.044 101.694C131.686 87.567 121.065 61.3316 121.916 58.3423C123.665 52.2128 144.669 46.3217 147.428 46.1548C149.755 45.9335 152.065 45.5618 154.344 45.0417Z" fill="white" stroke="#263238" stroke-linecap="round" stroke-linejoin="round"/>
<g style="mix-blend-mode:multiply" opacity="0.5">
<path d="M156.517 117.07L134.535 108.452L138.335 66.6979L163.338 78.4005L178.324 71.6588L167.608 115.233L156.517 117.07Z" fill="#8ABDB5"/>
</g>
<g style="mix-blend-mode:multiply" opacity="0.5">
<path d="M163.021 52.2526C164.047 52.2526 173.531 54.1527 178.921 55.2498C178.611 52.4354 178.341 50.4797 178.341 50.4797L154.339 45.0736C152.061 45.5963 149.75 45.9707 147.423 46.1946C144.664 46.3615 123.66 52.2526 121.911 58.3821C121.633 59.3759 122.603 62.9057 124.042 67.6996C126.14 62.2856 128.017 57.8256 128.661 57.1975C130.108 55.7506 144.561 51.9982 144.561 51.9982L163.021 52.2526Z" fill="#157B6C"/>
</g>
<path d="M160.862 57.3168L157.563 64.6945L164.797 115.814L159.494 122.969L154.462 117.133L155.869 65.3464L149.207 57.5712L153.468 49.5098L160.862 57.3168Z" fill="#263238"/>
<path d="M186.427 73.8371L167.195 84.5062L142.462 71.5634L138.543 108.094L163.037 119.9L181.585 108.738L186.427 73.8371Z" fill="#157B6C" stroke="#263238" stroke-linecap="round" stroke-linejoin="round"/>
<path d="M166.461 92.7107L167.192 86.8435" stroke="#263238" stroke-width="0.5" stroke-linecap="round" stroke-linejoin="round"/>
<path d="M163.035 119.9L166.056 95.9305" stroke="#263238" stroke-width="0.5" stroke-linecap="round" stroke-linejoin="round"/>
<path d="M156.581 42.9907C156.581 42.9907 160.914 42.9907 162.798 45.8527C164.682 48.7147 168.299 60.0278 168.299 60.0278L155.261 56.3628L147.359 64.5275C147.359 64.5275 140.116 53.7949 143.066 46.9816C146.015 40.1684 156.581 42.9907 156.581 42.9907Z" fill="white" stroke="#263238" stroke-linecap="round" stroke-linejoin="round"/>
<g style="mix-blend-mode:multiply" opacity="0.5">
<path d="M164.118 48.5001C163.745 47.5859 163.304 46.701 162.798 45.8527C160.914 42.9509 156.581 42.9907 156.581 42.9907C156.581 42.9907 146.031 40.1684 143.066 46.9657C142.112 49.1679 142.271 51.7835 142.82 54.3116C143.336 52.9601 144.505 50.2491 146 48.7466C148.019 46.7272 148.258 48.4842 148.258 48.4842L159.563 47.5858C161.06 47.9875 162.582 48.2929 164.118 48.5001Z" fill="#157B6C"/>
</g>
<path d="M158.44 36.408C158.44 36.408 159.172 51.4496 157.272 54.415C155.371 57.3804 153.209 56.2435 151.627 54.415C150.045 52.5865 148.256 48.5001 148.256 48.5001L146.324 37.3699C146.324 37.3699 157.582 39.4449 158.44 36.408Z" fill="white" stroke="#263238" stroke-linecap="round" stroke-linejoin="round"/>
<g style="mix-blend-mode:multiply" opacity="0.5">
<path d="M154.362 48.5002C155.999 48.031 157.453 47.0709 158.528 45.7494C158.528 44.8987 158.528 44.056 158.528 43.2372C156.676 41.1145 152.422 37.1076 147.684 38.3956C147.279 38.5069 146.889 38.6341 146.531 38.7613L148.248 48.5002C148.248 48.5002 150.045 52.6183 151.619 54.415L150.029 47.3156C150.584 47.8759 151.276 48.2804 152.037 48.4884C152.798 48.6963 153.599 48.7004 154.362 48.5002Z" fill="#157B6C"/>
</g>
<path d="M165.069 22.7258C165.069 22.7258 167.247 22.5668 167.295 26.2C167.343 29.8332 165.204 32.886 163.733 31.6219C162.263 30.3579 164.664 21.0721 165.069 22.7258Z" fill="white" stroke="#263238" stroke-linecap="round" stroke-linejoin="round"/>
<path d="M150.117 3.91589C140.203 6.25322 137.548 12.661 137.627 18.4646C137.627 20.6827 138.653 24.5226 140.012 28.5692L139.837 28.2035C139.837 28.2035 136.856 23.0041 136.419 26.1285C135.982 29.2529 138.931 32.4886 139.909 33.5301C140.18 33.7801 140.53 33.9279 140.899 33.9482C141.267 33.9685 141.631 33.86 141.928 33.6414C143.9 38.4115 146.102 42.6807 147.541 43.8414C150.658 46.3616 155.038 47.6575 158.52 44.6364C162.002 41.6154 165.445 24.3875 165.445 24.3875C166.272 6.96078 160.031 1.59445 150.117 3.91589Z" fill="white"/>
<mask id="mask1_2106_6654" style="mask-type:luminance" maskUnits="userSpaceOnUse" x="136" y="3" width="30" height="44">
<path d="M150.117 3.91589C140.203 6.25322 137.548 12.661 137.627 18.4646C137.627 20.6827 138.653 24.5226 140.012 28.5692L139.837 28.2035C139.837 28.2035 136.856 23.0041 136.419 26.1285C135.982 29.2529 138.931 32.4886 139.909 33.5301C140.18 33.7801 140.53 33.9279 140.899 33.9482C141.267 33.9685 141.631 33.86 141.928 33.6414C143.9 38.4115 146.102 42.6807 147.541 43.8414C150.658 46.3616 155.038 47.6575 158.52 44.6364C162.002 41.6154 165.445 24.3875 165.445 24.3875C166.272 6.96078 160.031 1.59445 150.117 3.91589Z" fill="white"/>
</mask>
<g mask="url(#mask1_2106_6654)">
<g style="mix-blend-mode:multiply" opacity="0.5">
<path d="M144.838 22.2648C144.838 22.2648 148.296 19.3789 151.763 19.3789C155.229 19.3789 162.448 22.5589 163.306 25.1507C163.831 26.7407 163.211 31.8685 162.63 35.7641C164.3 30.2785 165.477 24.4113 165.477 24.4113C166.272 6.9926 160.023 1.61037 150.117 3.9477C140.211 6.28504 137.548 12.6928 137.627 18.4964C137.627 20.7145 138.653 24.5544 140.012 28.601L139.837 28.2353C139.837 28.2353 136.856 23.0359 136.419 26.1603C135.982 29.2847 138.931 32.5204 139.909 33.5619C140.18 33.8119 140.53 33.9597 140.899 33.98C141.267 34.0003 141.631 33.8918 141.928 33.6732C143.9 38.4433 146.102 42.7125 147.541 43.8732C147.541 43.8732 144.226 36.4081 143.073 33.236C141.92 30.0639 142.238 24.5465 144.838 22.2648Z" fill="#157B6C"/>
</g>
</g>
<path d="M150.117 3.91589C140.203 6.25322 137.548 12.661 137.627 18.4646C137.627 20.6827 138.653 24.5226 140.012 28.5692L139.837 28.2035C139.837 28.2035 136.856 23.0041 136.419 26.1285C135.982 29.2529 138.931 32.4886 139.909 33.5301C140.18 33.7801 140.53 33.9279 140.899 33.9482C141.267 33.9685 141.631 33.86 141.928 33.6414C143.9 38.4115 146.102 42.6807 147.541 43.8414C150.658 46.3616 155.038 47.6575 158.52 44.6364C162.002 41.6154 165.445 24.3875 165.445 24.3875C166.272 6.96078 160.031 1.59445 150.117 3.91589Z" stroke="#263238" stroke-linecap="round" stroke-linejoin="round"/>
<path d="M161.769 29.4595C161.272 30.206 160.502 30.7277 159.625 30.9121C158.748 31.0965 157.833 30.9289 157.078 30.4453" stroke="#263238" stroke-linecap="round" stroke-linejoin="round"/>
<path d="M151.191 30.509C150.694 31.2556 149.924 31.7773 149.047 31.9617C148.17 32.1461 147.255 31.9784 146.5 31.4948" stroke="#263238" stroke-linecap="round" stroke-linejoin="round"/>
<path d="M151.698 28.108C150.417 27.4649 149.03 27.0583 147.604 26.9075C145.712 26.828 143.852 28.3703 143.852 28.3703" stroke="#263238" stroke-linecap="round" stroke-linejoin="round"/>
<path d="M156.259 36.1377C156.191 36.6208 155.937 37.0581 155.55 37.3555C155.164 37.6529 154.676 37.7866 154.192 37.7277C153.686 37.7431 153.186 37.6183 152.747 37.3671C152.307 37.116 151.946 36.7483 151.703 36.3047" stroke="#263238" stroke-linecap="round" stroke-linejoin="round"/>
<path d="M157.929 39.9775C157.929 39.9775 153.286 41.3609 150.305 40.1604C150.694 40.8606 151.227 41.471 151.868 41.9517C152.509 42.4325 153.244 42.773 154.025 42.9509C155.79 43.4199 157.929 39.9775 157.929 39.9775Z" fill="#263238"/>
<path d="M162.35 26.0172C162.35 26.0172 160.609 25.8661 158.964 25.882C157.453 25.882 155.951 27.8457 155.951 27.8457L155.418 30.2307" stroke="#263238" stroke-linecap="round" stroke-linejoin="round"/>
<path d="M148.027 17.439C151.632 20.4582 155.572 23.0537 159.769 25.1744C166.606 28.593 171.853 21.9944 168.649 18.7507C165.445 15.5071 172.823 22.3124 173.984 18.2419C175.144 14.1715 164.523 0.203098 153.854 0.00434496C143.185 -0.194408 140.601 6.49165 140.601 6.49165C140.601 6.49165 139.345 3.04924 138.399 4.94932C137.849 5.98343 137.534 7.12634 137.477 8.29632C137.477 8.29632 135.314 9.88635 134.36 10.8324C133.406 11.7785 134.631 12.7802 134.631 12.7802C134.631 12.7802 132.723 17.5503 133.74 21.2312L139.218 29.1813C139.879 29.1599 140.526 28.9867 141.109 28.6751C141.692 28.3636 142.196 27.922 142.581 27.3846C144.012 25.5083 142.962 19.657 142.962 19.657C142.962 19.657 143.05 25.9535 144.727 24.5702C146.405 23.1869 143.932 17.0335 143.932 17.0335L148.027 17.439Z" fill="#263238"/>
<path d="M143.262 10.9358C143.262 10.9358 148.143 14.6087 151.673 17.9637C155.203 21.3186 160.585 22.6066 162.183 21.8672" stroke="white" stroke-width="0.5" stroke-miterlimit="10" stroke-linecap="round"/>
<path d="M158.344 15.5547C158.344 15.5547 151.348 13.9647 149.703 10.9277C148.057 7.8908 142.961 8.24856 142.961 8.24856C144.234 7.07467 145.787 6.24757 147.472 5.84663C149.156 5.44569 150.915 5.48436 152.581 5.95892" stroke="white" stroke-width="0.5" stroke-miterlimit="10" stroke-linecap="round"/>
<path d="M140.609 12.4382C140.609 12.4382 146.079 20.6825 142.629 23.2186" stroke="white" stroke-width="0.5" stroke-miterlimit="10" stroke-linecap="round"/>
<path d="M121.916 58.3503C121.916 58.3503 107.074 98.8165 107.757 103.332C108.441 107.848 116.232 106.051 118.689 105.439C121.145 104.827 130.614 89.801 130.677 86.5653C131.289 86.1827 131.813 85.6743 132.213 85.074C132.613 84.4736 132.881 83.795 132.999 83.0832C133.579 80.4755 133.977 71.158 130.208 64.1698" fill="white"/>
<mask id="mask2_2106_6654" style="mask-type:luminance" maskUnits="userSpaceOnUse" x="107" y="58" width="27" height="49">
<path d="M121.916 58.3503C121.916 58.3503 107.074 98.8165 107.757 103.332C108.441 107.848 116.232 106.051 118.689 105.439C121.145 104.827 130.614 89.801 130.677 86.5653C131.289 86.1827 131.813 85.6743 132.213 85.074C132.613 84.4736 132.881 83.795 132.999 83.0832C133.579 80.4755 133.977 71.158 130.208 64.1698" fill="white"/>
</mask>
<g mask="url(#mask2_2106_6654)">
<g style="mix-blend-mode:multiply" opacity="0.5">
<path d="M121.916 58.3503C121.916 58.3503 107.074 98.8165 107.757 103.332C108.139 105.805 110.651 106.377 113.243 106.298C115.055 101.186 115.763 91.8442 117.123 87.2172C118.625 82.0417 123.522 68.6457 126.504 61.6019L121.916 58.3503Z" fill="#157B6C"/>
</g>
</g>
<path d="M121.916 58.3503C121.916 58.3503 107.074 98.8165 107.757 103.332C108.441 107.848 116.232 106.051 118.689 105.439C121.145 104.827 130.614 89.801 130.677 86.5653C131.289 86.1827 131.813 85.6743 132.213 85.074C132.613 84.4736 132.881 83.795 132.999 83.0832C133.579 80.4755 133.977 71.158 130.208 64.1698" stroke="#263238" stroke-linecap="round" stroke-linejoin="round"/>
<path d="M133.138 99.6353C133.138 99.6353 114.057 98.4745 111.609 98.2758C109.16 98.077 106.226 101.456 108.532 106.131C110.837 110.805 114.502 111.075 119.002 110.225C123.502 109.374 133.44 103.308 133.44 103.308L133.138 99.6353Z" fill="white"/>
<mask id="mask3_2106_6654" style="mask-type:luminance" maskUnits="userSpaceOnUse" x="107" y="98" width="27" height="13">
<path d="M133.13 99.6353C133.13 99.6353 114.049 98.4745 111.601 98.2758C109.152 98.077 106.219 101.456 108.524 106.131C110.83 110.805 114.495 111.075 118.994 110.225C123.494 109.374 133.432 103.308 133.432 103.308L133.13 99.6353Z" fill="white"/>
</mask>
<g mask="url(#mask3_2106_6654)">
<path opacity="0.5" d="M133.13 99.6353C133.13 99.6353 114.049 98.4745 111.601 98.2758C109.152 98.077 106.219 101.456 108.524 106.131C110.83 110.805 114.495 111.075 118.994 110.225C123.494 109.374 133.432 103.308 133.432 103.308L133.13 99.6353Z" fill="#157B6C" stroke="#263238" stroke-linecap="round" stroke-linejoin="round"/>
</g>
<path d="M133.138 99.6353C133.138 99.6353 114.057 98.4745 111.609 98.2758C109.16 98.077 106.226 101.456 108.532 106.131C110.837 110.805 114.502 111.075 119.002 110.225C123.502 109.374 133.44 103.308 133.44 103.308L133.138 99.6353Z" stroke="#263238" stroke-linecap="round" stroke-linejoin="round"/>
<path d="M136.181 94.9844C136.181 94.9844 138.645 92.3688 139.297 92.4245C139.949 92.4801 144.735 92.2178 145.141 93.3387C145.546 94.4597 144.902 93.9668 144.242 94.3404C143.582 94.7141 140.307 95.1355 140.307 95.1355C140.307 95.1355 143.129 95.366 143.98 95.8669C144.83 96.3677 148.432 99.6909 148.416 100.343C148.4 100.995 147.963 101.138 147.088 101.138C146.214 101.138 146.858 101.766 146.619 102.394C146.381 103.022 144.656 102.887 144.656 102.887C144.656 102.887 144.807 105.065 143.503 104.954C142.199 104.843 139.862 103.141 139.862 103.141C139.862 103.141 135.036 104.906 133.303 104.771C132.164 104.72 131.033 104.975 130.027 105.51C131.485 101.687 133.564 98.1302 136.181 94.9844Z" fill="white"/>
<mask id="mask4_2106_6654" style="mask-type:luminance" maskUnits="userSpaceOnUse" x="130" y="92" width="19" height="14">
<path d="M136.181 94.9846C136.181 94.9846 138.645 92.3691 139.297 92.4247C139.949 92.4804 144.735 92.218 145.141 93.339C145.546 94.4599 144.902 93.967 144.242 94.3407C143.582 94.7143 140.307 95.1357 140.307 95.1357C140.307 95.1357 143.129 95.3663 143.98 95.8671C144.83 96.368 148.432 99.6911 148.416 100.343C148.4 100.995 147.963 101.138 147.088 101.138C146.214 101.138 146.858 101.766 146.619 102.394C146.381 103.022 144.656 102.887 144.656 102.887C144.656 102.887 144.807 105.065 143.503 104.954C142.199 104.843 139.862 103.141 139.862 103.141C139.862 103.141 135.036 104.906 133.303 104.771C132.164 104.72 131.033 104.975 130.027 105.511C131.485 101.687 133.564 98.1305 136.181 94.9846Z" fill="white"/>
</mask>
<g mask="url(#mask4_2106_6654)">
<g style="mix-blend-mode:multiply" opacity="0.5">
<path d="M136.181 94.9846C133.571 98.1088 131.492 101.641 130.027 105.439C131.033 104.904 132.164 104.648 133.303 104.7C133.873 104.709 134.441 104.648 134.996 104.517C135.342 102.997 135.546 101.448 135.608 99.8899C135.608 97.5764 139.297 92.4247 139.297 92.4247C138.637 92.3691 136.181 94.9846 136.181 94.9846Z" fill="#8ABDB5"/>
</g>
</g>
<path d="M136.181 94.9844C136.181 94.9844 138.645 92.3688 139.297 92.4245C139.949 92.4801 144.735 92.2178 145.141 93.3387C145.546 94.4597 144.902 93.9668 144.242 94.3404C143.582 94.7141 140.307 95.1355 140.307 95.1355C140.307 95.1355 143.129 95.366 143.98 95.8669C144.83 96.3677 148.432 99.6909 148.416 100.343C148.4 100.995 147.963 101.138 147.088 101.138C146.214 101.138 146.858 101.766 146.619 102.394C146.381 103.022 144.656 102.887 144.656 102.887C144.656 102.887 144.807 105.065 143.503 104.954C142.199 104.843 139.862 103.141 139.862 103.141C139.862 103.141 135.036 104.906 133.303 104.771C132.164 104.72 131.033 104.975 130.027 105.51C131.485 101.687 133.564 98.1302 136.181 94.9844Z" stroke="#263238" stroke-linecap="round" stroke-linejoin="round"/>
<path d="M147.087 101.066L142.833 97.6875L139.367 97.1866" stroke="#263238" stroke-linecap="round" stroke-linejoin="round"/>
<path d="M144.646 102.815L139.932 100.263L137.77 99.8738" stroke="#263238" stroke-linecap="round" stroke-linejoin="round"/>
<path d="M188.427 91.7647C188.427 91.7647 185.962 89.157 185.31 89.2047C184.658 89.2524 179.872 89.006 179.467 90.119C179.061 91.232 179.705 90.7471 180.365 91.1287C181.651 91.5005 182.968 91.7533 184.301 91.8839C184.301 91.8839 181.478 92.1145 180.628 92.6233C179.777 93.1321 176.176 96.4473 176.191 97.0913C176.207 97.7352 176.645 97.8863 177.519 97.8863C178.394 97.8863 177.75 98.5143 177.988 99.1424C178.227 99.7705 179.952 99.6274 179.952 99.6274C179.952 99.6274 179.801 101.806 181.105 101.702C182.408 101.599 184.746 99.8897 184.746 99.8897C184.746 99.8897 189.572 101.655 191.305 101.48C192.444 101.427 193.576 101.685 194.58 102.227C193.117 98.4257 191.038 94.891 188.427 91.7647Z" fill="white" stroke="#263238" stroke-linecap="round" stroke-linejoin="round"/>
<path d="M177.52 97.8466L181.765 94.4757L185.231 93.9749" stroke="#263238" stroke-linecap="round" stroke-linejoin="round"/>
<path d="M179.953 99.5955L184.668 97.0514L186.83 96.6539" stroke="#263238" stroke-linecap="round" stroke-linejoin="round"/>
<path d="M191.266 95.7238C191.266 95.7238 199.446 94.7857 202.253 96.8925C205.059 98.9992 204.59 104.366 204.59 104.366" stroke="#263238" stroke-linecap="round" stroke-linejoin="round"/>
<path d="M126.637 268.718C126.637 268.718 127.511 266.977 130.302 267.327C133.092 267.677 134.841 270.992 132.917 272.033C130.993 273.075 126.637 268.718 126.637 268.718Z" fill="#92E3A9" stroke="#263238" stroke-linecap="round" stroke-linejoin="round"/>
<path d="M130.763 187.754C130.763 187.754 137.33 189.074 140.486 191.173C143.642 193.271 144.159 193.796 144.946 198.002C145.733 202.207 142.847 213.497 142.847 219.276C142.847 225.056 138.642 260.251 138.642 263.153C138.642 266.055 141.535 272.081 141.273 274.18C141.162 275.689 141.34 277.206 141.798 278.648C141.798 278.648 143.634 279.96 141.273 280.238C138.912 280.516 138.642 280.763 136.543 279.713C134.444 278.664 133.363 273.409 131.55 271.835C129.737 270.26 128.664 268.424 128.664 267.104C128.664 265.785 132.862 260.808 132.862 260.808C132.862 260.808 132.337 253.454 132.067 247.149C131.797 240.845 128.887 226.924 128.887 220.914C128.887 214.904 132.862 200.689 132.862 200.689C132.862 200.689 122.662 201.937 118.687 199.314C114.712 196.69 119.212 185.131 130.763 187.754Z" fill="white" stroke="#263238" stroke-linecap="round" stroke-linejoin="round"/>
<path d="M131.55 271.803C131.55 271.803 126.78 267.708 126.637 268.75C126.493 269.791 126.462 278.004 126.811 278.87C127.161 279.737 136.582 280.619 141.471 281.494C146.361 282.369 144.437 279.22 143.387 278.521C142.338 277.821 131.55 271.803 131.55 271.803Z" fill="#92E3A9" stroke="#263238" stroke-linecap="round" stroke-linejoin="round"/>
<path opacity="0.2" d="M131.55 271.803C131.55 271.803 126.78 267.708 126.637 268.75C126.493 269.791 126.462 278.004 126.811 278.87C127.161 279.737 136.582 280.619 141.471 281.494C146.361 282.369 144.437 279.22 143.387 278.521C142.338 277.821 131.55 271.803 131.55 271.803Z" fill="black"/>
<path d="M132.914 276.43C133.869 275.285 134.986 274.286 136.229 273.464C137.706 272.415 139.364 271.647 141.119 271.198L143.384 275.555C141.822 275.924 140.303 276.457 138.853 277.145C137.752 277.812 136.753 278.634 135.887 279.586C135.887 279.586 133.264 277.829 132.914 276.43Z" fill="#263238" stroke="#263238" stroke-linecap="round" stroke-linejoin="round"/>
<path d="M137.634 271.548C137.413 271.576 137.201 271.648 137.009 271.761C136.818 271.874 136.652 272.025 136.521 272.204C136.39 272.384 136.297 272.588 136.247 272.805C136.198 273.021 136.194 273.246 136.235 273.464C136.41 275.213 136.584 280.794 137.284 280.969C137.984 281.144 146.705 282.559 149.845 282.71C152.986 282.861 156.476 282.885 156.476 281.319C156.476 279.753 155.951 279.053 155.259 279.053C154.568 279.053 152.986 278.529 150.895 277.312C148.804 276.096 143.74 271.381 142.15 271.206C140.56 271.032 138.508 269.974 137.634 271.548Z" fill="#92E3A9" stroke="#263238" stroke-linecap="round" stroke-linejoin="round"/>
<path opacity="0.2" d="M137.634 271.548C137.413 271.576 137.201 271.648 137.009 271.761C136.818 271.874 136.652 272.025 136.521 272.204C136.39 272.384 136.297 272.588 136.247 272.805C136.198 273.021 136.194 273.246 136.235 273.464C136.41 275.213 136.584 280.794 137.284 280.969C137.984 281.144 146.705 282.559 149.845 282.71C152.986 282.861 156.476 282.885 156.476 281.319C156.476 279.753 155.951 279.053 155.259 279.053C154.568 279.053 152.986 278.529 150.895 277.312C148.804 276.096 143.74 271.381 142.15 271.206C140.56 271.032 138.508 269.974 137.634 271.548Z" fill="black"/>
<path d="M64.4775 279.053C64.4775 278.267 64.2443 277.498 63.8075 276.845C63.3708 276.191 62.7499 275.682 62.0236 275.381C61.2972 275.08 60.498 275.001 59.7269 275.155C58.9558 275.308 58.2475 275.686 57.6916 276.242C57.1357 276.798 56.7571 277.507 56.6037 278.278C56.4503 279.049 56.5291 279.848 56.8299 280.574C57.1308 281.301 57.6403 281.922 58.294 282.358C58.9477 282.795 59.7162 283.028 60.5024 283.028C61.5567 283.028 62.5677 282.609 63.3132 281.864C64.0587 281.119 64.4775 280.107 64.4775 279.053Z" fill="#263238" stroke="#263238" stroke-linecap="round" stroke-linejoin="round"/>
<path d="M60.4992 281.033C61.5969 281.033 62.4868 280.143 62.4868 279.045C62.4868 277.948 61.5969 277.058 60.4992 277.058C59.4016 277.058 58.5117 277.948 58.5117 279.045C58.5117 280.143 59.4016 281.033 60.4992 281.033Z" fill="white" stroke="#263238" stroke-linecap="round" stroke-linejoin="round"/>
<path d="M107.075 279.053C107.075 278.267 106.842 277.498 106.405 276.845C105.968 276.191 105.348 275.682 104.621 275.381C103.895 275.08 103.096 275.001 102.325 275.155C101.553 275.308 100.845 275.686 100.289 276.242C99.7333 276.798 99.3548 277.507 99.2014 278.278C99.048 279.049 99.1267 279.848 99.4276 280.574C99.7284 281.301 100.238 281.922 100.892 282.358C101.545 282.795 102.314 283.028 103.1 283.028C104.154 283.028 105.165 282.609 105.911 281.864C106.656 281.119 107.075 280.107 107.075 279.053Z" fill="#263238" stroke="#263238" stroke-linecap="round" stroke-linejoin="round"/>
<path d="M105.081 279.053C105.081 278.66 104.964 278.276 104.746 277.949C104.527 277.622 104.217 277.367 103.854 277.217C103.49 277.067 103.091 277.027 102.705 277.104C102.32 277.181 101.966 277.37 101.688 277.648C101.41 277.926 101.22 278.28 101.144 278.665C101.067 279.051 101.106 279.451 101.257 279.814C101.407 280.177 101.662 280.487 101.989 280.706C102.316 280.924 102.7 281.041 103.093 281.041C103.62 281.041 104.126 280.831 104.498 280.459C104.871 280.086 105.081 279.58 105.081 279.053Z" fill="white" stroke="#263238" stroke-linecap="round" stroke-linejoin="round"/>
<path d="M120.993 279.053C120.993 278.267 120.76 277.498 120.323 276.845C119.886 276.191 119.266 275.682 118.539 275.381C117.813 275.08 117.014 275.001 116.243 275.155C115.471 275.308 114.763 275.686 114.207 276.242C113.651 276.798 113.273 277.507 113.119 278.278C112.966 279.049 113.045 279.848 113.346 280.574C113.646 281.301 114.156 281.922 114.81 282.358C115.463 282.795 116.232 283.028 117.018 283.028C118.072 283.028 119.083 282.609 119.829 281.864C120.574 281.119 120.993 280.107 120.993 279.053Z" fill="#263238" stroke="#263238" stroke-linecap="round" stroke-linejoin="round"/>
<path d="M119.003 279.053C119.004 278.658 118.888 278.271 118.67 277.942C118.451 277.612 118.139 277.355 117.775 277.203C117.41 277.051 117.008 277.011 116.62 277.088C116.232 277.165 115.876 277.355 115.596 277.634C115.317 277.914 115.126 278.27 115.05 278.658C114.973 279.046 115.013 279.448 115.165 279.813C115.317 280.178 115.574 280.489 115.904 280.708C116.233 280.926 116.62 281.042 117.015 281.041C117.542 281.041 118.048 280.831 118.421 280.459C118.793 280.086 119.003 279.58 119.003 279.053Z" fill="white" stroke="#263238" stroke-linecap="round" stroke-linejoin="round"/>
<path d="M96.9308 210.809H88.5195V274.498H96.9308V210.809Z" fill="#263238" stroke="#263238" stroke-linecap="round" stroke-linejoin="round"/>
<path d="M99.1763 244.089H86.2812V274.498H99.1763V244.089Z" fill="#263238" stroke="#263238" stroke-linecap="round" stroke-linejoin="round"/>
<path d="M59.68 273.297H119.091C119.935 273.297 120.744 273.633 121.34 274.229C121.936 274.825 122.271 275.634 122.271 276.478V276.899H56.5V276.478C56.5 275.634 56.835 274.825 57.4314 274.229C58.0278 273.633 58.8366 273.297 59.68 273.297Z" fill="#263238" stroke="#263238" stroke-linecap="round" stroke-linejoin="round"/>
<path d="M84.1364 186.18H73.3242V203.607H84.1364V186.18Z" fill="#263238" stroke="#263238" stroke-linecap="round" stroke-linejoin="round"/>
<path d="M127.747 201.198H57.6907C54.4723 201.198 51.8633 203.807 51.8633 207.025V208.591C51.8633 211.81 54.4723 214.419 57.6907 214.419H127.747C130.966 214.419 133.575 211.81 133.575 208.591V207.025C133.575 203.807 130.966 201.198 127.747 201.198Z" fill="#157B6C" stroke="#263238" stroke-linecap="round" stroke-linejoin="round"/>
<path d="M133.578 207.804C133.578 206.052 132.882 204.372 131.643 203.133C130.404 201.894 128.724 201.198 126.972 201.198H90.9258C90.0384 201.167 89.1539 201.315 88.325 201.634C87.4961 201.952 86.7398 202.434 86.1012 203.051C85.4625 203.668 84.9546 204.407 84.6077 205.224C84.2608 206.042 84.082 206.92 84.082 207.808C84.082 208.696 84.2608 209.575 84.6077 210.392C84.9546 211.21 85.4625 211.949 86.1012 212.566C86.7398 213.183 87.4961 213.665 88.325 213.983C89.1539 214.301 90.0384 214.45 90.9258 214.419H126.972C128.725 214.417 130.405 213.719 131.644 212.479C132.882 211.238 133.578 209.557 133.578 207.804Z" fill="#157B6C" stroke="#263238" stroke-miterlimit="10"/>
<path d="M100.028 186.188H57.8919C56.9068 186.188 55.9316 185.991 55.0238 185.609C54.116 185.226 53.2941 184.665 52.6064 183.96C51.9188 183.255 51.3794 182.419 51.0201 181.501C50.6607 180.584 50.4887 179.604 50.5142 178.619L51.5557 137.541C51.6014 135.616 52.399 133.784 53.7779 132.44C55.1568 131.095 57.0073 130.344 58.9334 130.346H93.6993C95.4632 130.343 97.1697 130.973 98.5089 132.121C99.8481 133.269 100.731 134.859 100.997 136.603L107.318 177.713C107.476 178.762 107.405 179.833 107.111 180.853C106.818 181.873 106.307 182.817 105.615 183.621C104.923 184.426 104.066 185.072 103.101 185.514C102.137 185.957 101.089 186.187 100.028 186.188Z" fill="#157B6C" stroke="#263238" stroke-linecap="round" stroke-linejoin="round"/>
<path d="M86.2691 212.312L67.793 224.476" stroke="#263238" stroke-linecap="round" stroke-linejoin="round"/>
<path d="M67.0917 222.607L63.9117 224.746C63.6627 224.916 63.4543 225.138 63.3015 225.398C63.1487 225.658 63.0553 225.948 63.028 226.249C63.0006 226.549 63.04 226.851 63.1433 227.134C63.2466 227.417 63.4112 227.674 63.6255 227.886L63.8958 228.141C64.253 228.492 64.7277 228.699 65.2284 228.721C65.729 228.743 66.22 228.579 66.6068 228.26L69.5165 225.875C69.7325 225.696 69.9092 225.475 70.0356 225.224C70.162 224.974 70.2353 224.701 70.251 224.421C70.2667 224.141 70.2244 223.861 70.1267 223.598C70.029 223.335 69.8781 223.095 69.6835 222.894C69.3541 222.549 68.9137 222.331 68.4397 222.278C67.9657 222.226 67.4884 222.343 67.0917 222.607Z" fill="#263238" stroke="#263238" stroke-linecap="round" stroke-linejoin="round"/>
<path d="M89.1523 273.297H107.382C108.225 273.297 109.034 273.633 109.631 274.229C110.227 274.825 110.562 275.634 110.562 276.478V276.899H89.1523V273.297Z" fill="#263238" stroke="#263238" stroke-linecap="round" stroke-linejoin="round"/>
<path d="M103.746 165.017C107.342 165.017 110.257 163.358 110.257 161.312C110.257 159.266 107.342 157.607 103.746 157.607C100.15 157.607 97.2344 159.266 97.2344 161.312C97.2344 163.358 100.15 165.017 103.746 165.017Z" fill="white" stroke="#263238" stroke-linecap="round" stroke-linejoin="round"/>
<path d="M121.865 191.697C121.865 191.697 132.367 192.222 134.736 197.739C135.224 199.629 135.491 201.568 135.531 203.519C135.531 206.405 145.246 262.088 145.508 263.145C145.771 264.202 151.55 272.335 152.337 274.172C153.124 276.008 153.927 277.59 153.927 277.59C153.927 277.59 156.312 278.64 156.034 279.427C155.756 280.214 150.254 280.476 147.893 280.476C145.532 280.476 142.901 274.704 141.326 274.172C139.752 273.639 137.908 271.787 137.908 270.761C137.908 269.736 138.703 262.096 138.703 262.096C137.695 255.863 135.934 249.776 133.456 243.969C129.942 235.964 125.569 224.269 125.045 218.759C124.52 213.25 124.52 207.987 124.52 207.987L117.89 206.93C117.89 206.93 117.095 193.271 121.865 191.697Z" fill="white" stroke="#263238" stroke-linecap="round" stroke-linejoin="round"/>
<path d="M143.215 276.78C143.215 276.78 145.314 268.233 150.72 271.548L152.986 275.38C152.986 275.38 147.929 275.38 146.355 280.27C145.586 279.989 144.898 279.524 144.351 278.915C143.803 278.307 143.413 277.574 143.215 276.78Z" fill="#263238" stroke="#263238" stroke-linecap="round" stroke-linejoin="round"/>
<path d="M100.126 175.749L99.8721 175.789C97.487 166.074 94.2672 156.144 94.2672 156.144C94.2672 156.144 78.4704 160.318 69.3595 157.488C69.3595 157.488 64.7246 180.313 64.7246 186.275C64.7246 191.045 63.7388 195.895 67.3481 198.693C67.6972 199.207 68.1459 199.646 68.6676 199.983C69.1892 200.32 69.7733 200.55 70.3851 200.657C80.2353 202.51 97.2088 201.866 100.039 202.43C102.869 202.994 117.887 206.93 117.887 206.93C117.887 206.93 118.785 198.646 121.329 193.271C123.874 187.897 135.489 188.811 135.489 188.811L100.126 175.749Z" fill="#263238" stroke="#263238" stroke-linecap="round" stroke-linejoin="round"/>
<path d="M96.4827 112.101C96.4827 112.101 94.3044 109.366 91.9511 112.379C89.5979 115.392 91.4662 125.854 92.6269 130.036C93.7876 134.218 113.393 151.565 115.237 152.853C117.081 154.141 141.115 159.571 143.214 158.577C145.312 157.583 145.917 152.551 144.724 149.832C143.532 147.113 121.072 141.341 121.072 141.341L96.4827 112.101Z" fill="white"/>
<mask id="mask5_2106_6654" style="mask-type:luminance" maskUnits="userSpaceOnUse" x="90" y="110" width="56" height="49">
<path d="M96.4905 112.101C96.4905 112.101 94.3122 109.366 91.959 112.379C89.6057 115.392 91.474 125.854 92.6347 130.036C93.7954 134.218 113.4 151.565 115.245 152.853C117.089 154.141 141.123 159.571 143.221 158.577C145.32 157.583 145.924 152.551 144.732 149.832C143.539 147.113 121.08 141.341 121.08 141.341L96.4905 112.101Z" fill="white"/>
</mask>
<g mask="url(#mask5_2106_6654)">
<g style="mix-blend-mode:multiply" opacity="0.5">
<path d="M115.244 152.869C117.089 154.149 141.122 159.587 143.221 158.593C144.429 158.021 145.137 156.097 145.296 154.053C141.583 152.559 137.179 151.549 135.136 151.668C132.17 151.835 134.158 154.602 129.403 153.823C124.649 153.044 119.227 150.643 114.298 147.829C109.369 145.014 100.521 136.698 100.521 136.698L107.461 137.493L99.5508 135.053L106.428 132.469L100.521 132.119C100.899 131.183 101.075 130.178 101.037 129.17C101.037 127.126 97.1419 119.542 97.1419 119.542L93.0078 130.903C95.8937 136.086 113.503 151.653 115.244 152.869Z" fill="#157B6C"/>
</g>
</g>
<path d="M96.4827 112.101C96.4827 112.101 94.3044 109.366 91.9511 112.379C89.5979 115.392 91.4662 125.854 92.6269 130.036C93.7876 134.218 113.393 151.565 115.237 152.853C117.081 154.141 141.115 159.571 143.214 158.577C145.312 157.583 145.917 152.551 144.724 149.832C143.532 147.113 121.072 141.341 121.072 141.341L96.4827 112.101Z" stroke="#263238" stroke-linecap="round" stroke-linejoin="round"/>
<path d="M104.203 134.067L98.8047 136.158L107.884 139.179" stroke="#263238" stroke-width="0.5" stroke-linecap="round" stroke-linejoin="round"/>
<path d="M143.272 149.808C142.578 149.95 141.943 150.299 141.451 150.808C140.958 151.318 140.631 151.964 140.513 152.662C140.044 155.151 142.492 157.273 142.492 157.273C142.492 157.273 147.652 159.046 149.194 154.888C150.737 150.73 145.768 149.649 143.272 149.808Z" fill="white"/>
<mask id="mask6_2106_6654" style="mask-type:luminance" maskUnits="userSpaceOnUse" x="140" y="149" width="10" height="9">
<path d="M143.268 149.808C142.574 149.95 141.939 150.299 141.447 150.808C140.954 151.318 140.628 151.964 140.509 152.662C140.04 155.151 142.489 157.273 142.489 157.273C142.489 157.273 147.648 159.046 149.19 154.888C150.733 150.73 145.764 149.649 143.268 149.808Z" fill="white"/>
</mask>
<g mask="url(#mask6_2106_6654)">
<g style="mix-blend-mode:multiply" opacity="0.5">
<path d="M142.489 157.273C142.489 157.273 146.893 158.776 148.777 155.747C146.189 154.306 143.422 153.213 140.549 152.495C140.532 152.55 140.518 152.606 140.509 152.662C140.04 155.151 142.489 157.273 142.489 157.273Z" fill="#157B6C"/>
</g>
</g>
<path d="M143.272 149.808C142.578 149.95 141.943 150.299 141.451 150.808C140.958 151.318 140.631 151.964 140.513 152.662C140.044 155.151 142.492 157.273 142.492 157.273C142.492 157.273 147.652 159.046 149.194 154.888C150.737 150.73 145.768 149.649 143.272 149.808Z" stroke="#263238" stroke-linecap="round" stroke-linejoin="round"/>
<path d="M158.511 155.556C159.952 155.787 161.28 156.479 162.295 157.528C163.797 159.221 162.573 159.913 161.611 159.666C160.649 159.42 157.485 154.745 158.511 155.556Z" fill="white" stroke="#263238" stroke-linecap="round" stroke-linejoin="round"/>
<path d="M157.507 155.246C158.904 155.675 160.123 156.545 160.982 157.726C162.238 159.603 160.926 160.111 160.012 159.746C159.098 159.38 156.601 154.3 157.507 155.246Z" fill="white" stroke="#263238" stroke-linecap="round" stroke-linejoin="round"/>
<path d="M148.509 151.541C148.509 151.541 146.124 152.416 145.862 153.926C145.819 154.398 145.874 154.873 146.025 155.322C146.175 155.771 146.418 156.184 146.736 156.534C146.736 156.534 149.121 158.442 150.028 158.641C150.934 158.839 152.969 160 153.208 158.895C153.446 157.79 151.029 156.812 151.029 156.812C151.029 156.812 155.649 157.09 155.8 158.021C155.951 158.951 157.62 159.913 159.099 159.937C160.578 159.96 158.789 156.971 158.431 156.224C158.073 155.477 151.467 151.597 148.509 151.541Z" fill="white" stroke="#263238" stroke-linecap="round" stroke-linejoin="round"/>
<path d="M72.7988 104.683C72.7988 104.683 58.2659 113.134 57.1291 113.691C55.9922 114.247 54.8633 122.992 54.8633 123.819C54.8633 124.646 69.3961 157.488 69.3961 157.488C69.3961 157.488 72.9737 160.517 83.444 160.517C93.9143 160.517 94.7252 158.927 94.7252 158.927L95.56 145.07C95.56 145.07 99.1375 135.705 99.4158 134.051C99.694 132.397 96.4822 112.101 96.4822 112.101L81.6154 102.187C81.6154 102.187 75.5574 98.6252 72.7988 104.683Z" fill="white"/>
<mask id="mask7_2106_6654" style="mask-type:luminance" maskUnits="userSpaceOnUse" x="54" y="101" width="46" height="60">
<path d="M72.8027 104.683C72.8027 104.683 58.2698 113.134 57.133 113.691C55.9961 114.247 54.8672 122.992 54.8672 123.819C54.8672 124.646 69.4 157.488 69.4 157.488C69.4 157.488 72.9776 160.517 83.4479 160.517C93.9182 160.517 94.7291 158.927 94.7291 158.927L95.5639 145.07C95.5639 145.07 99.1414 135.705 99.4197 134.051C99.6979 132.397 96.4861 112.101 96.4861 112.101L81.6193 102.187C81.6193 102.187 75.5614 98.6252 72.8027 104.683Z" fill="white"/>
</mask>
<g mask="url(#mask7_2106_6654)">
<g style="mix-blend-mode:multiply" opacity="0.5">
<path d="M58.6117 119.701C59.7486 117.88 70.2109 111.059 70.2109 111.059L74.0747 108.785L79.0276 101.273C77.0401 100.907 74.3847 101.209 72.8027 104.683C72.8027 104.683 58.238 113.134 57.133 113.683C56.0279 114.231 54.8672 122.984 54.8672 123.811C54.8672 123.994 55.5509 125.679 56.6162 128.216C57.0296 124.455 57.8167 120.973 58.6117 119.701Z" fill="#157B6C"/>
</g>
</g>
<path d="M72.7988 104.683C72.7988 104.683 58.2659 113.134 57.1291 113.691C55.9922 114.247 54.8633 122.992 54.8633 123.819C54.8633 124.646 69.3961 157.488 69.3961 157.488C69.3961 157.488 72.9737 160.517 83.444 160.517C93.9143 160.517 94.7252 158.927 94.7252 158.927L95.56 145.07C95.56 145.07 99.1375 135.705 99.4158 134.051C99.694 132.397 96.4822 112.101 96.4822 112.101L81.6154 102.187C81.6154 102.187 75.5574 98.6252 72.7988 104.683Z" stroke="#263238" stroke-linecap="round" stroke-linejoin="round"/>
<path d="M77.6714 117.793L81.9089 122.364L81.0264 141.802L87.2275 143.44L87.8794 134.949L90.1611 143.766L94.7324 139.195L84.8504 122.038L86.1542 116.815L80.605 110.614L77.0195 119.105" fill="#263238"/>
<path d="M77.6714 117.793L81.9089 122.364L81.0264 141.802L87.2275 143.44L87.8794 134.949L90.1611 143.766L94.7324 139.195L84.8504 122.038L86.1542 116.815L80.605 110.614L77.0195 119.105" stroke="#263238" stroke-linecap="round" stroke-linejoin="round"/>
<path d="M69.9609 104.731C69.9609 104.731 70.8673 110.781 72.0757 113.476C73.2841 116.171 76.011 120.742 76.011 120.742L81.7589 114.987L87.5148 118.962C87.5148 118.962 86.9106 108.976 84.7879 104.437C82.6652 99.8972 72.3778 95.3497 69.9609 104.731Z" fill="white" stroke="#263238" stroke-linecap="round" stroke-linejoin="round"/>
<g style="mix-blend-mode:multiply" opacity="0.5">
<path d="M74.0711 108.786L79.8191 100.04C78.7699 99.5809 77.6474 99.3117 76.5039 99.2454C75.5181 99.4441 74.4051 99.6906 73.2284 99.9529C71.7895 100.748 70.5969 102.243 69.9609 104.723C69.9609 104.723 70.4141 107.776 71.1137 110.519L74.0711 108.786Z" fill="#157B6C"/>
</g>
<path d="M84.185 102.91C83.4068 104.624 82.9952 106.482 82.9765 108.364C82.9765 111.385 83.5807 114.724 83.5807 116.235V120.774C83.5807 120.774 79.9475 116.235 77.2206 112.904C74.4937 109.573 72.379 106.544 72.6811 103.825C72.9832 101.106 75.7101 90.5003 75.7101 90.5003C77.1505 90.4873 78.5659 90.8772 79.7965 91.626C81.0271 92.3747 82.0239 93.4525 82.6744 94.7377C85.0913 99.2773 84.185 102.91 84.185 102.91Z" fill="white" stroke="#263238" stroke-linecap="round" stroke-linejoin="round"/>
<g style="mix-blend-mode:multiply" opacity="0.5">
<path d="M74.7526 97.6474L73.8463 98.0846C73.2898 100.47 72.7969 102.751 72.6776 103.825C72.3835 106.448 74.3472 109.39 76.931 112.57L77.2569 106.313L84.1815 102.934L78.6164 97.4407L74.7526 97.6474Z" fill="#157B6C"/>
</g>
<path d="M90.0654 99.6588C90.0654 99.6588 88.0619 103.371 90.2244 103.523C92.3868 103.674 91.9178 101.821 92.2278 101.209C92.5379 100.597 93.9291 102.004 93.158 104.914C92.3868 107.824 88.5231 109.859 86.2016 107.537C83.8802 105.216 84.5082 102.767 85.2794 100.899C86.0506 99.0307 89.1591 98.1164 90.0654 99.6588Z" fill="#263238" stroke="#263238" stroke-linecap="round" stroke-linejoin="round"/>
<path d="M85.7258 66.8407C85.0501 66.7453 84.3425 66.6737 83.6111 66.6339C80.9478 66.4988 78.046 66.6737 75.971 68.3353C71.6621 71.7856 72.3855 78.7181 72.6956 83.5439C73.0454 89.0215 72.9738 97.0114 77.084 100.978C84.0245 107.672 94.8764 100.509 94.8764 92.5752C94.8764 89.2202 95.0036 84.1083 95.2262 82.9635C95.5161 81.5493 95.7153 80.118 95.8225 78.6784C96.2995 71.3722 92.1575 67.7549 85.7258 66.8407Z" fill="white" stroke="#263238" stroke-linecap="round" stroke-linejoin="round"/>
<g style="mix-blend-mode:multiply" opacity="0.5">
<path d="M88.2844 102.41C86.3425 102.382 84.4042 102.234 82.4808 101.964C79.5313 101.511 75.437 96.7332 77.4802 90.1426C79.5234 83.5519 79.5313 80.1334 79.5313 80.1334L72.575 75.7847C72.4154 78.3705 72.458 80.9648 72.7022 83.544C73.052 89.0216 72.9804 97.0115 77.0906 100.979C80.4615 104.238 84.7545 104.206 88.2844 102.41Z" fill="#157B6C"/>
</g>
<path d="M84.3418 87.9879C84.7764 87.9879 85.1288 87.3829 85.1288 86.6364C85.1288 85.89 84.7764 85.2849 84.3418 85.2849C83.9071 85.2849 83.5547 85.89 83.5547 86.6364C83.5547 87.3829 83.9071 87.9879 84.3418 87.9879Z" fill="#263238"/>
<path d="M92.1101 86.9704C92.0624 87.7177 91.6649 88.2981 91.2356 88.2663C90.8063 88.2345 90.4883 87.6144 90.536 86.8671C90.5837 86.1197 90.9733 85.5394 91.4105 85.5712C91.8478 85.603 92.1578 86.2231 92.1101 86.9704Z" fill="#263238"/>
<path d="M81.9023 83.4007C81.9023 83.4007 83.4924 80.0458 86.0444 81.6278L81.9023 83.4007Z" fill="white"/>
<path d="M81.9023 83.4007C81.9023 83.4007 83.4924 80.0458 86.0444 81.6278" stroke="#263238" stroke-linecap="round" stroke-linejoin="round"/>
<path d="M90.1875 82.2162C90.1875 82.2162 92.0717 80.0537 93.1449 83.5995L90.1875 82.2162Z" fill="white"/>
<path d="M90.1875 82.2162C90.1875 82.2162 92.0717 80.0537 93.1449 83.5995" stroke="#263238" stroke-linecap="round" stroke-linejoin="round"/>
<path d="M88.9572 89.3236C88.9572 89.4588 88.9572 89.5939 88.9572 89.7132C89.156 91.0965 90.1418 92.0982 89.7522 92.6706C89.3627 93.243 87.3672 93.4656 87.3672 93.4656" fill="white"/>
<path d="M88.9572 89.3236C88.9572 89.4588 88.9572 89.5939 88.9572 89.7132C89.156 91.0965 90.1418 92.0982 89.7522 92.6706C89.3627 93.243 87.3672 93.4656 87.3672 93.4656" stroke="#263238" stroke-linecap="round" stroke-linejoin="round"/>
<path d="M86.6334 96.6218C86.6334 96.6218 83.1592 97.6951 81.8633 94.8887L86.6334 96.6218Z" fill="white"/>
<path d="M86.6334 96.6218C86.6334 96.6218 83.1592 97.6951 81.8633 94.8887" stroke="#263238" stroke-linecap="round" stroke-linejoin="round"/>
<path d="M83.6684 89.9437C85.9252 89.9437 87.7548 88.1142 87.7548 85.8574C87.7548 83.6005 85.9252 81.771 83.6684 81.771C81.4116 81.771 79.582 83.6005 79.582 85.8574C79.582 88.1142 81.4116 89.9437 83.6684 89.9437Z" stroke="#263238" stroke-width="0.5" stroke-linecap="round" stroke-linejoin="round"/>
<path d="M92.9111 89.9437C94.9352 89.9437 96.5761 88.1142 96.5761 85.8574C96.5761 83.6005 94.9352 81.771 92.9111 81.771C90.887 81.771 89.2461 83.6005 89.2461 85.8574C89.2461 88.1142 90.887 89.9437 92.9111 89.9437Z" stroke="#263238" stroke-width="0.5" stroke-linecap="round" stroke-linejoin="round"/>
<path d="M79.5776 85.8574L73.7422 86.1039" stroke="#263238" stroke-width="0.5" stroke-linecap="round" stroke-linejoin="round"/>
<path d="M96.5806 85.8574H95.0859" stroke="#263238" stroke-width="0.5" stroke-linecap="round" stroke-linejoin="round"/>
<path d="M87.7461 84.6091H89.4395" stroke="#263238" stroke-width="0.5" stroke-linecap="round" stroke-linejoin="round"/>
<path d="M92.9344 62.015C89.8837 61.4822 86.7995 61.1634 83.7043 61.0609C83.7043 61.0609 78.2903 58.5089 70.9841 61.3789C60.5297 65.4653 60.7603 79.4257 63.352 88.3219C64.147 91.009 66.0153 95.0875 64.2981 97.7826C63.2169 99.4839 60.1243 98.5776 60.5933 96.2402C61.0624 93.9029 61.8256 94.6979 62.4457 94.3878C63.0658 94.0778 62.1357 93.7677 60.7444 93.3066C59.3531 92.8455 58.1367 94.1016 57.9618 97.1624C57.5007 105.51 69.7996 111.035 74.4901 103.737C76.3982 100.557 74.7048 95.0318 73.878 91.017C73.6155 89.6272 73.4376 88.2227 73.3453 86.8114C74.8295 86.6692 76.2059 85.9739 77.2011 84.8636C77.938 83.8536 78.5668 82.7691 79.0774 81.6279C79.6339 81.6279 80.2142 81.6677 80.8502 81.7313C87.2103 82.3673 89.1343 71.5392 89.1343 71.5392C89.1343 71.5392 92.3143 77.5892 93.2683 79.8232L94.2223 82.0493C94.2223 82.0493 96.7743 82.3673 99.3184 76.9532C101.862 71.5392 98.9845 62.9928 92.9344 62.015Z" fill="#263238" stroke="#263238" stroke-linecap="round" stroke-linejoin="round"/>
<path d="M88.7695 68.9951C88.7695 68.9951 96.5925 71.6823 96.831 76.3251C97.0695 80.968 95.8531 81.2065 95.8531 81.2065" stroke="white" stroke-width="0.5" stroke-miterlimit="10" stroke-linecap="round"/>
<path d="M87.8008 67.2859C87.8008 67.2859 95.1229 65.5766 97.5715 70.4659" stroke="white" stroke-width="0.5" stroke-miterlimit="10" stroke-linecap="round"/>
<path d="M78.7585 62.3965C78.7585 62.3965 86.0805 66.0615 87.3049 69.488C88.5292 72.9145 82.177 79.4972 78.0191 80.7215C73.8612 81.9458 70.6971 80.4751 67.7635 82.6773C64.8299 84.8794 66.0542 90.9772 66.0542 90.9772" stroke="white" stroke-width="0.5" stroke-miterlimit="10" stroke-linecap="round"/>
<path d="M63.8306 84.1402C63.8306 84.1402 61.8749 79.4973 66.0328 77.0566C70.1907 74.6159 73.8478 77.0566 78.4906 74.123C83.1335 71.1894 83.8649 67.5323 83.8649 67.5323" stroke="white" stroke-width="0.5" stroke-miterlimit="10" stroke-linecap="round"/>
<path d="M74.5884 88.3538C74.5884 88.3538 72.0205 82.1129 69.4447 84.3151C66.8688 86.5173 71.2811 92.3924 74.2147 91.661" fill="white"/>
<path d="M74.5884 88.3538C74.5884 88.3538 72.0205 82.1129 69.4447 84.3151C66.8688 86.5173 71.2811 92.3924 74.2147 91.661" stroke="#263238" stroke-linecap="round" stroke-linejoin="round"/>
<g opacity="0.37">
<path d="M74.5884 88.3538C74.5884 88.3538 72.0205 82.1129 69.4447 84.3151C66.8688 86.5173 71.2811 92.3924 74.2147 91.661" fill="#157B6C"/>
<path d="M74.5884 88.3538C74.5884 88.3538 72.0205 82.1129 69.4447 84.3151C66.8688 86.5173 71.2811 92.3924 74.2147 91.661" stroke="#263238" stroke-linecap="round" stroke-linejoin="round"/>
</g>
<path d="M58.9007 114.319C58.9007 114.319 57.6525 113.381 54.8779 115.472C52.1033 117.562 49.5195 127.071 51.2526 131.102C52.9858 135.132 57.6127 156.089 59.7672 157.234C61.9217 158.378 85.0883 158.283 87.8232 157.639C90.558 156.995 92.4661 153.418 92.005 150.325C91.5439 147.232 88.491 146.429 87.5926 146.406C86.6943 146.382 68.242 145.332 68.242 145.332L62.51 121.116" fill="white"/>
<mask id="mask8_2106_6654" style="mask-type:luminance" maskUnits="userSpaceOnUse" x="50" y="114" width="43" height="45">
<path d="M58.8967 114.319C58.8967 114.319 57.6486 113.381 54.874 115.472C52.0994 117.562 49.5156 127.071 51.2487 131.102C52.9819 135.132 57.6088 156.089 59.7633 157.234C61.9178 158.378 85.0844 158.283 87.8193 157.639C90.5541 156.995 92.4622 153.418 92.0011 150.325C91.5399 147.232 88.4871 146.429 87.5887 146.406C86.6904 146.382 68.2381 145.332 68.2381 145.332L62.5061 121.116" fill="white"/>
</mask>
<g mask="url(#mask8_2106_6654)">
<g style="mix-blend-mode:multiply" opacity="0.5">
<path d="M88.5507 152.448C87.231 150.818 66.2268 153.656 63.9848 152.448C61.7429 151.239 60.6617 148.942 62.2994 147.391C63.9371 145.841 59.1671 145.491 59.2068 144.124C59.2466 142.756 61.9814 142.383 61.8065 140.554C61.6316 138.726 55.7246 138.344 55.8677 133.113C56.0108 127.882 57.3226 121.553 58.5072 119.765C59.1632 119.01 59.9172 118.347 60.7491 117.793L58.8967 114.311C58.8967 114.311 57.6486 113.373 54.874 115.464C52.0994 117.555 49.5156 127.071 51.2487 131.102C52.9819 135.132 57.6088 156.089 59.7633 157.234C61.9178 158.378 85.0844 158.283 87.8193 157.639C88.7033 157.356 89.5068 156.866 90.1624 156.209C90.818 155.552 91.3067 154.747 91.5876 153.863C90.1169 153.441 88.9403 152.925 88.5507 152.448Z" fill="#157B6C"/>
</g>
</g>
<path d="M58.9007 114.319C58.9007 114.319 57.6525 113.381 54.8779 115.472C52.1033 117.562 49.5195 127.071 51.2526 131.102C52.9858 135.132 57.6127 156.089 59.7672 157.234C61.9217 158.378 85.0883 158.283 87.8232 157.639C90.558 156.995 92.4661 153.418 92.005 150.325C91.5439 147.232 88.491 146.429 87.5926 146.406C86.6943 146.382 68.242 145.332 68.242 145.332L62.51 121.116" stroke="#263238" stroke-linecap="round" stroke-linejoin="round"/>
<path d="M61.2188 149.8C62.5862 145.778 68.2308 145.698 68.2308 145.698C65.9795 145.108 63.6256 145.024 61.338 145.452" stroke="#263238" stroke-width="0.5" stroke-linecap="round" stroke-linejoin="round"/>
<path d="M91.0013 147.407C90.1659 147.765 89.453 148.359 88.9503 149.116C88.4475 149.872 88.1767 150.76 88.171 151.668C88.0756 154.928 90.2381 155.532 90.7707 155.906C91.3034 156.28 94.5152 158.005 95.8111 156.947C97.107 155.89 98.6334 153.044 97.4011 150.659C96.1689 148.274 92.2653 147.439 91.0013 147.407Z" fill="white"/>
<mask id="mask9_2106_6654" style="mask-type:luminance" maskUnits="userSpaceOnUse" x="88" y="147" width="10" height="11">
<path d="M91.0013 147.407C90.1659 147.765 89.453 148.359 88.9503 149.116C88.4475 149.872 88.1767 150.76 88.171 151.668C88.0756 154.928 90.2381 155.532 90.7707 155.906C91.3034 156.28 94.5152 158.005 95.8111 156.947C97.107 155.89 98.6334 153.044 97.4011 150.659C96.1689 148.274 92.2653 147.439 91.0013 147.407Z" fill="white"/>
</mask>
<g mask="url(#mask9_2106_6654)">
<g style="mix-blend-mode:multiply" opacity="0.5">
<path d="M95.8079 156.947C96.138 156.667 96.4318 156.347 96.6824 155.993L93.9794 154.554C91.4989 153.871 89.1377 153.171 88.5494 152.448C88.447 152.34 88.3182 152.26 88.1758 152.217C88.3268 155 90.2587 155.556 90.7675 155.906C91.2763 156.256 94.512 158.005 95.8079 156.947Z" fill="#92E3A9"/>
</g>
</g>
<path d="M91.0013 147.407C90.1659 147.765 89.453 148.359 88.9503 149.116C88.4475 149.872 88.1767 150.76 88.171 151.668C88.0756 154.928 90.2381 155.532 90.7707 155.906C91.3034 156.28 94.5152 158.005 95.8111 156.947C97.107 155.89 98.6334 153.044 97.4011 150.659C96.1689 148.274 92.2653 147.439 91.0013 147.407Z" stroke="#263238" stroke-linecap="round" stroke-linejoin="round"/>
<path d="M95.4804 150.325C95.4804 150.325 93.5088 151.08 93.2385 152.567C92.9682 154.053 93.0636 154.856 93.4055 154.952C93.7473 155.047 94.8842 155.564 94.8842 155.564L98.3902 157.385C98.3902 157.385 101.173 160.565 102.087 160.819C103.001 161.073 102.214 160.477 102.087 159.785C101.689 158.795 101.174 157.855 100.553 156.987L104.703 160.66C104.703 160.66 106.07 161.153 105.752 160.111C105.434 159.07 103.311 156.931 103.311 156.931L107.231 160.485C107.231 160.485 108.026 160.851 108.026 160.39C108.07 160.159 108.054 159.92 107.979 159.697C107.904 159.474 107.772 159.274 107.596 159.118C107.151 158.76 104.48 155.699 104.48 155.699L108.201 157.981C108.201 157.981 108.996 159.038 109.552 159.054C110.109 159.07 109.791 158.712 109.369 157.464C108.948 156.216 106.118 154.387 105.108 153.672C104.098 152.956 98.581 150.412 95.4804 150.325Z" fill="white" stroke="#263238" stroke-linecap="round" stroke-linejoin="round"/>
<path d="M273.354 149.371H242.301L247.89 131.245H278.943L273.354 149.371Z" fill="#263238" stroke="#263238" stroke-linecap="round" stroke-linejoin="round"/>
<path d="M270.916 151.081H239.871L245.46 132.946H276.505L270.916 151.081Z" fill="white" stroke="#263238" stroke-linecap="round" stroke-linejoin="round"/>
<path d="M226.297 143.901H277.464C278.729 143.901 279.942 144.404 280.837 145.299C281.731 146.193 282.234 147.406 282.234 148.672V162.012H226.297V143.901Z" fill="#263238" stroke="#263238" stroke-linecap="round" stroke-linejoin="round"/>
<path d="M273.074 143.901H217.113V162.036H273.074V143.901Z" fill="white" stroke="#263238" stroke-linecap="round" stroke-linejoin="round"/>
<path d="M260.485 157.17H215.781V159.563H260.485V157.17Z" fill="white" stroke="#263238" stroke-linecap="round" stroke-linejoin="round"/>
<path d="M260.484 154.777H225.32V157.17H260.484V154.777Z" fill="#263238" stroke="#263238" stroke-linecap="round" stroke-linejoin="round"/>
<path d="M215.962 160.271H180.688V161.916H215.962V160.271Z" fill="white" stroke="#263238" stroke-linecap="round" stroke-linejoin="round"/>
<path d="M243.09 102.02H167.055V151.057H243.09V102.02Z" fill="white" stroke="#263238" stroke-linecap="round" stroke-linejoin="round"/>
<path d="M243.088 102.02H171.203V151.057H243.088V102.02Z" fill="#263238" stroke="#263238" stroke-linecap="round" stroke-linejoin="round"/>
<path d="M216.78 124.805H200.141V162.664H216.78V124.805Z" fill="white" stroke="#263238" stroke-linecap="round" stroke-linejoin="round"/>
<path d="M218.315 124.805H201.676V162.664H218.315V124.805Z" fill="#263238" stroke="#263238" stroke-linecap="round" stroke-linejoin="round"/>
<path d="M200.57 125.25H218.705V151.176" stroke="white" stroke-linejoin="round"/>
<path d="M166.526 159.388H115.59V162.052H166.526V159.388Z" fill="white" stroke="#263238" stroke-linecap="round" stroke-linejoin="round"/>
<path d="M179.694 159.388H128.758V162.052H179.694V159.388Z" fill="white" stroke="#263238" stroke-linecap="round" stroke-linejoin="round"/>
<path d="M113.627 166.44H35.5808L31.8761 280.493C31.8556 280.808 31.8983 281.125 32.0016 281.424C32.1049 281.724 32.2666 281.999 32.4775 282.235C32.6884 282.471 32.9442 282.663 33.2299 282.799C33.5157 282.935 33.8257 283.013 34.1418 283.029C34.7266 283.012 35.2837 282.776 35.7032 282.368C36.1227 281.961 36.3741 281.41 36.4076 280.826L43.8569 187.627C43.9514 185.965 44.6649 184.398 45.8567 183.236C47.0486 182.074 48.6325 181.399 50.2965 181.347H98.9115C100.575 181.4 102.158 182.074 103.348 183.237C104.539 184.399 105.251 185.966 105.343 187.627L112.8 280.811C112.834 281.393 113.084 281.942 113.502 282.35C113.92 282.757 114.475 282.994 115.058 283.013C115.374 282.999 115.685 282.922 115.971 282.786C116.257 282.651 116.513 282.46 116.725 282.225C116.936 281.99 117.099 281.715 117.203 281.416C117.307 281.117 117.351 280.8 117.332 280.485L113.627 166.44Z" fill="#157B6C" stroke="#263238" stroke-linecap="round" stroke-linejoin="round"/>
<path d="M113.802 171.687L113.628 166.44H88.0997H61.109H35.5812L35.4062 171.687H113.802Z" fill="#263238" stroke="#263238" stroke-linecap="round" stroke-linejoin="round"/>
<path d="M291.361 166.44H213.291L209.594 280.493C209.575 280.808 209.618 281.124 209.722 281.422C209.826 281.72 209.988 281.995 210.199 282.23C210.41 282.465 210.665 282.656 210.95 282.792C211.235 282.928 211.545 283.005 211.86 283.021C212.443 283.002 212.999 282.765 213.416 282.358C213.834 281.95 214.084 281.401 214.118 280.818L221.591 187.627C221.686 185.965 222.399 184.398 223.591 183.236C224.783 182.074 226.367 181.399 228.031 181.347H276.646C278.309 181.4 279.892 182.074 281.082 183.237C282.273 184.399 282.985 185.966 283.077 187.627L290.535 280.811C290.564 281.396 290.813 281.949 291.231 282.36C291.649 282.771 292.206 283.009 292.792 283.029C293.108 283.013 293.417 282.936 293.702 282.8C293.987 282.664 294.243 282.473 294.454 282.238C294.664 282.003 294.826 281.728 294.93 281.43C295.034 281.132 295.077 280.816 295.058 280.5L291.361 166.44Z" fill="#157B6C" stroke="#263238" stroke-linecap="round" stroke-linejoin="round"/>
<path d="M291.88 171.687L291.713 166.44H266.186H239.187H213.659L213.492 171.687H291.88Z" fill="#263238" stroke="#263238" stroke-linecap="round" stroke-linejoin="round"/>
<path d="M296.505 162.036H29.2539V168.046H296.505V162.036Z" fill="white" stroke="#263238" stroke-linecap="round" stroke-linejoin="round"/>
<path d="M296.515 162.036H104.965V168.046H296.515V162.036Z" fill="white" stroke="#263238" stroke-linecap="round" stroke-linejoin="round"/>
</svg>
