<svg width="61" height="61" viewBox="0 0 61 61" fill="none" xmlns="http://www.w3.org/2000/svg">
<path d="M22.8137 46.4295C22.8137 46.4295 20.5793 47.7297 24.406 48.1684C29.0425 48.6981 31.4119 48.6221 36.52 47.6566C36.52 47.6566 37.8657 48.4979 39.7415 49.2272C28.2865 54.1347 13.8176 48.9427 22.8137 46.4295ZM21.4132 40.0244C21.4132 40.0244 18.9065 41.8801 22.7364 42.2766C27.6893 42.788 31.5999 42.8297 38.3701 41.5267C38.3701 41.5267 39.3042 42.4758 40.7755 42.9942C26.9286 47.044 11.5059 43.3129 21.4132 40.0244Z" fill="#0074BD"/>
<path d="M33.2149 29.1577C36.0389 32.4082 32.4743 35.3307 32.4743 35.3307C32.4743 35.3307 39.6406 31.632 36.3501 26.9983C33.2758 22.679 30.9191 20.5337 43.6786 13.1335C43.6786 13.134 23.6497 18.1348 33.2149 29.1577Z" fill="#EA2D2E"/>
<path d="M48.3644 51.1677C48.3644 51.1677 50.0185 52.5317 46.542 53.5859C39.9321 55.5882 19.0254 56.1919 13.2189 53.666C11.1326 52.7576 15.0464 51.4982 16.2777 51.2324C17.5616 50.9545 18.2946 51.0051 18.2946 51.0051C15.9731 49.3707 3.28951 54.2158 11.853 55.6056C35.2051 59.3909 54.4207 53.9008 48.3644 51.1677ZM23.8921 33.3869C23.8921 33.3869 13.2587 35.9128 20.1269 36.831C23.0273 37.2191 28.8066 37.13 34.1936 36.6782C38.5949 36.3084 43.0116 35.5186 43.0116 35.5186C43.0116 35.5186 41.4611 36.1837 40.338 36.9496C29.5378 39.7905 8.67885 38.4673 14.6846 35.5631C19.7617 33.1075 23.8921 33.3869 23.8921 33.3869ZM42.9676 44.0488C53.9454 38.3459 48.8692 32.8652 45.3262 33.6034C44.46 33.7839 44.0714 33.9409 44.0714 33.9409C44.0714 33.9409 44.3939 33.4351 45.0088 33.2176C52.0176 30.7545 57.4069 40.4842 42.7482 44.338C42.7482 44.3371 42.9165 44.1847 42.9676 44.0488Z" fill="#0074BD"/>
<path d="M36.3454 1.18298C36.3454 1.18298 42.4238 7.26509 30.5788 16.6146C21.0797 24.117 28.4128 28.3936 30.5755 33.2818C25.0301 28.2792 20.9625 23.8746 23.6909 19.7757C27.6975 13.7601 38.7973 10.8424 36.3454 1.18298Z" fill="#EA2D2E"/>
<path d="M24.9688 59.5076C35.5037 60.1812 51.6858 59.1326 52.0687 54.1473C52.0687 54.1473 51.3324 56.0372 43.3613 57.5367C34.3685 59.2297 23.2748 59.0323 16.6973 57.9463C16.6973 57.9468 18.0448 59.0623 24.9688 59.5076Z" fill="#0074BD"/>
</svg>
