<svg width="46" height="47" viewBox="0 0 46 47" fill="none" xmlns="http://www.w3.org/2000/svg">
<g clip-path="url(#clip0_1131_8766)">
<path d="M-0.00390625 0.434814H45.9961V46.4348H-0.00390625V0.434814Z" fill="#F0DB4F"/>
<path d="M42.2308 35.4638C41.8941 33.3649 40.5255 31.6028 36.4721 29.9587C35.0641 29.3115 33.4943 28.8481 33.0264 27.7811C32.8603 27.1602 32.8384 26.8104 32.9433 26.4343C33.2451 25.2144 34.7011 24.834 35.8555 25.1838C36.5989 25.433 37.3029 26.0059 37.727 26.9197C39.7122 25.6342 39.7078 25.6429 41.0939 24.7597C40.5867 23.9726 40.3156 23.6096 39.9833 23.273C38.7895 21.9393 37.1629 21.2528 34.5612 21.3053C34.1108 21.3621 33.6561 21.4233 33.2057 21.4802C31.9071 21.8081 30.6696 22.4903 29.9437 23.4041C27.7662 25.8747 28.3871 30.1992 31.0369 31.9789C33.6473 33.9378 37.4821 34.3838 37.9719 36.2159C38.4485 38.4591 36.3234 39.1849 34.2114 38.927C32.6548 38.6034 31.789 37.8119 30.8532 36.3734C29.1305 37.3703 29.1305 37.3703 27.3596 38.3891C27.7793 39.3074 28.2209 39.7228 28.925 40.5186C32.2569 43.8986 40.5954 43.7325 42.0909 38.6165C42.1521 38.4416 42.5544 37.2697 42.2308 35.4638ZM25.0027 21.5763H20.7C20.7 25.2931 20.6826 28.9836 20.6826 32.7003C20.6826 35.0659 20.805 37.2347 20.4202 37.8994C19.7905 39.2067 18.1596 39.045 17.4162 38.7913C16.6597 38.4197 16.275 37.8906 15.8289 37.1429C15.7065 36.9286 15.6147 36.7625 15.584 36.7494C14.4166 37.4621 13.2534 38.1792 12.0859 38.8919C12.6675 40.0857 13.5245 41.122 14.6221 41.7953C16.2618 42.7792 18.4656 43.0809 20.77 42.5518C22.2698 42.1145 23.5641 41.2094 24.2418 39.8321C25.2213 38.0262 25.0114 35.8398 25.0027 33.4218C25.0245 29.4777 25.0027 25.5336 25.0027 21.5763Z" fill="#323330"/>
</g>
<defs>
<clipPath id="clip0_1131_8766">
<rect width="46" height="46" fill="white" transform="translate(-0.00390625 0.434814)"/>
</clipPath>
</defs>
</svg>
