<svg width="67" height="64" viewBox="0 0 67 64" fill="none" xmlns="http://www.w3.org/2000/svg">
<path d="M10.8686 12.6919C11.2468 12.8081 11.2468 12.8081 11.6207 13.2506C12.3841 13.859 12.9326 13.7729 13.8922 13.7193C14.2343 13.71 14.5764 13.7008 14.9185 13.6917C15.4549 13.6721 15.991 13.6503 16.5272 13.6256C19.5181 13.4973 19.5181 13.4973 20.3499 13.9448C20.6867 14.3065 20.9102 14.6562 21.1468 15.0831C21.3452 15.3356 21.5475 15.5854 21.7533 15.8323C21.9452 16.078 22.1364 16.3241 22.327 16.5706C22.4261 16.6978 22.5253 16.8251 22.6274 16.9562C22.8677 17.2648 23.1075 17.5737 23.3468 17.8831C24.2118 17.7856 24.8532 17.4125 25.5811 16.9862C25.8573 16.8294 26.1335 16.6726 26.4097 16.5159C26.9279 16.2194 27.4443 15.9204 27.959 15.6184C28.3729 15.3759 28.7873 15.135 29.2036 14.8966C29.6154 14.6605 30.0252 14.421 30.4325 14.1779C31.6777 13.47 32.7069 13.0107 34.1634 13.3331C34.9168 13.6313 35.5854 14.0195 36.2718 14.4378C36.6566 14.6616 37.0414 14.8853 37.4262 15.1091C37.6163 15.2218 37.8065 15.3346 38.0023 15.4507C38.8402 15.9471 39.6854 16.4306 40.5343 16.9097C40.6771 16.9933 40.82 17.077 40.9672 17.1632C41.0994 17.2381 41.2316 17.313 41.3679 17.3902C41.482 17.4562 41.596 17.5222 41.7136 17.5901C42.1472 17.7437 42.3551 17.6979 42.7801 17.5331C43.1006 17.1888 43.3816 16.8548 43.6624 16.4831C43.8933 16.1857 44.1243 15.8895 44.3635 15.5982C44.6303 15.2576 44.6303 15.2576 44.8143 14.8336C45.1224 14.2844 45.3435 14.0243 45.8968 13.6831C47.2367 13.4113 48.6515 13.5361 50.0103 13.5847C50.3931 13.5926 50.7759 13.5998 51.1587 13.6062C52.094 13.6235 53.0285 13.6507 53.9634 13.6831C54.0202 13.5712 54.0769 13.4593 54.1353 13.344C54.3301 12.9831 54.3301 12.9831 54.5134 12.8081C55.2961 12.7157 55.9494 12.6753 56.6218 13.0925C56.9626 13.6076 57.0671 13.9478 57.0801 14.5581C56.8282 15.0619 56.576 15.3893 56.1634 15.7831C55.6208 15.9511 55.3099 15.9735 54.7541 15.8378C54.2661 15.5734 54.186 15.3844 53.9634 14.9081C52.9263 14.881 51.8903 14.868 50.8527 14.8675C50.5006 14.8654 50.1485 14.8596 49.7965 14.8499C47.6669 14.7204 47.6669 14.7204 45.8158 15.5392C45.3372 16.0418 44.9721 16.597 44.6134 17.1831C44.4249 17.4327 44.2344 17.681 44.0405 17.9269C43.9271 18.0857 43.8136 18.2445 43.6968 18.4081C44.1663 18.9157 44.7014 19.2045 45.3174 19.534C45.6324 19.7044 45.6324 19.7044 45.9537 19.8782C46.2862 20.0567 46.6189 20.2348 46.9518 20.4126C47.2746 20.5854 47.5965 20.7597 47.9185 20.934C48.1108 21.037 48.3032 21.1399 48.5013 21.246C48.9896 21.5436 49.3569 21.8516 49.7468 22.2581C49.9542 22.0441 50.1601 21.8286 50.3655 21.6128C50.5042 21.4714 50.643 21.3299 50.7859 21.1842C51.2374 20.6918 51.2374 20.6918 51.5321 20.0781C51.9227 19.3657 52.2831 18.7919 53.0468 18.4081C54.6193 18.1178 56.25 18.197 57.842 18.2727C58.3652 18.2817 58.3652 18.2817 58.6775 17.9796C58.7554 17.89 58.8332 17.8004 58.9134 17.7081C59.5788 17.5148 59.8835 17.4739 60.5176 17.7628C61.2575 18.2925 61.2575 18.2925 61.4343 18.8128C61.5007 19.4943 61.2775 19.9057 60.9072 20.4753C60.3348 20.8213 59.7397 20.8144 59.0968 20.6831C58.5468 20.2675 58.5468 20.2675 58.1801 19.8081C58.1801 19.6926 58.1801 19.5771 58.1801 19.4581C55.6257 19.2355 55.6257 19.2355 53.2234 19.8365C52.5616 20.4193 52.1864 21.1594 51.7634 21.9081C51.4904 22.2083 51.2119 22.5041 50.927 22.794C50.1018 23.7715 50.1018 23.7715 50.1134 25.7581C53.1989 25.7581 56.2844 25.7581 59.4634 25.7581C59.5239 25.5849 59.5844 25.4116 59.6468 25.2331C60.1722 24.9465 60.5184 24.8822 61.1249 24.894C61.8242 25.1071 62.0369 25.3253 62.3968 25.9331C62.5263 26.7026 62.492 27.0246 62.0301 27.6722C61.2691 28.1716 60.9246 28.1574 60.0134 28.0331C59.5551 27.7159 59.5551 27.7159 59.2801 27.3331C59.2801 27.1599 59.2801 26.9866 59.2801 26.8081C56.2551 26.8081 53.2301 26.8081 50.1134 26.8081C50.1134 28.3096 50.1134 29.8111 50.1134 31.3581C51.4023 31.3492 52.6908 31.3382 53.9795 31.3218C54.4178 31.3169 54.8562 31.3131 55.2945 31.3107C55.9249 31.3069 56.5551 31.2988 57.1854 31.2897C57.479 31.2894 57.479 31.2894 57.7786 31.2891C58.8353 31.2692 59.4182 31.2294 60.1968 30.4831C60.9147 30.3992 61.4267 30.4422 62.0301 30.8331C62.4784 31.475 62.5292 32.0116 62.3968 32.7581C62.0539 33.1836 61.7952 33.3952 61.2968 33.6331C60.5906 33.708 60.2785 33.6823 59.6697 33.3159C59.2801 32.9331 59.2801 32.9331 59.2801 32.4081C56.2551 32.4081 53.2301 32.4081 50.1134 32.4081C50.1134 34.1406 50.1134 35.8731 50.1134 37.6581C51.3047 37.6532 52.4953 37.6457 53.6863 37.6314C54.0916 37.6273 54.4969 37.6248 54.9022 37.6239C55.4843 37.6223 56.0662 37.6151 56.6483 37.6068C56.8299 37.6075 57.0115 37.6082 57.1987 37.6089C57.6665 37.5994 58.0913 37.5855 58.5468 37.4831C58.9343 37.0748 58.9343 37.0748 59.0968 36.6081C59.682 36.3288 60.2948 36.343 60.9301 36.4331C61.3758 36.7604 61.5976 37.0073 61.8468 37.4831C61.9216 38.126 61.8923 38.4549 61.5603 39.0253C60.969 39.5319 60.6209 39.5961 59.8301 39.5831C59.676 39.4696 59.5219 39.3561 59.3631 39.2391C58.561 38.701 57.6858 38.7776 56.7378 38.7765C56.5481 38.7736 56.3584 38.7707 56.1629 38.7677C55.5596 38.7592 54.9564 38.7555 54.353 38.7519C53.9429 38.7469 53.5328 38.7417 53.1227 38.7361C52.1196 38.7232 51.1166 38.7142 50.1134 38.7081C50.1166 38.8665 50.1166 38.8665 50.1199 39.028C50.1215 39.1679 50.1232 39.3078 50.1249 39.4519C50.127 39.5899 50.1292 39.728 50.1313 39.8702C50.1134 40.2831 50.1134 40.2831 49.997 40.6504C49.8756 41.0449 49.8756 41.0449 50.3147 41.5382C50.4935 41.7487 50.6748 41.9574 50.8582 42.1644C51.0363 42.3711 51.2141 42.578 51.3918 42.7851C51.4846 42.8889 51.5775 42.9928 51.6732 43.0999C51.9468 43.4331 51.9468 43.4331 52.1774 43.8183C52.5639 44.4357 52.8137 44.7758 53.563 44.9601C54.1823 45.0102 54.7858 45.0181 55.4072 45.0081C55.6208 45.0101 55.8345 45.0122 56.0546 45.0143C56.5801 45.0184 57.1047 45.0161 57.6301 45.0081C57.6563 44.8989 57.6826 44.7897 57.7096 44.6772C57.8422 44.2057 57.9302 44.0499 58.3634 43.7831C59.2659 43.672 59.6255 43.6488 60.3801 44.144C60.842 44.7916 60.8763 45.1137 60.7468 45.8831C60.3869 46.4909 60.1742 46.7091 59.4749 46.9222C58.872 46.9339 58.5243 46.8565 57.9968 46.5831C57.9363 46.4676 57.8758 46.3521 57.8134 46.2331C57.662 46.2388 57.5105 46.2445 57.3545 46.2504C52.7601 46.3817 52.7601 46.3817 51.7935 45.6527C51.3356 45.1103 51.0027 44.5742 50.6634 43.9581C50.3643 43.5537 50.0437 43.1665 49.7239 42.7769C49.4864 42.471 49.2494 42.1649 49.0134 41.8581C47.4242 42.5841 45.8958 43.3704 44.389 44.2421C43.7444 44.6125 43.1267 44.9429 42.4134 45.1831C42.7564 45.6248 43.1005 46.0657 43.4447 46.5065C43.5404 46.6298 43.6361 46.7531 43.7347 46.8801C44.2986 47.6012 44.8803 48.2913 45.5139 48.9579C45.7134 49.2081 45.7134 49.2081 45.7134 49.5581C46.7706 49.5504 47.8276 49.5382 48.8846 49.5218C49.2442 49.5169 49.6037 49.5131 49.9633 49.5107C50.4804 49.5069 50.9972 49.4988 51.5142 49.4897C51.6749 49.4895 51.8355 49.4893 52.001 49.4891C52.9135 49.4784 52.9135 49.4784 53.6761 49.036C53.7709 48.9196 53.8657 48.8031 53.9634 48.6831C54.5172 48.4934 54.7945 48.4848 55.3614 48.6394C56.0993 49.0101 56.0993 49.0101 56.3468 49.3831C56.4404 50.175 56.4433 50.5909 56.0832 51.3081C55.4876 51.7518 55.1071 51.756 54.3702 51.7572C53.9634 51.6581 53.9634 51.6581 53.6784 51.3024C52.9924 50.7755 52.3683 50.9047 51.5178 50.9499C51.1718 50.9576 50.8258 50.9646 50.4797 50.9711C49.9372 50.9843 49.3963 51.0016 48.8544 51.0307C45.9248 51.1771 45.9248 51.1771 44.9524 50.5143C44.2485 49.8608 43.7086 49.1195 43.1932 48.3253C42.8622 47.8323 42.4789 47.4003 42.0811 46.955C41.4968 46.2764 41.4968 46.2764 41.4968 45.8831C40.7898 46.2579 40.0833 46.6336 39.377 47.0097C39.1679 47.1208 38.9587 47.232 38.7433 47.3465C37.3804 48.074 36.0428 48.827 34.7292 49.6326C33.9792 49.9978 33.3007 50.1583 32.4633 50.0086C31.0125 49.4243 29.6806 48.6455 28.3367 47.8682C27.9313 47.6338 27.5248 47.4011 27.118 47.1689C26.4713 46.7998 25.8255 46.4293 25.1801 46.0581C23.2181 48.0195 23.2181 48.0195 21.6935 50.2857C21.0752 50.8342 20.3219 50.6933 19.5118 50.6765C19.3335 50.6755 19.1553 50.6745 18.9716 50.6735C18.4018 50.6695 17.8322 50.6608 17.2624 50.6519C16.8763 50.6483 16.4902 50.6452 16.104 50.6423C15.1571 50.6346 14.2103 50.6225 13.2634 50.6081C13.2143 50.7164 13.1651 50.8247 13.1145 50.9362C12.8968 51.3081 12.8968 51.3081 12.3468 51.6581C11.5541 51.7562 11.1923 51.7419 10.5249 51.3081C10.107 50.7278 9.99705 50.414 10.0465 49.7229C10.2407 49.0649 10.6463 48.8312 11.2468 48.5081C11.9114 48.4972 11.9114 48.4972 12.5301 48.6831C12.6285 48.8002 12.7268 48.9174 12.8282 49.0381C13.4942 49.566 14.1382 49.4886 14.9793 49.4897C15.1451 49.4926 15.3109 49.4955 15.4818 49.4985C16.0104 49.507 16.5389 49.5107 17.0676 49.5144C17.4264 49.5193 17.7852 49.5245 18.144 49.5301C19.0227 49.543 19.9013 49.5517 20.7801 49.5581C20.8313 49.4543 20.8825 49.3505 20.9352 49.2436C21.1303 48.8881 21.3351 48.6022 21.5979 48.2907C21.6844 48.1872 21.7709 48.0836 21.8601 47.977C21.9499 47.8707 22.0397 47.7645 22.1322 47.655C22.7603 46.9096 23.3532 46.1623 23.8968 45.3581C23.6905 45.25 23.4841 45.142 23.2716 45.0307C22.9872 44.8811 22.7029 44.7314 22.4186 44.5815C22.2703 44.5034 22.122 44.4253 21.9692 44.3448C20.8634 43.7585 19.7763 43.1476 18.7057 42.5045C18.0525 42.1175 18.0525 42.1175 17.2968 42.0331C16.986 42.3693 16.7116 42.6993 16.4374 43.0612C16.2062 43.3597 15.9743 43.657 15.7369 43.9511C15.4477 44.3177 15.4477 44.3177 15.171 44.7708C14.6622 45.5063 14.309 45.9822 13.39 46.2056C12.6806 46.2507 11.9915 46.248 11.2811 46.2222C10.8025 46.2127 10.3241 46.2086 9.84527 46.2051C9.63475 46.1985 9.42422 46.192 9.20732 46.1852C8.60256 46.2401 8.51611 46.3414 8.1301 46.7581C7.22769 46.8693 6.86806 46.8924 6.11344 46.3972C5.65156 45.7496 5.61722 45.4276 5.74677 44.6581C6.10246 44.0574 6.32285 43.8353 7.00719 43.6081C7.71634 43.6081 8.09433 43.756 8.6801 44.1331C8.80256 44.5029 8.80256 44.5029 8.86344 44.8331C11.4257 45.179 11.4257 45.179 13.847 44.6124C14.4668 44.0683 14.8864 43.4206 15.2719 42.7111C15.4788 42.3568 15.721 42.0529 15.9819 41.733C16.435 41.2244 16.435 41.2244 16.314 40.8296C16.2753 40.707 16.2366 40.5844 16.1968 40.4581C16.1846 40.1521 16.1811 39.8456 16.1853 39.5394C16.187 39.3832 16.1886 39.2271 16.1903 39.0663C16.1925 38.9481 16.1946 38.8299 16.1968 38.7081C15.0091 38.7198 13.8215 38.7355 12.6339 38.754C12.2299 38.7599 11.8259 38.7648 11.4219 38.7687C10.8411 38.7746 10.2605 38.7838 9.67984 38.7936C9.40882 38.7952 9.40882 38.7952 9.13232 38.7969C8.96353 38.8004 8.79474 38.8039 8.62084 38.8074C8.47265 38.8094 8.32446 38.8113 8.17179 38.8133C7.67031 38.899 7.41994 39.1035 7.0301 39.4081C6.3115 39.5568 5.7367 39.5141 5.11656 39.1347C4.73503 38.5665 4.65915 38.1564 4.64677 37.4831C4.88496 36.9147 5.07017 36.68 5.62073 36.3675C6.24753 36.2283 6.59987 36.2379 7.21344 36.4331C7.40121 36.6952 7.40121 36.6952 7.59277 36.9626C7.89148 37.3175 8.04915 37.4636 8.51591 37.5763C8.99543 37.6045 9.46393 37.6012 9.9441 37.5856C10.1178 37.5842 10.2915 37.5827 10.4704 37.5811C11.0235 37.5753 11.5761 37.5621 12.1291 37.5487C12.5047 37.5435 12.8803 37.5387 13.2559 37.5344C14.1754 37.5237 15.0939 37.5032 16.0134 37.4831C16.0739 35.8084 16.1344 34.1336 16.1968 32.4081C13.2323 32.4081 10.2678 32.4081 7.21344 32.4081C7.09244 32.6969 6.97144 32.9856 6.84677 33.2831C6.15918 33.7207 5.8277 33.7269 5.01344 33.6331C4.46968 33.2382 4.17282 32.9351 3.91344 32.3315C3.91344 31.7147 4.12507 31.3522 4.46344 30.8331C5.14363 30.4003 5.49205 30.4157 6.29677 30.4831C6.74365 30.7237 6.74365 30.7237 7.0301 31.0081C7.0301 31.1236 7.0301 31.2391 7.0301 31.3581C10.0551 31.3581 13.0801 31.3581 16.1968 31.3581C16.1968 29.8566 16.1968 28.3551 16.1968 26.8081C13.1113 26.8081 10.0258 26.8081 6.84677 26.8081C6.78627 27.0391 6.72577 27.2701 6.66344 27.5081C6.22114 27.9628 5.94923 28.0304 5.2999 28.1206C4.64677 28.0331 4.64677 28.0331 4.10823 27.6722C3.63234 27.0252 3.59947 26.709 3.7301 25.9331C4.0593 25.4513 4.28974 25.141 4.8301 24.8831C5.34573 24.8284 5.34573 24.8284 5.9301 24.8831C6.04938 24.9975 6.16865 25.112 6.29153 25.2299C7.14541 25.7731 7.97688 25.6887 8.9816 25.6897C9.29096 25.6941 9.29096 25.6941 9.60656 25.6985C10.2641 25.707 10.9215 25.7107 11.5791 25.7144C12.0253 25.7193 12.4716 25.7245 12.9179 25.7301C14.0108 25.743 15.1038 25.752 16.1968 25.7581C16.1766 25.5084 16.1539 25.2589 16.1302 25.0095C16.1178 24.8705 16.1054 24.7316 16.0927 24.5884C15.9608 23.9139 15.5618 23.4847 15.0968 22.98C14.9081 22.7706 14.7197 22.561 14.5317 22.3511C14.4389 22.2482 14.3462 22.1453 14.2506 22.0394C13.9968 21.7331 13.9968 21.7331 13.6509 21.1479C13.2591 20.5185 13.0041 20.1958 12.3468 19.8081C11.0101 19.5515 9.26141 19.4202 7.94677 19.8081C7.62854 20.2341 7.62854 20.2341 7.39677 20.6831C6.80099 20.9675 6.20515 20.9785 5.56344 20.8581C4.8707 20.3183 4.8707 20.3183 4.64677 19.8081C4.58798 19.1741 4.69694 18.627 5.03635 18.069C5.58162 17.7741 6.04086 17.7286 6.66344 17.7081C7.0991 17.907 7.42325 18.0834 7.76344 18.4081C8.13359 18.4058 8.50369 18.3936 8.87346 18.3773C12.8928 18.2827 12.8928 18.2827 13.8428 19.0903C14.2897 19.5918 14.6263 20.1406 14.9324 20.7292C15.1621 21.154 15.4607 21.5139 15.7728 21.8862C15.9127 22.0667 16.0526 22.2472 16.1968 22.4331C16.3577 22.2883 16.5186 22.1435 16.6845 21.9942C17.672 21.1862 18.8152 20.6112 19.9436 20.005C20.1675 19.8834 20.3913 19.7617 20.615 19.6399C21.1583 19.3448 21.7022 19.0509 22.2468 18.7581C22.0132 18.2838 21.759 17.8811 21.416 17.4723C21.3279 17.3664 21.2397 17.2604 21.1489 17.1513C21.0575 17.0427 20.966 16.9341 20.8718 16.8222C20.6902 16.6051 20.5087 16.388 20.3275 16.1707C20.2473 16.0753 20.167 15.9798 20.0844 15.8815C19.8763 15.624 19.6858 15.3537 19.4968 15.0831C18.933 15.0277 18.4069 15.0054 17.8425 15.0072C17.6779 15.0063 17.5133 15.0054 17.3437 15.0044C16.9951 15.0033 16.6465 15.0036 16.2979 15.005C15.7647 15.0065 15.2318 15.0015 14.6986 14.9959C14.3601 14.9957 14.0216 14.9958 13.6831 14.9963C13.5236 14.9943 13.3641 14.9924 13.1998 14.9903C12.2929 14.9901 12.2929 14.9901 11.5349 15.429C11.4398 15.5458 11.3447 15.6627 11.2468 15.7831C10.6985 15.971 10.413 15.9788 9.84885 15.8378C9.34165 15.5702 9.12869 15.4012 8.86344 14.9081C8.74722 14.1455 8.77221 13.811 9.2301 13.169C9.83924 12.7693 10.1528 12.7057 10.8686 12.6919ZM9.96344 13.5081C9.53894 13.9928 9.53894 13.9928 9.65406 14.4925C9.7387 14.8967 9.7387 14.8967 9.96344 15.0831C10.4062 15.1707 10.4062 15.1707 10.8801 15.0831C11.2216 14.6616 11.2216 14.6616 11.4301 14.2081C11.218 13.8407 11.218 13.8407 10.8801 13.5081C10.4139 13.406 10.4139 13.406 9.96344 13.5081ZM54.5134 13.8581C54.4523 14.2956 54.4523 14.2956 54.5134 14.7331C54.8484 15.1267 54.8484 15.1267 55.3384 15.1269C55.8285 15.1267 55.8285 15.1267 56.1634 14.7331C56.2246 14.2956 56.2246 14.2956 56.1634 13.8581C55.8285 13.4645 55.8285 13.4645 55.3384 13.4644C54.8484 13.4645 54.8484 13.4645 54.5134 13.8581ZM31.7944 14.9847C31.6241 15.0822 31.4537 15.1798 31.2782 15.2803C31.0959 15.3885 30.9137 15.4966 30.7259 15.6081C30.3293 15.8364 29.9326 16.0645 29.5357 16.2924C29.3311 16.4111 29.1265 16.5298 28.9157 16.652C27.931 17.2185 26.9337 17.7637 25.9364 18.3097C25.5405 18.5274 25.1447 18.7453 24.749 18.9632C24.0132 19.3678 23.2771 19.7719 22.5407 20.1754C22.1045 20.4145 21.6685 20.6538 21.2324 20.8932C20.926 21.0613 20.6193 21.229 20.3125 21.3967C18.6926 22.1446 18.6926 22.1446 17.4801 23.3081C17.4582 23.8267 17.4474 24.3413 17.4447 24.8601C17.4432 25.0209 17.4417 25.1817 17.4402 25.3473C17.4356 25.881 17.4326 26.4146 17.43 26.9482C17.429 27.1302 17.428 27.3122 17.427 27.4998C17.4221 28.463 17.4186 29.4262 17.4159 30.3894C17.4129 31.3851 17.4047 32.3808 17.3953 33.3765C17.3892 34.1414 17.387 34.9063 17.386 35.6712C17.3848 36.0383 17.382 36.4053 17.3776 36.7724C17.3718 37.2861 17.3718 37.7995 17.3731 38.3132C17.3701 38.465 17.3671 38.6167 17.364 38.7731C17.3723 39.54 17.3993 39.837 17.9188 40.455C18.3542 40.7767 18.7714 41.053 19.254 41.3051C19.4186 41.3922 19.5831 41.4794 19.7527 41.5692C19.9291 41.6609 20.1056 41.7527 20.2874 41.8472C20.6695 42.0495 21.0514 42.2521 21.4332 42.4549C21.6291 42.5587 21.8251 42.6625 22.0269 42.7694C22.9512 43.2638 23.8652 43.7745 24.7791 44.2862C26.5911 45.2993 28.4084 46.3034 30.2284 47.3032C30.4179 47.4073 30.6074 47.5115 30.8026 47.6187C30.9695 47.7104 31.1364 47.802 31.3083 47.8964C31.7801 48.1581 31.7801 48.1581 32.2308 48.4653C32.8473 48.7535 33.143 48.688 33.7968 48.5081C34.3289 48.2763 34.3289 48.2763 34.8595 47.9708C35.063 47.8586 35.2665 47.7463 35.4762 47.6307C35.6956 47.5075 35.9149 47.3844 36.1343 47.2612C36.3638 47.1339 36.5934 47.0068 36.8231 46.8798C37.2956 46.6183 37.7676 46.356 38.2392 46.0929C39.0749 45.6269 39.9137 45.1662 40.7526 44.7055C41.3355 44.3851 41.9179 44.0637 42.5001 43.7421C43.2343 43.337 43.9696 42.934 44.7065 42.5334C45.1526 42.2907 45.5984 42.0474 46.0441 41.8041C46.3607 41.6316 46.6779 41.4601 46.9951 41.2886C47.1849 41.1849 47.3748 41.0811 47.5704 40.9742C47.7388 40.8828 47.9072 40.7914 48.0807 40.6971C48.4865 40.4875 48.4865 40.4875 48.6468 40.1081C48.6687 39.5779 48.6795 39.0516 48.6821 38.5212C48.6836 38.3567 48.6851 38.1922 48.6867 38.0228C48.6912 37.4769 48.6943 36.9311 48.6969 36.3853C48.6984 36.1061 48.6984 36.1061 48.6999 35.8214C48.7048 34.8368 48.7083 33.8522 48.711 32.8677C48.714 31.8491 48.7222 30.8307 48.7316 29.8123C48.7377 29.0304 48.7398 28.2486 48.7409 27.4667C48.7421 27.0912 48.7449 26.7156 48.7493 26.3401C48.7551 25.8151 48.7551 25.2903 48.7537 24.7653C48.7568 24.6096 48.7598 24.4539 48.7629 24.2936C48.7604 23.4014 48.7604 23.4014 48.2109 22.6985C48.0522 22.6109 47.8936 22.5233 47.7301 22.4331C47.5763 22.3411 47.4226 22.2491 47.2641 22.1543C47.0996 22.0647 46.935 21.9751 46.7655 21.8828C46.5779 21.7802 46.3903 21.6775 46.1971 21.5717C45.9959 21.4626 45.7947 21.3534 45.5874 21.2409C45.3746 21.1247 45.1618 21.0084 44.949 20.892C44.5072 20.6503 44.0651 20.409 43.6229 20.168C42.7967 19.7174 41.9722 19.2639 41.148 18.81C40.7546 18.5934 40.3611 18.3771 39.9675 18.161C38.9599 17.6073 37.9563 17.0482 36.9578 16.4797C36.7579 16.3665 36.558 16.2532 36.3521 16.1366C35.9723 15.9211 35.5933 15.7043 35.2154 15.486C35.045 15.3896 34.8746 15.2932 34.6991 15.1938C34.5509 15.1088 34.4026 15.0238 34.2499 14.9362C33.3032 14.5119 32.6905 14.4596 31.7944 14.9847ZM58.9134 18.7581C58.8523 19.1956 58.8523 19.1956 58.9134 19.6331C59.2484 20.0267 59.2484 20.0267 59.7384 20.0269C60.2285 20.0267 60.2285 20.0267 60.5634 19.6331C60.6246 19.1956 60.6246 19.1956 60.5634 18.7581C60.2285 18.3645 60.2285 18.3645 59.7384 18.3644C59.2484 18.3645 59.2484 18.3645 58.9134 18.7581ZM5.74677 18.5831C5.51019 18.9797 5.51019 18.9797 5.3801 19.4581C5.61175 19.865 5.61175 19.865 5.9301 20.1581C6.65074 20.0576 6.65074 20.0576 7.21344 19.6331C7.1603 19.0544 7.1603 19.0544 6.84677 18.5831C6.48018 18.576 6.11335 18.5757 5.74677 18.5831ZM5.19677 25.5831C4.7705 25.8042 4.7705 25.8042 4.46344 26.1081C4.56877 26.796 4.56877 26.796 5.01344 27.3331C5.61969 27.2824 5.61969 27.2824 6.11344 26.9831C6.12092 26.6332 6.12124 26.283 6.11344 25.9331C5.698 25.7073 5.698 25.7073 5.19677 25.5831ZM60.0134 26.1081C59.9523 26.5456 59.9523 26.5456 60.0134 26.9831C60.1344 27.0986 60.2554 27.2141 60.3801 27.3331C60.9483 27.2768 60.9483 27.2768 61.4801 27.1581C61.6044 26.6505 61.6044 26.6505 61.6634 26.1081C61.3285 25.7145 61.3285 25.7145 60.8384 25.7144C60.3484 25.7145 60.3484 25.7145 60.0134 26.1081ZM4.8301 31.5331C4.73844 32.0581 4.73844 32.0581 4.8301 32.5831C5.33998 32.9915 5.33998 32.9915 5.87281 32.8675C6.01272 32.8314 6.15262 32.7953 6.29677 32.7581C6.43742 32.2592 6.43742 32.2592 6.4801 31.7081C6.2736 31.365 6.2736 31.365 5.9301 31.1831C5.34621 31.1346 5.34621 31.1346 4.8301 31.5331ZM60.5634 31.1831C60.3819 31.2986 60.2004 31.4141 60.0134 31.5331C59.9218 32.0581 59.9218 32.0581 60.0134 32.5831C60.5069 32.9794 60.5069 32.9794 60.9416 32.8894C61.3325 32.7712 61.3325 32.7712 61.6634 32.4081C61.6768 31.961 61.6768 31.961 61.4801 31.5331C61.0575 31.258 61.0575 31.258 60.5634 31.1831ZM5.74677 37.1331C5.51019 37.5297 5.51019 37.5297 5.3801 38.0081C5.61175 38.415 5.61175 38.415 5.9301 38.7081C6.2931 38.6504 6.6561 38.5926 7.0301 38.5331C7.1562 38.1212 7.1562 38.1212 7.21344 37.6581C7.09244 37.4849 6.97144 37.3116 6.84677 37.1331C6.28143 37.0893 6.28143 37.0893 5.74677 37.1331ZM59.4749 37.33C59.2341 37.6624 59.2341 37.6624 59.3259 38.1175C59.4226 38.5211 59.4226 38.5211 59.6468 38.7081C60.1891 38.7665 60.1891 38.7665 60.7468 38.7081C61.1747 38.2214 61.1747 38.2214 61.0447 37.7128C61.0069 37.5792 60.9691 37.4457 60.9301 37.3081C60.1793 37.1082 60.1793 37.1082 59.4749 37.33ZM6.4801 44.8331C6.53914 45.3755 6.53914 45.3755 6.66344 45.8831C7.20794 45.9697 7.20794 45.9697 7.76344 46.0581C7.94494 45.7694 8.12644 45.4806 8.31344 45.1831C8.10135 44.8157 8.10135 44.8157 7.76344 44.4831C7.12474 44.3939 6.94481 44.3895 6.4801 44.8331ZM58.3634 44.8331C58.3023 45.2706 58.3023 45.2706 58.3634 45.7081C58.6984 46.1017 58.6984 46.1017 59.1884 46.1019C59.6785 46.1017 59.6785 46.1017 60.0134 45.7081C60.0746 45.2706 60.0746 45.2706 60.0134 44.8331C59.6785 44.4395 59.6785 44.4395 59.1884 44.4394C58.6984 44.4395 58.6984 44.4395 58.3634 44.8331ZM11.6134 49.2081C11.1872 49.4292 11.1872 49.4292 10.8801 49.7331C10.9406 50.0796 11.0011 50.4261 11.0634 50.7831C11.5952 50.9018 11.5952 50.9018 12.1634 50.9581C12.5942 50.626 12.5942 50.626 12.553 50.0612C12.5455 49.8952 12.5379 49.7292 12.5301 49.5581C12.1147 49.3323 12.1147 49.3323 11.6134 49.2081ZM53.9634 49.7331C53.9023 50.1706 53.9023 50.1706 53.9634 50.6081C54.2984 51.0017 54.2984 51.0017 54.7884 51.0019C55.2785 51.0017 55.2785 51.0017 55.6134 50.6081C55.6746 50.1706 55.6746 50.1706 55.6134 49.7331C55.2785 49.3395 55.2785 49.3395 54.7884 49.3394C54.2984 49.3395 54.2984 49.3395 53.9634 49.7331Z" fill="white"/>
<path d="M20.9609 25.7578C21.8079 25.7578 22.6549 25.7578 23.5276 25.7578C24.4351 27.7213 25.3426 29.6848 26.2776 31.7078C26.3381 29.7443 26.3986 27.7808 26.4609 25.7578C27.3079 25.7578 28.1549 25.7578 29.0276 25.7578C29.0276 29.5116 29.0276 33.2653 29.0276 37.1328C28.1806 37.1328 27.3336 37.1328 26.4609 37.1328C25.5534 35.1693 24.6459 33.2058 23.7109 31.1828C23.6504 33.1463 23.5899 35.1098 23.5276 37.1328C22.6806 37.1328 21.8336 37.1328 20.9609 37.1328C20.9609 33.3791 20.9609 29.6253 20.9609 25.7578Z" fill="white"/>
<path d="M33.9776 15.0831C34.7253 15.428 35.4315 15.8345 36.1432 16.2424C36.3542 16.3613 36.5653 16.48 36.7765 16.5985C37.2151 16.8448 37.6531 17.0919 38.0907 17.3397C38.9093 17.8023 39.7341 18.2548 40.559 18.7072C41.149 19.0307 41.7381 19.3556 42.3271 19.6809C43.1395 20.1293 43.9538 20.5745 44.7692 21.018C45.1709 21.2381 45.5727 21.4582 45.9744 21.6784C46.1613 21.7792 46.3481 21.8801 46.5406 21.984C46.7128 22.0787 46.8849 22.1734 47.0623 22.271C47.2134 22.3533 47.3645 22.4356 47.5202 22.5203C47.9751 22.8262 48.1852 23.0174 48.4609 23.4831C48.5152 24.0149 48.5379 24.5108 48.535 25.0426C48.5362 25.2001 48.5375 25.3575 48.5388 25.5197C48.5421 26.0401 48.5414 26.5604 48.5404 27.0808C48.5412 27.4426 48.5422 27.8044 48.5433 28.1662C48.5449 28.9245 48.5445 29.6829 48.5427 30.4412C48.5406 31.413 48.5443 32.3847 48.5496 33.3565C48.553 34.1037 48.5529 34.8508 48.5519 35.598C48.5519 35.9563 48.553 36.3146 48.5552 36.6729C48.558 37.1739 48.556 37.6748 48.5529 38.1758C48.5555 38.3977 48.5555 38.3977 48.5582 38.6241C48.549 39.3237 48.5179 39.6725 48.1156 40.2766C47.7012 40.6573 47.3139 40.9078 46.808 41.1683C46.6263 41.2634 46.4446 41.3584 46.2574 41.4564C46.0619 41.5565 45.8664 41.6565 45.6651 41.7596C45.2474 41.978 44.8298 42.1968 44.4125 42.4159C44.2004 42.5269 43.9883 42.6378 43.7697 42.7522C42.8229 43.253 41.8889 43.7737 40.9557 44.2971C40.5964 44.4981 40.2372 44.6991 39.8779 44.9C39.6049 45.0527 39.6049 45.0527 39.3264 45.2085C38.3632 45.7455 37.3973 46.2782 36.4312 46.8102C36.1143 46.9847 35.7976 47.1593 35.4808 47.3339C35.2896 47.4392 35.0984 47.5444 34.9014 47.6529C34.7316 47.7463 34.5618 47.8398 34.3869 47.9361C33.7008 48.3081 33.3114 48.3889 32.5109 48.333C32.0241 48.1337 32.0241 48.1337 31.5283 47.8511C31.2479 47.6937 31.2479 47.6937 30.9618 47.5332C30.7621 47.4182 30.5624 47.3031 30.3567 47.1846C30.1449 47.0649 29.933 46.9454 29.7209 46.8261C29.2802 46.5781 28.8403 46.329 28.4008 46.0792C27.3861 45.5039 26.3614 44.9455 25.338 44.3846C24.9455 44.1683 24.553 43.9518 24.1606 43.7352C23.35 43.2879 22.5381 42.8425 21.7257 42.3981C21.3256 42.178 20.9255 41.9579 20.5255 41.7377C20.3402 41.6369 20.1549 41.536 19.9639 41.4321C19.7066 41.29 19.7066 41.29 19.4441 41.1451C19.2939 41.0628 19.1438 40.9805 18.9891 40.8958C17.901 40.2011 17.901 40.2011 17.7751 39.6064C17.7459 39.1834 17.741 38.7653 17.7435 38.3413C17.7416 38.1805 17.7398 38.0196 17.7378 37.8539C17.7327 37.3221 17.7331 36.7905 17.7339 36.2587C17.7325 35.8891 17.7309 35.5195 17.7292 35.1498C17.7264 34.375 17.7266 33.6002 17.7285 32.8253C17.7306 31.8323 17.7244 30.8395 17.7159 29.8465C17.7105 29.0831 17.7102 28.3198 17.7113 27.5563C17.7111 27.1902 17.7092 26.8241 17.7055 26.4581C17.701 25.946 17.7035 25.4344 17.7077 24.9224C17.7049 24.7712 17.7021 24.62 17.6992 24.4642C17.7177 23.4595 17.7177 23.4595 18.0811 23.0247C18.6423 22.5692 19.2874 22.2123 19.9268 21.8657C20.1138 21.7635 20.3008 21.6614 20.4935 21.5562C20.6931 21.4485 20.8927 21.3409 21.0984 21.2299C21.4183 21.0556 21.7382 20.8814 22.058 20.707C22.3891 20.5266 22.7205 20.3466 23.052 20.1667C24.0881 19.6036 25.1194 19.0325 26.1515 18.4627C27.6586 17.6324 29.167 16.8044 30.6776 15.9799C30.8398 15.8913 31.002 15.8028 31.1691 15.7115C31.3169 15.6309 31.4648 15.5503 31.6171 15.4672C31.8107 15.3617 31.8107 15.3617 32.0082 15.254C32.7219 14.872 33.1957 14.8592 33.9776 15.0831ZM31.837 15.8446C31.6725 15.9345 31.5079 16.0245 31.3384 16.1172C31.1619 16.2163 30.9854 16.3153 30.8036 16.4174C30.6173 16.52 30.431 16.6226 30.2391 16.7282C29.6507 17.0529 29.064 17.3802 28.4776 17.7081C28.1191 17.9075 27.7605 18.1069 27.4019 18.3062C26.8666 18.6039 26.3316 18.902 25.7973 19.2014C24.7645 19.7793 23.7274 20.3492 22.6847 20.9107C22.4488 21.038 22.213 21.1653 21.9772 21.2926C21.5223 21.5382 21.0665 21.7822 20.6102 22.0255C20.4036 22.137 20.197 22.2485 19.9841 22.3633C19.8009 22.4614 19.6176 22.5594 19.4289 22.6604C18.9159 22.9754 18.5827 23.1942 18.2109 23.6581C18.1386 24.1894 18.1106 24.6571 18.116 25.1883C18.1147 25.3426 18.1134 25.4969 18.1121 25.6559C18.1089 26.1658 18.111 26.6755 18.1135 27.1854C18.113 27.5398 18.1123 27.8941 18.1114 28.2485C18.1103 28.9911 18.1119 29.7337 18.1153 30.4763C18.1195 31.4285 18.1171 32.3806 18.1127 33.3327C18.11 34.0645 18.1109 34.7962 18.1128 35.5279C18.1133 35.879 18.1127 36.2301 18.1109 36.5812C18.1091 37.0718 18.1119 37.5622 18.116 38.0528C18.1145 38.1981 18.113 38.3434 18.1115 38.4931C18.1213 39.1252 18.1446 39.5004 18.5536 40.0103C19.012 40.3304 19.4756 40.6061 19.9712 40.8716C20.2783 41.0375 20.2783 41.0375 20.5917 41.2068C20.8141 41.3254 21.0364 41.4441 21.2588 41.5627C21.4895 41.687 21.7201 41.8113 21.9507 41.9358C22.3064 42.1279 22.6622 42.3199 23.0183 42.5115C23.9982 43.0389 24.9734 43.5736 25.9471 44.1113C26.3414 44.3291 26.7361 44.5462 27.1312 44.7629C28.0773 45.2819 29.0188 45.8065 29.9528 46.3452C30.215 46.4941 30.215 46.4941 30.4825 46.6461C30.8084 46.8315 31.1328 47.0195 31.4553 47.2104C32.108 47.5786 32.554 47.8004 33.3187 47.8422C34.2802 47.537 35.0974 47.0635 35.9599 46.5612C36.3544 46.3363 36.749 46.1117 37.1436 45.8872C37.347 45.7707 37.5504 45.6542 37.76 45.5342C38.7539 44.9691 39.7576 44.4203 40.7609 43.8706C41.5555 43.4334 42.3499 42.9957 43.1442 42.5581C43.3529 42.4431 43.5616 42.3281 43.7766 42.2097C44.3912 41.8707 45.0053 41.5309 45.6192 41.1909C45.8076 41.0871 45.9959 40.9833 46.19 40.8764C46.3628 40.7805 46.5355 40.6847 46.7135 40.5859C46.8656 40.5018 47.0177 40.4177 47.1743 40.331C47.5657 40.1132 47.5657 40.1132 47.9109 39.7581C47.9541 39.2472 47.9743 38.7525 47.9787 38.241C47.9828 38.0053 47.9828 38.0053 47.9869 37.7649C47.9951 37.2435 48.0002 36.7221 48.0047 36.2006C48.0073 35.9337 48.0073 35.9337 48.0099 35.6615C48.0187 34.7196 48.0248 33.7778 48.0292 32.8359C48.0343 31.8628 48.0488 30.8901 48.0654 29.9171C48.0764 29.1692 48.08 28.4213 48.0817 27.6733C48.0838 27.3147 48.0888 26.956 48.0966 26.5974C48.2276 24.7253 48.2276 24.7253 47.5682 23.0451C47.1395 22.7662 46.7493 22.5958 46.2609 22.4331C46.0796 22.3279 45.8984 22.2228 45.7117 22.1145C45.4706 21.9829 45.4706 21.9829 45.2246 21.8486C44.9467 21.6962 44.9467 21.6962 44.6631 21.5407C44.4682 21.4346 44.2732 21.3284 44.0724 21.219C43.757 21.0462 43.4416 20.8735 43.1262 20.7007C42.8001 20.5221 42.4738 20.3437 42.1475 20.1654C41.3025 19.7034 40.4587 19.2395 39.6152 18.7751C39.213 18.5538 38.8107 18.3328 38.4083 18.1121C37.5229 17.6257 36.6407 17.136 35.7679 16.6293C35.6244 16.5465 35.4808 16.4637 35.3329 16.3783C35.0732 16.2278 34.8144 16.0757 34.5569 15.9216C33.5192 15.3212 32.8862 15.2631 31.837 15.8446Z" fill="white"/>
<path d="M31.0469 25.7578C33.2249 25.7578 35.4029 25.7578 37.6469 25.7578C37.6469 26.4508 37.6469 27.1438 37.6469 27.8578C37.4635 28.0328 37.4635 28.0328 37.1061 28.0527C36.9535 28.0518 36.8008 28.0508 36.6436 28.0499C36.4787 28.0493 36.3139 28.0488 36.144 28.0482C35.9707 28.0467 35.7973 28.0453 35.6188 28.0437C35.4447 28.043 35.2706 28.0422 35.0913 28.0414C34.6598 28.0393 34.2283 28.0361 33.7969 28.0328C33.7364 28.8413 33.6759 29.6498 33.6135 30.4828C34.763 30.4828 35.9125 30.4828 37.0969 30.4828C37.0969 31.1758 37.0969 31.8688 37.0969 32.5828C35.9474 32.5828 34.7979 32.5828 33.6135 32.5828C33.6135 34.0843 33.6135 35.5858 33.6135 37.1328C32.7665 37.1328 31.9195 37.1328 31.0469 37.1328C31.0469 33.3791 31.0469 29.6253 31.0469 25.7578Z" fill="white"/>
<path d="M38.7461 25.7578C41.4081 25.7578 44.0701 25.7578 46.8128 25.7578C46.8128 26.4508 46.8128 27.1438 46.8128 27.8578C46.7523 27.9156 46.6918 27.9733 46.6294 28.0328C45.7824 28.0328 44.9354 28.0328 44.0628 28.0328C44.0628 31.0358 44.0628 34.0388 44.0628 37.1328C43.2158 37.1328 42.3688 37.1328 41.4961 37.1328C41.3128 36.9578 41.3128 36.9578 41.2907 36.5979C41.2911 36.4398 41.2915 36.2816 41.2919 36.1187C41.292 35.94 41.292 35.7613 41.292 35.5772C41.2929 35.3829 41.2939 35.1886 41.2949 34.9884C41.2951 34.7905 41.2954 34.5927 41.2956 34.3888C41.2967 33.754 41.299 33.1192 41.3013 32.4844C41.3022 32.0552 41.3031 31.626 41.3038 31.1968C41.3058 30.1422 41.309 29.0875 41.3128 28.0328C40.4658 28.0328 39.6188 28.0328 38.7461 28.0328C38.7461 27.2821 38.7461 26.5313 38.7461 25.7578Z" fill="white"/>
<path d="M25.5464 39.2329C26.114 39.2959 26.4684 39.5032 26.9106 39.8365C27.0311 39.9262 27.1515 40.0158 27.2756 40.1082C27.4045 40.2055 27.5334 40.3029 27.6661 40.4032C27.9444 40.6087 28.2227 40.814 28.5012 41.0191C28.9565 41.3563 29.4112 41.694 29.8649 42.0332C30.329 42.3787 30.7962 42.7201 31.2641 43.061C31.4087 43.1704 31.5534 43.2797 31.7024 43.3924C32.4906 43.9679 32.4906 43.9679 33.4354 44.1808C34.2278 43.8563 34.8398 43.3837 35.5036 42.8642C35.7958 42.6422 36.088 42.4202 36.3802 42.1983C36.6801 41.9683 36.9799 41.7381 37.2797 41.5079C37.8462 41.0745 38.4156 40.6448 38.987 40.2173C39.115 40.1184 39.2431 40.0196 39.375 39.9177C40.2739 39.2467 40.2739 39.2467 40.9428 39.1714C41.065 39.1917 41.1871 39.212 41.313 39.2329C41.2571 39.7909 41.1846 40.0529 40.7738 40.4641C40.5359 40.6397 40.5359 40.6397 40.2932 40.8188C40.0206 41.0219 40.0206 41.0219 39.7425 41.229C39.5329 41.3806 39.323 41.5318 39.113 41.6829C38.9397 41.8088 38.9397 41.8088 38.7629 41.9372C38.0211 42.4758 37.2744 43.0077 36.525 43.5366C36.2098 43.7614 35.8987 43.9904 35.5889 44.2218C33.9557 45.4183 33.9557 45.4183 32.8797 45.3579C32.0857 45.0257 31.4382 44.6119 30.7599 44.1001C30.5543 43.9456 30.3485 43.7914 30.1426 43.6373C30.0273 43.551 29.912 43.4647 29.7933 43.3757C29.332 43.0355 28.8654 42.7025 28.398 42.3699C28.2245 42.2458 28.0509 42.1216 27.8721 41.9937C27.5244 41.7453 27.176 41.4978 26.8268 41.2514C26.6663 41.1362 26.5059 41.021 26.3406 40.9022C26.1964 40.7997 26.0522 40.6972 25.9036 40.5916C25.537 40.2749 25.3658 40.0161 25.1797 39.5829C25.3007 39.4674 25.4217 39.3519 25.5464 39.2329Z" fill="white"/>
<path d="M33.9794 17.7078C34.5895 18.0224 35.1113 18.4248 35.648 18.8417C36.2393 19.2939 36.8451 19.7279 37.4486 20.165C37.95 20.5284 38.4497 20.8937 38.9495 21.2591C39.6664 21.7811 40.392 22.2876 41.1294 22.7828C41.0689 23.0716 41.0084 23.3603 40.9461 23.6578C40.2654 23.5632 39.8556 23.415 39.3212 23.0036C39.1902 22.9043 39.0592 22.805 38.9242 22.7026C38.786 22.5956 38.6478 22.4885 38.5055 22.3781C38.2115 22.1556 37.9174 21.9332 37.6232 21.711C37.4748 21.5982 37.3263 21.4854 37.1734 21.3692C36.4921 20.8531 35.8052 20.3444 35.1138 19.8406C34.9945 19.7516 34.8752 19.6625 34.7523 19.5708C33.9075 18.9447 33.9075 18.9447 32.8794 18.7578C32.4359 18.9623 32.4359 18.9623 32.0086 19.3047C31.8337 19.4333 31.6588 19.5619 31.4786 19.6944C31.3816 19.7675 31.2846 19.8407 31.1847 19.916C30.6971 20.2823 30.2031 20.6405 29.7099 20.9998C29.4399 21.1966 29.1702 21.3937 28.9007 21.5912C27.8566 22.3561 26.8002 23.1021 25.7294 23.8328C25.4874 23.7173 25.2454 23.6018 24.9961 23.4828C25.0558 22.9872 25.1501 22.8082 25.5432 22.4684C25.7942 22.2992 25.7942 22.2992 26.0503 22.1266C26.2464 21.9915 26.4426 21.8563 26.6447 21.7171C26.7583 21.6391 26.8719 21.5611 26.9889 21.4807C27.9642 20.7992 28.9166 20.0879 29.875 19.3852C32.6178 17.3834 32.6178 17.3834 33.9794 17.7078Z" fill="white"/>
</svg>
