<svg width="192" height="90" viewBox="0 0 192 90" fill="none" xmlns="http://www.w3.org/2000/svg">
<g clip-path="url(#clip0_2009_1572)">
<path d="M95.3678 2.76193C95.4184 2.86306 95.4689 2.96419 95.521 3.06839C95.361 3.42565 95.361 3.42565 95.1098 3.87164C95.0188 4.03412 94.9278 4.19659 94.8341 4.36399C94.7353 4.53691 94.6364 4.70982 94.5346 4.88798C94.3853 5.15136 94.3853 5.15136 94.2331 5.42006C93.5815 6.56123 92.909 7.66493 92.15 8.73786C92.0254 8.9194 91.9011 9.10118 91.7771 9.28314C91.0064 10.4129 90.2245 11.5347 89.4397 12.6548C89.349 12.7844 89.2583 12.914 89.1648 13.0475C88.7033 13.7066 88.2411 14.365 87.7776 15.0226C86.5224 16.8089 85.2969 18.6147 84.0826 20.4289C83.9092 20.6878 83.7356 20.9465 83.5618 21.2051C80.8412 25.2554 78.4604 29.4455 77.1335 34.1739C77.0925 34.3183 77.0514 34.4627 77.0091 34.6116C75.8252 38.9134 76.0519 43.3884 78.2142 47.3397C80.2135 50.7803 83.0659 53.2813 86.9519 54.333C90.7379 55.2631 94.9361 54.0987 98.2103 52.1424C101.405 50.0947 103.596 47.318 105.328 43.9805C105.441 43.7639 105.441 43.7639 105.556 43.543C106.89 40.8054 107.336 37.6827 107.597 34.6796C107.607 34.5656 107.617 34.4516 107.627 34.3341C107.675 33.7679 107.72 33.2016 107.76 32.6347C107.776 32.4257 107.792 32.2167 107.809 32.0077C107.822 31.8233 107.835 31.6389 107.848 31.4489C107.955 30.8239 108.149 30.3664 108.67 29.9888C109.276 29.7983 109.74 29.7956 110.317 30.0708C111.515 30.9445 111.563 33.4721 111.789 34.8353C112.915 42.1509 111.253 49.7691 106.933 55.7983C106.347 56.5929 105.717 57.3269 105.037 58.0435C104.78 58.3153 104.544 58.5881 104.313 58.882C103.828 59.4428 103.295 59.9065 102.723 60.376C102.512 60.549 102.512 60.549 102.298 60.7256C98.8349 63.4819 94.7127 65.5334 90.3112 66.1987C90.1362 66.2268 89.9612 66.2548 89.7809 66.2837C88.7695 66.4051 87.7468 66.3894 86.7295 66.3903C86.62 66.3904 86.5105 66.3905 86.3977 66.3906C84.7 66.388 83.0771 66.2992 81.424 65.8923C81.3117 65.866 81.1994 65.8397 81.0837 65.8126C79.3764 65.4061 77.7901 64.8225 76.2142 64.0535C76.1168 64.0063 76.0195 63.9591 75.9192 63.9105C73.6788 62.8088 71.7797 61.3949 69.9901 59.6604C69.8099 59.4868 69.6258 59.3171 69.441 59.1484C65.3179 55.2851 63.2305 49.2109 63.0365 43.6741C62.8645 37.9072 63.7309 32.0687 66.5608 26.9721C66.6594 26.7886 66.7579 26.605 66.8564 26.4214C69.0858 22.3332 72.488 18.5813 76.2446 15.8378C76.6783 15.5163 77.1014 15.1813 77.5262 14.8481C78.5227 14.0664 79.5277 13.297 80.5429 12.5399C82.8045 10.8515 84.9805 9.07705 87.0934 7.20557C87.1965 7.11668 87.2996 7.0278 87.4059 6.93622C88.073 6.35161 88.7051 5.74936 89.3224 5.11244C89.5117 4.91845 89.5117 4.91845 89.7047 4.72054C89.9577 4.46015 90.209 4.19814 90.4584 3.93434C91.9474 2.4044 93.3554 1.84402 95.3678 2.76193Z" fill="white" fill-opacity="0.58"/>
<path d="M110.32 30.0704C111.518 30.9442 111.565 33.4718 111.792 34.8349C112.917 42.1506 111.256 49.7688 106.936 55.798C106.35 56.5926 105.72 57.3265 105.04 58.0431C104.782 58.315 104.546 58.5877 104.315 58.8817C103.831 59.4424 103.297 59.9061 102.725 60.3757C102.585 60.491 102.445 60.6064 102.3 60.7252C98.8375 63.4816 94.7153 65.533 90.3138 66.1984C90.0513 66.2404 90.0513 66.2404 89.7835 66.2834C88.7721 66.4047 87.7494 66.389 86.7321 66.3899C86.6226 66.39 86.5131 66.3901 86.4002 66.3902C84.7026 66.3877 83.0797 66.2988 81.4265 65.8919C81.2581 65.8525 81.2581 65.8525 81.0862 65.8122C78.1991 65.1248 75.1998 63.8985 72.8457 62.0612C72.9468 62.0106 73.048 61.96 73.1522 61.9079C73.1414 61.8184 73.1307 61.7288 73.1197 61.6365C72.9716 60.243 72.9683 58.8544 72.9702 57.4547C72.9703 57.3262 72.9704 57.1977 72.9705 57.0653C72.9771 53.6539 73.27 50.3551 73.8537 46.9932C73.9168 46.5944 73.9633 46.1972 74.0039 45.7956C74.0715 45.206 74.0715 45.206 74.2248 45.0528C74.2607 44.7548 74.2964 44.4568 74.3301 44.1585C74.378 43.8269 74.378 43.8269 74.5216 43.3289C74.7122 42.6563 74.816 41.9857 74.9197 41.2951C74.9909 40.9156 74.9909 40.9156 75.1441 40.7624C75.2264 40.3796 75.3027 39.9979 75.374 39.6131C75.5831 38.4846 75.5831 38.4846 75.7571 38.3107C75.7823 38.1337 75.8076 37.9567 75.8337 37.7744C75.9103 37.2381 75.9103 37.2381 76.0635 37.0849C76.1461 36.7085 76.2223 36.3333 76.2934 35.9548C76.5045 34.8424 76.5045 34.8424 76.6764 34.3267C76.7776 34.3267 76.8787 34.3267 76.9829 34.3267C76.6764 36.0123 76.6764 36.0123 76.5993 36.3799C75.7823 40.4417 76.4931 44.6793 78.7259 48.1748C80.8901 51.4227 83.7852 53.6683 87.6509 54.4921C91.5429 55.1416 95.8416 53.8436 99.0205 51.5976C101.815 49.5491 103.743 47.0386 105.33 43.9802C105.406 43.8358 105.481 43.6914 105.559 43.5426C106.892 40.805 107.339 37.6823 107.599 34.6793C107.609 34.5653 107.619 34.4512 107.629 34.3338C107.678 33.7675 107.722 33.2012 107.763 32.6343C107.779 32.4253 107.795 32.2163 107.811 32.0074C107.824 31.8229 107.837 31.6385 107.85 31.4485C107.958 30.8235 108.151 30.366 108.673 29.9884C109.279 29.7979 109.743 29.7952 110.32 30.0704Z" fill="white" fill-opacity="0.58"/>
<path d="M99.967 11.189C99.9263 11.3464 99.8856 11.5038 99.8437 11.666C99.207 14.1516 98.7586 16.5421 98.9997 19.1186C99.0097 19.2313 99.0197 19.3441 99.0301 19.4603C99.3092 22.037 100.055 24.5217 100.81 26.9907C102.613 32.9131 103.787 38.6559 100.829 44.4301C99.3625 47.009 97.2565 48.7922 94.4184 49.6913C91.4056 50.4762 88.2529 49.96 85.4814 48.6217C85.0709 48.3751 84.7071 48.1148 84.3376 47.8107C84.2068 47.705 84.0761 47.5993 83.9414 47.4905C81.7254 45.5972 80.4947 43.3359 80.2291 40.427C79.9335 34.2061 83.7168 28.4214 87.7248 23.992C89.0564 22.5302 89.0564 22.5302 89.6048 22.4896C90.1603 22.5279 90.1603 22.5279 90.4572 22.6907C90.7793 23.2781 90.653 23.9323 90.4913 24.5588C90.4358 24.7261 90.3803 24.8934 90.3231 25.0658C89.9983 26.1455 89.8075 27.2191 89.8538 28.3506C90.0055 28.5782 90.0055 28.5782 90.1603 28.8103C90.6296 28.7635 90.8594 28.734 91.1754 28.3716C91.4069 27.9593 91.6321 27.5466 91.8458 27.1248C91.9142 26.9901 91.9825 26.8554 92.0529 26.7166C92.8266 25.0316 93.0943 23.1836 93.3917 21.3666C94.0844 17.1778 96.0163 14.1025 99.2355 11.3578C99.5073 11.189 99.5073 11.189 99.967 11.189Z" fill="white" fill-opacity="0.58"/>
<path d="M6.49805 70.3356C8.26784 70.3356 10.0376 70.3356 11.8611 70.3356C12.3431 71.4923 12.8166 72.6459 13.2623 73.8161C13.3195 73.9658 13.3767 74.1154 13.4357 74.2695C13.6166 74.7426 13.7971 75.2158 13.9775 75.689C14.0965 76.0004 14.2155 76.3117 14.3346 76.623C14.4528 76.9324 14.571 77.2417 14.6892 77.5511C14.747 77.7024 14.8048 77.8536 14.8644 78.0095C15.158 78.7785 15.4505 79.548 15.7411 80.3183C15.7976 80.4677 15.8541 80.6171 15.9123 80.771C16.0197 81.0552 16.1268 81.3395 16.2335 81.6239C16.281 81.7495 16.3286 81.8752 16.3775 82.0047C16.4191 82.1152 16.4607 82.2257 16.5036 82.3396C16.5927 82.5946 16.5927 82.5946 16.7644 82.7471C16.7929 82.6681 16.8215 82.5891 16.8509 82.5077C17.5164 80.6665 18.1822 78.8255 18.8486 76.9846C19.1699 76.0968 19.4909 75.2088 19.8113 74.3207C19.9819 73.848 20.1528 73.3755 20.3238 72.903C20.4024 72.6856 20.4809 72.4682 20.5592 72.2507C20.6665 71.9526 20.7744 71.6546 20.8824 71.3567C20.9421 71.1915 21.0017 71.0263 21.0632 70.8561C21.208 70.4888 21.208 70.4888 21.3613 70.3356C21.7809 70.322 22.1967 70.3179 22.6164 70.3206C22.742 70.3208 22.8677 70.321 22.9971 70.3213C23.3999 70.3221 23.8027 70.324 24.2056 70.326C24.478 70.3268 24.7504 70.3275 25.0229 70.3281C25.6922 70.3298 26.3614 70.3324 27.0307 70.3356C27.0307 70.5378 27.0307 70.7401 27.0307 70.9485C26.8854 71.0117 26.74 71.0749 26.5902 71.14C26.084 71.4235 26.0022 71.5041 25.8049 72.0211C25.7591 72.3323 25.7591 72.3323 25.7649 72.6608C25.7639 72.7871 25.7628 72.9134 25.7617 73.0435C25.762 73.1808 25.7624 73.318 25.7628 73.4594C25.7616 73.6778 25.7616 73.6778 25.7604 73.9005C25.7583 74.3818 25.7585 74.863 25.7588 75.3442C25.7582 75.6786 25.7575 76.0129 25.7568 76.3472C25.7557 77.0479 25.7557 77.7487 25.7565 78.4494C25.7574 79.348 25.7548 80.2466 25.7513 81.1452C25.749 81.8356 25.7489 82.526 25.7493 83.2164C25.7493 83.5477 25.7485 83.8791 25.7469 84.2105C25.745 84.6734 25.7461 85.1363 25.7478 85.5992C25.7467 85.7365 25.7455 85.8737 25.7443 86.0151C25.7488 86.7488 25.7488 86.7488 26.0126 87.4219C26.3256 87.7058 26.6312 87.8273 27.0307 87.9569C27.0307 88.1592 27.0307 88.3614 27.0307 88.5698C24.7047 88.5698 22.3787 88.5698 19.9822 88.5698C19.9822 88.3676 19.9822 88.1653 19.9822 87.9569C20.1563 87.8868 20.3305 87.8166 20.5099 87.7444C20.868 87.5373 21.025 87.4338 21.1566 87.0367C21.1944 86.6351 21.1992 86.2444 21.1931 85.841C21.195 85.6904 21.1968 85.5398 21.1988 85.3846C21.2037 84.8916 21.2012 84.3989 21.1984 83.9059C21.2004 83.5672 21.2028 83.2286 21.2056 82.8899C21.2115 82.0352 21.2112 81.1806 21.2089 80.3259C21.2076 79.5763 21.2109 78.8268 21.214 78.0772C21.2184 76.7735 21.2159 75.47 21.208 74.1663C21.1542 74.3183 21.1542 74.3183 21.0993 74.4734C20.6413 75.7663 20.1828 77.0589 19.7236 78.3514C19.6871 78.4541 19.6506 78.5569 19.613 78.6628C18.4359 81.9756 17.2408 85.2809 15.9982 88.5698C15.442 88.5698 14.8858 88.5698 14.3127 88.5698C13.8818 87.6184 13.4844 86.6611 13.112 85.6854C13.0568 85.5413 13.0015 85.3972 12.9446 85.2488C12.8272 84.9425 12.71 84.6361 12.593 84.3296C12.4228 83.884 12.2518 83.4387 12.0807 82.9934C10.9574 80.0617 9.87784 77.1137 8.79648 74.1663C8.78937 75.7687 8.78393 77.3711 8.7806 78.9735C8.779 79.7175 8.77684 80.4616 8.77336 81.2057C8.77003 81.924 8.7682 82.6423 8.76741 83.3606C8.76684 83.6345 8.76574 83.9083 8.76408 84.1821C8.76185 84.5661 8.76155 84.9501 8.76169 85.3341C8.76059 85.4469 8.75949 85.5596 8.75835 85.6758C8.761 86.3399 8.84232 86.8847 9.10294 87.4972C9.35745 87.7002 9.35745 87.7002 9.65839 87.7845C9.91438 87.8698 9.91438 87.8698 10.1755 87.9569C10.1755 88.1592 10.1755 88.3614 10.1755 88.5698C8.96197 88.5698 7.7484 88.5698 6.49805 88.5698C6.49805 88.3676 6.49805 88.1653 6.49805 87.9569C6.64342 87.8905 6.7888 87.8242 6.93858 87.7558C7.44813 87.5289 7.44813 87.5289 7.72388 87.0375C7.77055 86.7395 7.77055 86.7395 7.76486 86.4105C7.76682 86.2194 7.76682 86.2194 7.76882 86.0245C7.76868 85.8852 7.76854 85.746 7.7684 85.6025C7.76943 85.4555 7.77045 85.3085 7.77151 85.157C7.77443 84.6699 7.77502 84.1829 7.77535 83.6958C7.77634 83.3578 7.77737 83.0199 7.77844 82.6819C7.78028 81.973 7.78085 81.2642 7.78067 80.5553C7.78063 79.6462 7.78482 78.7371 7.7901 77.828C7.7935 77.1299 7.79413 76.4318 7.79396 75.7336C7.79433 75.3984 7.79568 75.0632 7.79805 74.728C7.80105 74.2595 7.80017 73.7912 7.79832 73.3227C7.80005 73.1838 7.80177 73.0448 7.80354 72.9017C7.80168 72.1364 7.80168 72.1364 7.43432 71.4824C7.13062 71.2688 6.83922 71.0947 6.49805 70.9485C6.49805 70.7462 6.49805 70.544 6.49805 70.3356Z" fill="white" fill-opacity="0.58"/>
<path d="M89.605 22.4897C90.1604 22.5281 90.1604 22.5281 90.4573 22.6909C90.7794 23.2782 90.6531 23.9325 90.4914 24.5589C90.4359 24.7262 90.3804 24.8935 90.3232 25.0659C89.9984 26.1456 89.8077 27.2192 89.854 28.3508C89.9551 28.5025 90.0562 28.6541 90.1604 28.8104C90.5281 28.7905 90.5281 28.7905 90.9266 28.6572C91.2067 28.33 91.2067 28.33 91.415 27.9198C91.4898 27.7861 91.5647 27.6524 91.6418 27.5146C91.816 27.1822 91.9868 26.8487 92.1524 26.512C92.2535 26.512 92.3547 26.512 92.4589 26.512C92.7853 28.1267 92.8273 29.716 92.8305 31.358C92.8323 31.7935 92.8399 32.2285 92.8476 32.6639C92.8693 35.1301 92.4402 37.3934 91.5395 39.6897C91.4384 39.6897 91.3372 39.6897 91.233 39.6897C91.2138 39.8538 91.2138 39.8538 91.1941 40.0213C90.866 41.2683 89.6377 42.3016 88.591 42.9841C87.3165 43.6774 86.0167 44.1549 84.5652 44.1483C84.3736 44.1478 84.182 44.1473 83.9846 44.1468C83.7851 44.1455 83.5856 44.1442 83.38 44.1429C83.0772 44.1419 83.0772 44.1419 82.7683 44.1408C82.2699 44.139 81.7715 44.1365 81.2731 44.1333C81.1744 43.9152 81.0762 43.6969 80.9781 43.4785C80.9233 43.357 80.8685 43.2354 80.8121 43.1102C79.5664 40.1904 80.3053 36.6855 81.4037 33.8346C82.4431 31.2646 86.343 22.7314 89.605 22.4897Z" fill="white" fill-opacity="0.58"/>
<path d="M99.66 12.1089C99.6422 12.1943 99.6244 12.2798 99.6061 12.3678C99.1378 14.6463 98.7869 16.7867 98.9992 19.1191C99.0142 19.2885 99.0142 19.2885 99.0295 19.4612C99.3094 22.0378 100.055 24.5222 100.809 26.9912C102.612 32.9136 103.786 38.6565 100.828 44.4306C99.362 47.0096 97.256 48.7927 94.4179 49.6919C93.3936 49.9587 92.41 49.9893 91.3569 49.9947C91.207 49.9979 91.0572 50.0011 90.9029 50.0043C89.8226 50.01 88.8875 49.8305 87.8613 49.4967C88.1678 49.0371 88.1678 49.0371 88.5233 48.9413C88.6651 48.9223 88.807 48.9034 88.9531 48.8838C90.0577 48.7091 91.0208 48.3597 91.9985 47.8112C92.0491 47.7101 92.0996 47.609 92.1517 47.5048C92.356 47.4537 92.5603 47.4026 92.7647 47.3515C92.8152 47.2504 92.8658 47.1493 92.9179 47.0451C93.0222 46.9882 93.1265 46.9313 93.2339 46.8727C94.6607 45.962 95.3569 44.6656 96.1357 43.2144C96.2413 43.0371 96.347 42.8599 96.4529 42.6828C96.7599 42.147 96.9702 41.5915 97.1508 41.0021C97.1833 40.8968 97.2157 40.7915 97.2491 40.6829C98.1192 37.7086 98.3342 33.0547 96.9018 30.1899C94.9508 26.2879 95.8615 20.0901 97.0551 16.0928C97.2437 15.5748 97.4477 15.0659 97.668 14.5605C97.7691 14.5605 97.8702 14.5605 97.9744 14.5605C97.9902 14.4531 98.006 14.3456 98.0223 14.2349C98.142 13.7344 98.3453 13.3275 98.5874 12.875C98.6885 12.875 98.7896 12.875 98.8938 12.875C98.9223 12.7281 98.9223 12.7281 98.9513 12.5782C98.9829 12.4739 99.0145 12.3696 99.047 12.2621C99.3535 12.1089 99.3535 12.1089 99.66 12.1089Z" fill="white" fill-opacity="0.58"/>
<path d="M109.926 74.9322C110.086 75.2488 110.086 75.2488 110.194 75.6313C110.231 75.7579 110.268 75.8845 110.306 76.015C110.332 76.1128 110.359 76.2105 110.385 76.3113C110.503 76.2224 110.503 76.2224 110.622 76.1317C112.199 75.0026 113.81 74.5568 115.748 74.779C116.793 75.0265 117.47 75.4031 118.047 76.3113C118.588 77.4335 118.576 78.4817 118.58 79.7134C118.582 79.9232 118.584 80.133 118.587 80.3428C118.593 80.8917 118.597 81.4405 118.6 81.9895C118.606 82.87 118.615 83.7506 118.624 84.6311C118.627 84.9377 118.629 85.2443 118.631 85.5508C118.632 85.737 118.634 85.9232 118.636 86.1151C118.637 86.2788 118.638 86.4425 118.639 86.6112C118.665 87.1442 118.665 87.1442 118.813 87.6502C119.041 87.7261 119.041 87.7261 119.273 87.8034C119.5 87.8793 119.5 87.8793 119.732 87.9567C119.783 88.1589 119.833 88.3612 119.886 88.5696C117.661 88.5696 115.436 88.5696 113.144 88.5696C113.144 88.3673 113.144 88.1651 113.144 87.9567C113.292 87.8871 113.441 87.8176 113.594 87.746C114.074 87.5494 114.074 87.5494 114.216 87.1905C114.232 86.8879 114.239 86.5848 114.241 86.2817C114.242 86.091 114.244 85.9002 114.245 85.7036C114.246 85.4944 114.247 85.2851 114.247 85.0758C114.248 84.8617 114.249 84.6475 114.25 84.4334C114.251 83.9839 114.252 83.5345 114.253 83.0851C114.254 82.5101 114.257 81.9351 114.262 81.3601C114.265 80.9175 114.265 80.4749 114.266 80.0323C114.266 79.8203 114.267 79.6084 114.269 79.3965C114.272 79.0995 114.271 78.8024 114.271 78.5054C114.271 78.3365 114.272 78.1676 114.272 77.9936C114.208 77.4727 114.075 77.1856 113.756 76.7709C112.958 76.5048 112.323 76.5332 111.573 76.905C111.212 77.0999 110.881 77.3089 110.539 77.5371C110.468 77.9608 110.468 77.9608 110.479 78.4648C110.478 78.6596 110.476 78.8545 110.475 79.0552C110.476 79.2688 110.477 79.4824 110.478 79.6961C110.477 79.9144 110.477 80.1327 110.476 80.351C110.476 80.809 110.477 81.2669 110.479 81.7248C110.481 82.3119 110.48 82.8989 110.477 83.486C110.475 83.937 110.476 84.388 110.477 84.839C110.477 85.0555 110.477 85.2719 110.476 85.4884C110.475 85.791 110.477 86.0936 110.479 86.3962C110.48 86.6546 110.48 86.6546 110.48 86.9182C110.504 87.3432 110.504 87.3432 110.743 87.6232C111.015 87.8336 111.015 87.8336 111.458 87.9567C111.458 88.1589 111.458 88.3612 111.458 88.5696C109.284 88.5696 107.109 88.5696 104.869 88.5696C104.869 88.3673 104.869 88.1651 104.869 87.9567C105.018 87.884 105.166 87.8113 105.319 87.7364C105.759 87.5426 105.759 87.5426 105.942 87.3437C105.956 87.0382 105.96 86.7321 105.959 86.4261C105.959 86.2298 105.959 86.0335 105.959 85.8312C105.958 85.6153 105.958 85.3995 105.957 85.1836C105.956 84.9639 105.956 84.7443 105.956 84.5246C105.955 83.9455 105.954 83.3664 105.952 82.7872C105.951 82.1967 105.95 81.6061 105.949 81.0156C105.948 79.8561 105.945 78.6966 105.942 77.5371C105.411 77.2337 105.411 77.2337 104.869 76.9242C104.869 76.7219 104.869 76.5197 104.869 76.3113C105.49 76.0881 106.112 75.8672 106.734 75.6482C106.946 75.5734 107.157 75.498 107.368 75.4221C107.672 75.3129 107.976 75.2059 108.281 75.0992C108.464 75.0342 108.647 74.9692 108.835 74.9022C109.291 74.7846 109.503 74.7369 109.926 74.9322Z" fill="white" fill-opacity="0.58"/>
<path d="M60.5867 74.9324C60.8883 75.234 60.8415 75.7519 60.8932 76.1583C61.3236 76.1583 61.5297 75.9611 61.8892 75.7273C63.382 74.8239 64.929 74.5095 66.6626 74.8618C67.4561 75.1021 68.1262 75.4078 68.578 76.1367C69.0421 77.0154 69.186 77.7841 69.1893 78.7791C69.1909 79.0567 69.1909 79.0567 69.1926 79.34C69.1932 79.5385 69.1938 79.7371 69.1945 79.9417C69.1961 80.1487 69.1978 80.3557 69.1997 80.5627C69.2077 81.4395 69.2151 82.3163 69.2175 83.1931C69.219 83.7306 69.2235 84.2679 69.23 84.8053C69.2328 85.1088 69.2324 85.4123 69.2319 85.7159C69.2344 85.9005 69.237 86.0851 69.2396 86.2753C69.2405 86.4377 69.2414 86.6001 69.2423 86.7674C69.3405 87.2971 69.5146 87.475 69.9337 87.8037C70.1612 87.8795 70.1612 87.8795 70.3934 87.9569C70.3934 88.1592 70.3934 88.3614 70.3934 88.5698C68.1685 88.5698 65.9436 88.5698 63.6513 88.5698C63.6513 88.3676 63.6513 88.1653 63.6513 87.9569C64.1823 87.8052 64.1823 87.8052 64.7239 87.6504C64.8799 87.1335 64.8975 86.6607 64.8994 86.1221C64.9004 85.9375 64.9014 85.7529 64.9024 85.5626C64.9025 85.3638 64.9027 85.1649 64.9029 84.96C64.9034 84.7531 64.9039 84.5463 64.9044 84.3394C64.9053 83.9062 64.9056 83.4731 64.9055 83.0399C64.9055 82.4859 64.9076 81.9319 64.9103 81.3778C64.912 80.9507 64.9123 80.5236 64.9122 80.0965C64.9125 79.7933 64.9141 79.49 64.9158 79.1867C64.9151 78.9091 64.9151 78.9091 64.9144 78.6258C64.9146 78.4633 64.9148 78.3008 64.915 78.1334C64.8754 77.6703 64.7764 77.3396 64.5707 76.9244C64.0504 76.5197 63.5214 76.5461 62.8852 76.618C62.2132 76.8889 61.5622 77.1748 61.0464 77.6906C60.9994 78.0881 60.9994 78.0881 61.0068 78.5572C61.0058 78.7387 61.0048 78.9203 61.0038 79.1074C61.0045 79.3045 61.0051 79.5016 61.0057 79.7047C61.0054 79.9065 61.0051 80.1083 61.0048 80.3162C61.0044 80.744 61.005 81.1718 61.0065 81.5996C61.0082 82.1468 61.0072 82.6939 61.0054 83.2411C61.004 83.7638 61.005 84.2864 61.0057 84.8091C61.0051 85.0053 61.0045 85.2015 61.0038 85.4036C61.0048 85.5866 61.0058 85.7697 61.0068 85.9582C61.007 86.1189 61.0073 86.2796 61.0075 86.4452C61.0486 86.9088 61.1382 87.2382 61.3529 87.6504C61.7396 87.859 61.7396 87.859 62.119 87.9569C62.119 88.1592 62.119 88.3614 62.119 88.5698C59.8941 88.5698 57.6693 88.5698 55.377 88.5698C55.4275 88.3676 55.4781 88.1653 55.5302 87.9569C55.8315 87.7937 56.1381 87.64 56.4496 87.4972C56.6569 87.0825 56.6246 86.7555 56.6275 86.2912C56.6289 86.1025 56.6304 85.9138 56.6319 85.7194C56.6327 85.5125 56.6333 85.3057 56.6339 85.0988C56.6348 84.8874 56.6357 84.6759 56.6366 84.4644C56.6382 84.021 56.6391 83.5775 56.6396 83.134C56.6404 82.5654 56.6441 81.997 56.6485 81.4285C56.6513 80.9916 56.6521 80.5548 56.6524 80.118C56.6528 79.9084 56.6541 79.6988 56.6561 79.4892C56.6587 79.1961 56.6581 78.903 56.6574 78.61C56.658 78.4431 56.6585 78.2763 56.6591 78.1044C56.6369 77.6892 56.6369 77.6892 56.3953 77.4146C56.076 77.182 55.7483 77.0549 55.377 76.9244C55.377 76.7222 55.377 76.5199 55.377 76.3115C56.0197 76.0884 56.6631 75.8674 57.3073 75.6484C57.5262 75.5736 57.745 75.4983 57.9636 75.4223C58.278 75.3132 58.5931 75.2061 58.9084 75.0994C59.0978 75.0344 59.2871 74.9694 59.4823 74.9025C59.9461 74.7862 60.1544 74.7484 60.5867 74.9324Z" fill="white" fill-opacity="0.58"/>
<path d="M80.8461 75.5944C81.9178 76.4236 82.293 77.6225 82.4987 78.9163C82.5421 79.5035 82.5483 80.0887 82.5514 80.6773C82.5536 80.8409 82.5559 81.0045 82.5582 81.1731C82.5677 81.8679 82.5738 82.5628 82.5802 83.2578C82.5854 83.7671 82.5923 84.2764 82.5993 84.7857C82.6005 85.022 82.6005 85.022 82.6017 85.2631C82.6038 85.4089 82.6058 85.5548 82.608 85.705C82.6096 85.8973 82.6096 85.8973 82.6113 86.0935C82.6323 86.4697 82.6323 86.4697 82.9584 86.8842C83.2749 86.9469 83.5748 86.9514 83.8969 86.9602C84.1842 87.0375 84.1842 87.0375 84.3758 87.3493C84.4327 87.4983 84.4327 87.4983 84.4907 87.6504C83.5006 88.6352 82.8106 88.9682 81.4357 89.0773C80.6285 89.0503 79.798 88.8871 79.1768 88.3453C78.668 87.7575 78.668 87.7575 78.668 87.3439C78.5919 87.4032 78.5159 87.4624 78.4376 87.5235C76.833 88.7535 75.6685 89.1945 73.6114 89.0294C72.6379 88.7618 71.7826 88.2556 71.1981 87.4205C70.693 86.4104 70.6746 85.143 71.0161 84.0782C72.1555 82.4978 73.5346 81.9013 75.3736 81.4063C75.4935 81.374 75.6135 81.3417 75.737 81.3084C76.6074 81.0876 77.4667 80.9757 78.3615 80.9083C78.349 80.3495 78.3317 79.791 78.3137 79.2324C78.3085 78.9976 78.3085 78.9976 78.3032 78.758C78.2683 77.7654 78.1254 76.9258 77.7486 76.005C77.5033 75.9668 77.2573 75.9324 77.0112 75.8996C76.8743 75.8801 76.7374 75.8605 76.5964 75.8404C76.2108 75.8153 76.2108 75.8153 75.947 76.0547C75.5043 76.6518 75.428 77.3572 75.3161 78.0736C75.1906 78.7885 75.0267 79.2832 74.5308 79.8357C73.9323 80.1916 73.3781 80.2034 72.6921 80.1422C72.1226 79.8833 71.7978 79.5959 71.4662 79.0696C71.3168 78.1817 71.3987 77.3594 71.9259 76.6179C73.9176 74.3467 78.3167 74.0865 80.8461 75.5944ZM75.3933 83.0667C74.793 83.772 74.772 84.5133 74.7876 85.4034C74.8571 85.9749 75.0694 86.3067 75.4502 86.731C75.9357 87.0547 76.0151 87.0804 76.5611 87.0279C76.6725 87.0198 76.7839 87.0117 76.8987 87.0033C77.5108 86.8165 77.977 86.6526 78.3615 86.1181C78.4968 85.384 78.4623 84.6683 78.4286 83.925C78.4237 83.7238 78.4189 83.5226 78.4139 83.3154C78.4013 82.8191 78.3836 82.3236 78.3615 81.8277C77.1371 81.8277 76.2993 82.2651 75.3933 83.0667Z" fill="white" fill-opacity="0.58"/>
<path d="M126.627 70.3354C131.077 70.3354 135.526 70.3354 140.111 70.3354C140.283 72.9212 140.283 72.9212 140.274 74.0034C140.273 74.1099 140.273 74.2165 140.272 74.3263C140.27 74.5794 140.267 74.8325 140.264 75.0855C139.908 75.0508 139.908 75.0508 139.498 74.9323C139.264 74.6409 139.264 74.6409 139.071 74.2631C138.964 74.0596 138.964 74.0596 138.854 73.8519C138.782 73.7091 138.71 73.5663 138.636 73.4192C138.491 73.1383 138.346 72.8578 138.199 72.5776C138.136 72.4526 138.073 72.3276 138.007 72.1988C137.757 71.773 137.551 71.4824 137.08 71.3057C136.633 71.2388 136.194 71.2207 135.742 71.2063C135.569 71.2005 135.396 71.1947 135.218 71.1886C135 71.182 134.782 71.1754 134.557 71.1686C133.861 71.1465 133.166 71.1244 132.45 71.1016C132.45 73.6299 132.45 76.1581 132.45 78.763C133.613 78.7125 134.776 78.6619 135.974 78.6098C136.075 78.4076 136.176 78.2053 136.28 77.9969C136.485 77.5883 136.689 77.1797 136.893 76.7711C137.146 76.7711 137.399 76.7711 137.659 76.7711C137.659 78.4397 137.659 80.1084 137.659 81.8276C136.893 81.6744 136.893 81.6744 136.595 81.2961C136.507 81.1428 136.419 80.9896 136.328 80.8316C136.02 80.2313 136.02 80.2313 135.514 79.8356C135.281 79.8125 135.048 79.7975 134.814 79.7872C134.608 79.7775 134.608 79.7775 134.398 79.7677C134.254 79.7617 134.111 79.7557 133.963 79.7495C133.746 79.7395 133.746 79.7395 133.524 79.7294C133.166 79.7131 132.808 79.6975 132.45 79.6824C132.468 80.6969 132.487 81.7113 132.507 82.7257C132.513 83.0708 132.52 83.4159 132.526 83.761C132.535 84.257 132.544 84.753 132.554 85.2489C132.557 85.4033 132.56 85.5577 132.562 85.7167C132.567 85.9329 132.567 85.9329 132.571 86.1535C132.575 86.3434 132.575 86.3434 132.579 86.5371C132.603 86.8801 132.641 87.1729 132.756 87.4971C133.111 87.6722 133.111 87.6722 133.532 87.7652C133.743 87.8209 133.743 87.8209 133.959 87.8778C134.067 87.9038 134.176 87.9299 134.288 87.9568C134.288 88.159 134.288 88.3613 134.288 88.5697C131.76 88.5697 129.232 88.5697 126.627 88.5697C126.627 88.3674 126.627 88.1652 126.627 87.9568C127.158 87.8051 127.158 87.8051 127.7 87.6503C127.821 87.2206 127.872 86.838 127.874 86.3919C127.875 86.2643 127.876 86.1367 127.877 86.0053C127.877 85.7972 127.877 85.7972 127.877 85.585C127.879 85.3644 127.879 85.3644 127.88 85.1394C127.882 84.6532 127.883 84.167 127.884 83.6807C127.885 83.343 127.886 83.0052 127.887 82.6674C127.888 81.9595 127.889 81.2516 127.89 80.5437C127.89 79.6357 127.894 78.7279 127.898 77.82C127.901 77.1225 127.902 76.425 127.902 75.7275C127.903 75.3927 127.904 75.058 127.906 74.7232C127.909 74.2555 127.908 73.7878 127.907 73.3201C127.91 73.1121 127.91 73.1121 127.912 72.8999C127.909 72.1609 127.909 72.1609 127.645 71.4825C127.332 71.1996 127.026 71.0778 126.627 70.9484C126.627 70.7461 126.627 70.5438 126.627 70.3354Z" fill="white" fill-opacity="0.58"/>
<path d="M101.768 75.9033C103.148 76.9215 104.04 78.3085 104.412 79.9885C104.736 82.1525 104.609 84.4976 103.382 86.366C102.223 87.9167 100.793 88.7195 98.8954 89.029C96.7737 89.1498 94.8124 88.9972 93.0727 87.6499C91.589 86.2638 90.8413 84.606 90.73 82.5736C90.6678 80.5584 90.9896 78.9137 92.1533 77.2303C92.245 77.0913 92.3366 76.9522 92.4311 76.809C94.8272 74.3443 98.9374 74.0568 101.768 75.9033ZM95.984 76.311C94.481 78.7266 94.9706 83.3053 95.4184 85.9889C95.6119 86.7835 95.8548 87.3916 96.4725 87.9564C97.2899 88.247 97.9894 88.2313 98.7901 87.8989C99.8632 86.8507 99.979 85.3184 99.9972 83.8869C99.9978 83.7646 99.9985 83.6423 99.9991 83.5163C100 83.3216 100 83.3216 100.002 83.123C100.003 82.8492 100.004 82.5754 100.005 82.3016C100.006 81.8891 100.011 81.4766 100.016 81.064C100.092 78.4932 100.092 78.4932 99.1157 76.196C98.5136 75.6402 98.0893 75.6447 97.2931 75.6561C96.7084 75.719 96.4072 75.9085 95.984 76.311Z" fill="white" fill-opacity="0.58"/>
<path d="M169.448 75.8037C170.495 76.6857 171.158 77.8736 171.373 79.2227C171.485 81.2967 171.485 81.2967 171.219 81.8276C168.539 81.8276 165.86 81.8276 163.098 81.8276C163.465 84.2248 163.465 84.2248 164.669 86.185C165.901 86.8853 167.077 87.063 168.452 86.7213C169.198 86.4843 169.718 86.0876 170.299 85.5703C170.607 85.3518 170.607 85.3518 171.219 85.3518C171.116 86.4823 170.482 87.0477 169.687 87.8035C168.21 89.0278 166.333 89.1781 164.488 89.0617C162.675 88.8763 161.113 88.0201 159.967 86.616C159.104 85.3764 158.792 84.0815 158.655 82.5937C158.644 82.4758 158.633 82.3579 158.621 82.2364C158.541 80.4358 159.072 78.5363 160.206 77.1349C162.534 74.6284 166.493 73.7948 169.448 75.8037ZM164.018 76.3113C163.134 77.6594 163.098 79.3518 163.098 80.9082C164.565 80.9082 166.031 80.9082 167.542 80.9082C167.556 80.1924 167.556 80.1924 167.571 79.4621C167.575 79.3146 167.579 79.1672 167.583 79.0153C167.593 78.0291 167.501 77.025 166.892 76.2099C166.484 75.8146 166.105 75.6461 165.55 75.6122C164.895 75.6622 164.505 75.8573 164.018 76.3113Z" fill="white" fill-opacity="0.58"/>
<path d="M38.2051 75.871C39.2409 76.7583 39.9695 78.0227 40.0797 79.397C40.0888 79.7417 40.0878 80.0847 40.0822 80.4296C40.082 80.6068 40.082 80.6068 40.0819 80.7875C40.075 81.653 40.075 81.653 39.9002 81.8278C39.6463 81.8421 39.3917 81.8458 39.1373 81.8452C38.9747 81.8452 38.8122 81.8452 38.6447 81.8452C38.4678 81.8444 38.291 81.8436 38.1088 81.8428C37.9287 81.8426 37.7487 81.8423 37.5632 81.8421C36.9855 81.8413 36.4078 81.8393 35.8301 81.8374C35.4395 81.8366 35.049 81.8359 34.6584 81.8353C33.6986 81.8336 32.7389 81.831 31.7791 81.8278C31.8469 82.2183 31.9161 82.6085 31.9862 82.9986C32.0051 83.1081 32.0239 83.2177 32.0434 83.3306C32.242 84.4243 32.586 85.358 33.3497 86.1853C34.5876 86.8886 35.7634 87.0656 37.1421 86.712C37.8284 86.4927 38.3111 86.1572 38.8641 85.704C39.1975 85.4586 39.4885 85.3778 39.9002 85.3521C39.9566 85.8545 39.9329 86.0695 39.647 86.4959C38.1437 88.1226 36.7575 89.0013 34.5103 89.0913C32.547 89.1224 30.8226 88.676 29.3274 87.3441C27.5583 85.5137 27.416 83.4747 27.4468 81.0563C27.5116 78.9889 28.3658 77.6813 29.8158 76.2733C32.07 74.3361 35.7763 74.1559 38.2051 75.871ZM32.6985 76.3116C31.8897 77.6738 31.7791 79.3608 31.7791 80.9084C33.2455 80.9084 34.7119 80.9084 36.2227 80.9084C36.2322 80.4028 36.2417 79.8971 36.2514 79.3762C36.2556 79.2193 36.2598 79.0625 36.2641 78.9009C36.2738 77.8311 36.1628 76.9373 35.447 76.0913C34.952 75.6921 34.5771 75.6435 33.9387 75.6586C33.3737 75.7292 33.1082 75.9205 32.6985 76.3116Z" fill="white" fill-opacity="0.58"/>
<path d="M45.8776 69.2628C46.0308 69.416 46.0308 69.416 46.0488 69.7084C46.048 69.9019 46.048 69.9019 46.0472 70.0993C46.0468 70.3207 46.0468 70.3207 46.0465 70.5466C46.0449 70.7914 46.0449 70.7914 46.0433 71.0413C46.0429 71.2122 46.0424 71.3831 46.0419 71.5592C46.0408 71.9318 46.0394 72.3043 46.0376 72.6769C46.035 73.266 46.0334 73.8551 46.0321 74.4443C46.0284 76.1198 46.0229 77.7954 46.0161 79.4709C46.0119 80.4944 46.0094 81.5179 46.0077 82.5414C46.0067 82.9322 46.0052 83.323 46.0031 83.7138C46.0001 84.2601 45.9991 84.8063 45.9984 85.3526C45.9971 85.515 45.9958 85.6773 45.9944 85.8445C45.9946 85.9934 45.9948 86.1423 45.995 86.2957C45.9945 86.4249 45.994 86.5541 45.9935 86.6872C46.0354 87.0807 46.1211 87.3195 46.3373 87.6503C46.8021 87.9211 46.8021 87.9211 47.2566 88.11C47.2566 88.2617 47.2566 88.4134 47.2566 88.5696C44.9812 88.5696 42.7057 88.5696 40.3613 88.5696C40.3613 88.3674 40.3613 88.1651 40.3613 87.9567C40.5067 87.8935 40.6521 87.8303 40.8019 87.7652C41.308 87.4818 41.3901 87.4011 41.5872 86.8841C41.6321 86.5728 41.6321 86.5728 41.625 86.2445C41.626 86.055 41.626 86.055 41.627 85.8617C41.6261 85.7245 41.6253 85.5872 41.6244 85.4458C41.6247 85.3002 41.625 85.1547 41.6253 85.0047C41.6258 84.5234 41.6242 84.0422 41.6225 83.561C41.6223 83.2266 41.6222 82.8923 41.6223 82.558C41.622 81.8573 41.6208 81.1566 41.6187 80.4558C41.6161 79.5572 41.6155 78.6586 41.6156 77.76C41.6156 77.0696 41.6147 76.3792 41.6136 75.6889C41.6131 75.3575 41.6128 75.0261 41.6127 74.6947C41.6124 74.2318 41.6111 73.7689 41.6094 73.306C41.6095 73.1688 41.6096 73.0315 41.6096 72.8901C41.609 72.7638 41.6083 72.6375 41.6076 72.5074C41.6073 72.3433 41.6073 72.3433 41.6069 72.1759C41.5862 71.853 41.5218 71.5656 41.4339 71.2548C41.08 71.1536 40.726 71.0525 40.3613 70.9483C40.3613 70.7461 40.3613 70.5438 40.3613 70.3354C40.9741 70.181 41.5873 70.0283 42.2009 69.8771C42.4092 69.8256 42.6174 69.7735 42.8255 69.7211C43.1261 69.6453 43.4271 69.5712 43.7282 69.4974C43.999 69.43 43.999 69.43 44.2753 69.3613C44.8237 69.2593 45.321 69.2346 45.8776 69.2628Z" fill="white" fill-opacity="0.58"/>
<path d="M152.831 74.9326C153.097 75.1986 153.085 75.577 153.147 75.9381C153.174 76.0932 153.201 76.2483 153.229 76.408C153.259 76.5879 153.259 76.5879 153.291 76.7713C153.361 76.6917 153.432 76.6121 153.505 76.5301C154.357 75.6191 155.225 74.8945 156.494 74.7171C157.272 74.692 157.893 74.7051 158.5 75.239C158.617 75.337 158.734 75.435 158.855 75.5359C159.265 76.2797 159.226 77.0144 159.113 77.8439C158.928 78.3384 158.674 78.6589 158.214 78.9357C157.569 79.2008 156.857 79.1959 156.202 78.959C155.596 78.6365 155.231 78.2297 154.823 77.6907C154.671 77.6401 154.519 77.5896 154.363 77.5375C154.243 77.6765 154.123 77.8156 153.999 77.9589C153.932 78.0371 153.864 78.1153 153.795 78.1959C153.39 78.7301 153.252 79.1462 153.251 79.8164C153.25 79.9642 153.249 80.112 153.248 80.2643C153.249 80.423 153.249 80.5816 153.25 80.7451C153.25 80.9091 153.249 81.073 153.249 81.242C153.249 81.5886 153.249 81.9352 153.251 82.2818C153.252 82.8118 153.251 83.3417 153.249 83.8716C153.249 84.2085 153.249 84.5454 153.25 84.8823C153.249 85.0406 153.249 85.199 153.248 85.3622C153.249 85.5104 153.25 85.6587 153.251 85.8115C153.251 85.9413 153.251 86.0712 153.252 86.2049C153.314 86.8048 153.477 87.2236 153.903 87.6506C154.259 87.7608 154.616 87.8637 154.976 87.957C154.976 88.1593 154.976 88.3616 154.976 88.57C152.549 88.57 150.122 88.57 147.621 88.57C147.672 88.3677 147.722 88.1654 147.774 87.957C148.076 87.7939 148.382 87.6401 148.694 87.4974C148.901 87.0826 148.869 86.7556 148.872 86.2913C148.873 86.1026 148.875 85.9139 148.876 85.7195C148.877 85.5127 148.877 85.3058 148.878 85.099C148.879 84.8875 148.88 84.676 148.881 84.4646C148.882 84.0211 148.883 83.5776 148.884 83.1341C148.885 82.5656 148.888 81.9971 148.893 81.4286C148.895 80.9918 148.896 80.555 148.897 80.1182C148.897 79.9085 148.898 79.6989 148.9 79.4893C148.903 79.1963 148.902 78.9032 148.902 78.6101C148.902 78.4433 148.903 78.2765 148.903 78.1046C148.881 77.6893 148.881 77.6893 148.639 77.4148C148.32 77.1821 147.992 77.055 147.621 76.9246C147.621 76.7223 147.621 76.52 147.621 76.3116C148.264 76.0885 148.907 75.8676 149.551 75.6486C149.77 75.5738 149.989 75.4984 150.208 75.4225C150.522 75.3133 150.837 75.2062 151.153 75.0996C151.342 75.0346 151.531 74.9696 151.726 74.9026C152.19 74.7863 152.399 74.7485 152.831 74.9326Z" fill="white" fill-opacity="0.58"/>
<path d="M145.782 74.9323C145.783 75.0868 145.784 75.2413 145.785 75.4004C145.793 76.8547 145.804 78.309 145.818 79.7633C145.825 80.511 145.831 81.2587 145.835 82.0064C145.839 82.7277 145.845 83.449 145.853 84.1703C145.855 84.4458 145.857 84.7212 145.858 84.9967C145.86 85.382 145.864 85.7671 145.869 86.1523C145.869 86.2668 145.868 86.3812 145.868 86.499C145.878 87.1057 145.878 87.1057 146.14 87.6386C146.415 87.8315 146.415 87.8315 146.854 87.9568C146.854 88.1591 146.854 88.3613 146.854 88.5697C144.68 88.5697 142.506 88.5697 140.266 88.5697C140.266 88.3674 140.266 88.1652 140.266 87.9568C140.414 87.8841 140.563 87.8114 140.716 87.7365C141.155 87.5428 141.155 87.5428 141.338 87.3439C141.353 87.0383 141.356 86.7322 141.356 86.4263C141.356 86.2299 141.356 86.0336 141.356 85.8313C141.355 85.6155 141.354 85.3996 141.353 85.1837C141.353 84.9641 141.353 84.7444 141.353 84.5248C141.352 83.9456 141.35 83.3665 141.349 82.7874C141.347 82.1968 141.346 81.6063 141.346 81.0157C141.344 79.8562 141.341 78.6967 141.338 77.5372C140.984 77.3855 140.63 77.2338 140.266 77.0775C140.266 76.8247 140.266 76.5719 140.266 76.3114C140.927 76.088 141.59 75.8671 142.253 75.6483C142.478 75.5736 142.704 75.4982 142.928 75.4222C143.252 75.3128 143.577 75.2059 143.902 75.0993C144.002 75.065 144.102 75.0307 144.205 74.9954C144.801 74.8027 145.179 74.7872 145.782 74.9323Z" fill="white" fill-opacity="0.58"/>
<path d="M53.5377 74.9323C53.5883 79.1292 53.6389 83.3262 53.691 87.6503C54.146 87.802 54.146 87.802 54.6103 87.9567C54.6103 88.159 54.6103 88.3613 54.6103 88.5696C52.436 88.5696 50.2617 88.5696 48.0215 88.5696C48.0215 88.3674 48.0215 88.1651 48.0215 87.9567C48.5524 87.805 48.5524 87.805 49.0941 87.6503C49.2069 87.0433 49.2671 86.4681 49.2696 85.851C49.2706 85.6817 49.2715 85.5125 49.2725 85.3381C49.2727 85.1576 49.2729 84.977 49.2731 84.791C49.2736 84.6037 49.2741 84.4163 49.2746 84.2233C49.2754 83.828 49.2757 83.4328 49.2757 83.0375C49.276 82.4326 49.2788 81.8277 49.2817 81.2227C49.2822 80.8384 49.2825 80.454 49.2826 80.0696C49.2843 79.7983 49.2843 79.7983 49.286 79.5216C49.2855 79.3528 49.285 79.184 49.2845 79.0102C49.2848 78.8622 49.285 78.7142 49.2852 78.5618C49.2436 78.1093 49.1533 77.7856 48.9409 77.3839C48.4766 77.1737 48.4766 77.1737 48.0215 77.0775C48.072 76.8246 48.1226 76.5718 48.1747 76.3113C48.8393 76.0883 49.5046 75.8673 50.1705 75.6483C50.3969 75.5735 50.6231 75.4981 50.8491 75.4221C51.1742 75.313 51.5 75.206 51.8259 75.0993C51.9266 75.065 52.0274 75.0307 52.1311 74.9953C52.7057 74.8098 52.9307 74.7805 53.5377 74.9323Z" fill="white" fill-opacity="0.58"/>
<path d="M145.104 69.5213C145.741 70.1256 145.963 70.5298 145.995 71.4079C145.973 72.0427 145.901 72.4441 145.477 72.9402C144.787 73.5613 144.288 73.7548 143.351 73.7393C142.642 73.6676 142.12 73.392 141.589 72.9307C141.188 72.2055 141.097 71.4495 141.244 70.6322C141.454 70.0279 141.805 69.6453 142.378 69.3639C143.305 69.0892 144.233 69.109 145.104 69.5213Z" fill="white" fill-opacity="0.58"/>
<path d="M52.8587 69.5214C53.4956 70.1257 53.718 70.5299 53.7493 71.408C53.7276 72.0428 53.6553 72.4442 53.2321 72.9403C52.5421 73.5613 52.0432 73.7549 51.1061 73.7393C50.3968 73.6676 49.8752 73.392 49.344 72.9307C48.9864 72.2844 48.9111 71.6827 48.9417 70.9483C49.1712 70.2962 49.4868 69.8611 50.0143 69.416C50.9441 69.1061 51.9731 69.1019 52.8587 69.5214Z" fill="white" fill-opacity="0.58"/>
<path d="M99.9666 11.189C99.8516 11.6391 99.8516 11.6391 99.6601 12.1083C99.3345 12.2424 99.3345 12.2424 99.0472 12.2616C98.9966 12.4638 98.9461 12.6661 98.894 12.8745C98.7928 12.8745 98.6917 12.8745 98.5875 12.8745C98.5638 12.993 98.5638 12.993 98.5396 13.1139C98.3971 13.6192 98.187 14.0798 97.9746 14.56C97.924 14.56 97.8734 14.56 97.8214 14.56C97.7708 14.2566 97.7202 13.9532 97.6681 13.6406C97.1267 13.9414 96.7112 14.2598 96.2891 14.7132C96.5146 13.8667 97.117 13.3688 97.7256 12.7787C97.8287 12.6764 97.9318 12.5741 98.038 12.4687C99.3382 11.189 99.3382 11.189 99.9666 11.189Z" fill="white" fill-opacity="0.58"/>
<path d="M92.1528 26.5122C92.254 26.5122 92.3551 26.5122 92.4593 26.5122C92.8111 28.6012 92.8111 28.6012 92.7658 29.5768C92.7152 29.5768 92.6646 29.5768 92.6125 29.5768C92.4608 29.0206 92.3091 28.4643 92.1528 27.8913C91.7483 28.3969 91.3438 28.9026 90.927 29.4236C90.1609 29.2703 90.1609 29.2703 89.7012 28.9639C89.7517 28.7616 89.8023 28.5593 89.8544 28.351C90.0061 28.5785 90.0061 28.5785 90.1609 28.8106C90.5285 28.7907 90.5285 28.7907 90.927 28.6574C91.2072 28.3302 91.2072 28.3302 91.4154 27.92C91.4903 27.7863 91.5651 27.6526 91.6423 27.5148C91.8164 27.1824 91.9872 26.8489 92.1528 26.5122Z" fill="white" fill-opacity="0.58"/>
<path d="M98.7395 15.48C98.7901 15.48 98.8407 15.48 98.8928 15.48C98.8892 15.5993 98.8857 15.7186 98.882 15.8415C98.8614 17.1195 98.9477 18.3586 99.0902 19.6278C99.1642 20.2926 99.2166 20.9387 99.1992 21.6091C99.1487 21.6091 99.0981 21.6091 99.046 21.6091C98.6974 20.7444 98.6339 19.8857 98.5576 18.9659C98.5431 18.8148 98.5285 18.6637 98.5136 18.508C98.4299 17.5387 98.4092 16.5944 98.5863 15.6332C98.6369 15.5826 98.6874 15.5321 98.7395 15.48Z" fill="white" fill-opacity="0.58"/>
<path d="M90.4758 48.5674C90.6986 48.5721 90.6986 48.5721 90.9259 48.577C90.9259 48.6781 90.9259 48.7792 90.9259 48.8834C89.864 49.111 89.864 49.111 88.7807 49.3431C89.3369 49.3937 89.8931 49.4442 90.4662 49.4963C90.5168 49.648 90.5674 49.7997 90.6194 49.956C89.6365 50.0215 88.7982 49.7809 87.8613 49.4963C88.1678 49.0366 88.1678 49.0366 88.561 48.9301C88.7125 48.9084 88.864 48.8866 89.0201 48.8643C89.557 48.7847 89.9646 48.5778 90.4758 48.5674Z" fill="white" fill-opacity="0.58"/>
<path d="M88.4754 23.1411C88.4754 23.6008 88.4754 23.6008 88.2552 23.8306C88.1762 23.9065 88.0972 23.9823 88.0158 24.0605C87.9652 24.2122 87.9146 24.3639 87.8625 24.5202C87.7614 24.5202 87.6603 24.5202 87.5561 24.5202C87.5561 24.6213 87.5561 24.7224 87.5561 24.8266C87.2245 25.1761 86.8876 25.509 86.5218 25.8226C86.2952 26.0495 86.2952 26.0495 86.3015 26.4164C86.1001 27.0672 85.5288 27.2756 84.9512 27.5848C85.7085 25.9618 87.214 24.4025 88.4754 23.1411Z" fill="white" fill-opacity="0.58"/>
<path d="M74.2242 45.0527C74.2748 45.0527 74.3254 45.0527 74.3775 45.0527C74.4097 46.0429 74.3715 46.8593 74.071 47.8109C73.9568 48.4219 73.8594 49.0353 73.7646 49.6496C73.714 49.6496 73.6634 49.6496 73.6113 49.6496C73.8353 45.4417 73.8353 45.4417 74.2242 45.0527Z" fill="white" fill-opacity="0.58"/>
<path d="M99.9673 11.189C99.8662 11.4924 99.765 11.7958 99.6608 12.1083C99.3574 12.1589 99.054 12.2095 98.7415 12.2616C98.6909 12.4133 98.6403 12.565 98.5882 12.7213C98.4365 12.7718 98.2848 12.8224 98.1285 12.8745C97.9768 13.102 97.9768 13.102 97.8221 13.3342C97.721 13.3342 97.6198 13.3342 97.5156 13.3342C97.9126 12.4401 98.9359 11.189 99.9673 11.189Z" fill="white" fill-opacity="0.58"/>
<path d="M96.9028 48.1172C97.004 48.2183 97.1051 48.3194 97.2093 48.4236C96.8649 48.6 96.5201 48.7754 96.175 48.9504C96.0292 49.0252 96.0292 49.0252 95.8805 49.1015C95.4114 49.3385 94.9712 49.5562 94.4512 49.6495C94.6053 49.2395 94.6875 49.0705 95.0892 48.8761C95.2137 48.8406 95.3381 48.805 95.4663 48.7684C95.6542 48.7127 95.6542 48.7127 95.8458 48.6559C95.9418 48.6298 96.0378 48.6037 96.1367 48.5769C96.1367 48.4757 96.1367 48.3746 96.1367 48.2704C96.5006 48.1746 96.5006 48.1746 96.9028 48.1172Z" fill="white" fill-opacity="0.58"/>
<path d="M82.1923 45.2061C82.47 45.3018 82.47 45.3018 82.8052 45.5125C82.8716 45.6579 82.9379 45.8033 83.0063 45.953C83.3517 46.5927 83.6935 46.7289 84.3375 47.0448C84.2869 47.1965 84.2364 47.3482 84.1843 47.5045C83.6723 47.2818 83.3315 46.9995 82.9393 46.6043C82.8346 46.5004 82.7299 46.3965 82.6221 46.2894C82.3606 45.9895 82.197 45.7223 82.0391 45.3593C82.0896 45.3087 82.1402 45.2582 82.1923 45.2061Z" fill="white" fill-opacity="0.58"/>
<path d="M76.6743 34.3271C76.7755 34.3271 76.8766 34.3271 76.9808 34.3271C76.7765 35.4508 76.5722 36.5745 76.3679 37.6982C76.2162 37.7488 76.0645 37.7993 75.9082 37.8514C75.939 37.6979 75.939 37.6979 75.9705 37.5414C76.0381 37.2023 76.105 36.8631 76.1716 36.5238C76.2115 36.3215 76.2514 36.1192 76.2913 35.9169C76.3212 35.7634 76.3212 35.7634 76.3517 35.6068C76.4385 35.1688 76.5329 34.7514 76.6743 34.3271Z" fill="white" fill-opacity="0.58"/>
<path d="M93.5311 20.3828C93.6322 20.4839 93.7333 20.5851 93.8375 20.6893C93.7801 21.2447 93.7801 21.2447 93.6843 21.7619C93.7854 21.7619 93.8866 21.7619 93.9908 21.7619C93.9029 22.3551 93.6097 22.6938 93.2246 23.1409C93.3723 21.1996 93.3723 21.1996 93.5311 20.3828Z" fill="white" fill-opacity="0.58"/>
<path d="M109.926 29.883C110.027 29.9841 110.128 30.0852 110.232 30.1894C109.777 30.1894 109.322 30.1894 108.853 30.1894C108.803 30.3411 108.752 30.4928 108.7 30.6491C108.599 30.6491 108.498 30.6491 108.394 30.6491C108.293 31.1042 108.191 31.5593 108.087 32.0282C108.037 32.0282 107.986 32.0282 107.934 32.0282C107.889 31.2661 107.909 30.7956 108.394 30.1894C108.884 29.8341 109.332 29.8313 109.926 29.883Z" fill="white" fill-opacity="0.58"/>
<path d="M101.191 42.7544C101.296 43.0058 101.296 43.0058 101.345 43.3673C101.158 43.7959 101.158 43.7959 100.894 44.2484C100.808 44.3993 100.721 44.5502 100.632 44.7057C100.564 44.8202 100.495 44.9348 100.425 45.0528C100.375 45.0528 100.324 45.0528 100.272 45.0528C100.201 44.0397 100.59 43.528 101.191 42.7544Z" fill="white" fill-opacity="0.58"/>
<path d="M90.1594 24.6729C90.411 25.176 90.2002 25.6928 90.0924 26.2243C90.0697 26.3398 90.0471 26.4554 90.0238 26.5744C89.9678 26.8601 89.9105 27.1456 89.8529 27.431C89.7518 27.431 89.6507 27.431 89.5465 27.431C89.5105 26.549 89.547 25.812 89.8529 24.9793C89.9541 24.8782 90.0552 24.777 90.1594 24.6729Z" fill="white" fill-opacity="0.58"/>
<path d="M82.346 31.7217C82.3966 31.7217 82.4472 31.7217 82.4993 31.7217C82.5782 32.5504 82.3511 32.8907 81.8864 33.5604C81.7557 33.9158 81.6685 34.2638 81.5799 34.633C81.4788 34.633 81.3776 34.633 81.2734 34.633C81.3755 33.9574 81.6207 33.3665 81.8959 32.7464C81.9391 32.6475 81.9822 32.5487 82.0267 32.4468C82.1325 32.2048 82.2392 31.9632 82.346 31.7217Z" fill="white" fill-opacity="0.58"/>
<path d="M90.4758 48.5674C90.6986 48.5721 90.6986 48.5721 90.9259 48.577C90.9259 48.6781 90.9259 48.7792 90.9259 48.8834C89.9201 49.2114 88.9195 49.3431 87.8613 49.3431C88.2476 48.9568 88.4864 48.9567 89.0201 48.8738C89.5562 48.7895 89.9641 48.5778 90.4758 48.5674Z" fill="white" fill-opacity="0.58"/>
<path d="M64.112 33.1006C64.1626 33.1006 64.2132 33.1006 64.2653 33.1006C64.2653 33.8085 64.2653 34.5164 64.2653 35.2458C64.063 35.2458 63.8607 35.2458 63.6523 35.2458C63.804 34.5379 63.9557 33.83 64.112 33.1006Z" fill="white" fill-opacity="0.58"/>
<path d="M83.7239 29.27C83.8771 29.5765 83.8771 29.5765 83.7622 30.0457C83.699 30.1943 83.6358 30.3428 83.5706 30.4959C83.419 30.5464 83.2673 30.597 83.111 30.6491C82.9225 31.1872 82.9225 31.1872 82.8045 31.7217C82.7034 31.7217 82.6022 31.7217 82.498 31.7217C82.7386 30.8074 83.2259 30.0624 83.7239 29.27Z" fill="white" fill-opacity="0.58"/>
<path d="M84.7963 27.5845C84.9564 28.0646 84.9395 28.1958 84.7963 28.6571C84.6952 28.6571 84.5941 28.6571 84.4899 28.6571C84.4393 28.8593 84.3887 29.0616 84.3366 29.27C84.1849 29.27 84.0332 29.27 83.877 29.27C84.0992 28.6403 84.415 28.1311 84.7963 27.5845Z" fill="white" fill-opacity="0.58"/>
<path d="M93.8377 46.4316C93.8377 46.5833 93.8377 46.735 93.8377 46.8913C93.7365 46.9925 93.6354 47.0936 93.5312 47.1978C93.3795 47.1978 93.2278 47.1978 93.0715 47.1978C93.021 47.4 92.9704 47.6023 92.9183 47.8107C92.5643 47.9118 92.2104 48.013 91.8457 48.1172C91.9606 47.8203 91.9606 47.8203 92.1522 47.5042C92.4682 47.4085 92.4682 47.4085 92.7651 47.351C92.8156 47.2499 92.8662 47.1488 92.9183 47.0446C93.1709 46.8867 93.4263 46.7333 93.6845 46.5849C93.735 46.5343 93.7856 46.4837 93.8377 46.4316Z" fill="white" fill-opacity="0.58"/>
<path d="M86.0238 26.2056C86.1249 26.3573 86.226 26.509 86.3302 26.6653C85.9403 27.1201 85.489 27.3336 84.9512 27.5846C85.1894 26.9998 85.5696 26.6358 86.0238 26.2056Z" fill="white" fill-opacity="0.58"/>
<path d="M99.5074 11.189C99.6591 11.189 99.8108 11.189 99.9671 11.189C99.8426 11.6391 99.8426 11.6391 99.6607 12.1083C99.509 12.1589 99.3573 12.2095 99.201 12.2616C99.0999 12.1604 98.9987 12.0593 98.8945 11.9551C98.9957 11.9551 99.0968 11.9551 99.201 11.9551C99.2342 11.8082 99.2342 11.8082 99.268 11.6582C99.3542 11.3422 99.3542 11.3422 99.5074 11.189Z" fill="white" fill-opacity="0.58"/>
<path d="M80.66 36.1655C80.7105 36.1655 80.7611 36.1655 80.8132 36.1655C81.06 37.3967 81.06 37.3967 80.6696 38.0139C80.5653 38.1118 80.461 38.2098 80.3535 38.3107C80.3753 38.0681 80.3978 37.8255 80.4206 37.5829C80.433 37.4478 80.4454 37.3127 80.4583 37.1735C80.501 36.8254 80.5662 36.5029 80.66 36.1655Z" fill="white" fill-opacity="0.58"/>
<path d="M93.5303 49.4958C93.5809 49.597 93.6315 49.6981 93.6836 49.8023C93.1206 49.9825 92.585 49.9668 91.998 49.9555C92.4125 49.3705 92.8593 49.4579 93.5303 49.4958Z" fill="white" fill-opacity="0.58"/>
<path d="M90.3135 41.2217C90.3135 41.7777 90.1254 41.9905 89.7689 42.402C89.462 42.6774 89.1868 42.7308 88.7812 42.754C89.292 42.2432 89.8028 41.7324 90.3135 41.2217Z" fill="white" fill-opacity="0.58"/>
<path d="M88.626 42.7544C88.626 43.2141 88.626 43.2141 88.3196 43.6738C88.3196 43.5726 88.3196 43.4715 88.3196 43.3673C88.2311 43.421 88.1426 43.4748 88.0514 43.5301C87.7067 43.6738 87.7067 43.6738 87.0938 43.5205C87.5994 43.2677 88.1051 43.0149 88.626 42.7544Z" fill="white" fill-opacity="0.58"/>
<path d="M79.5875 26.9717C79.6887 26.9717 79.7898 26.9717 79.894 26.9717C79.7169 27.5711 79.5331 28.0251 79.1278 28.504C79.0773 28.2511 79.0267 27.9983 78.9746 27.7378C79.1263 27.6367 79.278 27.5356 79.4343 27.4314C79.4849 27.2797 79.5354 27.128 79.5875 26.9717Z" fill="white" fill-opacity="0.58"/>
<path d="M91.2329 39.6895C91.2835 39.6895 91.3341 39.6895 91.3862 39.6895C91.3356 40.0434 91.285 40.3974 91.2329 40.7621C91.0812 40.8126 90.9295 40.8632 90.7733 40.9153C90.7733 41.0164 90.7733 41.1175 90.7733 41.2217C90.6721 41.1712 90.571 41.1206 90.4668 41.0685C90.5648 40.9263 90.6627 40.7841 90.7637 40.6376C91.0929 40.1733 91.0929 40.1733 91.2329 39.6895Z" fill="white" fill-opacity="0.58"/>
<path d="M84.0296 9.81006C84.0296 10.2697 84.0296 10.2697 83.7232 10.7294C83.321 10.8348 83.321 10.8348 82.957 10.8827C83.3146 10.5251 83.6721 10.1676 84.0296 9.81006Z" fill="white" fill-opacity="0.58"/>
</g>
<defs>
<clipPath id="clip0_2009_1572">
<rect width="192" height="90" fill="white"/>
</clipPath>
</defs>
</svg>
