<svg width="57" height="57" viewBox="0 0 57 57" fill="none" xmlns="http://www.w3.org/2000/svg">
<path d="M53.5965 28.874C54.1263 28.874 54.5236 28.4767 54.5236 27.9469C54.5236 27.7261 54.4353 27.5054 54.3029 27.3729C54.2587 27.2846 41.9409 15.9823 41.9409 15.9823L52.8018 28.3884C52.9342 28.6974 53.2433 28.874 53.5965 28.874ZM56.113 35.1874L56.0247 35.0991L29.1816 10.596L53.7731 37.3508L53.8614 37.4391C54.1263 37.704 54.5236 37.8806 54.9651 37.8806C55.8481 37.8806 56.5545 37.1742 56.5545 36.2912C56.5545 35.8938 56.3779 35.4965 56.113 35.1874ZM44.2367 51.7878L5.38491 15.8057L41.1904 54.8782C41.5877 55.3197 42.1617 55.6288 42.8239 55.6288C44.016 55.6288 44.9873 54.6575 44.9873 53.4654C44.9873 52.8032 44.7224 52.1851 44.2367 51.7878ZM0.925781 0.883057L48.4309 51.4787L48.4751 51.5229C48.8724 51.9202 49.4022 52.1409 49.9762 52.1409C51.1682 52.1409 52.1395 51.1697 52.1395 49.9776C52.1395 49.5361 52.0071 49.0946 51.7422 48.7414C51.6097 48.5207 0.925781 0.883057 0.925781 0.883057ZM54.9651 41.8541L16.1133 5.87198L51.9188 44.9445C52.3161 45.386 52.8901 45.6951 53.5523 45.6951C54.7444 45.6951 55.7157 44.7238 55.7157 43.5317C55.7157 42.8253 55.4066 42.2514 54.9651 41.8541ZM36.2015 52.8032L36.1132 52.7149L9.27009 28.2118L33.8615 54.9665L33.9498 55.0548C34.2147 55.3197 34.6121 55.4963 35.0536 55.4963C35.9366 55.4963 36.643 54.7899 36.643 53.9069C36.643 53.4654 36.4664 53.1122 36.2015 52.8032ZM15.5394 40.4854L26.4002 52.8915C26.5768 53.1564 26.8417 53.3771 27.1949 53.3771C27.7247 53.3771 28.122 52.9798 28.122 52.45C28.122 52.2293 28.0337 52.0085 27.9013 51.8761C27.813 51.8319 15.5394 40.4854 15.5394 40.4854Z" fill="#DF5052"/>
</svg>
