<svg width="29" height="29" viewBox="0 0 29 29" fill="none" xmlns="http://www.w3.org/2000/svg">
<rect width="29" height="29" rx="4" fill="#99CBEA" fill-opacity="0.23"/>
<g clip-path="url(#clip0_1380_1388)">
<path d="M13.6089 7C15.4343 7 17.0859 7.73242 18.2814 8.91772C19.477 10.1018 20.2177 11.7388 20.2177 13.5454C20.2177 14.8674 19.8221 16.0979 19.1405 17.1282L22.0012 20.2153L20.0292 22.0012L17.2695 18.9946C16.2219 19.6868 14.9622 20.0908 13.6089 20.0908C11.7835 20.0908 10.1319 19.3584 8.93632 18.1731C7.73952 16.9878 7 15.3521 7 13.5454C7 11.7375 7.73952 10.1018 8.93509 8.9165C10.1319 7.73242 11.7835 7 13.6089 7ZM13.7457 12.0269L13.9293 11.3347L12.8866 10.9722L15.0041 9.8479L16.1306 11.9744L15.0226 11.6326L14.8685 12.3589L13.7457 12.0269ZM17.2523 17.0085H10.6569C10.5251 17.0085 10.3993 16.9561 10.3057 16.8633C10.2169 16.7754 10.1615 16.6521 10.1615 16.5178L10.1602 11.2847H10.9071V16.2688H17.2523V17.0085ZM15.6179 13.5088H16.5731C16.6274 13.5088 16.6705 13.5527 16.6705 13.6052V15.5754C16.6705 15.6292 16.6261 15.6719 16.5731 15.6719H15.6179C15.5637 15.6719 15.5205 15.6279 15.5205 15.5754V13.6064C15.5193 13.5527 15.5637 13.5088 15.6179 13.5088ZM11.8537 12.3027H12.809C12.8632 12.3027 12.9063 12.3467 12.9063 12.3992V15.5767C12.9063 15.6304 12.862 15.6731 12.809 15.6731H11.8537C11.7995 15.6731 11.7564 15.6292 11.7564 15.5767V12.4004C11.7564 12.3467 11.7995 12.3027 11.8537 12.3027ZM14.8168 12.9424V15.5779C14.8168 15.6316 14.7724 15.6743 14.7194 15.6743H13.7654C13.7112 15.6743 13.668 15.6304 13.668 15.5779V12.6165L14.7009 12.9204C14.7169 12.9253 14.733 12.929 14.749 12.9326C14.7699 12.9363 14.7933 12.9399 14.8168 12.9424ZM17.7601 9.43286C16.6976 8.38062 15.2297 7.72998 13.6089 7.72998C11.9881 7.72998 10.5201 8.38062 9.45768 9.43286C8.394 10.4851 7.73706 11.939 7.73706 13.5454C7.73706 15.1506 8.394 16.6045 9.45645 17.6567C10.5189 18.709 11.9869 19.3596 13.6076 19.3596C15.2297 19.3596 16.6964 18.709 17.7588 17.6567C18.8213 16.6045 19.4782 15.1506 19.4782 13.5454C19.4795 11.939 18.8225 10.4851 17.7601 9.43286Z" fill="#92CDF4"/>
</g>
<defs>
<clipPath id="clip0_1380_1388">
<rect width="15" height="15" fill="white" transform="translate(7 7)"/>
</clipPath>
</defs>
</svg>
