<svg width="52" height="49" viewBox="0 0 52 49" fill="none" xmlns="http://www.w3.org/2000/svg">
<path d="M9.96178 3.0625H41.9191C45.4344 3.0625 48.3106 5.81875 48.3106 9.1875V39.8125C48.3106 43.1813 45.4344 45.9375 41.9191 45.9375H9.96178C6.44647 45.9375 3.57031 43.1813 3.57031 39.8125V9.1875C3.57031 5.81875 6.44647 3.0625 9.96178 3.0625Z" fill="black"/>
<path d="M44.3173 24.5C44.3173 22.05 41.2813 20.0594 36.8073 18.6812C37.9258 14.2406 37.4464 10.7188 35.3692 9.64688C34.73 9.34063 34.2507 9.1875 33.6115 9.1875C31.5343 9.1875 28.9777 10.5656 26.4211 13.0156C23.7048 10.5656 21.1482 9.1875 19.0709 9.1875C18.4318 9.1875 17.7927 9.34063 17.3133 9.64688C15.2361 10.7188 14.7567 14.2406 15.8752 18.6812C11.4012 20.0594 8.36523 22.05 8.36523 24.5C8.36523 26.95 11.4012 28.9406 15.8752 30.3187C14.7567 34.7594 15.0763 38.2812 17.3133 39.5062C17.7927 39.8125 18.4318 39.9656 19.0709 39.9656C21.1482 39.9656 23.7048 38.5875 26.2614 36.1375C28.8179 38.5875 31.5343 39.9656 33.4518 39.9656C34.0909 39.9656 34.73 39.8125 35.2094 39.5062C37.2866 38.2812 37.766 34.7594 36.6475 30.3187C41.2813 28.9406 44.3173 26.7969 44.3173 24.5ZM33.6115 10.8719C33.9311 10.8719 34.2507 10.8719 34.4105 11.025C35.3692 11.6375 35.8486 13.6281 35.529 16.2312C35.3692 16.8438 35.3692 17.6094 35.2094 18.2219C33.7713 17.9156 32.1735 17.6094 30.5756 17.4562C29.6169 16.2312 28.6582 15.0062 27.6994 14.0875C29.9364 11.9437 32.1735 10.8719 33.6115 10.8719ZM31.2147 27.2562C30.7354 28.175 30.0962 28.9406 29.6169 29.8594C28.4984 29.8594 27.5396 30.0125 26.4211 30.0125C25.3026 30.0125 24.1841 30.0125 23.2254 29.8594C22.5863 29.0937 22.1069 28.175 21.6275 27.2562C21.1482 26.3375 20.6688 25.4187 20.1895 24.5C20.6688 23.5812 21.1482 22.6625 21.6275 21.7437C22.1069 20.825 22.746 19.9062 23.3852 19.1406C24.3439 19.1406 25.4624 18.9875 26.5809 18.9875C27.6994 18.9875 28.6582 18.9875 29.7767 19.1406C30.4158 19.9062 30.8952 20.825 31.5343 21.7437C32.0137 22.6625 32.493 23.5812 32.9724 24.5C32.3332 25.4187 31.6941 26.3375 31.2147 27.2562ZM33.6115 26.4906C33.9311 27.4094 34.2507 28.175 34.5703 29.0937C33.6115 29.2469 32.6528 29.4 31.6941 29.5531C32.0137 29.0937 32.3332 28.6344 32.6528 28.0219C32.9724 27.5625 33.292 26.95 33.6115 26.4906ZM26.2614 33.6875C25.6222 33.075 24.9831 32.3094 24.3439 31.5437C24.9831 31.5437 25.6222 31.5437 26.2614 31.5437C26.9005 31.5437 27.5396 31.5437 28.1788 31.5437C27.5396 32.3094 26.9005 33.075 26.2614 33.6875ZM20.8286 29.5531C19.8699 29.4 18.9112 29.2469 17.9524 29.0937C18.272 28.175 18.5916 27.4094 18.9112 26.4906C19.2307 26.95 19.5503 27.5625 19.8699 28.0219C20.1895 28.6344 20.509 29.0937 20.8286 29.5531ZM19.0709 22.5094C18.7514 21.5906 18.4318 20.6719 18.1122 19.9062C19.0709 19.7531 20.0297 19.6 20.9884 19.4469C20.6688 19.9062 20.3492 20.5187 20.0297 20.9781C19.5503 21.4375 19.2307 22.05 19.0709 22.5094ZM26.2614 15.3125C26.9005 15.925 27.5396 16.6906 28.1788 17.4562C27.5396 17.4562 26.9005 17.4562 26.2614 17.4562C25.6222 17.4562 24.9831 17.4562 24.3439 17.4562C24.9831 16.6906 25.6222 15.925 26.2614 15.3125ZM32.6528 20.9781C32.3332 20.3656 32.0137 19.9062 31.6941 19.4469C32.6528 19.6 33.6115 19.7531 34.5703 19.9062C34.2507 20.825 33.9311 21.7437 33.6115 22.5094C33.292 22.05 32.9724 21.4375 32.6528 20.9781ZM17.1535 16.2312C16.8339 13.6281 17.1535 11.6375 18.272 11.025C18.4318 10.8719 18.7514 10.8719 19.0709 10.8719C20.509 10.8719 22.746 11.9438 25.1428 14.2406C24.1841 15.3125 23.2254 16.3844 22.2667 17.6094C20.6688 17.7625 19.0709 18.0687 17.6329 18.375C17.3133 17.6094 17.1535 16.8438 17.1535 16.2312ZM14.2773 27.8687C11.7208 26.7969 10.1229 25.5719 10.1229 24.3469C10.1229 23.275 11.7208 21.8969 14.2773 20.825C14.9165 20.5187 15.5556 20.3656 16.3546 20.2125C16.8339 21.5906 17.3133 22.9687 17.9524 24.3469C17.3133 25.725 16.6741 27.1031 16.3546 28.4812C15.5556 28.4812 14.9165 28.175 14.2773 27.8687ZM18.272 37.975C17.3133 37.3625 16.8339 35.3719 17.1535 32.7687C17.3133 32.1562 17.3133 31.3906 17.6329 30.625C19.0709 30.9312 20.509 31.2375 22.1069 31.3906C23.0656 32.6156 24.0243 33.8406 25.1428 34.9125C22.746 37.0562 20.509 38.2812 19.0709 38.2812C18.7514 38.1281 18.4318 38.1281 18.272 37.975ZM35.529 32.7687C35.8486 35.3719 35.529 37.3625 34.4105 37.975C34.2507 38.1281 33.9311 38.1281 33.6115 38.1281C32.1735 38.1281 29.9364 37.0562 27.5396 34.7594C28.4984 33.6875 29.6169 32.6156 30.5756 31.2375C32.1735 31.0844 33.7713 30.9312 35.0496 30.4719C35.2094 31.3906 35.3692 32.1562 35.529 32.7687ZM38.4051 27.8687C37.766 28.175 37.1269 28.3281 36.3279 28.6344C35.8486 27.2563 35.3692 25.8781 34.73 24.5C35.3692 23.1219 36.0083 21.5906 36.3279 20.3656C37.1269 20.5187 37.766 20.825 38.4051 20.9781C40.9617 22.05 42.5596 23.275 42.5596 24.5C42.5596 25.5719 40.9617 26.95 38.4051 27.8687Z" fill="white"/>
<path d="M26.4219 27.7157C28.3394 27.7157 29.7774 26.3375 29.7774 24.5C29.7774 22.6625 28.3394 21.2844 26.4219 21.2844C24.5045 21.2844 23.0664 22.6625 23.0664 24.5C23.0664 26.3375 24.5045 27.7157 26.4219 27.7157Z" fill="white"/>
</svg>
