<svg width="192" height="50" viewBox="0 0 192 50" fill="none" xmlns="http://www.w3.org/2000/svg">
<g clip-path="url(#clip0_2009_1576)">
<path d="M30.8874 0.936836C31.9075 1.54151 32.7913 2.2898 33.5731 3.1457C34.2956 3.9162 35.0776 4.63065 35.8575 5.35014C36.0249 5.50507 36.1922 5.66004 36.3595 5.81504C36.7177 6.14689 37.0762 6.47853 37.4348 6.81001C38.0032 7.33538 38.5707 7.86145 39.1382 8.38766C40.7512 9.88328 42.3648 11.3783 43.9799 12.8719C44.8736 13.6982 45.7664 14.5253 46.6583 15.3532C47.2208 15.8753 47.7843 16.3965 48.3486 16.917C48.7009 17.2425 49.0523 17.5689 49.4035 17.8955C49.565 18.0454 49.7269 18.195 49.8893 18.3441C51.1184 19.4739 52.3684 20.6646 52.9938 22.1903C53.0511 22.3259 53.1083 22.4615 53.1673 22.6012C53.7508 24.1688 53.7133 26.2652 53.0397 27.7948C52.9471 27.9713 52.9471 27.9713 52.8527 28.1515C52.794 28.2663 52.7354 28.3811 52.675 28.4994C52.2586 29.2191 51.7183 29.8116 51.1205 30.4057C51.0409 30.4853 50.9614 30.5648 50.8794 30.6468C50.0776 31.4443 49.2518 32.2188 48.4196 32.9888C48.2563 33.1404 48.0931 33.292 47.9299 33.4436C47.5829 33.766 47.2356 34.0881 46.8881 34.4101C46.3376 34.9203 45.7877 35.4309 45.2378 35.9417C44.0718 37.0248 42.905 38.1072 41.7382 39.1896C40.4754 40.3612 39.2126 41.5328 37.9506 42.7052C37.405 43.212 36.859 43.7185 36.3127 44.2247C35.9725 44.54 35.6327 44.8557 35.2929 45.1714C35.1364 45.3167 34.9797 45.462 34.8229 45.607C34.0496 46.3226 33.2914 47.0405 32.587 47.8157C31.4942 48.9652 29.639 49.9003 27.9788 50.025C24.7956 50.1015 24.7956 50.1015 23.3397 49.44C23.2145 49.3838 23.0893 49.3277 22.9603 49.2698C21.5281 48.546 20.3753 47.4306 19.297 46.3115C17.9351 44.9224 16.4832 43.6119 15.0496 42.2873C14.5141 41.7925 13.9794 41.297 13.4449 40.8014C11.9263 39.3935 10.407 37.9863 8.88614 36.5805C8.0428 35.8009 7.20029 35.0206 6.35866 34.2394C5.8287 33.7476 5.29777 33.2567 4.76608 32.7665C4.43479 32.4606 4.10446 32.1538 3.77439 31.8468C3.6225 31.7059 3.47023 31.5653 3.31753 31.4251C2.15362 30.356 1.07159 29.256 0.470963 27.8188C0.412344 27.682 0.353726 27.5451 0.29333 27.4041C-0.302698 25.8418 -0.255966 23.7331 0.415085 22.2062C0.477004 22.0883 0.538922 21.9704 0.602717 21.849C0.693266 21.6743 0.693266 21.6743 0.785644 21.4961C1.74994 19.8452 3.42176 18.5058 4.84047 17.1933C5.00074 17.0445 5.16097 16.8957 5.32117 16.7468C5.66223 16.43 6.00352 16.1135 6.345 15.797C6.88602 15.2958 7.42643 14.7939 7.96677 14.292C9.11292 13.2274 10.2597 12.1635 11.4066 11.0997C12.6473 9.94866 13.888 8.79755 15.1279 7.64577C15.6641 7.14773 16.2007 6.65004 16.7375 6.15262C17.0719 5.84262 17.406 5.53231 17.7401 5.22194C17.8939 5.07909 18.0479 4.93637 18.202 4.79378C18.9691 4.08398 19.7204 3.37033 20.4233 2.60472C23.0419 -0.235893 27.4204 -0.846964 30.8874 0.936836ZM26.0655 18.3138C25.9839 18.3899 25.9024 18.4661 25.8183 18.5445C25.7342 18.6227 25.65 18.7008 25.5632 18.7814C25.3841 18.9479 25.2051 19.1147 25.0263 19.2816C24.7562 19.5335 24.4853 19.7847 24.2144 20.0359C23.4276 20.7673 22.6537 21.4988 21.9319 22.2869C21.428 22.8189 20.8794 23.3114 20.3376 23.8097C20.1616 23.9725 20.1616 23.9725 19.982 24.1385C19.6962 24.4028 19.4101 24.6666 19.1236 24.9302C19.906 25.805 20.7562 26.5977 21.6284 27.3946C22.1361 27.8617 22.6313 28.3303 23.0962 28.8348C23.7615 29.5541 24.4882 30.2151 25.2125 30.8826C25.3514 31.0111 25.4903 31.1397 25.6334 31.2721C25.9727 31.5861 26.3124 31.8997 26.6524 32.2131C27.4161 31.6181 28.1337 30.9969 28.8358 30.3399C28.9299 30.2528 29.024 30.1658 29.121 30.0762C29.5834 29.6452 30.0294 29.2083 30.455 28.7456C31.1737 27.9717 31.9611 27.2603 32.7413 26.5408C32.8961 26.3975 33.0509 26.2542 33.2057 26.1108C33.5807 25.7636 33.9561 25.4168 34.3318 25.0702C33.4761 24.1025 32.5188 23.2343 31.5609 22.3557C30.784 21.6423 30.0224 20.9258 29.3123 20.1537C28.8565 19.6709 28.3656 19.2206 27.8758 18.7677C27.7741 18.6726 27.6724 18.5774 27.5676 18.4794C27.471 18.3897 27.3743 18.2999 27.2747 18.2075C27.144 18.0862 27.144 18.0862 27.0107 17.9624C26.5787 17.5983 26.4117 17.9938 26.0655 18.3138Z" fill="#D0E2F3" fill-opacity="0.52"/>
<path d="M33.1263 2.94092C34.0916 3.68187 34.9722 4.49599 35.8567 5.31787C36.024 5.47282 36.1913 5.62775 36.3586 5.78265C36.8107 6.20135 37.2624 6.6205 37.7138 7.0398C37.9966 7.30241 38.2795 7.56493 38.5623 7.82743C39.4495 8.65067 40.3363 9.47419 41.2227 10.2981C42.2421 11.2457 43.2625 12.1923 44.2838 13.1382C45.0758 13.8718 45.867 14.6063 46.6574 15.3414C47.1284 15.7793 47.5997 16.2168 48.0719 16.6535C48.5165 17.0647 48.9599 17.4769 49.4026 17.8899C49.5642 18.0403 49.7261 18.1903 49.8884 18.3399C51.116 19.4717 52.3674 20.6638 52.993 22.1899C53.0789 22.3932 53.0789 22.3932 53.1665 22.6007C53.75 24.1683 53.7124 26.2647 53.0389 27.7943C52.9771 27.912 52.9154 28.0297 52.8518 28.151C52.7932 28.2658 52.7346 28.3807 52.6742 28.499C52.2578 29.2185 51.7176 29.8109 51.1199 30.4048C51.0404 30.4844 50.9608 30.5639 50.8789 30.6458C50.0751 31.4455 49.2477 32.2224 48.414 32.995C48.2502 33.1472 48.0865 33.2995 47.9228 33.4519C47.4849 33.8592 47.0465 34.2662 46.608 34.6731C46.1465 35.1015 45.6854 35.5303 45.2242 35.959C44.3531 36.7689 43.4815 37.5784 42.6098 38.3878C41.6192 39.3076 40.6291 40.2278 39.6391 41.1479C37.947 42.7206 36.2546 44.293 34.5618 45.865C34.4227 45.9942 34.2837 46.1233 34.1404 46.2564C34.0202 46.368 33.9 46.4796 33.7761 46.5946C33.4088 46.9359 33.0417 47.2773 32.6746 47.6188C32.8522 47.2851 33.0344 46.9542 33.2199 46.6242C34.3142 44.6497 34.9145 42.8943 34.2462 40.6598C33.6301 39.0746 32.7044 37.8791 31.3994 36.7251C31.2669 36.6044 31.1343 36.4838 30.9977 36.3595C30.5797 35.9792 30.1594 35.6012 29.7384 35.2238C29.1794 34.7225 28.623 34.2189 28.0679 33.7139C27.9387 33.5995 27.8095 33.4851 27.6763 33.3673C27.5592 33.2606 27.442 33.1539 27.3212 33.0439C27.2171 32.9507 27.1129 32.8575 27.0056 32.7615C26.8021 32.4927 26.8021 32.4927 26.8285 32.1963C27.001 31.8298 27.2479 31.6133 27.5562 31.3351C27.68 31.2219 27.8039 31.1087 27.9315 30.9921C28.0619 30.8749 28.1923 30.7577 28.3267 30.637C29.358 29.7098 29.358 29.7098 30.326 28.7265C31.0345 27.9568 31.8168 27.2533 32.5899 26.5404C32.7447 26.3971 32.8995 26.2537 33.0543 26.1103C33.4292 25.7631 33.8047 25.4163 34.1804 25.0698C33.3246 24.102 32.3674 23.2338 31.4094 22.3553C30.6305 21.64 29.8687 20.921 29.1575 20.1464C28.6387 19.6036 28.0588 19.1122 27.4868 18.6184C27.3959 18.5368 27.3051 18.4552 27.2115 18.3712C27.1291 18.2991 27.0467 18.227 26.9618 18.1527C26.8021 17.9269 26.8021 17.9269 26.8337 17.6663C26.9829 17.2905 27.1829 17.1067 27.4922 16.8283C27.6063 16.7245 27.7205 16.6206 27.8381 16.5135C27.9625 16.4022 28.0868 16.2909 28.215 16.1762C28.4773 15.9368 28.7397 15.6974 29.002 15.4579C29.4156 15.0827 29.8298 14.708 30.2449 14.3342C30.646 13.9723 31.0445 13.6082 31.4429 13.2438C31.5655 13.1347 31.688 13.0257 31.8143 12.9133C33.4685 11.3946 34.4777 9.52561 34.5286 7.35268C34.5156 5.91725 34.076 4.67748 33.2699 3.46011C33.1263 3.22103 33.1263 3.22103 33.1263 2.94092Z" fill="#FEFEFE" fill-opacity="0.59"/>
</g>
<path d="M69.9091 32H63.0087V31.328H65.0762V17.1653H63.0087V16.4934H71.0463C72.4074 16.4934 73.5618 16.8121 74.5094 17.4496C75.6293 18.225 76.1893 19.2501 76.1893 20.5251C76.1893 20.9903 76.1118 21.4469 75.9567 21.8949C75.4398 23.2732 74.3026 24.1864 72.5452 24.6344L76.6545 31.328H77.3781C77.4815 31.328 77.5763 31.3367 77.6624 31.3539C77.9036 31.3883 78.0242 31.6037 78.0242 32H73.8633L69.8316 24.8928H67.8416V31.328H69.9091V32ZM69.9608 17.1653H67.8416V24.1433H70.09C70.7792 24.1433 71.3822 23.9452 71.8991 23.5489C72.7434 22.8769 73.1655 21.8949 73.1655 20.6026C73.1655 20.0685 73.0707 19.5602 72.8812 19.0778C72.3816 17.8028 71.4081 17.1653 69.9608 17.1653ZM81.6941 26.4435C81.6941 27.012 81.72 27.5289 81.7717 27.9941C82.0129 30.4063 82.995 31.6123 84.7179 31.6123C86.6649 31.5779 87.6556 29.8205 87.69 26.3401C87.69 25.6681 87.6556 25.0565 87.5867 24.5051C87.2938 22.3687 86.3289 21.3004 84.6921 21.3004C82.8658 21.4383 81.8664 23.1526 81.6941 26.4435ZM84.7696 20.6543C86.0446 20.6543 87.1731 20.9903 88.1552 21.6623C89.6714 22.7305 90.4295 24.307 90.4295 26.3918C90.4295 27.9424 89.9557 29.2605 89.0081 30.346C87.8882 31.6209 86.4323 32.2584 84.6404 32.2584C83.3309 32.2584 82.1766 31.8794 81.1773 31.1213C79.6955 30.0186 78.9546 28.4249 78.9546 26.3401C78.9546 24.8411 79.4112 23.5747 80.3244 22.541C81.4443 21.2832 82.9261 20.6543 84.7696 20.6543ZM94.3062 36.1093C94.5302 36.1093 94.7455 36.0662 94.9523 35.98C95.7793 35.6527 96.6408 34.4035 97.5367 32.2326L92.7297 21.6364H91.5408V20.9645H96.994V21.6364H95.3141L98.6997 29.4414L101.801 21.6364H99.8886V20.9645H103.869C103.869 21.1023 103.86 21.2143 103.843 21.3004C103.791 21.5244 103.584 21.6364 103.222 21.6364C103.102 21.6364 102.99 21.645 102.887 21.6623C102.663 21.7139 102.464 21.9724 102.292 22.4376L98.4413 32.1292C98.0795 33.0424 97.7004 33.8263 97.3041 34.4811C96.3221 36.1351 95.1332 36.9621 93.7376 36.9621C93.2552 36.9621 92.8158 36.876 92.4196 36.7037C91.6959 36.3591 91.3341 35.8853 91.3341 35.2822C91.3341 35.1961 91.3427 35.1099 91.3599 35.0238C91.4978 34.5069 91.851 34.2485 92.4196 34.2485C92.6608 34.2485 92.8675 34.3088 93.0398 34.4294C93.2293 34.55 93.4275 34.8946 93.6342 35.4631C93.7893 35.8939 94.0133 36.1093 94.3062 36.1093ZM114 32.2584C112.707 32.2412 111.932 31.4659 111.674 29.9325C111.536 30.277 111.338 30.6044 111.079 30.9145C110.287 31.8105 109.236 32.2584 107.926 32.2584C107.392 32.2584 106.901 32.1723 106.453 32C105.264 31.5348 104.67 30.613 104.67 29.2347C104.67 28.9762 104.696 28.7264 104.747 28.4852C105.178 26.6588 107.461 25.7198 111.596 25.6681V24.0141C111.579 22.2394 110.872 21.3349 109.477 21.3004C109.132 21.3004 108.839 21.3607 108.598 21.4813C108.271 21.6709 107.995 22.1102 107.771 22.7994C107.719 22.9717 107.676 23.1009 107.642 23.1871C107.435 23.7556 107.065 24.0399 106.531 24.0399C106.393 24.0399 106.255 24.0227 106.117 23.9882C105.6 23.8332 105.342 23.48 105.342 22.9286C105.342 22.6357 105.436 22.3428 105.626 22.0499C106.264 21.1195 107.625 20.6543 109.709 20.6543C112.587 20.6716 114.043 22.0068 114.077 24.6602V30.0875C114.094 30.9318 114.31 31.3711 114.723 31.4056C115.257 31.3883 115.585 30.7681 115.705 29.5448L116.377 29.5706C116.36 29.9669 116.308 30.3201 116.222 30.6302C115.947 31.7157 115.206 32.2584 114 32.2584ZM108.986 31.1988C109.244 31.1988 109.511 31.1385 109.787 31.0179C110.7 30.6216 111.303 29.8205 111.596 28.6144V26.3659C110.58 26.3832 109.753 26.4693 109.115 26.6244C107.874 26.9345 107.254 27.6754 107.254 28.847C107.254 29.0882 107.271 29.3122 107.306 29.5189C107.478 30.6389 108.038 31.1988 108.986 31.1988ZM122.993 31.3539C123.097 31.3539 123.192 31.3625 123.278 31.3797C123.502 31.4314 123.614 31.6382 123.614 32H117.178V31.3539C117.73 31.3539 118.143 31.3108 118.419 31.2247C118.901 31.0696 119.143 30.613 119.143 29.8549V15.8473H117.178V15.2012H121.624V31.3539H122.993ZM124.673 21.6623V21.0161H126.482V18.5609L128.963 18.0182V21.0161H132.711V21.6623H128.963V29.5189C128.981 30.8112 129.429 31.4745 130.307 31.509C131.169 31.4917 131.789 30.7164 132.168 29.183L132.866 29.3122C132.814 29.5879 132.745 29.8549 132.659 30.1134C132.177 31.5606 131.203 32.2843 129.739 32.2843C129.601 32.2843 129.455 32.2757 129.299 32.2584C127.421 32.0861 126.482 30.8715 126.482 28.6144V21.6623H124.673ZM143.075 32.2584C141.782 32.2412 141.007 31.4659 140.749 29.9325C140.611 30.277 140.413 30.6044 140.154 30.9145C139.362 31.8105 138.311 32.2584 137.001 32.2584C136.467 32.2584 135.976 32.1723 135.528 32C134.339 31.5348 133.745 30.613 133.745 29.2347C133.745 28.9762 133.771 28.7264 133.822 28.4852C134.253 26.6588 136.536 25.7198 140.671 25.6681V24.0141C140.654 22.2394 139.947 21.3349 138.552 21.3004C138.207 21.3004 137.914 21.3607 137.673 21.4813C137.346 21.6709 137.07 22.1102 136.846 22.7994C136.794 22.9717 136.751 23.1009 136.717 23.1871C136.51 23.7556 136.14 24.0399 135.605 24.0399C135.468 24.0399 135.33 24.0227 135.192 23.9882C134.675 23.8332 134.417 23.48 134.417 22.9286C134.417 22.6357 134.511 22.3428 134.701 22.0499C135.338 21.1195 136.7 20.6543 138.784 20.6543C141.662 20.6716 143.118 22.0068 143.152 24.6602V30.0875C143.169 30.9318 143.385 31.3711 143.798 31.4056C144.332 31.3883 144.66 30.7681 144.78 29.5448L145.452 29.5706C145.435 29.9669 145.383 30.3201 145.297 30.6302C145.021 31.7157 144.281 32.2584 143.075 32.2584ZM138.061 31.1988C138.319 31.1988 138.586 31.1385 138.862 31.0179C139.775 30.6216 140.378 29.8205 140.671 28.6144V26.3659C139.654 26.3832 138.827 26.4693 138.19 26.6244C136.949 26.9345 136.329 27.6754 136.329 28.847C136.329 29.0882 136.346 29.3122 136.381 29.5189C136.553 30.6389 137.113 31.1988 138.061 31.1988ZM145.659 32C145.659 31.8794 145.668 31.7674 145.685 31.664C145.719 31.4917 145.866 31.3883 146.124 31.3539C146.624 31.285 147.055 31.0265 147.416 30.5786L150.388 26.7536L146.899 21.6106H145.685V20.9645H151.19V21.6106H149.587L152.094 25.3322L154.834 21.6106H153.076V20.9645H156.927C156.927 21.0851 156.918 21.1971 156.901 21.3004C156.85 21.4727 156.694 21.5675 156.436 21.5847C155.902 21.6536 155.463 21.9207 155.118 22.3859L152.508 25.9524L156.152 31.3539H156.669C156.755 31.3539 156.841 31.3625 156.927 31.3797C157.186 31.4142 157.315 31.6209 157.315 32H152.017V31.3539H153.541L150.828 27.348L147.727 31.3539H149.613V32H145.659ZM163.517 31.3539C163.638 31.3539 163.741 31.3625 163.828 31.3797C164.052 31.4142 164.164 31.6209 164.164 32H158.038V31.3539C158.469 31.3539 158.805 31.328 159.046 31.2764C159.598 31.1213 159.873 30.6561 159.873 29.8808V21.6106H158.038V20.9645H162.354V31.3539H163.517ZM162.639 17.3462C162.639 17.6047 162.587 17.8459 162.484 18.0699C162.191 18.6557 161.7 18.9486 161.011 18.9486C160.769 18.9486 160.537 18.8969 160.313 18.7935C159.71 18.5179 159.408 18.0354 159.408 17.3462C159.408 17.0878 159.468 16.838 159.589 16.5968C159.882 16.011 160.356 15.718 161.011 15.718C161.269 15.718 161.519 15.7784 161.76 15.899C162.346 16.2091 162.639 16.6915 162.639 17.3462Z" fill="white" fill-opacity="0.56"/>
<defs>
<clipPath id="clip0_2009_1576">
<rect width="53.4545" height="50" fill="white"/>
</clipPath>
</defs>
</svg>
