<svg width="53" height="42" viewBox="0 0 53 42" fill="none" xmlns="http://www.w3.org/2000/svg">
<path d="M37.5449 7.20168C38.8944 6.90945 41.4293 2.99879 42.6409 2.44716C43.6916 1.96777 45.0608 2.5194 46.0163 2.28299C46.4268 2.1812 46.3545 1.10749 47.4151 0.949883C50.0616 0.552578 49.7398 4.92949 47.2214 4.11847C46.4399 3.86564 46.3348 3.01521 46.013 2.92656C45.5698 2.80835 43.6686 2.8576 43.1958 2.99551C42.2961 3.26147 38.5726 7.8551 38.2049 7.8551H32.1304V9.82849C33.296 9.6873 34.7966 10.0321 35.8998 9.81864C36.724 9.66103 37.1213 8.68254 37.8699 8.64314C39.9057 8.54135 40.372 11.7165 38.2081 11.8314C36.6616 11.9102 36.504 10.6953 35.9261 10.6132C35.1676 10.5049 33.6999 11.1747 32.6492 10.518C31.9071 10.6953 32.1468 12.1565 32.1304 12.7804H45.4286C45.7504 12.7804 46.8635 10.2783 48.41 12.0974C49.7956 13.726 47.8912 15.509 46.151 14.4385C45.8686 14.2645 45.5928 13.4371 45.4286 13.4371H32.1304C32.1698 14.143 31.848 15.4203 32.6689 15.6895L42.7361 15.729C44.3319 17.6597 45.7865 19.4853 48.6464 18.625C49.2407 18.4444 49.51 17.6104 50.0944 17.4331C51.8544 16.9012 53.0726 18.9369 51.8249 20.1617C50.3735 21.5834 49.8022 19.6626 48.9748 19.4163C47.7927 19.065 46.3808 19.656 45.0214 19.1011C44.2695 18.7957 42.3552 16.3955 42.1451 16.3955H32.1304V18.3656H38.8616C39.643 18.3656 41.449 21.0614 42.2173 21.2748C43.557 21.6491 43.7441 20.27 44.5158 20.0533C46.6205 19.459 47.5235 23.2449 45.0707 23.2876C43.9083 23.3073 43.9379 22.4634 43.2844 22.1548C42.7361 21.8954 42.1221 22.0464 41.472 21.6688C40.5362 21.1303 39.8302 19.3999 38.4675 19.0913C37.6171 18.9008 33.8115 18.8614 32.9545 19.0223C31.7593 19.2423 32.1763 20.3718 32.1337 21.3208C32.7641 21.2321 33.6375 21.4751 34.2023 21.3208C34.593 21.2157 35.4237 18.9369 37.0753 20.4802C38.5037 21.8166 36.7798 23.9968 35.079 23.13C34.3402 22.7524 34.4617 21.2814 32.1337 21.9709L32.4423 24.1282L48.7285 24.2956C49.418 24.358 49.313 23.3894 49.858 23.1136C52.0514 21.9939 53.4042 25.4317 51.1911 26.1114C49.6085 26.5941 49.2145 24.9293 49.047 24.9293H32.1369V26.8994H37.8831C38.1687 26.8994 40.0108 29.5985 41.5146 29.8349C42.2501 29.9531 45.7504 30.0089 46.3545 29.8612C46.7256 29.7692 46.7584 28.9385 47.2312 28.7021C49.8613 27.3788 51.0007 31.3092 48.1112 31.7558C45.9638 29.5985 43.3764 31.0005 40.9072 30.4423C39.4854 30.1206 38.4643 27.914 37.4858 27.6251C36.8849 27.4478 33.6277 27.4347 32.9545 27.5561C31.7593 27.7761 32.1763 28.9057 32.1337 29.8546C34.4617 30.5441 34.3402 29.0764 35.079 28.6955C38.2738 27.0603 38.2771 33.299 35.079 31.6638C34.3402 31.2862 34.4617 29.8152 32.1337 30.5047L32.4423 32.662L44.4402 32.813C45.7733 33.0692 46.3742 35.256 48.0652 35.4563C49.6249 35.6434 49.116 34.6157 50.1733 34.2512C52.695 33.3778 53.1875 37.4395 50.6855 37.4329C49.29 37.4297 49.4049 36.1754 48.9781 36.0801C48.3542 35.9422 47.6876 36.2607 46.9127 35.9192C46.2889 35.6434 45.4154 34.1297 44.7916 33.7718C42.92 32.6981 34.9476 33.9393 32.3208 33.4566L32.0844 37.1932L31.5919 37.6858L14.3994 37.7317C16.3728 29.7955 8.40375 24.1938 1.59375 28.8663V8.83687H8.98164C9.04075 8.83687 9.80252 8.0751 9.80252 8.01599V0.956451H31.6378L32.1304 1.44898V6.70259L32.6229 7.19512C34.0676 6.98825 36.2216 7.48078 37.5482 7.19512L37.5449 7.20168ZM6.18738 11.7986H27.366L27.8552 10.981L27.366 10.4852H6.6799C6.33185 10.4852 6.05604 11.4177 6.18738 11.7986ZM6.18738 14.4254H27.366L27.8552 13.6078L27.366 13.112H6.6799C6.33185 13.112 6.05604 14.0445 6.18738 14.4254ZM6.18738 17.0522H27.366L27.8552 16.2346L27.366 15.7388H6.6799C6.33185 15.7388 6.05604 16.6713 6.18738 17.0522ZM6.18738 19.679H27.366L27.8552 18.8614L27.366 18.3656H6.6799C6.33185 18.3656 6.05604 19.2981 6.18738 19.679ZM6.18738 22.3058H27.366L27.8552 21.4882L27.366 20.9924H6.6799C6.33185 20.9924 6.05604 21.9249 6.18738 22.3058ZM18.6647 23.6192H6.6799C6.33185 23.6192 6.05604 24.5517 6.18738 24.9326H18.6647V23.6192Z" fill="white"/>
<path d="M13.434 35.0622C13.434 38.7463 10.446 41.7343 6.76193 41.7343C3.07784 41.7343 0.0898438 38.7463 0.0898438 35.0622C0.0898438 31.3781 3.07784 28.3901 6.76193 28.3901C10.446 28.3901 13.434 31.3781 13.434 35.0622ZM10.6201 31.5062L5.64882 36.4019L3.06142 34.1297L2.24711 34.6255C2.01726 35.43 5.25152 38.441 5.64882 38.372L11.4114 32.3665L10.6168 31.5062H10.6201Z" fill="white"/>
<path d="M7.82761 6.8735H2.90234L7.82761 1.94824V6.8735Z" fill="white"/>
</svg>
