<svg width="668" height="200" viewBox="0 0 668 200" fill="none" xmlns="http://www.w3.org/2000/svg">
<g clip-path="url(#clip0_2404_4009)">
<path d="M287.85 1.16998C316.3 1.19998 344.76 1.22998 373.21 1.25998C373.25 5.72998 373.3 10.2 373.34 14.66C361.68 14.7 350.02 14.75 338.36 14.79C338.32 38.96 338.28 63.13 338.23 87.3C332.95 87.34 327.68 87.39 322.4 87.43C322.4 63.17 322.4 38.92 322.4 14.66C310.91 14.62 299.42 14.57 287.93 14.53C287.91 10.08 287.88 5.61998 287.85 1.16998Z" fill="url(#paint0_linear_2404_4009)"/>
<path d="M577.4 0.20999C581.88 0.14999 586.36 0.0999902 590.84 0.0399902C590.9 10.78 590.95 21.52 591.01 32.25C611.31 32.25 631.61 32.25 651.9 32.25C651.97 21.5 652.04 10.75 652.12 -0.0100098C656.77 -0.0100098 661.42 -0.0100098 666.08 -0.0100098C665.83 28.19 665.57 56.39 665.32 84.59C660.93 84.56 656.54 84.54 652.16 84.51C652.04 71.32 651.91 58.13 651.79 44.93C631.51 44.99 611.22 45.04 590.94 45.1C590.92 58.26 590.91 71.43 590.89 84.59C586.51 84.59 582.12 84.59 577.74 84.59C577.63 56.47 577.51 28.34 577.4 0.20999Z" fill="url(#paint1_linear_2404_4009)"/>
<path d="M469.861 1.64002C459.741 1.54002 449.561 1.48002 439.311 1.47002C425.661 1.45002 412.121 1.51002 398.711 1.64002C397.251 1.91002 392.661 2.94002 389.011 7.09002C386.211 10.28 385.371 13.7 385.101 15.26C385.091 35.64 385.071 56.03 385.061 76.41C385.241 77.52 385.951 80.86 388.891 83.69C391.601 86.29 394.641 86.95 395.781 87.14C420.551 87.1 445.311 87.05 470.081 87.01C470.121 82.67 470.161 78.33 470.211 73.99C448.001 74.03 425.781 74.08 403.571 74.12C402.551 74.17 400.661 74.11 399.361 72.84C398.081 71.6 397.991 69.8 397.961 68.88C397.821 65.13 397.761 57.47 397.961 47.43C416.641 47.56 435.321 47.69 454.001 47.81C454.001 43.26 454.001 38.7 454.001 34.15C435.401 34.11 416.811 34.06 398.211 34.02C398.211 29.55 398.211 25.08 398.211 20.62C398.581 19.43 399.261 17.94 400.641 16.79C402.421 15.3 404.561 15.07 405.751 15C410.041 14.76 435.421 14.75 470.221 15.13C470.091 10.63 469.971 6.14002 469.861 1.64002Z" fill="url(#paint2_linear_2404_4009)"/>
<path d="M428.29 132.63C420.45 132.55 412.56 132.51 404.61 132.5C394.03 132.49 383.54 132.53 373.15 132.63C372.02 132.84 368.46 133.64 365.63 136.85C363.46 139.32 362.81 141.97 362.6 143.18C362.59 158.98 362.58 174.77 362.57 190.57C362.71 191.43 363.26 194.02 365.54 196.21C367.64 198.22 370 198.73 370.88 198.88C390.07 198.85 409.27 198.81 428.46 198.78C428.49 195.42 428.53 192.05 428.56 188.69C411.35 188.72 394.13 188.76 376.92 188.79C376.13 188.83 374.67 188.78 373.66 187.8C372.67 186.84 372.6 185.45 372.57 184.73C372.46 181.82 372.42 175.89 372.57 168.11C387.05 168.21 401.52 168.31 416 168.41C416 164.88 416 161.35 416 157.82C401.59 157.79 387.18 157.75 372.77 157.72C372.77 154.26 372.77 150.79 372.77 147.33C373.05 146.41 373.59 145.25 374.65 144.36C376.03 143.21 377.69 143.03 378.61 142.97C381.94 142.78 401.61 142.78 428.57 143.07C428.47 139.6 428.38 136.12 428.29 132.63Z" fill="url(#paint3_linear_2404_4009)"/>
<path d="M667.13 131.89C659.18 131.81 651.18 131.77 643.13 131.76C632.4 131.75 621.77 131.79 611.24 131.89C610.09 132.1 606.48 132.91 603.62 136.17C601.42 138.67 600.76 141.36 600.54 142.59C600.53 158.6 600.52 174.61 600.51 190.63C600.66 191.5 601.21 194.13 603.52 196.35C605.65 198.39 608.04 198.91 608.94 199.06C628.4 199.03 647.85 198.99 667.31 198.96C667.34 195.55 667.38 192.14 667.41 188.73C649.96 188.76 632.51 188.8 615.06 188.83C614.26 188.87 612.78 188.82 611.75 187.83C610.74 186.85 610.67 185.45 610.65 184.72C610.54 181.77 610.49 175.76 610.65 167.87C625.32 167.97 640 168.07 654.68 168.17C654.68 164.59 654.68 161.02 654.68 157.44C640.07 157.41 625.46 157.37 610.86 157.34C610.86 153.83 610.86 150.32 610.86 146.81C611.15 145.88 611.69 144.7 612.77 143.8C614.17 142.63 615.85 142.45 616.78 142.4C620.15 142.21 640.09 142.21 667.42 142.5C667.31 138.96 667.22 135.42 667.13 131.89Z" fill="url(#paint4_linear_2404_4009)"/>
<path d="M504.869 132.43C508.889 132.44 512.909 132.45 516.929 132.46C516.889 154.87 516.859 177.28 516.819 199.69C513.009 199.69 509.209 199.69 505.399 199.69C505.229 177.27 505.049 154.85 504.869 132.43Z" fill="url(#paint5_linear_2404_4009)"/>
<path d="M433.119 132.5C437.119 132.5 441.119 132.5 445.119 132.5C451.949 146.71 458.779 160.91 465.599 175.12C472.689 160.89 479.789 146.66 486.879 132.43C491.109 132.45 495.339 132.47 499.569 132.5C488.249 154.9 476.929 177.3 465.599 199.7C454.779 177.29 443.949 154.9 433.119 132.5Z" fill="url(#paint6_linear_2404_4009)"/>
<path d="M564.47 0.770015C547.79 0.730015 531.11 0.680015 514.43 0.640015C510.44 0.960015 498.36 2.44001 488.26 12.13C475.66 24.22 475.53 40.07 475.49 44.3C475.45 49.23 475.54 61.82 484.81 73.02C495.97 86.5 511.99 87.77 514.95 87.95C531.76 87.91 548.56 87.87 565.37 87.83C565.44 83.06 565.52 78.29 565.59 73.51C550.37 73.6 535.15 73.69 519.93 73.78C503.69 73.45 490.65 59.91 490.85 43.91C491.05 28.24 503.9 15.2 519.8 14.8C534.94 14.84 550.07 14.87 565.21 14.91C564.96 10.2 564.71 5.49001 564.47 0.770015Z" fill="url(#paint7_linear_2404_4009)"/>
<path d="M358.05 163.85C357.96 160.28 357.67 148.56 348.26 139.84C341.05 133.15 332.59 132.03 329.57 131.78C315.93 131.98 302.3 132.18 288.66 132.38C288.66 154.55 288.66 176.73 288.66 198.9C314.79 199.23 325.07 199.06 329.57 198.85C329.82 198.84 330.21 198.82 330.71 198.78C339.59 197.98 345.74 192.27 347.53 190.61C358.25 180.66 358.1 165.61 358.05 163.85ZM337.93 180.89C336.81 181.93 332.95 185.51 327.39 186.01C327.09 186.04 326.85 186.05 326.68 186.06C318.13 186.07 309.59 186.08 301.04 186.09C301.04 172.19 301.04 158.29 301.04 144.4C309.59 144.28 318.14 144.15 326.68 144.03C328.57 144.19 333.88 144.89 338.4 149.08C344.29 154.55 344.48 161.89 344.53 164.13C344.55 165.22 344.64 174.65 337.93 180.89Z" fill="url(#paint8_linear_2404_4009)"/>
<path d="M589.4 172.76C588.43 168.81 586.33 166.06 585.42 164.9C585.3 164.74 584.37 163.55 583.47 162.71C579.71 159.15 573.88 159 570.94 158.97C561.49 158.85 555.09 159.24 545.93 159.25C542.02 159.25 536.65 159.19 534.07 155.74C532.72 153.94 532.35 151.52 532.27 150.88C532.17 150.06 531.75 146.8 533.35 144.4C535.87 140.64 541.15 140.88 541.54 140.9C551.97 140.96 562.4 141.01 572.83 141.07C573.19 141.14 574.85 141.49 575.98 143.08C576.96 144.46 576.91 145.9 576.88 146.32C576.88 147.67 576.88 149.02 576.88 150.37C580.45 150.37 584.02 150.37 587.58 150.37C587.64 147.76 587.7 145.15 587.76 142.55C587.52 141.31 586.87 138.93 584.89 136.8C581.79 133.47 577.17 133.26 574.45 133.14C558.37 132.47 543.11 132.44 539.37 132.44C537.97 132.51 531.85 132.98 527.5 137.93C524.34 141.52 523.78 145.56 523.54 147.28C522.88 152.02 524.17 155.68 524.87 157.63C525.57 159.55 526.2 161.25 527.68 162.84C530.43 165.8 534.33 166.4 536.94 166.7C548.76 168.03 561.44 166.09 570.23 167.25C571.5 167.42 574.04 167.83 576.39 169.66C578.7 171.46 579.66 173.72 579.94 174.44C581.45 178.35 580.22 181.81 579.85 182.8C579.56 183.57 578.91 185.28 577.38 186.81C574.96 189.24 571.86 190.06 569.15 190.1C555.61 190.3 545.54 190.03 541.99 189.58C540.85 189.44 539.11 189.12 537.76 187.77C536.48 186.49 536.15 185.01 536.05 184.44C536.05 182.55 536.05 180.66 536.05 178.77C532.57 178.64 529.09 178.52 525.62 178.39C525.67 181.12 525.71 183.86 525.76 186.59C525.95 187.53 526.32 188.89 527.11 190.37C527.11 190.37 528.22 192.45 530.08 194.15C530.82 194.82 533.48 197.09 540.74 198.44C543.74 199 548.13 199.51 553.51 199.07C557.11 199.15 564.73 199.27 571.86 198.89C572.97 198.83 574.84 198.7 577.12 197.93C579.82 197.02 581.71 195.69 582.65 194.95C583.76 194.08 585.33 192.64 586.7 190.53C589.22 186.65 589.52 182.82 589.76 179.92C589.91 177.72 590.09 175.55 589.4 172.76Z" fill="url(#paint9_linear_2404_4009)"/>
<path d="M287.85 1.16998C316.3 1.19998 344.76 1.22998 373.21 1.25998C373.25 5.72998 373.3 10.2 373.34 14.66C361.68 14.7 350.02 14.75 338.36 14.79C338.32 38.96 338.28 63.13 338.23 87.3C332.95 87.34 327.68 87.39 322.4 87.43C322.4 63.17 322.4 38.92 322.4 14.66C310.91 14.62 299.42 14.57 287.93 14.53C287.91 10.08 287.88 5.61998 287.85 1.16998Z" fill="url(#paint10_linear_2404_4009)"/>
<path d="M577.4 0.20999C581.88 0.14999 586.36 0.0999902 590.84 0.0399902C590.9 10.78 590.95 21.52 591.01 32.25C611.31 32.25 631.61 32.25 651.9 32.25C651.97 21.5 652.04 10.75 652.12 -0.0100098C656.77 -0.0100098 661.42 -0.0100098 666.08 -0.0100098C665.83 28.19 665.57 56.39 665.32 84.59C660.93 84.56 656.54 84.54 652.16 84.51C652.04 71.32 651.91 58.13 651.79 44.93C631.51 44.99 611.22 45.04 590.94 45.1C590.92 58.26 590.91 71.43 590.89 84.59C586.51 84.59 582.12 84.59 577.74 84.59C577.63 56.47 577.51 28.34 577.4 0.20999Z" fill="url(#paint11_linear_2404_4009)"/>
<path d="M469.861 1.64002C459.741 1.54002 449.561 1.48002 439.311 1.47002C425.661 1.45002 412.121 1.51002 398.711 1.64002C397.251 1.91002 392.661 2.94002 389.011 7.09002C386.211 10.28 385.371 13.7 385.101 15.26C385.091 35.64 385.071 56.03 385.061 76.41C385.241 77.52 385.951 80.86 388.891 83.69C391.601 86.29 394.641 86.95 395.781 87.14C420.551 87.1 445.311 87.05 470.081 87.01C470.121 82.67 470.161 78.33 470.211 73.99C448.001 74.03 425.781 74.08 403.571 74.12C402.551 74.17 400.661 74.11 399.361 72.84C398.081 71.6 397.991 69.8 397.961 68.88C397.821 65.13 397.761 57.47 397.961 47.43C416.641 47.56 435.321 47.69 454.001 47.81C454.001 43.26 454.001 38.7 454.001 34.15C435.401 34.11 416.811 34.06 398.211 34.02C398.211 29.55 398.211 25.08 398.211 20.62C398.581 19.43 399.261 17.94 400.641 16.79C402.421 15.3 404.561 15.07 405.751 15C410.041 14.76 435.421 14.75 470.221 15.13C470.091 10.63 469.971 6.14002 469.861 1.64002Z" fill="url(#paint12_linear_2404_4009)"/>
<path d="M428.29 132.63C420.45 132.55 412.56 132.51 404.61 132.5C394.03 132.49 383.54 132.53 373.15 132.63C372.02 132.84 368.46 133.64 365.63 136.85C363.46 139.32 362.81 141.97 362.6 143.18C362.59 158.98 362.58 174.77 362.57 190.57C362.71 191.43 363.26 194.02 365.54 196.21C367.64 198.22 370 198.73 370.88 198.88C390.07 198.85 409.27 198.81 428.46 198.78C428.49 195.42 428.53 192.05 428.56 188.69C411.35 188.72 394.13 188.76 376.92 188.79C376.13 188.83 374.67 188.78 373.66 187.8C372.67 186.84 372.6 185.45 372.57 184.73C372.46 181.82 372.42 175.89 372.57 168.11C387.05 168.21 401.52 168.31 416 168.41C416 164.88 416 161.35 416 157.82C401.59 157.79 387.18 157.75 372.77 157.72C372.77 154.26 372.77 150.79 372.77 147.33C373.05 146.41 373.59 145.25 374.65 144.36C376.03 143.21 377.69 143.03 378.61 142.97C381.94 142.78 401.61 142.78 428.57 143.07C428.47 139.6 428.38 136.12 428.29 132.63Z" fill="url(#paint13_linear_2404_4009)"/>
<path d="M667.13 131.89C659.18 131.81 651.18 131.77 643.13 131.76C632.4 131.75 621.77 131.79 611.24 131.89C610.09 132.1 606.48 132.91 603.62 136.17C601.42 138.67 600.76 141.36 600.54 142.59C600.53 158.6 600.52 174.61 600.51 190.63C600.66 191.5 601.21 194.13 603.52 196.35C605.65 198.39 608.04 198.91 608.94 199.06C628.4 199.03 647.85 198.99 667.31 198.96C667.34 195.55 667.38 192.14 667.41 188.73C649.96 188.76 632.51 188.8 615.06 188.83C614.26 188.87 612.78 188.82 611.75 187.83C610.74 186.85 610.67 185.45 610.65 184.72C610.54 181.77 610.49 175.76 610.65 167.87C625.32 167.97 640 168.07 654.68 168.17C654.68 164.59 654.68 161.02 654.68 157.44C640.07 157.41 625.46 157.37 610.86 157.34C610.86 153.83 610.86 150.32 610.86 146.81C611.15 145.88 611.69 144.7 612.77 143.8C614.17 142.63 615.85 142.45 616.78 142.4C620.15 142.21 640.09 142.21 667.42 142.5C667.31 138.96 667.22 135.42 667.13 131.89Z" fill="url(#paint14_linear_2404_4009)"/>
<path d="M504.869 132.43C508.889 132.44 512.909 132.45 516.929 132.46C516.889 154.87 516.859 177.28 516.819 199.69C513.009 199.69 509.209 199.69 505.399 199.69C505.229 177.27 505.049 154.85 504.869 132.43Z" fill="url(#paint15_linear_2404_4009)"/>
<path d="M433.119 132.5C437.119 132.5 441.119 132.5 445.119 132.5C451.949 146.71 458.779 160.91 465.599 175.12C472.689 160.89 479.789 146.66 486.879 132.43C491.109 132.45 495.339 132.47 499.569 132.5C488.249 154.9 476.929 177.3 465.599 199.7C454.779 177.29 443.949 154.9 433.119 132.5Z" fill="url(#paint16_linear_2404_4009)"/>
<path d="M564.47 0.770015C547.79 0.730015 531.11 0.680015 514.43 0.640015C510.44 0.960015 498.36 2.44001 488.26 12.13C475.66 24.22 475.53 40.07 475.49 44.3C475.45 49.23 475.54 61.82 484.81 73.02C495.97 86.5 511.99 87.77 514.95 87.95C531.76 87.91 548.56 87.87 565.37 87.83C565.44 83.06 565.52 78.29 565.59 73.51C550.37 73.6 535.15 73.69 519.93 73.78C503.69 73.45 490.65 59.91 490.85 43.91C491.05 28.24 503.9 15.2 519.8 14.8C534.94 14.84 550.07 14.87 565.21 14.91C564.96 10.2 564.71 5.49001 564.47 0.770015Z" fill="url(#paint17_linear_2404_4009)"/>
<path d="M358.05 163.85C357.96 160.28 357.67 148.56 348.26 139.84C341.05 133.15 332.59 132.03 329.57 131.78C315.93 131.98 302.3 132.18 288.66 132.38C288.66 154.55 288.66 176.73 288.66 198.9C314.79 199.23 325.07 199.06 329.57 198.85C329.82 198.84 330.21 198.82 330.71 198.78C339.59 197.98 345.74 192.27 347.53 190.61C358.25 180.66 358.1 165.61 358.05 163.85ZM337.93 180.89C336.81 181.93 332.95 185.51 327.39 186.01C327.09 186.04 326.85 186.05 326.68 186.06C318.13 186.07 309.59 186.08 301.04 186.09C301.04 172.19 301.04 158.29 301.04 144.4C309.59 144.28 318.14 144.15 326.68 144.03C328.57 144.19 333.88 144.89 338.4 149.08C344.29 154.55 344.48 161.89 344.53 164.13C344.55 165.22 344.64 174.65 337.93 180.89Z" fill="url(#paint18_linear_2404_4009)"/>
<path fill-rule="evenodd" clip-rule="evenodd" d="M213.52 126.03V124.33H266.62V126.03H213.52Z" fill="#167C6D"/>
<path d="M185.93 0H0V22.65H185.93V0Z" fill="url(#paint19_linear_2404_4009)"/>
<path d="M0 27.99V52.64C19.53 52.52 39.07 52.39 58.6 52.27C58.6 101.48 58.6 150.69 58.6 199.9C69.33 199.9 80.06 199.9 90.8 199.9V27.99H0Z" fill="url(#paint20_linear_2404_4009)"/>
<path fill-rule="evenodd" clip-rule="evenodd" d="M128.16 53.0909H187.959C200.956 53.0909 212.583 55.0178 222.475 58.8645C241.871 66.4096 255.293 79.4502 262.257 97.6099C265.663 106.508 267.388 116.118 267.408 126.178V126.18C267.408 148.44 259.62 166.855 245.725 179.698C231.839 192.531 211.967 199.699 187.969 199.699H128.521L128.51 198.481C128.505 197.919 128.503 197.361 128.5 196.807L128.5 196.802C128.498 196.245 128.495 195.693 128.49 195.141L128.49 195.13V130.84L128.16 66.55L128.16 53.0909ZM130.618 55.549V66.55L130.948 130.84L130.948 195.124C130.953 195.681 130.956 196.237 130.958 196.791L130.958 196.793C130.959 196.942 130.96 197.092 130.96 197.241H187.969C211.482 197.241 230.714 190.224 244.056 177.892C257.388 165.571 264.95 147.842 264.95 126.182C264.93 116.402 263.255 107.091 259.961 98.4894C253.265 81.0295 240.387 68.4703 221.584 61.1555C212.035 57.4422 200.722 55.549 187.959 55.549H130.618Z" fill="url(#paint21_linear_2404_4009)"/>
<path fill-rule="evenodd" clip-rule="evenodd" d="M129.404 195.26L129.754 195.258C129.759 195.809 129.761 196.362 129.764 196.915L129.764 196.919C129.766 197.472 129.769 198.025 129.774 198.578L129.775 198.755H129.404V195.26Z" fill="url(#paint22_linear_2404_4009)"/>
<path d="M130.869 198.58V195.26C130.759 173.86 130.649 152.46 130.539 131.06V67.16C130.519 63.05 130.499 58.95 130.479 54.84C149.279 54.84 167.789 54.84 186.559 54.84V27.99H96.8691V199.89C108.159 199.82 119.449 199.74 130.739 199.67C130.779 199.31 130.819 198.95 130.869 198.58Z" fill="url(#paint23_linear_2404_4009)"/>
<path fill-rule="evenodd" clip-rule="evenodd" d="M195.24 132.94V130.03H196.14V132.94H195.24Z" fill="url(#paint24_linear_2404_4009)"/>
<path fill-rule="evenodd" clip-rule="evenodd" d="M185.651 123.56H180.801V122.66H185.651V123.56Z" fill="url(#paint25_linear_2404_4009)"/>
<path fill-rule="evenodd" clip-rule="evenodd" d="M195.171 133.38C194.869 133.38 194.621 133.629 194.621 133.93V134.56C194.621 134.861 194.869 135.11 195.171 135.11H196.201C196.512 135.11 196.751 134.871 196.751 134.56V133.93C196.751 133.629 196.502 133.38 196.201 133.38H195.171ZM193.721 133.93C193.721 133.131 194.372 132.48 195.171 132.48H196.201C196.999 132.48 197.651 133.131 197.651 133.93V134.56C197.651 135.369 197.009 136.01 196.201 136.01H195.171C194.372 136.01 193.721 135.359 193.721 134.56V133.93Z" fill="url(#paint26_linear_2404_4009)"/>
<path fill-rule="evenodd" clip-rule="evenodd" d="M185.912 117.556C186.064 117.522 186.26 117.51 186.521 117.51C186.725 117.51 187.009 117.521 187.343 117.552L187.259 118.448C186.952 118.419 186.696 118.41 186.521 118.41C186.298 118.41 186.183 118.42 186.125 118.431C186.119 118.444 186.112 118.464 186.107 118.494C186.096 118.552 186.096 118.617 186.1 118.668L186.101 118.684V118.7C186.101 118.768 186.102 118.852 186.105 118.955C186.105 118.972 186.105 118.989 186.106 119.007C186.108 119.131 186.111 119.274 186.111 119.427C186.121 120.298 186.121 120.95 186.121 122.146V122.151C186.121 123.021 186.121 123.902 186.111 125.721V126.642C186.123 126.791 186.153 126.875 186.173 126.915C186.18 126.93 186.186 126.94 186.191 126.946C186.204 126.948 186.225 126.95 186.254 126.952C186.381 126.961 186.577 126.96 186.926 126.96C186.995 126.96 187.069 126.96 187.151 126.96H187.461V127.86H187.151C187.074 127.86 187.002 127.86 186.935 127.86C186.589 127.861 186.354 127.861 186.195 127.85C185.987 127.837 185.808 127.801 185.637 127.66C185.431 127.496 185.249 127.198 185.212 126.693L185.211 126.676V125.718C185.221 123.9 185.221 123.021 185.221 122.152V122.15C185.221 120.95 185.221 120.302 185.211 119.435L185.211 119.43C185.211 119.285 185.208 119.148 185.206 119.025C185.205 119.008 185.205 118.992 185.205 118.975C185.203 118.88 185.201 118.79 185.201 118.715C185.195 118.625 185.193 118.483 185.222 118.326C185.253 118.162 185.326 117.948 185.503 117.772C185.606 117.668 185.731 117.596 185.912 117.556Z" fill="url(#paint27_linear_2404_4009)"/>
<path fill-rule="evenodd" clip-rule="evenodd" d="M188.54 126.2C188.238 126.2 187.99 126.449 187.99 126.75V127.38C187.99 127.681 188.238 127.93 188.54 127.93H189.57C189.878 127.93 190.12 127.684 190.12 127.38V126.75C190.12 126.449 189.871 126.2 189.57 126.2H188.54ZM187.09 126.75C187.09 125.951 187.741 125.3 188.54 125.3H189.57C190.368 125.3 191.02 125.951 191.02 126.75V127.38C191.02 128.176 190.381 128.83 189.57 128.83H188.54C187.741 128.83 187.09 128.179 187.09 127.38V126.75Z" fill="url(#paint28_linear_2404_4009)"/>
<path fill-rule="evenodd" clip-rule="evenodd" d="M188.54 117.23C188.238 117.23 187.99 117.479 187.99 117.78V118.41C187.99 118.711 188.238 118.96 188.54 118.96H189.57C189.878 118.96 190.12 118.714 190.12 118.41V117.78C190.12 117.479 189.871 117.23 189.57 117.23H188.54ZM187.09 117.78C187.09 116.981 187.741 116.33 188.54 116.33H189.57C190.368 116.33 191.02 116.981 191.02 117.78V118.41C191.02 119.206 190.381 119.86 189.57 119.86H188.54C187.741 119.86 187.09 119.209 187.09 118.41V117.78Z" fill="url(#paint29_linear_2404_4009)"/>
<path fill-rule="evenodd" clip-rule="evenodd" d="M199.34 128.752C199.345 128.227 199.348 127.699 199.35 127.173C199.353 126.645 199.355 126.118 199.36 125.594L198.46 125.586C198.455 126.112 198.453 126.64 198.45 127.167C198.448 127.695 198.445 128.222 198.44 128.746L198.44 128.75C198.44 128.867 198.429 129.083 198.298 129.278L198.295 129.282C198.177 129.46 198.01 129.564 197.849 129.623C197.7 129.679 197.579 129.688 197.562 129.69C197.56 129.69 197.559 129.69 197.56 129.69C197.45 129.69 197.317 129.688 197.178 129.685L197.175 129.685C197.041 129.683 196.902 129.68 196.784 129.68C194.826 129.65 192.879 129.61 190.932 129.56L190.92 129.56C190.917 129.56 190.913 129.56 190.909 129.56C190.743 129.56 190.019 129.558 189.399 130.115L189.396 130.118C188.674 130.78 188.694 131.684 188.71 131.89V134.12H189.61V131.845L189.607 131.82C189.607 131.821 189.607 131.82 189.607 131.82C189.607 131.819 189.606 131.808 189.606 131.789C189.605 131.768 189.604 131.739 189.606 131.703C189.608 131.631 189.617 131.536 189.641 131.43C189.688 131.219 189.79 130.979 190.003 130.783C190.362 130.461 190.788 130.46 190.914 130.46C192.864 130.51 194.814 130.55 196.773 130.58L196.78 130.58C196.89 130.58 197.023 130.582 197.162 130.585L197.165 130.585C197.3 130.587 197.441 130.59 197.56 130.59C197.648 130.59 197.887 130.57 198.164 130.467C198.445 130.362 198.792 130.16 199.044 129.78C199.33 129.357 199.34 128.916 199.34 128.752Z" fill="url(#paint30_linear_2404_4009)"/>
<path fill-rule="evenodd" clip-rule="evenodd" d="M196.14 122.633C196.143 123.198 196.145 123.762 196.15 124.326L196.15 124.33C196.15 124.458 196.161 124.702 196.293 124.939C196.405 125.136 196.557 125.24 196.689 125.297C196.805 125.346 196.899 125.357 196.919 125.359C196.923 125.36 196.924 125.36 196.92 125.36C197.025 125.36 197.148 125.358 197.275 125.355L197.282 125.355C197.403 125.353 197.528 125.35 197.635 125.35C199.44 125.31 201.233 125.27 203.016 125.221C203.219 125.206 203.911 125.218 204.488 125.831C204.845 126.208 205 126.652 205.066 126.999C205.127 127.316 205.119 127.575 205.11 127.679V130.07H204.21V127.638L204.213 127.615C204.215 127.597 204.228 127.409 204.182 127.168C204.136 126.928 204.036 126.663 203.834 126.45L203.832 126.448C203.506 126.1 203.122 126.114 203.081 126.118L203.067 126.119L203.053 126.12C201.262 126.17 199.46 126.21 197.65 126.25L197.64 126.25C197.541 126.25 197.422 126.252 197.294 126.255L197.293 126.255C197.168 126.257 197.036 126.26 196.92 126.26C196.782 126.26 195.966 126.189 195.509 125.382L195.508 125.38C195.261 124.939 195.251 124.505 195.25 124.332C195.245 123.767 195.243 123.202 195.24 122.638C195.238 122.072 195.235 121.508 195.23 120.944L196.13 120.936C196.135 121.502 196.138 122.068 196.14 122.633Z" fill="url(#paint31_linear_2404_4009)"/>
<path fill-rule="evenodd" clip-rule="evenodd" d="M195.319 118.63C195.018 118.63 194.769 118.879 194.769 119.18V119.81C194.769 120.111 195.018 120.36 195.319 120.36H196.349C196.651 120.36 196.899 120.111 196.899 119.81V119.18C196.899 118.879 196.651 118.63 196.349 118.63H195.319ZM193.869 119.18C193.869 118.381 194.521 117.73 195.319 117.73H196.349C197.148 117.73 197.799 118.381 197.799 119.18V119.81C197.799 120.609 197.148 121.26 196.349 121.26H195.319C194.521 121.26 193.869 120.609 193.869 119.81V119.18Z" fill="url(#paint32_linear_2404_4009)"/>
<path fill-rule="evenodd" clip-rule="evenodd" d="M188.52 134.7C188.219 134.7 187.97 134.949 187.97 135.25V135.88C187.97 136.181 188.219 136.43 188.52 136.43H189.55C189.859 136.43 190.1 136.184 190.1 135.88V135.25C190.1 134.949 189.852 134.7 189.55 134.7H188.52ZM187.07 135.25C187.07 134.451 187.722 133.8 188.52 133.8H189.55C190.349 133.8 191 134.451 191 135.25V135.88C191 136.676 190.362 137.33 189.55 137.33H188.52C187.722 137.33 187.07 136.679 187.07 135.88V135.25Z" fill="url(#paint33_linear_2404_4009)"/>
<path fill-rule="evenodd" clip-rule="evenodd" d="M204.28 130.62C203.979 130.62 203.73 130.868 203.73 131.17V131.8C203.73 132.101 203.979 132.35 204.28 132.35H205.31C205.612 132.35 205.86 132.101 205.86 131.8V131.17C205.86 130.868 205.612 130.62 205.31 130.62H204.28ZM202.83 131.17C202.83 130.371 203.482 129.72 204.28 129.72H205.31C206.109 129.72 206.76 130.371 206.76 131.17V131.8C206.76 132.599 206.109 133.25 205.31 133.25H204.28C203.482 133.25 202.83 132.599 202.83 131.8V131.17Z" fill="url(#paint34_linear_2404_4009)"/>
<path fill-rule="evenodd" clip-rule="evenodd" d="M200.609 140.79V138.2H201.509V140.79H200.609Z" fill="url(#paint35_linear_2404_4009)"/>
<path fill-rule="evenodd" clip-rule="evenodd" d="M209.73 125.18V128.42H208.83V125.18H209.73Z" fill="url(#paint36_linear_2404_4009)"/>
<path fill-rule="evenodd" clip-rule="evenodd" d="M201.651 114.471C201.644 114.059 201.627 113.693 201.614 113.418C201.608 113.299 201.603 113.196 201.601 113.115L200.701 113.146C200.705 113.244 200.71 113.357 200.716 113.483C200.728 113.753 200.744 114.087 200.751 114.488L200.751 114.488L200.751 114.49C200.758 114.802 200.759 115.068 200.761 115.287C200.762 115.51 200.763 115.685 200.769 115.813C200.776 115.951 200.79 116.09 200.831 116.22C200.876 116.365 200.949 116.479 201.044 116.58C201.365 116.92 201.777 116.903 202.117 116.872C202.215 116.863 202.319 116.851 202.43 116.838C202.741 116.803 203.116 116.761 203.63 116.75L203.632 116.75C204.259 116.735 204.683 116.726 205.001 116.762C205.303 116.796 205.444 116.865 205.54 116.955C205.574 116.988 205.589 117.01 205.602 117.044C205.62 117.089 205.642 117.172 205.658 117.337C205.69 117.676 205.686 118.231 205.671 119.241C205.67 119.306 205.668 119.369 205.667 119.431C205.639 120.638 205.621 121.42 205.631 122.275L205.631 122.276C205.641 123.059 205.651 123.676 205.696 124.133C205.718 124.362 205.751 124.571 205.804 124.75C205.857 124.928 205.937 125.107 206.075 125.251C206.466 125.663 206.958 125.745 207.63 125.737C208.037 125.733 208.574 125.692 209.278 125.638C209.715 125.605 210.216 125.567 210.79 125.529L210.791 125.529C211.817 125.459 212.652 125.42 213.207 125.4L213.175 124.5C212.61 124.52 211.766 124.561 210.731 124.631C210.731 124.631 210.731 124.631 210.732 124.631L210.761 125.08L210.73 124.631C210.731 124.631 210.731 124.631 210.731 124.631C210.116 124.671 209.599 124.711 209.161 124.744C208.489 124.796 208 124.833 207.619 124.838C207.005 124.845 206.848 124.758 206.728 124.631L206.728 124.631L206.725 124.627C206.724 124.626 206.698 124.598 206.667 124.495C206.637 124.394 206.611 124.249 206.591 124.045C206.551 123.634 206.541 123.061 206.531 122.265C206.521 121.426 206.539 120.658 206.567 119.444C206.568 119.384 206.569 119.323 206.571 119.26H206.571L206.571 119.257C206.586 118.269 206.592 117.653 206.554 117.253C206.535 117.048 206.501 116.868 206.437 116.708C206.368 116.538 206.274 116.413 206.163 116.306L206.163 116.306L206.161 116.304C205.867 116.025 205.507 115.914 205.101 115.868C204.709 115.824 204.214 115.835 203.611 115.85C203.05 115.862 202.613 115.912 202.299 115.947C202.198 115.959 202.11 115.969 202.035 115.976C201.868 115.991 201.785 115.989 201.737 115.98C201.711 115.975 201.708 115.972 201.7 115.963C201.699 115.963 201.699 115.962 201.699 115.962L201.699 115.962L201.696 115.959C201.69 115.952 201.69 115.952 201.689 115.951C201.689 115.95 201.689 115.95 201.689 115.949C201.683 115.931 201.674 115.885 201.668 115.769C201.662 115.647 201.661 115.504 201.661 115.31C201.66 115.101 201.659 114.834 201.651 114.471Z" fill="url(#paint37_linear_2404_4009)"/>
<path fill-rule="evenodd" clip-rule="evenodd" d="M200.71 111.29C200.408 111.29 200.16 111.539 200.16 111.84V112.47C200.16 112.771 200.408 113.02 200.71 113.02H201.74C202.044 113.02 202.29 112.779 202.29 112.47V111.84C202.29 111.539 202.041 111.29 201.74 111.29H200.71ZM199.26 111.84C199.26 111.041 199.911 110.39 200.71 110.39H201.74C202.538 110.39 203.19 111.041 203.19 111.84V112.47C203.19 113.281 202.535 113.92 201.74 113.92H200.71C199.911 113.92 199.26 113.269 199.26 112.47V111.84Z" fill="url(#paint38_linear_2404_4009)"/>
<path fill-rule="evenodd" clip-rule="evenodd" d="M200.54 136.2C200.238 136.2 199.99 136.449 199.99 136.75V137.38C199.99 137.681 200.238 137.93 200.54 137.93H201.57C201.871 137.93 202.12 137.681 202.12 137.38V136.75C202.12 136.449 201.871 136.2 201.57 136.2H200.54ZM199.09 136.75C199.09 135.951 199.741 135.3 200.54 135.3H201.57C202.368 135.3 203.02 135.951 203.02 136.75V137.38C203.02 138.179 202.368 138.83 201.57 138.83H200.54C199.741 138.83 199.09 138.179 199.09 137.38V136.75Z" fill="url(#paint39_linear_2404_4009)"/>
<path fill-rule="evenodd" clip-rule="evenodd" d="M208.77 128.87C208.466 128.87 208.22 129.111 208.22 129.42V130.05C208.22 130.351 208.469 130.6 208.77 130.6H209.8C210.102 130.6 210.35 130.351 210.35 130.05V129.42C210.35 129.118 210.102 128.87 209.8 128.87H208.77ZM207.32 129.42C207.32 128.609 207.975 127.97 208.77 127.97H209.8C210.599 127.97 211.25 128.621 211.25 129.42V130.05C211.25 130.849 210.599 131.5 209.8 131.5H208.77C207.972 131.5 207.32 130.849 207.32 130.05V129.42Z" fill="url(#paint40_linear_2404_4009)"/>
<path fill-rule="evenodd" clip-rule="evenodd" d="M196.921 109.06C188.217 109.06 181.161 116.116 181.161 124.82C181.161 133.524 188.217 140.58 196.921 140.58C205.625 140.58 212.681 133.524 212.681 124.82C212.681 116.116 205.625 109.06 196.921 109.06ZM179.461 124.82C179.461 115.177 187.278 107.36 196.921 107.36C206.564 107.36 214.381 115.177 214.381 124.82C214.381 134.463 206.564 142.28 196.921 142.28C187.278 142.28 179.461 134.463 179.461 124.82Z" fill="url(#paint41_linear_2404_4009)"/>
</g>
<defs>
<linearGradient id="paint0_linear_2404_4009" x1="330.596" y1="87.4256" x2="330.596" y2="1.17028" gradientUnits="userSpaceOnUse">
<stop offset="1.38522e-07" stop-color="#167E6F"/>
<stop offset="1" stop-color="#4ABFAB"/>
</linearGradient>
<linearGradient id="paint1_linear_2404_4009" x1="621.741" y1="84.5958" x2="621.741" y2="1.43288e-05" gradientUnits="userSpaceOnUse">
<stop offset="1.38522e-07" stop-color="#167E6F"/>
<stop offset="1" stop-color="#4ABFAB"/>
</linearGradient>
<linearGradient id="paint2_linear_2404_4009" x1="427.625" y1="87.1294" x2="427.625" y2="1.46642" gradientUnits="userSpaceOnUse">
<stop offset="1.38522e-07" stop-color="#167E6F"/>
<stop offset="1" stop-color="#4ABFAB"/>
</linearGradient>
<linearGradient id="paint3_linear_2404_4009" x1="395.56" y1="198.886" x2="395.56" y2="132.5" gradientUnits="userSpaceOnUse">
<stop offset="1.38522e-07" stop-color="#167E6F"/>
<stop offset="1" stop-color="#4ABFAB"/>
</linearGradient>
<linearGradient id="paint4_linear_2404_4009" x1="633.951" y1="199.049" x2="633.951" y2="131.756" gradientUnits="userSpaceOnUse">
<stop offset="1.38522e-07" stop-color="#167E6F"/>
<stop offset="1" stop-color="#4ABFAB"/>
</linearGradient>
<linearGradient id="paint5_linear_2404_4009" x1="510.9" y1="199.691" x2="510.9" y2="132.428" gradientUnits="userSpaceOnUse">
<stop offset="1.38522e-07" stop-color="#167E6F"/>
<stop offset="1" stop-color="#4ABFAB"/>
</linearGradient>
<linearGradient id="paint6_linear_2404_4009" x1="466.344" y1="199.691" x2="466.344" y2="132.428" gradientUnits="userSpaceOnUse">
<stop offset="1.38522e-07" stop-color="#167E6F"/>
<stop offset="1" stop-color="#4ABFAB"/>
</linearGradient>
<linearGradient id="paint7_linear_2404_4009" x1="520.536" y1="87.9529" x2="520.536" y2="0.643012" gradientUnits="userSpaceOnUse">
<stop offset="1.38522e-07" stop-color="#167E6F"/>
<stop offset="1" stop-color="#4ABFAB"/>
</linearGradient>
<linearGradient id="paint8_linear_2404_4009" x1="323.362" y1="199.077" x2="323.362" y2="131.776" gradientUnits="userSpaceOnUse">
<stop offset="1.38522e-07" stop-color="#167E6F"/>
<stop offset="1" stop-color="#4ABFAB"/>
</linearGradient>
<linearGradient id="paint9_linear_2404_4009" x1="556.628" y1="132.44" x2="556.628" y2="199.236" gradientUnits="userSpaceOnUse">
<stop stop-color="#52C1AE"/>
<stop offset="1" stop-color="#22B99F"/>
</linearGradient>
<linearGradient id="paint10_linear_2404_4009" x1="330.595" y1="1.16998" x2="330.595" y2="87.43" gradientUnits="userSpaceOnUse">
<stop stop-color="#52C1AE"/>
<stop offset="1" stop-color="#22B99F"/>
</linearGradient>
<linearGradient id="paint11_linear_2404_4009" x1="621.74" y1="-0.0100098" x2="621.74" y2="84.59" gradientUnits="userSpaceOnUse">
<stop stop-color="#52C1AE"/>
<stop offset="1" stop-color="#22B99F"/>
</linearGradient>
<linearGradient id="paint12_linear_2404_4009" x1="427.641" y1="1.46625" x2="427.641" y2="87.14" gradientUnits="userSpaceOnUse">
<stop stop-color="#52C1AE"/>
<stop offset="1" stop-color="#22B99F"/>
</linearGradient>
<linearGradient id="paint13_linear_2404_4009" x1="395.57" y1="132.499" x2="395.57" y2="198.88" gradientUnits="userSpaceOnUse">
<stop stop-color="#52C1AE"/>
<stop offset="1" stop-color="#22B99F"/>
</linearGradient>
<linearGradient id="paint14_linear_2404_4009" x1="633.965" y1="131.759" x2="633.965" y2="199.06" gradientUnits="userSpaceOnUse">
<stop stop-color="#52C1AE"/>
<stop offset="1" stop-color="#22B99F"/>
</linearGradient>
<linearGradient id="paint15_linear_2404_4009" x1="510.899" y1="132.43" x2="510.899" y2="199.69" gradientUnits="userSpaceOnUse">
<stop stop-color="#52C1AE"/>
<stop offset="1" stop-color="#22B99F"/>
</linearGradient>
<linearGradient id="paint16_linear_2404_4009" x1="466.344" y1="132.43" x2="466.344" y2="199.7" gradientUnits="userSpaceOnUse">
<stop stop-color="#52C1AE"/>
<stop offset="1" stop-color="#22B99F"/>
</linearGradient>
<linearGradient id="paint17_linear_2404_4009" x1="520.538" y1="0.640015" x2="520.538" y2="87.95" gradientUnits="userSpaceOnUse">
<stop stop-color="#52C1AE"/>
<stop offset="1" stop-color="#22B99F"/>
</linearGradient>
<linearGradient id="paint18_linear_2404_4009" x1="323.359" y1="131.78" x2="323.359" y2="199.086" gradientUnits="userSpaceOnUse">
<stop stop-color="#52C1AE"/>
<stop offset="1" stop-color="#22B99F"/>
</linearGradient>
<linearGradient id="paint19_linear_2404_4009" x1="0" y1="11.325" x2="185.93" y2="11.325" gradientUnits="userSpaceOnUse">
<stop stop-color="#52C1AE"/>
<stop offset="1" stop-color="#22B99F"/>
</linearGradient>
<linearGradient id="paint20_linear_2404_4009" x1="45.4" y1="27.99" x2="45.4" y2="199.9" gradientUnits="userSpaceOnUse">
<stop stop-color="#28BAA1"/>
<stop offset="1" stop-color="#157B6C"/>
</linearGradient>
<linearGradient id="paint21_linear_2404_4009" x1="197.784" y1="53.0909" x2="197.784" y2="199.699" gradientUnits="userSpaceOnUse">
<stop stop-color="#28BAA1"/>
<stop offset="1" stop-color="#157B6C"/>
</linearGradient>
<linearGradient id="paint22_linear_2404_4009" x1="129.59" y1="195.258" x2="129.59" y2="198.755" gradientUnits="userSpaceOnUse">
<stop stop-color="#28BAA1"/>
<stop offset="1" stop-color="#157B6C"/>
</linearGradient>
<linearGradient id="paint23_linear_2404_4009" x1="141.714" y1="27.99" x2="141.714" y2="199.89" gradientUnits="userSpaceOnUse">
<stop stop-color="#28BAA1"/>
<stop offset="1" stop-color="#157B6C"/>
</linearGradient>
<linearGradient id="paint24_linear_2404_4009" x1="195.69" y1="130.03" x2="195.69" y2="132.94" gradientUnits="userSpaceOnUse">
<stop stop-color="#22B99F"/>
<stop offset="1" stop-color="#157B6C"/>
</linearGradient>
<linearGradient id="paint25_linear_2404_4009" x1="183.226" y1="122.66" x2="183.226" y2="123.56" gradientUnits="userSpaceOnUse">
<stop stop-color="#22B99F"/>
<stop offset="1" stop-color="#157B6C"/>
</linearGradient>
<linearGradient id="paint26_linear_2404_4009" x1="195.686" y1="132.48" x2="195.686" y2="136.01" gradientUnits="userSpaceOnUse">
<stop stop-color="#22B99F"/>
<stop offset="1" stop-color="#157B6C"/>
</linearGradient>
<linearGradient id="paint27_linear_2404_4009" x1="186.329" y1="117.51" x2="186.329" y2="127.86" gradientUnits="userSpaceOnUse">
<stop stop-color="#22B99F"/>
<stop offset="1" stop-color="#157B6C"/>
</linearGradient>
<linearGradient id="paint28_linear_2404_4009" x1="189.055" y1="125.3" x2="189.055" y2="128.83" gradientUnits="userSpaceOnUse">
<stop stop-color="#22B99F"/>
<stop offset="1" stop-color="#157B6C"/>
</linearGradient>
<linearGradient id="paint29_linear_2404_4009" x1="189.055" y1="116.33" x2="189.055" y2="119.86" gradientUnits="userSpaceOnUse">
<stop stop-color="#22B99F"/>
<stop offset="1" stop-color="#157B6C"/>
</linearGradient>
<linearGradient id="paint30_linear_2404_4009" x1="194.033" y1="125.586" x2="194.033" y2="134.12" gradientUnits="userSpaceOnUse">
<stop stop-color="#22B99F"/>
<stop offset="1" stop-color="#157B6C"/>
</linearGradient>
<linearGradient id="paint31_linear_2404_4009" x1="200.173" y1="120.936" x2="200.173" y2="130.07" gradientUnits="userSpaceOnUse">
<stop stop-color="#22B99F"/>
<stop offset="1" stop-color="#157B6C"/>
</linearGradient>
<linearGradient id="paint32_linear_2404_4009" x1="195.834" y1="117.73" x2="195.834" y2="121.26" gradientUnits="userSpaceOnUse">
<stop stop-color="#22B99F"/>
<stop offset="1" stop-color="#157B6C"/>
</linearGradient>
<linearGradient id="paint33_linear_2404_4009" x1="189.035" y1="133.8" x2="189.035" y2="137.33" gradientUnits="userSpaceOnUse">
<stop stop-color="#22B99F"/>
<stop offset="1" stop-color="#157B6C"/>
</linearGradient>
<linearGradient id="paint34_linear_2404_4009" x1="204.795" y1="129.72" x2="204.795" y2="133.25" gradientUnits="userSpaceOnUse">
<stop stop-color="#22B99F"/>
<stop offset="1" stop-color="#157B6C"/>
</linearGradient>
<linearGradient id="paint35_linear_2404_4009" x1="201.059" y1="138.2" x2="201.059" y2="140.79" gradientUnits="userSpaceOnUse">
<stop stop-color="#22B99F"/>
<stop offset="1" stop-color="#157B6C"/>
</linearGradient>
<linearGradient id="paint36_linear_2404_4009" x1="209.28" y1="125.18" x2="209.28" y2="128.42" gradientUnits="userSpaceOnUse">
<stop stop-color="#22B99F"/>
<stop offset="1" stop-color="#157B6C"/>
</linearGradient>
<linearGradient id="paint37_linear_2404_4009" x1="206.954" y1="113.115" x2="206.954" y2="125.738" gradientUnits="userSpaceOnUse">
<stop stop-color="#22B99F"/>
<stop offset="1" stop-color="#157B6C"/>
</linearGradient>
<linearGradient id="paint38_linear_2404_4009" x1="201.225" y1="110.39" x2="201.225" y2="113.92" gradientUnits="userSpaceOnUse">
<stop stop-color="#22B99F"/>
<stop offset="1" stop-color="#157B6C"/>
</linearGradient>
<linearGradient id="paint39_linear_2404_4009" x1="201.055" y1="135.3" x2="201.055" y2="138.83" gradientUnits="userSpaceOnUse">
<stop stop-color="#22B99F"/>
<stop offset="1" stop-color="#157B6C"/>
</linearGradient>
<linearGradient id="paint40_linear_2404_4009" x1="209.285" y1="127.97" x2="209.285" y2="131.5" gradientUnits="userSpaceOnUse">
<stop stop-color="#22B99F"/>
<stop offset="1" stop-color="#157B6C"/>
</linearGradient>
<linearGradient id="paint41_linear_2404_4009" x1="196.921" y1="107.36" x2="196.921" y2="142.28" gradientUnits="userSpaceOnUse">
<stop stop-color="#22B99F"/>
<stop offset="1" stop-color="#157B6C"/>
</linearGradient>
<clipPath id="clip0_2404_4009">
<rect width="667.4" height="199.99" fill="white"/>
</clipPath>
</defs>
</svg>
