<svg width="77" height="77" viewBox="0 0 77 77" fill="none" xmlns="http://www.w3.org/2000/svg">
<path d="M45.1485 5.17594C49.7104 6.07829 53.9401 7.89551 57.6435 10.4271C60.2064 8.84172 63.6152 9.1613 65.8398 11.3858C68.0768 13.6229 68.3901 17.0631 66.7672 19.6385C69.2612 23.3669 71.0345 27.6155 71.893 32.1836C74.8256 32.8792 77.0063 35.511 77.0063 38.6567C77.0063 41.8211 74.7943 44.4718 71.8303 45.1423C70.928 49.7041 69.1108 53.9338 66.5792 57.6372C68.1646 60.2001 67.845 63.609 65.6204 65.8335C63.3834 68.0706 59.9432 68.3839 57.3678 66.7609C53.6393 69.2549 49.3908 71.0282 44.8227 71.8867C44.1271 74.8193 41.4953 77 38.3496 77C35.1851 77 32.5345 74.788 31.864 71.8241C27.3022 70.9217 23.0724 69.1045 19.3691 66.5729C16.8062 68.1583 13.3973 67.8324 11.1728 65.6142C8.93571 63.3771 8.6224 59.9369 10.2454 57.3615C7.75138 53.6331 5.97803 49.3845 5.11955 44.8164C2.18066 44.1146 0 41.4827 0 38.3433C0 35.1789 2.212 32.5282 5.17594 31.8577C6.07829 27.2959 7.89551 23.0662 10.4271 19.3628C8.84172 16.7999 9.16756 13.391 11.3858 11.1665C13.6229 8.92944 17.0631 8.61613 19.6385 10.2391C23.3669 7.74512 27.6155 5.97176 32.1836 5.11328C32.8792 2.18066 35.5173 0 38.6567 0C41.8274 0 44.478 2.212 45.1485 5.17594ZM63.4398 22.333C61.0774 23.204 58.3202 22.6965 56.4278 20.7978C54.5166 18.8866 54.009 16.0981 54.9176 13.7231C51.866 11.6991 48.4132 10.2203 44.7099 9.43075C43.6571 11.7179 41.3449 13.3096 38.6629 13.3096C35.9559 13.3096 33.6248 11.6929 32.5909 9.37435C28.875 10.1263 25.4098 11.5675 22.3393 13.5602C23.2103 15.9226 22.7027 18.6798 20.804 20.5722C18.8928 22.4834 16.1043 22.991 13.7294 22.0824C11.7054 25.134 10.2266 28.5868 9.43701 32.2901C11.7242 33.3429 13.3158 35.6551 13.3158 38.3371C13.3158 41.0441 11.6991 43.3752 9.38062 44.4091C10.1326 48.125 11.5738 51.5903 13.5728 54.6607C15.9351 53.7897 18.6923 54.2973 20.5847 56.196C22.4959 58.1072 23.0035 60.8957 22.0949 63.2706C25.1466 65.2946 28.5993 66.7734 32.3027 67.563C33.3554 65.2758 35.6676 63.6842 38.3496 63.6842C41.0566 63.6842 43.3877 65.3009 44.4216 67.6194C48.1375 66.8674 51.6028 65.4262 54.6733 63.4272C53.8022 61.0649 54.3098 58.3077 56.2085 56.4153C58.1197 54.5041 60.9082 53.9965 63.2831 54.9051C65.3071 51.8534 66.786 48.4007 67.5755 44.6973C65.2883 43.6446 63.6967 41.3324 63.6967 38.6504C63.6967 35.9434 65.3134 33.6123 67.6319 32.5784C66.88 28.8687 65.4387 25.4035 63.4398 22.333ZM53.1506 30.9053L53.2258 47.2603C53.232 48.0498 52.737 48.7266 52.0289 49.0085V49.0148L38.9324 54.3098C38.6943 54.4038 38.4436 54.4539 38.1867 54.4539C38.1616 54.4539 38.1303 54.4477 38.1052 54.4539C37.9924 54.4665 37.8796 54.4853 37.7668 54.4853C37.5162 54.4853 37.2593 54.4351 37.0274 54.3349L24.9586 49.2592V49.2529C24.263 48.9584 23.7743 48.2629 23.7743 47.4545L23.8432 31.2875C23.8369 31.1309 23.8432 30.9679 23.8745 30.8113C23.8808 30.5857 23.9246 30.3601 24.0124 30.1533C24.2129 29.6646 24.6077 29.3011 25.0714 29.1131L37.6729 24.0437C38.1867 23.8369 38.7381 23.862 39.2081 24.0625L51.7845 28.6118C52.5365 28.8813 53.0127 29.558 53.044 30.2912C53.113 30.4854 53.1506 30.6985 53.1506 30.9053ZM36.1188 51.1767L36.2128 36.7642L26.1241 32.4029L25.9111 46.8717L36.1188 51.1767ZM50.995 32.4029L39.7282 36.7642L39.8159 51.1641L51.0639 46.9595L50.995 32.4029Z" fill="#FAFAFA"/>
</svg>
