<svg width="83" height="104" viewBox="0 0 83 104" fill="none" xmlns="http://www.w3.org/2000/svg">
<path fill-rule="evenodd" clip-rule="evenodd" d="M55.0214 36.7709C50.7696 37.1181 46.8182 36.8464 43.0624 35.2521C39.6881 33.8199 37.1584 31.4487 35.7002 28.0635C34.3065 24.8286 35.83 22.0213 39.2863 21.2823C40.774 20.9651 42.2484 21.067 43.7068 21.4571C46.3535 22.1646 48.6601 23.4981 50.7279 25.2701C54.0146 28.0873 56.2619 31.5738 57.5084 35.7163C57.6607 36.2235 57.5416 36.421 57.0306 36.4807C56.2827 36.5684 55.5386 36.6948 55.0214 36.7709ZM13.4955 89.054C13.449 88.7995 13.6264 88.6237 13.7266 88.4293C15.132 85.7027 16.1861 82.8452 16.9356 79.8745C17.2787 78.5152 17.4374 77.1403 17.1892 75.7418C17.1145 75.3197 16.9967 74.913 16.7902 74.5371C16.1641 73.3926 14.9707 73.2156 14.0425 74.13C13.5967 74.5698 13.2908 75.1102 12.9926 75.6517C11.9562 77.532 11.0601 79.4804 10.1926 81.4421C8.01184 86.3693 5.27652 90.9872 2.35426 95.5009C2.07951 95.924 1.76148 96.3113 1.39696 96.6609C1.04778 96.9964 0.732043 97.3618 0.482747 97.7793C-0.452911 99.3499 -0.00556945 101.213 1.55107 102.174C2.56821 102.802 3.71071 102.999 4.87755 103.065C6.56156 103.159 8.24355 103.056 9.9209 102.946C13.8258 102.689 17.7259 102.829 21.6316 102.935C25.1103 103.03 28.5878 102.775 32.0536 102.438C32.6112 102.384 33.1676 102.288 33.6857 102.058C34.4273 101.73 34.922 101.189 35.0012 100.359C35.0816 99.5076 34.6983 98.8672 34.0004 98.4022C33.46 98.0422 32.8448 97.8568 32.2229 97.718C26.8542 96.5256 21.4732 95.4376 15.9188 95.8787C15.7694 95.8905 15.6111 95.9298 15.4628 95.8297C15.4194 95.64 15.5916 95.6166 15.6937 95.5671C22.1582 92.4593 27.9196 88.2319 33.7779 84.1701C38.9094 80.6118 43.9046 76.8596 48.6092 72.7443C52.8699 69.0193 56.6278 64.8536 59.4213 59.8975C62.2767 54.8331 63.9937 49.4335 64.0533 43.5728C64.0638 42.6065 64.0414 41.6402 63.926 40.6805C63.8836 40.3226 63.9853 40.1129 64.3218 39.9499C70.8178 36.8101 75.3163 31.745 78.3744 25.3165C80.9141 19.9772 82.3866 14.3748 82.3725 8.43068C82.3662 5.97104 82.1718 3.52858 81.3692 1.17546C81.1014 0.389621 80.7634 0.0518895 80.3071 0.142262C79.6098 0.281936 79.5913 0.875037 79.5366 1.41143C79.1569 5.13819 78.8559 8.87773 78.0418 12.5429C76.7946 18.1567 74.6577 23.3786 71.0217 27.9024C68.901 30.5422 66.3066 32.6281 63.3262 34.2361C62.698 34.5752 62.6968 34.569 62.4686 33.89C59.9771 26.4623 55.1421 21.036 48.2046 17.5017C44.9536 15.8448 41.4594 15.3178 37.8265 16.0414C30.7287 17.4544 27.1384 24.2032 30.0621 30.8209C32.1183 35.4746 35.6908 38.6863 40.3168 40.6607C45.8719 43.0317 51.6694 43.3211 57.5653 42.2304C58.4773 42.0616 58.4925 42.0437 58.4382 42.992C58.1294 48.3574 56.327 53.2095 53.3124 57.6271C50.3866 61.9125 46.6952 65.4786 42.6997 68.7451C36.1343 74.1115 29.198 78.9564 22 83.4374C19.227 85.1636 16.4698 86.9177 13.8569 88.8862C13.7552 88.9634 13.6631 89.0773 13.4955 89.054Z" fill="#157B6C"/>
</svg>
