<svg width="228" height="228" viewBox="0 0 228 228" fill="none" xmlns="http://www.w3.org/2000/svg">
<g clip-path="url(#clip0_252_4953)">
<path d="M150.197 122.317L106.943 122.591C106.662 122.591 106.57 122.854 106.57 123.107V160.267C106.57 163.825 81.9936 173.068 81.7542 172.599L81.7246 176.531C81.7234 177.263 82.3601 177.913 83.1732 177.913H83.7136C83.7173 177.913 83.721 177.913 83.7247 177.913H119.991C121.674 177.913 123.336 177.533 124.86 176.888L144.799 168.41C148.388 166.884 150.652 163.606 150.652 160.03V122.831C150.654 122.58 150.477 122.317 150.197 122.317Z" fill="#157B6C"/>
<path d="M102.19 120.425V157.593C102.19 161.257 99.854 164.595 96.1857 166.177L82.734 171.974C81.8555 172.353 82.1553 173.542 83.1288 173.542H120.087C121.749 173.542 123.39 173.21 124.893 172.571L139.797 166.236C143.494 164.665 145.852 161.312 145.852 157.63V120.425C145.852 120.273 145.715 120.15 145.546 120.15H102.496C102.327 120.15 102.19 120.273 102.19 120.425Z" fill="white"/>
<path d="M120.087 173.82H83.1284C82.4461 173.82 82.0487 173.367 81.9587 172.919C81.8575 172.417 82.1253 171.935 82.6262 171.718L96.0779 165.921C99.624 164.392 101.915 161.124 101.915 157.593V120.425C101.915 120.12 102.176 119.872 102.496 119.872H145.546C145.867 119.872 146.127 120.12 146.127 120.425V157.63C146.127 161.407 143.684 164.885 139.904 166.492L125.001 172.828C123.474 173.477 121.775 173.82 120.087 173.82ZM102.464 120.436V157.594C102.464 161.348 100.042 164.818 96.2926 166.434L82.8409 172.231C82.5756 172.346 82.4461 172.561 82.4966 172.809C82.5398 173.02 82.7298 173.265 83.1272 173.265H120.085C121.7 173.265 123.326 172.938 124.785 172.317L139.688 165.98C143.264 164.46 145.575 161.182 145.575 157.632V120.429C145.572 120.434 145.562 120.428 145.544 120.428H102.494C102.479 120.428 102.469 120.433 102.464 120.436Z" fill="black"/>
<path d="M21.334 141.726L207.772 142.149C209.405 142.149 211.031 140.91 211.238 139.273L226.386 21.4756C226.748 18.6213 224.559 15.7819 221.747 15.8529L37.4718 16.8359L21.334 141.726Z" fill="#157B6C"/>
<path d="M214.424 16.522C217.632 16.522 220.528 19.8049 220.117 23.0256L205.409 138.985C205.201 140.622 203.465 142.009 201.833 142.009L18.6959 141.709C16.7402 141.709 15.4335 140.069 15.6828 138.106L30.9149 19.9968C31.1235 18.3597 32.1957 16.5232 33.8269 16.5232H214.424V16.522Z" fill="white"/>
<path d="M201.835 142.287L18.6957 141.987C17.7086 141.987 16.8239 141.597 16.2082 140.889C15.5666 140.153 15.2767 139.126 15.4112 138.071L30.6433 19.9594C30.8728 18.1578 32.0672 16.2441 33.828 16.2441H214.425C216.044 16.2441 217.657 17.0303 218.851 18.4008C220.034 19.7588 220.596 21.4582 220.391 23.0605L205.683 139.02C205.461 140.761 203.663 142.287 201.835 142.287ZM33.828 16.7998C32.3819 16.7998 31.3886 18.4643 31.1887 20.0304L15.9565 138.141C15.8406 139.05 16.0762 139.896 16.6216 140.52C17.1324 141.107 17.869 141.43 18.697 141.43L201.836 141.73C203.378 141.73 204.953 140.404 205.138 138.949L219.845 22.9895C220.029 21.5442 219.517 20.0055 218.438 18.7671C217.348 17.5162 215.886 16.7986 214.425 16.7986H33.828V16.7998Z" fill="black"/>
<path d="M197.527 137.008L24.4933 136.731C23.579 136.731 22.7597 136.37 22.1884 135.714C21.5949 135.032 21.3259 134.08 21.4493 133.103L35.4624 24.4445C35.6746 22.7788 36.7814 21.0071 38.4138 21.0071H209.11C210.606 21.0071 212.096 21.7334 213.199 22.9993C214.293 24.2539 214.811 25.8225 214.622 27.3039L201.09 133.984C200.884 135.595 199.22 137.008 197.527 137.008ZM38.4138 21.564C37.096 21.564 36.1904 23.0852 36.0078 24.5168L21.9947 133.176C21.8886 134.007 22.1045 134.778 22.6005 135.347C23.0657 135.882 23.7381 136.177 24.4933 136.177L197.527 136.454C198.936 136.454 200.373 135.244 200.542 133.914L214.074 27.2341C214.243 25.9109 213.773 24.5018 212.785 23.3668C211.787 22.2206 210.447 21.564 209.109 21.564H38.4138Z" fill="black"/>
<path d="M190.918 36.2869H120.581C120.502 36.2869 120.427 36.252 120.374 36.1922C120.322 36.1324 120.297 36.0514 120.308 35.9717L120.782 32.4109C120.801 32.2726 120.917 32.1704 121.055 32.1704H191.392C191.471 32.1704 191.546 32.2053 191.599 32.2651C191.651 32.3249 191.676 32.4059 191.664 32.4856L191.191 36.0464C191.172 36.1847 191.056 36.2869 190.918 36.2869ZM120.896 35.7312H190.677L191.077 32.7261H121.295L120.896 35.7312Z" fill="black"/>
<path d="M206.095 41.8796H134.432L134.905 38.3188H206.569L206.095 41.8796Z" fill="#157B6C"/>
<path d="M196.672 48.0283H159.631C159.552 48.0283 159.477 47.9934 159.423 47.9336C159.372 47.8738 159.347 47.7928 159.358 47.7131L159.832 44.1523C159.85 44.014 159.966 43.9119 160.105 43.9119H197.145C197.224 43.9119 197.3 43.9467 197.353 44.0066C197.405 44.0664 197.429 44.1473 197.418 44.2271L196.944 47.7879C196.927 47.9249 196.81 48.0283 196.672 48.0283ZM159.945 47.4727H196.431L196.831 44.4675H160.345L159.945 47.4727Z" fill="black"/>
<path d="M184.664 83.2512H114.327C114.248 83.2512 114.173 83.2163 114.12 83.1565C114.068 83.0967 114.043 83.0158 114.054 82.936L114.528 79.3752C114.547 79.2369 114.663 79.1348 114.801 79.1348H185.138C185.217 79.1348 185.292 79.1697 185.345 79.2295C185.397 79.2893 185.422 79.3702 185.411 79.45L184.937 83.0108C184.918 83.1478 184.802 83.2512 184.664 83.2512ZM114.643 82.6956H184.423L184.823 79.6904H115.043L114.643 82.6956Z" fill="black"/>
<path d="M146.606 89.1206H128.18C128.101 89.1206 128.025 89.0857 127.972 89.0259C127.92 88.9661 127.896 88.8851 127.907 88.8054L128.381 85.2446C128.399 85.1063 128.515 85.0042 128.653 85.0042H145.322C145.474 85.0042 145.597 85.1287 145.597 85.282C145.597 85.4352 145.474 85.5598 145.322 85.5598H128.894L128.494 88.5649H146.606C146.758 88.5649 146.881 88.6895 146.881 88.8428C146.881 88.9973 146.758 89.1206 146.606 89.1206Z" fill="black"/>
<path d="M199.843 89.1206H155.579C155.427 89.1206 155.304 88.996 155.304 88.8428C155.304 88.6895 155.427 88.5649 155.579 88.5649H199.601L200.001 85.5598H153.19C153.038 85.5598 152.915 85.4352 152.915 85.282C152.915 85.1287 153.038 85.0042 153.19 85.0042H200.317C200.396 85.0042 200.471 85.039 200.524 85.0988C200.576 85.1586 200.601 85.2396 200.589 85.3194L200.116 88.8801C200.097 89.0184 199.98 89.1206 199.843 89.1206Z" fill="black"/>
<path d="M199.059 94.9912H160.777C160.625 94.9912 160.502 94.8666 160.502 94.7134C160.502 94.5601 160.625 94.4355 160.777 94.4355H198.819L199.218 91.4304H158.67C158.518 91.4304 158.395 91.3058 158.395 91.1526C158.395 90.9993 158.518 90.8748 158.67 90.8748H199.533C199.612 90.8748 199.687 90.9096 199.74 90.9694C199.792 91.0292 199.817 91.1102 199.806 91.19L199.332 94.7508C199.313 94.889 199.197 94.9912 199.059 94.9912Z" fill="black"/>
<path d="M152.488 100.618H126.383C126.304 100.618 126.228 100.583 126.175 100.523C126.124 100.463 126.099 100.382 126.11 100.302L126.584 96.7417C126.602 96.6034 126.718 96.5012 126.857 96.5012H148.342C148.494 96.5012 148.617 96.6258 148.617 96.7791C148.617 96.9323 148.494 97.0569 148.342 97.0569H127.097L126.697 100.062H152.488C152.64 100.062 152.763 100.187 152.763 100.34C152.763 100.493 152.64 100.618 152.488 100.618Z" fill="black"/>
<path d="M188.571 53.6211H118.235L118.709 50.0603H189.046L188.571 53.6211Z" fill="#157B6C"/>
<path d="M193.496 59.4917H132.087L132.561 55.9309H193.589L193.496 59.4917Z" fill="#157B6C"/>
<path d="M184.904 71.5098H156.504C156.425 71.5098 156.35 71.4749 156.297 71.4151C156.245 71.3553 156.22 71.2743 156.231 71.1946L156.705 67.6338C156.723 67.4955 156.839 67.3933 156.978 67.3933H185.378C185.457 67.3933 185.532 67.4282 185.585 67.488C185.637 67.5478 185.661 67.6288 185.65 67.7085L185.177 71.2693C185.158 71.4064 185.042 71.5098 184.904 71.5098ZM156.818 70.9541H184.663L185.063 67.949H157.219L156.818 70.9541Z" fill="black"/>
<path d="M192.614 77.0979H164.214L164.688 73.5383H193.088L192.614 77.0979Z" fill="#157B6C"/>
<path d="M191.248 65.3611H157.287L157.761 61.8015H191.389L191.248 65.3611Z" fill="#157B6C"/>
<path d="M181.537 106.455H111.201L111.675 102.894H182.011L181.537 106.455Z" fill="white"/>
<path d="M162.184 112.602H125.053C124.974 112.602 124.898 112.567 124.845 112.507C124.794 112.448 124.769 112.367 124.78 112.287L125.254 108.726C125.272 108.588 125.388 108.486 125.526 108.486H160.919C161.071 108.486 161.194 108.61 161.194 108.763C161.194 108.917 161.071 109.041 160.919 109.041H125.767L125.367 112.046H162.184C162.335 112.046 162.459 112.171 162.459 112.324C162.459 112.479 162.335 112.602 162.184 112.602Z" fill="black"/>
<path d="M181.716 118.473H150.252C150.173 118.473 150.098 118.438 150.045 118.378C149.993 118.318 149.968 118.237 149.979 118.158L150.453 114.597C150.471 114.459 150.587 114.356 150.726 114.356H180.592C180.743 114.356 180.867 114.481 180.867 114.634C180.867 114.788 180.743 114.912 180.592 114.912H150.966L150.567 117.917H181.716C181.867 117.917 181.991 118.042 181.991 118.195C181.991 118.348 181.867 118.473 181.716 118.473Z" fill="black"/>
<path d="M179.192 124.066H108.855L109.329 120.505H179.666L179.192 124.066Z" fill="white"/>
<path d="M181.434 130.214H122.707C122.628 130.214 122.553 130.179 122.5 130.119C122.448 130.06 122.423 129.979 122.434 129.899L122.908 126.338C122.927 126.2 123.043 126.098 123.181 126.098H181.716C181.867 126.098 181.991 126.222 181.991 126.375C181.991 126.529 181.867 126.653 181.716 126.653H123.423L123.023 129.658H181.436C181.587 129.658 181.711 129.783 181.711 129.936C181.71 130.09 181.587 130.214 181.434 130.214Z" fill="black"/>
<path d="M109.263 77.0331H102.411L102.866 73.6118H109.718L109.263 77.0331Z" fill="#157B6C"/>
<path d="M114.982 36.0102H107.841L108.315 32.4495H115.456L114.982 36.0102Z" fill="#157B6C"/>
<path d="M115.7 30.6143H108.559L109.034 27.0535H116.174L115.7 30.6143Z" fill="#157B6C"/>
<path d="M114.147 41.8811H107.061L107.534 38.3203H114.62L114.147 41.8811Z" fill="#157B6C"/>
<path d="M113.124 47.7517H106.398L106.872 44.1909H113.598L113.124 47.7517Z" fill="#157B6C"/>
<path d="M112.379 53.6211H105.532L106.006 50.0615H112.853L112.379 53.6211Z" fill="#157B6C"/>
<path d="M111.562 59.4917H104.715L105.19 55.9309H112.035L111.562 59.4917Z" fill="#157B6C"/>
<path d="M110.199 70.9963H103.414L103.889 67.4368H110.673L110.199 70.9963Z" fill="#157B6C"/>
<path d="M110.811 65.1269H104.324L104.798 61.5662H111.284L110.811 65.1269Z" fill="#157B6C"/>
<path d="M106.889 94.8641H100.037L100.492 91.4441H107.344L106.889 94.8641Z" fill="#157B6C"/>
<path d="M107.826 88.8291H101.041L101.515 85.2683H108.3L107.826 88.8291Z" fill="#157B6C"/>
<path d="M108.437 82.9582H101.95L102.424 79.3975H108.91L108.437 82.9582Z" fill="#157B6C"/>
<path d="M102.266 129.589H95.4141L95.8694 126.169H102.721L102.266 129.589Z" fill="#157B6C"/>
<path d="M106.125 100.308H99.3994L99.8745 96.7468H106.6L106.125 100.308Z" fill="#157B6C"/>
<path d="M105.381 106.178H98.5352L99.009 102.617H105.856L105.381 106.178Z" fill="#157B6C"/>
<path d="M104.564 112.049H97.7168L98.1906 108.488H105.037L104.564 112.049Z" fill="#157B6C"/>
<path d="M103.203 123.553H96.418L96.8918 119.993H103.677L103.203 123.553Z" fill="#157B6C"/>
<path d="M103.814 117.683H97.3271L97.801 114.123H104.287L103.814 117.683Z" fill="#157B6C"/>
<path d="M78.6641 29.8343H44.8066L45.2619 26.4131H79.1194L78.6641 29.8343Z" fill="#157B6C"/>
<path d="M84.6135 36.0527H48.9237C48.8448 36.0527 48.7683 36.0179 48.7165 35.958C48.6646 35.8982 48.64 35.8173 48.6511 35.7375L49.1249 32.1767C49.1434 32.0384 49.2594 31.9363 49.3976 31.9363H85.0873C85.1663 31.9363 85.2428 31.9712 85.2946 32.031C85.3464 32.0908 85.3711 32.1718 85.36 32.2515L84.8862 35.8123C84.8677 35.9493 84.7505 36.0527 84.6135 36.0527ZM49.2384 35.4971H84.3729L84.7727 32.492H49.6382L49.2384 35.4971Z" fill="black"/>
<path d="M93.9435 41.9233H52.3632C52.2842 41.9233 52.2077 41.8885 52.1559 41.8287C52.1041 41.7689 52.0794 41.6879 52.0905 41.6081L52.5643 38.0473C52.5828 37.909 52.6988 37.8069 52.837 37.8069H94.4173C94.4963 37.8069 94.5728 37.8418 94.6246 37.9016C94.6764 37.9614 94.7011 38.0424 94.69 38.1221L94.2162 41.6829C94.1977 41.8199 94.0804 41.9233 93.9435 41.9233ZM52.6778 41.3677H93.7029L94.1026 38.3626H53.0776L52.6778 41.3677Z" fill="black"/>
<path d="M99.2738 47.7927H64.5761C64.4971 47.7927 64.4206 47.7578 64.3688 47.698C64.317 47.6382 64.2923 47.5573 64.3034 47.4775L64.7772 43.9167C64.7957 43.7784 64.9117 43.6763 65.0499 43.6763H99.7489C99.8278 43.6763 99.9043 43.7112 99.9562 43.771C100.008 43.8308 100.033 43.9117 100.022 43.9915L99.5477 47.5523C99.528 47.6906 99.412 47.7927 99.2738 47.7927ZM64.8907 47.2371H99.0345L99.4342 44.2319H65.2905L64.8907 47.2371Z" fill="black"/>
<path d="M65.9778 76.7974H38.5537L39.009 73.3774H66.4331L65.9778 76.7974Z" fill="#157B6C"/>
<path d="M66.4046 83.0156H46.3505C46.2715 83.0156 46.195 82.9807 46.1432 82.9209C46.0914 82.8611 46.0667 82.7802 46.0778 82.7004L46.5516 79.1396C46.5701 79.0013 46.6861 78.8992 46.8243 78.8992H66.8784C66.9574 78.8992 67.0339 78.9341 67.0857 78.9939C67.1376 79.0537 67.1622 79.1346 67.1511 79.2144L66.6773 82.7752C66.6588 82.9122 66.5428 83.0156 66.4046 83.0156ZM46.6651 82.46H66.164L66.5638 79.4548H47.0649L46.6651 82.46Z" fill="black"/>
<path d="M73.5864 88.8862H54.3886C54.3096 88.8862 54.2331 88.8513 54.1813 88.7915C54.1295 88.7317 54.1048 88.6508 54.1159 88.571L54.5897 85.0102C54.6082 84.8719 54.7242 84.7698 54.8624 84.7698H74.0602C74.1392 84.7698 74.2157 84.8047 74.2675 84.8645C74.3193 84.9243 74.344 85.0052 74.3329 85.085L73.8591 88.6458C73.8406 88.7828 73.7246 88.8862 73.5864 88.8862ZM54.7032 88.3306H73.3458L73.7456 85.3254H55.103L54.7032 88.3306Z" fill="black"/>
<path d="M86.2956 94.7559H62.0019C61.9229 94.7559 61.8464 94.721 61.7946 94.6612C61.7428 94.6014 61.7181 94.5204 61.7292 94.4407L62.203 90.8799C62.2215 90.7416 62.3375 90.6394 62.4757 90.6394H86.7694C86.8484 90.6394 86.9249 90.6743 86.9767 90.7341C87.0285 90.7939 87.0532 90.8749 87.0421 90.9546L86.5683 94.5154C86.5498 94.6537 86.4338 94.7559 86.2956 94.7559ZM62.3165 94.2002H86.055L86.4548 91.1951H62.7163L62.3165 94.2002Z" fill="black"/>
<path d="M66.6311 53.3857H42.1104L42.5854 49.825H67.1049L66.6311 53.3857Z" fill="#157B6C"/>
<path d="M97.1021 59.5342H59.2148C59.1358 59.5342 59.0593 59.4993 59.0075 59.4395C58.9556 59.3797 58.931 59.2987 58.9421 59.219L59.4159 55.6582C59.4344 55.5199 59.5504 55.4177 59.6886 55.4177H97.5759C97.6548 55.4177 97.7313 55.4526 97.7832 55.5124C97.835 55.5722 97.8597 55.6532 97.8486 55.7329L97.3748 59.2937C97.3562 59.4308 97.2403 59.5342 97.1021 59.5342ZM59.5294 58.9785H96.8615L97.2612 55.9734H59.9292L59.5294 58.9785Z" fill="black"/>
<path d="M65.375 65.1172H40.8555L41.3293 61.5564H65.8488L65.375 65.1172Z" fill="#157B6C"/>
<path d="M95.8472 71.2656H57.9599C57.8809 71.2656 57.8044 71.2307 57.7526 71.1709C57.7008 71.1111 57.6761 71.0301 57.6872 70.9504L58.161 67.3896C58.1795 67.2513 58.2955 67.1492 58.4337 67.1492H96.321C96.4 67.1492 96.4765 67.184 96.5283 67.2439C96.5801 67.3037 96.6048 67.3846 96.5937 67.4644L96.1199 71.0252C96.1026 71.1622 95.9854 71.2656 95.8472 71.2656ZM58.2745 70.71H95.6066L96.0064 67.7048H58.6743L58.2745 70.71Z" fill="black"/>
<path d="M65.9145 100.279H35.4268L35.8821 96.8589H66.3698L65.9145 100.279Z" fill="#157B6C"/>
<path d="M85.6517 106.497H35.8661C35.7872 106.497 35.7107 106.462 35.6588 106.402C35.607 106.343 35.5823 106.262 35.5934 106.182L36.0672 102.621C36.0858 102.483 36.2017 102.381 36.3399 102.381H86.1255C86.2044 102.381 86.2809 102.416 86.3328 102.475C86.3846 102.535 86.4093 102.616 86.3982 102.696L85.9244 106.257C85.9058 106.394 85.7899 106.497 85.6517 106.497ZM36.1808 105.941H85.4111L85.8108 102.936H36.5805L36.1808 105.941Z" fill="black"/>
<path d="M85.4827 112.368H56.9013C56.8223 112.368 56.7458 112.333 56.694 112.273C56.6422 112.213 56.6175 112.132 56.6286 112.053L57.1024 108.492C57.1209 108.354 57.2369 108.251 57.3751 108.251H85.9578C86.0367 108.251 86.1132 108.286 86.1651 108.346C86.2169 108.406 86.2415 108.487 86.2304 108.567L85.7566 112.127C85.7369 112.265 85.6209 112.368 85.4827 112.368ZM57.2159 111.812H85.2433L85.6431 108.807H57.6157L57.2159 111.812Z" fill="black"/>
<path d="M73.4959 123.83H54.382L52.8359 120.271H73.9697L73.4959 123.83Z" fill="#157B6C"/>
<path d="M91.1973 117.774H63.7831C63.7042 117.774 63.6277 117.739 63.5758 117.679C63.524 117.619 63.4993 117.538 63.5104 117.459L63.9842 113.898C64.0027 113.76 64.1187 113.657 64.2569 113.657H91.6711C91.7501 113.657 91.8266 113.692 91.8784 113.752C91.9302 113.812 91.9549 113.893 91.9438 113.973L91.47 117.533C91.4527 117.671 91.3355 117.774 91.1973 117.774ZM64.0978 117.218H90.9567L91.3565 114.213H64.4975L64.0978 117.218Z" fill="black"/>
<path d="M79.1467 129.979H57.2701C57.1184 129.979 56.995 129.854 56.995 129.701C56.995 129.548 57.1184 129.423 57.2701 129.423H78.9061L79.3059 126.418H56.2546C56.1029 126.418 55.9795 126.293 55.9795 126.14C55.9795 125.987 56.1029 125.862 56.2546 125.862H79.6217C79.7007 125.862 79.7772 125.897 79.829 125.957C79.8808 126.017 79.9055 126.098 79.8944 126.178L79.4206 129.738C79.4021 129.875 79.2849 129.979 79.1467 129.979Z" fill="black"/>
<path d="M216.844 208.037L216.158 214.688L211.733 215.215V207.328L216.844 208.037Z" fill="white"/>
<path d="M211.733 215.492C211.667 215.492 211.601 215.467 211.551 215.423C211.491 215.37 211.458 215.294 211.458 215.215V207.329C211.458 207.25 211.493 207.172 211.552 207.12C211.612 207.068 211.691 207.043 211.77 207.054L216.881 207.762C217.028 207.782 217.133 207.916 217.117 208.066L216.429 214.716C216.416 214.846 216.316 214.948 216.187 214.963L211.763 215.49C211.755 215.491 211.744 215.492 211.733 215.492ZM212.008 207.647V214.902L215.906 214.437L216.543 208.275L212.008 207.647Z" fill="black"/>
<path d="M211.038 226.791C212.882 227.055 215.906 227.287 219.458 226.787C220.619 226.624 221.389 225.477 221.108 224.321C220.327 221.092 218.98 214.966 216.669 212.127L216.095 213.667L215.302 212.218C215.193 212.02 214.998 211.885 214.776 211.857L213.039 211.632C212.676 211.585 212.339 211.829 212.264 212.193L211.988 213.529L210.929 211.778L210.459 218.318C210.358 219.719 210.149 221.11 209.836 222.478L209.362 224.541C209.22 225.631 209.967 226.638 211.038 226.791Z" fill="white"/>
<path d="M215.22 227.361C213.527 227.361 212.084 227.223 210.999 227.067C209.785 226.894 208.928 225.744 209.089 224.505L209.567 222.416C209.877 221.065 210.084 219.68 210.184 218.298L210.654 211.758C210.663 211.638 210.748 211.537 210.864 211.508C210.98 211.479 211.101 211.53 211.164 211.634L211.861 212.786L211.996 212.137C212.099 211.635 212.574 211.291 213.075 211.357L214.813 211.58C215.12 211.62 215.394 211.808 215.544 212.082L216.049 213.004L216.413 212.029C216.447 211.937 216.529 211.869 216.625 211.853C216.724 211.837 216.82 211.874 216.883 211.95C219.077 214.645 220.412 220.223 221.21 223.556L221.378 224.255C221.53 224.883 221.411 225.551 221.051 226.085C220.693 226.618 220.127 226.975 219.496 227.063C217.956 227.28 216.515 227.361 215.22 227.361ZM211.141 212.663L210.732 218.338C210.631 219.748 210.419 221.162 210.103 222.54L209.629 224.604C209.512 225.516 210.16 226.385 211.075 226.516C212.957 226.785 215.93 227.003 219.419 226.512C219.895 226.445 220.322 226.176 220.593 225.772C220.866 225.367 220.956 224.862 220.84 224.386L220.672 223.685C219.923 220.554 218.693 215.416 216.751 212.692L216.351 213.764C216.314 213.865 216.22 213.936 216.113 213.944C216.002 213.95 215.905 213.895 215.853 213.8L215.059 212.351C214.993 212.231 214.874 212.148 214.74 212.132L213.002 211.908C212.783 211.879 212.577 212.03 212.531 212.251L212.255 213.586C212.231 213.698 212.144 213.784 212.033 213.803C211.922 213.823 211.809 213.772 211.751 213.673L211.141 212.663Z" fill="black"/>
<path d="M215.083 225.385C212.834 225.385 211.465 224.899 211.382 224.868C211.238 224.815 211.166 224.656 211.216 224.513C211.268 224.368 211.425 224.293 211.568 224.346C211.598 224.357 214.518 225.386 218.828 224.388C218.976 224.353 219.124 224.447 219.157 224.596C219.192 224.746 219.099 224.895 218.951 224.929C217.484 225.27 216.179 225.385 215.083 225.385Z" fill="black"/>
<path d="M217.218 220.275C217.215 220.275 217.212 220.275 217.208 220.275L213.061 220.136C212.91 220.131 212.79 220.003 212.796 219.849C212.801 219.696 212.933 219.573 213.08 219.58L217.227 219.72C217.379 219.725 217.498 219.853 217.492 220.006C217.489 220.157 217.366 220.275 217.218 220.275Z" fill="black"/>
<path d="M196.123 204.495L195.46 214.2H190.137L189.889 204.495H196.123Z" fill="white"/>
<path d="M195.459 214.478H190.135C189.985 214.478 189.863 214.359 189.859 214.208L189.611 204.502C189.609 204.428 189.637 204.355 189.689 204.302C189.741 204.248 189.813 204.218 189.887 204.218H196.121C196.198 204.218 196.271 204.251 196.323 204.307C196.374 204.363 196.401 204.439 196.395 204.515L195.733 214.22C195.724 214.365 195.604 214.478 195.459 214.478ZM190.404 213.923H195.202L195.828 204.773H190.17L190.404 213.923Z" fill="black"/>
<path d="M196.85 219.68C196.863 220.598 196.246 221.404 195.367 221.612C192.307 222.336 185.412 223.948 183.445 224.246C180.892 224.632 177.756 223.837 176.407 222.32C175.058 220.802 179.428 217.179 181.5 215.861C184.58 213.903 187.539 210.033 188.78 209.858C190.022 209.684 192.338 213.343 192.338 213.343L196.123 211.727C196.122 211.726 196.781 215.023 196.85 219.68Z" fill="white"/>
<path d="M182.111 224.621C179.764 224.621 177.346 223.791 176.202 222.506C175.938 222.208 175.834 221.837 175.895 221.401C176.159 219.492 179.686 216.686 181.353 215.626C182.866 214.664 184.334 213.249 185.63 211.999C187.024 210.655 188.032 209.683 188.742 209.583C189.985 209.408 191.84 212.075 192.441 212.996L196.014 211.471C196.091 211.438 196.177 211.442 196.25 211.481C196.323 211.519 196.374 211.589 196.392 211.671C196.398 211.705 197.057 215.048 197.125 219.676C197.139 220.719 196.426 221.647 195.428 221.883C192.499 222.575 185.47 224.22 183.484 224.52C183.038 224.588 182.575 224.621 182.111 224.621ZM188.874 210.129C188.854 210.129 188.836 210.13 188.817 210.133C188.283 210.207 187.178 211.273 186.009 212.4C184.695 213.667 183.205 215.104 181.646 216.096C179.939 217.181 176.661 219.873 176.439 221.477C176.402 221.746 176.457 221.961 176.612 222.133C177.87 223.549 180.854 224.356 183.404 223.97C185.37 223.672 192.38 222.032 195.303 221.341C196.051 221.164 196.587 220.466 196.574 219.683C196.52 215.946 196.077 213.066 195.913 212.115L192.443 213.596C192.32 213.649 192.177 213.604 192.104 213.49C191.205 212.071 189.633 210.129 188.874 210.129Z" fill="black"/>
<path d="M182.149 222.242C180.484 222.242 178.996 221.966 177.921 221.255C177.794 221.17 177.758 220.998 177.842 220.87C177.925 220.741 178.096 220.705 178.224 220.79C182.172 223.403 192.694 219.537 194.764 218.736C194.906 218.681 195.065 218.752 195.119 218.895C195.173 219.038 195.103 219.199 194.961 219.254C192.776 220.1 186.783 222.242 182.149 222.242Z" fill="black"/>
<path d="M188.062 216.962C187.993 216.962 187.923 216.935 187.87 216.882L185.665 214.701C185.556 214.594 185.554 214.419 185.661 214.309C185.767 214.199 185.942 214.198 186.05 214.305L188.255 216.486C188.363 216.593 188.366 216.768 188.258 216.878C188.205 216.933 188.134 216.962 188.062 216.962Z" fill="black"/>
<path d="M218.356 141.225C218.356 141.225 220.006 171.566 220.869 182.039C221.733 192.512 218.851 209.348 218.851 209.348L210.633 208.909C210.633 208.909 210.07 188.439 209.46 182.755C209.46 182.755 205.989 175.049 204.96 168.177C203.931 161.304 200.427 150.448 200.427 150.448C200.427 150.448 197.581 204.632 197.306 208.888C197.306 208.888 190.863 209.179 188.552 207.702C188.552 207.702 184.458 187.944 185.046 177.196C185.634 166.446 184.988 139.739 184.988 139.739L218.356 141.225Z" fill="white"/>
<path d="M218.851 209.625C218.846 209.625 218.841 209.625 218.836 209.625L210.618 209.187C210.475 209.179 210.362 209.062 210.358 208.918C210.353 208.713 209.792 188.499 209.191 182.83C208.915 182.208 205.672 174.791 204.688 168.219C203.897 162.93 201.605 155.183 200.621 151.991C200.156 160.835 197.827 205.1 197.581 208.908C197.572 209.049 197.459 209.161 197.318 209.167C197.051 209.179 190.761 209.445 188.405 207.938C188.342 207.899 188.297 207.834 188.283 207.76C188.242 207.562 184.189 187.845 184.771 177.182C185.351 166.567 184.719 140.014 184.713 139.748C184.711 139.671 184.741 139.597 184.796 139.542C184.85 139.489 184.924 139.461 185.001 139.462L218.368 140.949C218.51 140.955 218.624 141.068 218.631 141.212C218.648 141.514 220.291 171.668 221.143 182.017C221.999 192.406 219.15 209.228 219.121 209.397C219.099 209.529 218.983 209.625 218.851 209.625ZM210.901 208.645L218.62 209.057C218.967 206.949 221.389 191.698 220.595 182.062C219.783 172.21 218.256 144.436 218.095 141.492L185.271 140.029C185.339 142.993 185.869 167.183 185.321 177.211C184.766 187.371 188.462 205.87 188.798 207.527C190.829 208.72 195.873 208.651 197.048 208.619C197.397 202.889 200.124 150.966 200.152 150.433C200.16 150.299 200.26 150.19 200.392 150.172C200.521 150.155 200.648 150.235 200.689 150.362C200.724 150.47 204.212 161.318 205.232 168.134C206.243 174.888 209.677 182.563 209.71 182.639C209.722 182.667 209.73 182.695 209.734 182.724C210.3 188.01 210.833 206.261 210.901 208.645Z" fill="black"/>
<path d="M213.485 183.03H210.972C210.821 183.03 210.697 182.906 210.697 182.752C210.697 182.599 210.821 182.475 210.972 182.475H213.485C213.636 182.475 213.76 182.599 213.76 182.752C213.76 182.906 213.636 183.03 213.485 183.03Z" fill="black"/>
<path d="M193.08 198.79C192.931 198.79 192.807 198.669 192.805 198.517C192.717 193.654 187.209 184.51 187.154 184.418C187.075 184.287 187.115 184.117 187.245 184.036C187.374 183.956 187.543 183.997 187.622 184.128C187.853 184.508 193.265 193.492 193.355 198.506C193.357 198.659 193.237 198.786 193.085 198.788C193.082 198.79 193.081 198.79 193.08 198.79Z" fill="black"/>
<path d="M179.922 93.2293C179.467 93.1932 175.68 99.7578 173.898 102.892C173.393 103.783 172.262 104.074 171.4 103.535L157.476 94.8552C156.339 94.1463 155.363 93.1981 154.629 92.0681C153.467 90.279 152.775 88.46 151.217 87.1892C149.951 86.1551 148.669 85.0063 148.286 84.7061C148.046 84.5179 146.928 85.3203 147.77 86.7456C148.028 87.1829 148.994 88.0713 149.259 88.4737C149.681 89.1166 149.681 89.9725 149.212 90.5805C148.713 91.2284 148.296 92.2675 148.857 93.7139C149.686 95.8519 151.568 96.3814 152.633 96.506C153.168 96.5683 153.659 96.8299 154.015 97.2411L166.864 112.108C168.858 114.415 172.191 114.937 174.773 113.343C178.951 110.767 184.33 105.574 188.204 99.0103L179.922 93.2293Z" fill="white"/>
<path d="M171.54 114.543C169.721 114.543 167.928 113.767 166.654 112.293L153.804 97.4257C153.493 97.0657 153.065 96.8377 152.599 96.7841C151.485 96.6545 149.483 96.0964 148.599 93.8176C147.982 92.2266 148.473 91.0878 148.993 90.4126C149.382 89.908 149.397 89.1916 149.028 88.6297C148.918 88.4627 148.644 88.1699 148.378 87.8871C148.037 87.5246 147.686 87.1508 147.531 86.8892C146.922 85.8575 147.218 85.0353 147.655 84.644C147.934 84.3949 148.254 84.3326 148.452 84.4871C148.617 84.6166 148.94 84.8957 149.35 85.2483C149.9 85.7242 150.655 86.3746 151.388 86.9726C152.528 87.9033 153.21 89.0981 153.931 90.364C154.221 90.8723 154.521 91.3981 154.857 91.9151C155.559 92.9953 156.514 93.9297 157.618 94.6187L171.542 103.299C171.895 103.519 172.311 103.584 172.712 103.481C173.114 103.377 173.451 103.12 173.659 102.754C179.258 92.8994 179.666 92.933 179.943 92.953C179.991 92.9567 180.038 92.9741 180.077 93.0015L188.356 98.7838C188.476 98.8673 188.511 99.0292 188.437 99.1551C184.271 106.212 178.719 111.235 174.912 113.583C173.863 114.228 172.696 114.543 171.54 114.543ZM148.166 84.9655C148.09 84.9941 147.941 85.1 147.839 85.3006C147.711 85.5511 147.636 85.9796 148.005 86.6051C148.128 86.8132 148.473 87.1807 148.778 87.5046C149.072 87.8186 149.351 88.1151 149.487 88.3219C149.985 89.0832 149.962 90.06 149.428 90.7527C148.798 91.5688 148.691 92.5318 149.111 93.6133C149.89 95.6204 151.67 96.1151 152.662 96.2309C153.265 96.3007 153.818 96.596 154.219 97.0595L167.068 111.927C168.976 114.135 172.156 114.632 174.626 113.107C178.336 110.818 183.733 105.944 187.832 99.0915L179.917 93.5634C179.428 94.0693 177.696 96.7667 174.137 103.031C173.855 103.528 173.397 103.88 172.849 104.02C172.303 104.161 171.736 104.073 171.255 103.772L157.331 95.0922C156.159 94.3608 155.144 93.3678 154.398 92.2204C154.052 91.6896 153.749 91.1564 153.455 90.6406C152.76 89.4221 152.104 88.2709 151.043 87.405C150.304 86.8019 149.546 86.1478 148.993 85.6707C148.629 85.3554 148.333 85.1013 148.166 84.9655Z" fill="black"/>
<path d="M227.712 105.439C227.712 105.439 228.639 88.1549 215.698 83.2996C205.678 79.5395 192.882 81.1616 188.872 82.5658C178.999 86.0244 174.139 99.1973 174.139 99.1973L185.71 100.844C185.71 100.844 182.222 138.692 183.734 147.133C183.734 147.133 193.047 148.237 196.996 146.656C200.946 145.075 213.932 142.86 220.14 145.759L219.013 105.276L227.712 105.439Z" fill="#157B6C"/>
<path d="M190.306 147.79C186.985 147.79 183.922 147.435 183.704 147.409C183.583 147.395 183.487 147.303 183.465 147.182C182.012 139.075 185.08 104.732 185.413 101.081L174.101 99.4726C174.018 99.4614 173.945 99.4116 173.902 99.3393C173.859 99.2671 173.852 99.1786 173.881 99.1001C173.93 98.9668 178.901 85.7652 188.783 82.3041C193.16 80.7717 205.984 79.3588 215.795 83.0392C221.171 85.0563 224.984 89.5777 226.823 96.1137C228.205 101.03 227.989 105.409 227.988 105.454C227.979 105.601 227.858 105.717 227.713 105.717C227.711 105.717 227.709 105.717 227.708 105.717L219.296 105.56L220.417 145.752C220.419 145.848 220.372 145.939 220.293 145.992C220.214 146.046 220.113 146.053 220.027 146.012C213.829 143.118 200.984 145.36 197.099 146.915C195.405 147.592 192.783 147.79 190.306 147.79ZM183.972 146.879C185.354 147.027 193.376 147.806 196.897 146.397C200.762 144.85 213.381 142.641 219.855 145.328L218.739 105.284C218.736 105.208 218.766 105.134 218.818 105.08C218.871 105.027 218.95 104.999 219.019 104.998L227.446 105.155C227.488 102.959 227.328 87.958 215.603 83.5587C205.922 79.9257 193.278 81.3161 188.964 82.8274C180.181 85.9035 175.351 96.9347 174.525 98.9705L185.75 100.568C185.895 100.589 185.999 100.721 185.985 100.869C185.95 101.244 182.571 138.182 183.972 146.879Z" fill="white"/>
<path d="M211.584 137.693C211.568 137.693 211.552 137.692 211.536 137.689C196.431 134.976 192.012 124.287 191.969 124.18C191.912 124.038 191.98 123.876 192.122 123.819C192.262 123.762 192.423 123.83 192.48 123.972C192.522 124.077 196.841 134.485 211.632 137.141C211.782 137.169 211.881 137.312 211.856 137.464C211.831 137.598 211.715 137.693 211.584 137.693Z" fill="white"/>
<path d="M183.974 119.361H202.932L196.993 97.8379H178.036L183.974 119.361Z" fill="white"/>
<path d="M202.932 119.639H183.974C183.85 119.639 183.742 119.555 183.708 119.436L177.771 97.9114C177.748 97.828 177.765 97.7382 177.817 97.6685C177.868 97.5987 177.95 97.5588 178.036 97.5588H196.995C197.118 97.5588 197.227 97.6423 197.26 97.7619L203.197 119.286C203.221 119.37 203.204 119.459 203.152 119.529C203.099 119.599 203.017 119.639 202.932 119.639ZM184.182 119.083H202.569L196.785 98.1145H178.398L184.182 119.083Z" fill="black"/>
<path d="M225.465 105.454L217.128 105.072C217.128 105.072 217.065 112.207 216.313 112.335C213.634 112.789 208.021 112.813 204.368 112.364C203.096 112.208 202.089 111.219 201.85 109.94C201.67 108.974 201.154 107.839 199.849 107.022C198.586 106.232 199.831 108.716 198.651 110.316C198.016 111.175 196.009 110.794 193.272 110.15C190.534 109.506 189.84 112.479 192.907 114.275C196.233 116.224 198.346 116.005 199.407 116.233C201.519 116.687 220.199 119.663 223.083 118.07C225.311 116.839 225.465 105.454 225.465 105.454Z" fill="white"/>
<path d="M219.46 118.816C212.797 118.816 200.407 116.731 199.351 116.504C199.139 116.458 198.867 116.431 198.554 116.398C197.313 116.27 195.436 116.077 192.771 114.516C190.84 113.384 190.366 111.833 190.744 110.871C191.023 110.162 191.849 109.529 193.336 109.878C195.804 110.46 197.891 110.881 198.432 110.149C198.959 109.434 198.951 108.49 198.945 107.801C198.94 107.233 198.937 106.822 199.239 106.65C199.493 106.506 199.792 106.658 199.994 106.784C201.14 107.5 201.876 108.573 202.121 109.886C202.341 111.062 203.258 111.945 204.403 112.086C208.002 112.527 213.51 112.517 216.228 112.066C216.581 111.631 216.827 108.125 216.854 105.068C216.855 104.992 216.886 104.921 216.94 104.869C216.994 104.816 217.067 104.789 217.141 104.793L225.478 105.175C225.627 105.181 225.744 105.306 225.741 105.457C225.725 106.639 225.518 117.04 223.217 118.312C222.565 118.673 221.209 118.816 219.46 118.816ZM192.554 110.338C191.917 110.338 191.442 110.598 191.255 111.076C190.961 111.823 191.396 113.068 193.046 114.035C195.61 115.536 197.415 115.723 198.61 115.845C198.939 115.879 199.224 115.909 199.465 115.96C201.618 116.423 220.184 119.353 222.951 117.825C224.616 116.905 225.119 109.022 225.186 105.72L217.4 105.362C217.39 105.941 217.362 107.309 217.278 108.672C217.063 112.197 216.707 112.55 216.359 112.608C213.614 113.073 207.996 113.088 204.336 112.638C202.953 112.469 201.845 111.403 201.581 109.989C201.361 108.817 200.731 107.897 199.705 107.256C199.616 107.201 199.557 107.173 199.52 107.16C199.491 107.288 199.493 107.577 199.496 107.796C199.502 108.52 199.51 109.615 198.872 110.48C198.131 111.486 196.058 111.089 193.21 110.419C192.977 110.365 192.757 110.338 192.554 110.338Z" fill="black"/>
<path d="M196.757 82.8746C196.757 82.8746 198.916 81.5328 198.894 80.7491L199.509 76.7236C199.516 76.3548 199.291 76.0247 198.95 75.9038L196.398 75.0192C196.072 74.9034 195.862 74.5794 195.884 74.2268L196.083 71.0274L195.082 70.1328C195.003 70.063 194.995 69.9422 195.061 69.8599L196.642 67.9151C197.159 67.18 197.677 65.422 198.1 65.5429C198.1 65.5429 207.106 64.4926 207.544 69.0775C207.609 69.7416 207.41 70.4044 207.029 70.9464L206.232 72.0814C205.431 73.2214 205.009 74.6193 205.151 76.0159C205.18 76.3062 205.554 78.1751 205.805 79.411C205.946 80.1125 206.333 80.7367 206.892 81.1715C207.595 81.7184 208.451 82.4149 208.312 82.461C208.312 82.461 207.315 83.2011 205.74 83.8564C202.944 85.0201 199.765 84.731 197.181 83.1388L196.757 82.8746Z" fill="white"/>
<path d="M202.193 84.8395C200.406 84.8395 198.617 84.3462 197.044 83.3756L196.616 83.1115C196.534 83.0616 196.484 82.9719 196.484 82.8747C196.484 82.7776 196.533 82.6879 196.615 82.638C197.588 82.0325 198.632 81.1417 198.621 80.7567C198.621 80.7405 198.622 80.7231 198.625 80.7069L199.238 76.7026C199.235 76.4596 199.086 76.2453 198.863 76.1656L196.312 75.281C195.871 75.124 195.584 74.6829 195.614 74.2083L195.804 71.1446L194.904 70.3397C194.714 70.169 194.691 69.8812 194.853 69.6819L196.433 67.737C196.602 67.4953 196.795 67.0792 196.98 66.678C197.36 65.8532 197.666 65.1954 198.117 65.2589C198.7 65.1954 204.056 64.6771 206.562 66.7216C207.31 67.3321 207.734 68.1146 207.824 69.0477C207.892 69.7591 207.692 70.4892 207.259 71.1047L206.462 72.2397C205.666 73.3723 205.3 74.7029 205.431 75.9849C205.443 76.1058 205.544 76.7038 206.081 79.3526C206.209 79.988 206.56 80.5549 207.067 80.9486C208.657 82.1858 208.637 82.3004 208.605 82.4898C208.593 82.5633 208.545 82.6343 208.482 82.6804C208.44 82.7115 207.439 83.4479 205.853 84.1094C204.682 84.5991 203.438 84.8395 202.193 84.8395ZM197.276 82.8673L197.33 82.9009C199.852 84.4545 202.959 84.7162 205.642 83.5986C206.745 83.1389 207.565 82.633 207.935 82.3876C207.772 82.2331 207.433 81.9391 206.73 81.3921C206.118 80.9162 205.696 80.2322 205.54 79.4672C205.127 77.4302 204.906 76.2789 204.881 76.0447C204.737 74.6281 205.138 73.1629 206.012 71.9208L206.809 70.7858C207.164 70.2787 207.33 69.6819 207.274 69.1038C207.199 68.3139 206.852 67.6772 206.214 67.1565C203.797 65.1829 198.19 65.8121 198.135 65.8184C198.116 65.8208 198.098 65.8208 198.079 65.8196C197.927 65.9355 197.647 66.5447 197.476 66.9147C197.281 67.3384 197.078 67.7769 196.867 68.0759L195.324 69.9759L196.267 70.8194C196.33 70.8767 196.364 70.9589 196.359 71.0449L196.16 74.2444C196.146 74.4724 196.281 74.6829 196.49 74.7577L199.04 75.6423C199.494 75.8043 199.792 76.2416 199.784 76.73C199.784 76.7424 199.783 76.7549 199.781 76.7673L199.167 80.7717C199.158 81.4893 197.948 82.41 197.276 82.8673Z" fill="black"/>
<path d="M197.804 58.5635C199.856 58.4564 197.261 60.5919 204.863 58.3866C207.891 57.5083 206.335 61.094 207.121 60.8685C210.023 60.035 209.924 60.0599 211.334 60.4486C212.268 60.7065 212.864 62.4707 212.678 63.7851C212.432 65.5194 210.505 68.2729 208.78 71.1845C207.887 72.6921 206.305 72.8279 204.391 70.5853C204.188 70.346 205.229 68.9407 204.685 68.3339C203.273 66.7578 202.645 69.1388 201.505 68.4037C200.411 67.6985 199.959 67.2413 198.802 66.1748C197.403 64.884 195.052 66.8937 194.241 63.987C193.821 62.4695 194.994 58.7093 197.804 58.5635Z" fill="#157B6C"/>
<path d="M130.625 217.388C130.625 217.388 131.253 217.391 131.856 216.96C133.717 215.627 137.588 212.649 140.232 213.021C144.661 213.644 145.185 217.296 145.185 217.296C145.185 217.296 148.92 217.157 148.846 219.666C148.789 221.592 147.702 224.039 144.683 225.386C140.567 227.221 136.441 228.62 131.885 225.607C131 225.023 129.952 224.75 128.9 224.856C126.341 225.117 88.2048 225.946 88.2048 225.946C79.4813 225.946 71.4772 221.059 67.4264 213.257L59.3877 197.775L68.5973 171.792L83.0386 205.668C90.0359 215.309 129.896 217.555 130.625 217.388Z" fill="white"/>
<path d="M137.447 227.63C135.602 227.63 133.7 227.139 131.735 225.839C130.898 225.285 129.901 225.035 128.93 225.133C126.389 225.391 89.7701 226.189 88.2117 226.224C79.3513 226.224 71.2953 221.306 67.1841 213.385L59.1454 197.904C59.1096 197.835 59.1047 197.754 59.1306 197.681L68.3402 171.697C68.3785 171.59 68.4772 171.517 68.5907 171.513C68.703 171.507 68.8079 171.577 68.8523 171.681L83.2812 205.527C90.0626 214.781 129.037 217.309 130.578 217.116C130.598 217.111 130.605 217.111 130.626 217.111C130.642 217.111 131.185 217.099 131.697 216.733L132.129 216.422C134.215 214.912 137.707 212.385 140.271 212.746C144.181 213.296 145.192 216.165 145.408 217.017C146.006 217.028 147.609 217.144 148.502 218.041C148.933 218.474 149.142 219.022 149.123 219.673C149.095 220.633 148.699 223.9 144.796 225.64C142.449 226.685 140.002 227.63 137.447 227.63ZM129.345 224.555C130.288 224.555 131.228 224.839 132.038 225.373C136.497 228.324 140.512 226.942 144.573 225.13C148.18 223.522 148.546 220.533 148.572 219.656C148.586 219.158 148.437 218.759 148.115 218.435C147.195 217.512 145.217 217.572 145.196 217.573C145.192 217.573 145.19 217.573 145.186 217.573C145.05 217.573 144.933 217.472 144.913 217.335C144.892 217.195 144.354 213.881 140.195 213.296C137.85 212.967 134.336 215.507 132.449 216.873L132.014 217.185C131.347 217.663 130.645 217.659 130.624 217.665C129.669 217.719 119.71 217.168 109.139 215.48C99.1698 213.887 86.5102 210.92 82.8172 205.829C82.8049 205.812 82.795 205.794 82.7864 205.774L68.6215 172.547L59.6883 197.752L67.6702 213.126C71.6865 220.862 79.5549 225.667 88.2043 225.667C88.5794 225.659 126.353 224.835 128.873 224.58C129.031 224.562 129.187 224.555 129.345 224.555Z" fill="black"/>
<path d="M120.605 210.424L124.294 203.905L127.321 205.889C127.488 205.998 127.627 206.147 127.727 206.32L127.909 206.635C128.137 207.031 128.559 207.275 129.007 207.269C129.25 207.267 129.491 207.336 129.698 207.472L152.212 222.196C152.397 222.317 152.568 222.463 152.716 222.63L157.266 227.723L150.933 226.278C150.589 226.199 150.254 226.075 149.938 225.909L126.244 213.402C126.042 213.294 125.872 213.134 125.752 212.938L125.722 212.888C125.493 212.511 125.084 212.279 124.651 212.281L124.433 212.283C124.232 212.284 124.033 212.234 123.853 212.139L120.605 210.424Z" fill="white"/>
<path d="M157.265 228C157.246 228 157.225 227.997 157.205 227.994L150.872 226.548C150.504 226.465 150.147 226.332 149.81 226.155L126.116 213.647C125.87 213.517 125.662 213.322 125.517 213.083L125.487 213.034C125.308 212.74 124.99 212.559 124.654 212.559C124.653 212.559 124.652 212.559 124.65 212.559L124.431 212.561C124.428 212.561 124.427 212.561 124.425 212.561C124.183 212.561 123.94 212.5 123.723 212.386L120.476 210.673C120.41 210.638 120.36 210.577 120.339 210.505C120.318 210.433 120.327 210.354 120.364 210.289L124.052 203.771C124.089 203.705 124.152 203.656 124.226 203.639C124.3 203.621 124.378 203.634 124.441 203.676L127.469 205.66C127.671 205.792 127.843 205.974 127.963 206.184L128.145 206.499C128.321 206.807 128.645 206.996 128.99 206.996C129 206.996 129.01 206.996 129.021 206.996C129.312 206.996 129.597 207.082 129.845 207.244L152.36 221.968C152.566 222.103 152.753 222.265 152.917 222.448L157.468 227.541C157.548 227.631 157.562 227.763 157.501 227.868C157.453 227.949 157.362 228 157.265 228ZM124.655 212.002C125.181 212.002 125.68 212.285 125.957 212.743L125.987 212.791C126.081 212.946 126.214 213.071 126.373 213.155L150.067 225.663C150.361 225.817 150.673 225.933 150.995 226.006L156.482 227.259L152.513 222.816C152.381 222.667 152.23 222.538 152.063 222.429L129.549 207.705C129.387 207.599 129.203 207.538 129.011 207.547C129.005 207.547 128.999 207.547 128.992 207.547C128.451 207.547 127.945 207.252 127.671 206.773L127.49 206.459C127.412 206.324 127.302 206.207 127.171 206.122L124.388 204.298L120.986 210.311L123.979 211.89C124.119 211.964 124.27 212 124.43 212.002L124.649 212.001C124.65 212.002 124.653 212.002 124.655 212.002Z" fill="black"/>
<path d="M151.074 225.351C151.032 225.351 150.989 225.341 150.949 225.32C150.814 225.249 150.761 225.082 150.83 224.945L152.182 222.3C152.253 222.164 152.418 222.111 152.554 222.181C152.688 222.252 152.741 222.418 152.672 222.556L151.32 225.201C151.271 225.298 151.174 225.351 151.074 225.351Z" fill="black"/>
<path d="M119.049 200.677L124.414 203.952L120.629 210.46L115.264 207.186C114.28 206.587 113.943 205.31 114.511 204.334L116.242 201.358C116.809 200.382 118.066 200.078 119.049 200.677Z" fill="#157B6C"/>
<path d="M120.63 210.738C120.58 210.738 120.531 210.724 120.488 210.698L115.122 207.424C114.012 206.746 113.632 205.297 114.274 204.193L116.005 201.217C116.312 200.688 116.807 200.315 117.397 200.164C118.006 200.008 118.644 200.107 119.191 200.441L124.556 203.715C124.684 203.793 124.727 203.963 124.651 204.093L120.865 210.602C120.828 210.666 120.766 210.713 120.695 210.73C120.675 210.735 120.652 210.738 120.63 210.738ZM117.969 200.647C117.824 200.647 117.677 200.666 117.534 200.702C117.087 200.817 116.713 201.1 116.481 201.498L114.75 204.475C114.26 205.318 114.555 206.428 115.408 206.948L120.535 210.076L124.041 204.047L118.908 200.915C118.617 200.738 118.294 200.647 117.969 200.647Z" fill="#157B6C"/>
<path d="M125.913 211.629C125.865 211.629 125.816 211.617 125.771 211.589C125.641 211.511 125.599 211.339 125.678 211.208L127.504 208.147C127.581 208.015 127.752 207.972 127.881 208.052C128.012 208.13 128.054 208.302 127.975 208.433L126.149 211.494C126.098 211.58 126.007 211.629 125.913 211.629Z" fill="black"/>
<path d="M136.688 214.218C136.638 214.218 136.588 214.204 136.543 214.175L129.824 209.917C129.696 209.834 129.656 209.664 129.738 209.533C129.819 209.403 129.988 209.363 130.117 209.446L136.835 213.704C136.963 213.786 137.003 213.957 136.921 214.088C136.87 214.171 136.779 214.218 136.688 214.218Z" fill="black"/>
<path d="M150.694 222.99C150.645 222.99 150.594 222.976 150.548 222.948L147.924 221.298C147.794 221.217 147.755 221.045 147.836 220.916C147.917 220.785 148.087 220.746 148.215 220.827L150.84 222.477C150.969 222.558 151.009 222.73 150.927 222.859C150.875 222.943 150.787 222.99 150.694 222.99Z" fill="black"/>
<path d="M120.031 208.123C119.981 208.123 119.932 208.109 119.886 208.082L115.797 205.546C115.668 205.467 115.627 205.295 115.707 205.164C115.787 205.033 115.956 204.992 116.086 205.073L120.175 207.608C120.305 207.688 120.345 207.86 120.265 207.991C120.213 208.075 120.123 208.123 120.031 208.123Z" fill="white"/>
<path d="M130.626 217.389C130.626 217.389 136.122 216.697 139.621 217.188C142.347 217.569 150.414 215.613 148.728 220.883C148.366 222.018 148.174 222.773 147.175 223.845C146.628 224.43 145.133 225.636 144.286 226.015C140.167 227.853 136.432 228.623 131.872 225.599C130.994 225.017 129.948 224.751 128.902 224.857C128.294 224.918 130.432 217.432 130.626 217.389Z" fill="white"/>
<path d="M138.013 227.904C135.997 227.904 133.95 227.307 131.722 225.829C130.894 225.281 129.905 225.033 128.931 225.132C128.259 225.2 126.109 225.275 126.017 225.279C125.866 225.286 125.738 225.164 125.734 225.011C125.729 224.857 125.847 224.729 125.999 224.723C126.021 224.722 128.222 224.644 128.875 224.578C129.973 224.468 131.091 224.747 132.024 225.365C136.389 228.259 139.91 227.662 144.176 225.76C144.965 225.408 146.434 224.233 146.976 223.654C147.864 222.702 148.075 222.034 148.395 221.024L148.466 220.798C148.779 219.82 148.751 219.104 148.383 218.607C147.564 217.504 145.13 217.574 142.981 217.634C141.63 217.672 140.354 217.708 139.539 217.453C135.387 216.151 130.758 217.637 130.711 217.654C130.481 217.707 129.884 217.689 128.481 217.593C128.33 217.583 128.215 217.449 128.226 217.296C128.236 217.143 128.364 217.027 128.52 217.038C129.739 217.122 130.427 217.149 130.567 217.118C130.738 217.061 135.382 215.567 139.705 216.922C140.431 217.15 141.664 217.115 142.967 217.078C145.25 217.013 147.835 216.94 148.824 218.273C149.302 218.916 149.359 219.823 148.991 220.969L148.919 221.193C148.589 222.237 148.349 222.991 147.376 224.035C146.807 224.646 145.272 225.879 144.398 226.269C142.193 227.251 140.121 227.904 138.013 227.904Z" fill="black"/>
<path d="M46.1225 153.584C46.1225 153.584 63.0463 155.848 68.6679 162.764C75.7861 171.523 78.8547 184.536 79.8517 190.162C80.1441 191.814 80.1096 193.507 79.7481 195.145L79.3335 197.024C77.8713 203.655 71.8821 208.252 65.1637 207.898L65.5005 207.9C64.4147 207.842 62.8304 207.48 62.3702 206.485L60.5922 203.21L60.4244 204.391C59.0881 213.106 66.0644 225.046 66.0644 225.046L46.0473 222.318C35.7629 221.276 25.9759 217.184 18.1247 210.396C13.8617 206.711 10.566 203.262 9.14337 199.075C6.72868 191.963 6.94955 189.937 6.27215 181.31C5.81068 175.435 7.51836 169.567 11.1669 164.967C16.5306 158.207 26.8531 151.116 46.1225 153.584Z" fill="white"/>
<path d="M66.0641 225.322C66.0518 225.322 66.0394 225.321 66.0271 225.32L46.01 222.592C35.49 221.526 25.7818 217.381 17.9455 210.606C14.139 207.315 10.4065 203.651 8.88271 199.163C6.84188 193.153 6.67408 190.767 6.2669 185.002C6.1904 183.915 6.10526 182.706 5.99668 181.331C5.52287 175.291 7.28238 169.417 10.9519 164.793C16.207 158.169 26.5789 150.801 46.1555 153.309H46.1568C46.8527 153.403 63.2533 155.668 68.8786 162.589C76.4299 171.879 79.3924 186.005 80.1216 190.113C80.4227 191.81 80.3869 193.524 80.0167 195.206L79.6021 197.085C78.1055 203.874 72.0323 208.539 65.1486 208.176C65.1029 208.174 65.0597 208.16 65.0227 208.138C63.8295 207.995 62.5525 207.536 62.1206 206.603L60.7473 204.073L60.6967 204.428C59.3901 212.95 66.2319 224.784 66.301 224.902C66.3541 224.995 66.3516 225.109 66.2936 225.198C66.2418 225.276 66.1554 225.322 66.0641 225.322ZM38.6215 153.363C24.0495 153.363 15.8393 159.522 11.3825 165.139C7.80184 169.653 6.08428 175.387 6.54699 181.285C6.65557 182.663 6.7407 183.872 6.8172 184.961C7.21945 190.675 7.38725 193.04 9.40464 198.981C10.8853 203.343 14.5573 206.943 18.3046 210.182C26.0545 216.883 35.6578 220.983 46.0753 222.039L65.5508 224.692C64.2417 222.325 58.9557 212.161 60.1551 204.345L60.3216 203.168C60.3377 203.049 60.4278 202.955 60.545 202.933C60.661 202.913 60.7782 202.968 60.8349 203.073L62.6129 206.348C63.0066 207.198 64.4218 207.562 65.5162 207.619C65.5422 207.62 65.5668 207.625 65.5903 207.634C72.0237 207.782 77.6588 203.35 79.0666 196.962L79.4812 195.083C79.8366 193.473 79.8699 191.832 79.5824 190.209C78.8606 186.135 75.924 172.126 68.4566 162.939C62.9683 156.186 46.2567 153.881 46.0877 153.857C43.4299 153.52 40.9449 153.363 38.6215 153.363Z" fill="black"/>
<path d="M61.74 206.563C61.6376 206.563 61.5389 206.504 61.492 206.405L56.7515 196.354C56.6861 196.216 56.7441 196.05 56.8823 195.984C57.0192 195.918 57.1833 195.976 57.2487 196.116L61.9893 206.168C62.0547 206.306 61.9967 206.472 61.8585 206.538C61.8202 206.554 61.7807 206.563 61.74 206.563Z" fill="black"/>
<path d="M48.775 119.357L50.0175 118.521C51.0145 117.85 51.4353 116.575 51.0194 115.44C49.7708 112.034 45.219 106.098 28.6604 110.606C11.7761 115.203 14.7621 142.558 29.1453 148.404C43.5286 154.25 48.4135 124.199 48.4135 124.199L48.775 119.357Z" fill="#157B6C"/>
<path d="M46.6999 119.984C46.8924 118.941 48.2682 118.711 48.7889 119.633C50.0523 121.871 50.6545 123.43 50.8568 124.381C51.1283 125.659 49.9524 126.939 50.5854 128.309C51.2184 129.68 52.2141 131.232 52.3042 133.699C52.393 136.108 54.8126 147.153 46.3149 146.804C45.9818 146.791 45.7017 147.056 45.7066 147.394C45.7276 149.074 45.8165 153.699 46.1866 156.202C46.3877 157.567 45.5462 158.864 44.2322 159.239C40.8304 160.209 34.4969 161.575 29.7564 160.018C28.5237 159.614 27.8772 158.251 28.3164 157.02C28.8766 155.448 29.6601 151.033 29.1468 148.407C29.1468 148.407 31.9847 148.124 35.1459 146.66C40.0037 144.41 42.3937 138.93 41.0512 133.706C40.7625 132.582 40.1382 130.985 40.7884 129.293C42.4665 124.929 44.9774 129.316 44.9774 129.316L46.6999 119.984Z" fill="white"/>
<path d="M34.7528 160.998C32.9945 160.998 31.2461 160.798 29.668 160.28C29.0067 160.063 28.4724 159.594 28.1652 158.959C27.8542 158.318 27.8147 157.594 28.0541 156.922C28.5958 155.402 29.3768 151.037 28.8734 148.458C28.8586 148.381 28.8759 148.301 28.9228 148.238C28.9684 148.176 29.04 148.135 29.1165 148.128C29.1449 148.125 31.9495 147.831 35.028 146.406C39.6883 144.247 42.1079 138.934 40.7827 133.774C40.7445 133.624 40.7001 133.466 40.6532 133.3C40.3497 132.22 39.9338 130.741 40.5298 129.191C41.0443 127.854 41.7069 127.145 42.5003 127.084C43.4714 127.008 44.3474 127.951 44.8274 128.597L46.4277 119.933C46.5363 119.342 46.9854 118.898 47.5715 118.798C48.1576 118.698 48.7301 118.972 49.0263 119.496C50.4477 122.015 50.9511 123.511 51.1238 124.323C51.2583 124.955 51.0831 125.567 50.9128 126.159C50.7117 126.859 50.5217 127.52 50.8326 128.192C50.9375 128.419 51.0523 128.649 51.1707 128.89C51.763 130.086 52.4996 131.573 52.5773 133.689C52.5884 133.982 52.6366 134.428 52.6933 134.946C52.9907 137.667 53.5435 142.733 51.0831 145.395C49.9702 146.599 48.36 147.168 46.3019 147.082C46.2118 147.079 46.1316 147.11 46.0699 147.171C46.0107 147.229 45.9786 147.307 45.9798 147.39C46.002 149.209 46.0933 153.704 46.4561 156.161C46.677 157.655 45.7516 159.093 44.3042 159.505C42.0191 160.156 38.3656 160.998 34.7528 160.998ZM29.4657 148.643C29.8889 151.376 29.1276 155.553 28.5723 157.111C28.3836 157.64 28.4144 158.209 28.6587 158.715C28.9006 159.214 29.3188 159.581 29.8371 159.752C34.5171 161.288 40.8148 159.921 44.1525 158.969C45.3345 158.632 46.0896 157.459 45.9095 156.242C45.5418 153.752 45.4493 149.226 45.427 147.396C45.4246 147.16 45.5159 146.937 45.6837 146.772C45.8515 146.608 46.0835 146.518 46.3216 146.527C48.2156 146.604 49.679 146.096 50.6772 145.015C52.9648 142.54 52.4305 137.638 52.143 135.006C52.0826 134.456 52.0357 134.021 52.0246 133.709C51.9518 131.714 51.2731 130.345 50.6759 129.138C50.555 128.893 50.4378 128.658 50.3317 128.427C49.9344 127.566 50.1725 126.737 50.3823 126.004C50.5402 125.455 50.6883 124.936 50.5834 124.441C50.4489 123.808 50.006 122.36 48.5463 119.772C48.3279 119.386 47.9466 119.299 47.6616 119.347C47.379 119.396 47.0484 119.601 46.9669 120.036L45.2432 129.366C45.2222 129.48 45.1322 129.569 45.0199 129.589C44.9076 129.609 44.7928 129.555 44.7348 129.454C44.4313 128.926 43.4528 127.57 42.5398 127.639C41.9759 127.682 41.4712 128.273 41.0406 129.393C40.5113 130.77 40.8827 132.089 41.1801 133.149C41.2282 133.319 41.2738 133.481 41.3121 133.635C42.7051 139.056 40.1572 144.64 35.255 146.912C32.6441 148.121 30.2776 148.531 29.4657 148.643Z" fill="black"/>
<path d="M21.8626 116.135C21.8626 116.135 13.555 112.131 7.51268 117.851C1.47041 123.571 -4.38309 136.155 4.67971 149.882C10.3753 158.509 12.5666 165.329 13.4081 169.206C13.6895 170.504 15.3749 170.829 16.1041 169.723C19.7515 164.194 26.407 151.999 23.1841 140.539C18.8409 125.096 21.8626 116.135 21.8626 116.135Z" fill="#157B6C"/>
<path d="M52.3255 132.62C52.2317 132.62 52.1404 132.571 52.0898 132.485C52.0121 132.353 52.054 132.183 52.1836 132.104C54.9104 130.452 53.1435 125.784 52.6537 124.63L44.9395 128.607C44.8038 128.677 44.6384 128.622 44.5693 128.486C44.5002 128.349 44.5533 128.182 44.689 128.112L52.6611 124.002C52.7265 123.968 52.8042 123.962 52.8745 123.986C52.9449 124.01 53.0029 124.061 53.0349 124.128C53.1571 124.385 55.9987 130.44 52.4674 132.579C52.4229 132.606 52.3736 132.62 52.3255 132.62Z" fill="black"/>
<path d="M52.5463 135.813C52.476 135.813 52.4044 135.786 52.3514 135.731C52.244 135.622 52.2453 135.445 52.3526 135.338L53.4397 134.249C53.7703 133.918 53.8135 133.4 53.5421 133.017L52.7943 131.963C52.7055 131.839 52.7339 131.665 52.8573 131.576C52.9807 131.486 53.1522 131.515 53.241 131.639L53.9887 132.693C54.4181 133.299 54.3503 134.12 53.8259 134.644L52.7388 135.733C52.6858 135.786 52.6154 135.813 52.5463 135.813Z" fill="black"/>
<path d="M43.7975 136.769C43.6198 136.769 43.4323 136.749 43.2349 136.699C42.2934 136.463 41.4865 135.65 40.8338 134.284C40.7684 134.146 40.8251 133.98 40.9621 133.913C41.099 133.847 41.2631 133.904 41.3298 134.043C41.906 135.249 42.5896 135.961 43.3607 136.158C44.1899 136.37 44.8574 135.893 44.8636 135.888C44.987 135.798 45.1585 135.826 45.2473 135.949C45.3362 136.072 45.3103 136.245 45.1881 136.336C45.1597 136.358 44.5946 136.769 43.7975 136.769Z" fill="black"/>
<path d="M19.7744 115.379C19.7744 115.379 27.4948 117.726 24.3336 125.203C24.3336 125.203 27.8995 122.605 27.8094 118.547C27.7193 114.49 24.7395 113.169 22.753 113.214C20.7664 113.259 19.7744 115.379 19.7744 115.379Z" fill="white"/>
<path d="M24.3337 125.481C24.2732 125.481 24.2115 125.461 24.1621 125.42C24.0659 125.341 24.0326 125.208 24.0807 125.093C24.979 122.968 25.0567 121.072 24.3102 119.458C23.0319 116.692 19.7276 115.654 19.6943 115.644C19.6178 115.621 19.5549 115.565 19.5228 115.491C19.4907 115.418 19.4907 115.333 19.5253 115.259C19.5684 115.167 20.616 112.984 22.7469 112.936C23.9746 112.908 25.2196 113.342 26.1672 114.127C27.0124 114.827 28.0316 116.161 28.0846 118.541C28.1772 122.696 24.6446 125.319 24.4941 125.428C24.4472 125.463 24.3904 125.481 24.3337 125.481ZM20.1755 115.225C21.0849 115.568 23.6526 116.727 24.8075 119.219C25.4972 120.709 25.5515 122.402 24.9716 124.266C25.9846 123.253 27.5948 121.217 27.5356 118.552C27.4973 116.837 26.9038 115.454 25.8192 114.555C24.9839 113.864 23.8364 113.47 22.7605 113.49C21.3835 113.523 20.5099 114.684 20.1755 115.225Z" fill="black"/>
<path d="M5.05358 179.288C11.4241 183.176 24.3822 188.719 45.2359 187.433C46.7696 187.339 48.1873 188.257 48.7277 189.708L50.0282 194.966C52.3158 204.209 56.6171 212.821 62.6187 220.173L65.7342 223.989C66.2142 224.576 65.7626 225.458 65.0099 225.402L51.2609 224.382C27.6606 221.23 9.32401 209.277 3.44337 187.503L1.87512 181.696C1.368 179.812 3.39772 178.277 5.05358 179.288Z" fill="#157B6C"/>
<path d="M134.766 31.1775H180.04C182.603 31.1775 184.564 33.2831 184.564 35.872V49.1023C184.564 51.69 182.603 53.7819 180.04 53.7819C180.017 53.7819 179.327 53.7819 178.403 53.7819V62.6166L172.446 53.7819C163.787 53.7819 134.766 53.7819 134.766 53.7819C132.203 53.7819 130.007 51.6913 130.007 49.1023V35.872C130.008 33.2831 132.203 31.1775 134.766 31.1775Z" fill="white"/>
<path d="M178.403 62.8944C178.314 62.8944 178.228 62.8508 178.176 62.7736L172.3 54.0597H134.766C132.038 54.0597 129.731 51.7897 129.731 49.1023V35.8721C129.731 33.1772 132.036 30.8997 134.766 30.8997H180.04C182.731 30.8997 184.839 33.0837 184.839 35.8721V49.1023C184.839 51.8819 182.731 54.0597 180.04 54.0597H178.678V62.6166C178.678 62.7387 178.599 62.8458 178.484 62.882C178.457 62.8894 178.43 62.8944 178.403 62.8944ZM134.766 31.4553C132.335 31.4553 130.282 33.4774 130.282 35.8721V49.1023C130.282 51.4882 132.335 53.5028 134.766 53.5028H172.446C172.537 53.5028 172.622 53.5477 172.673 53.6237L178.128 61.7133V53.7806C178.128 53.6274 178.251 53.5028 178.403 53.5028H180.04C182.423 53.5028 184.288 51.5692 184.288 49.1023V35.8721C184.288 33.3952 182.422 31.4553 180.04 31.4553H134.766Z" fill="black"/>
<path d="M151.766 45.7582C151.728 45.7582 151.69 45.7507 151.653 45.7333L145.417 42.8777C145.318 42.8328 145.255 42.7344 145.255 42.6248C145.255 42.5164 145.318 42.4167 145.415 42.3719L151.651 39.4988C151.789 39.434 151.952 39.4963 152.017 39.6359C152.079 39.7754 152.019 39.9399 151.881 40.0034L146.195 42.6235L151.88 45.2275C152.018 45.291 152.079 45.4555 152.017 45.595C151.971 45.6984 151.871 45.7582 151.766 45.7582Z" fill="black"/>
<path d="M160.697 45.7582C160.592 45.7582 160.492 45.6971 160.447 45.595C160.384 45.4554 160.446 45.291 160.584 45.2274L166.268 42.6235L160.582 40.0034C160.444 39.9398 160.384 39.7754 160.447 39.6358C160.51 39.4963 160.673 39.4352 160.812 39.4988L167.048 42.3718C167.145 42.4167 167.208 42.5163 167.208 42.6247C167.208 42.7331 167.145 42.8328 167.047 42.8776L160.811 45.7333C160.774 45.7507 160.735 45.7582 160.697 45.7582Z" fill="black"/>
<path d="M153.639 49.1108C153.606 49.1108 153.574 49.1046 153.541 49.0921C153.399 49.0373 153.327 48.8766 153.381 48.7333L158.235 35.9105C158.29 35.7672 158.449 35.6962 158.591 35.7498C158.733 35.8046 158.803 35.9653 158.749 36.1086L153.895 48.9314C153.855 49.0423 153.75 49.1108 153.639 49.1108Z" fill="black"/>
<path d="M144.734 203.766C144.628 203.766 144.528 203.705 144.483 203.6C144.421 203.46 144.484 203.296 144.622 203.234C158.822 196.884 171.701 186.593 181.867 173.474C181.959 173.354 182.133 173.332 182.253 173.427C182.372 173.522 182.393 173.696 182.3 173.817C172.078 187.006 159.128 197.355 144.845 203.742C144.808 203.759 144.771 203.766 144.734 203.766Z" fill="black"/>
<path d="M143.372 211.09C143.262 211.09 143.157 211.022 143.115 210.913C143.061 210.769 143.13 210.609 143.272 210.553C156.932 205.201 169.171 196.717 179.649 185.336C179.753 185.223 179.927 185.217 180.038 185.321C180.149 185.425 180.155 185.601 180.052 185.713C169.518 197.157 157.211 205.689 143.472 211.07C143.438 211.083 143.405 211.09 143.372 211.09Z" fill="black"/>
<path d="M83.1812 9.41282C83.0554 9.41282 82.9431 9.3256 82.9135 9.19728C82.8789 9.04777 82.9715 8.89826 83.1195 8.86462C97.3375 5.55426 111.421 5.33249 124.98 8.20429C125.129 8.23544 125.224 8.3837 125.192 8.53321C125.161 8.68396 125.014 8.77865 124.866 8.74751C111.385 5.8919 97.3807 6.11367 83.2417 9.40534C83.2232 9.41033 83.2022 9.41282 83.1812 9.41282Z" fill="black"/>
<path d="M130.267 3.61187C130.243 3.61187 130.221 3.60938 130.198 3.60315C118.58 0.560657 106.42 -0.208065 94.0551 1.31692C93.9046 1.33436 93.7677 1.22721 93.7491 1.07521C93.7306 0.923214 93.838 0.784919 93.9885 0.76623C106.422 -0.76872 118.651 0.00498467 130.336 3.06492C130.483 3.10354 130.572 3.25554 130.533 3.4038C130.501 3.52839 130.389 3.61187 130.267 3.61187Z" fill="black"/>
<path d="M138.064 206.22C139.08 206.22 139.905 205.389 139.905 204.363C139.905 203.337 139.08 202.505 138.064 202.505C137.047 202.505 136.223 203.337 136.223 204.363C136.223 205.389 137.047 206.22 138.064 206.22Z" fill="black"/>
<path d="M9.98683 95.8197C9.91773 95.8197 9.84987 95.7935 9.79681 95.7425C9.68699 95.6366 9.68329 95.4609 9.78817 95.35L10.8012 94.2823C10.9061 94.1714 11.0813 94.1676 11.1899 94.2735C11.2997 94.3794 11.3034 94.5551 11.1985 94.666L10.1855 95.7337C10.1324 95.791 10.0596 95.8197 9.98683 95.8197Z" fill="black"/>
<path d="M6.44386 99.5548C6.37476 99.5548 6.3069 99.5286 6.25384 99.4776C6.14403 99.3717 6.14032 99.196 6.2452 99.0851L7.25821 98.0174C7.36309 97.9065 7.5383 97.9027 7.64688 98.0086C7.7567 98.1145 7.7604 98.2902 7.65552 98.4011L6.64251 99.4688C6.58822 99.5261 6.51666 99.5548 6.44386 99.5548Z" fill="black"/>
<path d="M7.43744 95.8771C7.36711 95.8771 7.29801 95.8509 7.24495 95.7973L6.21714 94.7757C6.10856 94.6685 6.10732 94.4916 6.21344 94.3832C6.31955 94.2736 6.49476 94.2723 6.60211 94.3795L7.62992 95.4011C7.7385 95.5083 7.73974 95.6852 7.63239 95.7936C7.58057 95.8484 7.509 95.8771 7.43744 95.8771Z" fill="black"/>
<path d="M11.0351 99.4515C10.9648 99.4515 10.8957 99.4254 10.8426 99.3718L9.81479 98.3501C9.70621 98.243 9.70498 98.0661 9.81109 97.9577C9.91721 97.848 10.0924 97.8468 10.1998 97.954L11.2276 98.9756C11.3362 99.0827 11.3374 99.2597 11.2313 99.368C11.177 99.4241 11.1067 99.4515 11.0351 99.4515Z" fill="black"/>
<path d="M135.845 8.75097C135.516 8.75097 135.186 8.68867 134.869 8.56408C134.179 8.29372 133.636 7.76172 133.34 7.06775C132.734 5.64992 133.362 3.98913 134.741 3.36369C135.404 3.06218 136.142 3.04349 136.82 3.30887C137.508 3.57923 138.052 4.11123 138.348 4.8052C138.954 6.22303 138.326 7.88382 136.948 8.50926C136.595 8.67123 136.22 8.75097 135.845 8.75097ZM135.844 3.68015C135.545 3.68015 135.247 3.74369 134.966 3.87202C133.861 4.37287 133.359 5.70848 133.846 6.84848C134.084 7.40539 134.519 7.83025 135.069 8.04703C135.607 8.25884 136.195 8.24264 136.722 8.00343C137.828 7.50257 138.33 6.16697 137.843 5.02697C137.604 4.47005 137.17 4.0452 136.62 3.82841C136.368 3.72998 136.105 3.68015 135.844 3.68015Z" fill="black"/>
</g>
<defs>
<clipPath id="clip0_252_4953">
<rect width="228" height="228" fill="white"/>
</clipPath>
</defs>
</svg>
