<svg width="45" height="40" viewBox="0 0 45 40" fill="none" xmlns="http://www.w3.org/2000/svg">
<path d="M12.9843 0C11.769 0.00263158 10.5793 0.691228 9.96754 1.74158L0.451802 18.2391C-0.150601 19.2923 -0.150601 20.6689 0.451802 21.7221L9.96754 38.2198C10.5793 39.2702 11.769 39.9589 12.9843 39.9614H32.0158C33.2311 39.9588 34.4208 39.2702 35.0325 38.2198L44.5483 21.7221C45.1507 20.6689 45.1505 19.2923 44.5483 18.2391L35.0325 1.74158C34.4208 0.691053 33.2311 0.00245614 32.0158 0H12.9843ZM13.1571 9.6514C13.1833 9.64877 13.2107 9.64877 13.2369 9.6514H16.5194C16.5924 9.65373 16.6636 9.67445 16.7263 9.71163C16.7891 9.74881 16.8414 9.80124 16.8784 9.86403L22.447 19.7679C22.4751 19.817 22.493 19.8714 22.4997 19.9275C22.5067 19.8714 22.5247 19.817 22.5528 19.7679L28.108 9.86403C28.1463 9.79948 28.2007 9.74594 28.2659 9.70867C28.3312 9.6714 28.405 9.65167 28.4801 9.6514H31.7628C32.0534 9.65386 32.2712 10.0193 32.135 10.2761L26.6993 19.9807L32.135 29.6719C32.284 29.9302 32.0611 30.3125 31.7628 30.31H28.4801C28.4036 30.3084 28.329 30.2866 28.2636 30.247C28.1983 30.2073 28.1446 30.1511 28.108 30.084L22.5528 20.18C22.5246 20.1309 22.5066 20.0767 22.4999 20.0205C22.4932 20.0768 22.4752 20.1311 22.447 20.1802L16.8782 30.084C16.8428 30.1492 16.7912 30.2041 16.7284 30.2437C16.6657 30.2832 16.5938 30.3061 16.5196 30.31H13.2367C12.9384 30.3126 12.7155 29.9302 12.8646 29.6719L18.3003 19.9807L12.8646 10.2761C12.7343 10.0418 12.8934 9.7014 13.1571 9.6514Z" fill="#3498DB"/>
</svg>
