<svg width="81" height="81" viewBox="0 0 81 81" fill="none" xmlns="http://www.w3.org/2000/svg">
<path d="M40.4489 1.68061C39.7418 1.71649 39.0491 1.89201 38.4114 2.19686L10.5983 15.4856C9.87847 15.8294 9.24601 16.3296 8.74785 16.949C8.2497 17.5685 7.89864 18.2913 7.72077 19.0637L0.860141 48.9137C0.701747 49.6014 0.684021 50.3136 0.808013 51.0081C0.932005 51.7027 1.1952 52.3656 1.58202 52.9575C1.67588 53.1023 1.77683 53.2425 1.88452 53.3775L21.1345 77.3125C21.6328 77.9318 22.2653 78.4319 22.9852 78.7755C23.7051 79.1192 24.4937 79.2976 25.2926 79.2975L56.1639 79.29C56.9625 79.2905 57.751 79.1127 58.4708 78.7697C59.1906 78.4267 59.8234 77.9274 60.322 77.3087L79.5651 53.3706C80.0637 52.751 80.415 52.0279 80.593 51.2551C80.771 50.4823 80.7711 49.6797 80.5933 48.9069L73.7208 19.0569C73.543 18.2843 73.192 17.5614 72.6938 16.9418C72.1956 16.3223 71.5631 15.822 70.8433 15.4781L43.0276 2.19686C42.2252 1.81333 41.3385 1.63582 40.4489 1.68061Z" fill="#326CE5"/>
<path d="M40.7099 11.8252V11.8314C39.7899 11.8402 39.0449 12.6664 39.0449 13.6889C39.0449 13.7064 39.048 13.7214 39.048 13.7352C39.0467 13.8739 39.0405 14.0414 39.0449 14.1627C39.0667 14.7539 39.1949 15.2052 39.273 15.7471C39.3792 16.6346 39.4074 17.3389 39.413 18.0514L39.4355 17.9489C39.4255 17.4496 39.4009 16.9506 39.3617 16.4527C39.4486 17.2202 39.5117 17.9302 39.478 18.5727C39.4686 18.3696 39.4399 18.1496 39.4367 17.9589L39.4142 18.0614C39.4161 18.2783 39.4742 18.5552 39.4574 18.7633C39.4192 18.9446 39.2755 19.0727 39.1655 19.2271L39.1499 19.3027C39.258 19.1608 39.3711 19.0252 39.4374 18.8658C39.3536 19.1302 39.1749 19.3633 38.9955 19.5496C39.0455 19.4721 39.0867 19.3858 39.1455 19.3089L39.1617 19.2339C39.0711 19.3608 39.0199 19.5196 38.9211 19.6152L38.9174 19.6189L38.8774 20.3189C37.8685 20.4027 36.8668 20.5564 35.8792 20.7789C31.7175 21.7205 27.9313 23.8825 25.0055 26.9883C24.8205 26.8621 24.5055 26.6383 24.4117 26.5683L24.4086 26.5652L24.4024 26.5664C24.1036 26.6064 23.8086 26.6958 23.4211 26.4708C22.6792 25.9708 22.0017 25.2789 21.1811 24.4458C20.8055 24.0477 20.533 23.6671 20.0849 23.2827C19.983 23.1946 19.8286 23.0764 19.7149 22.9871C19.3823 22.7192 18.9727 22.5648 18.5461 22.5464C18.0305 22.5289 17.5336 22.7302 17.2086 23.1383C16.6305 23.8633 16.8161 24.9714 17.6199 25.6133L17.6449 25.6296C17.7536 25.7189 17.8886 25.8333 17.9899 25.9083C18.4661 26.2589 18.9005 26.4389 19.3711 26.7164C20.3674 27.3314 21.1899 27.8402 21.8436 28.4533C22.0949 28.7202 22.1399 29.1971 22.1749 29.4064V29.4114L22.7042 29.8827C19.8536 34.1789 18.5324 39.4827 19.3092 44.8864L18.6199 45.0889L18.6174 45.0927C18.433 45.3308 18.1724 45.7002 17.908 45.8096C17.0542 46.0783 16.0905 46.1771 14.9267 46.2989C14.3817 46.3446 13.9105 46.3183 13.3292 46.4283C13.2011 46.4533 13.023 46.4983 12.8836 46.5308L12.8692 46.5346L12.8442 46.5414C11.8567 46.7808 11.2192 47.6896 11.4255 48.5864C11.6299 49.4833 12.5961 50.0277 13.5905 49.8133L13.6149 49.8096H13.6161C13.6286 49.8064 13.6399 49.8002 13.6474 49.7983C13.7849 49.7683 13.9574 49.7352 14.0786 49.7021C14.6492 49.5489 15.0624 49.3252 15.5742 49.1296C16.6742 48.7346 17.5855 48.4046 18.4724 48.2764C18.8361 48.2477 19.2249 48.5027 19.4205 48.6121L19.4255 48.6146L20.1455 48.4914C21.8167 53.6627 25.3117 57.8414 29.7367 60.4677L29.4367 61.1877L29.4386 61.1939C29.5474 61.4752 29.6661 61.8546 29.5867 62.1264C29.2642 62.9614 28.7117 63.8446 28.0817 64.8302C27.7767 65.2852 27.463 65.6396 27.188 66.1621C27.1211 66.2877 27.038 66.4789 26.9742 66.6102C26.543 67.5321 26.8592 68.5958 27.6886 68.9952C28.523 69.3971 29.5574 68.9727 30.0055 68.0496L30.0099 68.0446V68.0383C30.0724 67.9089 30.1611 67.7396 30.2155 67.6171C30.4517 67.0758 30.5311 66.6127 30.6967 66.0914H30.6949C31.1361 64.9833 31.3786 63.8246 31.9817 63.1052C32.1442 62.9114 32.4117 62.8352 32.6917 62.7602L32.698 62.7577L33.073 62.0802C38.0103 63.9785 43.4737 63.9922 48.4205 62.1189C48.528 62.3083 48.7192 62.6596 48.7724 62.7502L48.7749 62.7539L48.7799 62.7564C49.0661 62.8496 49.3724 62.8958 49.6236 63.2664C50.0749 64.0396 50.3849 64.9558 50.7624 66.0633C50.928 66.5833 51.0105 67.0477 51.2467 67.5889C51.3011 67.7139 51.3905 67.8858 51.453 68.0164C51.8999 68.9427 52.9374 69.3683 53.7736 68.9664C54.6024 68.5664 54.9186 67.5039 54.488 66.5821C54.4242 66.4508 54.3361 66.2583 54.2705 66.1327C53.9949 65.6102 53.6811 65.2596 53.3767 64.8046C52.7455 63.8189 52.2249 63.0014 51.9017 62.1658C51.7686 61.7377 51.9242 61.4758 52.0305 61.1939L52.0342 61.1852L52.028 61.1789C52.0059 61.1458 51.9871 61.1107 51.9717 61.0739C51.9452 61.0142 51.9201 60.9538 51.8967 60.8927C51.8467 60.7614 51.7967 60.6164 51.7567 60.5202C56.3555 57.8014 59.748 53.4671 61.3442 48.4608C61.5611 48.4946 61.9255 48.5577 62.0442 48.5814L62.0505 48.5827L62.0561 48.5802C62.3074 48.4146 62.5311 48.2014 62.978 48.2371C63.8649 48.3652 64.7755 48.6958 65.8767 49.0908C66.3874 49.2858 66.8011 49.5139 67.3724 49.6664C67.4936 49.6989 67.6661 49.7296 67.8036 49.7596C67.8111 49.7614 67.8217 49.7671 67.8349 49.7702H67.8361L67.8611 49.7727C68.8549 49.9858 69.8217 49.4427 70.0261 48.5458C70.2305 47.6489 69.5942 46.7408 68.6061 46.5027C68.4642 46.4702 68.2617 46.4146 68.1217 46.3877C67.5405 46.2777 67.0699 46.3052 66.5236 46.2596C65.3611 46.1377 64.3974 46.0389 63.5424 45.7702C63.2005 45.6371 62.9536 45.2252 62.8311 45.0527L62.8274 45.0489L62.1611 44.8552C62.5173 42.2669 62.3986 39.6353 61.8111 37.0896C61.2223 34.5182 60.1667 32.0768 58.6967 29.8864C58.8705 29.7289 59.1874 29.4483 59.2792 29.3639L59.2836 29.3602V29.3539C59.3111 29.0539 59.2874 28.7477 59.593 28.4202C60.2461 27.8077 61.0705 27.2971 62.0661 26.6833C62.5374 26.4058 62.9749 26.2264 63.4499 25.8752C63.5586 25.7952 63.7049 25.6702 63.8174 25.5796C64.6211 24.9383 64.8074 23.8308 64.2286 23.1052C63.6505 22.3802 62.5299 22.3133 61.7267 22.9539C61.613 23.0446 61.458 23.1614 61.3555 23.2496C60.9074 23.6358 60.6305 24.0158 60.2555 24.4139C59.4349 25.2483 58.7567 25.9427 58.0142 26.4427C57.6974 26.6264 57.228 26.5633 57.0124 26.5502H57.0074L56.3799 26.9996C52.7705 23.2196 47.8611 20.8021 42.5736 20.3296C42.558 20.0851 42.5447 19.8405 42.5336 19.5958V19.5908L42.5299 19.5871C42.3111 19.3789 42.0549 19.2058 41.9899 18.7633V18.7621C41.918 17.8696 42.038 16.9077 42.1774 15.7471C42.2555 15.2052 42.3849 14.7533 42.4061 14.1627C42.4117 14.0277 42.403 13.8333 42.403 13.6889C42.403 12.6608 41.6511 11.8252 40.723 11.8252H40.7099ZM18.7255 22.5964C18.8138 22.6089 18.9009 22.6269 18.9867 22.6502C18.901 22.6261 18.8137 22.6081 18.7255 22.5964ZM38.6242 24.7683L38.1324 33.4746L38.0967 33.4927L38.0955 33.5008C38.0942 33.5321 38.0867 33.5602 38.083 33.5902C38.0623 33.7775 38.0066 33.9592 37.9186 34.1258C37.8957 34.17 37.8705 34.2131 37.843 34.2552C37.7291 34.4212 37.5823 34.562 37.4117 34.6689C37.368 34.6971 37.3199 34.7189 37.273 34.7427C37.1017 34.8238 36.9165 34.8718 36.7274 34.8839C36.6992 34.8858 36.6724 34.8927 36.6442 34.8927C36.613 34.8927 36.5855 34.8789 36.5549 34.8764C36.3469 34.8567 36.1458 34.7918 35.9655 34.6864C35.9374 34.6702 35.9067 34.6608 35.8799 34.6433L35.8761 34.6571L35.8786 34.6433C35.8511 34.6264 35.8149 34.6333 35.7886 34.6139L35.7811 34.6077L35.7674 34.6164L28.6292 29.5558C28.6874 29.4989 28.7492 29.4471 28.8086 29.3908C29.4387 28.7914 30.1136 28.2408 30.8274 27.7439C30.9755 27.6408 31.123 27.5364 31.2742 27.4377C32.0336 26.9423 32.8311 26.508 33.6592 26.1389C33.8092 26.0721 33.9636 26.0114 34.1155 25.9483C34.9355 25.6099 35.7805 25.3358 36.643 25.1283C36.718 25.1096 36.7917 25.0864 36.868 25.0696C37.228 24.9883 37.5942 24.9408 37.9586 24.8827L37.9624 24.8671H37.9649L37.9611 24.8827C38.183 24.8477 38.4017 24.7952 38.6242 24.7683ZM42.828 24.7696C42.9511 24.7846 43.0717 24.8121 43.1942 24.8302C43.8599 24.9288 44.5193 25.0657 45.1692 25.2402C45.4267 25.3094 45.6819 25.3844 45.9349 25.4652C46.5803 25.6716 47.2133 25.9154 47.8305 26.1952C48.0646 26.3014 48.2963 26.4129 48.5255 26.5296C49.1349 26.8409 49.7255 27.1878 50.2942 27.5683C50.5084 27.7125 50.7199 27.8619 50.9286 28.0164C51.4732 28.418 51.9941 28.8508 52.4886 29.3127C52.5786 29.3964 52.6742 29.4733 52.7624 29.5596L45.6711 34.5871L45.6461 34.5777L45.6399 34.5827C45.6117 34.6027 45.5811 34.6108 45.5524 34.6289C45.3846 34.7351 45.1971 34.8061 45.0011 34.8377C44.953 34.8452 44.9055 34.8564 44.8574 34.8583C44.6456 34.8667 44.4345 34.8292 44.2386 34.7483C44.1815 34.726 44.1262 34.6994 44.073 34.6689C43.8905 34.5682 43.7316 34.4297 43.6067 34.2627C43.5755 34.2196 43.5517 34.1714 43.5255 34.1252C43.4298 33.954 43.3687 33.7656 43.3455 33.5708C43.3417 33.5364 43.3292 33.5064 43.3267 33.4714V33.4646L43.3199 33.4608L42.828 24.7696ZM60.123 32.4096C60.428 33.0308 60.7024 33.6652 60.9461 34.3127C60.702 33.6657 60.4273 33.0306 60.123 32.4096ZM26.013 32.8408L32.5317 38.6708L32.5242 38.7058L32.5305 38.7108C33.118 39.2214 33.1992 40.1046 32.7136 40.7127C32.6961 40.7346 32.6711 40.7483 32.6524 40.7689C32.4849 40.9546 32.2728 41.0944 32.0361 41.1752C32.0092 41.1846 31.9874 41.2021 31.9605 41.2096L31.9517 41.2108L31.9442 41.2402L23.5899 43.6527C23.5774 43.5371 23.5774 43.4214 23.5667 43.3058C23.5044 42.611 23.4852 41.913 23.5092 41.2158C23.5171 40.9742 23.5303 40.7329 23.5486 40.4921C23.6011 39.7979 23.6965 39.1076 23.8342 38.4252C23.8846 38.171 23.9415 37.9179 24.0049 37.6658C24.1705 36.995 24.3771 36.335 24.6236 35.6896C24.7111 35.4587 24.8044 35.2302 24.9036 35.0039C25.1793 34.3627 25.4945 33.7392 25.8474 33.1371C25.9036 33.0396 25.9536 32.9371 26.013 32.8408ZM55.3892 32.8452C55.4499 32.9439 55.4992 33.0477 55.558 33.1471C55.9143 33.7543 56.2336 34.3826 56.5142 35.0283C56.608 35.2446 56.7005 35.4621 56.7855 35.6821C57.0442 36.3531 57.2612 37.0394 57.4355 37.7371C57.4636 37.8464 57.5005 37.9533 57.5255 38.0639C57.9567 39.9402 58.063 41.8133 57.8867 43.6239L49.4905 41.2052L49.4836 41.1696L49.4749 41.1671C49.4467 41.1596 49.4224 41.1458 49.3955 41.1364C49.2142 41.0741 49.0466 40.9775 48.9017 40.8521C48.8651 40.8204 48.8297 40.7871 48.7955 40.7521C48.6589 40.6033 48.5544 40.428 48.4886 40.2371C48.4717 40.1883 48.4611 40.1383 48.4492 40.0877C48.4082 39.9047 48.4018 39.7156 48.4305 39.5302C48.4361 39.4996 48.4367 39.4702 48.443 39.4396C48.4492 39.4114 48.4667 39.3871 48.4742 39.3589C48.5437 39.1228 48.6726 38.9085 48.8486 38.7364C48.8699 38.7158 48.8824 38.6889 48.9049 38.6696L48.9111 38.6633L48.9074 38.6446L55.3892 32.8452ZM61.1567 34.9108C61.3638 35.5142 61.5438 36.1262 61.6967 36.7471C61.5436 36.1274 61.3634 35.5147 61.1567 34.9108ZM39.3917 39.1308H42.0555L43.7117 41.2021L43.118 43.7852L40.7242 44.9352L38.3261 43.7802L37.7305 41.1977L39.3917 39.1308ZM47.9711 46.2527C48.0836 46.2464 48.1942 46.2577 48.3042 46.2777L48.313 46.2796L48.3274 46.2608L56.9699 47.7221C56.9299 47.8346 56.878 47.9414 56.8355 48.0533C56.5894 48.6968 56.3056 49.3252 55.9855 49.9352C55.8672 50.1619 55.7436 50.3856 55.6149 50.6064C55.2635 51.2056 54.8768 51.7833 54.4567 52.3364C54.3051 52.5364 54.1492 52.7325 53.9892 52.9246C53.5428 53.4593 53.0649 53.9668 52.558 54.4446C52.3763 54.6154 52.1905 54.7821 52.0005 54.9446C51.4758 55.396 50.9249 55.8159 50.3505 56.2021C50.2505 56.2689 50.1567 56.3427 50.0561 56.4077L46.703 48.3033L46.7124 48.2896L46.7099 48.2827C46.6974 48.2546 46.6936 48.2252 46.683 48.1971C46.6201 48.0188 46.5915 47.8303 46.5986 47.6414C46.6011 47.5908 46.6024 47.5402 46.6099 47.4902C46.6408 47.2925 46.7119 47.1032 46.8186 46.9339C46.8467 46.8889 46.8799 46.8483 46.9124 46.8064C47.0302 46.6605 47.1744 46.538 47.3374 46.4452C47.3642 46.4302 47.3867 46.4108 47.4142 46.3977C47.5949 46.3108 47.7836 46.2614 47.9711 46.2527ZM33.4024 46.2877L33.4105 46.2889C33.4292 46.2889 33.448 46.2939 33.468 46.2952C33.7445 46.3137 34.0102 46.4102 34.2342 46.5733C34.2771 46.6042 34.318 46.6371 34.3567 46.6721C34.5626 46.8573 34.7118 47.0969 34.7874 47.3633C34.7924 47.3821 34.8011 47.4002 34.8061 47.4196C34.8749 47.7189 34.8467 48.0321 34.7249 48.3139L34.7217 48.3214L34.7467 48.3527L31.428 56.3758C31.3311 56.3133 31.2405 56.2433 31.1461 56.1789C30.5717 55.793 30.0208 55.3733 29.4961 54.9221C29.3069 54.7588 29.1213 54.5914 28.9392 54.4202C28.4366 53.947 27.9625 53.4444 27.5192 52.9152C27.3567 52.7202 27.1984 52.5221 27.0442 52.3208C26.6326 51.7801 26.2528 51.2158 25.9067 50.6308C25.7706 50.4 25.6399 50.166 25.5149 49.9289C25.1991 49.3317 24.9182 48.7168 24.6736 48.0871C24.6299 47.9739 24.5774 47.8646 24.5361 47.7502L33.103 46.2964L33.1174 46.3152L33.1261 46.3121C33.2178 46.2954 33.3094 46.2873 33.4024 46.2877ZM40.6711 49.8133C40.7074 49.8121 40.7424 49.8214 40.7786 49.8227C40.9397 49.8292 41.0986 49.8628 41.2486 49.9221C41.2824 49.9352 41.3186 49.9408 41.3511 49.9571V49.9583C41.6289 50.0896 41.8574 50.3065 42.003 50.5771L42.0067 50.5846H42.0399L46.263 58.2177C46.0905 58.2752 45.9149 58.3258 45.7405 58.3777C45.5341 58.4392 45.3265 58.4969 45.118 58.5508C44.9411 58.5971 44.7655 58.6446 44.5867 58.6852C44.5092 58.7033 44.4305 58.7139 44.3517 58.7302C43.4912 58.9138 42.6178 59.031 41.7392 59.0808C41.5642 59.0908 41.3905 59.1027 41.2155 59.1077C40.3132 59.1322 39.4104 59.0856 38.5155 58.9683C38.3405 58.9458 38.1655 58.9152 37.9917 58.8871C37.1327 58.7484 36.2855 58.5447 35.4574 58.2777C35.378 58.2521 35.2967 58.2327 35.2174 58.2058L39.4311 50.5883H39.4374L39.4417 50.5808C39.458 50.5508 39.4824 50.5277 39.5005 50.4996C39.6005 50.3424 39.729 50.2053 39.8792 50.0952C39.9305 50.0577 39.9846 50.0235 40.0417 49.9927C40.2071 49.9055 40.3872 49.85 40.573 49.8289C40.6067 49.8258 40.6374 49.8146 40.6711 49.8133ZM48.0267 62.2233C47.358 62.4617 46.6792 62.6664 45.9905 62.8377C46.6788 62.666 47.3583 62.461 48.0267 62.2233Z" fill="white"/>
</svg>
