<svg width="86" height="87" viewBox="0 0 86 87" fill="none" xmlns="http://www.w3.org/2000/svg">
<path d="M46.3594 30.4942V18.7041L63.5755 27.4143V44.4611L56.7277 41.1582V35.7966L46.3594 30.4942Z" fill="#4396B9"/>
<path d="M69.1267 41.6745L73.5879 43.9561L56.7696 52.3653L56.7266 41.145L63.5743 44.448L69.1267 41.6745Z" fill="#B8DDE8"/>
<path d="M46.3596 23.418L39.3398 26.8929L46.3596 30.4942V23.418Z" fill="#75BED5"/>
<path d="M39.6782 61.0242L39.5358 44.0392L22.4567 35.5252L5.375 27.0918V44.324L5.53894 61.0134L22.0563 69.2721L22.5508 69.5194L22.5858 69.5355L39.6756 78.0602L39.6782 61.0242Z" fill="#4396B9"/>
<path d="M73.5887 43.9669L56.7273 52.3976V35.7969L39.5273 44.026L39.6752 61.3684V78.0578L56.722 69.5331V69.439L73.5887 61.0244V43.9669Z" fill="#75BED5"/>
<path d="M80.6249 35.9362L63.5781 44.4583V27.4115L80.6249 18.8867V35.9362Z" fill="#75BED5"/>
<path d="M46.3594 18.7044L63.5755 27.4146L80.625 18.8871L63.2369 9.99419L51.4871 16.0572L38.8559 9.58838L21.7016 18.5136L5.375 27.0921L22.4567 35.5281L39.5358 44.0287L56.7358 35.7996L39.3396 26.8932L39.1166 27.0088L39.0736 26.9873L39.3423 26.8932L46.3621 23.3994L46.3594 18.7044Z" fill="#B8DDE8"/>
</svg>
